G04*
G04 #@! TF.GenerationSoftware,Altium Limited,Altium Designer,22.5.1 (42)*
G04*
G04 Layer_Color=8388736*
%FSLAX25Y25*%
%MOIN*%
G70*
G04*
G04 #@! TF.SameCoordinates,5F65DDE1-41B9-4BDB-98F2-9488EF11E66D*
G04*
G04*
G04 #@! TF.FilePolarity,Negative*
G04*
G01*
G75*
%ADD42R,0.07000X0.08000*%
G04:AMPARAMS|DCode=61|XSize=27.56mil|YSize=25.59mil|CornerRadius=5.41mil|HoleSize=0mil|Usage=FLASHONLY|Rotation=0.000|XOffset=0mil|YOffset=0mil|HoleType=Round|Shape=RoundedRectangle|*
%AMROUNDEDRECTD61*
21,1,0.02756,0.01476,0,0,0.0*
21,1,0.01673,0.02559,0,0,0.0*
1,1,0.01083,0.00837,-0.00738*
1,1,0.01083,-0.00837,-0.00738*
1,1,0.01083,-0.00837,0.00738*
1,1,0.01083,0.00837,0.00738*
%
%ADD61ROUNDEDRECTD61*%
%ADD62R,0.03740X0.03740*%
%ADD63R,0.02953X0.06102*%
%ADD64R,0.07677X0.05906*%
%ADD65R,0.03740X0.02953*%
%ADD66C,0.03591*%
%ADD67R,0.10236X0.10236*%
%ADD68O,0.02362X0.01968*%
%ADD69O,0.01968X0.02362*%
%ADD70R,0.02559X0.03150*%
%ADD71R,0.17520X0.13976*%
%ADD72C,0.02953*%
%ADD73R,0.03391X0.01591*%
%ADD74R,0.01591X0.03391*%
%ADD75R,0.02953X0.03740*%
G04:AMPARAMS|DCode=76|XSize=27.56mil|YSize=25.59mil|CornerRadius=5.41mil|HoleSize=0mil|Usage=FLASHONLY|Rotation=90.000|XOffset=0mil|YOffset=0mil|HoleType=Round|Shape=RoundedRectangle|*
%AMROUNDEDRECTD76*
21,1,0.02756,0.01476,0,0,90.0*
21,1,0.01673,0.02559,0,0,90.0*
1,1,0.01083,0.00738,0.00837*
1,1,0.01083,0.00738,-0.00837*
1,1,0.01083,-0.00738,-0.00837*
1,1,0.01083,-0.00738,0.00837*
%
%ADD76ROUNDEDRECTD76*%
%ADD77R,0.03740X0.07677*%
%ADD78R,0.04921X0.02953*%
%ADD79R,0.03740X0.04528*%
%ADD80R,0.08661X0.04134*%
%ADD81R,0.04134X0.03937*%
%ADD82R,0.11024X0.07480*%
%ADD83R,0.04134X0.04134*%
%ADD84R,0.08465X0.04134*%
%ADD85R,0.04134X0.08465*%
%ADD86R,0.16339X0.16339*%
%ADD87R,0.04331X0.04331*%
%ADD88R,0.03032X0.03543*%
%ADD89R,0.08071X0.13189*%
%ADD90R,0.08071X0.04134*%
%ADD91R,0.01772X0.03347*%
%ADD92R,0.04134X0.03347*%
%ADD93R,0.05315X0.08071*%
%ADD94R,0.06496X0.08071*%
%ADD95R,0.02165X0.05906*%
%ADD96R,0.03543X0.03032*%
%ADD97R,0.07480X0.11024*%
%ADD98R,0.03740X0.02953*%
%ADD99R,0.04528X0.03740*%
%ADD100C,0.07284*%
%ADD101C,0.06693*%
%ADD102R,0.06693X0.06693*%
%ADD103C,0.01772*%
%ADD104O,0.04921X0.09252*%
%ADD105O,0.05709X0.10827*%
%ADD106O,0.04331X0.08071*%
%ADD107C,0.06299*%
%ADD108C,0.12402*%
%ADD109C,0.20276*%
%ADD110C,0.02559*%
G36*
X923180Y781855D02*
X923025Y781867D01*
X922872Y781888D01*
X922720Y781916D01*
X922570Y781952D01*
X922421Y781996D01*
X922276Y782047D01*
X922133Y782106D01*
X921994Y782173D01*
X921858Y782247D01*
X921726Y782328D01*
X921598Y782415D01*
X921476Y782509D01*
X921358Y782610D01*
X921246Y782716D01*
X921140Y782828D01*
X921039Y782946D01*
X920945Y783068D01*
X920858Y783196D01*
X920777Y783328D01*
X920703Y783463D01*
X920636Y783603D01*
X920577Y783746D01*
X920526Y783891D01*
X920482Y784040D01*
X920446Y784190D01*
X920418Y784342D01*
X920397Y784495D01*
X920385Y784649D01*
X920381Y784804D01*
Y793859D01*
X920385Y794014D01*
X920397Y794168D01*
X920418Y794321D01*
X920446Y794473D01*
X920482Y794623D01*
X920526Y794772D01*
X920577Y794917D01*
X920636Y795060D01*
X920703Y795200D01*
X920777Y795335D01*
X920858Y795467D01*
X920945Y795595D01*
X921039Y795717D01*
X921140Y795835D01*
X921246Y795947D01*
X921358Y796053D01*
X921476Y796154D01*
X921598Y796248D01*
X921726Y796336D01*
X921858Y796416D01*
X921994Y796490D01*
X922133Y796557D01*
X922276Y796616D01*
X922421Y796667D01*
X922570Y796711D01*
X922720Y796747D01*
X922872Y796775D01*
X923025Y796796D01*
X923180Y796808D01*
X923334Y796812D01*
X923489Y796808D01*
X923643Y796796D01*
X923796Y796775D01*
X923948Y796747D01*
X924098Y796711D01*
X924247Y796667D01*
X924392Y796616D01*
X924535Y796557D01*
X924675Y796490D01*
X924810Y796416D01*
X924942Y796336D01*
X925070Y796248D01*
X925192Y796154D01*
X925310Y796053D01*
X925422Y795947D01*
X925528Y795835D01*
X925629Y795717D01*
X925723Y795595D01*
X925810Y795467D01*
X925891Y795335D01*
X925965Y795200D01*
X926031Y795060D01*
X926091Y794917D01*
X926142Y794772D01*
X926186Y794623D01*
X926222Y794473D01*
X926250Y794321D01*
X926271Y794168D01*
X926283Y794014D01*
X926287Y793859D01*
Y784804D01*
X926283Y784649D01*
X926271Y784495D01*
X926250Y784342D01*
X926222Y784190D01*
X926186Y784040D01*
X926142Y783891D01*
X926091Y783746D01*
X926031Y783603D01*
X925965Y783463D01*
X925891Y783328D01*
X925810Y783196D01*
X925723Y783068D01*
X925629Y782946D01*
X925528Y782828D01*
X925422Y782716D01*
X925310Y782610D01*
X925192Y782509D01*
X925070Y782415D01*
X924942Y782328D01*
X924810Y782247D01*
X924675Y782173D01*
X924535Y782106D01*
X924392Y782047D01*
X924247Y781996D01*
X924098Y781952D01*
X923948Y781916D01*
X923796Y781888D01*
X923643Y781867D01*
X923489Y781855D01*
X923334Y781851D01*
X923180Y781855D01*
D02*
G37*
G36*
X959557D02*
X959403Y781867D01*
X959250Y781888D01*
X959098Y781916D01*
X958948Y781952D01*
X958799Y781996D01*
X958654Y782047D01*
X958511Y782106D01*
X958371Y782173D01*
X958236Y782247D01*
X958104Y782328D01*
X957976Y782415D01*
X957854Y782509D01*
X957736Y782610D01*
X957624Y782716D01*
X957518Y782828D01*
X957417Y782946D01*
X957323Y783068D01*
X957236Y783196D01*
X957155Y783328D01*
X957081Y783463D01*
X957014Y783603D01*
X956955Y783746D01*
X956904Y783891D01*
X956860Y784040D01*
X956824Y784190D01*
X956796Y784342D01*
X956775Y784495D01*
X956763Y784649D01*
X956759Y784804D01*
Y793859D01*
X956763Y794014D01*
X956775Y794168D01*
X956796Y794321D01*
X956824Y794473D01*
X956860Y794623D01*
X956904Y794772D01*
X956955Y794917D01*
X957014Y795060D01*
X957081Y795200D01*
X957155Y795335D01*
X957236Y795467D01*
X957323Y795595D01*
X957417Y795717D01*
X957518Y795835D01*
X957624Y795947D01*
X957736Y796053D01*
X957854Y796154D01*
X957976Y796248D01*
X958104Y796336D01*
X958236Y796416D01*
X958371Y796490D01*
X958511Y796557D01*
X958654Y796616D01*
X958799Y796667D01*
X958948Y796711D01*
X959098Y796747D01*
X959250Y796775D01*
X959403Y796796D01*
X959557Y796808D01*
X959712Y796812D01*
X959867Y796808D01*
X960021Y796796D01*
X960174Y796775D01*
X960326Y796747D01*
X960476Y796711D01*
X960624Y796667D01*
X960770Y796616D01*
X960913Y796557D01*
X961053Y796490D01*
X961188Y796416D01*
X961320Y796336D01*
X961448Y796248D01*
X961570Y796154D01*
X961688Y796053D01*
X961800Y795947D01*
X961906Y795835D01*
X962007Y795717D01*
X962101Y795595D01*
X962188Y795467D01*
X962269Y795335D01*
X962343Y795200D01*
X962409Y795060D01*
X962469Y794917D01*
X962520Y794772D01*
X962564Y794623D01*
X962600Y794473D01*
X962628Y794321D01*
X962648Y794168D01*
X962661Y794014D01*
X962665Y793859D01*
Y784804D01*
X962661Y784649D01*
X962648Y784495D01*
X962628Y784342D01*
X962600Y784190D01*
X962564Y784040D01*
X962520Y783891D01*
X962469Y783746D01*
X962409Y783603D01*
X962343Y783463D01*
X962269Y783328D01*
X962188Y783196D01*
X962101Y783068D01*
X962007Y782946D01*
X961906Y782828D01*
X961800Y782716D01*
X961688Y782610D01*
X961570Y782509D01*
X961448Y782415D01*
X961320Y782328D01*
X961188Y782247D01*
X961053Y782173D01*
X960913Y782106D01*
X960770Y782047D01*
X960624Y781996D01*
X960476Y781952D01*
X960326Y781916D01*
X960174Y781888D01*
X960021Y781867D01*
X959867Y781855D01*
X959712Y781851D01*
X959557Y781855D01*
D02*
G37*
D42*
X848648Y750200D02*
D03*
X838148D02*
D03*
X872648Y499700D02*
D03*
X883148D02*
D03*
D61*
X871494Y741736D02*
D03*
Y745279D02*
D03*
X921254Y727004D02*
D03*
Y723461D02*
D03*
X827148Y651928D02*
D03*
Y655472D02*
D03*
X930134Y724574D02*
D03*
Y728117D02*
D03*
X940648Y718743D02*
D03*
Y715200D02*
D03*
X958442Y732999D02*
D03*
Y729456D02*
D03*
X980248Y729285D02*
D03*
Y732829D02*
D03*
X900209Y580096D02*
D03*
Y576553D02*
D03*
X851148Y491903D02*
D03*
Y488360D02*
D03*
X847148Y491903D02*
D03*
Y488360D02*
D03*
X842648Y562367D02*
D03*
Y565911D02*
D03*
X847148Y562367D02*
D03*
Y565911D02*
D03*
X838301Y502772D02*
D03*
Y499228D02*
D03*
X851148Y565911D02*
D03*
Y562367D02*
D03*
X855648D02*
D03*
Y565911D02*
D03*
X866148Y503472D02*
D03*
Y499928D02*
D03*
X834148Y499228D02*
D03*
Y502772D02*
D03*
X844451Y722909D02*
D03*
Y719365D02*
D03*
X943398Y744472D02*
D03*
Y740928D02*
D03*
X939648Y744472D02*
D03*
Y740928D02*
D03*
X829648Y496596D02*
D03*
Y500139D02*
D03*
D62*
X841695Y737011D02*
D03*
X851144Y740751D02*
D03*
Y733271D02*
D03*
D63*
X862286Y739964D02*
D03*
X858546Y750987D02*
D03*
X866026D02*
D03*
D64*
X769148Y704113D02*
D03*
Y693287D02*
D03*
Y674873D02*
D03*
Y685700D02*
D03*
D65*
X835648Y486846D02*
D03*
Y492554D02*
D03*
D66*
X910671Y630209D02*
D03*
X776148Y685700D02*
D03*
X821648Y654200D02*
D03*
X812657Y645191D02*
D03*
X910148Y666200D02*
D03*
X887148Y490200D02*
D03*
X888648Y485700D02*
D03*
X893648D02*
D03*
X898148D02*
D03*
X902648D02*
D03*
X907148D02*
D03*
X912148D02*
D03*
Y490200D02*
D03*
Y494700D02*
D03*
Y499200D02*
D03*
Y503700D02*
D03*
Y508200D02*
D03*
Y513200D02*
D03*
X907148D02*
D03*
X902648D02*
D03*
X898148D02*
D03*
X893648D02*
D03*
X837148Y587700D02*
D03*
X791648Y636700D02*
D03*
X980148Y724700D02*
D03*
X959237Y719958D02*
D03*
X834648Y710200D02*
D03*
X789648Y719070D02*
D03*
X929735Y744574D02*
D03*
X929735Y749806D02*
D03*
X953648Y728200D02*
D03*
X952648Y715200D02*
D03*
X958648D02*
D03*
X955648Y724200D02*
D03*
X930209Y584325D02*
D03*
X833648Y572700D02*
D03*
X829648Y492139D02*
D03*
X910648Y625200D02*
D03*
X927021Y636078D02*
D03*
X930230Y716700D02*
D03*
X944288Y621044D02*
D03*
X843648Y572700D02*
D03*
X827148Y467700D02*
D03*
X814287Y660728D02*
D03*
X788875Y660720D02*
D03*
X858648Y500700D02*
D03*
X850880Y588932D02*
D03*
X788875Y665680D02*
D03*
X789148Y694700D02*
D03*
X859148Y578700D02*
D03*
X876148Y580200D02*
D03*
Y567900D02*
D03*
X870815Y585200D02*
D03*
X868148Y589700D02*
D03*
X859060Y569322D02*
D03*
X886148Y589200D02*
D03*
X892148Y584700D02*
D03*
X891148Y589200D02*
D03*
X881148Y574700D02*
D03*
X888648Y580200D02*
D03*
X888648Y574200D02*
D03*
X922048Y579700D02*
D03*
X809657Y650191D02*
D03*
X916648Y645200D02*
D03*
X912148Y661200D02*
D03*
X925911Y650846D02*
D03*
X913350Y649902D02*
D03*
X924648Y646200D02*
D03*
D67*
X941523Y729987D02*
D03*
D68*
X948314Y734909D02*
D03*
Y732940D02*
D03*
Y730972D02*
D03*
Y729003D02*
D03*
Y727035D02*
D03*
Y725066D02*
D03*
X934732D02*
D03*
Y727035D02*
D03*
Y729003D02*
D03*
Y730972D02*
D03*
Y732940D02*
D03*
Y734909D02*
D03*
D69*
X946444Y723196D02*
D03*
X944476D02*
D03*
X942507D02*
D03*
X940539D02*
D03*
X938570D02*
D03*
X936602D02*
D03*
Y736779D02*
D03*
X938570D02*
D03*
X940539D02*
D03*
X942507D02*
D03*
X944476D02*
D03*
X946444D02*
D03*
D70*
X939332Y626724D02*
D03*
X944332D02*
D03*
X949332D02*
D03*
X954332D02*
D03*
X939332Y656291D02*
D03*
X944332D02*
D03*
X949332D02*
D03*
X954332D02*
D03*
D71*
X946832Y641507D02*
D03*
D72*
X870148Y461139D02*
D03*
D73*
X905648Y580200D02*
D03*
Y582200D02*
D03*
Y584200D02*
D03*
X916848D02*
D03*
Y582200D02*
D03*
Y580200D02*
D03*
D74*
X907348Y587800D02*
D03*
X909248D02*
D03*
X911248D02*
D03*
X913248D02*
D03*
X915148D02*
D03*
Y576600D02*
D03*
X913248D02*
D03*
X911248D02*
D03*
X909248D02*
D03*
X907348D02*
D03*
D75*
X969027Y732999D02*
D03*
X972767Y740952D02*
D03*
X965287D02*
D03*
D76*
X872676Y572100D02*
D03*
X876220D02*
D03*
X872376Y589700D02*
D03*
X875920D02*
D03*
X884691Y584700D02*
D03*
X881148D02*
D03*
X923275Y730974D02*
D03*
X926818D02*
D03*
X948876Y707200D02*
D03*
X952420D02*
D03*
X948876Y711200D02*
D03*
X952420D02*
D03*
X925420Y584200D02*
D03*
X921876D02*
D03*
X955499Y762743D02*
D03*
X951956D02*
D03*
X851376Y578700D02*
D03*
X854920D02*
D03*
D77*
X846912Y509639D02*
D03*
X829589Y555639D02*
D03*
X833920D02*
D03*
X838250D02*
D03*
X842581D02*
D03*
X846912D02*
D03*
X851243D02*
D03*
X855573D02*
D03*
X867384D02*
D03*
X871715D02*
D03*
X876046D02*
D03*
X880376D02*
D03*
X884707D02*
D03*
Y509639D02*
D03*
X880376D02*
D03*
X876046D02*
D03*
X871715D02*
D03*
X867384D02*
D03*
X855573D02*
D03*
X851243D02*
D03*
X842581D02*
D03*
X838250D02*
D03*
X833920D02*
D03*
X829589D02*
D03*
D78*
X794652Y660779D02*
D03*
Y665700D02*
D03*
Y670621D02*
D03*
Y675543D02*
D03*
X803313Y660779D02*
D03*
Y665700D02*
D03*
Y670621D02*
D03*
Y675543D02*
D03*
D79*
X832396Y475139D02*
D03*
X845152D02*
D03*
X938155Y755700D02*
D03*
X925399D02*
D03*
X814770Y461139D02*
D03*
X827526D02*
D03*
X957647Y755700D02*
D03*
X944891D02*
D03*
X865467Y475139D02*
D03*
X852711D02*
D03*
D80*
X900648Y505200D02*
D03*
Y493586D02*
D03*
D81*
X894644Y499393D02*
D03*
D82*
X815955Y737011D02*
D03*
X832884D02*
D03*
X818388Y719169D02*
D03*
X801459D02*
D03*
D83*
X859199Y639480D02*
D03*
Y633968D02*
D03*
Y628457D02*
D03*
X870223Y639480D02*
D03*
Y633968D02*
D03*
Y628457D02*
D03*
X864711Y639480D02*
D03*
Y633968D02*
D03*
Y628457D02*
D03*
D03*
D84*
X835184Y665209D02*
D03*
Y660209D02*
D03*
Y655209D02*
D03*
Y650209D02*
D03*
Y645209D02*
D03*
Y640209D02*
D03*
Y635209D02*
D03*
Y630209D02*
D03*
Y625209D02*
D03*
Y620209D02*
D03*
Y615209D02*
D03*
Y610209D02*
D03*
Y605209D02*
D03*
Y600209D02*
D03*
X902113D02*
D03*
Y605209D02*
D03*
Y610209D02*
D03*
Y615209D02*
D03*
Y620209D02*
D03*
Y625209D02*
D03*
Y630209D02*
D03*
Y635209D02*
D03*
Y640209D02*
D03*
Y645209D02*
D03*
Y650209D02*
D03*
Y655209D02*
D03*
Y660209D02*
D03*
Y665209D02*
D03*
D85*
X846148Y596272D02*
D03*
X851148D02*
D03*
X856148D02*
D03*
X861148D02*
D03*
X866148D02*
D03*
X871148D02*
D03*
X876148D02*
D03*
X881148D02*
D03*
X886148D02*
D03*
X891148D02*
D03*
D86*
X788148Y760822D02*
D03*
Y737200D02*
D03*
D87*
X820648Y666153D02*
D03*
Y660247D02*
D03*
D88*
X916148Y670669D02*
D03*
Y666732D02*
D03*
X826148Y660231D02*
D03*
Y664169D02*
D03*
X827148Y647169D02*
D03*
Y643231D02*
D03*
X930648Y650669D02*
D03*
Y646732D02*
D03*
X809452Y660905D02*
D03*
Y664842D02*
D03*
X896148Y588168D02*
D03*
Y584232D02*
D03*
X900209Y588293D02*
D03*
Y584356D02*
D03*
X866148Y495169D02*
D03*
Y491231D02*
D03*
X788648Y685671D02*
D03*
Y689608D02*
D03*
X924942Y727201D02*
D03*
Y723264D02*
D03*
X937148Y604700D02*
D03*
Y600763D02*
D03*
D89*
X819861Y695231D02*
D03*
D90*
X796435Y686176D02*
D03*
Y695231D02*
D03*
Y704287D02*
D03*
D91*
X953334Y767009D02*
D03*
X951365D02*
D03*
X949397D02*
D03*
X947429D02*
D03*
X945460D02*
D03*
X943491D02*
D03*
X939555D02*
D03*
X937586D02*
D03*
X935618D02*
D03*
X933649D02*
D03*
X931680D02*
D03*
X929712D02*
D03*
X932665Y773702D02*
D03*
X934633D02*
D03*
X936602D02*
D03*
X938570D02*
D03*
X940539D02*
D03*
X942507D02*
D03*
X944476D02*
D03*
X946444D02*
D03*
X948413D02*
D03*
X950381D02*
D03*
D92*
X929515D02*
D03*
X953531D02*
D03*
D93*
X861628Y455639D02*
D03*
X838794D02*
D03*
D94*
X854148D02*
D03*
X846274D02*
D03*
D95*
X855329Y466269D02*
D03*
X852770D02*
D03*
X850211D02*
D03*
X847652D02*
D03*
X845093D02*
D03*
D96*
X929757Y735109D02*
D03*
X925820D02*
D03*
X929617Y739700D02*
D03*
X925680D02*
D03*
X930617Y655700D02*
D03*
X926680D02*
D03*
X833617Y566700D02*
D03*
X829680D02*
D03*
X833742Y562439D02*
D03*
X829805D02*
D03*
X788617Y704200D02*
D03*
X784680D02*
D03*
D97*
X880647Y749669D02*
D03*
Y732739D02*
D03*
D98*
X973003Y723698D02*
D03*
X965050Y727438D02*
D03*
Y719958D02*
D03*
D99*
X851144Y723578D02*
D03*
Y710822D02*
D03*
D100*
X941006Y695495D02*
D03*
Y669905D02*
D03*
X923290Y695495D02*
D03*
Y669905D02*
D03*
X971184Y583078D02*
D03*
X945594D02*
D03*
X971184Y600794D02*
D03*
X945594D02*
D03*
D101*
X806648Y570900D02*
D03*
Y580900D02*
D03*
X796648D02*
D03*
Y570900D02*
D03*
Y590900D02*
D03*
X806648D02*
D03*
X796648Y600900D02*
D03*
X806648D02*
D03*
X796648Y610900D02*
D03*
X806648D02*
D03*
Y620900D02*
D03*
X796648Y530900D02*
D03*
X806648D02*
D03*
X796648Y540900D02*
D03*
X806648D02*
D03*
X796648Y550900D02*
D03*
X806648D02*
D03*
Y560900D02*
D03*
X796648D02*
D03*
X921648Y709200D02*
D03*
X911648D02*
D03*
X901648D02*
D03*
X891648D02*
D03*
D102*
X796648Y620900D02*
D03*
X881648Y709200D02*
D03*
D103*
X859243Y631213D02*
D03*
X870266D02*
D03*
Y636724D02*
D03*
X864754D02*
D03*
X859243D02*
D03*
X861955Y639524D02*
D03*
X867467D02*
D03*
Y634012D02*
D03*
X861955D02*
D03*
X867467Y628500D02*
D03*
X861955D02*
D03*
D104*
X958531Y770198D02*
D03*
X924515D02*
D03*
D105*
X959712Y791300D02*
D03*
X923334D02*
D03*
D106*
X863991Y455639D02*
D03*
X836432D02*
D03*
D107*
X860054Y466269D02*
D03*
X840368D02*
D03*
D108*
X839648Y775200D02*
D03*
X864648D02*
D03*
D109*
X981152Y548775D02*
D03*
Y618775D02*
D03*
X761089Y548774D02*
D03*
Y618774D02*
D03*
X788648Y462200D02*
D03*
X985648Y782267D02*
D03*
X986207Y462133D02*
D03*
X761089Y462267D02*
D03*
Y782267D02*
D03*
X904648Y782200D02*
D03*
X958648Y462200D02*
D03*
X788648Y782200D02*
D03*
D110*
X939358Y727822D02*
D03*
Y732153D02*
D03*
X943688Y727822D02*
D03*
Y732153D02*
D03*
X940927Y637570D02*
D03*
Y641507D02*
D03*
Y645444D02*
D03*
X944864Y637570D02*
D03*
Y641507D02*
D03*
Y645444D02*
D03*
X948801Y637570D02*
D03*
Y641507D02*
D03*
Y645444D02*
D03*
X952738Y637570D02*
D03*
Y641507D02*
D03*
Y645444D02*
D03*
M02*
