G04*
G04 #@! TF.GenerationSoftware,Altium Limited,Altium Designer,22.5.1 (42)*
G04*
G04 Layer_Color=32896*
%FSLAX25Y25*%
%MOIN*%
G70*
G04*
G04 #@! TF.SameCoordinates,5F65DDE1-41B9-4BDB-98F2-9488EF11E66D*
G04*
G04*
G04 #@! TF.FilePolarity,Positive*
G04*
G01*
G75*
%ADD14C,0.01000*%
G36*
X952565Y510685D02*
X952616Y510668D01*
X952701Y510634D01*
X952760Y510540D01*
X952794Y510455D01*
X952777Y510268D01*
X952709Y510115D01*
X952726Y508210D01*
X952777Y508091D01*
X952794Y508023D01*
X952811Y507734D01*
X952862Y507649D01*
X952879Y507581D01*
X952896Y507394D01*
X952922Y507368D01*
X952947Y507360D01*
X952964Y507156D01*
X952998Y507122D01*
X953015Y507088D01*
X953032Y507037D01*
X953049Y506901D01*
X953117Y506833D01*
X953143Y506688D01*
X953185Y506646D01*
X953220Y506510D01*
X953288Y506441D01*
X953304Y506340D01*
X953356Y506306D01*
X953364Y506263D01*
X953356Y506220D01*
X953381Y506178D01*
X953415Y506161D01*
X953458Y506118D01*
X953475Y506033D01*
X953526Y505982D01*
X953577Y505897D01*
X953611Y505863D01*
X953696Y505710D01*
X953764Y505642D01*
X953781Y505608D01*
X953832Y505574D01*
X953849Y505540D01*
X953934Y505455D01*
X953951Y505421D01*
X954036Y505336D01*
X954053Y505302D01*
X954078Y505277D01*
X954112Y505260D01*
X954197Y505174D01*
X954231Y505158D01*
X954368Y505021D01*
X954401Y505005D01*
X954537Y504868D01*
X954572Y504851D01*
X954640Y504783D01*
X954708Y504766D01*
X954776Y504698D01*
X954810Y504681D01*
X954861Y504630D01*
X954971Y504588D01*
X955031Y504528D01*
X955065Y504511D01*
X955116Y504460D01*
X955218Y504443D01*
X955260Y504384D01*
X955362Y504333D01*
X955507Y504256D01*
X955541Y504222D01*
X955651Y504197D01*
X955694Y504154D01*
X955779Y504120D01*
X955864Y504103D01*
X955915Y504052D01*
X956000Y504035D01*
X956051Y503984D01*
X956119Y503967D01*
X956204Y503950D01*
X956255Y503899D01*
X956323Y503882D01*
X956442Y503865D01*
X956485Y503805D01*
X956638Y503789D01*
X956697Y503746D01*
X956782Y503712D01*
X956901Y503695D01*
X956936Y503661D01*
X957003Y503644D01*
X957080Y503635D01*
X957106Y503644D01*
X957191Y503593D01*
X957225Y503559D01*
X957497Y503576D01*
X957522Y503618D01*
X957488Y503703D01*
X957471Y503771D01*
X957454Y503891D01*
X957437Y504197D01*
X957386Y504316D01*
X957369Y504435D01*
X957352Y504928D01*
X957318Y505013D01*
X957301Y505183D01*
X957318Y505931D01*
X957335Y505982D01*
X957352Y506067D01*
X957369Y506118D01*
X957386Y506510D01*
X957454Y506663D01*
X957471Y506901D01*
X957505Y506935D01*
X957539Y507020D01*
X957556Y507156D01*
X957590Y507190D01*
X957624Y507275D01*
X957641Y507377D01*
X957667Y507402D01*
X957692Y507411D01*
X957709Y507479D01*
X957718Y507539D01*
X957752Y507555D01*
X957777Y507581D01*
X957794Y507700D01*
X957854Y507743D01*
X957913Y507836D01*
X957981Y507955D01*
X958032Y508006D01*
X958049Y508040D01*
X958109Y508083D01*
X958194Y508185D01*
X958220Y508210D01*
X958237Y508244D01*
X958330Y508338D01*
X958364Y508355D01*
X958449Y508440D01*
X958483Y508457D01*
X958509Y508482D01*
X958526Y508516D01*
X958585Y508559D01*
X958636Y508610D01*
X958730Y508635D01*
X958789Y508695D01*
X958823Y508712D01*
X958925Y508780D01*
X958993Y508797D01*
X959027Y508831D01*
X959112Y508865D01*
X959163Y508882D01*
X959214Y508933D01*
X959385Y508950D01*
X959486Y509018D01*
X959657Y509035D01*
X959708Y509086D01*
X959776Y509103D01*
X959963Y509120D01*
X960116Y509188D01*
X960354Y509205D01*
X960473Y509256D01*
X960541Y509273D01*
X960609Y509256D01*
X960660Y509205D01*
X960771Y509163D01*
X960804Y509078D01*
X960822Y509044D01*
X960856Y509027D01*
X960873Y508959D01*
X960856Y508840D01*
X960804Y508788D01*
X960787Y508720D01*
X960719Y508652D01*
X960703Y508567D01*
X960677Y508542D01*
X960643Y508525D01*
X960626Y508457D01*
X960600Y508397D01*
X960549Y508346D01*
X960524Y508253D01*
X960464Y508193D01*
X960447Y508091D01*
X960396Y508040D01*
X960379Y507938D01*
X960311Y507870D01*
X960294Y507717D01*
X960226Y507615D01*
X960218Y507521D01*
X960226Y507479D01*
X960201Y507419D01*
X960167Y507402D01*
X960141Y507326D01*
X960124Y507122D01*
X960073Y507037D01*
X960056Y506969D01*
X960039Y506612D01*
X960005Y506578D01*
X959971Y506374D01*
X959988Y505319D01*
X960056Y505166D01*
X960073Y504826D01*
X960124Y504775D01*
X960141Y504707D01*
X960158Y504520D01*
X960192Y504486D01*
X960226Y504401D01*
X960243Y504265D01*
X960294Y504214D01*
X960303Y504137D01*
X960294Y504095D01*
X960371Y504001D01*
X960405Y503865D01*
X960464Y503805D01*
X960490Y503678D01*
X960532Y503635D01*
X960583Y503499D01*
X960618Y503482D01*
X960651Y503397D01*
X960703Y503346D01*
X960728Y503253D01*
X960771Y503193D01*
X960804Y503159D01*
X960822Y503091D01*
X960873Y503040D01*
X960924Y502955D01*
X960958Y502921D01*
X960975Y502853D01*
X961043Y502785D01*
X961060Y502751D01*
X961196Y502615D01*
X961247Y502530D01*
X961264Y502496D01*
X961272Y502488D01*
X961298Y502462D01*
X961315Y502428D01*
X961366Y502377D01*
X961383Y502343D01*
X961442Y502300D01*
X961476Y502249D01*
X961510Y502232D01*
X961595Y502130D01*
X961621Y502105D01*
X961638Y502071D01*
X961706Y502003D01*
X961723Y501969D01*
X961876Y501816D01*
X961893Y501782D01*
X962242Y501433D01*
X962276Y501416D01*
X962352Y501339D01*
X962369Y501305D01*
X962429Y501263D01*
X962522Y501186D01*
X962599Y501110D01*
X962633Y501093D01*
X962667Y501042D01*
X962701Y501025D01*
X962786Y500940D01*
X962820Y500923D01*
X962871Y500906D01*
X962913Y500914D01*
X962930Y501169D01*
X962913Y501186D01*
X962930Y501237D01*
X962947Y501305D01*
X962981Y501391D01*
X962998Y501459D01*
X963015Y501782D01*
X963083Y501884D01*
X963101Y502156D01*
X963151Y502207D01*
X963169Y502275D01*
X963186Y502428D01*
X963237Y502479D01*
X963253Y502547D01*
X963270Y502666D01*
X963322Y502717D01*
X963347Y502845D01*
X963390Y502904D01*
X963407Y502955D01*
X963424Y503023D01*
X963492Y503091D01*
X963517Y503185D01*
X963543Y503210D01*
X963560Y503244D01*
X963662Y503414D01*
X963679Y503448D01*
X963747Y503516D01*
X963764Y503550D01*
X963815Y503601D01*
X963866Y503686D01*
X963917Y503737D01*
X963934Y503771D01*
X964095Y503933D01*
X964129Y503950D01*
X964172Y504010D01*
X964274Y504061D01*
X964291Y504095D01*
X964384Y504154D01*
X964435Y504205D01*
X964470Y504222D01*
X964572Y504290D01*
X964623Y504307D01*
X964674Y504358D01*
X964784Y504384D01*
X964844Y504443D01*
X964980Y504477D01*
X965031Y504528D01*
X965184Y504545D01*
X965286Y504613D01*
X965473Y504630D01*
X965507Y504664D01*
X965626Y504698D01*
X965864Y504715D01*
X965983Y504766D01*
X966102Y504783D01*
X967140Y504766D01*
X967293Y504698D01*
X967616Y504681D01*
X967684Y504613D01*
X967803Y504596D01*
X967845Y504537D01*
X967930Y504520D01*
X967964Y504486D01*
X967845Y504265D01*
X967786Y504205D01*
X967760Y504197D01*
X967743Y504163D01*
X967718Y504137D01*
X967633Y504086D01*
X967599Y504052D01*
X967412Y504035D01*
X967378Y503984D01*
X967310Y503967D01*
X967191Y503950D01*
X967140Y503899D01*
X967021Y503882D01*
X966953Y503814D01*
X966833Y503797D01*
X966731Y503729D01*
X966638Y503703D01*
X966578Y503644D01*
X966485Y503618D01*
X966442Y503576D01*
X966357Y503542D01*
X966315Y503482D01*
X966247Y503465D01*
X966068Y503338D01*
X965881Y503151D01*
X965847Y503134D01*
X965804Y503074D01*
X965617Y502887D01*
X965600Y502853D01*
X965575Y502828D01*
X965549Y502819D01*
X965481Y502700D01*
X965422Y502590D01*
X965388Y502572D01*
X965362Y502547D01*
X965345Y502445D01*
X965277Y502377D01*
X965260Y502258D01*
X965209Y502224D01*
X965192Y502054D01*
X965141Y502003D01*
X965124Y501935D01*
X965107Y501731D01*
X965056Y501646D01*
X965039Y501578D01*
X965056Y500438D01*
X965107Y500319D01*
X965124Y500200D01*
X965141Y499962D01*
X965192Y499877D01*
X965209Y499758D01*
X965226Y499605D01*
X965277Y499554D01*
X965286Y499443D01*
X965277Y499384D01*
X965328Y499299D01*
X965362Y499265D01*
X965379Y499078D01*
X965430Y499027D01*
X965447Y498959D01*
X965464Y498840D01*
X965515Y498788D01*
X965532Y498720D01*
X965549Y498635D01*
X965600Y498584D01*
X965617Y498465D01*
X965635Y498414D01*
X965685Y498363D01*
X965711Y498236D01*
X965771Y498176D01*
X965788Y498040D01*
X965813Y498015D01*
X965847Y497998D01*
X965864Y497862D01*
X965941Y497802D01*
X965958Y497683D01*
X966009Y497649D01*
X966043Y497513D01*
X966094Y497462D01*
X966111Y497377D01*
X966136Y497351D01*
X966255Y497368D01*
X966281Y497394D01*
X966298Y497428D01*
X966357Y497470D01*
X966434Y497547D01*
X966451Y497581D01*
X966519Y497632D01*
X966536Y497666D01*
X966587Y497700D01*
X966604Y497734D01*
X966646Y497777D01*
X966672Y497785D01*
X966689Y497819D01*
X966799Y497930D01*
X966833Y497947D01*
X966876Y498006D01*
X966927Y498040D01*
X966944Y498074D01*
X967004Y498117D01*
X967037Y498168D01*
X967072Y498185D01*
X967097Y498210D01*
X967114Y498244D01*
X967174Y498287D01*
X967293Y498406D01*
X967327Y498423D01*
X967361Y498457D01*
X967480Y498525D01*
X967531Y498576D01*
X967565Y498593D01*
X967590Y498618D01*
X967599Y498644D01*
X967667Y498661D01*
X967701Y498678D01*
X967735Y498712D01*
X967820Y498763D01*
X967871Y498814D01*
X967956Y498831D01*
X968024Y498899D01*
X968118Y498924D01*
X968151Y498942D01*
X968160Y498967D01*
X968296Y499001D01*
X968339Y499061D01*
X968475Y499078D01*
X968534Y499137D01*
X968653Y499154D01*
X968738Y499171D01*
X968789Y499222D01*
X968959Y499239D01*
X969061Y499256D01*
X969180Y499307D01*
X970133Y499290D01*
X970252Y499239D01*
X970439Y499222D01*
X970473Y499188D01*
X970507Y499171D01*
X970558Y499154D01*
X970694Y499137D01*
X970762Y499069D01*
X970898Y499052D01*
X970924Y499027D01*
X970941Y498993D01*
X971068Y498967D01*
X971102Y498916D01*
X971213Y498890D01*
X971272Y498831D01*
X971357Y498797D01*
X971408Y498746D01*
X971493Y498695D01*
X971544Y498644D01*
X971629Y498627D01*
X971697Y498559D01*
X971731Y498542D01*
X971765Y498491D01*
X971799Y498474D01*
X971918Y498389D01*
X971953Y498372D01*
X971986Y498338D01*
X972021Y498321D01*
X972089Y498253D01*
X972123Y498236D01*
X972148Y498210D01*
X972165Y498176D01*
X972216Y498142D01*
X972233Y498108D01*
X972259Y498083D01*
X972293Y498066D01*
X972318Y498040D01*
X972335Y498006D01*
X972395Y497964D01*
X972624Y497734D01*
X972641Y497700D01*
X972667Y497675D01*
X972701Y497657D01*
X972735Y497607D01*
X972769Y497589D01*
X972794Y497564D01*
X972811Y497530D01*
X972879Y497462D01*
X972862Y497156D01*
X972777Y497071D01*
X972769Y497045D01*
X972701Y497028D01*
X972429Y497045D01*
X972378Y497096D01*
X972310Y497113D01*
X972157Y497130D01*
X972123Y497164D01*
X972038Y497198D01*
X971885Y497215D01*
X971850Y497249D01*
X971731Y497283D01*
X971595Y497300D01*
X971544Y497351D01*
X971306Y497368D01*
X971153Y497436D01*
X970269Y497419D01*
X970252Y497385D01*
X970184Y497368D01*
X969997Y497351D01*
X969895Y497283D01*
X969759Y497266D01*
X969691Y497198D01*
X969589Y497181D01*
X969538Y497130D01*
X969470Y497113D01*
X969401Y497045D01*
X969308Y497020D01*
X969214Y496926D01*
X969180Y496909D01*
X969146Y496875D01*
X969053Y496833D01*
X969044Y496807D01*
X968959Y496756D01*
X968917Y496697D01*
X968857Y496637D01*
X968823Y496620D01*
X968798Y496595D01*
X968781Y496561D01*
X968738Y496518D01*
X968713Y496510D01*
X968696Y496476D01*
X968636Y496433D01*
X968602Y496382D01*
X968568Y496365D01*
X968526Y496306D01*
X968475Y496272D01*
X968458Y496238D01*
X968390Y496169D01*
X968339Y496084D01*
X968305Y496050D01*
X968279Y495991D01*
X968245Y495974D01*
X968219Y495948D01*
X968202Y495914D01*
X968151Y495863D01*
X968134Y495829D01*
X968067Y495727D01*
X968024Y495651D01*
X967998Y495642D01*
X967947Y495557D01*
X967913Y495523D01*
X967879Y495438D01*
X967845Y495404D01*
X967828Y495370D01*
X967709Y495149D01*
X967675Y495115D01*
X967658Y495047D01*
X967641Y495013D01*
X967616Y494987D01*
X967582Y494970D01*
X967556Y494843D01*
X967497Y494800D01*
X967471Y494707D01*
X967454Y494673D01*
X967420Y494656D01*
X967403Y494588D01*
X967395Y494511D01*
X967361Y494494D01*
X967318Y494452D01*
X967335Y494367D01*
X967250Y494282D01*
X967233Y494146D01*
X967165Y494078D01*
X967148Y493959D01*
X967080Y493890D01*
X967063Y493738D01*
X966995Y493669D01*
X966978Y493533D01*
X966927Y493482D01*
X966910Y493329D01*
X966842Y493261D01*
X966833Y493168D01*
X966842Y493125D01*
X966791Y493040D01*
X966757Y493006D01*
X966740Y492836D01*
X966689Y492785D01*
X966672Y492717D01*
X966663Y492487D01*
X966714Y492470D01*
X966782Y492487D01*
X966817Y492521D01*
X966986Y492538D01*
X967072Y492556D01*
X967089Y492590D01*
X967174Y492624D01*
X967259Y492640D01*
X967293Y492674D01*
X967361Y492692D01*
X967480Y492709D01*
X967582Y492777D01*
X967837Y492794D01*
X967871Y492828D01*
X967956Y492862D01*
X968194Y492879D01*
X968228Y492913D01*
X968347Y492947D01*
X968636Y492964D01*
X968670Y492998D01*
X968738Y493015D01*
X968959Y493032D01*
X969282Y493049D01*
X969368Y493083D01*
X969538Y493100D01*
X970269Y493083D01*
X970388Y493032D01*
X970728Y493015D01*
X970830Y492947D01*
X971034Y492930D01*
X971102Y492862D01*
X971221Y492845D01*
X971255Y492811D01*
X971340Y492777D01*
X971391Y492760D01*
X971442Y492709D01*
X971510Y492692D01*
X971561Y492674D01*
X971595Y492624D01*
X971629Y492606D01*
X971697Y492538D01*
X971731Y492521D01*
X971765Y492487D01*
X971799Y492470D01*
X971893Y492394D01*
X971944Y492343D01*
X971961Y492309D01*
X972012Y492258D01*
X972029Y492224D01*
X972191Y492011D01*
X972216Y491986D01*
X972233Y491901D01*
X972259Y491875D01*
X972293Y491858D01*
X972318Y491731D01*
X972378Y491688D01*
X972403Y491561D01*
X972454Y491510D01*
X972471Y491391D01*
X972488Y491305D01*
X972522Y491271D01*
X972556Y491152D01*
X972573Y490965D01*
X972607Y490931D01*
X972641Y490795D01*
X972633Y490668D01*
X972650Y490583D01*
X972709Y490472D01*
X972726Y490166D01*
X972777Y490115D01*
X972794Y490047D01*
X972777Y489962D01*
X972735Y489919D01*
X972701Y489902D01*
X972650Y489851D01*
X972412Y489868D01*
X972344Y489936D01*
X972310Y489953D01*
X972293Y489988D01*
X972259Y490004D01*
X972174Y490090D01*
X972140Y490106D01*
X972089Y490158D01*
X972054Y490174D01*
X971986Y490243D01*
X971953Y490260D01*
X971867Y490345D01*
X971834Y490362D01*
X971782Y490413D01*
X971714Y490430D01*
X971663Y490481D01*
X971578Y490532D01*
X971544Y490583D01*
X971442Y490600D01*
X971408Y490651D01*
X971272Y490702D01*
X971238Y490736D01*
X971170Y490753D01*
X971085Y490804D01*
X971034Y490821D01*
X970941Y490846D01*
X970898Y490906D01*
X970711Y490923D01*
X970609Y490991D01*
X970371Y491008D01*
X970337Y491042D01*
X970218Y491076D01*
X969146Y491059D01*
X969061Y491008D01*
X968993Y490991D01*
X968789Y490974D01*
X968755Y490940D01*
X968636Y490906D01*
X968517Y490889D01*
X968483Y490855D01*
X968415Y490838D01*
X968322Y490812D01*
X968262Y490753D01*
X968143Y490736D01*
X968041Y490668D01*
X967930Y490625D01*
X967888Y490583D01*
X967794Y490557D01*
X967752Y490515D01*
X967667Y490481D01*
X967641Y490455D01*
X967633Y490430D01*
X967565Y490413D01*
X967514Y490396D01*
X967497Y490362D01*
X967463Y490345D01*
X967344Y490260D01*
X967182Y490149D01*
X967157Y490124D01*
X967123Y490106D01*
X967004Y489988D01*
X966969Y489970D01*
X966936Y489936D01*
X966901Y489919D01*
X966868Y489885D01*
X966782Y489834D01*
X966697Y489749D01*
X966672Y489741D01*
X966655Y489707D01*
X966612Y489664D01*
X966578Y489647D01*
X966094Y489163D01*
X966085Y489137D01*
X966051Y489120D01*
X966009Y489078D01*
X965992Y489044D01*
X965932Y489001D01*
X965907Y488976D01*
X965890Y488941D01*
X965847Y488899D01*
X965813Y488882D01*
X965788Y488857D01*
X965771Y488823D01*
X965668Y488720D01*
X965652Y488686D01*
X965600Y488635D01*
X965584Y488601D01*
X965532Y488550D01*
X965481Y488465D01*
X965379Y488363D01*
X965362Y488329D01*
X965320Y488287D01*
X965294Y488278D01*
X965277Y488244D01*
X965192Y488125D01*
X965175Y488091D01*
X965124Y488040D01*
X965107Y488006D01*
X965039Y487938D01*
X965022Y487904D01*
X964954Y487836D01*
X964937Y487768D01*
X964886Y487717D01*
X964869Y487683D01*
X964784Y487598D01*
X964767Y487564D01*
X964750Y487513D01*
X964793Y487470D01*
X964920Y487462D01*
X965031Y487470D01*
X965082Y487453D01*
X965235Y487436D01*
X965320Y487402D01*
X965541Y487385D01*
X965592Y487402D01*
X965890Y487377D01*
X965975Y487343D01*
X966068Y487317D01*
X966170Y487300D01*
X966221Y487317D01*
X966442Y487300D01*
X966595Y487232D01*
X966850Y487215D01*
X966936Y487164D01*
X967004Y487147D01*
X967208Y487130D01*
X967276Y487062D01*
X967463Y487045D01*
X967497Y486994D01*
X967565Y486977D01*
X967633Y486994D01*
X967718Y486943D01*
X967752Y486909D01*
X967888Y486875D01*
X967922Y486824D01*
X967990Y486807D01*
X968049Y486799D01*
X968067Y486765D01*
X968092Y486739D01*
X968194Y486722D01*
X968245Y486671D01*
X968279Y486654D01*
X968347Y486586D01*
X968415Y486569D01*
X968466Y486518D01*
X968500Y486501D01*
X968585Y486416D01*
X968619Y486399D01*
X968653Y486365D01*
X968687Y486348D01*
X968721Y486314D01*
X968755Y486297D01*
X968883Y486169D01*
X968900Y486135D01*
X968951Y486084D01*
X969002Y485999D01*
X969036Y485982D01*
X969087Y485897D01*
X969121Y485812D01*
X969138Y485778D01*
X969206Y485710D01*
X969223Y485608D01*
X969274Y485557D01*
X969291Y485489D01*
X969308Y485353D01*
X969359Y485302D01*
X969368Y485089D01*
X969359Y484639D01*
X969376Y484605D01*
X969359Y484554D01*
X969342Y484129D01*
X969308Y484095D01*
X969291Y484027D01*
X969274Y483806D01*
X969223Y483754D01*
X969206Y483686D01*
X969189Y483533D01*
X969138Y483482D01*
X969104Y483346D01*
X969053Y483295D01*
X969036Y483176D01*
X969019Y483142D01*
X968985Y483108D01*
X968968Y483040D01*
X968900Y482921D01*
X968866Y482836D01*
X968815Y482751D01*
X968781Y482666D01*
X968764Y482615D01*
X968713Y482564D01*
X968696Y482479D01*
X968670Y482436D01*
X968645Y482428D01*
X968628Y482394D01*
X968551Y482300D01*
X968432Y482181D01*
X968398Y482164D01*
X968296Y482096D01*
X968211Y482079D01*
X968109Y482011D01*
X967905Y482028D01*
X967845Y482088D01*
X967794Y482173D01*
X967743Y482292D01*
X967760Y482394D01*
X967794Y482428D01*
X967828Y482564D01*
X967811Y482615D01*
X967828Y482666D01*
X967845Y482751D01*
X967896Y482870D01*
X967879Y483550D01*
X967828Y483669D01*
X967811Y483976D01*
X967760Y484027D01*
X967743Y484095D01*
X967726Y484214D01*
X967658Y484316D01*
X967633Y484409D01*
X967590Y484452D01*
X967556Y484537D01*
X967488Y484605D01*
X967471Y484639D01*
X967420Y484690D01*
X967403Y484724D01*
X967293Y484834D01*
X967259Y484851D01*
X967208Y484902D01*
X967174Y484919D01*
X967080Y484996D01*
X967072Y485021D01*
X966936Y485055D01*
X966901Y485107D01*
X966765Y485141D01*
X966748Y485175D01*
X966680Y485191D01*
X966544Y485209D01*
X966459Y485260D01*
X966391Y485277D01*
X965915Y485294D01*
X965864Y485311D01*
X965541Y485328D01*
X965490Y485311D01*
X965226Y485285D01*
X964674Y485260D01*
X964555Y485209D01*
X964487Y485191D01*
X964197Y485175D01*
X964163Y485141D01*
X964044Y485107D01*
X963823Y485089D01*
X963789Y485055D01*
X963721Y485039D01*
X963517Y485021D01*
X963466Y484970D01*
X963398Y484953D01*
X963228Y484936D01*
X963126Y484868D01*
X962922Y484851D01*
X962871Y484800D01*
X962803Y484783D01*
X962650Y484766D01*
X962599Y484715D01*
X962531Y484698D01*
X962412Y484681D01*
X962361Y484630D01*
X962191Y484613D01*
X962140Y484562D01*
X962072Y484545D01*
X961936Y484528D01*
X961884Y484477D01*
X961817Y484460D01*
X961697Y484443D01*
X961629Y484375D01*
X961442Y484358D01*
X961425Y484324D01*
X961391Y484307D01*
X961366Y484282D01*
X961383Y484214D01*
X961476Y484120D01*
X961510Y484103D01*
X961578Y484035D01*
X961612Y484018D01*
X961765Y483933D01*
X961817Y483882D01*
X961850Y483865D01*
X961876Y483840D01*
X961884Y483814D01*
X961969Y483780D01*
X962004Y483746D01*
X962037Y483729D01*
X962140Y483627D01*
X962174Y483610D01*
X962310Y483474D01*
X962344Y483457D01*
X962412Y483389D01*
X962446Y483372D01*
X962497Y483321D01*
X962531Y483304D01*
X962565Y483253D01*
X962599Y483236D01*
X962828Y483006D01*
X962845Y482972D01*
X962913Y482904D01*
X962930Y482870D01*
X962964Y482836D01*
X962981Y482802D01*
X963007Y482760D01*
X963041Y482743D01*
X963101Y482683D01*
X963109Y482657D01*
X963143Y482641D01*
X963194Y482555D01*
X963220Y482547D01*
X963237Y482479D01*
X963288Y482394D01*
X963339Y482343D01*
X963356Y482309D01*
X963407Y482224D01*
X963449Y482147D01*
X963475Y482139D01*
X963492Y482071D01*
X963509Y482020D01*
X963534Y481994D01*
X963560Y481986D01*
X963577Y481918D01*
X963560Y481901D01*
X963636Y481807D01*
X963653Y481722D01*
X963687Y481637D01*
X963730Y481595D01*
X963747Y481407D01*
X963798Y481356D01*
X963815Y481288D01*
X963832Y480999D01*
X963883Y480880D01*
X963866Y480370D01*
X963832Y480285D01*
X963815Y480217D01*
X963798Y479928D01*
X963747Y479877D01*
X963730Y479809D01*
X963713Y479673D01*
X963662Y479622D01*
X963645Y479503D01*
X963577Y479350D01*
X963551Y479256D01*
X963509Y479231D01*
X963492Y479163D01*
X963441Y479078D01*
X963407Y479044D01*
X963390Y478976D01*
X963339Y478925D01*
X963288Y478839D01*
X963253Y478805D01*
X963237Y478686D01*
X963177Y478644D01*
X963083Y478516D01*
X963066Y478465D01*
X962998Y478397D01*
X962981Y478363D01*
X962913Y478295D01*
X962896Y478261D01*
X962862Y478227D01*
X962845Y478193D01*
X962811Y478159D01*
X962794Y478125D01*
X962743Y478074D01*
X962726Y478040D01*
X962675Y477989D01*
X962658Y477955D01*
X962633Y477930D01*
X962607Y477921D01*
X962590Y477887D01*
X961969Y477266D01*
X961936Y477249D01*
X961884Y477198D01*
X961595Y477215D01*
X961553Y477326D01*
X961536Y477394D01*
X961553Y477530D01*
X961587Y477564D01*
X961621Y477683D01*
X961638Y477768D01*
X961672Y477802D01*
X961706Y477921D01*
X961723Y478091D01*
X961757Y478125D01*
X961774Y478193D01*
X961791Y478448D01*
X961859Y478550D01*
X961876Y478976D01*
X961910Y479061D01*
X961944Y479197D01*
X961927Y479724D01*
X961876Y479843D01*
X961859Y480115D01*
X961842Y480217D01*
X961808Y480251D01*
X961774Y480370D01*
X961757Y480489D01*
X961706Y480540D01*
X961689Y480693D01*
X961629Y480736D01*
X961612Y480838D01*
X961536Y480914D01*
X961519Y481016D01*
X961434Y481101D01*
X961417Y481135D01*
X961383Y481169D01*
X961366Y481238D01*
X961281Y481322D01*
X961272Y481348D01*
X961238Y481365D01*
X961196Y481407D01*
X961179Y481441D01*
X961085Y481535D01*
X961060Y481544D01*
X961043Y481578D01*
X961017Y481603D01*
X960983Y481620D01*
X960958Y481646D01*
X960941Y481680D01*
X960839Y481765D01*
X960779Y481790D01*
X960626Y481909D01*
X960507Y481977D01*
X960396Y482037D01*
X960379Y482071D01*
X960354Y482096D01*
X960252Y482113D01*
X960226Y482139D01*
X960218Y482164D01*
X960099Y482181D01*
X960065Y482198D01*
X960048Y482232D01*
X959980Y482249D01*
X959895Y482266D01*
X959844Y482317D01*
X959776Y482334D01*
X959691Y482351D01*
X959640Y482402D01*
X959572Y482419D01*
X959453Y482436D01*
X959385Y482505D01*
X959197Y482521D01*
X959146Y482573D01*
X959078Y482589D01*
X959010Y482573D01*
X958942Y482589D01*
X958857Y482607D01*
X958823Y482641D01*
X958755Y482657D01*
X958466Y482675D01*
X958313Y482743D01*
X957871Y482760D01*
X957752Y482811D01*
X957684Y482828D01*
X957080Y482836D01*
X957046Y482819D01*
X957029Y482768D01*
X957106Y482675D01*
X957123Y482521D01*
X957148Y482462D01*
X957182Y482428D01*
X957199Y482360D01*
X957216Y482241D01*
X957250Y482207D01*
X957267Y482173D01*
X957284Y482122D01*
X957301Y481969D01*
X957352Y481918D01*
X957369Y481850D01*
X957386Y481680D01*
X957420Y481646D01*
X957454Y481561D01*
X957471Y481356D01*
X957505Y481322D01*
X957522Y481254D01*
X957539Y480965D01*
X957607Y480812D01*
X957616Y479953D01*
X957599Y479341D01*
X957539Y479282D01*
X957522Y479112D01*
X957505Y479044D01*
X957471Y479010D01*
X957454Y478941D01*
X957437Y478857D01*
X957395Y478814D01*
X957369Y478805D01*
X957352Y478686D01*
X957327Y478661D01*
X957293Y478644D01*
X957276Y478559D01*
X957233Y478499D01*
X957199Y478465D01*
X957182Y478431D01*
X957114Y478363D01*
X957097Y478329D01*
X956919Y478100D01*
X956884Y478083D01*
X956791Y478006D01*
X956748Y477964D01*
X956714Y477947D01*
X956638Y477904D01*
X956621Y477870D01*
X956536Y477819D01*
X956527Y477794D01*
X956459Y477777D01*
X956383Y477734D01*
X956366Y477700D01*
X956264Y477683D01*
X956230Y477666D01*
X956213Y477632D01*
X956187Y477606D01*
X956068Y477590D01*
X956043Y477564D01*
X956034Y477538D01*
X955966Y477522D01*
X955796Y477504D01*
X955745Y477453D01*
X955677Y477436D01*
X955473Y477419D01*
X955439Y477385D01*
X955303Y477351D01*
X954946Y477334D01*
X954861Y477300D01*
X954640Y477283D01*
X953806Y477300D01*
X953755Y477351D01*
X953721Y477368D01*
X953696Y477394D01*
X953679Y477428D01*
X953653Y477453D01*
X953628Y477462D01*
X953611Y477513D01*
X953696Y477632D01*
X953713Y477717D01*
X953738Y477743D01*
X953772Y477760D01*
X953840Y477828D01*
X953925Y477845D01*
X954010Y477947D01*
X954121Y478057D01*
X954129Y478083D01*
X954163Y478100D01*
X954189Y478125D01*
X954206Y478159D01*
X954265Y478202D01*
X954308Y478261D01*
X954342Y478295D01*
X954359Y478329D01*
X954410Y478380D01*
X954461Y478465D01*
X954512Y478516D01*
X954529Y478550D01*
X954614Y478635D01*
X954623Y478661D01*
X954657Y478678D01*
X954682Y478703D01*
X954699Y478771D01*
X954750Y478823D01*
X954801Y478907D01*
X954835Y478941D01*
X954861Y479035D01*
X954920Y479095D01*
X954937Y479180D01*
X955005Y479248D01*
X955022Y479384D01*
X955048Y479409D01*
X955073Y479418D01*
X955090Y479486D01*
X955107Y479622D01*
X955141Y479656D01*
X955158Y479724D01*
X955192Y480064D01*
X955243Y480183D01*
X955226Y480608D01*
X955192Y480693D01*
X955175Y480761D01*
X955158Y481050D01*
X955124Y481084D01*
X955090Y481169D01*
X955073Y481322D01*
X955005Y481390D01*
X954988Y481510D01*
X954937Y481561D01*
X954920Y481663D01*
X954852Y481731D01*
X954835Y481833D01*
X954776Y481875D01*
X954759Y481977D01*
X954682Y482054D01*
X954665Y482088D01*
X954597Y482190D01*
X954546Y482275D01*
X954444Y482377D01*
X954427Y482411D01*
X954342Y482547D01*
X954325Y482581D01*
X954299Y482607D01*
X954274Y482615D01*
X954257Y482649D01*
X954231Y482675D01*
X954206Y482683D01*
X954189Y482717D01*
X954112Y482811D01*
X954044Y482913D01*
X954002Y482955D01*
X953993Y482981D01*
X953959Y482998D01*
X953917Y483057D01*
X953160Y483814D01*
X953126Y483831D01*
X953075Y483882D01*
X953041Y483899D01*
X953007Y483933D01*
X952973Y483950D01*
X952939Y483984D01*
X952905Y484001D01*
X952879Y484027D01*
X952871Y484052D01*
X952837Y484069D01*
X952786Y484120D01*
X952752Y484137D01*
X952709Y484197D01*
X952624Y484248D01*
X952607Y484282D01*
X952471Y484367D01*
X952412Y484409D01*
X952378Y484443D01*
X952344Y484460D01*
X952259Y484545D01*
X952208Y484562D01*
X952174Y484596D01*
X952140Y484613D01*
X952046Y484690D01*
X952020Y484715D01*
X951944Y484724D01*
X951893Y484690D01*
X951876Y484571D01*
X951842Y484537D01*
X951825Y484469D01*
X951808Y484197D01*
X951791Y484078D01*
X951740Y483959D01*
X951723Y483720D01*
X951689Y483686D01*
X951672Y483652D01*
X951655Y483601D01*
X951638Y483414D01*
X951587Y483363D01*
X951570Y483295D01*
X951553Y483176D01*
X951502Y483125D01*
X951485Y483057D01*
X951468Y482972D01*
X951434Y482938D01*
X951417Y482870D01*
X951374Y482760D01*
X951340Y482743D01*
X951315Y482649D01*
X951298Y482598D01*
X951272Y482573D01*
X951247Y482564D01*
X951221Y482470D01*
X951179Y482428D01*
X951145Y482343D01*
X951094Y482292D01*
X951060Y482207D01*
X951009Y482156D01*
X950992Y482122D01*
X950966Y482096D01*
X950932Y482079D01*
X950873Y481986D01*
X950822Y481935D01*
X950805Y481901D01*
X950770Y481867D01*
X950753Y481833D01*
X950669Y481748D01*
X950651Y481714D01*
X950592Y481671D01*
X950558Y481620D01*
X950439Y481552D01*
X950405Y481518D01*
X950371Y481501D01*
X950303Y481433D01*
X950269Y481416D01*
X950218Y481365D01*
X950150Y481348D01*
X950116Y481331D01*
X950082Y481280D01*
X949997Y481246D01*
X949963Y481212D01*
X949895Y481195D01*
X949861Y481178D01*
X949759Y481110D01*
X949640Y481093D01*
X949614Y481067D01*
X949606Y481042D01*
X949537Y481025D01*
X949436Y481008D01*
X949350Y480957D01*
X949129Y480940D01*
X949095Y480906D01*
X949010Y480872D01*
X948619Y480855D01*
X948534Y480821D01*
X948466Y480804D01*
X948092Y480787D01*
X947718Y480804D01*
X947633Y480838D01*
X947497Y480872D01*
X947003Y480889D01*
X946885Y480940D01*
X946748Y480957D01*
X946697Y480940D01*
X946629Y480957D01*
X946442Y480974D01*
X946408Y481008D01*
X946340Y481025D01*
X946255Y481042D01*
X946204Y481025D01*
X946000Y481042D01*
X945907Y481118D01*
X945813Y481212D01*
X945788Y481220D01*
X945770Y481340D01*
X945805Y481425D01*
X945847Y481467D01*
X945881Y481484D01*
X945966Y481518D01*
X946187Y481535D01*
X946238Y481586D01*
X946357Y481603D01*
X946442Y481620D01*
X946476Y481654D01*
X946544Y481671D01*
X946663Y481688D01*
X946765Y481756D01*
X946867Y481773D01*
X946970Y481841D01*
X947072Y481858D01*
X947097Y481884D01*
X947106Y481909D01*
X947242Y481943D01*
X947284Y482003D01*
X947386Y482020D01*
X947420Y482054D01*
X947429Y482079D01*
X947514Y482130D01*
X947548Y482164D01*
X947633Y482181D01*
X947658Y482207D01*
X947667Y482232D01*
X947701Y482249D01*
X947743Y482275D01*
X947760Y482309D01*
X947896Y482394D01*
X947956Y482436D01*
X948007Y482487D01*
X948041Y482505D01*
X948067Y482530D01*
X948083Y482564D01*
X948143Y482607D01*
X948177Y482657D01*
X948211Y482675D01*
X948236Y482700D01*
X948254Y482734D01*
X948304Y482768D01*
X948322Y482802D01*
X948347Y482828D01*
X948381Y482845D01*
X948432Y482930D01*
X948458Y482938D01*
X948526Y483057D01*
X948560Y483091D01*
X948577Y483125D01*
X948645Y483193D01*
X948662Y483227D01*
X948713Y483261D01*
X948730Y483346D01*
X948798Y483414D01*
X948823Y483525D01*
X948883Y483584D01*
X948968Y483772D01*
X948985Y483840D01*
X949036Y483890D01*
X949053Y483959D01*
X949070Y484044D01*
X949104Y484078D01*
X949121Y484146D01*
X949138Y484299D01*
X949206Y484401D01*
X949223Y484707D01*
X949274Y484826D01*
X949291Y484894D01*
X949274Y486101D01*
X949223Y486220D01*
X949206Y486544D01*
X949189Y486714D01*
X949138Y486833D01*
X949121Y487003D01*
X949104Y487156D01*
X949053Y487207D01*
X949044Y487368D01*
X949053Y487445D01*
X948976Y487538D01*
X948959Y487726D01*
X948917Y487785D01*
X948883Y487819D01*
X948866Y488006D01*
X948815Y488057D01*
X948798Y488125D01*
X948781Y488227D01*
X948730Y488278D01*
X948713Y488346D01*
X948730Y488414D01*
X948687Y488457D01*
X948568Y488440D01*
X948262Y488134D01*
X948228Y488117D01*
X948126Y488015D01*
X948092Y487998D01*
X947998Y487938D01*
X947990Y487913D01*
X947956Y487896D01*
X947896Y487853D01*
X947879Y487819D01*
X947820Y487777D01*
X947752Y487709D01*
X947718Y487691D01*
X947667Y487640D01*
X947599Y487624D01*
X947582Y487590D01*
X947548Y487572D01*
X947471Y487513D01*
X947463Y487488D01*
X947242Y487368D01*
X947191Y487317D01*
X947003Y487215D01*
X946953Y487164D01*
X946859Y487139D01*
X946799Y487079D01*
X946697Y487062D01*
X946629Y486994D01*
X946510Y486977D01*
X946442Y486909D01*
X946306Y486892D01*
X946272Y486841D01*
X946204Y486824D01*
X946102Y486807D01*
X946051Y486756D01*
X945822Y486731D01*
X945711Y486671D01*
X945592Y486654D01*
X945524Y486671D01*
X945303Y486654D01*
X945218Y486620D01*
X945099Y486603D01*
X944844Y486620D01*
X944759Y486654D01*
X944580Y486663D01*
X944470Y486654D01*
X944419Y486671D01*
X944351Y486688D01*
X944231Y486739D01*
X944061Y486756D01*
X944010Y486807D01*
X943942Y486824D01*
X943840Y486841D01*
X943789Y486892D01*
X943670Y486909D01*
X943611Y486935D01*
X943594Y486969D01*
X943517Y486994D01*
X943449Y487011D01*
X943398Y487062D01*
X943305Y487088D01*
X943245Y487147D01*
X943177Y487164D01*
X943126Y487215D01*
X943007Y487283D01*
X942973Y487317D01*
X942888Y487351D01*
X942854Y487385D01*
X942769Y487436D01*
X942718Y487488D01*
X942684Y487504D01*
X942633Y487556D01*
X942514Y487624D01*
X942480Y487657D01*
X942446Y487675D01*
X942140Y487981D01*
X942106Y487998D01*
X942021Y488100D01*
X941799Y488321D01*
X941765Y488338D01*
X941706Y488397D01*
X941621Y488584D01*
X941723Y488771D01*
X941850Y488865D01*
X942089Y488848D01*
X942140Y488797D01*
X942208Y488780D01*
X944010Y488797D01*
X944129Y488848D01*
X944299Y488865D01*
X944487Y488882D01*
X944538Y488933D01*
X944606Y488950D01*
X944750Y488941D01*
X944810Y488984D01*
X944844Y489018D01*
X945031Y489035D01*
X945099Y489103D01*
X945218Y489120D01*
X945252Y489154D01*
X945337Y489188D01*
X945405Y489205D01*
X945456Y489256D01*
X945711Y489392D01*
X945745Y489426D01*
X945830Y489460D01*
X945881Y489511D01*
X945915Y489528D01*
X945992Y489588D01*
X946009Y489622D01*
X946034Y489647D01*
X946068Y489664D01*
X946111Y489707D01*
X946128Y489741D01*
X946187Y489783D01*
X946255Y489851D01*
X946289Y489868D01*
X946332Y489928D01*
X946451Y490047D01*
X946468Y490081D01*
X946502Y490098D01*
X946519Y490132D01*
X946587Y490200D01*
X946604Y490268D01*
X946655Y490319D01*
X946706Y490404D01*
X946757Y490438D01*
X946774Y490540D01*
X946842Y490608D01*
X946859Y490710D01*
X946927Y490761D01*
X946944Y490880D01*
X946970Y490906D01*
X946995Y490914D01*
X947012Y490982D01*
X946995Y490999D01*
X947021Y491059D01*
X947080Y491084D01*
X947097Y491237D01*
X947131Y491271D01*
X947148Y491305D01*
X947165Y491357D01*
X947182Y491493D01*
X947250Y491595D01*
X947267Y491799D01*
X947318Y491884D01*
X947335Y491952D01*
X947352Y492207D01*
X947386Y492241D01*
X947420Y492360D01*
X947437Y492819D01*
X947488Y492938D01*
X947497Y493032D01*
X947488Y493431D01*
X947505Y493482D01*
X947497Y493627D01*
X947505Y493738D01*
X947480Y493763D01*
X947437Y493772D01*
X947403Y493738D01*
X947386Y493703D01*
X947259Y493661D01*
X947216Y493601D01*
X947072Y493525D01*
X947021Y493508D01*
X946953Y493440D01*
X946885Y493423D01*
X946834Y493372D01*
X946740Y493329D01*
X946723Y493295D01*
X946621Y493278D01*
X946544Y493202D01*
X946442Y493185D01*
X946391Y493134D01*
X946323Y493117D01*
X946272Y493100D01*
X946247Y493074D01*
X946238Y493049D01*
X946170Y493032D01*
X946051Y493015D01*
X946000Y492964D01*
X945932Y492947D01*
X945830Y492930D01*
X945779Y492879D01*
X945541Y492845D01*
X945507Y492811D01*
X945371Y492777D01*
X945252Y492794D01*
X945184Y492777D01*
X945082Y492760D01*
X944997Y492726D01*
X944827Y492709D01*
X944419Y492726D01*
X944299Y492777D01*
X943985Y492802D01*
X943925Y492845D01*
X943874Y492862D01*
X943738Y492879D01*
X943704Y492913D01*
X943670Y492930D01*
X943619Y492947D01*
X943534Y492964D01*
X943466Y493032D01*
X943364Y493049D01*
X943296Y493117D01*
X943202Y493142D01*
X943160Y493185D01*
X943126Y493202D01*
X943058Y493270D01*
X942939Y493338D01*
X942845Y493397D01*
X942828Y493431D01*
X942769Y493474D01*
X942437Y493806D01*
X942420Y493840D01*
X942352Y493907D01*
X942301Y493993D01*
X942267Y494027D01*
X942250Y494061D01*
X942131Y494214D01*
X942097Y494248D01*
X942012Y494401D01*
X941944Y494452D01*
X941927Y494520D01*
X941910Y494554D01*
X941859Y494605D01*
X941842Y494656D01*
X941791Y494707D01*
X941774Y494792D01*
X941689Y494877D01*
X941697Y494936D01*
X941663Y494987D01*
X941629Y495005D01*
X941578Y495141D01*
X941536Y495183D01*
X941519Y495268D01*
X941468Y495319D01*
X941451Y495387D01*
X941434Y495472D01*
X941408Y495498D01*
X941383Y495506D01*
X941357Y495617D01*
X941298Y495676D01*
X941281Y495795D01*
X941213Y495897D01*
X941196Y496016D01*
X941128Y496084D01*
X941111Y496220D01*
X941060Y496272D01*
X941043Y496340D01*
X941060Y496629D01*
X941119Y496688D01*
X941153Y496705D01*
X941221Y496773D01*
X941306Y496756D01*
X941357Y496705D01*
X941425Y496688D01*
X941468Y496629D01*
X941570Y496578D01*
X941595Y496552D01*
X941680Y496501D01*
X941714Y496467D01*
X941825Y496424D01*
X941885Y496365D01*
X941918Y496348D01*
X941969Y496297D01*
X942063Y496272D01*
X942123Y496212D01*
X942208Y496161D01*
X942242Y496127D01*
X942327Y496110D01*
X942352Y496084D01*
X942361Y496059D01*
X942471Y496033D01*
X942505Y495999D01*
X942514Y495974D01*
X942582Y495957D01*
X942633Y495940D01*
X942684Y495889D01*
X942794Y495863D01*
X942854Y495804D01*
X942956Y495787D01*
X943007Y495736D01*
X943075Y495719D01*
X943177Y495702D01*
X943228Y495651D01*
X943381Y495617D01*
X943432Y495566D01*
X943500Y495549D01*
X943551Y495566D01*
X943619Y495549D01*
X943653Y495532D01*
X943772Y495481D01*
X943959Y495464D01*
X944078Y495396D01*
X944487Y495379D01*
X944572Y495345D01*
X944708Y495311D01*
X945082Y495328D01*
X945167Y495362D01*
X945286Y495379D01*
X945354Y495396D01*
X945609Y495413D01*
X945694Y495464D01*
X945890Y495489D01*
X945915Y495515D01*
X945949Y495532D01*
X946000Y495549D01*
X946094Y495574D01*
X946153Y495634D01*
X946289Y495651D01*
X946323Y495685D01*
X946357Y495702D01*
X946442Y495736D01*
X946476Y495753D01*
X946510Y495787D01*
X946629Y495855D01*
X946714Y495889D01*
X946748Y495906D01*
X946799Y495957D01*
X946834Y495974D01*
X946867Y496008D01*
X946995Y496067D01*
X947012Y496101D01*
X947038Y496127D01*
X947072Y496144D01*
X947123Y496195D01*
X947157Y496212D01*
X947276Y496297D01*
X947310Y496314D01*
X947616Y496620D01*
X947650Y496637D01*
X947692Y496697D01*
X947743Y496731D01*
X947760Y496765D01*
X947998Y497003D01*
X948015Y497037D01*
X948067Y497088D01*
X948083Y497122D01*
X948203Y497275D01*
X948236Y497309D01*
X948254Y497343D01*
X948339Y497428D01*
X948356Y497462D01*
X948441Y497581D01*
X948517Y497675D01*
X948543Y497700D01*
X948611Y497819D01*
X948696Y497938D01*
X948815Y498125D01*
X948823Y498151D01*
X948857Y498168D01*
X948883Y498193D01*
X948900Y498278D01*
X948840Y498355D01*
X948602Y498372D01*
X948551Y498389D01*
X948483Y498406D01*
X948364Y498423D01*
X947820Y498440D01*
X947701Y498491D01*
X947531Y498508D01*
X947480Y498491D01*
X947344Y498525D01*
X947259Y498576D01*
X947021Y498593D01*
X946986Y498627D01*
X946953Y498644D01*
X946902Y498661D01*
X946714Y498678D01*
X946689Y498703D01*
X946680Y498729D01*
X946612Y498746D01*
X946476Y498763D01*
X946425Y498814D01*
X946289Y498848D01*
X946238Y498899D01*
X946102Y498916D01*
X946051Y498967D01*
X945983Y498984D01*
X945898Y499035D01*
X945745Y499120D01*
X945626Y499188D01*
X945609Y499222D01*
X945498Y499265D01*
X945456Y499307D01*
X945379Y499350D01*
X945362Y499384D01*
X945260Y499469D01*
X945167Y499562D01*
X945133Y499579D01*
X945090Y499639D01*
X945039Y499673D01*
X945022Y499707D01*
X944886Y499843D01*
X944869Y499877D01*
X944844Y499902D01*
X944818Y499911D01*
X944801Y499945D01*
X944733Y500047D01*
X944682Y500132D01*
X944648Y500166D01*
X944606Y500277D01*
X944580Y500302D01*
X944546Y500387D01*
X944529Y500421D01*
X944495Y500455D01*
X944478Y500523D01*
X944461Y500608D01*
X944393Y500676D01*
X944376Y500863D01*
X944325Y500897D01*
X944308Y501016D01*
X944291Y501237D01*
X944257Y501271D01*
X944240Y501391D01*
X944257Y502020D01*
X944291Y502105D01*
X944308Y502173D01*
X944325Y502564D01*
X944393Y502717D01*
X944410Y503023D01*
X944461Y503057D01*
X944478Y503176D01*
X944495Y503261D01*
X944546Y503312D01*
X944563Y503380D01*
X944614Y503465D01*
X944657Y503542D01*
X944691Y503559D01*
X944716Y503584D01*
X944733Y503618D01*
X944810Y503695D01*
X944852Y503703D01*
X944886Y503618D01*
X944903Y503584D01*
X944954Y503533D01*
X944997Y503440D01*
X945022Y503431D01*
X945039Y503363D01*
X945056Y503329D01*
X945124Y503261D01*
X945141Y503227D01*
X945192Y503176D01*
X945209Y503108D01*
X945277Y503040D01*
X945294Y503006D01*
X945379Y502921D01*
X945396Y502887D01*
X945558Y502674D01*
X946153Y502079D01*
X946187Y502062D01*
X946238Y502011D01*
X946323Y501960D01*
X946417Y501884D01*
X946459Y501841D01*
X946493Y501824D01*
X946544Y501773D01*
X946629Y501739D01*
X946680Y501688D01*
X946740Y501663D01*
X946757Y501629D01*
X946782Y501603D01*
X946893Y501561D01*
X946918Y501535D01*
X947003Y501484D01*
X947157Y501399D01*
X947191Y501365D01*
X947327Y501331D01*
X947378Y501280D01*
X947497Y501263D01*
X947565Y501195D01*
X947718Y501178D01*
X947769Y501127D01*
X947837Y501110D01*
X947990Y501093D01*
X948041Y501042D01*
X948109Y501025D01*
X948313Y501008D01*
X948415Y500940D01*
X948857Y500923D01*
X948942Y500889D01*
X949010Y500872D01*
X949231Y500855D01*
X950048Y500872D01*
X950133Y500906D01*
X950226Y500931D01*
X950669Y500948D01*
X950847Y501025D01*
X951085Y501042D01*
X951170Y501093D01*
X951238Y501110D01*
X951357Y501127D01*
X951408Y501178D01*
X951595Y501212D01*
X951646Y501263D01*
X951799Y501280D01*
X951867Y501348D01*
X951970Y501365D01*
X952020Y501416D01*
X952089Y501433D01*
X952174Y501450D01*
X952225Y501501D01*
X952293Y501518D01*
X952378Y501569D01*
X952463Y501603D01*
X952531Y501620D01*
X952565Y501671D01*
X952658Y501697D01*
X952718Y501739D01*
X952837Y501807D01*
X952922Y501841D01*
X953007Y501892D01*
X953160Y501977D01*
X953245Y502011D01*
X953279Y502028D01*
X953330Y502079D01*
X953432Y502096D01*
X953500Y502164D01*
X953594Y502190D01*
X953636Y502232D01*
X953721Y502283D01*
X953730Y502309D01*
X953687Y502351D01*
X953653Y502368D01*
X953619Y502402D01*
X953534Y502453D01*
X953517Y502488D01*
X953432Y502522D01*
X953398Y502556D01*
X953313Y502606D01*
X953245Y502674D01*
X953160Y502726D01*
X953041Y502794D01*
X953007Y502828D01*
X952973Y502845D01*
X952922Y502896D01*
X952803Y502964D01*
X952769Y502998D01*
X952735Y503015D01*
X952709Y503040D01*
X952701Y503066D01*
X952548Y503151D01*
X952454Y503227D01*
X952395Y503270D01*
X952344Y503321D01*
X952310Y503338D01*
X952191Y503423D01*
X952157Y503440D01*
X951952Y503644D01*
X951919Y503661D01*
X951893Y503686D01*
X951876Y503720D01*
X951851Y503746D01*
X951816Y503763D01*
X951655Y503925D01*
X951638Y503959D01*
X951604Y503976D01*
X951587Y504010D01*
X951544Y504052D01*
X951510Y504069D01*
X951485Y504095D01*
X951468Y504129D01*
X951442Y504154D01*
X951417Y504163D01*
X951400Y504197D01*
X951298Y504299D01*
X951281Y504333D01*
X951247Y504367D01*
X951230Y504401D01*
X951162Y504503D01*
X951145Y504537D01*
X951094Y504571D01*
X951077Y504605D01*
X951009Y504707D01*
X950958Y504792D01*
X950924Y504826D01*
X950907Y504860D01*
X950856Y504911D01*
X950830Y505005D01*
X950813Y505038D01*
X950779Y505056D01*
X950762Y505140D01*
X950720Y505200D01*
X950686Y505234D01*
X950660Y505345D01*
X950601Y505404D01*
X950583Y505540D01*
X950549Y505574D01*
X950515Y505659D01*
X950498Y505795D01*
X950447Y505846D01*
X950430Y505914D01*
X950413Y506135D01*
X950362Y506254D01*
X950345Y506374D01*
X950354Y506722D01*
X950345Y507343D01*
X950362Y507394D01*
X950379Y507428D01*
X950430Y507547D01*
X950447Y507768D01*
X950481Y507802D01*
X950515Y507887D01*
X950532Y508040D01*
X950583Y508091D01*
X950601Y508210D01*
X950618Y508278D01*
X950669Y508329D01*
X950686Y508465D01*
X950762Y508559D01*
X950788Y508686D01*
X950839Y508720D01*
X950856Y508840D01*
X950907Y508874D01*
X950924Y508942D01*
X950941Y508976D01*
X950992Y509027D01*
X951009Y509095D01*
X951026Y509129D01*
X951060Y509163D01*
X951119Y509273D01*
X951153Y509290D01*
X951179Y509367D01*
X951196Y509401D01*
X951247Y509452D01*
X951298Y509537D01*
X951366Y509656D01*
X951417Y509707D01*
X951434Y509741D01*
X951502Y509809D01*
X951553Y509894D01*
X951638Y510013D01*
X951672Y510047D01*
X951689Y510081D01*
X951825Y510217D01*
X951876Y510302D01*
X951952Y510396D01*
X952038Y510481D01*
X952123Y510532D01*
X952276Y510617D01*
X952395Y510668D01*
X952480Y510702D01*
X952565Y510685D01*
D02*
G37*
G36*
X958347Y544919D02*
X958432Y544885D01*
X958551Y544868D01*
X958823Y544851D01*
X958857Y544817D01*
X958942Y544783D01*
X959163Y544766D01*
X959214Y544715D01*
X959282Y544698D01*
X959418Y544681D01*
X959470Y544630D01*
X959589Y544613D01*
X959657Y544596D01*
X959691Y544562D01*
X959776Y544528D01*
X959878Y544511D01*
X959929Y544460D01*
X960082Y544443D01*
X960107Y544418D01*
X960116Y544392D01*
X960184Y544375D01*
X960269Y544358D01*
X960337Y544290D01*
X960456Y544273D01*
X960481Y544248D01*
X960490Y544222D01*
X960558Y544205D01*
X960643Y544188D01*
X960694Y544137D01*
X960830Y544103D01*
X960881Y544052D01*
X961000Y544035D01*
X961068Y543967D01*
X961162Y543941D01*
X961204Y543899D01*
X961272Y543882D01*
X961357Y543831D01*
X961391Y543797D01*
X961493Y543780D01*
X961544Y543729D01*
X961629Y543695D01*
X961663Y543661D01*
X961748Y543627D01*
X961817Y543559D01*
X961919Y543542D01*
X961961Y543482D01*
X962089Y543457D01*
X962131Y543397D01*
X962199Y543380D01*
X962259Y543338D01*
X962352Y543261D01*
X962378Y543236D01*
X962480Y543219D01*
X962522Y543176D01*
X962531Y543151D01*
X962624Y543125D01*
X962684Y543083D01*
X962760Y543023D01*
X962769Y542998D01*
X962837Y542981D01*
X962896Y542955D01*
X962905Y542930D01*
X962990Y542879D01*
X963041Y542828D01*
X963126Y542811D01*
X963194Y542743D01*
X963279Y542692D01*
X963441Y542581D01*
X963551Y542505D01*
X963619Y542487D01*
X963645Y542462D01*
X963662Y542428D01*
X963747Y542377D01*
X963755Y542351D01*
X963908Y542266D01*
X963993Y542181D01*
X964027Y542164D01*
X964095Y542096D01*
X964163Y542079D01*
X964231Y542011D01*
X964265Y541994D01*
X964334Y541926D01*
X964367Y541909D01*
X964435Y541841D01*
X964555Y541773D01*
X964589Y541739D01*
X964623Y541722D01*
X964776Y541569D01*
X964810Y541552D01*
X964844Y541518D01*
X964878Y541501D01*
X964929Y541450D01*
X965014Y541399D01*
X965048Y541365D01*
X965082Y541348D01*
X965167Y541263D01*
X965192Y541255D01*
X965209Y541220D01*
X965235Y541195D01*
X965269Y541178D01*
X965294Y541152D01*
X965311Y541118D01*
X965371Y541076D01*
X965405Y541025D01*
X965439Y541008D01*
X965481Y540948D01*
X965532Y540914D01*
X965549Y540880D01*
X965609Y540838D01*
X965643Y540787D01*
X965677Y540770D01*
X965720Y540710D01*
X965771Y540676D01*
X965788Y540642D01*
X965830Y540600D01*
X965856Y540591D01*
X965873Y540557D01*
X966094Y540336D01*
X966111Y540302D01*
X966247Y540166D01*
X966298Y540081D01*
X966332Y540047D01*
X966383Y539962D01*
X966417Y539945D01*
X966434Y539911D01*
X966519Y539826D01*
X966536Y539792D01*
X966570Y539758D01*
X966638Y539639D01*
X966672Y539605D01*
X966689Y539571D01*
X966748Y539528D01*
X966791Y539469D01*
X966825Y539435D01*
X966850Y539341D01*
X966927Y539265D01*
X966944Y539231D01*
X966978Y539197D01*
X966995Y539163D01*
X967080Y539044D01*
X967097Y539010D01*
X967148Y538959D01*
X967191Y538848D01*
X967233Y538805D01*
X967250Y538771D01*
X967318Y538703D01*
X967335Y538635D01*
X967352Y538601D01*
X967403Y538550D01*
X967522Y538329D01*
X967556Y538295D01*
X967582Y538202D01*
X967641Y538142D01*
X967684Y538032D01*
X967726Y537989D01*
X967760Y537904D01*
X967794Y537870D01*
X967837Y537760D01*
X967879Y537717D01*
X967922Y537606D01*
X967981Y537496D01*
X967998Y537445D01*
X968024Y537419D01*
X968049Y537411D01*
X968067Y537360D01*
X968049Y537326D01*
X968126Y537232D01*
X968143Y537164D01*
X968169Y537105D01*
X968219Y537054D01*
X968237Y536935D01*
X968287Y536884D01*
X968305Y536816D01*
X968322Y536731D01*
X968373Y536697D01*
X968390Y536629D01*
X968407Y536544D01*
X968458Y536493D01*
X968483Y536365D01*
X968543Y536271D01*
X968560Y536152D01*
X968628Y536084D01*
X968645Y535931D01*
X968696Y535880D01*
X968713Y535812D01*
X968730Y535710D01*
X968781Y535659D01*
X968798Y535591D01*
X968815Y535472D01*
X968866Y535421D01*
X968883Y535234D01*
X968951Y535166D01*
X968968Y534979D01*
X969036Y534877D01*
X969053Y534690D01*
X969087Y534656D01*
X969121Y534571D01*
X969138Y534401D01*
X969189Y534316D01*
X969206Y534248D01*
X969223Y534078D01*
X969274Y533993D01*
X969291Y533874D01*
X969308Y533738D01*
X969342Y533703D01*
X969359Y533635D01*
X969376Y533550D01*
X969359Y533499D01*
X969384Y533389D01*
X969410Y533363D01*
X969444Y533278D01*
X969461Y533006D01*
X969529Y532853D01*
X969546Y532564D01*
X969597Y532479D01*
X969614Y532411D01*
X969631Y532071D01*
X969657Y532045D01*
X969699Y532088D01*
X969725Y532232D01*
X969750Y532292D01*
X969784Y532377D01*
X969801Y532649D01*
X969835Y532683D01*
X969852Y532751D01*
X969861Y532794D01*
X969852Y532836D01*
X969869Y532887D01*
X969886Y533142D01*
X969920Y533176D01*
X969937Y533295D01*
X969954Y533754D01*
X969988Y533840D01*
X970005Y533908D01*
X970022Y534027D01*
X970005Y535625D01*
X969971Y535710D01*
X969954Y535829D01*
X969937Y536101D01*
X969920Y536322D01*
X969869Y536442D01*
X969852Y536765D01*
X969801Y536816D01*
X969784Y536884D01*
X969767Y537122D01*
X969733Y537156D01*
X969699Y537241D01*
X969682Y537445D01*
X969648Y537462D01*
X969631Y537530D01*
X969614Y537700D01*
X969597Y537734D01*
X969546Y537785D01*
X969529Y537904D01*
X969512Y538006D01*
X969461Y538057D01*
X969444Y538176D01*
X969427Y538244D01*
X969376Y538295D01*
X969359Y538448D01*
X969291Y538516D01*
X969274Y538652D01*
X969223Y538703D01*
X969206Y538771D01*
X969189Y538857D01*
X969138Y538907D01*
X969104Y539044D01*
X969070Y539078D01*
X969087Y539146D01*
X969146Y539154D01*
X969231Y539103D01*
X969265Y539069D01*
X969351Y539052D01*
X969401Y539001D01*
X969487Y538967D01*
X969538Y538916D01*
X969572Y538899D01*
X969725Y538746D01*
X969759Y538729D01*
X969818Y538635D01*
X969852Y538601D01*
X969869Y538567D01*
X969920Y538516D01*
X969980Y538406D01*
X970014Y538389D01*
X970073Y538295D01*
X970107Y538261D01*
X970124Y538210D01*
X970175Y538159D01*
X970226Y538074D01*
X970260Y538057D01*
X970286Y537964D01*
X970328Y537921D01*
X970379Y537836D01*
X970413Y537802D01*
X970430Y537734D01*
X970481Y537649D01*
X970515Y537615D01*
X970617Y537428D01*
X970652Y537411D01*
X970669Y537360D01*
X970652Y537326D01*
X970694Y537266D01*
X970728Y537249D01*
X970753Y537224D01*
X970770Y537122D01*
X970796Y537096D01*
X970822Y537088D01*
X970856Y536952D01*
X970915Y536909D01*
X970924Y536867D01*
X970907Y536833D01*
X970932Y536790D01*
X970966Y536773D01*
X970992Y536748D01*
X971009Y536646D01*
X971051Y536603D01*
X971077Y536595D01*
X971094Y536476D01*
X971162Y536408D01*
X971179Y536306D01*
X971204Y536280D01*
X971230Y536271D01*
X971264Y536135D01*
X971315Y536084D01*
X971349Y535931D01*
X971400Y535880D01*
X971417Y535761D01*
X971425Y535736D01*
X971459Y535719D01*
X971485Y535693D01*
X971502Y535574D01*
X971570Y535506D01*
X971587Y535370D01*
X971638Y535319D01*
X971655Y535251D01*
X971672Y535166D01*
X971723Y535115D01*
X971748Y534970D01*
X971808Y534911D01*
X971817Y534851D01*
X971808Y534775D01*
X971893Y534690D01*
X971910Y534520D01*
X971978Y534452D01*
X971995Y534282D01*
X972021Y534256D01*
X972046Y534248D01*
X972063Y534180D01*
X972080Y534044D01*
X972131Y533993D01*
X972165Y533788D01*
X972216Y533738D01*
X972233Y533618D01*
X972242Y533525D01*
X972276Y533508D01*
X972301Y533482D01*
X972318Y533261D01*
X972369Y533210D01*
X972386Y533142D01*
X972403Y532955D01*
X972454Y532904D01*
X972471Y532785D01*
X972488Y532615D01*
X972522Y532581D01*
X972556Y532445D01*
X972573Y532207D01*
X972624Y532156D01*
X972641Y531765D01*
X972709Y531612D01*
X972726Y531101D01*
X972760Y531016D01*
X972777Y530948D01*
X972794Y530727D01*
X972777Y528295D01*
X972726Y528176D01*
X972709Y528057D01*
X972692Y527530D01*
X972641Y527411D01*
X972624Y527292D01*
X972607Y527003D01*
X972573Y526969D01*
X972556Y526850D01*
X972539Y526578D01*
X972471Y526425D01*
X972454Y526152D01*
X972386Y526050D01*
X972369Y525812D01*
X972335Y525778D01*
X972301Y525659D01*
X972284Y525489D01*
X972250Y525455D01*
X972233Y525387D01*
X972216Y525200D01*
X972165Y525149D01*
X972131Y525047D01*
X972148Y524996D01*
X972063Y524809D01*
X972046Y524673D01*
X971995Y524622D01*
X971978Y524554D01*
X971961Y524401D01*
X971902Y524358D01*
X971885Y524188D01*
X971825Y524129D01*
X971808Y523976D01*
X971757Y523924D01*
X971740Y523856D01*
X971723Y523755D01*
X971697Y523729D01*
X971663Y523712D01*
X971646Y523576D01*
X971604Y523516D01*
X971570Y523431D01*
X971553Y523363D01*
X971502Y523312D01*
X971468Y523176D01*
X971417Y523125D01*
X971400Y523006D01*
X971332Y522938D01*
X971315Y522819D01*
X971264Y522768D01*
X971247Y522700D01*
X971179Y522581D01*
X971162Y522530D01*
X971043Y522309D01*
X970873Y522003D01*
X970839Y521969D01*
X970822Y521884D01*
X970753Y521816D01*
X970737Y521714D01*
X970669Y521646D01*
X970652Y521578D01*
X970601Y521527D01*
X970549Y521442D01*
X970515Y521408D01*
X970498Y521340D01*
X970413Y521220D01*
X970396Y521186D01*
X970362Y521152D01*
X970337Y521059D01*
X970277Y521016D01*
X970243Y520931D01*
X970209Y520897D01*
X970158Y520812D01*
X970107Y520761D01*
X970090Y520693D01*
X970039Y520642D01*
X970005Y520557D01*
X969946Y520515D01*
X969903Y520455D01*
X969852Y520404D01*
X969835Y520336D01*
X969767Y520268D01*
X969750Y520234D01*
X969682Y520166D01*
X969665Y520132D01*
X969631Y520098D01*
X969580Y520013D01*
X969546Y519979D01*
X969503Y519902D01*
X969470Y519885D01*
X969427Y519826D01*
X969359Y519758D01*
X969308Y519673D01*
X969223Y519554D01*
X969121Y519452D01*
X969112Y519426D01*
X969078Y519409D01*
X969036Y519367D01*
X969019Y519333D01*
X968883Y519197D01*
X968832Y519112D01*
X968798Y519078D01*
X968781Y519044D01*
X968662Y518925D01*
X968645Y518890D01*
X968305Y518550D01*
X968287Y518516D01*
X968262Y518491D01*
X968228Y518474D01*
X967769Y518015D01*
X967735Y517998D01*
X967667Y517930D01*
X967633Y517913D01*
X967582Y517862D01*
X967548Y517845D01*
X967480Y517777D01*
X967446Y517760D01*
X967403Y517734D01*
X967386Y517700D01*
X967361Y517674D01*
X967335Y517666D01*
X967318Y517632D01*
X967293Y517606D01*
X967259Y517590D01*
X967123Y517453D01*
X967037Y517419D01*
X966986Y517368D01*
X966953Y517351D01*
X966868Y517266D01*
X966833Y517249D01*
X966799Y517198D01*
X966714Y517147D01*
X966595Y517079D01*
X966561Y517028D01*
X966527Y517011D01*
X966434Y516935D01*
X966306Y516858D01*
X966272Y516841D01*
X966238Y516790D01*
X966153Y516739D01*
X966119Y516705D01*
X966000Y516637D01*
X965907Y516561D01*
X965771Y516476D01*
X965685Y516425D01*
X965668Y516391D01*
X965584Y516373D01*
X965524Y516331D01*
X965490Y516297D01*
X965456Y516280D01*
X965405Y516229D01*
X965311Y516203D01*
X965252Y516144D01*
X965184Y516127D01*
X965141Y516101D01*
X965124Y516067D01*
X965031Y516008D01*
X964946Y515974D01*
X964895Y515957D01*
X964844Y515906D01*
X964776Y515889D01*
X964716Y515863D01*
X964699Y515829D01*
X964674Y515804D01*
X964572Y515787D01*
X964546Y515761D01*
X964538Y515736D01*
X964470Y515719D01*
X964419Y515702D01*
X964367Y515651D01*
X964299Y515634D01*
X963806Y515396D01*
X963755Y515379D01*
X963730Y515353D01*
X963721Y515328D01*
X963653Y515311D01*
X963619Y515328D01*
X963560Y515285D01*
X963551Y515260D01*
X963432Y515226D01*
X963398Y515209D01*
X963364Y515174D01*
X963296Y515158D01*
X963202Y515132D01*
X963160Y515090D01*
X963092Y515072D01*
X963007Y515056D01*
X962956Y515004D01*
X962888Y514988D01*
X962786Y514970D01*
X962735Y514919D01*
X962616Y514902D01*
X962531Y514851D01*
X962480Y514834D01*
X962344Y514817D01*
X962276Y514749D01*
X962106Y514732D01*
X962037Y514664D01*
X961850Y514647D01*
X961799Y514596D01*
X961561Y514562D01*
X961510Y514511D01*
X961272Y514477D01*
X961238Y514443D01*
X961102Y514409D01*
X960949Y514392D01*
X960864Y514341D01*
X960609Y514324D01*
X960524Y514273D01*
X960456Y514256D01*
X960184Y514239D01*
X960065Y514188D01*
X959997Y514171D01*
X959708Y514154D01*
X959589Y514103D01*
X959367Y514086D01*
X959078Y514069D01*
X958993Y514035D01*
X958874Y514018D01*
X958645Y514010D01*
X958483Y514018D01*
X958432Y514001D01*
X958381Y514018D01*
X958075Y514001D01*
X958024Y513984D01*
X957786Y513950D01*
X957505Y513941D01*
X957429Y513950D01*
X957378Y513933D01*
X956587Y513976D01*
X956493Y514001D01*
X956170Y514018D01*
X955609Y514035D01*
X955490Y514086D01*
X955405Y514103D01*
X955354Y514086D01*
X955031Y514103D01*
X954878Y514171D01*
X954504Y514188D01*
X954453Y514239D01*
X954333Y514256D01*
X954095Y514273D01*
X954044Y514324D01*
X953925Y514341D01*
X953738Y514358D01*
X953704Y514392D01*
X953585Y514426D01*
X953534Y514409D01*
X953424Y514435D01*
X953313Y514494D01*
X953126Y514511D01*
X953024Y514579D01*
X952837Y514596D01*
X952752Y514647D01*
X952684Y514664D01*
X952565Y514681D01*
X952548Y514715D01*
X952463Y514749D01*
X952327Y514766D01*
X952276Y514817D01*
X952106Y514834D01*
X952038Y514902D01*
X951884Y514919D01*
X951834Y514970D01*
X951765Y514988D01*
X951663Y515004D01*
X951629Y515038D01*
X951544Y515072D01*
X951442Y515090D01*
X951417Y515115D01*
X951408Y515140D01*
X951272Y515174D01*
X951221Y515226D01*
X951068Y515260D01*
X951034Y515294D01*
X950949Y515328D01*
X950881Y515345D01*
X950847Y515379D01*
X950711Y515430D01*
X950660Y515481D01*
X950541Y515498D01*
X950515Y515523D01*
X950498Y515557D01*
X950396Y515574D01*
X950362Y515591D01*
X950345Y515625D01*
X950218Y515668D01*
X950167Y515719D01*
X950099Y515736D01*
X950048Y515753D01*
X949997Y515804D01*
X949929Y515821D01*
X949878Y515872D01*
X949793Y515906D01*
X949725Y515974D01*
X949640Y515991D01*
X949614Y516016D01*
X949606Y516042D01*
X949469Y516076D01*
X949436Y516127D01*
X949350Y516161D01*
X949299Y516212D01*
X949231Y516229D01*
X949163Y516297D01*
X949078Y516331D01*
X949044Y516365D01*
X949010Y516382D01*
X948942Y516450D01*
X948832Y516476D01*
X948772Y516535D01*
X948738Y516552D01*
X948713Y516578D01*
X948696Y516612D01*
X948594Y516663D01*
X948568Y516688D01*
X948483Y516739D01*
X948432Y516790D01*
X948381Y516807D01*
X948347Y516841D01*
X948228Y516909D01*
X948194Y516943D01*
X948160Y516960D01*
X948109Y517028D01*
X947990Y517096D01*
X947956Y517130D01*
X947930Y517139D01*
X947922Y517164D01*
X947888Y517181D01*
X947794Y517258D01*
X947769Y517283D01*
X947735Y517300D01*
X947684Y517351D01*
X947599Y517402D01*
X947505Y517479D01*
X947446Y517538D01*
X947420Y517547D01*
X947403Y517581D01*
X947378Y517606D01*
X947344Y517624D01*
X947276Y517692D01*
X947242Y517709D01*
X947191Y517760D01*
X947157Y517777D01*
X947089Y517845D01*
X947054Y517862D01*
X946986Y517930D01*
X946953Y517947D01*
X946799Y518100D01*
X946774Y518108D01*
X946757Y518142D01*
X946459Y518440D01*
X946434Y518448D01*
X946417Y518482D01*
X946323Y518576D01*
X946289Y518593D01*
X946247Y518652D01*
X946187Y518695D01*
X946102Y518797D01*
X945924Y518976D01*
X945907Y519010D01*
X945737Y519180D01*
X945720Y519214D01*
X945669Y519265D01*
X945652Y519299D01*
X945617Y519333D01*
X945601Y519367D01*
X945532Y519435D01*
X945515Y519469D01*
X945362Y519622D01*
X945345Y519656D01*
X945294Y519707D01*
X945243Y519792D01*
X945201Y519868D01*
X945167Y519885D01*
X945107Y519945D01*
X945099Y519970D01*
X945065Y519987D01*
X945039Y520013D01*
X945022Y520047D01*
X944988Y520081D01*
X944971Y520115D01*
X944920Y520200D01*
X944886Y520234D01*
X944869Y520268D01*
X944801Y520336D01*
X944750Y520421D01*
X944682Y520540D01*
X944631Y520591D01*
X944614Y520625D01*
X944563Y520676D01*
X944529Y520761D01*
X944478Y520812D01*
X944452Y520872D01*
X944419Y520889D01*
X944359Y521016D01*
X944308Y521067D01*
X944291Y521101D01*
X944240Y521152D01*
X944214Y521246D01*
X944155Y521306D01*
X944112Y521382D01*
X944087Y521390D01*
X944061Y521484D01*
X944044Y521518D01*
X944010Y521535D01*
X943985Y521561D01*
X943968Y521646D01*
X943900Y521714D01*
X943883Y521782D01*
X943849Y521816D01*
X943815Y521901D01*
X943772Y521943D01*
X943747Y521952D01*
X943730Y522071D01*
X943704Y522096D01*
X943670Y522113D01*
X943645Y522241D01*
X943585Y522283D01*
X943568Y522385D01*
X943534Y522419D01*
X943500Y522436D01*
X943475Y522564D01*
X943449Y522589D01*
X943415Y522607D01*
X943390Y522734D01*
X943339Y522768D01*
X943322Y522887D01*
X943296Y522913D01*
X943262Y522930D01*
X943237Y523057D01*
X943211Y523083D01*
X943177Y523100D01*
X943151Y523244D01*
X943100Y523295D01*
X943067Y523431D01*
X943015Y523482D01*
X942998Y523550D01*
X942981Y523635D01*
X942930Y523669D01*
X942913Y523822D01*
X942862Y523874D01*
X942845Y523942D01*
X942828Y524044D01*
X942777Y524095D01*
X942760Y524163D01*
X942743Y524265D01*
X942675Y524367D01*
X942658Y524520D01*
X942607Y524571D01*
X942590Y524690D01*
X942573Y524758D01*
X942522Y524843D01*
X942505Y525013D01*
X942437Y525115D01*
X942420Y525302D01*
X942369Y525353D01*
X942352Y525421D01*
X942335Y525608D01*
X942267Y525710D01*
X942250Y525948D01*
X942216Y525982D01*
X942182Y526118D01*
X942165Y526339D01*
X942114Y526391D01*
X942106Y526603D01*
X942114Y526629D01*
X942097Y526680D01*
X942080Y526765D01*
X942029Y526884D01*
X942012Y527207D01*
X941961Y527326D01*
X941944Y527445D01*
X941927Y527870D01*
X941893Y527955D01*
X941876Y528023D01*
X941859Y528295D01*
X941842Y529316D01*
X941825Y529367D01*
X941842Y529877D01*
X941859Y529928D01*
X941876Y530982D01*
X941927Y531101D01*
X941944Y531169D01*
X941961Y531663D01*
X942012Y531782D01*
X942029Y531850D01*
X942046Y532173D01*
X942097Y532224D01*
X942114Y532343D01*
X942106Y532453D01*
X942123Y532555D01*
X942182Y532700D01*
X942199Y532938D01*
X942267Y533040D01*
X942284Y533278D01*
X942352Y533380D01*
X942369Y533601D01*
X942420Y533652D01*
X942437Y533772D01*
X942454Y533874D01*
X942505Y533924D01*
X942522Y534044D01*
X942539Y534146D01*
X942590Y534197D01*
X942607Y534384D01*
X942633Y534409D01*
X942658Y534418D01*
X942675Y534486D01*
X942692Y534622D01*
X942718Y534647D01*
X942743Y534656D01*
X942760Y534724D01*
X942777Y534860D01*
X942828Y534911D01*
X942862Y535064D01*
X942913Y535115D01*
X942939Y535277D01*
X942998Y535336D01*
X943015Y535455D01*
X943083Y535523D01*
X943100Y535659D01*
X943151Y535710D01*
X943186Y535846D01*
X943254Y535914D01*
X943270Y536016D01*
X943339Y536084D01*
X943356Y536203D01*
X943407Y536255D01*
X943424Y536356D01*
X943492Y536424D01*
X943509Y536510D01*
X943560Y536561D01*
X943577Y536629D01*
X943594Y536680D01*
X943653Y536722D01*
X943679Y536850D01*
X943730Y536884D01*
X943747Y536952D01*
X943764Y537003D01*
X943815Y537054D01*
X943857Y537164D01*
X943900Y537207D01*
X944019Y537428D01*
X944070Y537479D01*
X944087Y537564D01*
X944138Y537615D01*
X944189Y537700D01*
X944223Y537734D01*
X944240Y537802D01*
X944291Y537853D01*
X944410Y538074D01*
X944470Y538117D01*
X944503Y538202D01*
X944546Y538244D01*
X944597Y538329D01*
X944648Y538380D01*
X944733Y538533D01*
X944784Y538584D01*
X944801Y538618D01*
X944886Y538703D01*
X944903Y538771D01*
X944954Y538823D01*
X944997Y538899D01*
X945031Y538916D01*
X945073Y538976D01*
X945141Y539044D01*
X945209Y539163D01*
X945286Y539256D01*
X945320Y539307D01*
X945354Y539324D01*
X945396Y539384D01*
X945447Y539418D01*
X945464Y539452D01*
X945515Y539503D01*
X945532Y539537D01*
X945609Y539630D01*
X945652Y539690D01*
X945753Y539792D01*
X945770Y539826D01*
X945813Y539868D01*
X945847Y539885D01*
X945890Y539945D01*
X945958Y540013D01*
X945966Y540038D01*
X946000Y540056D01*
X946026Y540081D01*
X946043Y540115D01*
X946102Y540158D01*
X946136Y540209D01*
X946170Y540226D01*
X946731Y540787D01*
X946765Y540804D01*
X946834Y540872D01*
X946867Y540889D01*
X946918Y540940D01*
X947003Y540991D01*
X947038Y541025D01*
X947072Y541042D01*
X947225Y541195D01*
X947259Y541212D01*
X947310Y541263D01*
X947395Y541297D01*
X947531Y541433D01*
X947573Y541407D01*
X947556Y541101D01*
X947488Y540999D01*
X947471Y540914D01*
X947420Y540863D01*
X947395Y540804D01*
X947361Y540787D01*
X947318Y540744D01*
X947301Y540710D01*
X947250Y540659D01*
X947182Y540540D01*
X947080Y540370D01*
X947063Y540336D01*
X947012Y540285D01*
X946944Y540166D01*
X946885Y540056D01*
X946850Y540038D01*
X946817Y539953D01*
X946774Y539911D01*
X946706Y539792D01*
X946672Y539758D01*
X946655Y539673D01*
X946587Y539605D01*
X946570Y539537D01*
X946519Y539486D01*
X946502Y539418D01*
X946434Y539350D01*
X946417Y539265D01*
X946349Y539197D01*
X946332Y539112D01*
X946264Y539044D01*
X946247Y538941D01*
X946196Y538907D01*
X946153Y538797D01*
X946111Y538755D01*
X946094Y538686D01*
X946026Y538618D01*
X946009Y538516D01*
X945941Y538448D01*
X945924Y538363D01*
X945873Y538312D01*
X945856Y538244D01*
X945839Y538193D01*
X945788Y538142D01*
X945770Y538023D01*
X945745Y537998D01*
X945711Y537981D01*
X945694Y537879D01*
X945652Y537819D01*
X945617Y537734D01*
X945601Y537666D01*
X945549Y537615D01*
X945532Y537547D01*
X945515Y537462D01*
X945456Y537419D01*
X945430Y537292D01*
X945379Y537241D01*
X945362Y537173D01*
X945345Y537088D01*
X945311Y537054D01*
X945277Y536918D01*
X945260Y536884D01*
X945209Y536833D01*
X945192Y536680D01*
X945184Y536671D01*
X945124Y536612D01*
X945107Y536442D01*
X945056Y536390D01*
X945039Y536322D01*
X945022Y536220D01*
X944971Y536186D01*
X944937Y535999D01*
X944903Y535965D01*
X944886Y535897D01*
X944861Y535736D01*
X944801Y535676D01*
X944784Y535472D01*
X944733Y535421D01*
X944716Y535353D01*
X944699Y535183D01*
X944631Y535115D01*
X944614Y534877D01*
X944563Y534826D01*
X944546Y534758D01*
X944529Y534537D01*
X944478Y534486D01*
X944461Y534214D01*
X944393Y534112D01*
X944376Y533772D01*
X944342Y533738D01*
X944308Y533652D01*
X944291Y533278D01*
X944240Y533159D01*
X944223Y533091D01*
X944206Y532632D01*
X944155Y532513D01*
X944138Y532394D01*
X944121Y531561D01*
X944104Y531510D01*
X944087Y531441D01*
X944061Y530974D01*
X944053Y530795D01*
X944070Y530744D01*
X944087Y530268D01*
X944104Y530217D01*
X944121Y530149D01*
X944138Y529622D01*
X944155Y529248D01*
X944206Y529129D01*
X944223Y529010D01*
X944240Y528686D01*
X944274Y528652D01*
X944308Y528567D01*
X944325Y528278D01*
X944359Y528244D01*
X944393Y528108D01*
X944410Y527938D01*
X944461Y527887D01*
X944470Y527760D01*
X944461Y527683D01*
X944487Y527640D01*
X944520Y527624D01*
X944546Y527598D01*
X944563Y527411D01*
X944631Y527309D01*
X944648Y527156D01*
X944699Y527105D01*
X944716Y527037D01*
X944733Y526918D01*
X944784Y526884D01*
X944818Y526748D01*
X944869Y526697D01*
X944895Y526535D01*
X944954Y526476D01*
X944971Y526357D01*
X945039Y526289D01*
X945056Y526186D01*
X945124Y526118D01*
X945141Y526033D01*
X945209Y525965D01*
X945226Y525863D01*
X945294Y525795D01*
X945311Y525710D01*
X945362Y525659D01*
X945379Y525608D01*
X945430Y525557D01*
X945447Y525489D01*
X945464Y525455D01*
X945532Y525387D01*
X945549Y525319D01*
X945634Y525200D01*
X945652Y525166D01*
X945685Y525132D01*
X945737Y525047D01*
X945796Y524953D01*
X945830Y524936D01*
X945856Y524911D01*
X945890Y524826D01*
X945941Y524775D01*
X945958Y524724D01*
X946026Y524656D01*
X946043Y524622D01*
X946111Y524554D01*
X946213Y524384D01*
X946264Y524350D01*
X946281Y524316D01*
X946366Y524231D01*
X946383Y524197D01*
X946485Y524095D01*
X946502Y524061D01*
X946587Y523976D01*
X946604Y523942D01*
X946655Y523890D01*
X946672Y523856D01*
X946757Y523771D01*
X946774Y523737D01*
X946799Y523712D01*
X946834Y523695D01*
X946918Y523593D01*
X946953Y523559D01*
X946986Y523542D01*
X947012Y523516D01*
X947029Y523482D01*
X947131Y523397D01*
X947208Y523321D01*
X947242Y523304D01*
X947267Y523278D01*
X947276Y523253D01*
X947310Y523236D01*
X947403Y523159D01*
X947463Y523117D01*
X947514Y523066D01*
X947548Y523049D01*
X947701Y522896D01*
X947735Y522879D01*
X947786Y522828D01*
X947837Y522811D01*
X947888Y522760D01*
X947973Y522709D01*
X948041Y522641D01*
X948075Y522623D01*
X948092Y522589D01*
X948177Y522555D01*
X948211Y522521D01*
X948245Y522505D01*
X948339Y522428D01*
X948424Y522394D01*
X948466Y522351D01*
X948704Y522215D01*
X948755Y522164D01*
X948840Y522147D01*
X948891Y522096D01*
X949002Y522054D01*
X949027Y522028D01*
X949112Y521994D01*
X949180Y521977D01*
X949248Y521909D01*
X949350Y521892D01*
X949368Y521858D01*
X949504Y521824D01*
X949537Y521773D01*
X949674Y521739D01*
X949708Y521705D01*
X949827Y521671D01*
X949895Y521654D01*
X949946Y521603D01*
X950014Y521586D01*
X950065Y521603D01*
X950150Y521552D01*
X950184Y521518D01*
X950354Y521501D01*
X950456Y521433D01*
X950643Y521416D01*
X950669Y521390D01*
X950677Y521365D01*
X950745Y521348D01*
X950966Y521331D01*
X951000Y521297D01*
X951136Y521263D01*
X951357Y521246D01*
X951476Y521195D01*
X951902Y521178D01*
X952003Y521110D01*
X953415Y521093D01*
X953466Y521110D01*
X954265Y521127D01*
X954385Y521178D01*
X954861Y521212D01*
X954895Y521246D01*
X954963Y521263D01*
X955116Y521280D01*
X955167Y521263D01*
X955260Y521288D01*
X955303Y521331D01*
X955422Y521348D01*
X955592Y521365D01*
X955626Y521399D01*
X955711Y521433D01*
X955898Y521450D01*
X955932Y521501D01*
X956000Y521518D01*
X956153Y521535D01*
X956204Y521586D01*
X956391Y521620D01*
X956442Y521671D01*
X956561Y521688D01*
X956595Y521705D01*
X956680Y521756D01*
X956782Y521773D01*
X956808Y521799D01*
X956825Y521833D01*
X956952Y521858D01*
X957003Y521909D01*
X957114Y521935D01*
X957174Y521994D01*
X957276Y522011D01*
X957327Y522062D01*
X957412Y522096D01*
X957446Y522113D01*
X957480Y522147D01*
X957548Y522164D01*
X957633Y522215D01*
X957667Y522249D01*
X957854Y522351D01*
X957888Y522402D01*
X957956Y522419D01*
X958007Y522436D01*
X958041Y522487D01*
X958126Y522539D01*
X958160Y522573D01*
X958313Y522657D01*
X958381Y522726D01*
X958415Y522743D01*
X958500Y522828D01*
X958534Y522845D01*
X958568Y522879D01*
X958653Y522930D01*
X958747Y523006D01*
X958772Y523049D01*
X958806Y523066D01*
X958925Y523185D01*
X958951Y523193D01*
X958968Y523227D01*
X959070Y523312D01*
X959112Y523372D01*
X959146Y523389D01*
X959240Y523482D01*
X959257Y523516D01*
X959665Y523924D01*
X959682Y523959D01*
X959716Y523976D01*
X959733Y524010D01*
X959895Y524222D01*
X959937Y524282D01*
X960005Y524350D01*
X960022Y524384D01*
X960056Y524418D01*
X960124Y524537D01*
X960158Y524571D01*
X960175Y524605D01*
X960209Y524622D01*
X960252Y524732D01*
X960311Y524792D01*
X960328Y524826D01*
X960379Y524877D01*
X960396Y524945D01*
X960413Y524996D01*
X960464Y525047D01*
X960481Y525081D01*
X960549Y525149D01*
X960567Y525234D01*
X960635Y525302D01*
X960660Y525396D01*
X960703Y525438D01*
X960736Y525574D01*
X960787Y525608D01*
X960804Y525676D01*
X960830Y525736D01*
X960856Y525744D01*
X960890Y525829D01*
X960907Y525897D01*
X960958Y525931D01*
X960992Y526067D01*
X961043Y526118D01*
X961060Y526237D01*
X961128Y526305D01*
X961145Y526459D01*
X961213Y526527D01*
X961230Y526680D01*
X961281Y526731D01*
X961306Y526909D01*
X961349Y526969D01*
X961366Y527020D01*
X961383Y527156D01*
X961451Y527258D01*
X961468Y527479D01*
X961519Y527530D01*
X961536Y527598D01*
X961553Y527819D01*
X961587Y527853D01*
X961621Y527938D01*
X961638Y528261D01*
X961672Y528295D01*
X961689Y528363D01*
X961706Y528482D01*
X961723Y528823D01*
X961774Y528941D01*
X961799Y529817D01*
X961817Y530124D01*
X961825Y530234D01*
X961808Y530285D01*
X961782Y530872D01*
X961765Y531365D01*
X961731Y531450D01*
X961706Y531544D01*
X961697Y531773D01*
X961706Y531799D01*
X961689Y531850D01*
X961672Y531935D01*
X961621Y532054D01*
X961604Y532343D01*
X961570Y532377D01*
X961536Y532462D01*
X961519Y532683D01*
X961468Y532768D01*
X961451Y532836D01*
X961434Y532972D01*
X961366Y533074D01*
X961349Y533261D01*
X961315Y533295D01*
X961298Y533363D01*
X961281Y533499D01*
X961213Y533567D01*
X961196Y533738D01*
X961145Y533788D01*
X961128Y533856D01*
X961102Y533950D01*
X961060Y533993D01*
X961043Y534061D01*
X961026Y534163D01*
X960975Y534197D01*
X960958Y534333D01*
X960890Y534401D01*
X960864Y534528D01*
X960822Y534571D01*
X960804Y534639D01*
X960771Y534724D01*
X960719Y534758D01*
X960703Y534877D01*
X960651Y534928D01*
X960635Y534996D01*
X960618Y535047D01*
X960567Y535098D01*
X960549Y535166D01*
X960532Y535217D01*
X960507Y535243D01*
X960481Y535251D01*
X960439Y535362D01*
X960413Y535387D01*
X960345Y535506D01*
X960311Y535591D01*
X960286Y535651D01*
X960252Y535668D01*
X960226Y535744D01*
X960209Y535778D01*
X960158Y535829D01*
X960039Y536050D01*
X959988Y536084D01*
X959963Y536178D01*
X959920Y536220D01*
X959903Y536255D01*
X959861Y536314D01*
X959835Y536322D01*
X959784Y536408D01*
X959750Y536442D01*
X959733Y536510D01*
X959691Y536552D01*
X959665Y536561D01*
X959648Y536595D01*
X959623Y536637D01*
X959597Y536646D01*
X959580Y536680D01*
X959495Y536765D01*
X959478Y536799D01*
X959402Y536892D01*
X959359Y536935D01*
X959342Y536969D01*
X959257Y537054D01*
X959240Y537088D01*
X959214Y537113D01*
X959180Y537130D01*
X959138Y537190D01*
X959061Y537266D01*
X959027Y537283D01*
X958908Y537402D01*
X958874Y537419D01*
X958840Y537453D01*
X958806Y537470D01*
X958755Y537522D01*
X958721Y537538D01*
X958653Y537606D01*
X958619Y537624D01*
X958483Y537760D01*
X958364Y537828D01*
X958270Y537904D01*
X958169Y537972D01*
X958143Y537998D01*
X958075Y538015D01*
X958007Y538083D01*
X957896Y538125D01*
X957854Y538168D01*
X957803Y538185D01*
X957777Y538210D01*
X957760Y538244D01*
X957658Y538261D01*
X957624Y538295D01*
X957607Y538329D01*
X957505Y538346D01*
X957454Y538380D01*
X957437Y538414D01*
X957310Y538440D01*
X957267Y538499D01*
X957140Y538525D01*
X957106Y538576D01*
X956970Y538610D01*
X956919Y538661D01*
X956782Y538678D01*
X956714Y538746D01*
X956578Y538763D01*
X956510Y538831D01*
X956357Y538848D01*
X956306Y538899D01*
X956238Y538916D01*
X956119Y538933D01*
X956068Y538984D01*
X955992Y538993D01*
X955915Y538984D01*
X955779Y539069D01*
X955575Y539086D01*
X955524Y539137D01*
X955456Y539154D01*
X955252Y539171D01*
X955167Y539222D01*
X955099Y539239D01*
X954827Y539256D01*
X954725Y539324D01*
X954563Y539316D01*
X954265Y539341D01*
X954146Y539392D01*
X952701Y539409D01*
X952531Y539392D01*
X952208Y539375D01*
X952089Y539324D01*
X951765Y539307D01*
X951731Y539273D01*
X951646Y539239D01*
X951425Y539222D01*
X951374Y539171D01*
X951306Y539154D01*
X951153Y539137D01*
X951102Y539086D01*
X951034Y539069D01*
X950915Y539052D01*
X950864Y539001D01*
X950796Y538984D01*
X950694Y538967D01*
X950669Y538941D01*
X950660Y538916D01*
X950609Y538899D01*
X950558Y538916D01*
X950524Y538899D01*
X950498Y538873D01*
X950490Y538848D01*
X950354Y538814D01*
X950303Y538763D01*
X950235Y538746D01*
X950184Y538729D01*
X950133Y538678D01*
X950039Y538652D01*
X949980Y538593D01*
X949878Y538576D01*
X949852Y538550D01*
X949835Y538516D01*
X949759Y538491D01*
X949725Y538474D01*
X949674Y538423D01*
X949597Y538380D01*
X949589Y538355D01*
X949520Y538338D01*
X949469Y538321D01*
X949384Y538236D01*
X949359Y538227D01*
X949342Y538193D01*
X949257Y538159D01*
X949087Y538023D01*
X949061Y537998D01*
X949027Y537981D01*
X948976Y537930D01*
X948908Y537913D01*
X948840Y537845D01*
X948806Y537828D01*
X948653Y537675D01*
X948619Y537657D01*
X948534Y537572D01*
X948500Y537556D01*
X948398Y537453D01*
X948364Y537436D01*
X948271Y537360D01*
X948109Y537198D01*
X948083Y537190D01*
X948067Y537156D01*
X948041Y537113D01*
X948007Y537096D01*
X947854Y536943D01*
X947820Y536926D01*
X947769Y536875D01*
X947692Y536867D01*
X947650Y536875D01*
X947531Y536807D01*
X947480Y536790D01*
X947429Y536807D01*
X947403Y536833D01*
X947420Y536986D01*
X947488Y537054D01*
X947505Y537156D01*
X947531Y537181D01*
X947556Y537190D01*
X947573Y537258D01*
X947590Y537309D01*
X947641Y537360D01*
X947684Y537470D01*
X947726Y537513D01*
X947769Y537606D01*
X947803Y537624D01*
X947820Y537691D01*
X947862Y537751D01*
X947896Y537785D01*
X947913Y537819D01*
X947981Y537887D01*
X947998Y537972D01*
X948151Y538125D01*
X948203Y538210D01*
X948262Y538321D01*
X948296Y538338D01*
X948322Y538363D01*
X948339Y538397D01*
X948475Y538533D01*
X948492Y538567D01*
X948551Y538610D01*
X948585Y538661D01*
X948619Y538678D01*
X948670Y538746D01*
X948704Y538763D01*
X948789Y538865D01*
X948840Y538916D01*
X948866Y538925D01*
X948883Y538959D01*
X948925Y539001D01*
X948951Y539010D01*
X948968Y539044D01*
X948993Y539069D01*
X949027Y539086D01*
X949070Y539146D01*
X949121Y539180D01*
X949138Y539214D01*
X949163Y539239D01*
X949197Y539256D01*
X949231Y539307D01*
X949265Y539324D01*
X949333Y539392D01*
X949419Y539443D01*
X949537Y539528D01*
X949572Y539562D01*
X949606Y539579D01*
X949631Y539605D01*
X949640Y539630D01*
X949725Y539681D01*
X949759Y539715D01*
X949844Y539732D01*
X949878Y539800D01*
X949954Y539843D01*
X949963Y539868D01*
X950031Y539885D01*
X950065Y539902D01*
X950116Y539953D01*
X950201Y540004D01*
X950235Y540038D01*
X950345Y540081D01*
X950388Y540124D01*
X950626Y540260D01*
X950711Y540294D01*
X950745Y540311D01*
X950796Y540362D01*
X950864Y540379D01*
X950915Y540396D01*
X950966Y540447D01*
X951068Y540464D01*
X951136Y540532D01*
X951238Y540549D01*
X951264Y540574D01*
X951281Y540608D01*
X951417Y540625D01*
X951459Y540668D01*
X951544Y540702D01*
X951646Y540719D01*
X951697Y540770D01*
X951765Y540787D01*
X951884Y540804D01*
X951935Y540855D01*
X952097Y540880D01*
X952208Y540940D01*
X952395Y540957D01*
X952446Y541008D01*
X952514Y541025D01*
X952701Y541042D01*
X952735Y541076D01*
X952854Y541110D01*
X953075Y541127D01*
X953109Y541161D01*
X953177Y541178D01*
X953347Y541195D01*
X953551Y541212D01*
X953636Y541246D01*
X953755Y541263D01*
X954053Y541271D01*
X954180Y541263D01*
X954231Y541280D01*
X954359Y541305D01*
X954427Y541323D01*
X954597Y541339D01*
X955558Y541348D01*
X955609Y541331D01*
X955813Y541314D01*
X955864Y541297D01*
X955932Y541280D01*
X956204Y541263D01*
X956646Y541246D01*
X956765Y541195D01*
X957157Y541178D01*
X957259Y541110D01*
X957548Y541093D01*
X957650Y541025D01*
X957905Y541008D01*
X957956Y540957D01*
X958194Y540923D01*
X958228Y540889D01*
X958296Y540872D01*
X958458Y540846D01*
X958517Y540787D01*
X958687Y540770D01*
X958738Y540719D01*
X958806Y540702D01*
X958891Y540685D01*
X958925Y540634D01*
X958993Y540617D01*
X959095Y540600D01*
X959146Y540549D01*
X959214Y540532D01*
X959299Y540515D01*
X959334Y540464D01*
X959470Y540430D01*
X959503Y540379D01*
X959606Y540362D01*
X959674Y540294D01*
X959776Y540277D01*
X959801Y540251D01*
X959810Y540226D01*
X959895Y540192D01*
X959946Y540140D01*
X960014Y540124D01*
X960056Y540098D01*
X960065Y540072D01*
X960150Y540038D01*
X960184Y540022D01*
X960218Y539988D01*
X960371Y539902D01*
X960456Y539851D01*
X960507Y539800D01*
X960694Y539698D01*
X960762Y539630D01*
X960796Y539613D01*
X960830Y539579D01*
X960949Y539511D01*
X961043Y539435D01*
X961051Y539409D01*
X961136Y539358D01*
X961170Y539324D01*
X961255Y539290D01*
X961323Y539222D01*
X961357Y539205D01*
X961383Y539180D01*
X961400Y539146D01*
X961451Y539112D01*
X961468Y539078D01*
X961527Y539018D01*
X961561Y539001D01*
X961638Y538941D01*
X961646Y538916D01*
X961680Y538899D01*
X961714Y538865D01*
X961748Y538848D01*
X961833Y538763D01*
X961868Y538746D01*
X961969Y538644D01*
X962004Y538627D01*
X962046Y538567D01*
X962267Y538346D01*
X962284Y538312D01*
X962352Y538244D01*
X962369Y538210D01*
X962420Y538159D01*
X962437Y538125D01*
X962522Y538040D01*
X962531Y538015D01*
X962565Y537998D01*
X962607Y537955D01*
X962624Y537921D01*
X962743Y537802D01*
X962794Y537717D01*
X962845Y537666D01*
X962871Y537606D01*
X962905Y537590D01*
X962947Y537530D01*
X962998Y537479D01*
X963015Y537445D01*
X963041Y537419D01*
X963066Y537411D01*
X963083Y537343D01*
X963109Y537283D01*
X963143Y537266D01*
X963211Y537164D01*
X963253Y537122D01*
X963339Y536969D01*
X963390Y536918D01*
X963407Y536884D01*
X963492Y536765D01*
X963509Y536714D01*
X963577Y536646D01*
X963594Y536561D01*
X963645Y536510D01*
X963662Y536476D01*
X963730Y536374D01*
X963747Y536306D01*
X963772Y536280D01*
X963806Y536263D01*
X963823Y536161D01*
X963900Y536084D01*
X963917Y536016D01*
X963968Y535965D01*
X963985Y535897D01*
X964053Y535795D01*
X964070Y535727D01*
X964138Y535625D01*
X964155Y535557D01*
X964257Y535370D01*
X964308Y535251D01*
X964325Y535183D01*
X964376Y535132D01*
X964410Y534996D01*
X964461Y534945D01*
X964478Y534843D01*
X964546Y534775D01*
X964563Y534622D01*
X964631Y534554D01*
X964648Y534418D01*
X964699Y534367D01*
X964716Y534299D01*
X964733Y534180D01*
X964784Y534129D01*
X964801Y534078D01*
X964784Y534027D01*
X964810Y533933D01*
X964852Y533890D01*
X964886Y533772D01*
X964903Y533635D01*
X964937Y533601D01*
X964954Y533533D01*
X964971Y533346D01*
X965022Y533227D01*
X965039Y533108D01*
X965056Y532921D01*
X965082Y532896D01*
X965124Y532938D01*
X965141Y533006D01*
X965124Y533840D01*
X965107Y534180D01*
X965073Y534265D01*
X965056Y534537D01*
X965039Y534605D01*
X965022Y534928D01*
X964988Y534962D01*
X964971Y535081D01*
X964954Y535370D01*
X964886Y535472D01*
X964869Y535778D01*
X964835Y535812D01*
X964801Y535897D01*
X964784Y536118D01*
X964733Y536169D01*
X964716Y536237D01*
X964699Y536408D01*
X964648Y536459D01*
X964631Y536527D01*
X964614Y536680D01*
X964580Y536714D01*
X964563Y536782D01*
X964538Y536892D01*
X964478Y537003D01*
X964461Y537139D01*
X964410Y537190D01*
X964393Y537258D01*
X964376Y537343D01*
X964325Y537394D01*
X964308Y537462D01*
X964291Y537547D01*
X964240Y537598D01*
X964223Y537751D01*
X964155Y537819D01*
X964129Y537913D01*
X964070Y538023D01*
X964053Y538074D01*
X963985Y538142D01*
X963968Y538244D01*
X963917Y538295D01*
X963900Y538397D01*
X963832Y538465D01*
X963815Y538567D01*
X963755Y538610D01*
X963738Y538712D01*
X963687Y538763D01*
X963662Y538771D01*
X963636Y538865D01*
X963594Y538907D01*
X963560Y538993D01*
X963509Y539044D01*
X963466Y539154D01*
X963424Y539197D01*
X963339Y539350D01*
X963253Y539435D01*
X963237Y539503D01*
X963151Y539622D01*
X963134Y539656D01*
X963101Y539690D01*
X963032Y539809D01*
X962981Y539860D01*
X962964Y539894D01*
X962930Y539928D01*
X962913Y539962D01*
X962862Y540047D01*
X962845Y540081D01*
X962820Y540124D01*
X962786Y540140D01*
X962760Y540166D01*
X962743Y540200D01*
X962675Y540268D01*
X962658Y540302D01*
X962607Y540353D01*
X962556Y540438D01*
X962480Y540532D01*
X962420Y540591D01*
X962403Y540625D01*
X962369Y540642D01*
X962352Y540676D01*
X962301Y540727D01*
X962284Y540761D01*
X962208Y540855D01*
X962148Y540948D01*
X961842Y541255D01*
X961833Y541280D01*
X961799Y541297D01*
X961757Y541357D01*
X961706Y541391D01*
X961689Y541425D01*
X961468Y541646D01*
X961459Y541671D01*
X961425Y541688D01*
X961383Y541731D01*
X961366Y541765D01*
X961306Y541824D01*
X961281Y541833D01*
X961264Y541867D01*
X961204Y541926D01*
X961170Y541943D01*
X961000Y542113D01*
X960975Y542122D01*
X960958Y542156D01*
X960932Y542181D01*
X960898Y542198D01*
X960856Y542258D01*
X960796Y542300D01*
X960592Y542505D01*
X960567Y542513D01*
X960549Y542547D01*
X960507Y542590D01*
X960473Y542606D01*
X960439Y542658D01*
X960354Y542709D01*
X960320Y542743D01*
X960235Y542794D01*
X960116Y542913D01*
X960082Y542930D01*
X959946Y543066D01*
X959912Y543083D01*
X959810Y543151D01*
X959776Y543168D01*
X959708Y543236D01*
X959674Y543253D01*
X959631Y543312D01*
X959538Y543372D01*
X959418Y543457D01*
X959385Y543491D01*
X959350Y543508D01*
X959299Y543559D01*
X959180Y543627D01*
X959095Y543678D01*
X959044Y543729D01*
X959010Y543746D01*
X958959Y543797D01*
X958874Y543831D01*
X958823Y543882D01*
X958789Y543899D01*
X958738Y543950D01*
X958628Y543993D01*
X958568Y544052D01*
X958534Y544069D01*
X958483Y544120D01*
X958415Y544137D01*
X958381Y544154D01*
X958330Y544205D01*
X958220Y544248D01*
X958177Y544290D01*
X958092Y544341D01*
X958007Y544375D01*
X957973Y544392D01*
X957905Y544460D01*
X957820Y544477D01*
X957769Y544528D01*
X957735Y544545D01*
X957692Y544588D01*
X957675Y544622D01*
X957624Y544673D01*
X957641Y544826D01*
X957667Y544851D01*
X957862Y544877D01*
X957939Y544919D01*
X958160Y544936D01*
X958347Y544919D01*
D02*
G37*
G36*
X953466Y534154D02*
X953517Y534103D01*
X953585Y534086D01*
X953840Y534069D01*
X953874Y534035D01*
X953993Y534001D01*
X954129Y533984D01*
X954180Y533933D01*
X954299Y533916D01*
X954342Y533890D01*
X954350Y533865D01*
X954418Y533848D01*
X954512Y533822D01*
X954537Y533797D01*
X954623Y533763D01*
X954844Y533644D01*
X954878Y533610D01*
X954946Y533593D01*
X954988Y533567D01*
X955005Y533533D01*
X955133Y533474D01*
X955167Y533440D01*
X955243Y533397D01*
X955260Y533363D01*
X955320Y533321D01*
X955371Y533270D01*
X955456Y533219D01*
X955549Y533142D01*
X955575Y533117D01*
X955609Y533100D01*
X955864Y532845D01*
X955890Y532836D01*
X955941Y532751D01*
X955992Y532700D01*
X956009Y532666D01*
X956043Y532632D01*
X956094Y532547D01*
X956145Y532496D01*
X956162Y532462D01*
X956196Y532428D01*
X956213Y532394D01*
X956323Y532232D01*
X956383Y532173D01*
X956400Y532054D01*
X956468Y532003D01*
X956485Y531901D01*
X956553Y531850D01*
X956570Y531731D01*
X956595Y531705D01*
X956621Y531697D01*
X956655Y531561D01*
X956706Y531510D01*
X956723Y531340D01*
X956791Y531238D01*
X956808Y531050D01*
X956876Y530948D01*
X956893Y530591D01*
X956944Y530472D01*
X956961Y529894D01*
X956944Y529571D01*
X956927Y529537D01*
X956876Y529418D01*
X956859Y529095D01*
X956808Y529044D01*
X956791Y528976D01*
X956774Y528771D01*
X956723Y528720D01*
X956706Y528652D01*
X956689Y528533D01*
X956655Y528499D01*
X956621Y528380D01*
X956604Y528329D01*
X956553Y528278D01*
X956536Y528159D01*
X956485Y528125D01*
X956468Y528057D01*
X956417Y527972D01*
X956332Y527819D01*
X956306Y527760D01*
X956298Y527751D01*
X956272Y527726D01*
X956238Y527709D01*
X956187Y527606D01*
X956119Y527504D01*
X956043Y527428D01*
X956026Y527394D01*
X955975Y527343D01*
X955958Y527309D01*
X955924Y527275D01*
X955907Y527241D01*
X955847Y527164D01*
X955813Y527147D01*
X955770Y527088D01*
X955626Y526943D01*
X955592Y526926D01*
X955507Y526841D01*
X955473Y526824D01*
X955379Y526748D01*
X955277Y526663D01*
X955235Y526620D01*
X955082Y526535D01*
X954988Y526459D01*
X954963Y526433D01*
X954852Y526407D01*
X954793Y526348D01*
X954699Y526323D01*
X954640Y526263D01*
X954521Y526246D01*
X954495Y526220D01*
X954478Y526186D01*
X954376Y526169D01*
X954317Y526144D01*
X954282Y526110D01*
X954214Y526093D01*
X954095Y526076D01*
X954044Y526025D01*
X953976Y526008D01*
X953806Y525991D01*
X953687Y525940D01*
X953568Y525923D01*
X953517Y525940D01*
X953339Y525897D01*
X953245Y525855D01*
X952310Y525872D01*
X952191Y525923D01*
X951884Y525940D01*
X951782Y526008D01*
X951561Y526025D01*
X951459Y526093D01*
X951323Y526110D01*
X951272Y526161D01*
X951204Y526178D01*
X951119Y526195D01*
X951051Y526263D01*
X950949Y526280D01*
X950898Y526331D01*
X950805Y526357D01*
X950745Y526416D01*
X950677Y526433D01*
X950626Y526484D01*
X950558Y526501D01*
X950524Y526518D01*
X950473Y526586D01*
X950303Y526688D01*
X950252Y526739D01*
X950218Y526756D01*
X950065Y526909D01*
X950031Y526926D01*
X949997Y526977D01*
X949963Y526994D01*
X949767Y527190D01*
X949750Y527224D01*
X949631Y527343D01*
X949614Y527377D01*
X949589Y527402D01*
X949555Y527419D01*
X949504Y527504D01*
X949478Y527513D01*
X949436Y527624D01*
X949401Y527640D01*
X949376Y527666D01*
X949359Y527700D01*
X949291Y527768D01*
X949274Y527870D01*
X949248Y527896D01*
X949223Y527904D01*
X949180Y528015D01*
X949155Y528040D01*
X949070Y528193D01*
X949036Y528278D01*
X949019Y528329D01*
X948968Y528448D01*
X948942Y528542D01*
X948900Y528584D01*
X948883Y528652D01*
X948866Y528789D01*
X948815Y528839D01*
X948798Y528907D01*
X948781Y529112D01*
X948747Y529146D01*
X948730Y529214D01*
X948713Y529384D01*
X948696Y529809D01*
X948679Y529860D01*
X948696Y530217D01*
X948713Y530268D01*
X948730Y530829D01*
X948798Y530931D01*
X948815Y531152D01*
X948883Y531254D01*
X948900Y531425D01*
X948968Y531493D01*
X948985Y531646D01*
X949019Y531663D01*
X949036Y531731D01*
X949078Y531841D01*
X949104Y531867D01*
X949146Y531977D01*
X949189Y532020D01*
X949223Y532105D01*
X949274Y532156D01*
X949291Y532224D01*
X949308Y532275D01*
X949359Y532309D01*
X949427Y532428D01*
X949512Y532547D01*
X949614Y532649D01*
X949631Y532683D01*
X949682Y532734D01*
X949699Y532768D01*
X949733Y532802D01*
X949750Y532836D01*
X950014Y533100D01*
X950048Y533117D01*
X950082Y533151D01*
X950116Y533168D01*
X950201Y533253D01*
X950235Y533270D01*
X950320Y533355D01*
X950354Y533372D01*
X950388Y533406D01*
X950473Y533440D01*
X950541Y533508D01*
X950575Y533525D01*
X950677Y533593D01*
X950745Y533610D01*
X950770Y533635D01*
X950788Y533669D01*
X950890Y533686D01*
X950949Y533746D01*
X951085Y533780D01*
X951119Y533831D01*
X951238Y533848D01*
X951264Y533874D01*
X951272Y533899D01*
X951340Y533916D01*
X951476Y533933D01*
X951527Y533984D01*
X951595Y534001D01*
X951748Y534018D01*
X951834Y534069D01*
X951902Y534086D01*
X952140Y534103D01*
X952259Y534154D01*
X952378Y534171D01*
X953466Y534154D01*
D02*
G37*
G36*
X957182Y575880D02*
X957225Y575872D01*
X957276Y575889D01*
X957446Y575872D01*
X957548Y575804D01*
X957701Y575787D01*
X957752Y575736D01*
X957845Y575710D01*
X957905Y575651D01*
X957973Y575634D01*
X958007Y575617D01*
X958032Y575591D01*
X958049Y575557D01*
X958228Y575430D01*
X958262Y575396D01*
X958296Y575379D01*
X958424Y575251D01*
X958441Y575217D01*
X958492Y575166D01*
X958526Y575081D01*
X958594Y575013D01*
X958713Y574792D01*
X958764Y574673D01*
X958781Y574588D01*
X958815Y574554D01*
X958832Y574486D01*
X958849Y574299D01*
X958900Y574214D01*
X958917Y574146D01*
X958900Y573737D01*
X958849Y573618D01*
X958832Y573550D01*
X958815Y573380D01*
X958764Y573329D01*
X958738Y573185D01*
X958696Y573125D01*
X958577Y572904D01*
X958526Y572853D01*
X958509Y572819D01*
X958424Y572734D01*
X958407Y572666D01*
X958381Y572641D01*
X958347Y572623D01*
X958245Y572521D01*
X958211Y572505D01*
X958126Y572419D01*
X958092Y572402D01*
X958058Y572368D01*
X958024Y572351D01*
X957973Y572300D01*
X957905Y572283D01*
X957837Y572215D01*
X957752Y572198D01*
X957701Y572147D01*
X957582Y572130D01*
X957531Y572113D01*
X957480Y572062D01*
X957361Y572045D01*
X957174Y572028D01*
X957123Y572011D01*
X956978Y571986D01*
X956884Y571977D01*
X956833Y571994D01*
X956748Y572028D01*
X956680Y572045D01*
X956408Y572062D01*
X956340Y572130D01*
X956213Y572139D01*
X956204Y572147D01*
X956170Y572164D01*
X956136Y572198D01*
X956068Y572215D01*
X956017Y572232D01*
X955949Y572300D01*
X955898Y572317D01*
X955864Y572351D01*
X955745Y572419D01*
X955396Y572768D01*
X955379Y572802D01*
X955345Y572836D01*
X955303Y572947D01*
X955269Y572964D01*
X955175Y573142D01*
X955158Y573210D01*
X955141Y573244D01*
X955107Y573278D01*
X955090Y573346D01*
X955073Y573482D01*
X955022Y573567D01*
X955005Y573635D01*
X955022Y574401D01*
X955056Y574435D01*
X955090Y574520D01*
X955107Y574656D01*
X955158Y574707D01*
X955175Y574826D01*
X955209Y574860D01*
X955226Y574894D01*
X955277Y574979D01*
X955311Y575013D01*
X955379Y575132D01*
X955456Y575226D01*
X955515Y575285D01*
X955524Y575311D01*
X955558Y575328D01*
X955592Y575379D01*
X955626Y575396D01*
X955711Y575481D01*
X955745Y575498D01*
X955796Y575549D01*
X955881Y575600D01*
X955915Y575634D01*
X956009Y575676D01*
X956017Y575702D01*
X956153Y575736D01*
X956204Y575787D01*
X956272Y575804D01*
X956391Y575821D01*
X956442Y575872D01*
X956561Y575889D01*
X957046Y575897D01*
X957182Y575880D01*
D02*
G37*
G36*
X964929Y575549D02*
X964971Y575506D01*
X964980Y575481D01*
X965048Y575464D01*
X965099Y575447D01*
X965150Y575396D01*
X965218Y575379D01*
X965269Y575328D01*
X965337Y575311D01*
X965362Y575285D01*
X965379Y575251D01*
X965405Y575226D01*
X965507Y575209D01*
X965541Y575157D01*
X965626Y575106D01*
X965660Y575072D01*
X965753Y575047D01*
X965796Y574988D01*
X965830Y574970D01*
X965932Y574902D01*
X966017Y574851D01*
X966051Y574817D01*
X966085Y574800D01*
X966153Y574732D01*
X966306Y574647D01*
X966374Y574579D01*
X966408Y574562D01*
X966434Y574537D01*
X966442Y574511D01*
X966476Y574494D01*
X966544Y574426D01*
X966629Y574375D01*
X966663Y574341D01*
X966697Y574324D01*
X966765Y574256D01*
X966799Y574239D01*
X966868Y574171D01*
X966901Y574154D01*
X966944Y574095D01*
X966995Y574061D01*
X967012Y574027D01*
X967037Y574001D01*
X967097Y573976D01*
X967114Y573942D01*
X967140Y573916D01*
X967174Y573899D01*
X967276Y573797D01*
X967310Y573780D01*
X967582Y573508D01*
X967616Y573491D01*
X967641Y573465D01*
X967658Y573431D01*
X967760Y573329D01*
X967769Y573304D01*
X967803Y573287D01*
X967845Y573227D01*
X967913Y573159D01*
X967930Y573125D01*
X968049Y573006D01*
X968067Y572972D01*
X968109Y572930D01*
X968134Y572921D01*
X968151Y572887D01*
X968373Y572666D01*
X968424Y572581D01*
X968585Y572368D01*
X968645Y572309D01*
X968662Y572275D01*
X968713Y572224D01*
X968764Y572139D01*
X968840Y572045D01*
X968866Y572020D01*
X968883Y571986D01*
X968951Y571918D01*
X968968Y571850D01*
X969036Y571782D01*
X969053Y571748D01*
X969104Y571697D01*
X969121Y571663D01*
X969206Y571544D01*
X969223Y571493D01*
X969291Y571424D01*
X969308Y571356D01*
X969359Y571306D01*
X969376Y571254D01*
X969461Y571135D01*
X969478Y571101D01*
X969512Y571067D01*
X969563Y570982D01*
X969597Y570948D01*
X969614Y570880D01*
X969631Y570846D01*
X969699Y570778D01*
X969716Y570710D01*
X969750Y570676D01*
X969818Y570557D01*
X969852Y570472D01*
X969869Y570438D01*
X969937Y570370D01*
X969954Y570268D01*
X969980Y570243D01*
X970005Y570234D01*
X970048Y570123D01*
X970107Y570013D01*
X970124Y569979D01*
X970243Y569758D01*
X970277Y569673D01*
X970345Y569520D01*
X970362Y569469D01*
X970430Y569401D01*
X970447Y569282D01*
X970498Y569248D01*
X970515Y569129D01*
X970584Y569061D01*
X970609Y568933D01*
X970652Y568890D01*
X970669Y568822D01*
X970685Y568720D01*
X970753Y568652D01*
X970770Y568516D01*
X970839Y568448D01*
X970856Y568295D01*
X970907Y568244D01*
X970924Y568176D01*
X970941Y568057D01*
X970992Y568006D01*
X971009Y567887D01*
X971026Y567819D01*
X971077Y567768D01*
X971094Y567598D01*
X971145Y567547D01*
X971162Y567479D01*
X971179Y567309D01*
X971230Y567258D01*
X971247Y567190D01*
X971264Y567020D01*
X971298Y566986D01*
X971332Y566867D01*
X971349Y566697D01*
X971400Y566578D01*
X971417Y566357D01*
X971485Y566255D01*
X971502Y565982D01*
X971570Y565829D01*
X971587Y565506D01*
X971621Y565472D01*
X971638Y565404D01*
X971655Y565285D01*
X971672Y564911D01*
X971706Y564877D01*
X971723Y564809D01*
X971740Y564180D01*
X971757Y563993D01*
X971774Y563941D01*
X971791Y563873D01*
X971808Y563550D01*
X971791Y562479D01*
X971774Y562428D01*
X971740Y562190D01*
X971723Y561561D01*
X971706Y561510D01*
X971672Y561424D01*
X971655Y561356D01*
X971638Y560948D01*
X971570Y560795D01*
X971553Y560472D01*
X971519Y560438D01*
X971485Y560353D01*
X971468Y560081D01*
X971434Y560047D01*
X971417Y559979D01*
X971400Y559758D01*
X971332Y559656D01*
X971315Y559401D01*
X971264Y559350D01*
X971247Y559282D01*
X971230Y559129D01*
X971179Y559078D01*
X971162Y559010D01*
X971145Y558840D01*
X971111Y558806D01*
X971077Y558720D01*
X971060Y558567D01*
X971009Y558482D01*
X970983Y558338D01*
X970924Y558278D01*
X970907Y558125D01*
X970881Y558083D01*
X970856Y558074D01*
X970839Y558006D01*
X970822Y557887D01*
X970753Y557819D01*
X970737Y557666D01*
X970685Y557615D01*
X970669Y557547D01*
X970652Y557462D01*
X970626Y557436D01*
X970601Y557428D01*
X970575Y557283D01*
X970532Y557258D01*
X970515Y557190D01*
X970498Y557088D01*
X970430Y557020D01*
X970413Y556918D01*
X970362Y556867D01*
X970328Y556731D01*
X970260Y556663D01*
X970243Y556561D01*
X970175Y556510D01*
X970158Y556390D01*
X970107Y556356D01*
X970090Y556288D01*
X970082Y556229D01*
X970048Y556212D01*
X970022Y556186D01*
X970005Y556084D01*
X969980Y556059D01*
X969954Y556050D01*
X969937Y555982D01*
X969920Y555931D01*
X969852Y555863D01*
X969835Y555795D01*
X969801Y555761D01*
X969759Y555651D01*
X969725Y555634D01*
X969699Y555608D01*
X969682Y555506D01*
X969657Y555481D01*
X969623Y555464D01*
X969563Y555336D01*
X969529Y555302D01*
X969512Y555268D01*
X969444Y555166D01*
X969427Y555098D01*
X969376Y555047D01*
X969359Y555013D01*
X969291Y554945D01*
X969274Y554860D01*
X969248Y554834D01*
X969223Y554826D01*
X969172Y554741D01*
X969138Y554707D01*
X969070Y554588D01*
X968993Y554494D01*
X968968Y554469D01*
X968934Y554384D01*
X968900Y554350D01*
X968849Y554265D01*
X968781Y554197D01*
X968764Y554163D01*
X968713Y554112D01*
X968696Y554061D01*
X968645Y554010D01*
X968602Y553933D01*
X968568Y553916D01*
X968526Y553857D01*
X968500Y553831D01*
X968475Y553823D01*
X968424Y553737D01*
X968390Y553703D01*
X968373Y553669D01*
X968339Y553635D01*
X968322Y553601D01*
X968245Y553508D01*
X968134Y553397D01*
X968118Y553363D01*
X968058Y553321D01*
X968015Y553261D01*
X967964Y553210D01*
X967947Y553176D01*
X967896Y553125D01*
X967879Y553091D01*
X967777Y552989D01*
X967760Y552955D01*
X967641Y552836D01*
X967624Y552802D01*
X967565Y552760D01*
X967522Y552700D01*
X967497Y552674D01*
X967463Y552658D01*
X967420Y552615D01*
X967403Y552581D01*
X967378Y552556D01*
X967344Y552538D01*
X967318Y552513D01*
X967301Y552479D01*
X967276Y552453D01*
X967242Y552436D01*
X967021Y552215D01*
X966995Y552207D01*
X966978Y552173D01*
X966918Y552130D01*
X966850Y552062D01*
X966817Y552045D01*
X966765Y551994D01*
X966680Y551943D01*
X966646Y551892D01*
X966612Y551875D01*
X966442Y551705D01*
X966417Y551697D01*
X966400Y551663D01*
X966374Y551637D01*
X966255Y551569D01*
X966162Y551493D01*
X966102Y551450D01*
X966000Y551348D01*
X965966Y551331D01*
X965873Y551255D01*
X965788Y551220D01*
X965771Y551186D01*
X965728Y551144D01*
X965694Y551127D01*
X965643Y551076D01*
X965575Y551059D01*
X965507Y550991D01*
X965422Y550940D01*
X965388Y550906D01*
X965354Y550889D01*
X965320Y550855D01*
X965286Y550838D01*
X965201Y550787D01*
X965184Y550753D01*
X965099Y550719D01*
X965065Y550685D01*
X964997Y550668D01*
X964912Y550583D01*
X964725Y550481D01*
X964674Y550430D01*
X964563Y550387D01*
X964520Y550345D01*
X964299Y550226D01*
X964282Y550191D01*
X964214Y550175D01*
X964163Y550157D01*
X964112Y550106D01*
X964002Y550081D01*
X963942Y550022D01*
X963874Y550004D01*
X963840Y549988D01*
X963815Y549962D01*
X963806Y549936D01*
X963738Y549919D01*
X963687Y549902D01*
X963653Y549868D01*
X963585Y549851D01*
X963500Y549800D01*
X963466Y549766D01*
X963364Y549749D01*
X963313Y549698D01*
X963245Y549681D01*
X963160Y549630D01*
X963092Y549596D01*
X963058Y549613D01*
X962964Y549537D01*
X962879Y549520D01*
X962820Y549494D01*
X962769Y549443D01*
X962633Y549426D01*
X962607Y549401D01*
X962599Y549375D01*
X962531Y549358D01*
X962446Y549341D01*
X962395Y549290D01*
X962242Y549273D01*
X962140Y549205D01*
X962004Y549171D01*
X961969Y549137D01*
X961901Y549120D01*
X961782Y549103D01*
X961731Y549052D01*
X961663Y549035D01*
X961527Y549018D01*
X961476Y548967D01*
X961408Y548950D01*
X961255Y548933D01*
X961204Y548882D01*
X960966Y548848D01*
X960915Y548797D01*
X960796Y548780D01*
X960660Y548763D01*
X960609Y548712D01*
X960481Y548703D01*
X960422Y548712D01*
X960371Y548695D01*
X960218Y548627D01*
X959963Y548610D01*
X959912Y548559D01*
X959793Y548542D01*
X959554Y548525D01*
X959435Y548474D01*
X959317Y548457D01*
X959010Y548440D01*
X958891Y548389D01*
X958466Y548372D01*
X958279Y548355D01*
X958194Y548321D01*
X958075Y548304D01*
X957633D01*
X957080Y548295D01*
X956680Y548304D01*
X956629Y548287D01*
X956561Y548304D01*
X955728Y548321D01*
X955643Y548355D01*
X955575Y548372D01*
X955014Y548389D01*
X954861Y548457D01*
X954469Y548474D01*
X954436Y548508D01*
X954317Y548542D01*
X954010Y548559D01*
X953959Y548610D01*
X953891Y548627D01*
X953653Y548644D01*
X953534Y548695D01*
X953466Y548712D01*
X953356Y548703D01*
X953296Y548729D01*
X953262Y548763D01*
X953194Y548780D01*
X953007Y548797D01*
X952956Y548848D01*
X952888Y548865D01*
X952701Y548882D01*
X952650Y548933D01*
X952582Y548950D01*
X952446Y548967D01*
X952395Y549018D01*
X952327Y549035D01*
X952191Y549052D01*
X952140Y549103D01*
X952072Y549120D01*
X951952Y549137D01*
X951902Y549188D01*
X951748Y549205D01*
X951697Y549256D01*
X951629Y549273D01*
X951527Y549290D01*
X951459Y549358D01*
X951323Y549375D01*
X951272Y549426D01*
X951204Y549443D01*
X951102Y549460D01*
X951060Y549520D01*
X950932Y549545D01*
X950898Y549596D01*
X950830Y549613D01*
X950745Y549630D01*
X950711Y549664D01*
X950643Y549681D01*
X950558Y549732D01*
X950473Y549766D01*
X950405Y549783D01*
X950354Y549834D01*
X950286Y549851D01*
X950252Y549868D01*
X950201Y549919D01*
X950065Y549953D01*
X950014Y550004D01*
X949963Y550022D01*
X949895Y550090D01*
X949793Y550106D01*
X949767Y550132D01*
X949750Y550166D01*
X949665Y550183D01*
X949631Y550200D01*
X949614Y550234D01*
X949589Y550260D01*
X949487Y550277D01*
X949419Y550345D01*
X949333Y550396D01*
X949282Y550413D01*
X949223Y550438D01*
X949206Y550472D01*
X949180Y550498D01*
X949095Y550515D01*
X949044Y550566D01*
X948959Y550617D01*
X948925Y550651D01*
X948832Y550676D01*
X948798Y550710D01*
X948789Y550736D01*
X948551Y550872D01*
X948517Y550923D01*
X948483Y550940D01*
X948364Y551008D01*
X948330Y551042D01*
X948245Y551093D01*
X948211Y551144D01*
X948092Y551212D01*
X947998Y551255D01*
X947981Y551289D01*
X947956Y551314D01*
X947922Y551331D01*
X947854Y551399D01*
X947820Y551416D01*
X947769Y551467D01*
X947684Y551518D01*
X947650Y551552D01*
X947616Y551569D01*
X947531Y551654D01*
X947505Y551663D01*
X947488Y551697D01*
X947463Y551722D01*
X947429Y551739D01*
X947361Y551807D01*
X947276Y551858D01*
X947182Y551935D01*
X947140Y551977D01*
X947106Y551994D01*
X946799Y552300D01*
X946774Y552309D01*
X946757Y552343D01*
X946714Y552385D01*
X946680Y552402D01*
X946646Y552453D01*
X946612Y552470D01*
X946502Y552581D01*
X946493Y552606D01*
X946459Y552624D01*
X946281Y552802D01*
X946264Y552836D01*
X946221Y552879D01*
X946196Y552887D01*
X946179Y552921D01*
X946068Y553032D01*
X946034Y553049D01*
X946000Y553100D01*
X945966Y553117D01*
X945924Y553176D01*
X945898Y553202D01*
X945864Y553219D01*
X945779Y553321D01*
X945737Y553380D01*
X945685Y553431D01*
X945669Y553465D01*
X945617Y553516D01*
X945566Y553601D01*
X945532Y553635D01*
X945515Y553669D01*
X945490Y553695D01*
X945464Y553703D01*
X945447Y553737D01*
X945405Y553780D01*
X945379Y553789D01*
X945328Y553873D01*
X945294Y553907D01*
X945243Y553993D01*
X945158Y554112D01*
X945107Y554163D01*
X945090Y554197D01*
X945039Y554248D01*
X944988Y554333D01*
X944929Y554426D01*
X944895Y554443D01*
X944852Y554503D01*
X944818Y554537D01*
X944750Y554656D01*
X944665Y554775D01*
X944520Y554987D01*
X944478Y555030D01*
X944452Y555124D01*
X944393Y555183D01*
X944342Y555268D01*
X944282Y555396D01*
X944248Y555413D01*
X944197Y555515D01*
X944155Y555557D01*
X944121Y555642D01*
X944070Y555693D01*
X944053Y555795D01*
X944027Y555821D01*
X944002Y555829D01*
X943951Y555965D01*
X943917Y555999D01*
X943781Y556254D01*
X943696Y556407D01*
X943662Y556493D01*
X943492Y556850D01*
X943407Y557037D01*
X943390Y557105D01*
X943339Y557139D01*
X943322Y557207D01*
X943305Y557292D01*
X943254Y557343D01*
X943237Y557462D01*
X943169Y557530D01*
X943151Y557666D01*
X943126Y557691D01*
X943100Y557700D01*
X943083Y557768D01*
X943067Y557887D01*
X943032Y557921D01*
X942998Y558057D01*
X942981Y558108D01*
X942947Y558142D01*
X942930Y558210D01*
X942913Y558329D01*
X942888Y558355D01*
X942862Y558363D01*
X942845Y558431D01*
X942828Y558584D01*
X942777Y558635D01*
X942760Y558703D01*
X942743Y558856D01*
X942709Y558890D01*
X942675Y559010D01*
X942658Y559163D01*
X942607Y559214D01*
X942590Y559333D01*
X942573Y559469D01*
X942539Y559503D01*
X942522Y559571D01*
X942488Y559809D01*
X942437Y559894D01*
X942420Y560166D01*
X942369Y560251D01*
X942352Y560319D01*
X942335Y560625D01*
X942301Y560659D01*
X942267Y560795D01*
X942250Y561169D01*
X942199Y561288D01*
X942182Y561867D01*
X942157Y561977D01*
X942131Y562071D01*
X942114Y562139D01*
X942131Y564435D01*
X942165Y564520D01*
X942182Y564588D01*
X942199Y565149D01*
X942267Y565302D01*
X942284Y565693D01*
X942335Y565812D01*
X942352Y565880D01*
X942369Y566169D01*
X942420Y566220D01*
X942437Y566289D01*
X942454Y566527D01*
X942505Y566578D01*
X942522Y566799D01*
X942539Y566884D01*
X942590Y566935D01*
X942607Y567156D01*
X942658Y567207D01*
X942675Y567275D01*
X942692Y567445D01*
X942760Y567513D01*
X942777Y567700D01*
X942828Y567751D01*
X942854Y567913D01*
X942913Y568023D01*
X942930Y568091D01*
X942947Y568193D01*
X942998Y568227D01*
X943015Y568397D01*
X943083Y568465D01*
X943100Y568601D01*
X943151Y568635D01*
X943169Y568703D01*
X943186Y568806D01*
X943237Y568856D01*
X943270Y568993D01*
X943339Y569061D01*
X943347Y569188D01*
X943381Y569205D01*
X943407Y569231D01*
X943424Y569350D01*
X943492Y569418D01*
X943509Y569520D01*
X943543Y569554D01*
X943577Y569639D01*
X943628Y569724D01*
X943866Y570183D01*
X943951Y570336D01*
X943985Y570370D01*
X944002Y570472D01*
X944061Y570515D01*
X944078Y570600D01*
X944121Y570659D01*
X944197Y570753D01*
X944223Y570778D01*
X944248Y570872D01*
X944308Y570931D01*
X944410Y571118D01*
X944461Y571169D01*
X944503Y571280D01*
X944546Y571322D01*
X944572Y571382D01*
X944606Y571399D01*
X944631Y571424D01*
X944674Y571535D01*
X944716Y571578D01*
X944733Y571612D01*
X944784Y571646D01*
X944827Y571756D01*
X944886Y571816D01*
X944903Y571850D01*
X944937Y571884D01*
X944954Y571918D01*
X945039Y572037D01*
X945056Y572071D01*
X945133Y572164D01*
X945226Y572258D01*
X945311Y572411D01*
X945362Y572462D01*
X945379Y572496D01*
X945464Y572581D01*
X945481Y572615D01*
X945532Y572649D01*
X945549Y572683D01*
X945634Y572802D01*
X945652Y572836D01*
X945702Y572887D01*
X945720Y572921D01*
X945941Y573142D01*
X945958Y573176D01*
X945983Y573202D01*
X946017Y573219D01*
X946060Y573278D01*
X946128Y573346D01*
X946136Y573372D01*
X946170Y573389D01*
X946213Y573448D01*
X946349Y573584D01*
X946366Y573618D01*
X946561Y573814D01*
X946587Y573822D01*
X946604Y573856D01*
X946663Y573916D01*
X946697Y573933D01*
X946782Y574018D01*
X946817Y574035D01*
X946885Y574103D01*
X946910Y574112D01*
X946927Y574146D01*
X946953Y574171D01*
X946986Y574188D01*
X947208Y574409D01*
X947242Y574426D01*
X947310Y574494D01*
X947395Y574545D01*
X947488Y574605D01*
X947505Y574639D01*
X947531Y574664D01*
X947565Y574681D01*
X947650Y574766D01*
X947684Y574783D01*
X947896Y574928D01*
X947956Y574988D01*
X947990Y575004D01*
X948024Y575038D01*
X948109Y575072D01*
X948177Y575140D01*
X948211Y575157D01*
X948279Y575226D01*
X948364Y575243D01*
X948432Y575311D01*
X948466Y575328D01*
X948500Y575362D01*
X948585Y575396D01*
X948619Y575413D01*
X948687Y575481D01*
X948764Y575489D01*
X948798Y575404D01*
X948781Y575200D01*
X948730Y575149D01*
X948662Y575030D01*
X948628Y574996D01*
X948611Y574962D01*
X948500Y574851D01*
X948466Y574834D01*
X948407Y574775D01*
X948390Y574741D01*
X948364Y574715D01*
X948339Y574707D01*
X948322Y574673D01*
X948135Y574486D01*
X948126Y574460D01*
X948092Y574443D01*
X948049Y574384D01*
X947981Y574316D01*
X947964Y574282D01*
X947709Y574027D01*
X947692Y573993D01*
X947658Y573959D01*
X947641Y573924D01*
X947522Y573771D01*
X947488Y573737D01*
X947471Y573703D01*
X947420Y573669D01*
X947403Y573635D01*
X947318Y573516D01*
X947293Y573457D01*
X947267Y573448D01*
X947250Y573414D01*
X947165Y573329D01*
X947148Y573295D01*
X947097Y573244D01*
X947080Y573176D01*
X947063Y573142D01*
X946995Y573074D01*
X946978Y573040D01*
X946927Y572989D01*
X946893Y572904D01*
X946859Y572870D01*
X946842Y572836D01*
X946799Y572777D01*
X946774Y572768D01*
X946757Y572700D01*
X946740Y572649D01*
X946672Y572581D01*
X946655Y572530D01*
X946604Y572479D01*
X946587Y572411D01*
X946544Y572368D01*
X946519Y572360D01*
X946502Y572241D01*
X946476Y572215D01*
X946442Y572198D01*
X946400Y572088D01*
X946349Y572037D01*
X946332Y571969D01*
X946298Y571935D01*
X946264Y571850D01*
X946247Y571816D01*
X946179Y571714D01*
X946162Y571646D01*
X946111Y571595D01*
X946085Y571501D01*
X946026Y571390D01*
X946009Y571322D01*
X945958Y571272D01*
X945924Y571135D01*
X945856Y571033D01*
X945839Y570931D01*
X945779Y570889D01*
X945762Y570736D01*
X945728Y570719D01*
X945702Y570693D01*
X945685Y570557D01*
X945617Y570489D01*
X945601Y570319D01*
X945532Y570251D01*
X945515Y570098D01*
X945464Y570047D01*
X945447Y569979D01*
X945430Y569860D01*
X945396Y569826D01*
X945362Y569707D01*
X945345Y569571D01*
X945294Y569520D01*
X945277Y569418D01*
X945294Y569384D01*
X945252Y569290D01*
X945226Y569282D01*
X945209Y569214D01*
X945192Y569010D01*
X945124Y568941D01*
X945107Y568669D01*
X945056Y568618D01*
X945039Y568499D01*
X945022Y568295D01*
X944988Y568261D01*
X944954Y568176D01*
X944937Y567836D01*
X944903Y567802D01*
X944886Y567734D01*
X944869Y567615D01*
X944878Y567556D01*
X944861Y567334D01*
X944801Y567190D01*
X944784Y566595D01*
X944767Y566544D01*
X944733Y566407D01*
X944716Y566289D01*
X944733Y564554D01*
X944767Y564469D01*
X944784Y564350D01*
X944801Y563925D01*
X944818Y563755D01*
X944852Y563720D01*
X944869Y563652D01*
X944886Y563278D01*
X944954Y563125D01*
X944971Y562836D01*
X945039Y562734D01*
X945056Y562479D01*
X945090Y562445D01*
X945124Y562360D01*
X945141Y562156D01*
X945192Y562105D01*
X945209Y562037D01*
X945226Y561850D01*
X945277Y561799D01*
X945294Y561714D01*
X945277Y561663D01*
X945328Y561578D01*
X945362Y561544D01*
X945379Y561356D01*
X945447Y561288D01*
X945464Y561118D01*
X945515Y561067D01*
X945532Y560999D01*
X945549Y560897D01*
X945617Y560829D01*
X945634Y560693D01*
X945685Y560642D01*
X945702Y560523D01*
X945720Y560489D01*
X945770Y560438D01*
X945788Y560302D01*
X945847Y560277D01*
X945864Y560141D01*
X945924Y560081D01*
X945949Y559970D01*
X945992Y559911D01*
X946026Y559826D01*
X946043Y559758D01*
X946111Y559690D01*
X946128Y559605D01*
X946315Y559248D01*
X946349Y559214D01*
X946366Y559129D01*
X946417Y559078D01*
X946451Y558993D01*
X946502Y558959D01*
X946519Y558840D01*
X946587Y558772D01*
X946689Y558584D01*
X946740Y558533D01*
X946757Y558465D01*
X946774Y558431D01*
X946842Y558363D01*
X946944Y558176D01*
X946978Y558142D01*
X947046Y558023D01*
X947131Y557904D01*
X947165Y557870D01*
X947182Y557802D01*
X947233Y557751D01*
X947250Y557717D01*
X947276Y557675D01*
X947310Y557657D01*
X947352Y557598D01*
X947386Y557564D01*
X947454Y557445D01*
X947488Y557411D01*
X947505Y557377D01*
X947573Y557309D01*
X947590Y557275D01*
X947692Y557173D01*
X947709Y557139D01*
X947777Y557020D01*
X947981Y556816D01*
X947998Y556782D01*
X948049Y556748D01*
X948067Y556714D01*
X948151Y556629D01*
X948168Y556595D01*
X948236Y556527D01*
X948254Y556493D01*
X948322Y556425D01*
X948330Y556399D01*
X948364Y556382D01*
X948390Y556356D01*
X948407Y556322D01*
X948704Y556025D01*
X948738Y556008D01*
X948857Y555889D01*
X948891Y555872D01*
X948993Y555770D01*
X949027Y555753D01*
X949163Y555617D01*
X949197Y555600D01*
X949401Y555396D01*
X949520Y555328D01*
X949614Y555251D01*
X949708Y555158D01*
X949793Y555106D01*
X949827Y555072D01*
X949878Y555056D01*
X950022Y554945D01*
X950031Y554919D01*
X950116Y554868D01*
X950150Y554834D01*
X950235Y554800D01*
X950286Y554749D01*
X950371Y554698D01*
X950490Y554630D01*
X950541Y554579D01*
X950609Y554562D01*
X950643Y554528D01*
X950753Y554469D01*
X950770Y554435D01*
X950881Y554392D01*
X950932Y554341D01*
X951000Y554324D01*
X951034Y554307D01*
X951136Y554239D01*
X951187Y554222D01*
X951221Y554188D01*
X951306Y554154D01*
X951357Y554103D01*
X951468Y554061D01*
X951493Y554035D01*
X951629Y553984D01*
X951663Y553950D01*
X951731Y553933D01*
X951816Y553899D01*
X951867Y553848D01*
X951987Y553831D01*
X952012Y553805D01*
X952020Y553780D01*
X952174Y553746D01*
X952242Y553678D01*
X952361Y553661D01*
X952429Y553593D01*
X952582Y553576D01*
X952633Y553525D01*
X952752Y553508D01*
X952803Y553457D01*
X952871Y553440D01*
X952990Y553423D01*
X953058Y553355D01*
X953262Y553338D01*
X953304Y553278D01*
X953458Y553261D01*
X953517Y553219D01*
X953602Y553185D01*
X953772Y553168D01*
X953823Y553117D01*
X953993Y553100D01*
X954061Y553083D01*
X954095Y553049D01*
X954163Y553032D01*
X954368Y553015D01*
X954401Y552981D01*
X954486Y552947D01*
X954759Y552930D01*
X954861Y552862D01*
X955218Y552845D01*
X955252Y552811D01*
X955371Y552777D01*
X955864Y552760D01*
X955898Y552726D01*
X955966Y552709D01*
X956187Y552692D01*
X958109Y552709D01*
X958194Y552743D01*
X958330Y552777D01*
X958738Y552794D01*
X958857Y552845D01*
X958925Y552862D01*
X959180Y552879D01*
X959334Y552947D01*
X959572Y552964D01*
X959606Y552998D01*
X959742Y553032D01*
X959895Y553049D01*
X959929Y553083D01*
X960048Y553117D01*
X960099Y553100D01*
X960184Y553151D01*
X960269Y553185D01*
X960422Y553202D01*
X960473Y553253D01*
X960541Y553270D01*
X960660Y553287D01*
X960711Y553338D01*
X960779Y553355D01*
X960898Y553372D01*
X960949Y553423D01*
X961017Y553440D01*
X961119Y553457D01*
X961153Y553508D01*
X961196Y553516D01*
X961255Y553508D01*
X961374Y553593D01*
X961493Y553610D01*
X961544Y553661D01*
X961680Y553695D01*
X961748Y553763D01*
X961850Y553780D01*
X961876Y553805D01*
X961884Y553831D01*
X962004Y553848D01*
X962029Y553873D01*
X962046Y553907D01*
X962174Y553933D01*
X962242Y554001D01*
X962344Y554018D01*
X962378Y554069D01*
X962514Y554103D01*
X962548Y554154D01*
X962616Y554171D01*
X962667Y554188D01*
X962735Y554256D01*
X962828Y554282D01*
X962871Y554324D01*
X962905Y554341D01*
X962939Y554375D01*
X963024Y554409D01*
X963083Y554435D01*
X963101Y554469D01*
X963126Y554494D01*
X963194Y554511D01*
X963296Y554579D01*
X963330Y554596D01*
X963364Y554647D01*
X963475Y554673D01*
X963551Y554749D01*
X963585Y554766D01*
X963619Y554800D01*
X963730Y554843D01*
X963772Y554902D01*
X963857Y554953D01*
X963891Y554987D01*
X963959Y555005D01*
X964027Y555072D01*
X964061Y555090D01*
X964129Y555158D01*
X964163Y555174D01*
X964265Y555243D01*
X964299Y555260D01*
X964419Y555379D01*
X964452Y555396D01*
X964487Y555430D01*
X964520Y555447D01*
X964555Y555481D01*
X964589Y555498D01*
X964640Y555549D01*
X964725Y555600D01*
X964929Y555804D01*
X964963Y555821D01*
X965099Y555957D01*
X965133Y555974D01*
X965201Y556042D01*
X965235Y556059D01*
X965558Y556382D01*
X965592Y556399D01*
X965617Y556425D01*
X965635Y556459D01*
X965771Y556595D01*
X965788Y556629D01*
X965890Y556731D01*
X965907Y556765D01*
X966026Y556884D01*
X966043Y556918D01*
X966196Y557071D01*
X966213Y557105D01*
X966264Y557139D01*
X966315Y557224D01*
X966349Y557258D01*
X966366Y557292D01*
X966442Y557385D01*
X966476Y557436D01*
X966502Y557445D01*
X966519Y557479D01*
X966587Y557547D01*
X966621Y557632D01*
X966655Y557666D01*
X966672Y557700D01*
X966714Y557760D01*
X966748Y557777D01*
X966808Y557870D01*
X966876Y557989D01*
X966927Y558040D01*
X966944Y558074D01*
X966978Y558108D01*
X967012Y558193D01*
X967029Y558227D01*
X967097Y558295D01*
X967114Y558329D01*
X967148Y558363D01*
X967165Y558431D01*
X967182Y558465D01*
X967208Y558491D01*
X967233Y558499D01*
X967284Y558635D01*
X967318Y558669D01*
X967361Y558746D01*
X967395Y558763D01*
X967412Y558865D01*
X967463Y558916D01*
X967488Y558924D01*
X967505Y559027D01*
X967573Y559095D01*
X967590Y559180D01*
X967641Y559231D01*
X967658Y559299D01*
X967709Y559384D01*
X967743Y559469D01*
X967760Y559520D01*
X967828Y559588D01*
X967845Y559707D01*
X967896Y559741D01*
X967913Y559809D01*
X967922Y559868D01*
X967956Y559885D01*
X967981Y559911D01*
X967998Y560030D01*
X968067Y560098D01*
X968083Y560251D01*
X968134Y560302D01*
X968169Y560438D01*
X968219Y560489D01*
X968237Y560642D01*
X968305Y560744D01*
X968322Y560812D01*
X968339Y560914D01*
X968390Y560965D01*
X968407Y561135D01*
X968475Y561203D01*
X968492Y561390D01*
X968517Y561416D01*
X968543Y561424D01*
X968560Y561493D01*
X968577Y561663D01*
X968611Y561697D01*
X968628Y561765D01*
X968662Y561952D01*
X968713Y562037D01*
X968730Y562207D01*
X968747Y562292D01*
X968798Y562411D01*
X968815Y562632D01*
X968883Y562734D01*
X968900Y563040D01*
X968951Y563125D01*
X968968Y563244D01*
X968985Y563533D01*
X969036Y563584D01*
X969053Y563805D01*
X969070Y564112D01*
X969121Y564231D01*
X969129Y564766D01*
X969121Y564792D01*
X969138Y564843D01*
X969180Y565158D01*
X969197Y565243D01*
X969206Y566339D01*
X969189Y566391D01*
X969146Y566603D01*
X969129Y566926D01*
X969121Y567207D01*
X969138Y567224D01*
X969121Y567275D01*
X969104Y567377D01*
X969053Y567496D01*
X969036Y567938D01*
X969002Y567972D01*
X968968Y568091D01*
X968951Y568363D01*
X968883Y568465D01*
X968866Y568738D01*
X968815Y568788D01*
X968798Y568856D01*
X968781Y569061D01*
X968730Y569112D01*
X968696Y569350D01*
X968645Y569401D01*
X968628Y569588D01*
X968560Y569690D01*
X968543Y569843D01*
X968492Y569894D01*
X968475Y569962D01*
X968458Y570081D01*
X968398Y570123D01*
X968381Y570277D01*
X968339Y570336D01*
X968322Y570387D01*
X968305Y570455D01*
X968287Y570489D01*
X968254Y570523D01*
X968237Y570591D01*
X968211Y570702D01*
X968151Y570761D01*
X968134Y570880D01*
X968067Y570948D01*
X968049Y571067D01*
X967998Y571101D01*
X967981Y571169D01*
X967964Y571220D01*
X967913Y571272D01*
X967896Y571374D01*
X967828Y571442D01*
X967811Y571544D01*
X967743Y571612D01*
X967726Y571714D01*
X967658Y571765D01*
X967633Y571875D01*
X967573Y571935D01*
X967556Y572020D01*
X967505Y572071D01*
X967454Y572156D01*
X967420Y572190D01*
X967403Y572275D01*
X967335Y572343D01*
X967318Y572411D01*
X967284Y572445D01*
X967267Y572479D01*
X967165Y572649D01*
X967148Y572683D01*
X967080Y572751D01*
X967063Y572785D01*
X967029Y572819D01*
X966986Y572930D01*
X966910Y573006D01*
X966893Y573040D01*
X966842Y573091D01*
X966825Y573159D01*
X966757Y573227D01*
X966740Y573261D01*
X966672Y573329D01*
X966655Y573363D01*
X966621Y573397D01*
X966553Y573516D01*
X966519Y573550D01*
X966502Y573584D01*
X966434Y573652D01*
X966417Y573686D01*
X966366Y573737D01*
X966315Y573822D01*
X966281Y573856D01*
X966255Y573916D01*
X966221Y573933D01*
X966179Y573976D01*
X966162Y574010D01*
X966128Y574027D01*
X966111Y574061D01*
X966043Y574129D01*
X965975Y574248D01*
X965924Y574299D01*
X965907Y574333D01*
X965617Y574622D01*
X965600Y574656D01*
X965447Y574809D01*
X965430Y574843D01*
X965388Y574902D01*
X965354Y574919D01*
X965311Y574962D01*
X965260Y575047D01*
X965209Y575098D01*
X965192Y575132D01*
X965082Y575243D01*
X965048Y575260D01*
X965005Y575319D01*
X964818Y575506D01*
X964827Y575566D01*
X964929Y575549D01*
D02*
G37*
G36*
X956400Y581272D02*
X956442Y581280D01*
X956493Y581263D01*
X956570Y581306D01*
X956578Y581331D01*
X956646Y581348D01*
X957429Y581331D01*
X957463Y581297D01*
X957531Y581280D01*
X957701Y581263D01*
X957769Y581195D01*
X957905Y581178D01*
X957947Y581118D01*
X958058Y581076D01*
X958092Y581042D01*
X958126Y581025D01*
X958220Y580948D01*
X958279Y580889D01*
X958313Y580872D01*
X958407Y580795D01*
X958483Y580702D01*
X958509Y580693D01*
X958526Y580659D01*
X958594Y580591D01*
X958611Y580557D01*
X958679Y580489D01*
X958696Y580421D01*
X958730Y580387D01*
X958832Y580166D01*
X958857Y580072D01*
X958917Y579962D01*
X958934Y579741D01*
X958985Y579622D01*
X959002Y579554D01*
X958993Y579256D01*
X959002Y579180D01*
X958917Y579061D01*
X958900Y578805D01*
X958849Y578755D01*
X958832Y578686D01*
X958815Y578601D01*
X958764Y578550D01*
X958747Y578482D01*
X958730Y578448D01*
X958679Y578397D01*
X958611Y578278D01*
X958526Y578159D01*
X958424Y578057D01*
X958407Y578023D01*
X958347Y577981D01*
X958245Y577879D01*
X958211Y577862D01*
X958092Y577794D01*
X957973Y577709D01*
X957862Y577666D01*
X957803Y577606D01*
X957633Y577590D01*
X957599Y577556D01*
X957565Y577538D01*
X957514Y577522D01*
X957225Y577504D01*
X957191Y577470D01*
X957114Y577462D01*
X956876Y577479D01*
X956740Y577513D01*
X956502Y577530D01*
X956442Y577556D01*
X956408Y577590D01*
X956340Y577606D01*
X956255Y577624D01*
X956204Y577674D01*
X956136Y577692D01*
X956085Y577709D01*
X956017Y577777D01*
X955932Y577794D01*
X955881Y577845D01*
X955847Y577862D01*
X955694Y578015D01*
X955660Y578032D01*
X955618Y578091D01*
X955481Y578227D01*
X955464Y578261D01*
X955430Y578295D01*
X955371Y578406D01*
X955345Y578414D01*
X955277Y578533D01*
X955260Y578584D01*
X955218Y578695D01*
X955175Y578737D01*
X955158Y578907D01*
X955090Y579010D01*
X955107Y579894D01*
X955158Y579945D01*
X955175Y580064D01*
X955192Y580132D01*
X955243Y580183D01*
X955260Y580285D01*
X955294Y580319D01*
X955362Y580438D01*
X955413Y580489D01*
X955447Y580574D01*
X955498Y580625D01*
X955541Y580702D01*
X955575Y580719D01*
X955618Y580778D01*
X955762Y580923D01*
X955847Y580957D01*
X955898Y581008D01*
X955983Y581059D01*
X956034Y581110D01*
X956136Y581127D01*
X956162Y581152D01*
X956170Y581178D01*
X956306Y581212D01*
X956357Y581263D01*
X956391D01*
X956400Y581272D01*
D02*
G37*
G36*
X955158Y584622D02*
X955107Y584673D01*
X955090Y584741D01*
X955073Y584996D01*
X955039Y585081D01*
X955022Y585200D01*
X955039Y585387D01*
X955073Y585472D01*
X955090Y585540D01*
X955107Y585778D01*
X955175Y585880D01*
X955192Y585999D01*
X955226Y586033D01*
X955243Y586101D01*
X955260Y586135D01*
X955328Y586203D01*
X955345Y586306D01*
X955371Y586331D01*
X955396Y586340D01*
X955413Y586374D01*
X955515Y586476D01*
X955532Y586510D01*
X955567Y586527D01*
X955583Y586561D01*
X955660Y586654D01*
X955745Y586705D01*
X955864Y586824D01*
X955898Y586841D01*
X955949Y586892D01*
X956051Y586909D01*
X956094Y586969D01*
X956196Y586986D01*
X956255Y587028D01*
X956289Y587062D01*
X956476Y587079D01*
X956544Y587147D01*
X957463Y587130D01*
X957497Y587096D01*
X957582Y587062D01*
X957718Y587045D01*
X957769Y586994D01*
X957922Y586960D01*
X957990Y586892D01*
X958143Y586807D01*
X958245Y586705D01*
X958279Y586688D01*
X958424Y586544D01*
X958441Y586510D01*
X958500Y586467D01*
X958534Y586416D01*
X958568Y586399D01*
X958653Y586263D01*
X958687Y586178D01*
X958747Y586118D01*
X958772Y586008D01*
X958815Y585948D01*
X958832Y585897D01*
X958849Y585761D01*
X958900Y585710D01*
X958917Y585438D01*
X958900Y584775D01*
X958866Y584741D01*
X958832Y584622D01*
X958815Y584503D01*
X958764Y584452D01*
X958747Y584350D01*
X958679Y584282D01*
X958662Y584214D01*
X958543Y584061D01*
X958466Y583967D01*
X958143Y583644D01*
X958109Y583627D01*
X958058Y583576D01*
X957990Y583559D01*
X957956Y583542D01*
X957888Y583474D01*
X957769Y583457D01*
X957718Y583406D01*
X957599Y583389D01*
X957531Y583372D01*
X957497Y583338D01*
X957429Y583321D01*
X956493Y583338D01*
X956442Y583389D01*
X956255Y583406D01*
X956230Y583431D01*
X956213Y583465D01*
X956187Y583491D01*
X956085Y583508D01*
X956017Y583576D01*
X955915Y583593D01*
X955864Y583644D01*
X955830Y583661D01*
X955805Y583686D01*
X955796Y583712D01*
X955711Y583763D01*
X955618Y583840D01*
X955515Y583942D01*
X955464Y584027D01*
X955430Y584061D01*
X955413Y584095D01*
X955345Y584163D01*
X955303Y584273D01*
X955269Y584290D01*
X955243Y584316D01*
X955226Y584435D01*
X955175Y584469D01*
X955158Y584605D01*
Y584622D01*
D02*
G37*
%LPC*%
G36*
X956884Y500226D02*
X956833Y500209D01*
X956340Y500191D01*
X956306Y500157D01*
X956187Y500140D01*
X956034Y500124D01*
X955983Y500140D01*
X955890Y500115D01*
X955796Y500072D01*
X955728Y500056D01*
X955507Y500038D01*
X955456Y499988D01*
X955337Y499970D01*
X955235Y499953D01*
X955184Y499902D01*
X955005Y499877D01*
X954895Y499817D01*
X954767Y499792D01*
X954708Y499749D01*
X954623Y499715D01*
X954521Y499698D01*
X954469Y499647D01*
X954350Y499630D01*
X954325Y499605D01*
X954317Y499579D01*
X954180Y499545D01*
X954129Y499494D01*
X954061Y499477D01*
X954027Y499460D01*
X953993Y499426D01*
X953925Y499409D01*
X953840Y499358D01*
X953806Y499324D01*
X953713Y499299D01*
X953653Y499256D01*
X953534Y499188D01*
X953441Y499112D01*
X953330Y499069D01*
X953296Y499052D01*
X953262Y499001D01*
X953228Y498984D01*
X953185Y498959D01*
X953177Y498933D01*
X953058Y498865D01*
X952939Y498780D01*
X952888Y498729D01*
X952854Y498712D01*
X952803Y498661D01*
X952769Y498644D01*
X952735Y498610D01*
X952650Y498559D01*
X952429Y498338D01*
X952395Y498321D01*
X952369Y498295D01*
X952361Y498270D01*
X952327Y498253D01*
X951978Y497904D01*
X951961Y497870D01*
X951706Y497615D01*
X951638Y497496D01*
X951604Y497462D01*
X951587Y497428D01*
X951502Y497343D01*
X951485Y497309D01*
X951434Y497258D01*
X951374Y497130D01*
X951349Y497122D01*
X951332Y497088D01*
X951306Y497045D01*
X951272Y497028D01*
X951247Y497003D01*
X951221Y496892D01*
X951162Y496833D01*
X951145Y496799D01*
X951111Y496765D01*
X951068Y496654D01*
X951009Y496595D01*
X950992Y496527D01*
X950975Y496493D01*
X950924Y496442D01*
X950898Y496331D01*
X950839Y496272D01*
X950813Y496178D01*
X950770Y496135D01*
X950737Y495999D01*
X950686Y495948D01*
X950669Y495880D01*
X950618Y495795D01*
X950601Y495744D01*
X950575Y495634D01*
X950532Y495574D01*
X950515Y495523D01*
X950498Y495404D01*
X950430Y495336D01*
X950413Y495149D01*
X950362Y495098D01*
X950328Y494860D01*
X950294Y494826D01*
X950260Y494707D01*
X950243Y494520D01*
X950192Y494401D01*
X950175Y494333D01*
X950158Y494010D01*
X950107Y493890D01*
X950090Y492666D01*
X950107Y492615D01*
X950124Y492105D01*
X950175Y491986D01*
X950184Y491756D01*
X950175Y491680D01*
X950192Y491629D01*
X950209Y491595D01*
X950260Y491476D01*
X950277Y491255D01*
X950345Y491152D01*
X950362Y490965D01*
X950430Y490863D01*
X950447Y490693D01*
X950498Y490642D01*
X950524Y490481D01*
X950583Y490421D01*
X950601Y490268D01*
X950669Y490200D01*
X950686Y490081D01*
X950737Y490030D01*
X950770Y489894D01*
X950822Y489843D01*
X950864Y489732D01*
X950890Y489707D01*
X950924Y489622D01*
X950941Y489588D01*
X950975Y489554D01*
X951017Y489443D01*
X951077Y489384D01*
X951102Y489290D01*
X951162Y489231D01*
X951179Y489163D01*
X951213Y489129D01*
X951272Y489018D01*
X951306Y489001D01*
X951357Y488899D01*
X951383Y488873D01*
X951434Y488789D01*
X951485Y488737D01*
X951536Y488652D01*
X951621Y488533D01*
X951655Y488499D01*
X951672Y488465D01*
X951825Y488312D01*
X951842Y488278D01*
X951893Y488227D01*
X951910Y488193D01*
X951995Y488108D01*
X952012Y488074D01*
X952114Y487972D01*
X952131Y487938D01*
X952361Y487709D01*
X952395Y487691D01*
X952463Y487624D01*
X952497Y487606D01*
X952548Y487556D01*
X952582Y487538D01*
X952650Y487470D01*
X952684Y487453D01*
X952820Y487317D01*
X952854Y487300D01*
X952922Y487232D01*
X953007Y487181D01*
X953126Y487096D01*
X953160Y487062D01*
X953194Y487045D01*
X953245Y486994D01*
X953356Y486952D01*
X953415Y486892D01*
X953449Y486875D01*
X953483Y486841D01*
X953594Y486799D01*
X953653Y486739D01*
X953721Y486722D01*
X953772Y486671D01*
X953840Y486654D01*
X953925Y486603D01*
X954078Y486518D01*
X954163Y486484D01*
X954197Y486467D01*
X954231Y486433D01*
X954342Y486408D01*
X954444Y486340D01*
X954572Y486314D01*
X954597Y486288D01*
X954606Y486263D01*
X954674Y486246D01*
X954776Y486229D01*
X954827Y486178D01*
X955014Y486144D01*
X955048Y486110D01*
X955116Y486093D01*
X955269Y486076D01*
X955320Y486025D01*
X955388Y486008D01*
X955575Y485991D01*
X955677Y485923D01*
X955983Y485906D01*
X956017Y485872D01*
X956136Y485838D01*
X956629Y485821D01*
X956680Y485804D01*
X956799Y485770D01*
X957020Y485753D01*
X957684Y485770D01*
X957769Y485804D01*
X957973Y485838D01*
X958398Y485855D01*
X958551Y485923D01*
X958823Y485940D01*
X958857Y485974D01*
X958976Y486008D01*
X959163Y486025D01*
X959197Y486076D01*
X959402Y486093D01*
X959503Y486161D01*
X959657Y486178D01*
X959725Y486246D01*
X959878Y486263D01*
X959946Y486331D01*
X960065Y486348D01*
X960116Y486399D01*
X960252Y486433D01*
X960320Y486501D01*
X960422Y486518D01*
X960473Y486569D01*
X960541Y486586D01*
X960643Y486654D01*
X960711Y486671D01*
X960762Y486722D01*
X960873Y486765D01*
X960915Y486807D01*
X961026Y486850D01*
X961085Y486909D01*
X961119Y486926D01*
X961170Y486977D01*
X961238Y486994D01*
X961272Y487028D01*
X961306Y487045D01*
X961400Y487122D01*
X961425Y487147D01*
X961544Y487215D01*
X961638Y487292D01*
X961680Y487334D01*
X961706Y487343D01*
X961723Y487377D01*
X961817Y487436D01*
X961868Y487488D01*
X961901Y487504D01*
X961995Y487581D01*
X962037Y487624D01*
X962072Y487640D01*
X962369Y487938D01*
X962378Y487947D01*
X962607Y488176D01*
X962624Y488210D01*
X962692Y488278D01*
X962709Y488312D01*
X962743Y488346D01*
X962760Y488380D01*
X962811Y488431D01*
X962828Y488465D01*
X962862Y488499D01*
X962879Y488533D01*
X962998Y488652D01*
X963066Y488771D01*
X963143Y488865D01*
X963169Y488891D01*
X963220Y488976D01*
X963288Y489095D01*
X963322Y489129D01*
X963373Y489214D01*
X963441Y489333D01*
X963492Y489384D01*
X963509Y489486D01*
X963534Y489511D01*
X963568Y489528D01*
X963585Y489630D01*
X963602Y489664D01*
X963636Y489681D01*
X963662Y489758D01*
X963679Y489792D01*
X963713Y489826D01*
X963747Y489945D01*
X963764Y489979D01*
X963798Y489996D01*
X963832Y490081D01*
X963849Y490149D01*
X963900Y490200D01*
X963925Y490362D01*
X963968Y490404D01*
X963985Y490472D01*
X964002Y490557D01*
X964053Y490608D01*
X964070Y490727D01*
X964087Y490795D01*
X964138Y490846D01*
X964155Y490965D01*
X964172Y491101D01*
X964223Y491152D01*
X964240Y491391D01*
X964308Y491493D01*
X964325Y491816D01*
X964393Y491969D01*
X964410Y492649D01*
X964427Y492700D01*
X964444Y492921D01*
X964427Y493312D01*
X964410Y493363D01*
X964393Y493738D01*
X964376Y494078D01*
X964325Y494197D01*
X964308Y494265D01*
X964291Y494537D01*
X964257Y494571D01*
X964223Y494707D01*
X964231Y494783D01*
X964214Y494851D01*
X964189Y494877D01*
X964172Y494911D01*
X964155Y494962D01*
X964138Y495149D01*
X964070Y495217D01*
X964053Y495387D01*
X963985Y495455D01*
X963968Y495625D01*
X963900Y495676D01*
X963883Y495812D01*
X963849Y495846D01*
X963815Y495965D01*
X963798Y496016D01*
X963747Y496067D01*
X963721Y496178D01*
X963662Y496238D01*
X963645Y496340D01*
X963577Y496408D01*
X963551Y496501D01*
X963509Y496544D01*
X963441Y496663D01*
X963407Y496748D01*
X963390Y496782D01*
X963339Y496833D01*
X963296Y496943D01*
X963237Y497003D01*
X963220Y497037D01*
X963169Y497088D01*
X963151Y497156D01*
X963083Y497224D01*
X963066Y497258D01*
X963015Y497309D01*
X962964Y497394D01*
X962930Y497428D01*
X962879Y497513D01*
X962803Y497607D01*
X962743Y497666D01*
X962735Y497691D01*
X962701Y497709D01*
X962675Y497734D01*
X962658Y497768D01*
X962624Y497802D01*
X962607Y497836D01*
X962488Y497955D01*
X962471Y497989D01*
X962157Y498304D01*
X962123Y498321D01*
X961987Y498457D01*
X961952Y498474D01*
X961919Y498508D01*
X961884Y498525D01*
X961868Y498559D01*
X961833Y498576D01*
X961731Y498678D01*
X961706Y498686D01*
X961689Y498720D01*
X961663Y498746D01*
X961578Y498797D01*
X961459Y498882D01*
X961366Y498959D01*
X961340Y498984D01*
X961272Y499001D01*
X961238Y499018D01*
X961187Y499069D01*
X961153Y499086D01*
X961085Y499154D01*
X960992Y499180D01*
X960949Y499222D01*
X960864Y499273D01*
X960745Y499341D01*
X960694Y499392D01*
X960592Y499409D01*
X960524Y499477D01*
X960422Y499494D01*
X960371Y499545D01*
X960303Y499562D01*
X960243Y499588D01*
X960226Y499622D01*
X960158Y499639D01*
X960073Y499656D01*
X960039Y499673D01*
X960031Y499698D01*
X959946Y499732D01*
X959844Y499749D01*
X959793Y499800D01*
X959657Y499817D01*
X959554Y499885D01*
X959402Y499902D01*
X959350Y499953D01*
X959282Y499970D01*
X959129Y499988D01*
X958976Y500056D01*
X958772Y500072D01*
X958687Y500124D01*
X958568Y500140D01*
X958517Y500124D01*
X958466Y500140D01*
X958279Y500157D01*
X958160Y500209D01*
X956884Y500226D01*
D02*
G37*
%LPD*%
G36*
X957123Y496773D02*
X957284Y496782D01*
X957837Y496756D01*
X957888Y496705D01*
X958160Y496688D01*
X958211Y496637D01*
X958279Y496620D01*
X958398Y496603D01*
X958449Y496552D01*
X958568Y496535D01*
X958653Y496484D01*
X958738Y496450D01*
X958806Y496433D01*
X958857Y496382D01*
X958942Y496348D01*
X958976Y496314D01*
X959061Y496263D01*
X959129Y496195D01*
X959214Y496178D01*
X959265Y496127D01*
X959299Y496110D01*
X959367Y496042D01*
X959402Y496025D01*
X959435Y495974D01*
X959470Y495957D01*
X959495Y495931D01*
X959512Y495897D01*
X959572Y495855D01*
X959606Y495804D01*
X959640Y495787D01*
X959665Y495761D01*
X959682Y495727D01*
X959776Y495634D01*
X959810Y495617D01*
X959844Y495549D01*
X959878Y495532D01*
X959963Y495396D01*
X960022Y495302D01*
X960056Y495268D01*
X960192Y495030D01*
X960226Y494945D01*
X960243Y494894D01*
X960294Y494843D01*
X960311Y494724D01*
X960328Y494656D01*
X960379Y494605D01*
X960396Y494486D01*
X960413Y494435D01*
X960464Y494384D01*
X960481Y494112D01*
X960515Y494078D01*
X960549Y493959D01*
X960532Y492768D01*
X960481Y492717D01*
X960464Y492598D01*
X960447Y492411D01*
X960396Y492377D01*
X960379Y492309D01*
X960396Y492241D01*
X960354Y492181D01*
X960328Y492173D01*
X960311Y492105D01*
X960294Y492020D01*
X960243Y491969D01*
X960209Y491833D01*
X960184Y491807D01*
X960158Y491799D01*
X960039Y491578D01*
X959988Y491527D01*
X959954Y491441D01*
X959920Y491407D01*
X959903Y491373D01*
X959750Y491220D01*
X959733Y491186D01*
X959691Y491144D01*
X959657Y491127D01*
X959614Y491067D01*
X959453Y490906D01*
X959418Y490889D01*
X959393Y490863D01*
X959385Y490838D01*
X959350Y490821D01*
X959282Y490753D01*
X959197Y490702D01*
X959078Y490634D01*
X959044Y490583D01*
X958976Y490566D01*
X958925Y490515D01*
X958840Y490481D01*
X958789Y490430D01*
X958653Y490396D01*
X958602Y490345D01*
X958483Y490328D01*
X958432Y490311D01*
X958381Y490260D01*
X958194Y490243D01*
X958143Y490192D01*
X958075Y490174D01*
X957854Y490158D01*
X957820Y490124D01*
X957590Y490098D01*
X957020Y490090D01*
X956970Y490106D01*
X956833Y490124D01*
X956714Y490174D01*
X956442Y490192D01*
X956391Y490243D01*
X956323Y490260D01*
X956187Y490277D01*
X956136Y490328D01*
X955992Y490353D01*
X955881Y490413D01*
X955813Y490430D01*
X955694Y490515D01*
X955507Y490617D01*
X955473Y490651D01*
X955405Y490668D01*
X955371Y490685D01*
X955320Y490736D01*
X955260Y490761D01*
X955243Y490795D01*
X955201Y490838D01*
X955167Y490855D01*
X955116Y490906D01*
X955082Y490923D01*
X955031Y490974D01*
X954997Y490991D01*
X954937Y491033D01*
X954920Y491067D01*
X954750Y491237D01*
X954733Y491271D01*
X954699Y491305D01*
X954682Y491339D01*
X954606Y491433D01*
X954546Y491493D01*
X954529Y491527D01*
X954444Y491646D01*
X954393Y491731D01*
X954359Y491748D01*
X954333Y491858D01*
X954274Y491918D01*
X954257Y492003D01*
X954189Y492105D01*
X954172Y492207D01*
X954121Y492258D01*
X954104Y492326D01*
X954087Y492445D01*
X954053Y492479D01*
X954019Y492615D01*
X954002Y492751D01*
X953968Y492785D01*
X953951Y492853D01*
Y493874D01*
Y493890D01*
X953968Y494044D01*
X954019Y494129D01*
X954036Y494367D01*
X954104Y494435D01*
X954121Y494605D01*
X954172Y494656D01*
X954206Y494792D01*
X954265Y494834D01*
X954282Y494970D01*
X954317Y494987D01*
X954342Y495013D01*
X954385Y495123D01*
X954427Y495166D01*
X954444Y495200D01*
X954512Y495302D01*
X954529Y495353D01*
X954580Y495404D01*
X954597Y495438D01*
X954640Y495481D01*
X954674Y495498D01*
X954733Y495591D01*
X954767Y495625D01*
X954818Y495710D01*
X954929Y495821D01*
X954963Y495838D01*
X955065Y495940D01*
X955099Y495957D01*
X955133Y495991D01*
X955167Y496008D01*
X955201Y496042D01*
X955235Y496059D01*
X955277Y496118D01*
X955337Y496161D01*
X955371Y496195D01*
X955481Y496238D01*
X955541Y496297D01*
X955626Y496348D01*
X955711Y496382D01*
X955745Y496399D01*
X955779Y496433D01*
X955847Y496450D01*
X955881Y496467D01*
X955949Y496535D01*
X956085Y496552D01*
X956119Y496586D01*
X956238Y496620D01*
X956357Y496637D01*
X956408Y496688D01*
X956578Y496705D01*
X956731Y496722D01*
X956851Y496773D01*
X957072Y496790D01*
X957123Y496773D01*
D02*
G37*
D14*
X911648Y767065D02*
Y761066D01*
Y767065D02*
X907935D01*
X911648Y764208D02*
X909363D01*
X907249Y767065D02*
Y761066D01*
X903821D01*
X899451Y767065D02*
X903164D01*
Y761066D01*
X899451D01*
X903164Y764208D02*
X900879D01*
X896451Y767065D02*
Y761066D01*
X898451Y767065D02*
X894452D01*
X889453Y765636D02*
X889738Y766208D01*
X890310Y766779D01*
X890881Y767065D01*
X892024D01*
X892595Y766779D01*
X893166Y766208D01*
X893452Y765636D01*
X893738Y764779D01*
Y763351D01*
X893452Y762494D01*
X893166Y761923D01*
X892595Y761351D01*
X892024Y761066D01*
X890881D01*
X890310Y761351D01*
X889738Y761923D01*
X889453Y762494D01*
X887768Y767065D02*
Y761066D01*
X883768Y767065D02*
Y761066D01*
X887768Y764208D02*
X883768D01*
X878398Y767065D02*
X882111D01*
Y761066D01*
X878398D01*
X882111Y764208D02*
X879826D01*
X877398Y767065D02*
Y761066D01*
Y767065D02*
X874827D01*
X873970Y766779D01*
X873685Y766493D01*
X873399Y765922D01*
Y765351D01*
X873685Y764779D01*
X873970Y764494D01*
X874827Y764208D01*
X877398D01*
X875399D02*
X873399Y761066D01*
X867343Y765065D02*
X865629Y761066D01*
X863915Y765065D02*
X865629Y761066D01*
X862659Y765636D02*
Y765922D01*
X862373Y766493D01*
X862087Y766779D01*
X861516Y767065D01*
X860373D01*
X859802Y766779D01*
X859516Y766493D01*
X859231Y765922D01*
Y765351D01*
X859516Y764779D01*
X860088Y763922D01*
X862944Y761066D01*
X858945D01*
X857317Y761637D02*
X857603Y761351D01*
X857317Y761066D01*
X857031Y761351D01*
X857317Y761637D01*
X854003Y767065D02*
X854860Y766779D01*
X855431Y765922D01*
X855717Y764494D01*
Y763637D01*
X855431Y762209D01*
X854860Y761351D01*
X854003Y761066D01*
X853432D01*
X852575Y761351D01*
X852004Y762209D01*
X851718Y763637D01*
Y764494D01*
X852004Y765922D01*
X852575Y766779D01*
X853432Y767065D01*
X854003D01*
X907649Y756323D02*
X908220Y756895D01*
X909077Y757181D01*
X910220D01*
X911077Y756895D01*
X911648Y756323D01*
Y755752D01*
X911362Y755181D01*
X911077Y754895D01*
X910505Y754610D01*
X908792Y754038D01*
X908220Y753753D01*
X907935Y753467D01*
X907649Y752896D01*
Y752039D01*
X908220Y751467D01*
X909077Y751182D01*
X910220D01*
X911077Y751467D01*
X911648Y752039D01*
X906306Y757181D02*
Y751182D01*
Y757181D02*
X903736D01*
X902878Y756895D01*
X902593Y756609D01*
X902307Y756038D01*
Y755467D01*
X902593Y754895D01*
X902878Y754610D01*
X903736Y754324D01*
X906306D01*
X904307D02*
X902307Y751182D01*
X896394D02*
X898679Y757181D01*
X900965Y751182D01*
X900108Y753181D02*
X897251D01*
X894995Y757181D02*
Y751182D01*
Y757181D02*
X892995D01*
X892138Y756895D01*
X891567Y756323D01*
X891281Y755752D01*
X890995Y754895D01*
Y753467D01*
X891281Y752610D01*
X891567Y752039D01*
X892138Y751467D01*
X892995Y751182D01*
X894995D01*
X884939Y757181D02*
Y751182D01*
Y757181D02*
X881226D01*
X884939Y754324D02*
X882654D01*
X880540Y757181D02*
Y751182D01*
X878712Y757181D02*
X878427Y756895D01*
X878141Y757181D01*
X878427Y757466D01*
X878712Y757181D01*
X878427Y755181D02*
Y751182D01*
X873656Y755181D02*
Y750610D01*
X873942Y749754D01*
X874228Y749468D01*
X874799Y749182D01*
X875656D01*
X876227Y749468D01*
X873656Y754324D02*
X874228Y754895D01*
X874799Y755181D01*
X875656D01*
X876227Y754895D01*
X876798Y754324D01*
X877084Y753467D01*
Y752896D01*
X876798Y752039D01*
X876227Y751467D01*
X875656Y751182D01*
X874799D01*
X874228Y751467D01*
X873656Y752039D01*
X872057Y757181D02*
Y751182D01*
Y754038D02*
X871200Y754895D01*
X870628Y755181D01*
X869771D01*
X869200Y754895D01*
X868914Y754038D01*
Y751182D01*
X866486Y757181D02*
Y752324D01*
X866201Y751467D01*
X865629Y751182D01*
X865058D01*
X867343Y755181D02*
X865344D01*
X855203Y755752D02*
X855489Y756323D01*
X856060Y756895D01*
X856631Y757181D01*
X857774D01*
X858345Y756895D01*
X858916Y756323D01*
X859202Y755752D01*
X859488Y754895D01*
Y753467D01*
X859202Y752610D01*
X858916Y752039D01*
X858345Y751467D01*
X857774Y751182D01*
X856631D01*
X856060Y751467D01*
X855489Y752039D01*
X855203Y752610D01*
X852089Y755181D02*
X852661Y754895D01*
X853232Y754324D01*
X853518Y753467D01*
Y752896D01*
X853232Y752039D01*
X852661Y751467D01*
X852089Y751182D01*
X851233D01*
X850661Y751467D01*
X850090Y752039D01*
X849804Y752896D01*
Y753467D01*
X850090Y754324D01*
X850661Y754895D01*
X851233Y755181D01*
X852089D01*
X848490D02*
Y751182D01*
Y754038D02*
X847633Y754895D01*
X847062Y755181D01*
X846205D01*
X845634Y754895D01*
X845348Y754038D01*
Y751182D01*
Y754038D02*
X844491Y754895D01*
X843920Y755181D01*
X843063D01*
X842492Y754895D01*
X842206Y754038D01*
Y751182D01*
X840320Y755181D02*
Y749182D01*
Y754324D02*
X839749Y754895D01*
X839178Y755181D01*
X838321D01*
X837750Y754895D01*
X837178Y754324D01*
X836893Y753467D01*
Y752896D01*
X837178Y752039D01*
X837750Y751467D01*
X838321Y751182D01*
X839178D01*
X839749Y751467D01*
X840320Y752039D01*
X835607Y755181D02*
Y752324D01*
X835322Y751467D01*
X834750Y751182D01*
X833893D01*
X833322Y751467D01*
X832465Y752324D01*
Y755181D02*
Y751182D01*
X830037Y757181D02*
Y752324D01*
X829751Y751467D01*
X829180Y751182D01*
X828609D01*
X830894Y755181D02*
X828894D01*
X827752Y753467D02*
X824324D01*
Y754038D01*
X824610Y754610D01*
X824895Y754895D01*
X825467Y755181D01*
X826324D01*
X826895Y754895D01*
X827466Y754324D01*
X827752Y753467D01*
Y752896D01*
X827466Y752039D01*
X826895Y751467D01*
X826324Y751182D01*
X825467D01*
X824895Y751467D01*
X824324Y752039D01*
X823038Y755181D02*
Y751182D01*
Y753467D02*
X822753Y754324D01*
X822182Y754895D01*
X821610Y755181D01*
X820753D01*
X911648Y735698D02*
Y729700D01*
Y735698D02*
X909649D01*
X908792Y735413D01*
X908220Y734841D01*
X907935Y734270D01*
X907649Y733413D01*
Y731985D01*
X907935Y731128D01*
X908220Y730557D01*
X908792Y729985D01*
X909649Y729700D01*
X911648D01*
X902878Y733699D02*
Y729700D01*
Y732842D02*
X903450Y733413D01*
X904021Y733699D01*
X904878D01*
X905449Y733413D01*
X906021Y732842D01*
X906306Y731985D01*
Y731414D01*
X906021Y730557D01*
X905449Y729985D01*
X904878Y729700D01*
X904021D01*
X903450Y729985D01*
X902878Y730557D01*
X901279Y733699D02*
Y729700D01*
Y732556D02*
X900422Y733413D01*
X899851Y733699D01*
X898994D01*
X898422Y733413D01*
X898137Y732556D01*
Y729700D01*
X895709Y735698D02*
Y730842D01*
X895423Y729985D01*
X894852Y729700D01*
X894280D01*
X896566Y733699D02*
X894566D01*
X893423Y731985D02*
X889996D01*
Y732556D01*
X890281Y733127D01*
X890567Y733413D01*
X891138Y733699D01*
X891995D01*
X892566Y733413D01*
X893138Y732842D01*
X893423Y731985D01*
Y731414D01*
X893138Y730557D01*
X892566Y729985D01*
X891995Y729700D01*
X891138D01*
X890567Y729985D01*
X889996Y730557D01*
X879998Y734841D02*
X880569Y735413D01*
X881426Y735698D01*
X882569D01*
X883426Y735413D01*
X883997Y734841D01*
Y734270D01*
X883711Y733699D01*
X883426Y733413D01*
X882854Y733127D01*
X881140Y732556D01*
X880569Y732270D01*
X880283Y731985D01*
X879998Y731414D01*
Y730557D01*
X880569Y729985D01*
X881426Y729700D01*
X882569D01*
X883426Y729985D01*
X883997Y730557D01*
X878084Y735698D02*
X877798Y735413D01*
X877512Y735698D01*
X877798Y735984D01*
X878084Y735698D01*
X877798Y733699D02*
Y729700D01*
X876456Y733699D02*
X874742Y729700D01*
X873028Y733699D02*
X874742Y729700D01*
X870628Y733699D02*
X871200Y733413D01*
X871771Y732842D01*
X872057Y731985D01*
Y731414D01*
X871771Y730557D01*
X871200Y729985D01*
X870628Y729700D01*
X869771D01*
X869200Y729985D01*
X868629Y730557D01*
X868343Y731414D01*
Y731985D01*
X868629Y732842D01*
X869200Y733413D01*
X869771Y733699D01*
X870628D01*
X862316Y732270D02*
X857174D01*
X847833Y735698D02*
Y731128D01*
X848119Y730271D01*
X848405Y729985D01*
X848976Y729700D01*
X849547D01*
X850118Y729985D01*
X850404Y730271D01*
X850690Y731128D01*
Y731699D01*
X846291Y733699D02*
Y730842D01*
X846005Y729985D01*
X845434Y729700D01*
X844577D01*
X844005Y729985D01*
X843149Y730842D01*
Y733699D02*
Y729700D01*
X841577Y735698D02*
Y729700D01*
X840035Y733699D02*
X838321Y729700D01*
X836607Y733699D02*
X838321Y729700D01*
X838892Y728557D01*
X839464Y727986D01*
X840035Y727700D01*
X840320D01*
X830608Y734270D02*
Y734556D01*
X830323Y735127D01*
X830037Y735413D01*
X829466Y735698D01*
X828323D01*
X827752Y735413D01*
X827466Y735127D01*
X827180Y734556D01*
Y733984D01*
X827466Y733413D01*
X828037Y732556D01*
X830894Y729700D01*
X826895D01*
X823838Y735698D02*
X824695Y735413D01*
X825267Y734556D01*
X825552Y733127D01*
Y732270D01*
X825267Y730842D01*
X824695Y729985D01*
X823838Y729700D01*
X823267D01*
X822410Y729985D01*
X821839Y730842D01*
X821553Y732270D01*
Y733127D01*
X821839Y734556D01*
X822410Y735413D01*
X823267Y735698D01*
X823838D01*
X819925Y734270D02*
Y734556D01*
X819639Y735127D01*
X819354Y735413D01*
X818782Y735698D01*
X817640D01*
X817068Y735413D01*
X816783Y735127D01*
X816497Y734556D01*
Y733984D01*
X816783Y733413D01*
X817354Y732556D01*
X820210Y729700D01*
X816211D01*
X814583Y734270D02*
Y734556D01*
X814297Y735127D01*
X814012Y735413D01*
X813441Y735698D01*
X812298D01*
X811727Y735413D01*
X811441Y735127D01*
X811155Y734556D01*
Y733984D01*
X811441Y733413D01*
X812012Y732556D01*
X814869Y729700D01*
X810870D01*
M02*
