G04*
G04 #@! TF.GenerationSoftware,Altium Limited,Altium Designer,22.5.1 (42)*
G04*
G04 Layer_Physical_Order=3*
G04 Layer_Color=128*
%FSLAX25Y25*%
%MOIN*%
G70*
G04*
G04 #@! TF.SameCoordinates,F96336C5-8BC0-4A74-BE74-20B5A895D5FC*
G04*
G04*
G04 #@! TF.FilePolarity,Negative*
G04*
G01*
G75*
%ADD14C,0.01000*%
%ADD132C,0.04000*%
%ADD133C,0.05524*%
%ADD135C,0.04816*%
G04:AMPARAMS|DCode=136|XSize=71.779mil|YSize=71.779mil|CornerRadius=0mil|HoleSize=0mil|Usage=FLASHONLY|Rotation=0.000|XOffset=0mil|YOffset=0mil|HoleType=Round|Shape=Relief|Width=4mil|Gap=4mil|Entries=4|*
%AMTHD136*
7,0,0,0.07178,0.06378,0.00400,45*
%
%ADD136THD136*%
%ADD143C,0.07808*%
%ADD144C,0.02000*%
%ADD145C,0.01587*%
%ADD146O,0.03162X0.07099*%
%ADD147O,0.03162X0.09068*%
%ADD148O,0.03162X0.05918*%
%ADD149C,0.04147*%
%ADD150C,0.16548*%
G36*
X891400Y669894D02*
X813900D01*
Y697700D01*
X891400D01*
Y669894D01*
D02*
G37*
G36*
X894400Y488200D02*
X874266D01*
Y510700D01*
X894400D01*
Y488200D01*
D02*
G37*
D14*
X961400Y453198D02*
X962400Y454198D01*
X964399D01*
X965399Y453198D01*
Y452199D01*
X964399Y451199D01*
X963399D01*
X964399D01*
X965399Y450199D01*
Y449200D01*
X964399Y448200D01*
X962400D01*
X961400Y449200D01*
D132*
X891400Y669894D02*
Y697700D01*
X813900Y669894D02*
X891400D01*
X813900D02*
Y697700D01*
X891400D01*
X968900Y442700D02*
Y800200D01*
X746400D02*
X968900D01*
X746400Y442700D02*
Y800200D01*
Y442700D02*
X968900D01*
D133*
X925258Y695495D02*
D03*
Y669905D02*
D03*
X907542Y695495D02*
D03*
Y669905D02*
D03*
X955436Y583078D02*
D03*
X929846D02*
D03*
X955436Y600794D02*
D03*
X929846D02*
D03*
D135*
X790900Y570900D02*
D03*
Y580900D02*
D03*
X780900D02*
D03*
Y570900D02*
D03*
Y590900D02*
D03*
X790900D02*
D03*
X780900Y600900D02*
D03*
X790900D02*
D03*
X780900Y610900D02*
D03*
X790900D02*
D03*
X780900Y620900D02*
D03*
Y530900D02*
D03*
X790900D02*
D03*
X780900Y540900D02*
D03*
X790900D02*
D03*
X780900Y550900D02*
D03*
X790900D02*
D03*
Y560900D02*
D03*
X780900D02*
D03*
X905900Y709200D02*
D03*
X895900D02*
D03*
X885900D02*
D03*
X875900D02*
D03*
X865900D02*
D03*
D136*
X790900Y620900D02*
D03*
D143*
X823900Y775200D02*
D03*
X848900D02*
D03*
D144*
X805900Y654200D02*
D03*
X796909Y645191D02*
D03*
X894400Y666200D02*
D03*
X871400Y490200D02*
D03*
X872900Y485700D02*
D03*
X877900D02*
D03*
X882400D02*
D03*
X886900D02*
D03*
X891400D02*
D03*
X896400D02*
D03*
Y490200D02*
D03*
Y494700D02*
D03*
Y499200D02*
D03*
Y503700D02*
D03*
Y508200D02*
D03*
Y513200D02*
D03*
X891400D02*
D03*
X886900D02*
D03*
X882400D02*
D03*
X877900D02*
D03*
X821400Y587700D02*
D03*
X775900Y636700D02*
D03*
X964400Y724700D02*
D03*
X943489Y719958D02*
D03*
X758900Y635200D02*
D03*
X818900Y710200D02*
D03*
X773900Y719070D02*
D03*
X913986Y749806D02*
D03*
X937900Y728200D02*
D03*
X936900Y715200D02*
D03*
X942900D02*
D03*
X939900Y724200D02*
D03*
X894900Y625200D02*
D03*
X911273Y636078D02*
D03*
X928540Y621044D02*
D03*
X827900Y572700D02*
D03*
X811400Y467700D02*
D03*
X773127Y660720D02*
D03*
X835132Y588932D02*
D03*
X773127Y665680D02*
D03*
X773400Y694700D02*
D03*
X843400Y578700D02*
D03*
X860400Y580200D02*
D03*
Y567900D02*
D03*
X855067Y585200D02*
D03*
X843312Y569322D02*
D03*
X870400Y589200D02*
D03*
X875400D02*
D03*
X865400Y574700D02*
D03*
X872900Y580200D02*
D03*
X872900Y574200D02*
D03*
X906300Y579700D02*
D03*
X793909Y650191D02*
D03*
X900900Y645200D02*
D03*
X896400Y661200D02*
D03*
X897602Y649902D02*
D03*
X908900Y646200D02*
D03*
D145*
X843495Y631213D02*
D03*
X854518D02*
D03*
Y636724D02*
D03*
X849006D02*
D03*
X843495D02*
D03*
X846207Y639524D02*
D03*
X851719D02*
D03*
Y634012D02*
D03*
X846207D02*
D03*
X851719Y628500D02*
D03*
X846207D02*
D03*
X923610Y727822D02*
D03*
Y732153D02*
D03*
X927940Y727822D02*
D03*
Y732153D02*
D03*
X925179Y637570D02*
D03*
Y641507D02*
D03*
Y645444D02*
D03*
X929116Y637570D02*
D03*
Y641507D02*
D03*
Y645444D02*
D03*
X933053Y637570D02*
D03*
Y641507D02*
D03*
Y645444D02*
D03*
X936990Y637570D02*
D03*
Y641507D02*
D03*
Y645444D02*
D03*
D146*
X942783Y770198D02*
D03*
X908767D02*
D03*
D147*
X943964Y791300D02*
D03*
X907586D02*
D03*
D148*
X848243Y455639D02*
D03*
X820683D02*
D03*
D149*
X844306Y466269D02*
D03*
X824621D02*
D03*
D150*
X942900Y684200D02*
D03*
X772900Y782200D02*
D03*
Y462200D02*
D03*
X942900D02*
D03*
M02*
