G04*
G04 #@! TF.GenerationSoftware,Altium Limited,Altium Designer,22.5.1 (42)*
G04*
G04 Layer_Color=65535*
%FSLAX25Y25*%
%MOIN*%
G70*
G04*
G04 #@! TF.SameCoordinates,5F65DDE1-41B9-4BDB-98F2-9488EF11E66D*
G04*
G04*
G04 #@! TF.FilePolarity,Positive*
G04*
G01*
G75*
%ADD10C,0.00984*%
%ADD11C,0.00394*%
%ADD12C,0.00787*%
%ADD13C,0.01496*%
%ADD14C,0.01000*%
%ADD15C,0.00591*%
%ADD16C,0.01575*%
%ADD17C,0.00500*%
%ADD18C,0.00630*%
%ADD19C,0.00200*%
%ADD20C,0.00600*%
G36*
X986931Y536866D02*
X986959Y536809D01*
X987113Y536767D01*
X987225Y536739D01*
X987393Y536711D01*
X987449Y536655D01*
X987562Y536627D01*
X987744Y536557D01*
X987814Y536487D01*
X987926Y536459D01*
X988094Y536347D01*
X988193Y536305D01*
X988221Y536249D01*
X988319Y536178D01*
X988403Y536094D01*
X988459Y536066D01*
X988599Y535926D01*
X988655Y535898D01*
X988725Y535828D01*
X988754Y535772D01*
X988866Y535660D01*
X988894Y535604D01*
X989006Y535491D01*
X989118Y535295D01*
X989174Y535155D01*
X989202Y535099D01*
X989258Y535043D01*
X989314Y534902D01*
X989342Y534790D01*
X989427Y534594D01*
X989455Y534370D01*
X989511Y534229D01*
X989539Y534033D01*
X989567Y533500D01*
X989539Y533388D01*
X989511Y533051D01*
X989455Y532911D01*
X989427Y532799D01*
X989398Y532631D01*
X989314Y532435D01*
X989258Y532294D01*
X989202Y532238D01*
X989146Y532098D01*
X989062Y531958D01*
X988964Y531775D01*
X988908Y531747D01*
X988838Y531649D01*
X988782Y531593D01*
X988754Y531537D01*
X988431Y531215D01*
X988375Y531186D01*
X988347Y531130D01*
X988291Y531102D01*
X988221Y531060D01*
X988193Y531004D01*
X988151Y530962D01*
X988094Y530934D01*
X988010Y530850D01*
X987954Y530822D01*
X987842Y530710D01*
X987702Y530626D01*
X987646Y530570D01*
X987057Y530233D01*
X987001Y530177D01*
X986860Y530121D01*
X986692Y530009D01*
X986552Y529981D01*
X986496Y529924D01*
X986230Y529826D01*
X986187Y529784D01*
X985921Y529686D01*
X985879Y529644D01*
X985612Y529546D01*
X985430Y529476D01*
X985220Y529434D01*
X985066Y529364D01*
X984953Y529335D01*
X984771Y529293D01*
X984729Y529251D01*
X984505Y529195D01*
X984449Y529167D01*
X984294Y529041D01*
X984252Y528971D01*
X984196Y528943D01*
X984154Y528901D01*
X984140Y528859D01*
X984084Y528831D01*
X983285Y528031D01*
X983257Y527975D01*
X983158Y527905D01*
X983088Y527835D01*
X983060Y527779D01*
X982892Y527639D01*
X982387Y527134D01*
X982373Y527092D01*
X982317Y527064D01*
X982247Y526994D01*
X982219Y526938D01*
X982149Y526868D01*
X982093Y526839D01*
X981995Y526741D01*
X981967Y526685D01*
X981868Y526615D01*
X981714Y526461D01*
X981700Y526419D01*
X981644Y526391D01*
X980396Y525143D01*
X980368Y525087D01*
X980326Y525045D01*
X980270Y525017D01*
X980228Y524974D01*
X980214Y524932D01*
X980158Y524904D01*
X980088Y524834D01*
X980060Y524778D01*
X979990Y524708D01*
X979933Y524680D01*
X979835Y524582D01*
X979807Y524526D01*
X979709Y524456D01*
X979555Y524301D01*
X979541Y524259D01*
X979485Y524231D01*
X979162Y523909D01*
X979148Y523867D01*
X979092Y523839D01*
X978938Y523685D01*
X978910Y523628D01*
X978840Y523558D01*
X978784Y523530D01*
X978755Y523474D01*
X978699Y523446D01*
X977900Y522647D01*
X977872Y522591D01*
X977704Y522450D01*
X977676Y522394D01*
X977578Y522324D01*
X977003Y521749D01*
X976989Y521707D01*
X976933Y521679D01*
X976863Y521609D01*
X976834Y521553D01*
X976764Y521483D01*
X976708Y521455D01*
X976610Y521357D01*
X976582Y521301D01*
X976484Y521231D01*
X976330Y521076D01*
X976316Y521034D01*
X976260Y521006D01*
X975012Y519758D01*
X974984Y519702D01*
X974941Y519660D01*
X974885Y519632D01*
X974843Y519590D01*
X974829Y519548D01*
X974773Y519520D01*
X974703Y519450D01*
X974675Y519394D01*
X974605Y519323D01*
X974549Y519296D01*
X974451Y519197D01*
X974423Y519141D01*
X974324Y519071D01*
X974170Y518917D01*
X974156Y518875D01*
X974100Y518847D01*
X973777Y518524D01*
X973763Y518482D01*
X973707Y518454D01*
X973553Y518300D01*
X973525Y518244D01*
X973455Y518174D01*
X973399Y518146D01*
X973371Y518089D01*
X973315Y518061D01*
X972515Y517262D01*
X972488Y517206D01*
X972389Y517136D01*
X972319Y517066D01*
X972291Y517010D01*
X972123Y516870D01*
X971618Y516365D01*
X971604Y516323D01*
X971548Y516295D01*
X971478Y516224D01*
X971450Y516168D01*
X971380Y516098D01*
X971324Y516070D01*
X971225Y515972D01*
X971197Y515916D01*
X971099Y515846D01*
X970945Y515692D01*
X970931Y515650D01*
X970875Y515622D01*
X969627Y514374D01*
X969599Y514318D01*
X969557Y514275D01*
X969501Y514247D01*
X969459Y514205D01*
X969445Y514163D01*
X969388Y514135D01*
X969318Y514065D01*
X969290Y514009D01*
X969220Y513939D01*
X969164Y513911D01*
X969066Y513813D01*
X969038Y513757D01*
X968940Y513687D01*
X968785Y513532D01*
X968771Y513490D01*
X968715Y513462D01*
X968393Y513140D01*
X968379Y513097D01*
X968323Y513069D01*
X968169Y512915D01*
X968141Y512859D01*
X968070Y512789D01*
X968014Y512761D01*
X967986Y512705D01*
X967930Y512677D01*
X967131Y511878D01*
X967103Y511822D01*
X966935Y511681D01*
X966907Y511625D01*
X966808Y511555D01*
X966234Y510980D01*
X966219Y510938D01*
X966163Y510910D01*
X966093Y510840D01*
X966065Y510784D01*
X965995Y510714D01*
X965939Y510686D01*
X965841Y510588D01*
X965813Y510531D01*
X965715Y510461D01*
X965560Y510307D01*
X965546Y510265D01*
X965490Y510237D01*
X964242Y508989D01*
X964214Y508933D01*
X964172Y508891D01*
X964116Y508863D01*
X964074Y508821D01*
X964060Y508779D01*
X964004Y508751D01*
X963934Y508680D01*
X963906Y508624D01*
X963836Y508554D01*
X963780Y508526D01*
X963681Y508428D01*
X963653Y508372D01*
X963485Y508232D01*
X963401Y508148D01*
X963387Y508106D01*
X963331Y508077D01*
X963008Y507755D01*
X962994Y507713D01*
X962938Y507685D01*
X962784Y507531D01*
X962756Y507475D01*
X962686Y507404D01*
X962630Y507376D01*
X962602Y507320D01*
X962546Y507292D01*
X961746Y506493D01*
X961718Y506437D01*
X961620Y506367D01*
X961550Y506297D01*
X961522Y506241D01*
X961424Y506171D01*
X960849Y505595D01*
X960835Y505553D01*
X960779Y505525D01*
X960709Y505455D01*
X960681Y505399D01*
X960610Y505329D01*
X960554Y505301D01*
X960456Y505203D01*
X960428Y505147D01*
X960260Y505007D01*
X960176Y504922D01*
X960162Y504880D01*
X960106Y504852D01*
X958858Y503604D01*
X958830Y503548D01*
X958788Y503506D01*
X958731Y503478D01*
X958689Y503436D01*
X958675Y503394D01*
X958619Y503366D01*
X958549Y503296D01*
X958521Y503240D01*
X958451Y503170D01*
X958395Y503142D01*
X958297Y503044D01*
X958269Y502987D01*
X958101Y502847D01*
X958016Y502763D01*
X958002Y502721D01*
X957946Y502693D01*
X957483Y502230D01*
X957469Y502188D01*
X957413Y502160D01*
X957343Y502090D01*
X957329Y502048D01*
X957273Y502020D01*
X957231Y501978D01*
X957259Y501810D01*
X957329Y501739D01*
X957371Y501725D01*
X957399Y501669D01*
X958002Y501066D01*
X958058Y501038D01*
X958129Y500940D01*
X958423Y500646D01*
X958465Y500632D01*
X958493Y500575D01*
X958675Y500393D01*
X958717Y500379D01*
X958745Y500323D01*
X959096Y499972D01*
X959138Y499959D01*
X959166Y499902D01*
X959208Y499860D01*
X959264Y499832D01*
X959320Y499748D01*
X959377Y499720D01*
X959419Y499678D01*
X959447Y499622D01*
X959489Y499580D01*
X959545Y499552D01*
X959615Y499454D01*
X959671Y499426D01*
X959699Y499370D01*
X959741Y499328D01*
X959797Y499299D01*
X959867Y499201D01*
X960162Y498907D01*
X960204Y498893D01*
X960232Y498837D01*
X960554Y498514D01*
X960610Y498486D01*
X960681Y498388D01*
X961228Y497841D01*
X961283Y497813D01*
X961354Y497715D01*
X961788Y497280D01*
X961830Y497266D01*
X961858Y497210D01*
X961957Y497140D01*
X962027Y497042D01*
X962111Y496986D01*
X962139Y496930D01*
X962237Y496860D01*
X962293Y496775D01*
X962349Y496747D01*
X962391Y496705D01*
X962419Y496649D01*
X962504Y496593D01*
X962532Y496537D01*
X962574Y496495D01*
X962616Y496481D01*
X962644Y496425D01*
X963387Y495682D01*
X963443Y495654D01*
X963513Y495555D01*
X963808Y495261D01*
X963850Y495247D01*
X963878Y495191D01*
X964060Y495009D01*
X964102Y494995D01*
X964130Y494939D01*
X964481Y494588D01*
X964523Y494574D01*
X964551Y494518D01*
X964593Y494476D01*
X964649Y494448D01*
X964705Y494364D01*
X964761Y494336D01*
X964803Y494293D01*
X964831Y494237D01*
X964873Y494195D01*
X964929Y494167D01*
X964999Y494069D01*
X965056Y494041D01*
X965084Y493985D01*
X965126Y493943D01*
X965182Y493915D01*
X965252Y493817D01*
X965546Y493522D01*
X965588Y493508D01*
X965617Y493452D01*
X965939Y493130D01*
X965995Y493102D01*
X966065Y493003D01*
X966612Y492456D01*
X966668Y492428D01*
X966738Y492330D01*
X967173Y491896D01*
X967215Y491882D01*
X967243Y491825D01*
X967341Y491755D01*
X967411Y491657D01*
X967496Y491601D01*
X967523Y491545D01*
X967622Y491475D01*
X967678Y491391D01*
X967734Y491363D01*
X967776Y491321D01*
X967804Y491265D01*
X967888Y491209D01*
X967916Y491152D01*
X967958Y491110D01*
X968000Y491096D01*
X968028Y491040D01*
X968379Y490690D01*
X968421Y490676D01*
X968449Y490620D01*
X968491Y490578D01*
X973707Y490550D01*
X974072Y490353D01*
X974128Y490297D01*
X974184Y490269D01*
X981770Y482683D01*
X981798Y482627D01*
X981882Y482543D01*
X981939Y482402D01*
X982023Y482206D01*
X981995Y481617D01*
X981911Y481477D01*
X981812Y481295D01*
X981770Y481281D01*
X981742Y481224D01*
X981672Y481154D01*
X981616Y481126D01*
X981532Y481042D01*
X981350Y480972D01*
X981195Y480902D01*
X980494Y480874D01*
X976680Y480846D01*
X976638Y480748D01*
X976666Y480664D01*
X976638Y476261D01*
X976526Y476092D01*
X976470Y475952D01*
X976260Y475742D01*
X976203Y475714D01*
X976147Y475658D01*
X975881Y475560D01*
X975727Y475517D01*
X975306Y475546D01*
X975110Y475630D01*
X974969Y475714D01*
X974913Y475770D01*
X974857Y475798D01*
X974591Y476064D01*
X974563Y476120D01*
X974521Y476162D01*
X974465Y476191D01*
X974409Y476275D01*
X974352Y476303D01*
X974310Y476345D01*
X974296Y476387D01*
X974240Y476415D01*
X973918Y476737D01*
X973890Y476793D01*
X973848Y476835D01*
X973792Y476864D01*
X973525Y477130D01*
Y477158D01*
X973511Y477172D01*
X973385Y477270D01*
X973357Y477326D01*
X973259Y477396D01*
X973203Y477481D01*
X973147Y477509D01*
X972992Y477663D01*
X972964Y477719D01*
X972642Y478042D01*
X972586Y478069D01*
X972459Y478196D01*
X972431Y478252D01*
X972389Y478294D01*
X972333Y478322D01*
X972291Y478364D01*
X972263Y478420D01*
X972165Y478490D01*
X972137Y478546D01*
X972081Y478574D01*
X971758Y478897D01*
X971730Y478953D01*
X971562Y479093D01*
X971366Y479289D01*
X971338Y479346D01*
X971239Y479416D01*
X971183Y479500D01*
X971127Y479528D01*
X971085Y479570D01*
X971057Y479626D01*
X970959Y479696D01*
X970665Y479991D01*
X970650Y480033D01*
X970594Y480061D01*
X970188Y480467D01*
X970160Y480523D01*
X969949Y480734D01*
X969893Y480762D01*
X969599Y481056D01*
X969585Y481098D01*
X969529Y481126D01*
X969206Y481449D01*
X969192Y481491D01*
X969136Y481519D01*
X969066Y481589D01*
X969052Y481631D01*
X968996Y481659D01*
X968926Y481729D01*
X968898Y481785D01*
X968800Y481856D01*
X968533Y482122D01*
X968505Y482178D01*
X968337Y482318D01*
X968112Y482543D01*
X968099Y482585D01*
X968042Y482613D01*
X967832Y482823D01*
X967818Y482865D01*
X967762Y482893D01*
X967608Y483047D01*
X967580Y483104D01*
X967187Y483496D01*
X967159Y483552D01*
X967103Y483608D01*
X967075Y483720D01*
X967019Y483917D01*
X966991Y484029D01*
X966977Y488755D01*
X966991Y488993D01*
X966850Y489189D01*
X955703Y500337D01*
X955562Y500309D01*
X955352Y500099D01*
X955324Y500043D01*
X955212Y499959D01*
X955184Y499902D01*
X955100Y499846D01*
X955072Y499790D01*
X955029Y499748D01*
X954974Y499720D01*
X954791Y499538D01*
X954777Y499496D01*
X954721Y499468D01*
X953473Y498220D01*
X953445Y498164D01*
X953403Y498122D01*
X953347Y498094D01*
X953305Y498052D01*
X953291Y498009D01*
X953235Y497981D01*
X953165Y497911D01*
X953137Y497855D01*
X953066Y497785D01*
X953010Y497757D01*
X952912Y497659D01*
X952884Y497603D01*
X952716Y497463D01*
X952632Y497378D01*
X952618Y497336D01*
X952562Y497308D01*
X952239Y496986D01*
X952225Y496944D01*
X952169Y496916D01*
X952015Y496761D01*
X951987Y496705D01*
X951917Y496635D01*
X951861Y496607D01*
X951832Y496551D01*
X951776Y496523D01*
X950977Y495724D01*
X950949Y495668D01*
X950851Y495598D01*
X950781Y495527D01*
X950753Y495471D01*
X950655Y495401D01*
X950080Y494826D01*
X950066Y494784D01*
X950010Y494756D01*
X949939Y494686D01*
X949911Y494630D01*
X949841Y494560D01*
X949785Y494532D01*
X949687Y494434D01*
X949659Y494378D01*
X949491Y494237D01*
X949407Y494153D01*
X949393Y494111D01*
X949336Y494083D01*
X948088Y492835D01*
X948060Y492779D01*
X948018Y492737D01*
X947962Y492709D01*
X947920Y492667D01*
X947906Y492625D01*
X947850Y492597D01*
X947780Y492527D01*
X947752Y492471D01*
X947682Y492400D01*
X947626Y492372D01*
X947528Y492274D01*
X947499Y492218D01*
X947401Y492148D01*
X947247Y491994D01*
X947233Y491952D01*
X947177Y491924D01*
X946854Y491601D01*
X946840Y491559D01*
X946784Y491531D01*
X946630Y491377D01*
X946602Y491321D01*
X946532Y491251D01*
X946476Y491222D01*
X946448Y491166D01*
X946392Y491138D01*
X945592Y490339D01*
X945564Y490283D01*
X945466Y490213D01*
X945396Y490143D01*
X945368Y490087D01*
X945200Y489947D01*
X944695Y489442D01*
X944681Y489400D01*
X944625Y489372D01*
X944555Y489301D01*
X944527Y489245D01*
X944457Y489175D01*
X944401Y489147D01*
X944302Y489049D01*
X944274Y488993D01*
X944106Y488853D01*
X944022Y488769D01*
X944008Y488727D01*
X943952Y488698D01*
X942704Y487451D01*
X942676Y487394D01*
X942634Y487352D01*
X942578Y487324D01*
X942535Y487282D01*
X942521Y487240D01*
X942465Y487212D01*
X942395Y487142D01*
X942367Y487086D01*
X942297Y487016D01*
X942241Y486988D01*
X942143Y486890D01*
X942115Y486833D01*
X941947Y486693D01*
X941862Y486609D01*
X941848Y486567D01*
X941792Y486539D01*
X941470Y486216D01*
X941456Y486174D01*
X941400Y486146D01*
X941245Y485992D01*
X941217Y485936D01*
X941147Y485866D01*
X941091Y485838D01*
X941063Y485782D01*
X941007Y485754D01*
X940208Y484955D01*
X940180Y484898D01*
X940082Y484828D01*
X940012Y484758D01*
X939983Y484702D01*
X939885Y484632D01*
X939310Y484057D01*
X939296Y484015D01*
X939240Y483987D01*
X939170Y483917D01*
X939142Y483861D01*
X939072Y483791D01*
X939016Y483763D01*
X938918Y483665D01*
X938890Y483608D01*
X938792Y483538D01*
X938637Y483384D01*
X938623Y483342D01*
X938567Y483314D01*
X937319Y482066D01*
X937291Y482010D01*
X937249Y481968D01*
X937193Y481940D01*
X937151Y481898D01*
X937137Y481856D01*
X937081Y481827D01*
X937011Y481757D01*
X936983Y481701D01*
X936913Y481631D01*
X936856Y481603D01*
X936758Y481505D01*
X936730Y481449D01*
X936632Y481379D01*
X936478Y481224D01*
X936464Y481182D01*
X936408Y481154D01*
X936085Y480832D01*
X936071Y480790D01*
X936015Y480762D01*
X935861Y480608D01*
X935833Y480551D01*
X935763Y480481D01*
X935707Y480453D01*
X935679Y480397D01*
X935623Y480369D01*
X934823Y479570D01*
X934795Y479514D01*
X934697Y479444D01*
X934627Y479374D01*
X934599Y479318D01*
X934431Y479177D01*
X933926Y478673D01*
X933912Y478630D01*
X933856Y478602D01*
X933786Y478532D01*
X933757Y478476D01*
X933687Y478406D01*
X933631Y478378D01*
X933533Y478280D01*
X933505Y478224D01*
X933337Y478084D01*
X933253Y477999D01*
X933239Y477957D01*
X933183Y477929D01*
X931935Y476681D01*
X931907Y476625D01*
X931864Y476583D01*
X931808Y476555D01*
X931766Y476513D01*
X931752Y476471D01*
X931696Y476443D01*
X931626Y476373D01*
X931598Y476317D01*
X931528Y476247D01*
X931472Y476219D01*
X931374Y476120D01*
X931346Y476064D01*
X931177Y475924D01*
X931093Y475840D01*
X931079Y475798D01*
X931023Y475770D01*
X930701Y475447D01*
X930687Y475405D01*
X930630Y475377D01*
X930476Y475223D01*
X930448Y475167D01*
X930378Y475097D01*
X930322Y475069D01*
X930294Y475013D01*
X930238Y474985D01*
X929439Y474185D01*
X929410Y474129D01*
X929312Y474059D01*
X929242Y473989D01*
X929214Y473933D01*
X929046Y473793D01*
X928541Y473288D01*
X928527Y473246D01*
X928471Y473218D01*
X928373Y473120D01*
X928345Y473064D01*
X928289Y472923D01*
X928261Y472811D01*
X928177Y472615D01*
X928148Y472446D01*
X928036Y472194D01*
X928008Y472026D01*
X927952Y471970D01*
X927910Y471787D01*
X927854Y471647D01*
X927812Y471605D01*
X927714Y471339D01*
X927672Y471297D01*
X927630Y471142D01*
X927503Y470848D01*
X927335Y470540D01*
X927223Y470371D01*
X927139Y470231D01*
X926915Y469838D01*
X926859Y469782D01*
X926774Y469642D01*
X926690Y469558D01*
X926662Y469502D01*
X926522Y469362D01*
X926508Y469319D01*
X926466Y469306D01*
X926438Y469249D01*
X926298Y469109D01*
X926270Y469053D01*
X925975Y468759D01*
X925919Y468731D01*
X925807Y468618D01*
X925751Y468590D01*
X925695Y468506D01*
X925582Y468478D01*
X925498Y468394D01*
X925316Y468324D01*
X925274Y468282D01*
X925218Y468254D01*
X925134Y468226D01*
X924853Y468114D01*
X924531Y468044D01*
X924376Y468001D01*
X924180Y467973D01*
X923732Y467945D01*
X923647Y467973D01*
X923255Y468001D01*
X923114Y468057D01*
X923002Y468085D01*
X922820Y468128D01*
X922666Y468198D01*
X922554Y468226D01*
X922497Y468254D01*
X922441Y468310D01*
X922301Y468366D01*
X922245Y468394D01*
X922105Y468478D01*
X922049Y468506D01*
X921937Y468618D01*
X921881Y468646D01*
X921768Y468759D01*
X921712Y468787D01*
X921446Y469053D01*
X921418Y469109D01*
X921306Y469221D01*
X921278Y469277D01*
X921193Y469362D01*
X921081Y469558D01*
X920941Y469810D01*
X920885Y469950D01*
X920815Y470133D01*
X920773Y470287D01*
X920731Y470469D01*
X920689Y470596D01*
X920660Y470708D01*
X920632Y471325D01*
X920660Y471605D01*
X920689Y471830D01*
X920773Y472026D01*
X920801Y472222D01*
X920913Y472474D01*
X920997Y472615D01*
X921053Y472755D01*
X921081Y472811D01*
X921137Y472867D01*
X921249Y473064D01*
X921334Y473148D01*
X921362Y473204D01*
X921446Y473288D01*
X921474Y473344D01*
X921558Y473428D01*
X921586Y473484D01*
X921726Y473680D01*
X921754Y473793D01*
X921810Y473849D01*
X921908Y474115D01*
X921979Y474298D01*
X922021Y474508D01*
X922091Y474690D01*
X922119Y474802D01*
X922147Y474970D01*
X922231Y475167D01*
X922259Y475363D01*
X922287Y475588D01*
X922343Y475728D01*
X922371Y475924D01*
X922399Y476036D01*
X922427Y476261D01*
X922484Y476401D01*
X922540Y476878D01*
X922582Y477144D01*
X922610Y477256D01*
X922638Y477424D01*
X922666Y477817D01*
X922694Y478042D01*
X922722Y478182D01*
X922778Y478518D01*
X922806Y478911D01*
X922834Y479079D01*
X922890Y479360D01*
X922918Y479584D01*
X922946Y480033D01*
X923002Y480369D01*
X923044Y480748D01*
X923072Y481112D01*
X923114Y481519D01*
X923143Y481659D01*
X923171Y481912D01*
X923227Y482641D01*
X923255Y482809D01*
X923297Y483188D01*
X923325Y483552D01*
X923437Y484562D01*
X923465Y484674D01*
X923493Y485347D01*
X923521Y485431D01*
X923563Y485698D01*
X923591Y485950D01*
X923619Y486343D01*
X923647Y486567D01*
X923675Y486707D01*
X923717Y487086D01*
X923746Y487366D01*
X923773Y487703D01*
X923802Y487787D01*
X923858Y488180D01*
X923900Y488727D01*
X923956Y489063D01*
X923998Y489442D01*
X924040Y489876D01*
X924068Y490017D01*
X924096Y490129D01*
X924124Y490297D01*
X924152Y490606D01*
X924180Y490774D01*
X924222Y490928D01*
X924250Y491124D01*
X924292Y491531D01*
X924320Y491699D01*
X924349Y491812D01*
X924376Y491952D01*
X924405Y492176D01*
X924433Y492428D01*
X924461Y492597D01*
X924489Y492709D01*
X924517Y492849D01*
X924545Y493130D01*
X924573Y493354D01*
X924601Y493494D01*
X924629Y493606D01*
X924657Y493747D01*
X924713Y494083D01*
X924741Y494195D01*
X924783Y494349D01*
X924811Y494462D01*
X924839Y494770D01*
X924895Y494910D01*
X924951Y495247D01*
X924994Y495457D01*
X925035Y495612D01*
X925064Y495724D01*
X925092Y496004D01*
X925120Y496116D01*
X925176Y496313D01*
X925204Y496425D01*
X925232Y496733D01*
X925260Y496817D01*
X925344Y497154D01*
X925386Y497477D01*
X925456Y497659D01*
X925484Y497855D01*
X925526Y498037D01*
X925582Y498178D01*
X925611Y498346D01*
X925653Y498612D01*
X925737Y498809D01*
X925793Y499173D01*
X925877Y499370D01*
X925919Y499636D01*
X925961Y499734D01*
X926017Y499874D01*
X926059Y500141D01*
X926129Y500295D01*
X926157Y500407D01*
X926185Y500632D01*
X926270Y500828D01*
X926298Y500940D01*
X926326Y501108D01*
X926410Y501305D01*
X926438Y501501D01*
X926550Y501753D01*
X926578Y501978D01*
X926690Y502230D01*
X926732Y502441D01*
X926774Y502483D01*
X926830Y502707D01*
X926873Y502861D01*
X926943Y502987D01*
X927013Y503282D01*
X927083Y503436D01*
X927139Y503688D01*
X927195Y503745D01*
X927223Y503857D01*
X927265Y504039D01*
X927307Y504081D01*
X927363Y504221D01*
X927391Y504390D01*
X927503Y504642D01*
X927532Y504782D01*
X927616Y504922D01*
X927672Y505175D01*
X927728Y505231D01*
X927784Y505455D01*
X927896Y505708D01*
X927924Y505820D01*
X928008Y505960D01*
X928036Y506072D01*
X928092Y506213D01*
X928177Y506409D01*
X928233Y506549D01*
X928317Y506745D01*
X928345Y506858D01*
X928401Y506914D01*
X928457Y507110D01*
X928597Y507418D01*
X928625Y507503D01*
X928850Y507979D01*
X928990Y508288D01*
X929074Y508428D01*
X929130Y508568D01*
X929410Y509185D01*
X929439Y509241D01*
X929495Y509298D01*
X929537Y509452D01*
X929579Y509550D01*
X929635Y509606D01*
X929677Y509760D01*
X929747Y509830D01*
X929803Y509971D01*
X929831Y510027D01*
X929887Y510083D01*
X929957Y510265D01*
X930000Y510307D01*
X930027Y510363D01*
X930056Y510447D01*
X930140Y510588D01*
X930420Y511120D01*
X930560Y511373D01*
X930588Y511457D01*
X930673Y511597D01*
X930729Y511653D01*
X930757Y511765D01*
X930841Y511849D01*
X931065Y512242D01*
X931205Y512495D01*
X931262Y512551D01*
X931290Y512663D01*
X931402Y512831D01*
X931486Y512971D01*
X931598Y513168D01*
X931654Y513224D01*
X931710Y513364D01*
X931794Y513448D01*
X931822Y513504D01*
X931864Y513574D01*
X931921Y513602D01*
X932005Y513743D01*
X932047Y513757D01*
X932075Y513813D01*
X932201Y513967D01*
X932355Y514093D01*
X932397Y514135D01*
X932453Y514163D01*
X932566Y514275D01*
X932622Y514303D01*
X932706Y514388D01*
X933070Y514556D01*
X933127Y514584D01*
X933183Y514640D01*
X933295Y514668D01*
X933491Y514752D01*
X933603Y514780D01*
X933800Y514808D01*
X933982Y514850D01*
X934136Y514892D01*
X934332Y514921D01*
X934809Y514892D01*
X934893Y514864D01*
X935146Y514836D01*
X935230Y514808D01*
X935440Y514766D01*
X935594Y514696D01*
X935777Y514626D01*
X935903Y514556D01*
X936085Y514486D01*
X936155Y514416D01*
X936296Y514331D01*
X936352Y514275D01*
X936492Y514191D01*
X936576Y514163D01*
X936632Y514191D01*
X937670Y515229D01*
X937712Y515243D01*
X937740Y515299D01*
X939128Y516687D01*
X939184Y516715D01*
X939198Y516842D01*
X939044Y516996D01*
X939002Y517010D01*
X938974Y517066D01*
X938399Y517641D01*
X938343Y517669D01*
X938301Y517711D01*
X938273Y517767D01*
X938231Y517809D01*
X938189Y517823D01*
X938161Y517879D01*
X937333Y518707D01*
X937277Y518735D01*
X937235Y518777D01*
X937207Y518833D01*
X937025Y519015D01*
X936969Y519043D01*
X936828Y519211D01*
X936744Y519296D01*
X936688Y519323D01*
X936646Y519366D01*
X936618Y519422D01*
X936211Y519828D01*
X936169Y519842D01*
X936141Y519898D01*
X935931Y520109D01*
X935889Y520123D01*
X935861Y520179D01*
X935819Y520221D01*
X935777Y520235D01*
X935749Y520291D01*
X934585Y521455D01*
X934529Y521483D01*
X934459Y521581D01*
X934052Y521988D01*
X934010Y522002D01*
X933982Y522058D01*
X933659Y522380D01*
X933617Y522394D01*
X933589Y522450D01*
X933295Y522745D01*
X933253Y522759D01*
X933225Y522815D01*
X932986Y523054D01*
X932930Y523081D01*
X932860Y523180D01*
X932804Y523208D01*
X932776Y523264D01*
X931949Y524091D01*
X931892Y524119D01*
X931851Y524161D01*
X931822Y524217D01*
X931640Y524400D01*
X931584Y524428D01*
X931514Y524526D01*
X931360Y524680D01*
X931304Y524708D01*
X931262Y524750D01*
X931234Y524806D01*
X930827Y525213D01*
X930785Y525227D01*
X930757Y525283D01*
X930546Y525493D01*
X930504Y525507D01*
X930476Y525563D01*
X930434Y525606D01*
X930392Y525620D01*
X930364Y525676D01*
X928976Y527064D01*
X928920Y527092D01*
X928850Y527190D01*
X928808Y527232D01*
X928738Y527246D01*
X928709Y527162D01*
X928751Y527008D01*
X928850Y526769D01*
X928878Y526601D01*
X928990Y526349D01*
X929018Y526181D01*
X929102Y525984D01*
X929158Y525760D01*
X929242Y525563D01*
X929284Y525381D01*
X929354Y525199D01*
X929383Y524778D01*
X929270Y524526D01*
X929242Y524414D01*
X929130Y524301D01*
X929102Y524245D01*
X928948Y524091D01*
X928583Y523923D01*
X928415Y523895D01*
X928331Y523867D01*
X928008Y523937D01*
X927896Y523965D01*
X927798Y524007D01*
X927742Y524063D01*
X927686Y524091D01*
X927616Y524133D01*
X927602Y524175D01*
X927546Y524203D01*
X927503Y524245D01*
X927475Y524301D01*
X927391Y524386D01*
X927321Y524568D01*
X927279Y524610D01*
X927223Y524834D01*
X927153Y525017D01*
X927111Y525143D01*
X927083Y525255D01*
X926999Y525451D01*
X926971Y525563D01*
X926929Y525718D01*
X926830Y525956D01*
X926788Y526138D01*
X926718Y526293D01*
X926676Y526475D01*
X926620Y526615D01*
X926550Y526797D01*
X926522Y526966D01*
X926466Y527022D01*
X926424Y527204D01*
X926396Y527316D01*
X926326Y527470D01*
X926298Y527583D01*
X926256Y527737D01*
X926185Y527891D01*
X926129Y528116D01*
X926045Y528312D01*
X926017Y528424D01*
X925975Y528578D01*
X925905Y528733D01*
X925849Y528957D01*
X925765Y529153D01*
X925709Y529378D01*
X925653Y529434D01*
X925582Y529756D01*
X925512Y529882D01*
X925484Y529995D01*
X925456Y530163D01*
X925400Y530219D01*
X925344Y530415D01*
X925302Y530570D01*
X925232Y530724D01*
X925176Y530976D01*
X925092Y531173D01*
X925120Y531705D01*
X925288Y532014D01*
X925414Y532168D01*
X925526Y532280D01*
X925835Y532420D01*
X925947Y532448D01*
X926536Y532420D01*
X926788Y532308D01*
X926999Y532266D01*
X927153Y532196D01*
X927265Y532168D01*
X927419Y532126D01*
X927461Y532084D01*
X927644Y532042D01*
X927756Y532014D01*
X927854Y531972D01*
X927994Y531916D01*
X928177Y531874D01*
X928275Y531832D01*
X928415Y531775D01*
X928597Y531733D01*
X928836Y531635D01*
X929004Y531607D01*
X929256Y531495D01*
X929425Y531467D01*
X929481Y531411D01*
X929663Y531369D01*
X929775Y531341D01*
X929873Y531299D01*
X930013Y531243D01*
X930196Y531201D01*
X930350Y531130D01*
X930574Y531074D01*
X930771Y530990D01*
X930995Y530934D01*
X931191Y530850D01*
X931304Y530822D01*
X931458Y530780D01*
X931612Y530710D01*
X931724Y530682D01*
X931878Y530640D01*
X931921Y530597D01*
X932033Y530570D01*
X932215Y530527D01*
X932453Y530429D01*
X932566Y530401D01*
X932846Y530289D01*
X932986Y530261D01*
X933070Y530177D01*
X933253Y530107D01*
X933421Y529939D01*
X933449Y529882D01*
X933533Y529798D01*
X933659Y529448D01*
X933673Y529097D01*
X933645Y529013D01*
X933533Y528705D01*
X933477Y528648D01*
X933449Y528592D01*
X933239Y528382D01*
X933183Y528354D01*
X933042Y528270D01*
X932930Y528242D01*
X932734Y528186D01*
X932622Y528158D01*
X932453Y528186D01*
X932369Y528214D01*
X932215Y528256D01*
X932075Y528284D01*
X931935Y528340D01*
X931752Y528410D01*
X931612Y528438D01*
X931416Y528522D01*
X931248Y528550D01*
X930995Y528662D01*
X930813Y528705D01*
X930659Y528775D01*
X930546Y528803D01*
X930364Y528845D01*
X930294Y528887D01*
X930280Y528817D01*
X930378Y528662D01*
X930434Y528634D01*
X931079Y527989D01*
X931135Y527961D01*
X931205Y527863D01*
X931500Y527569D01*
X931542Y527555D01*
X931570Y527499D01*
X932173Y526896D01*
X932215Y526882D01*
X932243Y526826D01*
X932285Y526783D01*
X932341Y526755D01*
X932411Y526657D01*
X932495Y526601D01*
X932524Y526545D01*
X932566Y526503D01*
X932622Y526475D01*
X932678Y526391D01*
X932734Y526363D01*
X932776Y526321D01*
X932804Y526265D01*
X932888Y526208D01*
X932916Y526152D01*
X933239Y525830D01*
X933281Y525816D01*
X933309Y525760D01*
X934725Y524343D01*
X934767Y524330D01*
X934795Y524273D01*
X934865Y524203D01*
X934907Y524189D01*
X934935Y524133D01*
X934978Y524091D01*
X935034Y524063D01*
X935104Y523965D01*
X935188Y523909D01*
X935216Y523853D01*
X935314Y523783D01*
X935370Y523699D01*
X935426Y523670D01*
X935468Y523628D01*
X935496Y523572D01*
X935580Y523516D01*
X935608Y523460D01*
X935651Y523418D01*
X935693Y523404D01*
X935721Y523348D01*
X936464Y522605D01*
X936506Y522591D01*
X936534Y522535D01*
X936884Y522184D01*
X936927Y522170D01*
X936955Y522114D01*
X937558Y521511D01*
X937600Y521497D01*
X937628Y521441D01*
X937670Y521399D01*
X937726Y521371D01*
X937796Y521273D01*
X937880Y521216D01*
X937908Y521161D01*
X938006Y521090D01*
X938062Y521006D01*
X938118Y520978D01*
X938161Y520936D01*
X938189Y520880D01*
X938273Y520824D01*
X938301Y520768D01*
X938623Y520445D01*
X938665Y520431D01*
X938693Y520375D01*
X939016Y520053D01*
X939072Y520025D01*
X939142Y519927D01*
X939689Y519380D01*
X939745Y519352D01*
X939815Y519253D01*
X940110Y518959D01*
X940152Y518945D01*
X940180Y518889D01*
X940250Y518819D01*
X940292Y518805D01*
X940320Y518749D01*
X940362Y518707D01*
X940418Y518679D01*
X940474Y518594D01*
X940530Y518566D01*
X940572Y518524D01*
X940600Y518468D01*
X940699Y518398D01*
X940755Y518342D01*
X940811Y518370D01*
X943054Y520614D01*
X943097Y520628D01*
X943124Y520684D01*
X943377Y520936D01*
X943349Y520992D01*
X943265Y521076D01*
X943181Y521216D01*
X942998Y521483D01*
X942970Y521595D01*
X942844Y521890D01*
X942732Y522142D01*
X942704Y522423D01*
X942676Y522535D01*
X942620Y522731D01*
X942648Y523544D01*
X942704Y523685D01*
X942732Y523965D01*
X942816Y524161D01*
X942886Y524343D01*
X942928Y524386D01*
X942984Y524526D01*
X943097Y524722D01*
X943181Y524862D01*
X943265Y524946D01*
X943293Y525003D01*
X943377Y525087D01*
X943405Y525143D01*
X943517Y525255D01*
X943545Y525311D01*
X943587Y525353D01*
X943643Y525381D01*
X943727Y525465D01*
X943783Y525493D01*
X943868Y525577D01*
X943924Y525606D01*
X944036Y525718D01*
X944092Y525746D01*
X944148Y525802D01*
X944344Y525914D01*
X944597Y526054D01*
X944653Y526110D01*
X944765Y526138D01*
X944849Y526223D01*
X945242Y526447D01*
X945494Y526587D01*
X945550Y526643D01*
X945663Y526671D01*
X945747Y526755D01*
X945887Y526812D01*
X945971Y526896D01*
X946083Y526924D01*
X946251Y527036D01*
X946434Y527106D01*
X946504Y527176D01*
X946658Y527218D01*
X946728Y527288D01*
X946910Y527358D01*
X947009Y527428D01*
X947710Y527793D01*
X948187Y528017D01*
X948243Y528046D01*
X948299Y528102D01*
X948411Y528130D01*
X948775Y528298D01*
X948832Y528326D01*
X948888Y528382D01*
X949042Y528424D01*
X949224Y528522D01*
X949364Y528578D01*
X949617Y528690D01*
X949673Y528719D01*
X949869Y528803D01*
X950178Y528943D01*
X950430Y529055D01*
X950542Y529083D01*
X950795Y529195D01*
X950977Y529265D01*
X951019Y529308D01*
X951285Y529406D01*
X951440Y529476D01*
X951594Y529518D01*
X951636Y529560D01*
X951902Y529658D01*
X952057Y529728D01*
X952239Y529770D01*
X952477Y529868D01*
X952590Y529896D01*
X952842Y530009D01*
X952996Y530051D01*
X953150Y530121D01*
X953263Y530149D01*
X953445Y530219D01*
X953487Y530261D01*
X953782Y530331D01*
X953936Y530401D01*
X954118Y530443D01*
X954258Y530499D01*
X954385Y530542D01*
X954567Y530583D01*
X954721Y530654D01*
X954833Y530682D01*
X955015Y530724D01*
X955170Y530794D01*
X955282Y530822D01*
X955436Y530864D01*
X955590Y530934D01*
X955885Y531004D01*
X956039Y531074D01*
X956277Y531116D01*
X956418Y531173D01*
X956544Y531215D01*
X956782Y531257D01*
X956880Y531299D01*
X957021Y531355D01*
X957245Y531383D01*
X957441Y531467D01*
X957638Y531495D01*
X957792Y531537D01*
X957974Y531607D01*
X958171Y531635D01*
X958325Y531677D01*
X958507Y531747D01*
X958802Y531789D01*
X958942Y531846D01*
X959054Y531874D01*
X959194Y531902D01*
X959363Y531930D01*
X959545Y532000D01*
X959657Y532028D01*
X959923Y532070D01*
X960050Y532112D01*
X960274Y532168D01*
X960582Y532196D01*
X960723Y532252D01*
X961059Y532308D01*
X961298Y532350D01*
X961536Y532420D01*
X961816Y532448D01*
X961999Y532491D01*
X962153Y532533D01*
X962265Y532561D01*
X962588Y532603D01*
X962700Y532631D01*
X962854Y532673D01*
X962966Y532701D01*
X963289Y532743D01*
X963527Y532813D01*
X964018Y532883D01*
X964130Y532911D01*
X964270Y532939D01*
X964649Y532981D01*
X964845Y533009D01*
X965070Y533066D01*
X965266Y533094D01*
X965546Y533122D01*
X965813Y533164D01*
X965967Y533206D01*
X966528Y533262D01*
X966640Y533290D01*
X967117Y533374D01*
X967523Y533416D01*
X967636Y533444D01*
X967776Y533472D01*
X968028Y533500D01*
X968421Y533528D01*
X968785Y533584D01*
X968954Y533612D01*
X969206Y533640D01*
X969571Y533669D01*
X970076Y533753D01*
X970300Y533781D01*
X970693Y533809D01*
X971029Y533865D01*
X971253Y533893D01*
X971618Y533921D01*
X971955Y533949D01*
X972319Y534005D01*
X972628Y534033D01*
X973076Y534061D01*
X973385Y534089D01*
X973722Y534145D01*
X973946Y534173D01*
X974423Y534201D01*
X974871Y534257D01*
X975040Y534285D01*
X975320Y534313D01*
X975769Y534341D01*
X976077Y534370D01*
X976217Y534398D01*
X976386Y534426D01*
X976722Y534454D01*
X977115Y534482D01*
X977339Y534510D01*
X977507Y534538D01*
X977886Y534580D01*
X978251Y534608D01*
X978363Y534636D01*
X978699Y534692D01*
X978812Y534720D01*
X979302Y534762D01*
X979583Y534818D01*
X980340Y534902D01*
X980452Y534931D01*
X980831Y534972D01*
X980943Y535001D01*
X981209Y535043D01*
X981364Y535085D01*
X981476Y535113D01*
X981911Y535183D01*
X982149Y535253D01*
X982429Y535281D01*
X982626Y535365D01*
X982738Y535393D01*
X982906Y535421D01*
X983158Y535533D01*
X983355Y535562D01*
X983411Y535618D01*
X983551Y535674D01*
X983663Y535702D01*
X983944Y535870D01*
X984196Y536066D01*
X984350Y536193D01*
X984449Y536263D01*
X984533Y536347D01*
X984617Y536375D01*
X984785Y536487D01*
X984897Y536515D01*
X984982Y536599D01*
X985136Y536641D01*
X985276Y536697D01*
X985430Y536739D01*
X985612Y536781D01*
X985711Y536824D01*
X985767Y536880D01*
X986931Y536866D01*
D02*
G37*
G36*
X789004Y521408D02*
X788963Y521075D01*
X788879Y520867D01*
X788817Y520638D01*
X788713Y520408D01*
X788629Y520075D01*
X788504Y519783D01*
X788421Y519492D01*
X788338Y519283D01*
X788213Y518992D01*
X788150Y518763D01*
X787963Y518325D01*
X787754Y517783D01*
X787588Y517408D01*
X787546Y517242D01*
X787733Y517013D01*
X787942Y516804D01*
X788025Y516763D01*
X788254Y516575D01*
X788317Y516513D01*
X788400Y516471D01*
X788504Y516325D01*
X788650Y516221D01*
X788817Y516054D01*
X788900Y516013D01*
X789754Y515158D01*
X789796Y515075D01*
X789942Y514971D01*
X790108Y514721D01*
X790296Y514533D01*
X790338Y514450D01*
X790504Y514283D01*
X790546Y514200D01*
X790754Y513992D01*
X790796Y513908D01*
X791088Y513533D01*
X791504Y512950D01*
X791546Y512867D01*
X791754Y512575D01*
X791796Y512492D01*
X792088Y512033D01*
X792588Y511117D01*
X793004Y510242D01*
X793254Y509700D01*
X793296Y509533D01*
X793463Y509158D01*
X793525Y508929D01*
X793671Y508575D01*
X793733Y508346D01*
X793838Y508117D01*
X793879Y507867D01*
X793921Y507742D01*
X794046Y507242D01*
X794129Y506950D01*
X794171Y506783D01*
X794233Y506388D01*
X794317Y506054D01*
X794358Y505846D01*
X794442Y505304D01*
X794483Y505054D01*
X794525Y504888D01*
X794567Y504513D01*
X794608Y503929D01*
X794629Y501492D01*
X794588Y501367D01*
X794546Y500658D01*
X794504Y500533D01*
X794463Y500158D01*
X794421Y500033D01*
X794358Y499679D01*
X794317Y499429D01*
X794275Y499221D01*
X794233Y499054D01*
X794192Y498804D01*
X794108Y498388D01*
X794067Y498221D01*
X793963Y497867D01*
X793921Y497700D01*
X793796Y497283D01*
X793692Y497013D01*
X793629Y496783D01*
X793504Y496492D01*
X793463Y496325D01*
X793358Y496054D01*
X793213Y495700D01*
X793129Y495492D01*
X792129Y493533D01*
X792046Y493450D01*
X791796Y492992D01*
X791629Y492742D01*
X791588Y492658D01*
X791192Y492138D01*
X791025Y491888D01*
X790921Y491742D01*
X790733Y491513D01*
X790629Y491367D01*
X790442Y491138D01*
X790296Y490992D01*
X790254Y490908D01*
X790088Y490742D01*
X790046Y490658D01*
X789713Y490325D01*
X789671Y490242D01*
X788817Y489388D01*
X788733Y489346D01*
X788442Y489054D01*
X788379Y489033D01*
X788338Y488950D01*
X788275Y488888D01*
X788192Y488846D01*
X787963Y488658D01*
X787713Y488450D01*
X787567Y488346D01*
X787442Y488221D01*
X787358Y488179D01*
X786838Y487783D01*
X786483Y487554D01*
X785817Y487138D01*
X785608Y487013D01*
X785233Y486804D01*
X784358Y486346D01*
X784067Y486221D01*
X783525Y485971D01*
X783254Y485867D01*
X782900Y485721D01*
X782692Y485638D01*
X782421Y485533D01*
X782254Y485492D01*
X781233Y485179D01*
X780733Y485054D01*
X780463Y484992D01*
X780233Y484929D01*
X779983Y484888D01*
X779858Y484846D01*
X779338Y484783D01*
X778588Y484658D01*
X778088Y484617D01*
X777879Y484575D01*
X777733Y484554D01*
X777546Y484658D01*
X777588Y484867D01*
X777879Y485158D01*
X777921Y485242D01*
X778046Y485367D01*
X778088Y485450D01*
X778213Y485575D01*
X778254Y485658D01*
X778463Y485950D01*
X778504Y486033D01*
X778692Y486263D01*
X778879Y486617D01*
X779046Y486867D01*
X779588Y487992D01*
X779671Y488200D01*
X779838Y488575D01*
X779921Y488867D01*
X779963Y489033D01*
X780046Y489117D01*
X780108Y489471D01*
X780192Y489804D01*
X780254Y490033D01*
X780338Y490367D01*
X780400Y490763D01*
X780504Y491700D01*
X780546Y491992D01*
X780504Y493825D01*
X780463Y493950D01*
X780421Y494367D01*
X780379Y494533D01*
X780317Y494929D01*
X780275Y495096D01*
X780233Y495304D01*
X780192Y495471D01*
X780129Y495700D01*
X780067Y495971D01*
X779963Y496242D01*
X779775Y496763D01*
X779692Y496971D01*
X779525Y497429D01*
X779463Y497492D01*
X779358Y497763D01*
X779046Y498367D01*
X778338Y499450D01*
X778213Y499575D01*
X778171Y499658D01*
X778088Y499742D01*
X778046Y499825D01*
X777858Y500054D01*
X777754Y500200D01*
X777650Y500304D01*
X777358Y500263D01*
X777296Y500200D01*
X777254Y500117D01*
X777067Y499888D01*
X776858Y499554D01*
X776129Y498533D01*
X776046Y498242D01*
X776004Y498075D01*
X775963Y496742D01*
X775921Y496617D01*
X775858Y495471D01*
X775817Y494596D01*
X775775Y493638D01*
X775733Y493429D01*
X775546Y493075D01*
X775338Y492783D01*
X775296Y492700D01*
X775213Y492617D01*
X775171Y492533D01*
X775088Y492450D01*
X774963Y492242D01*
X774692Y491846D01*
X774525Y491596D01*
X774463Y491533D01*
X774421Y491450D01*
X774129Y491075D01*
X773942Y491013D01*
X773567Y491054D01*
X773150Y491221D01*
X772879Y491325D01*
X772817Y491346D01*
X772775D01*
X772192Y491596D01*
X771983Y491679D01*
X771567Y491804D01*
X771275Y491638D01*
X771046Y491450D01*
X770942Y491346D01*
X770858Y491304D01*
X770567Y491096D01*
X770483Y491054D01*
X770192Y490888D01*
X769900Y490763D01*
X769483Y490804D01*
X769400Y490888D01*
X769317Y490929D01*
X769025Y491138D01*
X768650Y491346D01*
X768400Y491513D01*
X768317Y491554D01*
X768233Y491638D01*
X768150Y491679D01*
X768067Y491763D01*
X767983Y491804D01*
X767900Y491888D01*
X767692Y492013D01*
X767608Y492096D01*
X767525Y492138D01*
X767296Y492325D01*
X767192Y492429D01*
X767108Y492471D01*
X767004Y492700D01*
X767046Y493492D01*
X767088Y493617D01*
X767150Y493846D01*
X767213Y494033D01*
X767317Y494304D01*
X767379Y494492D01*
X767338Y494742D01*
X767150Y494971D01*
X767046Y495117D01*
X766838Y495325D01*
X766796Y495408D01*
X766588Y495617D01*
X766546Y495700D01*
X766296Y495950D01*
X766254Y496033D01*
X766004Y496283D01*
X765963Y496367D01*
X765838Y496492D01*
X765796Y496658D01*
X765838Y496992D01*
X766004Y497158D01*
X766171Y497450D01*
X766379Y497742D01*
X766421Y497825D01*
X766504Y497908D01*
X766546Y497992D01*
X766629Y498075D01*
X766754Y498283D01*
X766921Y498533D01*
X766963Y498617D01*
X767046Y498700D01*
X767088Y498783D01*
X767275Y499013D01*
X767483Y499221D01*
X768233Y499554D01*
X768692Y499763D01*
X769067Y499929D01*
X769358Y500054D01*
X769900Y500304D01*
X770358Y500513D01*
X770567Y500596D01*
X771358Y500971D01*
X771567Y501054D01*
X771858Y501221D01*
X772004Y501325D01*
X772046Y501408D01*
X772129Y501492D01*
X772171Y501575D01*
X772546Y502117D01*
X772588Y502200D01*
X773004Y502783D01*
X773254Y503200D01*
X773296Y503325D01*
X773150Y503513D01*
X772942Y503596D01*
X772421Y503783D01*
X771963Y503908D01*
X771796Y503950D01*
X771567Y504013D01*
X771400Y504054D01*
X770692Y504179D01*
X769817Y504304D01*
X768650Y504346D01*
X767983Y504304D01*
X767400Y504263D01*
X767275Y504221D01*
X766879Y504158D01*
X766379Y504075D01*
X766025Y504013D01*
X765817Y503929D01*
X765546Y503867D01*
X765067Y503721D01*
X764796Y503617D01*
X764463Y503492D01*
X764275Y503429D01*
X763817Y503221D01*
X763108Y502846D01*
X762733Y502638D01*
X762442Y502429D01*
X762358Y502388D01*
X761963Y502117D01*
X761817Y502013D01*
X761733Y501929D01*
X761650Y501888D01*
X761442Y501679D01*
X761233Y501554D01*
X761025Y501346D01*
X760942Y501304D01*
X760171Y500533D01*
X760129Y500450D01*
X759838Y500158D01*
X759796Y500075D01*
X759671Y499950D01*
X759629Y499867D01*
X759546Y499783D01*
X759504Y499700D01*
X759421Y499617D01*
X759379Y499533D01*
X759296Y499450D01*
X759254Y499367D01*
X759171Y499283D01*
X759129Y499200D01*
X758838Y498825D01*
X758733Y498804D01*
X758671Y498867D01*
X758546Y499367D01*
X758463Y499867D01*
X758379Y500200D01*
X758338Y500492D01*
X758275Y500971D01*
X758233Y501554D01*
X758213Y503908D01*
X758254Y504033D01*
X758296Y504825D01*
X758338Y504950D01*
X758400Y505346D01*
X758442Y505554D01*
X758525Y506096D01*
X758608Y506429D01*
X758692Y506929D01*
X758733Y507096D01*
X758838Y507450D01*
X758879Y507617D01*
X759004Y508033D01*
X759046Y508200D01*
X759171Y508492D01*
X759213Y508700D01*
X759338Y508992D01*
X759483Y509388D01*
X759588Y509617D01*
X759650Y509846D01*
X760150Y510888D01*
X760213Y511033D01*
X760379Y511325D01*
X760796Y512075D01*
X761004Y512367D01*
X761213Y512742D01*
X761421Y513033D01*
X761463Y513117D01*
X761963Y513783D01*
X762254Y514158D01*
X762338Y514242D01*
X762379Y514325D01*
X762463Y514408D01*
X762504Y514492D01*
X762796Y514783D01*
X762838Y514867D01*
X763129Y515158D01*
X763171Y515242D01*
X763942Y516013D01*
X764025Y516054D01*
X764233Y516263D01*
X764317Y516304D01*
X764692Y516679D01*
X764775Y516721D01*
X764900Y516846D01*
X764983Y516888D01*
X765108Y517013D01*
X765192Y517054D01*
X765275Y517138D01*
X765358Y517179D01*
X765525Y517346D01*
X765608Y517388D01*
X765838Y517575D01*
X766067Y517721D01*
X766317Y517888D01*
X766400Y517929D01*
X766483Y518013D01*
X766567Y518054D01*
X767025Y518346D01*
X767608Y518679D01*
X768983Y519346D01*
X769442Y519554D01*
X769650Y519638D01*
X769942Y519763D01*
X770108Y519804D01*
X770379Y519908D01*
X770608Y520013D01*
X770858Y520054D01*
X770983Y520096D01*
X771254Y520200D01*
X771483Y520263D01*
X771754Y520325D01*
X771921Y520367D01*
X772275Y520471D01*
X772546Y520533D01*
X773046Y520617D01*
X773213Y520658D01*
X773629Y520742D01*
X774004Y520783D01*
X774463Y520825D01*
X774838Y520867D01*
X775254Y520908D01*
X776650Y520971D01*
X776775Y520929D01*
X778025Y520888D01*
X778150Y520846D01*
X778838Y520783D01*
X779213Y520742D01*
X779629Y520658D01*
X779796Y520617D01*
X780004Y520575D01*
X780338Y520533D01*
X780838Y520408D01*
X781025Y520346D01*
X781192Y520304D01*
X781463Y520242D01*
X781671Y520158D01*
X781838Y520117D01*
X782192Y520013D01*
X782463Y519908D01*
X783046Y519700D01*
X783400Y519554D01*
X783608Y519471D01*
X784400Y519096D01*
X785358Y518638D01*
X785608Y518679D01*
X785983Y519054D01*
X786067Y519096D01*
X786400Y519429D01*
X786483Y519471D01*
X786900Y519888D01*
X786983Y519929D01*
X787067Y520013D01*
X787150Y520054D01*
X787275Y520179D01*
X787358Y520221D01*
X787567Y520429D01*
X787650Y520471D01*
X787733Y520554D01*
X787817Y520596D01*
X788025Y520804D01*
X788108Y520846D01*
X788317Y521054D01*
X788525Y521179D01*
X788692Y521346D01*
X788775Y521388D01*
X788900Y521429D01*
X789004Y521408D01*
D02*
G37*
G36*
X767650Y491679D02*
X768192Y491388D01*
X768358Y491221D01*
X768442Y491179D01*
X768629Y490992D01*
X768671Y490908D01*
X768838Y490658D01*
X768963Y490158D01*
X768921Y489658D01*
X768713Y489200D01*
X768421Y488658D01*
X768338Y488575D01*
X768296Y488492D01*
X768129Y488325D01*
X768088Y488242D01*
X767796Y487950D01*
X767754Y487867D01*
X767525Y487638D01*
X767463Y487617D01*
X767421Y487533D01*
X767192Y487304D01*
X767108Y487263D01*
X766858Y487013D01*
X766775Y486971D01*
X766483Y486679D01*
X766400Y486638D01*
X766275Y486513D01*
X766192Y486471D01*
X766067Y486346D01*
X765983Y486304D01*
X765900Y486221D01*
X765817Y486179D01*
X765588Y485992D01*
X765442Y485888D01*
X765358Y485804D01*
X765275Y485763D01*
X765192Y485679D01*
X765108Y485638D01*
X765025Y485554D01*
X764963Y485533D01*
X764942Y485513D01*
X764421Y485117D01*
X764067Y484888D01*
X763650Y484596D01*
X763525Y484638D01*
X763504Y484825D01*
X763588Y485033D01*
X763671Y485367D01*
X763775Y485846D01*
X763838Y486033D01*
X763900Y486304D01*
X763963Y486533D01*
X764004Y486700D01*
X764171Y487283D01*
X764275Y487554D01*
X764317Y487721D01*
X764421Y488075D01*
X764525Y488346D01*
X764650Y488679D01*
X764692Y488846D01*
X764775Y489054D01*
X764838Y489117D01*
X764900Y489346D01*
X765004Y489575D01*
X765421Y490367D01*
X765588Y490658D01*
X765713Y490783D01*
X765838Y490992D01*
X766004Y491117D01*
X766046Y491200D01*
X766150Y491304D01*
X766233Y491346D01*
X766358Y491471D01*
X766442Y491513D01*
X766817Y491679D01*
X766983Y491721D01*
X767650Y491679D01*
D02*
G37*
%LPC*%
G36*
X986384Y534720D02*
X986047Y534692D01*
X985795Y534552D01*
X985739Y534496D01*
X985542Y534384D01*
X985486Y534328D01*
X985430Y534300D01*
X985346Y534215D01*
X985206Y534131D01*
X985150Y534075D01*
X985009Y533991D01*
X984953Y533935D01*
X984799Y533893D01*
X984617Y533795D01*
X984477Y533739D01*
X984421Y533682D01*
X984266Y533640D01*
X983972Y533514D01*
X983804Y533486D01*
X983607Y533402D01*
X983383Y533346D01*
X983187Y533262D01*
X982990Y533234D01*
X982808Y533192D01*
X982570Y533122D01*
X982303Y533079D01*
X982191Y533051D01*
X982037Y533009D01*
X981925Y532981D01*
X981574Y532939D01*
X981434Y532911D01*
X981322Y532883D01*
X981097Y532855D01*
X980845Y532827D01*
X980620Y532799D01*
X980452Y532771D01*
X980340Y532743D01*
X979961Y532701D01*
X979667Y532659D01*
X979555Y532631D01*
X979415Y532603D01*
X979190Y532575D01*
X978910Y532547D01*
X978741Y532519D01*
X978601Y532491D01*
X978377Y532463D01*
X978012Y532435D01*
X977732Y532406D01*
X976961Y532308D01*
X976414Y532266D01*
X976245Y532238D01*
X976105Y532210D01*
X975825Y532182D01*
X975432Y532154D01*
X975068Y532126D01*
X974927Y532098D01*
X974549Y532056D01*
X974268Y532028D01*
X973763Y532000D01*
X973679Y531972D01*
X973203Y531916D01*
X972754Y531888D01*
X972291Y531817D01*
X971913Y531775D01*
X971366Y531733D01*
X971197Y531705D01*
X970623Y531635D01*
X970258Y531607D01*
X970146Y531579D01*
X969669Y531523D01*
X969557Y531495D01*
X969080Y531467D01*
X968996Y531439D01*
X968701Y531397D01*
X968323Y531355D01*
X967888Y531313D01*
X967664Y531257D01*
X967285Y531215D01*
X966977Y531186D01*
X966836Y531130D01*
X966472Y531102D01*
X966360Y531074D01*
X966065Y531032D01*
X965953Y531004D01*
X965813Y530976D01*
X965504Y530948D01*
X965196Y530892D01*
X965056Y530864D01*
X964887Y530836D01*
X964579Y530808D01*
X964298Y530752D01*
X964144Y530710D01*
X963948Y530682D01*
X963723Y530654D01*
X963583Y530597D01*
X963471Y530570D01*
X963120Y530527D01*
X963008Y530499D01*
X962854Y530457D01*
X962742Y530429D01*
X962461Y530401D01*
X962349Y530373D01*
X962153Y530317D01*
X962041Y530289D01*
X961690Y530247D01*
X961452Y530177D01*
X961255Y530149D01*
X961031Y530121D01*
X960947Y530093D01*
X960751Y530037D01*
X960344Y529966D01*
X960106Y529896D01*
X959909Y529868D01*
X959545Y529756D01*
X959320Y529728D01*
X959180Y529672D01*
X958984Y529616D01*
X958745Y529574D01*
X958605Y529518D01*
X958493Y529490D01*
X958325Y529462D01*
X958213Y529434D01*
X958072Y529378D01*
X957918Y529335D01*
X957722Y529308D01*
X957526Y529223D01*
X957329Y529195D01*
X957147Y529125D01*
X956993Y529083D01*
X956880Y529055D01*
X956712Y529027D01*
X956516Y528943D01*
X956264Y528887D01*
X956067Y528803D01*
X955899Y528775D01*
X955647Y528662D01*
X955478Y528634D01*
X955282Y528550D01*
X955170Y528522D01*
X955015Y528480D01*
X954861Y528410D01*
X954651Y528368D01*
X954469Y528270D01*
X954272Y528242D01*
X954216Y528186D01*
X954020Y528130D01*
X953838Y528059D01*
X953711Y528017D01*
X953487Y527961D01*
X953431Y527905D01*
X953207Y527849D01*
X953010Y527765D01*
X952814Y527709D01*
X952562Y527597D01*
X952379Y527527D01*
X952337Y527485D01*
X952155Y527443D01*
X951973Y527344D01*
X951818Y527302D01*
X951636Y527204D01*
X951454Y527162D01*
X951412Y527120D01*
X951356Y527092D01*
X951272Y527064D01*
X951159Y527036D01*
X951103Y527008D01*
X950963Y526924D01*
X950809Y526882D01*
X950626Y526783D01*
X950486Y526727D01*
X950010Y526503D01*
X949701Y526363D01*
X949645Y526335D01*
X949505Y526251D01*
X949393Y526223D01*
X949196Y526110D01*
X949168D01*
X948860Y525970D01*
X948804Y525942D01*
X948748Y525886D01*
X948607Y525830D01*
X948467Y525746D01*
X948215Y525606D01*
X948074Y525550D01*
X948018Y525521D01*
X947962Y525465D01*
X947780Y525395D01*
X947598Y525297D01*
X947457Y525213D01*
X947317Y525157D01*
X947261Y525129D01*
X947205Y525073D01*
X947065Y525017D01*
X947009Y524989D01*
X946840Y524876D01*
X946784Y524848D01*
X946728Y524792D01*
X946476Y524652D01*
X945887Y524316D01*
X945607Y524147D01*
X945410Y524035D01*
X945214Y523895D01*
X945172Y523881D01*
X945144Y523825D01*
X944919Y523600D01*
X944863Y523404D01*
X944807Y523264D01*
X944779Y523152D01*
X944807Y522787D01*
X944835Y522703D01*
X944947Y522507D01*
X945130Y522240D01*
X945396Y521974D01*
X945480Y521834D01*
X945592Y521637D01*
X945648Y521581D01*
X945677Y521469D01*
X945719Y521203D01*
X945775Y520978D01*
X945789Y520936D01*
X945761Y520852D01*
X945705Y520628D01*
X945677Y520431D01*
X945648Y520319D01*
X945564Y520235D01*
X945452Y520039D01*
X945186Y519688D01*
X942311Y516814D01*
X942339Y516729D01*
X942942Y516126D01*
X942984Y516112D01*
X943012Y516056D01*
X943195Y515874D01*
X943251Y515846D01*
X943307Y515762D01*
X943363Y515734D01*
X943405Y515692D01*
X943433Y515636D01*
X943517Y515580D01*
X943545Y515523D01*
X943587Y515481D01*
X943643Y515453D01*
X943685Y515411D01*
X943713Y515355D01*
X943868Y515341D01*
X943938Y515411D01*
X943952Y515453D01*
X944008Y515481D01*
X944471Y515944D01*
X944499Y516000D01*
X944597Y516070D01*
X944751Y516224D01*
X944765Y516267D01*
X944821Y516295D01*
X945032Y516505D01*
X945046Y516547D01*
X945102Y516575D01*
X945284Y516757D01*
X945298Y516799D01*
X945354Y516827D01*
X945424Y516898D01*
X945438Y516940D01*
X945494Y516968D01*
X946770Y518244D01*
X946798Y518300D01*
X946854Y518328D01*
X946883Y518384D01*
X947023Y518524D01*
X947051Y518580D01*
X947107Y518636D01*
X947135Y518692D01*
X947191Y518749D01*
X947219Y518805D01*
X947275Y518861D01*
X947359Y519001D01*
X947499Y519253D01*
X947668Y519618D01*
X947696Y519730D01*
X947738Y519884D01*
X947808Y520067D01*
X947836Y520263D01*
X947864Y520628D01*
X947920Y520824D01*
X947892Y521441D01*
X947864Y521525D01*
X947836Y521721D01*
X947794Y521988D01*
X947738Y522212D01*
X947724Y522394D01*
X947780Y522535D01*
X947808Y522647D01*
X947878Y522829D01*
X947948Y522899D01*
X948018Y523025D01*
X948074Y523054D01*
X948131Y523138D01*
X948271Y523222D01*
X948327Y523278D01*
X948439Y523306D01*
X948523Y523390D01*
X948635Y523418D01*
X948775Y523502D01*
X948916Y523558D01*
X948972Y523586D01*
X949028Y523642D01*
X949168Y523699D01*
X949308Y523783D01*
X949449Y523839D01*
X949505Y523867D01*
X949561Y523923D01*
X949743Y523993D01*
X949925Y524091D01*
X950234Y524231D01*
X950374Y524316D01*
X950514Y524372D01*
X950626Y524400D01*
X950711Y524484D01*
X950879Y524512D01*
X950935Y524568D01*
X950991Y524596D01*
X951131Y524652D01*
X951187Y524680D01*
X951243Y524736D01*
X951398Y524778D01*
X951580Y524876D01*
X951804Y524961D01*
X952001Y525045D01*
X952113Y525073D01*
X952169Y525129D01*
X952365Y525185D01*
X952618Y525297D01*
X952758Y525353D01*
X952954Y525437D01*
X953137Y525507D01*
X953179Y525550D01*
X953361Y525592D01*
X953655Y525718D01*
X953796Y525746D01*
X953992Y525830D01*
X954104Y525858D01*
X954356Y525970D01*
X954497Y525998D01*
X954637Y526082D01*
X954861Y526138D01*
X955114Y526251D01*
X955296Y526293D01*
X955450Y526363D01*
X955745Y526433D01*
X955899Y526503D01*
X956137Y526545D01*
X956292Y526615D01*
X956404Y526643D01*
X956614Y526685D01*
X956768Y526755D01*
X957063Y526826D01*
X957217Y526896D01*
X957512Y526966D01*
X957666Y527036D01*
X957904Y527078D01*
X958044Y527134D01*
X958171Y527176D01*
X958353Y527218D01*
X958451Y527260D01*
X958591Y527316D01*
X958844Y527344D01*
X959040Y527428D01*
X959236Y527457D01*
X959419Y527499D01*
X959601Y527569D01*
X960007Y527639D01*
X960246Y527709D01*
X960442Y527737D01*
X960596Y527779D01*
X960779Y527849D01*
X961101Y527891D01*
X961255Y527961D01*
X961452Y527989D01*
X961746Y528059D01*
X961901Y528102D01*
X962097Y528130D01*
X962391Y528200D01*
X962504Y528228D01*
X962672Y528256D01*
X962924Y528284D01*
X963064Y528312D01*
X963219Y528354D01*
X963331Y528382D01*
X963681Y528424D01*
X964018Y528508D01*
X964242Y528536D01*
X964410Y528564D01*
X964523Y528592D01*
X964677Y528634D01*
X964873Y528662D01*
X965140Y528705D01*
X965364Y528761D01*
X965504Y528789D01*
X965841Y528817D01*
X966009Y528845D01*
X966290Y528901D01*
X966514Y528929D01*
X966822Y528957D01*
X967243Y529041D01*
X967622Y529083D01*
X967888Y529125D01*
X968169Y529181D01*
X968477Y529209D01*
X968701Y529237D01*
X968842Y529265D01*
X969010Y529293D01*
X969388Y529335D01*
X969963Y529378D01*
X970300Y529434D01*
X970580Y529462D01*
X970973Y529490D01*
X971225Y529518D01*
X971366Y529546D01*
X971744Y529588D01*
X972459Y529658D01*
X972600Y529686D01*
X972978Y529728D01*
X973693Y529798D01*
X974030Y529854D01*
X974395Y529882D01*
X974731Y529911D01*
X974984Y529939D01*
X975096Y529966D01*
X975320Y529995D01*
X975797Y530023D01*
X976077Y530051D01*
X976245Y530079D01*
X976624Y530121D01*
X976820Y530149D01*
X977353Y530177D01*
X977437Y530205D01*
X977732Y530247D01*
X977984Y530275D01*
X978377Y530303D01*
X978629Y530331D01*
X978966Y530387D01*
X979246Y530415D01*
X979583Y530443D01*
X979751Y530471D01*
X980032Y530527D01*
X980340Y530555D01*
X980620Y530583D01*
X980789Y530612D01*
X981069Y530668D01*
X981322Y530696D01*
X981490Y530724D01*
X981644Y530766D01*
X981981Y530822D01*
X982275Y530864D01*
X982387Y530892D01*
X982542Y530934D01*
X982808Y530976D01*
X982920Y531004D01*
X983103Y531074D01*
X983369Y531116D01*
X983691Y531215D01*
X983958Y531257D01*
X984196Y531355D01*
X984350Y531397D01*
X984505Y531467D01*
X984617Y531495D01*
X984771Y531537D01*
X984925Y531607D01*
X985108Y531649D01*
X985290Y531747D01*
X985430Y531804D01*
X985486Y531860D01*
X985711Y531944D01*
X985767Y532000D01*
X985949Y532070D01*
X985991Y532112D01*
X986047Y532140D01*
X986300Y532280D01*
X986454Y532406D01*
X986594Y532491D01*
X986622Y532547D01*
X986720Y532617D01*
X986776Y532673D01*
X986917Y532757D01*
X987001Y532841D01*
X987057Y532869D01*
X987127Y532939D01*
X987211Y533079D01*
X987267Y533136D01*
X987295Y533248D01*
X987351Y533304D01*
X987379Y533416D01*
X987407Y533753D01*
X987379Y533837D01*
X987337Y533991D01*
X987239Y534201D01*
X987043Y534454D01*
X986874Y534566D01*
X986580Y534692D01*
X986384Y534720D01*
D02*
G37*
G36*
X940755Y515229D02*
X940600Y515103D01*
X940250Y514752D01*
X940208Y514738D01*
X940180Y514682D01*
X937754Y512256D01*
X937698Y512228D01*
X937586Y512116D01*
X937502Y512088D01*
X937305Y511948D01*
X937249Y511920D01*
X937193Y511864D01*
X936800Y511807D01*
X936660Y511751D01*
X936352Y511779D01*
X936267Y511807D01*
X936155Y511835D01*
X935959Y511864D01*
X935875Y511948D01*
X935679Y512060D01*
X935482Y512200D01*
X935314Y512368D01*
X935258Y512396D01*
X935146Y512509D01*
X935005Y512593D01*
X934753Y512705D01*
X934459Y512747D01*
X934332Y512761D01*
X934080Y512649D01*
X933940Y512593D01*
X933786Y512466D01*
X933561Y512242D01*
X933533Y512186D01*
X933421Y512018D01*
X933337Y511878D01*
X933225Y511681D01*
X933084Y511429D01*
X933028Y511373D01*
X933000Y511289D01*
X932888Y511120D01*
X932860Y511036D01*
X932804Y510980D01*
X932664Y510728D01*
X932552Y510531D01*
X932271Y510027D01*
X931710Y508961D01*
X931290Y508091D01*
X931234Y507951D01*
X931177Y507895D01*
X931149Y507783D01*
X931009Y507475D01*
X930729Y506886D01*
X930645Y506745D01*
X930616Y506661D01*
X930546Y506479D01*
X930504Y506437D01*
X930462Y506283D01*
X930406Y506142D01*
X930364Y506100D01*
X930322Y505918D01*
X930196Y505624D01*
X930140Y505483D01*
X930056Y505287D01*
X930027Y505175D01*
X929972Y505119D01*
X929915Y504922D01*
X929803Y504670D01*
X929761Y504516D01*
X929691Y504362D01*
X929663Y504249D01*
X929523Y503885D01*
X929481Y503731D01*
X929439Y503688D01*
X929383Y503492D01*
X929354Y503380D01*
X929242Y503128D01*
X929214Y502987D01*
X929158Y502931D01*
X929116Y502749D01*
X929088Y502637D01*
X929018Y502483D01*
X928990Y502370D01*
X928948Y502188D01*
X928906Y502146D01*
X928850Y501950D01*
X928822Y501753D01*
X928765Y501697D01*
X928724Y501515D01*
X928695Y501375D01*
X928625Y501221D01*
X928569Y500996D01*
X928499Y500814D01*
X928457Y500688D01*
X928415Y500477D01*
X928359Y500337D01*
X928317Y500183D01*
X928289Y499987D01*
X928205Y499790D01*
X928177Y499594D01*
X928106Y499412D01*
X928064Y499257D01*
X928036Y499145D01*
X927994Y498963D01*
X927924Y498809D01*
X927868Y498444D01*
X927784Y498248D01*
X927756Y497967D01*
X927672Y497771D01*
X927644Y497575D01*
X927602Y497364D01*
X927532Y497182D01*
X927461Y496775D01*
X927419Y496621D01*
X927391Y496509D01*
X927349Y496186D01*
X927321Y496046D01*
X927279Y495892D01*
X927251Y495780D01*
X927223Y495499D01*
X927139Y495191D01*
X927111Y495079D01*
X927069Y494756D01*
X927041Y494644D01*
X926999Y494490D01*
X926971Y494378D01*
X926943Y494069D01*
X926886Y493929D01*
X926844Y493775D01*
X926816Y493522D01*
X926788Y493382D01*
X926732Y493158D01*
X926690Y492779D01*
X926634Y492415D01*
X926606Y492330D01*
X926578Y492218D01*
X926536Y491755D01*
X926480Y491531D01*
X926452Y491363D01*
X926424Y491082D01*
X926368Y490774D01*
X926340Y490634D01*
X926312Y490465D01*
X926283Y490185D01*
X926227Y489848D01*
X926199Y489736D01*
X926115Y488979D01*
X926087Y488811D01*
X926059Y488670D01*
X926031Y488334D01*
X926003Y487969D01*
X925975Y487745D01*
X925947Y487633D01*
X925905Y487254D01*
X925877Y486890D01*
X925821Y486497D01*
X925793Y486385D01*
X925765Y486104D01*
X925723Y485614D01*
X925667Y485277D01*
X925638Y485053D01*
X925611Y484604D01*
X925582Y484352D01*
X925554Y484127D01*
X925512Y483749D01*
X925484Y483552D01*
X925456Y482935D01*
X925428Y482851D01*
X925386Y482585D01*
X925330Y481856D01*
X925302Y481631D01*
X925274Y481463D01*
X925246Y481239D01*
X925218Y480902D01*
X925190Y480537D01*
X925162Y480369D01*
X925134Y480229D01*
X925092Y479850D01*
X925050Y479304D01*
X924994Y478967D01*
X924965Y478715D01*
X924937Y478378D01*
X924909Y478210D01*
X924853Y477929D01*
X924825Y477761D01*
X924797Y477396D01*
X924769Y477228D01*
X924741Y477116D01*
X924713Y476976D01*
X924685Y476751D01*
X924657Y476471D01*
X924629Y476331D01*
X924601Y476219D01*
X924573Y476050D01*
X924517Y475546D01*
X924489Y475433D01*
X924447Y475307D01*
X924419Y475195D01*
X924376Y474929D01*
X924306Y474746D01*
X924278Y474550D01*
X924236Y474339D01*
X924180Y474199D01*
X924138Y474045D01*
X924110Y473877D01*
X924026Y473680D01*
X923984Y473498D01*
X923928Y473358D01*
X923858Y473176D01*
X923773Y473035D01*
X923746Y472951D01*
X923605Y472643D01*
X923521Y472503D01*
X923381Y472306D01*
X923325Y472250D01*
X923283Y472152D01*
X923227Y472124D01*
X923129Y471970D01*
X923072Y471914D01*
X922988Y471773D01*
X922932Y471717D01*
X922904Y471605D01*
X922820Y471409D01*
X922792Y471128D01*
X922820Y470932D01*
X922876Y470792D01*
X922988Y470596D01*
X923044Y470540D01*
X923129Y470399D01*
X923283Y470301D01*
X923339Y470245D01*
X923521Y470175D01*
X923675Y470133D01*
X923872Y470105D01*
X924068Y470133D01*
X924180Y470161D01*
X924433Y470301D01*
X924489Y470357D01*
X924629Y470441D01*
X924671Y470483D01*
X924699Y470540D01*
X924811Y470652D01*
X924853Y470750D01*
X924909Y470778D01*
X924979Y470876D01*
X925035Y470932D01*
X925064Y470988D01*
X925190Y471142D01*
X925260Y471241D01*
X925428Y471549D01*
X925484Y471689D01*
X925568Y471830D01*
X925877Y472474D01*
X925919Y472657D01*
X926017Y472895D01*
X926059Y473049D01*
X926129Y473204D01*
X926185Y473428D01*
X926270Y473624D01*
X926298Y473821D01*
X926340Y474003D01*
X926410Y474241D01*
X926438Y474438D01*
X926466Y474550D01*
X926522Y474690D01*
X926550Y474802D01*
X926592Y475153D01*
X926634Y475307D01*
X926662Y475419D01*
X926732Y475910D01*
X926788Y476134D01*
X926816Y476303D01*
X926844Y476555D01*
X926873Y476723D01*
X926900Y476864D01*
X926929Y476976D01*
X926957Y477200D01*
X926985Y477537D01*
X927013Y477761D01*
X927041Y477929D01*
X927069Y478042D01*
X927097Y478350D01*
X927125Y478715D01*
X927181Y479079D01*
X927209Y479304D01*
X927265Y480033D01*
X927293Y480201D01*
X927321Y480341D01*
X927349Y480566D01*
X927377Y480930D01*
X927405Y481267D01*
X927433Y481435D01*
X927475Y481813D01*
X927503Y482010D01*
X927532Y482543D01*
X927560Y482627D01*
X927616Y483019D01*
X927658Y483622D01*
X927686Y483875D01*
X927714Y484015D01*
X927756Y484394D01*
X927784Y484758D01*
X927826Y485137D01*
X927854Y485249D01*
X927882Y485473D01*
X927910Y485810D01*
X927938Y486118D01*
X927966Y486343D01*
X927994Y486483D01*
X928022Y486707D01*
X928078Y487408D01*
X928135Y487745D01*
X928163Y487997D01*
X928191Y488502D01*
X928219Y488670D01*
X928247Y488783D01*
X928275Y488923D01*
X928303Y489175D01*
X928331Y489456D01*
X928345Y489526D01*
Y489554D01*
X928415Y489876D01*
X928443Y490129D01*
X928471Y490409D01*
X928499Y490578D01*
X928527Y490690D01*
X928555Y490858D01*
X928583Y491110D01*
X928611Y491335D01*
X928667Y491615D01*
X928695Y491783D01*
X928724Y492036D01*
X928751Y492204D01*
X928836Y492541D01*
X928864Y492821D01*
X928892Y492961D01*
X928934Y493116D01*
X928962Y493228D01*
X928990Y493424D01*
X929018Y493677D01*
X929046Y493761D01*
X929074Y493873D01*
X929102Y494069D01*
X929130Y494181D01*
X929158Y494490D01*
X929214Y494630D01*
X929270Y495023D01*
X929298Y495191D01*
X929354Y495331D01*
X929383Y495527D01*
X929410Y495696D01*
X929467Y495836D01*
X929523Y496060D01*
X929551Y496285D01*
X929607Y496425D01*
X929635Y496537D01*
X929677Y496775D01*
X929705Y496916D01*
X929761Y497056D01*
X929817Y497392D01*
X929915Y497715D01*
X929957Y497981D01*
X930013Y498122D01*
X930042Y498262D01*
X930070Y498430D01*
X930098Y498542D01*
X930168Y498781D01*
X930238Y499075D01*
X930308Y499229D01*
X930336Y499341D01*
X930364Y499510D01*
X930448Y499706D01*
X930476Y499818D01*
X930518Y499972D01*
X930588Y500127D01*
X930616Y500351D01*
X930729Y500604D01*
X930771Y500814D01*
X930841Y500968D01*
X930869Y501080D01*
X930911Y501263D01*
X930967Y501403D01*
X931009Y501557D01*
X931037Y501725D01*
X931093Y501781D01*
X931177Y502174D01*
X931262Y502370D01*
X931304Y502553D01*
X931346Y502595D01*
X931402Y502791D01*
X931472Y502973D01*
X931542Y503128D01*
X931570Y503296D01*
X931626Y503352D01*
X931682Y503576D01*
X931794Y503829D01*
X931836Y504011D01*
X931878Y504053D01*
X931935Y504193D01*
X931977Y504348D01*
X932047Y504474D01*
X932131Y504698D01*
X932215Y504894D01*
X932243Y505007D01*
X932327Y505147D01*
X932369Y505301D01*
X932467Y505483D01*
X932510Y505638D01*
X932636Y505932D01*
X932664Y505988D01*
X932888Y506465D01*
X933169Y507082D01*
X933645Y508007D01*
X933701Y508148D01*
X933729Y508204D01*
X933842Y508372D01*
X933870Y508484D01*
X933954Y508568D01*
X933996Y508722D01*
X934066Y508793D01*
X934136Y508975D01*
X934234Y509157D01*
X934318Y509298D01*
X934375Y509354D01*
X934402Y509410D01*
X934557Y509564D01*
X934613Y509592D01*
X934669Y509648D01*
X934935Y509746D01*
X935062Y509788D01*
X935482Y509760D01*
X935566Y509732D01*
X935679Y509704D01*
X936352Y509620D01*
X936464Y509592D01*
X936828Y509620D01*
X936913Y509648D01*
X937347Y509690D01*
X937488Y509718D01*
X937628Y509774D01*
X937782Y509816D01*
X937950Y509844D01*
X938006Y509900D01*
X938146Y509957D01*
X938287Y510041D01*
X938539Y510181D01*
X938735Y510293D01*
X938820Y510377D01*
X938876Y510405D01*
X938988Y510517D01*
X939044Y510545D01*
X939240Y510742D01*
X939296Y510770D01*
X939367Y510840D01*
X939380Y510882D01*
X939437Y510910D01*
X939647Y511120D01*
X939661Y511162D01*
X939717Y511191D01*
X939899Y511373D01*
X939913Y511415D01*
X939969Y511443D01*
X940040Y511513D01*
X940054Y511555D01*
X940110Y511583D01*
X941526Y512999D01*
X941540Y513041D01*
X941596Y513069D01*
X941778Y513252D01*
X941792Y513294D01*
X941848Y513322D01*
X941919Y513392D01*
X941933Y513434D01*
X941989Y513462D01*
X942059Y513532D01*
X942087Y513588D01*
X942199Y513672D01*
X942227Y513785D01*
X942199Y513841D01*
X942157Y513883D01*
X942101Y513911D01*
X941919Y514093D01*
X941891Y514149D01*
X941203Y514836D01*
X941147Y514864D01*
X941035Y515005D01*
X940979Y515033D01*
X940909Y515103D01*
X940881Y515159D01*
X940839Y515201D01*
X940755Y515229D01*
D02*
G37*
G36*
X943868Y512172D02*
X943727Y512144D01*
X943657Y512102D01*
X943629Y512046D01*
X942998Y511415D01*
X942942Y511387D01*
X942704Y511148D01*
X942676Y511092D01*
X942521Y510938D01*
X942465Y510910D01*
X942395Y510840D01*
X942381Y510798D01*
X942325Y510770D01*
X942255Y510672D01*
X942213Y510630D01*
X942171Y510616D01*
X942143Y510560D01*
X942101Y510517D01*
X942045Y510489D01*
X941975Y510391D01*
X941806Y510251D01*
X941750Y510195D01*
X941722Y510139D01*
X941610Y510055D01*
X941582Y509999D01*
X941147Y509564D01*
X941105Y509550D01*
X941077Y509494D01*
X940755Y509171D01*
X940699Y509143D01*
X940586Y509031D01*
X940530Y509003D01*
X940460Y508961D01*
X940432Y508905D01*
X940292Y508821D01*
X940278Y508779D01*
X940222Y508751D01*
X940110Y508638D01*
X940054Y508610D01*
X939941Y508498D01*
X939801Y508414D01*
X939549Y508274D01*
X939016Y507993D01*
X938623Y507825D01*
X938511Y507797D01*
X938357Y507755D01*
X938175Y507685D01*
X937880Y507615D01*
X937726Y507545D01*
X937095Y507503D01*
X936520Y507433D01*
X936085Y507475D01*
X935819Y507489D01*
X935749Y507418D01*
X935496Y506942D01*
X935440Y506802D01*
X935356Y506661D01*
X935300Y506521D01*
X935160Y506213D01*
X935132Y506156D01*
X935076Y506100D01*
X934991Y505876D01*
X934935Y505820D01*
X934893Y505638D01*
X934795Y505455D01*
X934725Y505273D01*
X934683Y505231D01*
X934627Y505035D01*
X934599Y504979D01*
X934487Y504726D01*
X934402Y504586D01*
X934375Y504502D01*
X934318Y504362D01*
X934234Y504165D01*
X934206Y504053D01*
X934094Y503801D01*
X934038Y503660D01*
X933954Y503464D01*
X933926Y503352D01*
X933842Y503156D01*
X933772Y502973D01*
X933729Y502931D01*
X933687Y502749D01*
X933631Y502609D01*
X933589Y502567D01*
X933519Y502272D01*
X933449Y502118D01*
X933421Y502006D01*
X933379Y501852D01*
X933337Y501810D01*
X933309Y501697D01*
X933267Y501515D01*
X933197Y501389D01*
X933169Y501277D01*
X933127Y501122D01*
X933056Y500968D01*
X933028Y500856D01*
X932986Y500674D01*
X932930Y500533D01*
X932888Y500379D01*
X932860Y500211D01*
X932776Y500015D01*
X932748Y499818D01*
X932636Y499566D01*
X932594Y499299D01*
X932495Y499061D01*
X932453Y498851D01*
X932383Y498697D01*
X932355Y498584D01*
X932313Y498374D01*
X932243Y498220D01*
X932215Y498023D01*
X932117Y497757D01*
X932089Y497617D01*
X932047Y497350D01*
X931991Y497210D01*
X931963Y497098D01*
X931907Y496733D01*
X931822Y496537D01*
X931794Y496257D01*
X931738Y496116D01*
X931682Y495892D01*
X931640Y495626D01*
X931570Y495387D01*
X931542Y495275D01*
X931514Y495051D01*
X931458Y494910D01*
X931430Y494798D01*
X931388Y494532D01*
X931360Y494420D01*
X931318Y494265D01*
X931290Y494153D01*
X931219Y493634D01*
X931163Y493410D01*
X931135Y493158D01*
X931107Y492989D01*
X931079Y492849D01*
X931037Y492695D01*
X930967Y492204D01*
X930911Y491980D01*
X930883Y491812D01*
X930855Y491559D01*
X930827Y491419D01*
X930785Y491265D01*
X930757Y491068D01*
X930729Y490956D01*
X930701Y490591D01*
X930673Y490507D01*
X930645Y490311D01*
X930616Y490199D01*
X930574Y489764D01*
X930546Y489596D01*
X930518Y489484D01*
X930490Y489316D01*
X930434Y488755D01*
X930406Y488642D01*
X930378Y488502D01*
X930350Y488278D01*
X930294Y487661D01*
X930266Y487521D01*
X930238Y487352D01*
X930210Y487072D01*
X930154Y486427D01*
X930126Y486259D01*
X930084Y485880D01*
X930013Y485193D01*
X929986Y485053D01*
X929943Y484674D01*
X929915Y484225D01*
X929887Y484029D01*
X929831Y483693D01*
X929775Y482963D01*
X929733Y482641D01*
X929705Y482473D01*
X929677Y482220D01*
X929621Y481547D01*
X929593Y481323D01*
X929565Y481154D01*
X929537Y480874D01*
X929509Y480425D01*
X929481Y480173D01*
X929453Y480005D01*
X929410Y479626D01*
X929383Y479177D01*
X929340Y478939D01*
X929284Y478602D01*
X929256Y478294D01*
X929228Y477957D01*
X929172Y477649D01*
X929144Y477481D01*
X929116Y477144D01*
X929102Y477018D01*
X929144Y476976D01*
X929228Y477004D01*
X929383Y477158D01*
X929410Y477214D01*
X929509Y477284D01*
X929551Y477326D01*
X929579Y477382D01*
X929635Y477411D01*
X929663Y477466D01*
X929705Y477509D01*
X929761Y477537D01*
X929831Y477635D01*
X929929Y477705D01*
X929957Y477761D01*
X930013Y477789D01*
X930056Y477831D01*
X930084Y477887D01*
X930182Y477957D01*
X930238Y478042D01*
X930294Y478069D01*
X930336Y478112D01*
X930364Y478168D01*
X930462Y478238D01*
X930490Y478294D01*
X930546Y478322D01*
X930616Y478392D01*
X930645Y478448D01*
X930729Y478504D01*
X930757Y478560D01*
X930897Y478673D01*
X930911Y478715D01*
X930967Y478743D01*
X931009Y478785D01*
X931037Y478841D01*
X931149Y478925D01*
X931177Y478981D01*
X931262Y479037D01*
X931290Y479093D01*
X931332Y479135D01*
X931388Y479163D01*
X931458Y479261D01*
X931570Y479346D01*
X931584Y479388D01*
X931640Y479416D01*
X931682Y479458D01*
X931710Y479514D01*
X931822Y479598D01*
X931851Y479654D01*
X931963Y479738D01*
X931991Y479794D01*
X932075Y479850D01*
X932103Y479906D01*
X932201Y479977D01*
X932243Y480019D01*
X932271Y480075D01*
X932327Y480103D01*
X932355Y480159D01*
X932397Y480201D01*
X932453Y480229D01*
X932524Y480327D01*
X932622Y480397D01*
X932678Y480481D01*
X932734Y480509D01*
X932790Y480593D01*
X932846Y480622D01*
X932888Y480664D01*
X932916Y480720D01*
X933014Y480790D01*
X933070Y480874D01*
X933127Y480902D01*
X933169Y480944D01*
X933197Y481000D01*
X933295Y481070D01*
X933323Y481126D01*
X933379Y481154D01*
X933421Y481196D01*
X933449Y481253D01*
X933491Y481295D01*
X933547Y481323D01*
X933603Y481407D01*
X933659Y481435D01*
X933701Y481477D01*
X933729Y481533D01*
X933828Y481603D01*
X933884Y481687D01*
X933940Y481715D01*
X934024Y481827D01*
X934080Y481856D01*
X934122Y481898D01*
X934136Y481940D01*
X934192Y481968D01*
X934234Y482010D01*
X934262Y482066D01*
X934375Y482150D01*
X934402Y482206D01*
X934515Y482290D01*
X934543Y482346D01*
X934655Y482431D01*
X934669Y482473D01*
X934725Y482501D01*
X934795Y482571D01*
X934809Y482613D01*
X934865Y482641D01*
X934907Y482683D01*
X934935Y482739D01*
X935118Y482921D01*
X935160Y482935D01*
X935188Y482991D01*
X935230Y483033D01*
X935286Y483062D01*
X935328Y483104D01*
X935342Y483146D01*
X935398Y483174D01*
X935468Y483244D01*
X935482Y483286D01*
X935538Y483314D01*
X935580Y483356D01*
X935608Y483412D01*
X935707Y483482D01*
X935763Y483566D01*
X935819Y483594D01*
X935861Y483636D01*
X935889Y483693D01*
X935973Y483749D01*
X936001Y483805D01*
X936043Y483847D01*
X936099Y483875D01*
X936169Y483973D01*
X936267Y484043D01*
X936296Y484099D01*
X936352Y484127D01*
X936394Y484169D01*
X936422Y484225D01*
X936520Y484296D01*
X936576Y484380D01*
X936632Y484408D01*
X936702Y484506D01*
X936786Y484562D01*
X936814Y484618D01*
X936856Y484660D01*
X936913Y484688D01*
X936969Y484772D01*
X937025Y484800D01*
X937067Y484842D01*
X937095Y484898D01*
X937179Y484955D01*
X937207Y485011D01*
X937249Y485053D01*
X937305Y485081D01*
X937347Y485123D01*
X937375Y485179D01*
X937459Y485235D01*
X937488Y485291D01*
X937586Y485361D01*
X937656Y485459D01*
X937922Y485726D01*
X937978Y485754D01*
X938048Y485852D01*
X938132Y485908D01*
X938161Y485964D01*
X938259Y486034D01*
X938315Y486118D01*
X938371Y486146D01*
X938441Y486216D01*
X938455Y486259D01*
X938511Y486287D01*
X938553Y486329D01*
X938581Y486385D01*
X938679Y486455D01*
X938707Y486511D01*
X938764Y486539D01*
X938806Y486581D01*
X938834Y486637D01*
X938876Y486679D01*
X938932Y486707D01*
X938988Y486792D01*
X939044Y486820D01*
X939086Y486862D01*
X939114Y486918D01*
X939212Y486988D01*
X939268Y487072D01*
X939324Y487100D01*
X939408Y487212D01*
X939465Y487240D01*
X939507Y487282D01*
X939535Y487338D01*
X939619Y487394D01*
X939647Y487451D01*
X939759Y487535D01*
X939787Y487591D01*
X939899Y487675D01*
X939927Y487731D01*
X940012Y487787D01*
X940040Y487843D01*
X940082Y487885D01*
X940138Y487913D01*
X940180Y487955D01*
X940194Y487997D01*
X940250Y488025D01*
X940292Y488067D01*
X940320Y488124D01*
X940502Y488306D01*
X940544Y488320D01*
X940572Y488376D01*
X940615Y488418D01*
X940671Y488446D01*
X940713Y488488D01*
X940727Y488530D01*
X940783Y488558D01*
X940825Y488600D01*
X940853Y488656D01*
X940951Y488727D01*
X941007Y488811D01*
X941063Y488839D01*
X941105Y488881D01*
X941133Y488937D01*
X941232Y489007D01*
X941288Y489091D01*
X941344Y489119D01*
X941414Y489217D01*
X941498Y489273D01*
X941526Y489329D01*
X941540Y489344D01*
X941638Y489414D01*
X941666Y489470D01*
X941778Y489554D01*
X941806Y489610D01*
X941919Y489694D01*
X941947Y489750D01*
X942031Y489806D01*
X942059Y489862D01*
X942101Y489904D01*
X942157Y489932D01*
X942241Y490045D01*
X942297Y490073D01*
X942353Y490157D01*
X942409Y490185D01*
X942451Y490227D01*
X942480Y490283D01*
X942564Y490339D01*
X942592Y490395D01*
X942634Y490437D01*
X942690Y490465D01*
X942732Y490507D01*
X942760Y490563D01*
X942844Y490620D01*
X942872Y490676D01*
X942914Y490718D01*
X942970Y490746D01*
X943054Y490858D01*
X943097Y490872D01*
X943124Y490928D01*
X943195Y490998D01*
X943251Y491026D01*
X943307Y491110D01*
X943363Y491138D01*
X943433Y491237D01*
X943517Y491293D01*
X943545Y491349D01*
X943587Y491391D01*
X943643Y491419D01*
X943699Y491503D01*
X943756Y491531D01*
X943798Y491573D01*
X943826Y491629D01*
X943924Y491699D01*
X943980Y491783D01*
X944036Y491812D01*
X944078Y491854D01*
X944106Y491910D01*
X944190Y491966D01*
X944218Y492022D01*
X944260Y492064D01*
X944316Y492092D01*
X944372Y492176D01*
X944429Y492204D01*
X944471Y492246D01*
X944499Y492302D01*
X944611Y492386D01*
X944639Y492443D01*
X944723Y492499D01*
X944751Y492555D01*
X944793Y492597D01*
X944849Y492625D01*
X944933Y492737D01*
X944989Y492765D01*
X945046Y492849D01*
X945102Y492877D01*
X945144Y492919D01*
X945172Y492975D01*
X945270Y493046D01*
X945326Y493130D01*
X945382Y493158D01*
X945466Y493270D01*
X945522Y493298D01*
X945564Y493340D01*
X945592Y493396D01*
X945677Y493452D01*
X945705Y493508D01*
X945887Y493690D01*
X945929Y493705D01*
X945957Y493761D01*
X945999Y493803D01*
X946055Y493831D01*
X946097Y493873D01*
X946125Y493929D01*
X946209Y493985D01*
X946237Y494041D01*
X946350Y494125D01*
X946378Y494181D01*
X946420Y494223D01*
X946476Y494251D01*
X946532Y494336D01*
X946588Y494364D01*
X946630Y494406D01*
X946658Y494462D01*
X946742Y494518D01*
X946770Y494574D01*
X946812Y494616D01*
X946869Y494644D01*
X946939Y494742D01*
X947023Y494798D01*
X947051Y494854D01*
X947149Y494924D01*
X947205Y495009D01*
X947261Y495037D01*
X947303Y495079D01*
X947331Y495135D01*
X947415Y495191D01*
X947443Y495247D01*
X947486Y495289D01*
X947542Y495317D01*
X947612Y495415D01*
X947696Y495471D01*
X947724Y495527D01*
X947836Y495612D01*
X947864Y495668D01*
X947948Y495724D01*
X947976Y495780D01*
X948018Y495822D01*
X948074Y495850D01*
X948116Y495892D01*
X948145Y495948D01*
X948229Y496004D01*
X948257Y496060D01*
X948299Y496102D01*
X948355Y496130D01*
X948495Y496299D01*
X948691Y496495D01*
X948748Y496523D01*
X948832Y496635D01*
X948888Y496663D01*
X948972Y496775D01*
X949028Y496804D01*
X949084Y496888D01*
X949140Y496916D01*
X949182Y496958D01*
X949210Y497014D01*
X949308Y497084D01*
X949364Y497168D01*
X949421Y497196D01*
X949505Y497308D01*
X949561Y497336D01*
X949645Y497448D01*
X949701Y497477D01*
X949757Y497561D01*
X949813Y497589D01*
X949855Y497631D01*
X949883Y497687D01*
X949996Y497771D01*
X950023Y497827D01*
X950108Y497883D01*
X950136Y497939D01*
X950178Y497981D01*
X950234Y498009D01*
X950304Y498108D01*
X950388Y498164D01*
X950416Y498220D01*
X950514Y498290D01*
X950570Y498374D01*
X950626Y498402D01*
X950669Y498444D01*
X950697Y498500D01*
X950781Y498556D01*
X950809Y498612D01*
X950851Y498654D01*
X950907Y498682D01*
X950977Y498781D01*
X951061Y498837D01*
X951089Y498893D01*
X951272Y499075D01*
X951314Y499089D01*
X951342Y499145D01*
X951384Y499187D01*
X951440Y499215D01*
X951524Y499328D01*
X951580Y499356D01*
X951664Y499468D01*
X951720Y499496D01*
X951804Y499608D01*
X951861Y499636D01*
X951917Y499720D01*
X951973Y499748D01*
X952015Y499790D01*
X952043Y499846D01*
X952127Y499902D01*
X952155Y499959D01*
X952197Y500001D01*
X952253Y500029D01*
X952337Y500141D01*
X952393Y500169D01*
X952477Y500281D01*
X952534Y500309D01*
X952590Y500393D01*
X952646Y500421D01*
X952688Y500463D01*
X952716Y500519D01*
X952800Y500575D01*
X952828Y500632D01*
X952870Y500674D01*
X952926Y500702D01*
X952996Y500800D01*
X953080Y500856D01*
X953109Y500912D01*
X953221Y500996D01*
X953249Y501052D01*
X953333Y501108D01*
X953361Y501164D01*
X953403Y501206D01*
X953459Y501235D01*
X953501Y501277D01*
X953529Y501333D01*
X953613Y501389D01*
X953641Y501445D01*
X953683Y501487D01*
X953739Y501515D01*
X953810Y501613D01*
X953866Y501641D01*
X953894Y501697D01*
X953964Y501767D01*
X954006Y501781D01*
X954090Y501950D01*
X953515Y502525D01*
X953459Y502553D01*
X953389Y502623D01*
X953361Y502679D01*
X953179Y502861D01*
X953123Y502889D01*
X953052Y502987D01*
X952898Y503142D01*
X952842Y503170D01*
X952800Y503212D01*
X952772Y503268D01*
X952365Y503675D01*
X952323Y503688D01*
X952295Y503745D01*
X952085Y503955D01*
X952043Y503969D01*
X952015Y504025D01*
X951973Y504067D01*
X951931Y504081D01*
X951902Y504137D01*
X950739Y505301D01*
X950683Y505329D01*
X950613Y505427D01*
X950206Y505834D01*
X950164Y505848D01*
X950136Y505904D01*
X949813Y506227D01*
X949771Y506241D01*
X949743Y506297D01*
X949449Y506591D01*
X949407Y506605D01*
X949378Y506661D01*
X949140Y506900D01*
X949084Y506928D01*
X949014Y507026D01*
X948958Y507054D01*
X948930Y507110D01*
X948102Y507937D01*
X948046Y507965D01*
X948004Y508007D01*
X947976Y508064D01*
X947794Y508246D01*
X947738Y508274D01*
X947668Y508372D01*
X947513Y508526D01*
X947457Y508554D01*
X947415Y508596D01*
X947387Y508652D01*
X946981Y509059D01*
X946939Y509073D01*
X946910Y509129D01*
X946700Y509340D01*
X946658Y509354D01*
X946630Y509410D01*
X946588Y509452D01*
X946546Y509466D01*
X946518Y509522D01*
X945354Y510686D01*
X945298Y510714D01*
X945228Y510812D01*
X944877Y511162D01*
X944821Y511191D01*
X944779Y511233D01*
X944751Y511289D01*
X944709Y511331D01*
X944653Y511359D01*
X944611Y511401D01*
X944583Y511457D01*
X943868Y512172D01*
D02*
G37*
G36*
X980410Y528410D02*
X980298Y528382D01*
X979976Y528340D01*
X979639Y528284D01*
X979274Y528256D01*
X979022Y528228D01*
X978685Y528172D01*
X978307Y528130D01*
X977942Y528102D01*
X977858Y528074D01*
X977536Y528031D01*
X977227Y528003D01*
X976582Y527947D01*
X976203Y527905D01*
X976091Y527877D01*
X975152Y527807D01*
X975012Y527779D01*
X974787Y527751D01*
X974423Y527723D01*
X974086Y527695D01*
X973750Y527639D01*
X973525Y527611D01*
X972852Y527555D01*
X972515Y527499D01*
X972291Y527470D01*
X971842Y527443D01*
X971618Y527415D01*
X971253Y527358D01*
X971001Y527330D01*
X970328Y527274D01*
X970160Y527246D01*
X969781Y527204D01*
X969332Y527176D01*
X969010Y527106D01*
X968842Y527078D01*
X968533Y527050D01*
X968309Y527022D01*
X968141Y526994D01*
X967860Y526938D01*
X967552Y526910D01*
X967327Y526882D01*
X967187Y526854D01*
X967075Y526826D01*
X966907Y526797D01*
X966570Y526769D01*
X966261Y526713D01*
X966149Y526685D01*
X966009Y526657D01*
X965729Y526629D01*
X965588Y526601D01*
X965434Y526559D01*
X965238Y526531D01*
X965126Y526503D01*
X964845Y526475D01*
X964705Y526419D01*
X964425Y526391D01*
X964158Y526349D01*
X964046Y526321D01*
X963906Y526293D01*
X963794Y526265D01*
X963513Y526237D01*
X963233Y526181D01*
X962994Y526110D01*
X962714Y526082D01*
X962518Y525998D01*
X962237Y525970D01*
X962125Y525942D01*
X961985Y525886D01*
X961872Y525858D01*
X961508Y525802D01*
X961368Y525746D01*
X961255Y525718D01*
X960961Y525676D01*
X960639Y525577D01*
X960386Y525550D01*
X960246Y525493D01*
X960134Y525465D01*
X959937Y525437D01*
X959755Y525395D01*
X959601Y525325D01*
X959404Y525297D01*
X959040Y525157D01*
X958844Y525129D01*
X958647Y525045D01*
X958451Y525017D01*
X958255Y524932D01*
X958142Y524904D01*
X957960Y524862D01*
X957820Y524806D01*
X957666Y524764D01*
X957455Y524722D01*
X957301Y524652D01*
X956979Y524582D01*
X956824Y524512D01*
X956628Y524484D01*
X956432Y524400D01*
X956207Y524343D01*
X956011Y524259D01*
X955787Y524203D01*
X955731Y524175D01*
X955534Y524091D01*
X955366Y524063D01*
X955114Y523951D01*
X954974Y523923D01*
X954777Y523839D01*
X954595Y523769D01*
X954441Y523699D01*
X954286Y523656D01*
X954104Y523558D01*
X953950Y523516D01*
X953711Y523418D01*
X953599Y523390D01*
X953459Y523306D01*
X953305Y523264D01*
X953010Y523138D01*
X952926Y523110D01*
X952786Y523025D01*
X952674Y522997D01*
X952618Y522969D01*
X952365Y522857D01*
X952309Y522829D01*
X952113Y522745D01*
X951804Y522605D01*
X951664Y522549D01*
X951608Y522493D01*
X951468Y522465D01*
X951412Y522408D01*
X951356Y522380D01*
X951272Y522352D01*
X950851Y522128D01*
X950711Y522072D01*
X950290Y521847D01*
X950150Y521792D01*
X950094Y521763D01*
X950052Y521721D01*
X950023Y521609D01*
X950066Y521118D01*
X950080Y520740D01*
X950052Y520656D01*
X950023Y520543D01*
X949996Y520095D01*
X949967Y519898D01*
X949939Y519674D01*
X949855Y519478D01*
X949813Y519267D01*
X949743Y519141D01*
X949673Y518847D01*
X949603Y518692D01*
X949561Y518538D01*
X949491Y518468D01*
X949435Y518328D01*
X949350Y518188D01*
X949098Y517711D01*
X948958Y517515D01*
X948902Y517458D01*
X948874Y517402D01*
X948761Y517290D01*
X948734Y517234D01*
X948621Y517122D01*
X948593Y517066D01*
X948537Y517038D01*
X948509Y516982D01*
X948383Y516827D01*
X948201Y516645D01*
X948187Y516603D01*
X948131Y516575D01*
X948060Y516505D01*
X948032Y516449D01*
X947948Y516393D01*
X947920Y516337D01*
X947822Y516267D01*
X947752Y516168D01*
X947486Y515902D01*
X947429Y515874D01*
X947345Y515762D01*
X947289Y515734D01*
X947163Y515608D01*
X947135Y515552D01*
X947065Y515481D01*
X947009Y515453D01*
X946869Y515285D01*
X945789Y514205D01*
X945775Y514191D01*
X945578Y513995D01*
X945536Y513981D01*
X945508Y513925D01*
X945438Y513855D01*
X945396Y513841D01*
X945368Y513729D01*
X945494Y513574D01*
X945634Y513434D01*
X945677Y513420D01*
X945705Y513364D01*
X945747Y513322D01*
X945803Y513294D01*
X945887Y513182D01*
X945929Y513168D01*
X945957Y513112D01*
X945999Y513069D01*
X946055Y513041D01*
X946097Y512999D01*
X946125Y512943D01*
X946224Y512873D01*
X946280Y512789D01*
X946336Y512761D01*
X946406Y512663D01*
X946462Y512635D01*
X946490Y512579D01*
X947233Y511835D01*
X947289Y511807D01*
X947359Y511709D01*
X947654Y511415D01*
X947696Y511401D01*
X947724Y511345D01*
X948299Y510770D01*
X948355Y510742D01*
X948425Y510644D01*
X948509Y510588D01*
X948537Y510531D01*
X948579Y510489D01*
X948635Y510461D01*
X948705Y510363D01*
X948790Y510307D01*
X948818Y510251D01*
X948972Y510097D01*
X949028Y510069D01*
X949168Y509900D01*
X949393Y509676D01*
X949435Y509662D01*
X949463Y509606D01*
X949785Y509283D01*
X949841Y509255D01*
X949911Y509157D01*
X950066Y509003D01*
X950108Y508989D01*
X950136Y508933D01*
X950879Y508190D01*
X950921Y508176D01*
X950949Y508120D01*
X951131Y507937D01*
X951187Y507909D01*
X951258Y507811D01*
X951384Y507685D01*
X951440Y507657D01*
X951482Y507615D01*
X951510Y507559D01*
X951608Y507489D01*
X951664Y507404D01*
X951720Y507376D01*
X951790Y507278D01*
X951847Y507250D01*
X951875Y507194D01*
X952618Y506451D01*
X952660Y506437D01*
X952688Y506381D01*
X953038Y506030D01*
X953080Y506016D01*
X953109Y505960D01*
X953711Y505357D01*
X953753Y505343D01*
X953782Y505287D01*
X953824Y505245D01*
X953880Y505217D01*
X953950Y505119D01*
X954034Y505063D01*
X954062Y505007D01*
X954104Y504964D01*
X954160Y504937D01*
X954216Y504852D01*
X954272Y504824D01*
X954314Y504782D01*
X954342Y504726D01*
X954427Y504670D01*
X954455Y504614D01*
X954777Y504291D01*
X954819Y504277D01*
X954847Y504221D01*
X955562Y503506D01*
X955675Y503478D01*
X955773Y503548D01*
X955801Y503604D01*
X955899Y503675D01*
X955955Y503759D01*
X956011Y503787D01*
X956081Y503885D01*
X956165Y503941D01*
X956193Y503997D01*
X956236Y504039D01*
X956292Y504067D01*
X956362Y504165D01*
X956446Y504221D01*
X956474Y504277D01*
X956656Y504460D01*
X956698Y504474D01*
X956726Y504530D01*
X956796Y504600D01*
X956838Y504614D01*
X956866Y504670D01*
X956909Y504712D01*
X956965Y504740D01*
X957035Y504838D01*
X957119Y504894D01*
X957147Y504951D01*
X957189Y504993D01*
X957245Y505021D01*
X957301Y505105D01*
X957357Y505133D01*
X957399Y505175D01*
X957427Y505231D01*
X957512Y505287D01*
X957540Y505343D01*
X957582Y505385D01*
X957638Y505413D01*
X957708Y505511D01*
X957792Y505568D01*
X957820Y505624D01*
X957862Y505666D01*
X957918Y505694D01*
X957974Y505778D01*
X958030Y505806D01*
X958072Y505848D01*
X958101Y505904D01*
X958185Y505960D01*
X958213Y506016D01*
X958255Y506058D01*
X958311Y506086D01*
X958395Y506199D01*
X958451Y506227D01*
X958507Y506311D01*
X958563Y506339D01*
X958605Y506381D01*
X958633Y506437D01*
X958717Y506493D01*
X958745Y506549D01*
X958788Y506591D01*
X958844Y506619D01*
X958914Y506717D01*
X958998Y506773D01*
X959026Y506830D01*
X959068Y506872D01*
X959124Y506900D01*
X959194Y506998D01*
X959348Y507152D01*
X959391Y507166D01*
X959419Y507222D01*
X959461Y507264D01*
X959517Y507292D01*
X959601Y507404D01*
X959657Y507433D01*
X959741Y507545D01*
X959797Y507573D01*
X959853Y507657D01*
X959909Y507685D01*
X959951Y507727D01*
X959980Y507783D01*
X960078Y507853D01*
X960134Y507937D01*
X960190Y507965D01*
X960260Y508064D01*
X960344Y508120D01*
X960372Y508176D01*
X960414Y508218D01*
X960470Y508246D01*
X960526Y508330D01*
X960582Y508358D01*
X960625Y508400D01*
X960653Y508456D01*
X960751Y508526D01*
X960807Y508610D01*
X960863Y508638D01*
X960933Y508737D01*
X961017Y508793D01*
X961045Y508849D01*
X961087Y508891D01*
X961143Y508919D01*
X961199Y509003D01*
X961255Y509031D01*
X961298Y509073D01*
X961326Y509129D01*
X961410Y509185D01*
X961438Y509241D01*
X961480Y509283D01*
X961536Y509311D01*
X961620Y509424D01*
X961676Y509452D01*
X961760Y509564D01*
X961816Y509592D01*
X961957Y509760D01*
X962041Y509844D01*
X962083Y509858D01*
X962111Y509914D01*
X962153Y509957D01*
X962209Y509985D01*
X962279Y510083D01*
X962363Y510139D01*
X962391Y510195D01*
X962433Y510237D01*
X962490Y510265D01*
X962560Y510363D01*
X962644Y510419D01*
X962672Y510475D01*
X962770Y510545D01*
X962826Y510630D01*
X962882Y510658D01*
X962966Y510770D01*
X963022Y510798D01*
X963107Y510910D01*
X963163Y510938D01*
X963247Y511050D01*
X963303Y511078D01*
X963359Y511162D01*
X963415Y511191D01*
X963457Y511233D01*
X963485Y511289D01*
X963569Y511345D01*
X963597Y511401D01*
X963639Y511443D01*
X963695Y511471D01*
X963766Y511569D01*
X963850Y511625D01*
X963878Y511681D01*
X963976Y511751D01*
X964032Y511835D01*
X964088Y511864D01*
X964158Y511962D01*
X964242Y512018D01*
X964270Y512074D01*
X964312Y512116D01*
X964369Y512144D01*
X964439Y512242D01*
X964523Y512298D01*
X964551Y512354D01*
X964733Y512537D01*
X964775Y512551D01*
X964803Y512607D01*
X964845Y512649D01*
X964901Y512677D01*
X964972Y512775D01*
X965056Y512831D01*
X965084Y512887D01*
X965126Y512929D01*
X965182Y512957D01*
X965238Y513041D01*
X965294Y513069D01*
X965336Y513112D01*
X965364Y513168D01*
X965476Y513252D01*
X965504Y513308D01*
X965588Y513364D01*
X965617Y513420D01*
X965658Y513462D01*
X965715Y513490D01*
X965785Y513588D01*
X965869Y513644D01*
X965897Y513700D01*
X965995Y513771D01*
X966051Y513855D01*
X966107Y513883D01*
X966149Y513925D01*
X966177Y513981D01*
X966261Y514037D01*
X966290Y514093D01*
X966332Y514135D01*
X966388Y514163D01*
X966458Y514261D01*
X966542Y514318D01*
X966570Y514374D01*
X966682Y514458D01*
X966710Y514514D01*
X966794Y514570D01*
X966822Y514626D01*
X966864Y514668D01*
X966921Y514696D01*
X967005Y514808D01*
X967061Y514836D01*
X967131Y514934D01*
X967215Y514991D01*
X967243Y515047D01*
X967425Y515229D01*
X967467Y515243D01*
X967496Y515299D01*
X967538Y515341D01*
X967594Y515369D01*
X967664Y515467D01*
X967748Y515523D01*
X967776Y515580D01*
X967818Y515622D01*
X967874Y515650D01*
X967944Y515748D01*
X968028Y515804D01*
X968056Y515860D01*
X968155Y515930D01*
X968211Y516014D01*
X968267Y516042D01*
X968351Y516154D01*
X968407Y516183D01*
X968491Y516295D01*
X968547Y516323D01*
X968631Y516435D01*
X968687Y516463D01*
X968744Y516547D01*
X968800Y516575D01*
X968842Y516617D01*
X968870Y516673D01*
X968954Y516729D01*
X968982Y516785D01*
X969024Y516827D01*
X969080Y516856D01*
X969150Y516954D01*
X969234Y517010D01*
X969262Y517066D01*
X969361Y517136D01*
X969417Y517220D01*
X969473Y517248D01*
X969543Y517346D01*
X969627Y517402D01*
X969655Y517458D01*
X969697Y517501D01*
X969753Y517529D01*
X969823Y517627D01*
X969907Y517683D01*
X969935Y517739D01*
X970118Y517921D01*
X970160Y517935D01*
X970188Y517991D01*
X970230Y518033D01*
X970286Y518061D01*
X970370Y518174D01*
X970426Y518202D01*
X970510Y518314D01*
X970566Y518342D01*
X970623Y518426D01*
X970679Y518454D01*
X970721Y518496D01*
X970749Y518552D01*
X970847Y518622D01*
X970903Y518707D01*
X970959Y518735D01*
X971029Y518833D01*
X971113Y518889D01*
X971141Y518945D01*
X971183Y518987D01*
X971239Y519015D01*
X971296Y519099D01*
X971352Y519127D01*
X971394Y519169D01*
X971422Y519225D01*
X971520Y519296D01*
X971576Y519380D01*
X971632Y519408D01*
X971716Y519520D01*
X971772Y519548D01*
X971856Y519660D01*
X971913Y519688D01*
X971969Y519772D01*
X972025Y519800D01*
X972067Y519842D01*
X972095Y519898D01*
X972179Y519954D01*
X972207Y520011D01*
X972249Y520053D01*
X972305Y520081D01*
X972375Y520179D01*
X972459Y520235D01*
X972488Y520291D01*
X972530Y520333D01*
X972586Y520361D01*
X972656Y520459D01*
X972810Y520614D01*
X972852Y520628D01*
X972880Y520684D01*
X972922Y520726D01*
X972978Y520754D01*
X973048Y520852D01*
X973133Y520908D01*
X973160Y520964D01*
X973203Y521006D01*
X973259Y521034D01*
X973329Y521132D01*
X973413Y521188D01*
X973441Y521245D01*
X973539Y521315D01*
X973595Y521399D01*
X973651Y521427D01*
X973736Y521539D01*
X973792Y521567D01*
X973876Y521679D01*
X973932Y521707D01*
X974016Y521819D01*
X974072Y521847D01*
X974128Y521932D01*
X974184Y521960D01*
X974226Y522002D01*
X974254Y522058D01*
X974338Y522114D01*
X974366Y522170D01*
X974409Y522212D01*
X974465Y522240D01*
X974535Y522338D01*
X974619Y522394D01*
X974647Y522450D01*
X974745Y522521D01*
X974801Y522605D01*
X974857Y522633D01*
X974941Y522745D01*
X974998Y522773D01*
X975082Y522885D01*
X975138Y522913D01*
X975222Y523025D01*
X975278Y523054D01*
X975418Y523222D01*
X975502Y523306D01*
X975544Y523320D01*
X975572Y523376D01*
X975614Y523418D01*
X975671Y523446D01*
X975741Y523544D01*
X975825Y523600D01*
X975853Y523656D01*
X975895Y523699D01*
X975951Y523727D01*
X976007Y523811D01*
X976063Y523839D01*
X976105Y523881D01*
X976133Y523937D01*
X976231Y524007D01*
X976288Y524091D01*
X976344Y524119D01*
X976414Y524217D01*
X976498Y524273D01*
X976526Y524330D01*
X976568Y524372D01*
X976624Y524400D01*
X976680Y524484D01*
X976736Y524512D01*
X976778Y524554D01*
X976806Y524610D01*
X976904Y524680D01*
X976961Y524764D01*
X977017Y524792D01*
X977101Y524904D01*
X977157Y524932D01*
X977241Y525045D01*
X977297Y525073D01*
X977353Y525157D01*
X977409Y525185D01*
X977451Y525227D01*
X977479Y525283D01*
X977564Y525339D01*
X977592Y525395D01*
X977634Y525437D01*
X977690Y525465D01*
X977760Y525563D01*
X977844Y525620D01*
X977872Y525676D01*
X977914Y525718D01*
X977970Y525746D01*
X978040Y525844D01*
X978195Y525998D01*
X978237Y526012D01*
X978265Y526068D01*
X978307Y526110D01*
X978363Y526138D01*
X978447Y526251D01*
X978503Y526279D01*
X978587Y526391D01*
X978643Y526419D01*
X978728Y526531D01*
X978784Y526559D01*
X978840Y526643D01*
X978896Y526671D01*
X978938Y526713D01*
X978966Y526769D01*
X979050Y526826D01*
X979078Y526882D01*
X979120Y526924D01*
X979176Y526952D01*
X979246Y527050D01*
X979330Y527106D01*
X979358Y527162D01*
X979401Y527204D01*
X979457Y527232D01*
X979513Y527316D01*
X979569Y527344D01*
X979639Y527443D01*
X979723Y527499D01*
X979751Y527555D01*
X979793Y527597D01*
X979849Y527625D01*
X979919Y527723D01*
X980004Y527779D01*
X980032Y527835D01*
X980130Y527905D01*
X980186Y527989D01*
X980242Y528017D01*
X980284Y528059D01*
X980312Y528116D01*
X980396Y528172D01*
X980410Y528214D01*
X980466Y528242D01*
X980536Y528312D01*
X980522Y528382D01*
X980410Y528410D01*
D02*
G37*
G36*
X972894Y488418D02*
X969164Y488390D01*
X969122Y488264D01*
X969150Y488180D01*
X969136Y485978D01*
X969150Y485740D01*
X969122Y485656D01*
X969136Y485305D01*
X969122Y484618D01*
X969304Y484380D01*
X969361Y484352D01*
X969417Y484267D01*
X969473Y484239D01*
X969515Y484197D01*
X969543Y484141D01*
X969641Y484071D01*
X969697Y483987D01*
X969753Y483959D01*
X969795Y483917D01*
X969809Y483875D01*
X969865Y483847D01*
X970216Y483496D01*
X970230Y483454D01*
X970286Y483426D01*
X970609Y483104D01*
X970623Y483062D01*
X970679Y483033D01*
X970749Y482963D01*
X970763Y482921D01*
X970819Y482893D01*
X970861Y482851D01*
X970889Y482795D01*
X970987Y482725D01*
X971043Y482641D01*
X971099Y482613D01*
X971141Y482571D01*
X971155Y482529D01*
X971211Y482501D01*
X971253Y482458D01*
X971282Y482402D01*
X971324Y482360D01*
X971380Y482332D01*
X971422Y482290D01*
X971450Y482234D01*
X971534Y482178D01*
X971562Y482122D01*
X971660Y482052D01*
X971716Y481968D01*
X971772Y481940D01*
X971814Y481898D01*
X971828Y481856D01*
X971885Y481827D01*
X971927Y481785D01*
X971955Y481729D01*
X971997Y481687D01*
X972053Y481659D01*
X972123Y481561D01*
X972207Y481505D01*
X972235Y481449D01*
X972319Y481393D01*
X972347Y481337D01*
X972389Y481295D01*
X972445Y481267D01*
X972488Y481224D01*
X972515Y481169D01*
X972614Y481098D01*
X973301Y480411D01*
X973315Y480369D01*
X973371Y480341D01*
X973413Y480299D01*
X973441Y480243D01*
X973483Y480201D01*
X973539Y480173D01*
X973609Y480075D01*
X973693Y480019D01*
X973722Y479962D01*
X973820Y479892D01*
X973848Y479836D01*
X973904Y479808D01*
X973946Y479766D01*
X973974Y479710D01*
X974072Y479640D01*
X974114Y479598D01*
X974128Y479556D01*
X974184Y479528D01*
X974254Y479458D01*
X974282Y479402D01*
X974409Y479275D01*
X974493Y479304D01*
X974507Y481477D01*
X974352Y481687D01*
X974296Y481715D01*
X974226Y481785D01*
X974198Y481842D01*
X973904Y482136D01*
X973862Y482150D01*
X973834Y482206D01*
X973623Y482416D01*
X973581Y482431D01*
X973553Y482487D01*
X973511Y482529D01*
X973469Y482543D01*
X973441Y482599D01*
X972277Y483763D01*
X972221Y483791D01*
X972151Y483889D01*
X971744Y484296D01*
X971702Y484309D01*
X971674Y484366D01*
X971352Y484688D01*
X971310Y484702D01*
X971282Y484758D01*
X970468Y485571D01*
X970384Y485712D01*
X970328Y485768D01*
X970258Y486062D01*
X970230Y486174D01*
X970216Y486329D01*
X970244Y486413D01*
X970300Y486609D01*
X970328Y486721D01*
X970468Y486918D01*
X970496Y486974D01*
X970566Y487044D01*
X970623Y487072D01*
X970777Y487198D01*
X970917Y487254D01*
X971043Y487296D01*
X971071D01*
X971183Y487324D01*
X971576Y487296D01*
X971885Y487128D01*
X972081Y486988D01*
X972558Y486511D01*
X972600Y486497D01*
X972628Y486441D01*
X972670Y486399D01*
X972726Y486371D01*
X972796Y486273D01*
X972852Y486245D01*
X972880Y486189D01*
X972922Y486146D01*
X972978Y486118D01*
X973048Y486020D01*
X973090Y485978D01*
X973133Y485964D01*
X973160Y485908D01*
X973231Y485838D01*
X973273Y485824D01*
X973301Y485768D01*
X974156Y484912D01*
X974198Y484898D01*
X974226Y484842D01*
X974577Y484492D01*
X974619Y484478D01*
X974647Y484422D01*
X975250Y483819D01*
X975292Y483805D01*
X975320Y483749D01*
X975502Y483566D01*
X975558Y483538D01*
X975642Y483426D01*
X975685Y483412D01*
X975713Y483356D01*
X975783Y483286D01*
X975825Y483272D01*
X975853Y483216D01*
X975895Y483174D01*
X975951Y483146D01*
X976007Y483062D01*
X976119Y483033D01*
X978279Y483062D01*
X978293Y483132D01*
X978223Y483202D01*
X978167Y483230D01*
X973006Y488390D01*
X972894Y488418D01*
D02*
G37*
G36*
X787775Y519888D02*
X787546Y519700D01*
X787046Y519283D01*
X786942Y519179D01*
X786858Y519138D01*
X786608Y518888D01*
X786525Y518846D01*
X786233Y518554D01*
X786150Y518513D01*
X786004Y518367D01*
X785963Y518283D01*
X785858Y518179D01*
X785775Y518138D01*
X785525Y517888D01*
X785442Y517846D01*
X785379Y517783D01*
X785338Y517700D01*
X785067Y517429D01*
X784983Y517388D01*
X784838Y517242D01*
X784796Y517158D01*
X784733Y517096D01*
X784650Y517054D01*
X784588Y516992D01*
X784567Y516929D01*
X784483Y516888D01*
X784129Y516533D01*
X784088Y516450D01*
X783838Y516200D01*
X783796Y516117D01*
X783671Y515992D01*
X783629Y515908D01*
X783442Y515679D01*
X783379Y515617D01*
X783338Y515533D01*
X783254Y515450D01*
X783213Y515367D01*
X783046Y515200D01*
X783004Y515117D01*
X782838Y514950D01*
X782796Y514867D01*
X782608Y514638D01*
X782546Y514575D01*
X782504Y514492D01*
X782379Y514367D01*
X782338Y514283D01*
X782150Y514054D01*
X781942Y513804D01*
X781838Y513658D01*
X781754Y513575D01*
X781713Y513492D01*
X781588Y513367D01*
X781546Y513283D01*
X781463Y513200D01*
X781421Y513117D01*
X781254Y512950D01*
X781213Y512867D01*
X781088Y512742D01*
X781046Y512658D01*
X780963Y512575D01*
X780921Y512492D01*
X780713Y512283D01*
X780671Y512200D01*
X780483Y511971D01*
X780338Y511783D01*
X780296Y511700D01*
X780088Y511492D01*
X780046Y511408D01*
X779858Y511179D01*
X779754Y511075D01*
X779713Y510992D01*
X779421Y510617D01*
X779338Y510533D01*
X779296Y510450D01*
X779213Y510367D01*
X779171Y510283D01*
X779004Y510117D01*
X778963Y510033D01*
X778838Y509908D01*
X778796Y509825D01*
X778671Y509700D01*
X778629Y509617D01*
X778546Y509533D01*
X778504Y509450D01*
X778379Y509325D01*
X778338Y509242D01*
X778129Y509033D01*
X778088Y508950D01*
X778004Y508867D01*
X777963Y508783D01*
X777879Y508700D01*
X777838Y508617D01*
X777713Y508492D01*
X777671Y508408D01*
X777567Y508263D01*
X777504Y508242D01*
X777463Y508158D01*
X777275Y507929D01*
X777171Y507825D01*
X777129Y507742D01*
X777046Y507658D01*
X777004Y507575D01*
X776921Y507492D01*
X776879Y507408D01*
X776713Y507242D01*
X776671Y507158D01*
X776483Y506929D01*
X776421Y506867D01*
X776379Y506783D01*
X776254Y506658D01*
X776213Y506575D01*
X776025Y506346D01*
X775963Y506283D01*
X775796Y505992D01*
X775671Y505867D01*
X775463Y505492D01*
X775338Y505367D01*
X775171Y505075D01*
X775088Y504992D01*
X774921Y504700D01*
X774838Y504617D01*
X774713Y504408D01*
X774504Y504117D01*
X774463Y504033D01*
X774254Y503742D01*
X773963Y503325D01*
X773921Y503242D01*
X773713Y502950D01*
X773671Y502867D01*
X773588Y502783D01*
X773546Y502700D01*
X773463Y502617D01*
X773296Y502325D01*
X773088Y502033D01*
X772921Y501742D01*
X772629Y501325D01*
X772588Y501242D01*
X772463Y501117D01*
X772254Y500742D01*
X772088Y500575D01*
X771921Y500283D01*
X771838Y500200D01*
X771796Y500117D01*
X771588Y499825D01*
X771421Y499533D01*
X770796Y498658D01*
X770754Y498575D01*
X770567Y498346D01*
X770275Y497888D01*
X770213Y497825D01*
X770171Y497742D01*
X770088Y497658D01*
X770046Y497575D01*
X769879Y497325D01*
X769754Y497117D01*
X769546Y496825D01*
X769504Y496742D01*
X768879Y495867D01*
X768838Y495783D01*
X768421Y495200D01*
X768379Y495117D01*
X768296Y495033D01*
X768171Y494825D01*
X767963Y494533D01*
X767858Y494263D01*
X767775Y494054D01*
X767713Y493825D01*
X767588Y493408D01*
X767546Y493242D01*
X767588Y492783D01*
X767775Y492596D01*
X767858Y492554D01*
X768088Y492367D01*
X768150Y492304D01*
X768233Y492263D01*
X768942Y491763D01*
X769233Y491596D01*
X769525Y491388D01*
X769733Y491304D01*
X769983Y491346D01*
X770067Y491429D01*
X770442Y491638D01*
X770817Y491929D01*
X770900Y492013D01*
X770983Y492054D01*
X771192Y492304D01*
X771296Y492408D01*
X771338Y492492D01*
X771421Y492575D01*
X771463Y492658D01*
X771671Y492950D01*
X771713Y493033D01*
X771838Y493158D01*
X772004Y493450D01*
X772088Y493533D01*
X772129Y493617D01*
X772400Y494013D01*
X772546Y494242D01*
X772629Y494325D01*
X772671Y494408D01*
X772942Y494804D01*
X773046Y494950D01*
X773213Y495200D01*
X773254Y495283D01*
X773442Y495513D01*
X773608Y495763D01*
X773900Y496221D01*
X774004Y496325D01*
X774046Y496408D01*
X774254Y496700D01*
X774296Y496783D01*
X774379Y496867D01*
X774546Y497158D01*
X774838Y497575D01*
X774879Y497658D01*
X775296Y498242D01*
X775338Y498325D01*
X775525Y498554D01*
X775838Y498992D01*
X775963Y499200D01*
X776150Y499429D01*
X776442Y499888D01*
X776546Y499992D01*
X776588Y500075D01*
X776671Y500158D01*
X776713Y500242D01*
X777129Y500825D01*
X777171Y500908D01*
X777296Y501033D01*
X777421Y501242D01*
X777629Y501533D01*
X777671Y501617D01*
X777754Y501700D01*
X777796Y501783D01*
X777879Y501867D01*
X777921Y501950D01*
X778129Y502242D01*
X778171Y502325D01*
X778463Y502700D01*
X778733Y503096D01*
X778796Y503158D01*
X778963Y503450D01*
X779046Y503533D01*
X779088Y503617D01*
X779379Y504033D01*
X779421Y504117D01*
X779629Y504408D01*
X779838Y504783D01*
X780171Y505367D01*
X780254Y505450D01*
X780296Y505533D01*
X780504Y505908D01*
X780671Y506158D01*
X780713Y506242D01*
X780921Y506617D01*
X781004Y506700D01*
X781213Y507075D01*
X781379Y507367D01*
X781546Y507617D01*
X781754Y507992D01*
X781921Y508283D01*
X782004Y508367D01*
X782171Y508658D01*
X782379Y509033D01*
X782546Y509283D01*
X782879Y509867D01*
X782963Y509950D01*
X783296Y510575D01*
X783463Y510825D01*
X783567Y511013D01*
X783588Y511033D01*
X783796Y511408D01*
X784213Y512075D01*
X784254Y512158D01*
X784421Y512408D01*
X784754Y512992D01*
X784921Y513242D01*
X785254Y513825D01*
X785463Y514200D01*
X785546Y514283D01*
X785588Y514367D01*
X785796Y514742D01*
X785963Y515033D01*
X786296Y515742D01*
X786588Y516367D01*
X786692Y516638D01*
X786754Y516700D01*
X786817Y516929D01*
X787004Y517367D01*
X787171Y517742D01*
X787296Y518033D01*
X787463Y518450D01*
X787608Y518846D01*
X787713Y519075D01*
X787754Y519242D01*
X787858Y519513D01*
X787921Y519575D01*
X787879Y519867D01*
X787775Y519888D01*
D02*
G37*
%LPD*%
G36*
X772879Y498158D02*
X772713Y497867D01*
X772463Y497408D01*
X772296Y497158D01*
X772129Y496867D01*
X771963Y496617D01*
X771921Y496533D01*
X771713Y496242D01*
X771546Y495950D01*
X771338Y495617D01*
X771296Y495533D01*
X771171Y495408D01*
X770921Y494950D01*
X770713Y494658D01*
X770504Y494283D01*
X770421Y494200D01*
X770213Y493825D01*
X770129Y493742D01*
X769983Y493471D01*
X769775Y493388D01*
X769567Y493429D01*
X769463Y493658D01*
X769546Y493867D01*
X770150Y494679D01*
X770213Y494742D01*
X770254Y494825D01*
X770338Y494908D01*
X770379Y494992D01*
X770504Y495117D01*
X770546Y495200D01*
X770942Y495721D01*
X771171Y496075D01*
X771296Y496200D01*
X771338Y496283D01*
X771733Y496804D01*
X771838Y496950D01*
X771921Y497033D01*
X771963Y497117D01*
X772463Y497783D01*
X772629Y497950D01*
X772650Y498013D01*
X772671Y498033D01*
X772775Y498179D01*
X772879Y498158D01*
D02*
G37*
%LPC*%
G36*
X767483Y490971D02*
X767108Y490929D01*
X766879Y490742D01*
X766733Y490596D01*
X766713Y490575D01*
X766671Y490492D01*
X766504Y490200D01*
X766338Y489783D01*
X766088Y488992D01*
X765921Y488325D01*
X766025Y488221D01*
X766317Y488388D01*
X766983Y488888D01*
X767213Y489075D01*
X767400Y489263D01*
X767483Y489304D01*
X767754Y489575D01*
X767796Y489658D01*
X767963Y489908D01*
X768046Y490117D01*
X768088Y490325D01*
X768046Y490450D01*
X767879Y490742D01*
X767775Y490846D01*
X767692Y490888D01*
X767483Y490971D01*
D02*
G37*
%LPD*%
D10*
X851636Y729531D02*
G03*
X851636Y729531I-492J0D01*
G01*
X869865Y750200D02*
G03*
X869865Y750200I-492J0D01*
G01*
X949495Y740617D02*
G03*
X949495Y740617I-492J0D01*
G01*
X902740Y572200D02*
G03*
X902740Y572200I-492J0D01*
G01*
X789739Y620900D02*
G03*
X789739Y620900I-492J0D01*
G01*
X890510Y499295D02*
G03*
X890510Y499295I-492J0D01*
G01*
X882140Y701917D02*
G03*
X882140Y701917I-492J0D01*
G01*
X796928Y708224D02*
G03*
X796928Y708224I-492J0D01*
G01*
D11*
X934431Y623397D02*
G03*
X934431Y623397I-197J0D01*
G01*
X779845Y727511D02*
G03*
X779845Y727511I-197J0D01*
G01*
D12*
X976921Y744476D02*
G03*
X976921Y744476I-394J0D01*
G01*
X829672Y665169D02*
G03*
X829672Y665169I-394J0D01*
G01*
X832105Y471017D02*
G03*
X832105Y471017I-394J0D01*
G01*
X891912Y757531D02*
G03*
X891912Y757531I-394J0D01*
G01*
X961921Y731198D02*
G03*
X961921Y731198I-394J0D01*
G01*
X842876Y740161D02*
Y743113D01*
X847994D01*
X842876Y730909D02*
Y733861D01*
Y730909D02*
X847994D01*
X856184Y743704D02*
Y747247D01*
X868388Y743704D02*
Y747247D01*
X856184Y743704D02*
X868388D01*
X856184Y747247D02*
X868388D01*
X772298Y697519D02*
Y699881D01*
X765999Y697519D02*
Y699881D01*
X765999Y679106D02*
Y681468D01*
X772298Y679106D02*
Y681468D01*
X933452Y737173D02*
Y738058D01*
X934338D01*
X933452Y721917D02*
Y722802D01*
Y721917D02*
X934338D01*
X948708D02*
X949594D01*
Y722802D01*
Y737173D02*
Y738058D01*
X948708D02*
X949594D01*
X928211Y694905D02*
X936085D01*
X919943Y674826D02*
Y690574D01*
X944353Y674826D02*
Y690574D01*
X928211Y670495D02*
X936085D01*
X970594Y587999D02*
Y595873D01*
X950515Y604141D02*
X966263D01*
X950515Y579732D02*
X966263D01*
X946184Y587999D02*
Y595873D01*
X934234Y624972D02*
X936773D01*
X956891D02*
X959431D01*
X934234Y658043D02*
X936773D01*
X956891D02*
X959431D01*
X934234Y624972D02*
Y627609D01*
Y655405D02*
Y658043D01*
X959431Y624972D02*
Y627609D01*
Y655405D02*
Y658043D01*
X919248Y574200D02*
Y575700D01*
Y590200D01*
X903248D02*
X919248D01*
X903248Y574200D02*
Y590200D01*
Y574200D02*
X919248D01*
X811491Y524916D02*
Y626884D01*
X791806D02*
X811491D01*
X791806Y524916D02*
Y626884D01*
Y524916D02*
X811491D01*
X906061Y497129D02*
Y501657D01*
X892479Y492602D02*
X894152D01*
X892479Y504314D02*
Y506283D01*
Y492602D02*
Y494570D01*
Y506283D02*
X894152D01*
X841875Y746950D02*
X844922D01*
X841875Y753450D02*
X844922D01*
X876648Y704476D02*
Y713925D01*
Y704476D02*
X926648D01*
Y713925D01*
X876648D02*
X926648D01*
X815808Y742375D02*
X833032D01*
X815808Y731647D02*
X833032D01*
X778148Y727511D02*
X798148D01*
X795628Y743106D02*
Y754917D01*
X780668Y743106D02*
Y754917D01*
X801258Y682239D02*
X815038D01*
X801258Y708224D02*
X815038D01*
Y682239D02*
Y708224D01*
X801258Y682239D02*
Y708224D01*
X801311Y713804D02*
X818536D01*
X801311Y724533D02*
X818536D01*
X886012Y732592D02*
Y749816D01*
X875283Y732592D02*
Y749816D01*
X876375Y502950D02*
X879422D01*
X876375Y496450D02*
X879422D01*
D13*
X829815Y503702D02*
G03*
X829815Y503702I-226J0D01*
G01*
D14*
X808519Y657279D02*
G03*
X808519Y657279I-206J0D01*
G01*
X925090Y566268D02*
G03*
X925090Y566268I-1510J0D01*
G01*
X889148Y758200D02*
Y759200D01*
X815148Y758200D02*
X889148D01*
X815148D02*
Y797200D01*
X889148D01*
Y759200D02*
Y797200D01*
D15*
X870706Y743507D02*
X872281D01*
X920467Y725233D02*
X922041D01*
X874448Y571313D02*
Y572887D01*
X874148Y588913D02*
Y590487D01*
X882920Y583913D02*
Y585487D01*
X826361Y653700D02*
X827936D01*
X929347Y726346D02*
X930922D01*
X925046Y730187D02*
Y731762D01*
X950648Y706413D02*
Y707987D01*
X939861Y716972D02*
X941436D01*
X950648Y710413D02*
Y711987D01*
X957654Y731228D02*
X959229D01*
X979461Y731057D02*
X981035D01*
X899421Y578325D02*
X900996D01*
X923648Y583413D02*
Y584987D01*
X850361Y490131D02*
X851935D01*
X846361D02*
X847935D01*
X841861Y564139D02*
X843435D01*
X846361D02*
X847935D01*
X837514Y501000D02*
X839089D01*
X850361Y564139D02*
X851935D01*
X854861D02*
X856435D01*
X865361Y501700D02*
X866936D01*
X833361Y501000D02*
X834935D01*
X843664Y721137D02*
X845238D01*
X953728Y761956D02*
Y763531D01*
X942610Y742700D02*
X944185D01*
X938861D02*
X940436D01*
X828861Y498367D02*
X830435D01*
X853148Y577913D02*
Y579487D01*
D16*
X834073Y483696D02*
X837223D01*
X848695Y471989D02*
Y478289D01*
X808770Y731647D02*
Y742375D01*
X794274Y713804D02*
Y724533D01*
X875283Y725554D02*
X886012D01*
X941698Y752550D02*
Y758850D01*
X847994Y727121D02*
X854294D01*
X831069Y457989D02*
Y464289D01*
X941348Y752550D02*
Y758850D01*
X849168Y471989D02*
Y478289D01*
D17*
X963318Y734417D02*
Y738117D01*
X974736Y734417D02*
Y738117D01*
X971468Y734417D02*
X974736D01*
X963318D02*
X966586D01*
X833215Y594303D02*
Y596862D01*
Y594303D02*
X842861D01*
X894435D02*
X904081D01*
Y596862D01*
X833215Y669106D02*
Y694697D01*
X904081D01*
Y669106D02*
Y694697D01*
X960007Y775946D02*
Y780040D01*
X923039Y775946D02*
Y780040D01*
X835447Y447174D02*
Y451308D01*
Y447174D02*
X864975D01*
Y451308D01*
Y459576D02*
Y466859D01*
X835447Y459576D02*
Y466859D01*
X967885Y717989D02*
X971586D01*
X967885Y729407D02*
X971586D01*
Y726139D02*
Y729407D01*
Y717989D02*
Y721257D01*
X968023Y767698D02*
Y766365D01*
X967356Y765698D01*
X966690Y766365D01*
Y767698D01*
Y766698D01*
X968023D01*
X966024Y767698D02*
X965357D01*
X965690D01*
Y765698D01*
X966024Y766032D01*
X970023Y772698D02*
Y774698D01*
X969023D01*
X968690Y774365D01*
Y774031D01*
X969023Y773698D01*
X970023D01*
X969023D01*
X968690Y773365D01*
Y773032D01*
X969023Y772698D01*
X970023D01*
X968024Y774698D02*
X967357D01*
X967690D01*
Y772698D01*
X968024Y773032D01*
X965025Y774698D02*
X966358D01*
X965025Y773365D01*
Y773032D01*
X965358Y772698D01*
X966024D01*
X966358Y773032D01*
X918523Y767698D02*
Y766365D01*
X917857Y765698D01*
X917190Y766365D01*
Y767698D01*
Y766698D01*
X918523D01*
X916524Y767698D02*
X915857D01*
X916190D01*
Y765698D01*
X916524Y766032D01*
X913525Y767698D02*
X914857D01*
X913525Y766365D01*
Y766032D01*
X913858Y765698D01*
X914524D01*
X914857Y766032D01*
X918523Y772698D02*
Y774698D01*
X917523D01*
X917190Y774365D01*
Y774031D01*
X917523Y773698D01*
X918523D01*
X917523D01*
X917190Y773365D01*
Y773032D01*
X917523Y772698D01*
X918523D01*
X916524Y774698D02*
X915857D01*
X916190D01*
Y772698D01*
X916524Y773032D01*
X896148Y772076D02*
X890900D01*
X893524Y769452D02*
Y774700D01*
X812648Y775700D02*
X807401D01*
D18*
X888627Y508664D02*
Y556689D01*
X825652Y508639D02*
Y556689D01*
X858152Y508639D02*
X864702D01*
X858327Y556664D02*
X864602D01*
D19*
X790652Y678543D02*
X807313D01*
Y657779D02*
Y678543D01*
X790652Y657779D02*
Y678543D01*
Y657779D02*
X807313D01*
D20*
X923580Y566268D02*
X928580Y561268D01*
Y563768D01*
X926057Y561182D02*
X928557D01*
X928666Y568744D02*
Y571244D01*
X926081Y571268D02*
X928580D01*
X923580Y566268D02*
X928580Y571268D01*
X821748Y484800D02*
Y488799D01*
X823747D01*
X824414Y488132D01*
Y486799D01*
X823747Y486133D01*
X821748D01*
X825747Y484800D02*
Y488799D01*
X827746D01*
X828413Y488132D01*
Y486799D01*
X827746Y486133D01*
X825747D01*
X832411Y488132D02*
X831745Y488799D01*
X830412D01*
X829745Y488132D01*
Y487466D01*
X830412Y486799D01*
X831745D01*
X832411Y486133D01*
Y485466D01*
X831745Y484800D01*
X830412D01*
X829745Y485466D01*
X951178Y743641D02*
Y740309D01*
X951845Y739643D01*
X953177D01*
X953844Y740309D01*
Y743641D01*
X957843Y739643D02*
X955177D01*
X957843Y742308D01*
Y742975D01*
X957176Y743641D01*
X955843D01*
X955177Y742975D01*
X808748Y680299D02*
Y676966D01*
X809414Y676300D01*
X810747D01*
X811414Y676966D01*
Y680299D01*
X814746Y676300D02*
Y680299D01*
X812747Y678299D01*
X815413D01*
X919414Y569434D02*
X916748Y565435D01*
Y569434D02*
X919414D01*
X916748Y565435D02*
X919414D01*
X929805Y562491D02*
X932471Y558492D01*
Y562491D02*
X929805Y558492D01*
Y576491D02*
X931328Y574587D01*
Y572492D01*
X932852Y576491D02*
X931328Y574587D01*
X767649Y712033D02*
X766982Y712699D01*
X765649D01*
X764983Y712033D01*
Y709367D01*
X765649Y708701D01*
X766982D01*
X767649Y709367D01*
X771647Y708701D02*
X768982D01*
X771647Y711367D01*
Y712033D01*
X770981Y712699D01*
X769648D01*
X768982Y712033D01*
X772980Y708701D02*
X774313D01*
X773647D01*
Y712699D01*
X772980Y712033D01*
X945014Y610632D02*
X944347Y611299D01*
X943015D01*
X942348Y610632D01*
Y609966D01*
X943015Y609299D01*
X944347D01*
X945014Y608633D01*
Y607966D01*
X944347Y607300D01*
X943015D01*
X942348Y607966D01*
X946347Y611299D02*
Y607300D01*
X947680Y608633D01*
X949012Y607300D01*
Y611299D01*
X950345Y607300D02*
X951678D01*
X951012D01*
Y611299D01*
X950345Y610632D01*
X934482Y704033D02*
X933816Y704699D01*
X932483D01*
X931816Y704033D01*
Y703367D01*
X932483Y702700D01*
X933816D01*
X934482Y702034D01*
Y701367D01*
X933816Y700701D01*
X932483D01*
X931816Y701367D01*
X935815Y704699D02*
Y700701D01*
X937148Y702034D01*
X938481Y700701D01*
Y704699D01*
X942480Y700701D02*
X939814D01*
X942480Y703367D01*
Y704033D01*
X941813Y704699D01*
X940480D01*
X939814Y704033D01*
X977482Y747367D02*
Y750033D01*
X976815Y750699D01*
X975482D01*
X974816Y750033D01*
Y747367D01*
X975482Y746701D01*
X976815D01*
X976149Y748034D02*
X977482Y746701D01*
X976815D02*
X977482Y747367D01*
X981480Y746701D02*
X978815D01*
X981480Y749367D01*
Y750033D01*
X980814Y750699D01*
X979481D01*
X978815Y750033D01*
X930815Y602700D02*
X930149Y602034D01*
Y600701D01*
X930815Y600034D01*
X933481D01*
X934147Y600701D01*
Y602034D01*
X933481Y602700D01*
X934147Y604033D02*
Y605366D01*
Y604699D01*
X930149D01*
X930815Y604033D01*
X788370Y632348D02*
X787037D01*
X787703D01*
Y629016D01*
X787037Y628349D01*
X786370D01*
X785704Y629016D01*
X789702Y628349D02*
X791035D01*
X790369D01*
Y632348D01*
X789702Y631682D01*
X862053Y574201D02*
Y578199D01*
X864052D01*
X864718Y577533D01*
Y576200D01*
X864052Y575534D01*
X862053D01*
X863385D02*
X864718Y574201D01*
X868717D02*
X866051D01*
X868717Y576866D01*
Y577533D01*
X868051Y578199D01*
X866718D01*
X866051Y577533D01*
X870050D02*
X870716Y578199D01*
X872049D01*
X872716Y577533D01*
Y576866D01*
X872049Y576200D01*
X872716Y575534D01*
Y574867D01*
X872049Y574201D01*
X870716D01*
X870050Y574867D01*
Y575534D01*
X870716Y576200D01*
X870050Y576866D01*
Y577533D01*
X870716Y576200D02*
X872049D01*
X838317Y577201D02*
Y581199D01*
X840316D01*
X840982Y580533D01*
Y579200D01*
X840316Y578534D01*
X838317D01*
X839649D02*
X840982Y577201D01*
X844981D02*
X842315D01*
X844981Y579867D01*
Y580533D01*
X844314Y581199D01*
X842982D01*
X842315Y580533D01*
X846314Y581199D02*
X848980D01*
Y580533D01*
X846314Y577867D01*
Y577201D01*
X827147Y493368D02*
X823149D01*
Y495368D01*
X823815Y496034D01*
X825148D01*
X825815Y495368D01*
Y493368D01*
Y494701D02*
X827147Y496034D01*
Y500033D02*
Y497367D01*
X824482Y500033D01*
X823815D01*
X823149Y499367D01*
Y498034D01*
X823815Y497367D01*
Y501366D02*
X823149Y502032D01*
Y503365D01*
X823815Y504032D01*
X826481D01*
X827147Y503365D01*
Y502032D01*
X826481Y501366D01*
X823815D01*
X917982Y514199D02*
X916649D01*
X917315D01*
Y510867D01*
X916649Y510201D01*
X915982D01*
X915316Y510867D01*
X919314Y513533D02*
X919981Y514199D01*
X921314D01*
X921980Y513533D01*
Y512866D01*
X921314Y512200D01*
X920647D01*
X921314D01*
X921980Y511534D01*
Y510867D01*
X921314Y510201D01*
X919981D01*
X919314Y510867D01*
X830379Y751786D02*
X827713D01*
Y749787D01*
X829046D01*
X827713D01*
Y747787D01*
X834378D02*
X831712D01*
X834378Y750453D01*
Y751120D01*
X833712Y751786D01*
X832379D01*
X831712Y751120D01*
X800821Y768836D02*
X800154Y769503D01*
X798821D01*
X798155Y768836D01*
Y766170D01*
X798821Y765504D01*
X800154D01*
X800821Y766170D01*
X804820Y765504D02*
X802154D01*
X804820Y768170D01*
Y768836D01*
X804153Y769503D01*
X802820D01*
X802154Y768836D01*
X806153D02*
X806819Y769503D01*
X808152D01*
X808818Y768836D01*
Y766170D01*
X808152Y765504D01*
X806819D01*
X806153Y766170D01*
Y768836D01*
X828982Y704699D02*
Y701367D01*
X829649Y700701D01*
X830982D01*
X831648Y701367D01*
Y704699D01*
X832981Y700701D02*
X834314D01*
X833647D01*
Y704699D01*
X832981Y704033D01*
X874882Y715301D02*
Y719299D01*
X876882D01*
X877548Y718633D01*
Y717300D01*
X876882Y716634D01*
X874882D01*
X878881Y715301D02*
X880214D01*
X879547D01*
Y719299D01*
X878881Y718633D01*
X822316Y476699D02*
Y472701D01*
X824315D01*
X824982Y473367D01*
Y476033D01*
X824315Y476699D01*
X822316D01*
X828980D02*
X826315D01*
Y474700D01*
X827647Y475366D01*
X828314D01*
X828980Y474700D01*
Y473367D01*
X828314Y472701D01*
X826981D01*
X826315Y473367D01*
X869316Y477199D02*
Y473201D01*
X871315D01*
X871982Y473867D01*
Y476533D01*
X871315Y477199D01*
X869316D01*
X875980D02*
X874647Y476533D01*
X873314Y475200D01*
Y473867D01*
X873981Y473201D01*
X875314D01*
X875980Y473867D01*
Y474534D01*
X875314Y475200D01*
X873314D01*
X920982Y719533D02*
X920315Y720199D01*
X918982D01*
X918316Y719533D01*
Y716867D01*
X918982Y716201D01*
X920315D01*
X920982Y716867D01*
X922314Y719533D02*
X922981Y720199D01*
X924314D01*
X924980Y719533D01*
Y718866D01*
X924314Y718200D01*
X924980Y717534D01*
Y716867D01*
X924314Y716201D01*
X922981D01*
X922314Y716867D01*
Y717534D01*
X922981Y718200D01*
X922314Y718866D01*
Y719533D01*
X922981Y718200D02*
X924314D01*
X958316Y760201D02*
Y764199D01*
X960315D01*
X960982Y763533D01*
Y762200D01*
X960315Y761534D01*
X958316D01*
X959649D02*
X960982Y760201D01*
X964314D02*
Y764199D01*
X962315Y762200D01*
X964980D01*
X960716Y757699D02*
Y753701D01*
X962715D01*
X963382Y754367D01*
Y757033D01*
X962715Y757699D01*
X960716D01*
X967380Y753701D02*
X964715D01*
X967380Y756366D01*
Y757033D01*
X966714Y757699D01*
X965381D01*
X964715Y757033D01*
X811816Y469138D02*
Y465140D01*
X813815D01*
X814482Y465806D01*
Y468472D01*
X813815Y469138D01*
X811816D01*
X817814Y465140D02*
Y469138D01*
X815814Y467139D01*
X818480D01*
X855447Y725952D02*
Y721953D01*
X857446D01*
X858113Y722620D01*
Y725286D01*
X857446Y725952D01*
X855447D01*
X859445Y721953D02*
X860778D01*
X860112D01*
Y725952D01*
X859445Y725286D01*
X915916Y757699D02*
Y753701D01*
X917915D01*
X918582Y754367D01*
Y757033D01*
X917915Y757699D01*
X915916D01*
X919915Y757033D02*
X920581Y757699D01*
X921914D01*
X922580Y757033D01*
Y756366D01*
X921914Y755700D01*
X921247D01*
X921914D01*
X922580Y755034D01*
Y754367D01*
X921914Y753701D01*
X920581D01*
X919915Y754367D01*
X786316Y711579D02*
Y708247D01*
X786983Y707580D01*
X788315D01*
X788982Y708247D01*
Y711579D01*
X790315D02*
X792981D01*
Y710913D01*
X790315Y708247D01*
Y707580D01*
X819149Y506368D02*
X822481D01*
X823147Y507034D01*
Y508367D01*
X822481Y509034D01*
X819149D01*
Y513032D02*
X819815Y511699D01*
X821148Y510366D01*
X822481D01*
X823147Y511033D01*
Y512366D01*
X822481Y513032D01*
X821815D01*
X821148Y512366D01*
Y510366D01*
X904585Y572199D02*
Y568867D01*
X905252Y568201D01*
X906584D01*
X907251Y568867D01*
Y572199D01*
X911250D02*
X908584D01*
Y570200D01*
X909917Y570866D01*
X910583D01*
X911250Y570200D01*
Y568867D01*
X910583Y568201D01*
X909250D01*
X908584Y568867D01*
X928649Y622868D02*
X931981D01*
X932647Y623534D01*
Y624867D01*
X931981Y625534D01*
X928649D01*
X929315Y626866D02*
X928649Y627533D01*
Y628866D01*
X929315Y629532D01*
X929982D01*
X930648Y628866D01*
Y628199D01*
Y628866D01*
X931314Y629532D01*
X931981D01*
X932647Y628866D01*
Y627533D01*
X931981Y626866D01*
X867983Y468199D02*
X870649D01*
X869316D01*
Y464201D01*
X871982D02*
Y468199D01*
X873981D01*
X874647Y467533D01*
Y466200D01*
X873981Y465534D01*
X871982D01*
X875980Y464201D02*
X877313D01*
X876647D01*
Y468199D01*
X875980Y467533D01*
X868417Y739370D02*
X872415D01*
Y737371D01*
X871749Y736704D01*
X870416D01*
X869749Y737371D01*
Y739370D01*
Y738037D02*
X868417Y736704D01*
X871749Y735371D02*
X872415Y734705D01*
Y733372D01*
X871749Y732706D01*
X871082D01*
X870416Y733372D01*
Y734039D01*
Y733372D01*
X869749Y732706D01*
X869083D01*
X868417Y733372D01*
Y734705D01*
X869083Y735371D01*
X871749Y731373D02*
X872415Y730706D01*
Y729374D01*
X871749Y728707D01*
X869083D01*
X868417Y729374D01*
Y730706D01*
X869083Y731373D01*
X871749D01*
X842826Y715748D02*
X846825D01*
Y713749D01*
X846158Y713082D01*
X844825D01*
X844159Y713749D01*
Y715748D01*
Y714415D02*
X842826Y713082D01*
Y709084D02*
Y711750D01*
X845492Y709084D01*
X846158D01*
X846825Y709750D01*
Y711083D01*
X846158Y711750D01*
X843492Y707751D02*
X842826Y707084D01*
Y705751D01*
X843492Y705085D01*
X846158D01*
X846825Y705751D01*
Y707084D01*
X846158Y707751D01*
X845492D01*
X844825Y707084D01*
Y705085D01*
X858317Y561701D02*
Y565699D01*
X860316D01*
X860982Y565033D01*
Y563700D01*
X860316Y563034D01*
X858317D01*
X859649D02*
X860982Y561701D01*
X864981D02*
X862315D01*
X864981Y564366D01*
Y565033D01*
X864314Y565699D01*
X862982D01*
X862315Y565033D01*
X868313Y561701D02*
Y565699D01*
X866314Y563700D01*
X868980D01*
X840647Y561202D02*
X836649D01*
Y563201D01*
X837315Y563868D01*
X838648D01*
X839314Y563201D01*
Y561202D01*
Y562535D02*
X840647Y563868D01*
Y565200D02*
Y566533D01*
Y565867D01*
X836649D01*
X837315Y565200D01*
X839981Y568533D02*
X840647Y569199D01*
Y570532D01*
X839981Y571198D01*
X837315D01*
X836649Y570532D01*
Y569199D01*
X837315Y568533D01*
X837982D01*
X838648Y569199D01*
Y571198D01*
X845147Y485702D02*
X841149D01*
Y487701D01*
X841815Y488368D01*
X843148D01*
X843814Y487701D01*
Y485702D01*
Y487035D02*
X845147Y488368D01*
Y489700D02*
Y491033D01*
Y490367D01*
X841149D01*
X841815Y489700D01*
Y493033D02*
X841149Y493699D01*
Y495032D01*
X841815Y495698D01*
X842482D01*
X843148Y495032D01*
X843814Y495698D01*
X844481D01*
X845147Y495032D01*
Y493699D01*
X844481Y493033D01*
X843814D01*
X843148Y493699D01*
X842482Y493033D01*
X841815D01*
X843148Y493699D02*
Y495032D01*
X857647Y483702D02*
X853649D01*
Y485701D01*
X854315Y486368D01*
X855648D01*
X856314Y485701D01*
Y483702D01*
Y485035D02*
X857647Y486368D01*
Y487700D02*
Y489033D01*
Y488367D01*
X853649D01*
X854315Y487700D01*
X853649Y491033D02*
Y493698D01*
X854315D01*
X856981Y491033D01*
X857647D01*
X920650Y587201D02*
Y591199D01*
X922649D01*
X923316Y590533D01*
Y589200D01*
X922649Y588534D01*
X920650D01*
X921983D02*
X923316Y587201D01*
X924648D02*
X925981D01*
X925315D01*
Y591199D01*
X924648Y590533D01*
X930647Y591199D02*
X927981D01*
Y589200D01*
X929314Y589866D01*
X929980D01*
X930647Y589200D01*
Y587867D01*
X929980Y587201D01*
X928647D01*
X927981Y587867D01*
X898149Y569698D02*
X902147D01*
Y567699D01*
X901481Y567033D01*
X900148D01*
X899482Y567699D01*
Y569698D01*
Y568365D02*
X898149Y567033D01*
Y565700D02*
Y564367D01*
Y565033D01*
X902147D01*
X901481Y565700D01*
X902147Y559702D02*
X901481Y561035D01*
X900148Y562367D01*
X898815D01*
X898149Y561701D01*
Y560368D01*
X898815Y559702D01*
X899482D01*
X900148Y560368D01*
Y562367D01*
X982147Y710702D02*
X978149D01*
Y712701D01*
X978815Y713368D01*
X980148D01*
X980814Y712701D01*
Y710702D01*
Y712035D02*
X982147Y713368D01*
Y714700D02*
Y716033D01*
Y715367D01*
X978149D01*
X978815Y714700D01*
X982147Y720032D02*
X978149D01*
X980148Y718033D01*
Y720698D01*
X955150Y707201D02*
Y711199D01*
X957149D01*
X957815Y710533D01*
Y709200D01*
X957149Y708534D01*
X955150D01*
X956483D02*
X957815Y707201D01*
X959148D02*
X960481D01*
X959815D01*
Y711199D01*
X959148Y710533D01*
X965147Y707201D02*
X962481D01*
X965147Y709867D01*
Y710533D01*
X964480Y711199D01*
X963147D01*
X962481Y710533D01*
X936553Y709201D02*
Y713199D01*
X938552D01*
X939218Y712533D01*
Y711200D01*
X938552Y710534D01*
X936553D01*
X937885D02*
X939218Y709201D01*
X940551D02*
X941884D01*
X941218D01*
Y713199D01*
X940551Y712533D01*
X943884Y709201D02*
X945216D01*
X944550D01*
Y713199D01*
X943884Y712533D01*
X954650Y700701D02*
Y704699D01*
X956649D01*
X957316Y704033D01*
Y702700D01*
X956649Y702034D01*
X954650D01*
X955983D02*
X957316Y700701D01*
X958648D02*
X959981D01*
X959315D01*
Y704699D01*
X958648Y704033D01*
X961981D02*
X962647Y704699D01*
X963980D01*
X964647Y704033D01*
Y701367D01*
X963980Y700701D01*
X962647D01*
X961981Y701367D01*
Y704033D01*
X911316Y723201D02*
Y727199D01*
X913315D01*
X913982Y726533D01*
Y725200D01*
X913315Y724534D01*
X911316D01*
X912649D02*
X913982Y723201D01*
X915314Y723867D02*
X915981Y723201D01*
X917314D01*
X917980Y723867D01*
Y726533D01*
X917314Y727199D01*
X915981D01*
X915314Y726533D01*
Y725867D01*
X915981Y725200D01*
X917980D01*
X913790Y728975D02*
Y732974D01*
X915789D01*
X916456Y732307D01*
Y730975D01*
X915789Y730308D01*
X913790D01*
X915123D02*
X916456Y728975D01*
X917789Y732307D02*
X918455Y732974D01*
X919788D01*
X920454Y732307D01*
Y731641D01*
X919788Y730975D01*
X920454Y730308D01*
Y729642D01*
X919788Y728975D01*
X918455D01*
X917789Y729642D01*
Y730308D01*
X918455Y730975D01*
X917789Y731641D01*
Y732307D01*
X918455Y730975D02*
X919788D01*
X817253Y647701D02*
Y651699D01*
X819252D01*
X819919Y651033D01*
Y649700D01*
X819252Y649034D01*
X817253D01*
X818586D02*
X819919Y647701D01*
X821252Y651033D02*
X821918Y651699D01*
X823251D01*
X823918Y651033D01*
Y650366D01*
X823251Y649700D01*
X822585D01*
X823251D01*
X823918Y649034D01*
Y648367D01*
X823251Y647701D01*
X821918D01*
X821252Y648367D01*
X879316Y578201D02*
Y582199D01*
X881315D01*
X881982Y581533D01*
Y580200D01*
X881315Y579534D01*
X879316D01*
X880649D02*
X881982Y578201D01*
X885980D02*
X883315D01*
X885980Y580866D01*
Y581533D01*
X885314Y582199D01*
X883981D01*
X883315Y581533D01*
X860482Y587101D02*
Y591099D01*
X862482D01*
X863148Y590433D01*
Y589100D01*
X862482Y588434D01*
X860482D01*
X861815D02*
X863148Y587101D01*
X864481D02*
X865814D01*
X865147D01*
Y591099D01*
X864481Y590433D01*
X857938Y732706D02*
Y735371D01*
X857272Y736038D01*
X855939D01*
X855272Y735371D01*
Y732706D01*
X855939Y732039D01*
X857272D01*
X856605Y733372D02*
X857938Y732039D01*
X857272D02*
X857938Y732706D01*
X861271Y732039D02*
Y736038D01*
X859271Y734039D01*
X861937D01*
X871982Y753367D02*
Y756033D01*
X871315Y756699D01*
X869982D01*
X869316Y756033D01*
Y753367D01*
X869982Y752701D01*
X871315D01*
X870649Y754034D02*
X871982Y752701D01*
X871315D02*
X871982Y753367D01*
X873314Y756033D02*
X873981Y756699D01*
X875314D01*
X875980Y756033D01*
Y755367D01*
X875314Y754700D01*
X874647D01*
X875314D01*
X875980Y754034D01*
Y753367D01*
X875314Y752701D01*
X873981D01*
X873314Y753367D01*
X969148Y712867D02*
Y715533D01*
X968482Y716199D01*
X967149D01*
X966482Y715533D01*
Y712867D01*
X967149Y712201D01*
X968482D01*
X967815Y713534D02*
X969148Y712201D01*
X968482D02*
X969148Y712867D01*
X970481Y712201D02*
X971814D01*
X971147D01*
Y716199D01*
X970481Y715533D01*
X809371Y795320D02*
X808038D01*
X808704D01*
Y791988D01*
X808038Y791321D01*
X807371D01*
X806705Y791988D01*
X813369Y795320D02*
X810703D01*
Y793321D01*
X812036Y793987D01*
X812703D01*
X813369Y793321D01*
Y791988D01*
X812703Y791321D01*
X811370D01*
X810703Y791988D01*
X828482Y456199D02*
X827149D01*
X827815D01*
Y452867D01*
X827149Y452201D01*
X826482D01*
X825816Y452867D01*
X831814Y452201D02*
Y456199D01*
X829815Y454200D01*
X832480D01*
X916482Y798199D02*
X915149D01*
X915815D01*
Y794867D01*
X915149Y794201D01*
X914482D01*
X913816Y794867D01*
X920480Y794201D02*
X917815D01*
X920480Y796867D01*
Y797533D01*
X919814Y798199D01*
X918481D01*
X917815Y797533D01*
X877648Y494199D02*
X874982D01*
Y492200D01*
X876315D01*
X874982D01*
Y490201D01*
X878981D02*
X880314D01*
X879647D01*
Y494199D01*
X878981Y493533D01*
X808028Y749818D02*
Y745819D01*
X810028D01*
X810694Y746485D01*
Y749151D01*
X810028Y749818D01*
X808028D01*
X812027Y746485D02*
X812694Y745819D01*
X814027D01*
X814693Y746485D01*
Y749151D01*
X814027Y749818D01*
X812694D01*
X812027Y749151D01*
Y748485D01*
X812694Y747818D01*
X814693D01*
X888737Y728164D02*
Y724165D01*
X890736D01*
X891403Y724832D01*
Y727497D01*
X890736Y728164D01*
X888737D01*
X892736Y727497D02*
X893402Y728164D01*
X894735D01*
X895402Y727497D01*
Y726831D01*
X894735Y726165D01*
X895402Y725498D01*
Y724832D01*
X894735Y724165D01*
X893402D01*
X892736Y724832D01*
Y725498D01*
X893402Y726165D01*
X892736Y726831D01*
Y727497D01*
X893402Y726165D02*
X894735D01*
X778501Y726195D02*
Y722197D01*
X780500D01*
X781167Y722863D01*
Y725529D01*
X780500Y726195D01*
X778501D01*
X782500D02*
X785165D01*
Y725529D01*
X782500Y722863D01*
Y722197D01*
X784816Y701033D02*
X784149Y701699D01*
X782816D01*
X782150Y701033D01*
Y698367D01*
X782816Y697701D01*
X784149D01*
X784816Y698367D01*
X786148Y697701D02*
X787481D01*
X786815D01*
Y701699D01*
X786148Y701033D01*
X789481Y698367D02*
X790147Y697701D01*
X791480D01*
X792146Y698367D01*
Y701033D01*
X791480Y701699D01*
X790147D01*
X789481Y701033D01*
Y700366D01*
X790147Y699700D01*
X792146D01*
X782315Y685868D02*
X781649Y685201D01*
Y683868D01*
X782315Y683202D01*
X784981D01*
X785647Y683868D01*
Y685201D01*
X784981Y685868D01*
X785647Y687200D02*
Y688533D01*
Y687867D01*
X781649D01*
X782315Y687200D01*
Y690533D02*
X781649Y691199D01*
Y692532D01*
X782315Y693198D01*
X782982D01*
X783648Y692532D01*
X784314Y693198D01*
X784981D01*
X785647Y692532D01*
Y691199D01*
X784981Y690533D01*
X784314D01*
X783648Y691199D01*
X782982Y690533D01*
X782315D01*
X783648Y691199D02*
Y692532D01*
X767815Y670033D02*
X767149Y670699D01*
X765816D01*
X765150Y670033D01*
Y667367D01*
X765816Y666701D01*
X767149D01*
X767815Y667367D01*
X769148Y666701D02*
X770481D01*
X769815D01*
Y670699D01*
X769148Y670033D01*
X772481Y670699D02*
X775146D01*
Y670033D01*
X772481Y667367D01*
Y666701D01*
X860315Y490368D02*
X859649Y489701D01*
Y488368D01*
X860315Y487702D01*
X862981D01*
X863647Y488368D01*
Y489701D01*
X862981Y490368D01*
X863647Y491700D02*
Y493033D01*
Y492367D01*
X859649D01*
X860315Y491700D01*
X859649Y497698D02*
X860315Y496365D01*
X861648Y495033D01*
X862981D01*
X863647Y495699D01*
Y497032D01*
X862981Y497698D01*
X862315D01*
X861648Y497032D01*
Y495033D01*
X819402Y562233D02*
X818736Y562899D01*
X817403D01*
X816737Y562233D01*
Y559567D01*
X817403Y558901D01*
X818736D01*
X819402Y559567D01*
X820735Y558901D02*
X822068D01*
X821402D01*
Y562899D01*
X820735Y562233D01*
X826733Y562899D02*
X824068D01*
Y560900D01*
X825401Y561566D01*
X826067D01*
X826733Y560900D01*
Y559567D01*
X826067Y558901D01*
X824734D01*
X824068Y559567D01*
X819316Y569533D02*
X818649Y570199D01*
X817316D01*
X816650Y569533D01*
Y566867D01*
X817316Y566201D01*
X818649D01*
X819316Y566867D01*
X820648Y566201D02*
X821981D01*
X821315D01*
Y570199D01*
X820648Y569533D01*
X825980Y566201D02*
Y570199D01*
X823981Y568200D01*
X826647D01*
X896481Y578533D02*
X897147Y579199D01*
Y580532D01*
X896481Y581198D01*
X893815D01*
X893149Y580532D01*
Y579199D01*
X893815Y578533D01*
X893149Y577200D02*
Y575867D01*
Y576533D01*
X897147D01*
X896481Y577200D01*
X893149Y571202D02*
Y573868D01*
X895815Y571202D01*
X896481D01*
X897147Y571868D01*
Y573201D01*
X896481Y573868D01*
X810982Y671033D02*
X810316Y671699D01*
X808983D01*
X808316Y671033D01*
Y668367D01*
X808983Y667701D01*
X810316D01*
X810982Y668367D01*
X812315Y667701D02*
X813648D01*
X812981D01*
Y671699D01*
X812315Y671033D01*
X815647Y667701D02*
X816980D01*
X816314D01*
Y671699D01*
X815647Y671033D01*
X926315Y661533D02*
X925649Y662199D01*
X924316D01*
X923650Y661533D01*
Y658867D01*
X924316Y658201D01*
X925649D01*
X926315Y658867D01*
X927648Y658201D02*
X928981D01*
X928315D01*
Y662199D01*
X927648Y661533D01*
X930981D02*
X931647Y662199D01*
X932980D01*
X933646Y661533D01*
Y658867D01*
X932980Y658201D01*
X931647D01*
X930981Y658867D01*
Y661533D01*
X929332Y643304D02*
X928666Y643971D01*
X927333D01*
X926667Y643304D01*
Y640638D01*
X927333Y639972D01*
X928666D01*
X929332Y640638D01*
X930665D02*
X931332Y639972D01*
X932665D01*
X933331Y640638D01*
Y643304D01*
X932665Y643971D01*
X931332D01*
X930665Y643304D01*
Y642638D01*
X931332Y641971D01*
X933331D01*
X918482Y744033D02*
X917815Y744699D01*
X916482D01*
X915816Y744033D01*
Y741367D01*
X916482Y740701D01*
X917815D01*
X918482Y741367D01*
X919814Y744699D02*
X922480D01*
Y744033D01*
X919814Y741367D01*
Y740701D01*
X918482Y738533D02*
X917815Y739199D01*
X916482D01*
X915816Y738533D01*
Y735867D01*
X916482Y735201D01*
X917815D01*
X918482Y735867D01*
X922480Y739199D02*
X921147Y738533D01*
X919814Y737200D01*
Y735867D01*
X920481Y735201D01*
X921814D01*
X922480Y735867D01*
Y736534D01*
X921814Y737200D01*
X919814D01*
X819982Y644533D02*
X819315Y645199D01*
X817982D01*
X817316Y644533D01*
Y641867D01*
X817982Y641201D01*
X819315D01*
X819982Y641867D01*
X823980Y645199D02*
X821315D01*
Y643200D01*
X822647Y643866D01*
X823314D01*
X823980Y643200D01*
Y641867D01*
X823314Y641201D01*
X821981D01*
X821315Y641867D01*
X820982Y673533D02*
X820315Y674199D01*
X818982D01*
X818316Y673533D01*
Y670867D01*
X818982Y670201D01*
X820315D01*
X820982Y670867D01*
X822314Y673533D02*
X822981Y674199D01*
X824314D01*
X824980Y673533D01*
Y672866D01*
X824314Y672200D01*
X823647D01*
X824314D01*
X824980Y671534D01*
Y670867D01*
X824314Y670201D01*
X822981D01*
X822314Y670867D01*
M02*
