G04*
G04 #@! TF.GenerationSoftware,Altium Limited,Altium Designer,22.5.1 (42)*
G04*
G04 Layer_Color=16711935*
%FSLAX25Y25*%
%MOIN*%
G70*
G04*
G04 #@! TF.SameCoordinates,5F65DDE1-41B9-4BDB-98F2-9488EF11E66D*
G04*
G04*
G04 #@! TF.FilePolarity,Negative*
G04*
G01*
G75*
%ADD66C,0.03591*%
%ADD100C,0.07284*%
%ADD101C,0.06693*%
%ADD102R,0.06693X0.06693*%
%ADD103C,0.01772*%
%ADD104O,0.04921X0.09252*%
%ADD105O,0.05709X0.10827*%
%ADD106O,0.04331X0.08071*%
%ADD107C,0.06299*%
%ADD108C,0.12402*%
%ADD109C,0.20276*%
%ADD110C,0.02559*%
G36*
X923180Y781855D02*
X923025Y781867D01*
X922872Y781888D01*
X922720Y781916D01*
X922570Y781952D01*
X922421Y781996D01*
X922276Y782047D01*
X922133Y782106D01*
X921994Y782173D01*
X921858Y782247D01*
X921726Y782328D01*
X921598Y782415D01*
X921476Y782509D01*
X921358Y782610D01*
X921246Y782716D01*
X921140Y782828D01*
X921039Y782946D01*
X920945Y783068D01*
X920858Y783196D01*
X920777Y783328D01*
X920703Y783463D01*
X920636Y783603D01*
X920577Y783746D01*
X920526Y783891D01*
X920482Y784040D01*
X920446Y784190D01*
X920418Y784342D01*
X920397Y784495D01*
X920385Y784649D01*
X920381Y784804D01*
Y793859D01*
X920385Y794014D01*
X920397Y794168D01*
X920418Y794321D01*
X920446Y794473D01*
X920482Y794623D01*
X920526Y794772D01*
X920577Y794917D01*
X920636Y795060D01*
X920703Y795200D01*
X920777Y795335D01*
X920858Y795467D01*
X920945Y795595D01*
X921039Y795717D01*
X921140Y795835D01*
X921246Y795947D01*
X921358Y796053D01*
X921476Y796154D01*
X921598Y796248D01*
X921726Y796336D01*
X921858Y796416D01*
X921994Y796490D01*
X922133Y796557D01*
X922276Y796616D01*
X922421Y796667D01*
X922570Y796711D01*
X922720Y796747D01*
X922872Y796775D01*
X923025Y796796D01*
X923180Y796808D01*
X923334Y796812D01*
X923489Y796808D01*
X923643Y796796D01*
X923796Y796775D01*
X923948Y796747D01*
X924098Y796711D01*
X924247Y796667D01*
X924392Y796616D01*
X924535Y796557D01*
X924675Y796490D01*
X924810Y796416D01*
X924942Y796336D01*
X925070Y796248D01*
X925192Y796154D01*
X925310Y796053D01*
X925422Y795947D01*
X925528Y795835D01*
X925629Y795717D01*
X925723Y795595D01*
X925810Y795467D01*
X925891Y795335D01*
X925965Y795200D01*
X926031Y795060D01*
X926091Y794917D01*
X926142Y794772D01*
X926186Y794623D01*
X926222Y794473D01*
X926250Y794321D01*
X926271Y794168D01*
X926283Y794014D01*
X926287Y793859D01*
Y784804D01*
X926283Y784649D01*
X926271Y784495D01*
X926250Y784342D01*
X926222Y784190D01*
X926186Y784040D01*
X926142Y783891D01*
X926091Y783746D01*
X926031Y783603D01*
X925965Y783463D01*
X925891Y783328D01*
X925810Y783196D01*
X925723Y783068D01*
X925629Y782946D01*
X925528Y782828D01*
X925422Y782716D01*
X925310Y782610D01*
X925192Y782509D01*
X925070Y782415D01*
X924942Y782328D01*
X924810Y782247D01*
X924675Y782173D01*
X924535Y782106D01*
X924392Y782047D01*
X924247Y781996D01*
X924098Y781952D01*
X923948Y781916D01*
X923796Y781888D01*
X923643Y781867D01*
X923489Y781855D01*
X923334Y781851D01*
X923180Y781855D01*
D02*
G37*
G36*
X959557D02*
X959403Y781867D01*
X959250Y781888D01*
X959098Y781916D01*
X958948Y781952D01*
X958799Y781996D01*
X958654Y782047D01*
X958511Y782106D01*
X958371Y782173D01*
X958236Y782247D01*
X958104Y782328D01*
X957976Y782415D01*
X957854Y782509D01*
X957736Y782610D01*
X957624Y782716D01*
X957518Y782828D01*
X957417Y782946D01*
X957323Y783068D01*
X957236Y783196D01*
X957155Y783328D01*
X957081Y783463D01*
X957014Y783603D01*
X956955Y783746D01*
X956904Y783891D01*
X956860Y784040D01*
X956824Y784190D01*
X956796Y784342D01*
X956775Y784495D01*
X956763Y784649D01*
X956759Y784804D01*
Y793859D01*
X956763Y794014D01*
X956775Y794168D01*
X956796Y794321D01*
X956824Y794473D01*
X956860Y794623D01*
X956904Y794772D01*
X956955Y794917D01*
X957014Y795060D01*
X957081Y795200D01*
X957155Y795335D01*
X957236Y795467D01*
X957323Y795595D01*
X957417Y795717D01*
X957518Y795835D01*
X957624Y795947D01*
X957736Y796053D01*
X957854Y796154D01*
X957976Y796248D01*
X958104Y796336D01*
X958236Y796416D01*
X958371Y796490D01*
X958511Y796557D01*
X958654Y796616D01*
X958799Y796667D01*
X958948Y796711D01*
X959098Y796747D01*
X959250Y796775D01*
X959403Y796796D01*
X959557Y796808D01*
X959712Y796812D01*
X959867Y796808D01*
X960021Y796796D01*
X960174Y796775D01*
X960326Y796747D01*
X960476Y796711D01*
X960624Y796667D01*
X960770Y796616D01*
X960913Y796557D01*
X961053Y796490D01*
X961188Y796416D01*
X961320Y796336D01*
X961448Y796248D01*
X961570Y796154D01*
X961688Y796053D01*
X961800Y795947D01*
X961906Y795835D01*
X962007Y795717D01*
X962101Y795595D01*
X962188Y795467D01*
X962269Y795335D01*
X962343Y795200D01*
X962409Y795060D01*
X962469Y794917D01*
X962520Y794772D01*
X962564Y794623D01*
X962600Y794473D01*
X962628Y794321D01*
X962648Y794168D01*
X962661Y794014D01*
X962665Y793859D01*
Y784804D01*
X962661Y784649D01*
X962648Y784495D01*
X962628Y784342D01*
X962600Y784190D01*
X962564Y784040D01*
X962520Y783891D01*
X962469Y783746D01*
X962409Y783603D01*
X962343Y783463D01*
X962269Y783328D01*
X962188Y783196D01*
X962101Y783068D01*
X962007Y782946D01*
X961906Y782828D01*
X961800Y782716D01*
X961688Y782610D01*
X961570Y782509D01*
X961448Y782415D01*
X961320Y782328D01*
X961188Y782247D01*
X961053Y782173D01*
X960913Y782106D01*
X960770Y782047D01*
X960624Y781996D01*
X960476Y781952D01*
X960326Y781916D01*
X960174Y781888D01*
X960021Y781867D01*
X959867Y781855D01*
X959712Y781851D01*
X959557Y781855D01*
D02*
G37*
D66*
X776148Y685700D02*
D03*
X821648Y654200D02*
D03*
X812657Y645191D02*
D03*
X910148Y666200D02*
D03*
X887148Y490200D02*
D03*
X888648Y485700D02*
D03*
X893648D02*
D03*
X898148D02*
D03*
X902648D02*
D03*
X907148D02*
D03*
X912148D02*
D03*
Y490200D02*
D03*
Y494700D02*
D03*
Y499200D02*
D03*
Y503700D02*
D03*
Y508200D02*
D03*
Y513200D02*
D03*
X907148D02*
D03*
X902648D02*
D03*
X898148D02*
D03*
X893648D02*
D03*
X837148Y587700D02*
D03*
X791648Y636700D02*
D03*
X980148Y724700D02*
D03*
X959237Y719958D02*
D03*
X834648Y710200D02*
D03*
X789648Y719070D02*
D03*
X929735Y744574D02*
D03*
X929735Y749806D02*
D03*
X953648Y728200D02*
D03*
X952648Y715200D02*
D03*
X958648D02*
D03*
X955648Y724200D02*
D03*
X930209Y584325D02*
D03*
X833648Y572700D02*
D03*
X829648Y492139D02*
D03*
X910648Y625200D02*
D03*
X927021Y636078D02*
D03*
X930230Y716700D02*
D03*
X944288Y621044D02*
D03*
X843648Y572700D02*
D03*
X827148Y467700D02*
D03*
X814287Y660728D02*
D03*
X788875Y660720D02*
D03*
X858648Y500700D02*
D03*
X850880Y588932D02*
D03*
X788875Y665680D02*
D03*
X789148Y694700D02*
D03*
X859148Y578700D02*
D03*
X876148Y580200D02*
D03*
Y567900D02*
D03*
X870815Y585200D02*
D03*
X868148Y589700D02*
D03*
X859060Y569322D02*
D03*
X886148Y589200D02*
D03*
X892148Y584700D02*
D03*
X891148Y589200D02*
D03*
X881148Y574700D02*
D03*
X888648Y580200D02*
D03*
X888648Y574200D02*
D03*
X922048Y579700D02*
D03*
X809657Y650191D02*
D03*
X916648Y645200D02*
D03*
X912148Y661200D02*
D03*
X925911Y650846D02*
D03*
X913350Y649902D02*
D03*
X924648Y646200D02*
D03*
D100*
X941006Y695495D02*
D03*
Y669905D02*
D03*
X923290Y695495D02*
D03*
Y669905D02*
D03*
X971184Y583078D02*
D03*
X945594D02*
D03*
X971184Y600794D02*
D03*
X945594D02*
D03*
D101*
X806648Y570900D02*
D03*
Y580900D02*
D03*
X796648D02*
D03*
Y570900D02*
D03*
Y590900D02*
D03*
X806648D02*
D03*
X796648Y600900D02*
D03*
X806648D02*
D03*
X796648Y610900D02*
D03*
X806648D02*
D03*
Y620900D02*
D03*
X796648Y530900D02*
D03*
X806648D02*
D03*
X796648Y540900D02*
D03*
X806648D02*
D03*
X796648Y550900D02*
D03*
X806648D02*
D03*
Y560900D02*
D03*
X796648D02*
D03*
X921648Y709200D02*
D03*
X911648D02*
D03*
X901648D02*
D03*
X891648D02*
D03*
D102*
X796648Y620900D02*
D03*
X881648Y709200D02*
D03*
D103*
X859243Y631213D02*
D03*
X870266D02*
D03*
Y636724D02*
D03*
X864754D02*
D03*
X859243D02*
D03*
X861955Y639524D02*
D03*
X867467D02*
D03*
Y634012D02*
D03*
X861955D02*
D03*
X867467Y628500D02*
D03*
X861955D02*
D03*
D104*
X958531Y770198D02*
D03*
X924515D02*
D03*
D105*
X959712Y791300D02*
D03*
X923334D02*
D03*
D106*
X863991Y455639D02*
D03*
X836432D02*
D03*
D107*
X860054Y466269D02*
D03*
X840368D02*
D03*
D108*
X839648Y775200D02*
D03*
X864648D02*
D03*
D109*
X981152Y548775D02*
D03*
Y618775D02*
D03*
X761089Y548774D02*
D03*
Y618774D02*
D03*
X788648Y462200D02*
D03*
X985648Y782267D02*
D03*
X986207Y462133D02*
D03*
X761089Y462267D02*
D03*
Y782267D02*
D03*
X904648Y782200D02*
D03*
X958648Y462200D02*
D03*
X788648Y782200D02*
D03*
D110*
X939358Y727822D02*
D03*
Y732153D02*
D03*
X943688Y727822D02*
D03*
Y732153D02*
D03*
X940927Y637570D02*
D03*
Y641507D02*
D03*
Y645444D02*
D03*
X944864Y637570D02*
D03*
Y641507D02*
D03*
Y645444D02*
D03*
X948801Y637570D02*
D03*
Y641507D02*
D03*
Y645444D02*
D03*
X952738Y637570D02*
D03*
Y641507D02*
D03*
Y645444D02*
D03*
M02*
