G04*
G04 #@! TF.GenerationSoftware,Altium Limited,Altium Designer,22.5.1 (42)*
G04*
G04 Layer_Physical_Order=1*
G04 Layer_Color=255*
%FSLAX25Y25*%
%MOIN*%
G70*
G04*
G04 #@! TF.SameCoordinates,5F65DDE1-41B9-4BDB-98F2-9488EF11E66D*
G04*
G04*
G04 #@! TF.FilePolarity,Positive*
G04*
G01*
G75*
%ADD14C,0.01000*%
%ADD17C,0.00500*%
%ADD20C,0.00600*%
G04:AMPARAMS|DCode=25|XSize=21.65mil|YSize=19.68mil|CornerRadius=2.46mil|HoleSize=0mil|Usage=FLASHONLY|Rotation=0.000|XOffset=0mil|YOffset=0mil|HoleType=Round|Shape=RoundedRectangle|*
%AMROUNDEDRECTD25*
21,1,0.02165,0.01476,0,0,0.0*
21,1,0.01673,0.01968,0,0,0.0*
1,1,0.00492,0.00837,-0.00738*
1,1,0.00492,-0.00837,-0.00738*
1,1,0.00492,-0.00837,0.00738*
1,1,0.00492,0.00837,0.00738*
%
%ADD25ROUNDEDRECTD25*%
%ADD26R,0.03150X0.03150*%
%ADD27R,0.02362X0.05512*%
%ADD28R,0.07087X0.05315*%
%ADD29R,0.03150X0.02362*%
%ADD30C,0.03000*%
%ADD31R,0.09646X0.09646*%
%ADD32O,0.01772X0.01378*%
%ADD33O,0.01378X0.01772*%
%ADD34R,0.01968X0.02559*%
%ADD35R,0.02800X0.01000*%
%ADD36R,0.01000X0.02800*%
%ADD37R,0.02362X0.03150*%
G04:AMPARAMS|DCode=38|XSize=21.65mil|YSize=19.68mil|CornerRadius=2.46mil|HoleSize=0mil|Usage=FLASHONLY|Rotation=90.000|XOffset=0mil|YOffset=0mil|HoleType=Round|Shape=RoundedRectangle|*
%AMROUNDEDRECTD38*
21,1,0.02165,0.01476,0,0,90.0*
21,1,0.01673,0.01968,0,0,90.0*
1,1,0.00492,0.00738,0.00837*
1,1,0.00492,0.00738,-0.00837*
1,1,0.00492,-0.00738,-0.00837*
1,1,0.00492,-0.00738,0.00837*
%
%ADD38ROUNDEDRECTD38*%
%ADD40R,0.04331X0.02362*%
%ADD41R,0.03150X0.03937*%
%ADD42R,0.07000X0.08000*%
%ADD43R,0.10433X0.06890*%
%ADD44R,0.03543X0.03543*%
%ADD45R,0.07874X0.03543*%
%ADD46R,0.03543X0.07874*%
%ADD47R,0.15748X0.15748*%
%ADD48R,0.03740X0.03740*%
%ADD49R,0.02441X0.02953*%
%ADD50R,0.07480X0.12598*%
%ADD51R,0.07480X0.03543*%
%ADD52R,0.01181X0.02756*%
%ADD53R,0.03543X0.02756*%
%ADD54R,0.04724X0.07480*%
%ADD55R,0.05906X0.07480*%
%ADD56R,0.01575X0.05315*%
%ADD57R,0.02953X0.02441*%
%ADD58R,0.06890X0.10433*%
%ADD59R,0.03150X0.02362*%
%ADD60R,0.03937X0.03150*%
%ADD80R,0.08661X0.04134*%
%ADD81R,0.04134X0.03937*%
%ADD111R,0.16929X0.13386*%
%ADD112C,0.02362*%
%ADD113R,0.03150X0.07087*%
%ADD114C,0.02000*%
%ADD115C,0.02500*%
%ADD116C,0.05000*%
%ADD117C,0.00932*%
%ADD118C,0.01200*%
%ADD119C,0.01414*%
%ADD120C,0.00800*%
%ADD121C,0.06693*%
%ADD122C,0.06102*%
%ADD123R,0.06102X0.06102*%
%ADD124C,0.01181*%
%ADD125O,0.04331X0.08661*%
%ADD126O,0.05118X0.10236*%
%ADD127O,0.03740X0.07480*%
%ADD128C,0.05709*%
%ADD129C,0.11811*%
%ADD130C,0.19685*%
%ADD131C,0.01968*%
G36*
X998550Y443875D02*
X748187D01*
Y799397D01*
X998550D01*
Y443875D01*
D02*
G37*
%LPC*%
G36*
X959723Y796851D02*
X959712Y796847D01*
X959701Y796851D01*
X959567Y796847D01*
X959556Y796842D01*
X959544Y796846D01*
X959410Y796836D01*
X959400Y796830D01*
X959388Y796833D01*
X959255Y796816D01*
X959245Y796810D01*
X959233Y796812D01*
X959101Y796788D01*
X959091Y796781D01*
X959079Y796783D01*
X958949Y796752D01*
X958939Y796745D01*
X958927Y796746D01*
X958798Y796708D01*
X958789Y796700D01*
X958777Y796701D01*
X958650Y796656D01*
X958641Y796648D01*
X958629D01*
X958505Y796597D01*
X958497Y796588D01*
X958485Y796588D01*
X958364Y796530D01*
X958356Y796521D01*
X958344Y796520D01*
X958226Y796456D01*
X958218Y796446D01*
X958206Y796445D01*
X958092Y796375D01*
X958085Y796365D01*
X958073Y796362D01*
X957963Y796286D01*
X957956Y796276D01*
X957944Y796273D01*
X957838Y796191D01*
X957832Y796181D01*
X957820Y796177D01*
X957718Y796090D01*
X957713Y796079D01*
X957701Y796075D01*
X957604Y795983D01*
X957599Y795972D01*
X957588Y795967D01*
X957496Y795869D01*
X957492Y795858D01*
X957481Y795853D01*
X957394Y795751D01*
X957390Y795739D01*
X957380Y795733D01*
X957298Y795627D01*
X957295Y795615D01*
X957285Y795609D01*
X957209Y795498D01*
X957206Y795486D01*
X957197Y795479D01*
X957127Y795365D01*
X957125Y795353D01*
X957115Y795345D01*
X957051Y795227D01*
X957050Y795215D01*
X957041Y795207D01*
X956983Y795086D01*
X956983Y795074D01*
X956974Y795066D01*
X956923Y794942D01*
Y794930D01*
X956915Y794921D01*
X956870Y794794D01*
X956871Y794782D01*
X956863Y794773D01*
X956825Y794644D01*
X956826Y794632D01*
X956819Y794623D01*
X956788Y794492D01*
X956790Y794480D01*
X956783Y794470D01*
X956759Y794338D01*
X956761Y794326D01*
X956755Y794316D01*
X956738Y794183D01*
X956741Y794171D01*
X956735Y794161D01*
X956725Y794027D01*
X956728Y794016D01*
X956724Y794004D01*
X956720Y793870D01*
X956722Y793865D01*
X956720Y793859D01*
Y784804D01*
X956722Y784798D01*
X956720Y784793D01*
X956724Y784659D01*
X956728Y784648D01*
X956725Y784636D01*
X956735Y784503D01*
X956741Y784492D01*
X956738Y784480D01*
X956755Y784347D01*
X956761Y784337D01*
X956759Y784325D01*
X956783Y784193D01*
X956790Y784183D01*
X956788Y784171D01*
X956819Y784041D01*
X956826Y784031D01*
X956825Y784019D01*
X956863Y783890D01*
X956871Y783881D01*
X956870Y783869D01*
X956915Y783742D01*
X956923Y783733D01*
Y783721D01*
X956974Y783598D01*
X956983Y783589D01*
X956983Y783577D01*
X957041Y783456D01*
X957050Y783448D01*
X957051Y783436D01*
X957115Y783318D01*
X957125Y783310D01*
X957127Y783298D01*
X957197Y783184D01*
X957206Y783177D01*
X957209Y783165D01*
X957285Y783055D01*
X957295Y783048D01*
X957298Y783036D01*
X957380Y782930D01*
X957390Y782924D01*
X957394Y782912D01*
X957481Y782810D01*
X957492Y782805D01*
X957496Y782794D01*
X957588Y782696D01*
X957599Y782691D01*
X957604Y782680D01*
X957702Y782588D01*
X957713Y782584D01*
X957718Y782573D01*
X957820Y782486D01*
X957832Y782482D01*
X957838Y782472D01*
X957944Y782390D01*
X957956Y782387D01*
X957963Y782377D01*
X958073Y782301D01*
X958085Y782298D01*
X958092Y782289D01*
X958206Y782219D01*
X958218Y782217D01*
X958226Y782207D01*
X958344Y782143D01*
X958356Y782142D01*
X958364Y782133D01*
X958485Y782075D01*
X958497Y782075D01*
X958505Y782066D01*
X958629Y782015D01*
X958641D01*
X958650Y782007D01*
X958777Y781962D01*
X958789Y781963D01*
X958798Y781955D01*
X958927Y781917D01*
X958939Y781918D01*
X958949Y781911D01*
X959079Y781880D01*
X959091Y781882D01*
X959101Y781875D01*
X959233Y781851D01*
X959245Y781853D01*
X959255Y781847D01*
X959388Y781830D01*
X959400Y781833D01*
X959410Y781827D01*
X959544Y781817D01*
X959556Y781821D01*
X959567Y781816D01*
X959701Y781812D01*
X959712Y781816D01*
X959723Y781812D01*
X959857Y781816D01*
X959868Y781821D01*
X959880Y781817D01*
X960013Y781827D01*
X960024Y781833D01*
X960036Y781830D01*
X960169Y781847D01*
X960179Y781853D01*
X960191Y781851D01*
X960323Y781875D01*
X960333Y781882D01*
X960345Y781880D01*
X960475Y781911D01*
X960485Y781918D01*
X960497Y781917D01*
X960626Y781955D01*
X960635Y781963D01*
X960647Y781962D01*
X960774Y782007D01*
X960783Y782015D01*
X960795D01*
X960919Y782066D01*
X960927Y782075D01*
X960939Y782075D01*
X961060Y782133D01*
X961068Y782142D01*
X961080Y782143D01*
X961198Y782207D01*
X961206Y782217D01*
X961218Y782219D01*
X961332Y782289D01*
X961339Y782298D01*
X961351Y782301D01*
X961461Y782377D01*
X961468Y782387D01*
X961480Y782390D01*
X961586Y782472D01*
X961592Y782482D01*
X961604Y782486D01*
X961705Y782573D01*
X961711Y782584D01*
X961722Y782588D01*
X961819Y782680D01*
X961825Y782691D01*
X961835Y782696D01*
X961928Y782794D01*
X961932Y782805D01*
X961943Y782810D01*
X962030Y782912D01*
X962034Y782924D01*
X962044Y782930D01*
X962126Y783036D01*
X962129Y783048D01*
X962139Y783055D01*
X962215Y783165D01*
X962218Y783177D01*
X962227Y783184D01*
X962297Y783298D01*
X962299Y783310D01*
X962309Y783318D01*
X962373Y783436D01*
X962374Y783448D01*
X962383Y783456D01*
X962440Y783577D01*
X962441Y783589D01*
X962450Y783598D01*
X962501Y783721D01*
Y783733D01*
X962509Y783742D01*
X962554Y783869D01*
X962553Y783881D01*
X962561Y783890D01*
X962599Y784019D01*
X962598Y784031D01*
X962605Y784041D01*
X962636Y784171D01*
X962634Y784183D01*
X962641Y784193D01*
X962665Y784325D01*
X962663Y784337D01*
X962669Y784347D01*
X962686Y784480D01*
X962683Y784492D01*
X962689Y784503D01*
X962699Y784636D01*
X962695Y784648D01*
X962700Y784659D01*
X962704Y784793D01*
X962702Y784798D01*
X962704Y784804D01*
Y793859D01*
X962702Y793865D01*
X962704Y793870D01*
X962700Y794004D01*
X962695Y794016D01*
X962699Y794027D01*
X962689Y794161D01*
X962683Y794171D01*
X962686Y794183D01*
X962669Y794316D01*
X962663Y794326D01*
X962665Y794338D01*
X962641Y794470D01*
X962634Y794480D01*
X962636Y794492D01*
X962605Y794623D01*
X962598Y794632D01*
X962599Y794644D01*
X962561Y794773D01*
X962553Y794782D01*
X962554Y794794D01*
X962509Y794921D01*
X962501Y794930D01*
Y794942D01*
X962450Y795066D01*
X962441Y795074D01*
X962440Y795086D01*
X962383Y795207D01*
X962374Y795215D01*
X962373Y795227D01*
X962309Y795345D01*
X962299Y795353D01*
X962297Y795365D01*
X962227Y795479D01*
X962218Y795486D01*
X962215Y795498D01*
X962139Y795609D01*
X962129Y795615D01*
X962126Y795627D01*
X962044Y795733D01*
X962034Y795739D01*
X962030Y795751D01*
X961943Y795853D01*
X961932Y795858D01*
X961928Y795869D01*
X961835Y795967D01*
X961825Y795972D01*
X961819Y795983D01*
X961722Y796075D01*
X961711Y796079D01*
X961705Y796090D01*
X961604Y796177D01*
X961592Y796181D01*
X961586Y796191D01*
X961480Y796273D01*
X961468Y796276D01*
X961461Y796286D01*
X961351Y796362D01*
X961339Y796365D01*
X961332Y796375D01*
X961218Y796445D01*
X961206Y796446D01*
X961198Y796456D01*
X961080Y796520D01*
X961068Y796521D01*
X961060Y796530D01*
X960939Y796588D01*
X960927Y796588D01*
X960919Y796597D01*
X960795Y796648D01*
X960783D01*
X960774Y796656D01*
X960647Y796701D01*
X960635Y796700D01*
X960626Y796708D01*
X960497Y796746D01*
X960485Y796745D01*
X960475Y796752D01*
X960345Y796783D01*
X960333Y796781D01*
X960323Y796788D01*
X960191Y796812D01*
X960179Y796810D01*
X960169Y796816D01*
X960036Y796833D01*
X960024Y796830D01*
X960013Y796836D01*
X959880Y796846D01*
X959868Y796842D01*
X959857Y796847D01*
X959723Y796851D01*
D02*
G37*
G36*
X923345D02*
X923334Y796847D01*
X923323Y796851D01*
X923189Y796847D01*
X923178Y796842D01*
X923166Y796846D01*
X923032Y796836D01*
X923022Y796830D01*
X923010Y796833D01*
X922877Y796816D01*
X922867Y796810D01*
X922855Y796812D01*
X922723Y796788D01*
X922713Y796781D01*
X922701Y796783D01*
X922571Y796752D01*
X922561Y796745D01*
X922549Y796746D01*
X922420Y796708D01*
X922411Y796700D01*
X922399Y796701D01*
X922272Y796656D01*
X922263Y796648D01*
X922251D01*
X922127Y796597D01*
X922119Y796588D01*
X922107Y796588D01*
X921986Y796530D01*
X921978Y796521D01*
X921966Y796520D01*
X921848Y796456D01*
X921840Y796446D01*
X921828Y796445D01*
X921714Y796375D01*
X921707Y796365D01*
X921695Y796362D01*
X921585Y796286D01*
X921578Y796276D01*
X921566Y796273D01*
X921460Y796191D01*
X921454Y796181D01*
X921442Y796177D01*
X921340Y796090D01*
X921335Y796079D01*
X921324Y796075D01*
X921226Y795983D01*
X921222Y795972D01*
X921210Y795967D01*
X921118Y795869D01*
X921114Y795858D01*
X921103Y795853D01*
X921016Y795751D01*
X921012Y795739D01*
X921002Y795733D01*
X920920Y795627D01*
X920917Y795615D01*
X920907Y795609D01*
X920831Y795498D01*
X920828Y795486D01*
X920819Y795479D01*
X920749Y795365D01*
X920747Y795353D01*
X920737Y795345D01*
X920673Y795227D01*
X920672Y795215D01*
X920663Y795207D01*
X920605Y795086D01*
X920605Y795074D01*
X920596Y795066D01*
X920545Y794942D01*
Y794930D01*
X920537Y794921D01*
X920492Y794794D01*
X920493Y794782D01*
X920485Y794773D01*
X920447Y794644D01*
X920448Y794632D01*
X920441Y794623D01*
X920410Y794492D01*
X920412Y794480D01*
X920405Y794470D01*
X920381Y794338D01*
X920383Y794326D01*
X920377Y794316D01*
X920360Y794183D01*
X920363Y794171D01*
X920357Y794161D01*
X920347Y794027D01*
X920351Y794016D01*
X920346Y794004D01*
X920342Y793870D01*
X920344Y793865D01*
X920342Y793859D01*
Y784804D01*
X920344Y784798D01*
X920342Y784793D01*
X920346Y784659D01*
X920351Y784648D01*
X920347Y784636D01*
X920357Y784503D01*
X920363Y784492D01*
X920360Y784480D01*
X920377Y784347D01*
X920383Y784337D01*
X920381Y784325D01*
X920405Y784193D01*
X920412Y784183D01*
X920410Y784171D01*
X920441Y784041D01*
X920448Y784031D01*
X920447Y784019D01*
X920485Y783890D01*
X920493Y783881D01*
X920492Y783869D01*
X920537Y783742D01*
X920545Y783733D01*
Y783721D01*
X920596Y783598D01*
X920605Y783589D01*
X920605Y783577D01*
X920663Y783456D01*
X920672Y783448D01*
X920673Y783436D01*
X920737Y783318D01*
X920747Y783310D01*
X920749Y783298D01*
X920819Y783184D01*
X920828Y783177D01*
X920831Y783165D01*
X920907Y783055D01*
X920917Y783048D01*
X920920Y783036D01*
X921002Y782930D01*
X921012Y782924D01*
X921016Y782912D01*
X921103Y782810D01*
X921114Y782805D01*
X921118Y782794D01*
X921210Y782696D01*
X921222Y782691D01*
X921226Y782680D01*
X921324Y782588D01*
X921335Y782584D01*
X921340Y782573D01*
X921442Y782486D01*
X921454Y782482D01*
X921460Y782472D01*
X921566Y782390D01*
X921578Y782387D01*
X921585Y782377D01*
X921695Y782301D01*
X921707Y782298D01*
X921714Y782289D01*
X921828Y782219D01*
X921840Y782217D01*
X921848Y782207D01*
X921966Y782143D01*
X921978Y782142D01*
X921986Y782133D01*
X922107Y782075D01*
X922119Y782075D01*
X922127Y782066D01*
X922251Y782015D01*
X922263D01*
X922272Y782007D01*
X922399Y781962D01*
X922411Y781963D01*
X922420Y781955D01*
X922549Y781917D01*
X922561Y781918D01*
X922571Y781911D01*
X922701Y781880D01*
X922713Y781882D01*
X922723Y781875D01*
X922855Y781851D01*
X922867Y781853D01*
X922877Y781847D01*
X923010Y781830D01*
X923022Y781833D01*
X923032Y781827D01*
X923166Y781817D01*
X923178Y781821D01*
X923189Y781816D01*
X923323Y781812D01*
X923334Y781816D01*
X923345Y781812D01*
X923479Y781816D01*
X923490Y781821D01*
X923502Y781817D01*
X923635Y781827D01*
X923646Y781833D01*
X923658Y781830D01*
X923791Y781847D01*
X923801Y781853D01*
X923813Y781851D01*
X923945Y781875D01*
X923955Y781882D01*
X923967Y781880D01*
X924097Y781911D01*
X924107Y781918D01*
X924119Y781917D01*
X924248Y781955D01*
X924257Y781963D01*
X924269Y781962D01*
X924396Y782007D01*
X924405Y782015D01*
X924417D01*
X924541Y782066D01*
X924549Y782075D01*
X924561Y782075D01*
X924682Y782133D01*
X924690Y782142D01*
X924702Y782143D01*
X924820Y782207D01*
X924828Y782217D01*
X924840Y782219D01*
X924954Y782289D01*
X924961Y782298D01*
X924973Y782301D01*
X925083Y782377D01*
X925090Y782387D01*
X925102Y782390D01*
X925208Y782472D01*
X925214Y782482D01*
X925226Y782486D01*
X925327Y782573D01*
X925333Y782584D01*
X925344Y782588D01*
X925441Y782680D01*
X925447Y782691D01*
X925458Y782696D01*
X925550Y782794D01*
X925554Y782805D01*
X925565Y782810D01*
X925652Y782912D01*
X925656Y782924D01*
X925666Y782930D01*
X925748Y783036D01*
X925751Y783048D01*
X925761Y783055D01*
X925837Y783165D01*
X925840Y783177D01*
X925849Y783184D01*
X925919Y783298D01*
X925921Y783310D01*
X925931Y783318D01*
X925995Y783436D01*
X925996Y783448D01*
X926005Y783456D01*
X926063Y783577D01*
X926063Y783589D01*
X926072Y783598D01*
X926123Y783721D01*
Y783733D01*
X926131Y783742D01*
X926176Y783869D01*
X926175Y783881D01*
X926183Y783890D01*
X926221Y784019D01*
X926220Y784031D01*
X926227Y784041D01*
X926258Y784171D01*
X926256Y784183D01*
X926263Y784193D01*
X926287Y784325D01*
X926285Y784337D01*
X926291Y784347D01*
X926308Y784480D01*
X926305Y784492D01*
X926311Y784503D01*
X926321Y784636D01*
X926317Y784648D01*
X926322Y784659D01*
X926326Y784793D01*
X926324Y784798D01*
X926326Y784804D01*
Y793859D01*
X926324Y793865D01*
X926326Y793870D01*
X926322Y794004D01*
X926317Y794016D01*
X926321Y794027D01*
X926311Y794161D01*
X926305Y794171D01*
X926308Y794183D01*
X926291Y794316D01*
X926285Y794326D01*
X926287Y794338D01*
X926263Y794470D01*
X926256Y794480D01*
X926258Y794492D01*
X926227Y794623D01*
X926220Y794632D01*
X926221Y794644D01*
X926183Y794773D01*
X926175Y794782D01*
X926176Y794794D01*
X926131Y794921D01*
X926123Y794930D01*
Y794942D01*
X926072Y795066D01*
X926063Y795074D01*
X926063Y795086D01*
X926005Y795207D01*
X925996Y795215D01*
X925995Y795227D01*
X925931Y795345D01*
X925921Y795353D01*
X925919Y795365D01*
X925849Y795479D01*
X925840Y795486D01*
X925837Y795498D01*
X925761Y795609D01*
X925751Y795615D01*
X925748Y795627D01*
X925666Y795733D01*
X925656Y795739D01*
X925652Y795751D01*
X925565Y795853D01*
X925554Y795858D01*
X925550Y795869D01*
X925458Y795967D01*
X925447Y795972D01*
X925442Y795983D01*
X925344Y796075D01*
X925333Y796079D01*
X925327Y796090D01*
X925226Y796177D01*
X925214Y796181D01*
X925208Y796191D01*
X925102Y796273D01*
X925090Y796276D01*
X925083Y796286D01*
X924973Y796362D01*
X924961Y796365D01*
X924954Y796375D01*
X924840Y796445D01*
X924828Y796446D01*
X924820Y796456D01*
X924702Y796520D01*
X924690Y796521D01*
X924682Y796530D01*
X924561Y796588D01*
X924549Y796588D01*
X924541Y796597D01*
X924417Y796648D01*
X924405D01*
X924396Y796656D01*
X924269Y796701D01*
X924257Y796700D01*
X924248Y796708D01*
X924119Y796746D01*
X924107Y796745D01*
X924097Y796752D01*
X923967Y796783D01*
X923955Y796781D01*
X923945Y796788D01*
X923813Y796812D01*
X923801Y796810D01*
X923791Y796816D01*
X923658Y796833D01*
X923646Y796830D01*
X923635Y796836D01*
X923502Y796846D01*
X923490Y796842D01*
X923479Y796847D01*
X923345Y796851D01*
D02*
G37*
G36*
X839848Y781516D02*
Y775400D01*
X845964D01*
X845862Y776436D01*
X845502Y777625D01*
X844916Y778720D01*
X844128Y779680D01*
X843168Y780468D01*
X842073Y781054D01*
X840884Y781414D01*
X839848Y781516D01*
D02*
G37*
G36*
X839448D02*
X838412Y781414D01*
X837223Y781054D01*
X836128Y780468D01*
X835168Y779680D01*
X834380Y778720D01*
X833794Y777625D01*
X833434Y776436D01*
X833332Y775400D01*
X839448D01*
Y781516D01*
D02*
G37*
G36*
X929315Y775480D02*
X927343D01*
Y773545D01*
X926843Y773446D01*
X926756Y773657D01*
X926345Y774193D01*
X925809Y774604D01*
X925185Y774862D01*
X924715Y774924D01*
Y770398D01*
X927103D01*
Y771523D01*
X927343Y771924D01*
X929315D01*
Y773702D01*
Y775480D01*
D02*
G37*
G36*
X945481Y777099D02*
X937438D01*
X937048Y777022D01*
X936718Y776801D01*
X935881Y775964D01*
X935660Y775633D01*
X935629Y775480D01*
X929715D01*
Y773702D01*
Y771924D01*
X935582D01*
Y770620D01*
X934896Y769934D01*
X934676Y769604D01*
X934598Y769213D01*
Y768787D01*
X929912D01*
Y767009D01*
X929712D01*
Y766809D01*
X928721D01*
Y765648D01*
X926444D01*
X926274Y766148D01*
X926345Y766203D01*
X926756Y766739D01*
X927014Y767363D01*
X927103Y768032D01*
Y769998D01*
X924515D01*
X921928D01*
Y768032D01*
X922016Y767363D01*
X922274Y766739D01*
X922686Y766203D01*
X923221Y765792D01*
X923845Y765533D01*
X924331Y765469D01*
X924530Y765005D01*
X924531Y764962D01*
X916799Y757230D01*
X916600Y756932D01*
X916531Y756581D01*
Y736819D01*
X916600Y736468D01*
X916799Y736170D01*
X920106Y732864D01*
X919914Y732402D01*
X893922D01*
X893922Y732402D01*
X893376Y732293D01*
X892913Y731984D01*
X892913Y731984D01*
X885935Y725005D01*
X853512D01*
Y725553D01*
X852826D01*
Y731296D01*
X853119D01*
Y735246D01*
X849169D01*
Y731296D01*
X849462D01*
Y725553D01*
X848775D01*
Y725260D01*
X845426D01*
X845426Y725260D01*
X844782Y725132D01*
X844236Y724768D01*
X844059Y724591D01*
X837943D01*
X837300Y724463D01*
X836754Y724098D01*
X833506Y720851D01*
X824005D01*
Y723013D01*
X812772D01*
Y717342D01*
X809107Y713678D01*
X808798Y713215D01*
X808689Y712669D01*
X808689Y712669D01*
Y691760D01*
X801076Y684146D01*
X800576Y684353D01*
Y688348D01*
X792295D01*
Y687604D01*
X790716D01*
X790269Y687731D01*
X790269Y688104D01*
Y689408D01*
X787028D01*
Y688047D01*
X787028Y687731D01*
Y687452D01*
X786674Y687098D01*
X778708D01*
X778681Y687163D01*
X778216Y687768D01*
X777611Y688233D01*
X776905Y688525D01*
X776148Y688625D01*
X773091D01*
Y688758D01*
X772073D01*
Y690229D01*
X773091D01*
Y696344D01*
X765205D01*
Y690229D01*
X766223D01*
Y688758D01*
X765205D01*
Y682643D01*
X773091D01*
Y682775D01*
X776148D01*
X776905Y682875D01*
X777611Y683167D01*
X778216Y683632D01*
X778681Y684237D01*
X778684Y684243D01*
X787028D01*
Y683794D01*
X790269D01*
Y684749D01*
X792295D01*
Y684005D01*
X800227D01*
X800434Y683505D01*
X799612Y682683D01*
X795038D01*
X795038Y682683D01*
X794492Y682574D01*
X794029Y682265D01*
X794029Y682265D01*
X784866Y673101D01*
X784556Y672638D01*
X784448Y672092D01*
X784448Y672092D01*
Y523973D01*
X784448Y523973D01*
X784556Y523427D01*
X784866Y522964D01*
X825721Y482109D01*
Y469152D01*
X825706Y469142D01*
X825264Y468480D01*
X825109Y467700D01*
X825264Y466920D01*
X825706Y466258D01*
X826368Y465816D01*
X826608Y465768D01*
Y463507D01*
X825551D01*
Y458770D01*
X829501D01*
Y460221D01*
X835868D01*
X835917Y459721D01*
X835546Y459647D01*
X834795Y459146D01*
X834293Y458395D01*
X834117Y457509D01*
Y455839D01*
X836432D01*
Y455639D01*
X836631D01*
Y451494D01*
X836655Y451499D01*
X838594D01*
Y455639D01*
X838794D01*
Y455839D01*
X841556D01*
Y459721D01*
X841556Y459779D01*
X841695Y460221D01*
X842251D01*
X842602Y460291D01*
X842900Y460490D01*
X845208Y462798D01*
X845454Y462962D01*
X845703Y463211D01*
X846280Y463211D01*
X846780Y463211D01*
X848524D01*
X848839Y463211D01*
X849339Y463211D01*
X851584Y463211D01*
X851938Y462858D01*
Y461842D01*
X852016Y461452D01*
X852237Y461121D01*
X852940Y460418D01*
X853147Y460279D01*
X853003Y459779D01*
X850795D01*
Y455839D01*
X854148D01*
X857501D01*
Y459619D01*
X857501Y459779D01*
X857860Y460119D01*
X858507D01*
X858866Y459779D01*
X858866Y459619D01*
Y455839D01*
X861628D01*
Y455639D01*
X861828D01*
Y451499D01*
X863767D01*
X863791Y451494D01*
Y455639D01*
X863991D01*
Y455839D01*
X866305D01*
Y457509D01*
X866129Y458395D01*
X865627Y459146D01*
X865308Y459359D01*
X865180Y460038D01*
X865236Y460119D01*
X868928D01*
X869008Y459999D01*
X869531Y459650D01*
X870148Y459527D01*
X870765Y459650D01*
X871288Y459999D01*
X871637Y460522D01*
X871760Y461139D01*
X871637Y461756D01*
X871288Y462279D01*
X870765Y462628D01*
X870148Y462751D01*
X869531Y462628D01*
X869008Y462279D01*
X868928Y462158D01*
X854083D01*
X853977Y462264D01*
Y462780D01*
X854142Y463211D01*
X854477Y463211D01*
X855129D01*
Y466269D01*
Y469326D01*
X854457D01*
X854142Y469326D01*
X853642Y469326D01*
X851898D01*
X851583Y469326D01*
X851134Y469326D01*
X850780Y469680D01*
Y471953D01*
X851581Y472753D01*
X851602D01*
X851687Y472770D01*
X854686D01*
Y477507D01*
X851687D01*
X851602Y477524D01*
X851581D01*
X850780Y478325D01*
Y486842D01*
X850901Y486963D01*
X851985D01*
X852237Y487013D01*
X852450Y487156D01*
X852593Y487369D01*
X852643Y487621D01*
Y489098D01*
X852593Y489350D01*
X852450Y489564D01*
X852237Y489706D01*
X851985Y489756D01*
X850311D01*
X850059Y489706D01*
X849846Y489564D01*
X849703Y489350D01*
X849653Y489098D01*
Y488211D01*
X849273Y487832D01*
X849239Y487780D01*
X849192Y487765D01*
X848663Y487810D01*
X848648Y487833D01*
Y487841D01*
X848643Y487863D01*
Y489098D01*
X848593Y489350D01*
X848450Y489564D01*
X848237Y489706D01*
X847985Y489756D01*
X846311D01*
X846059Y489706D01*
X845846Y489564D01*
X845703Y489350D01*
X845653Y489098D01*
Y487621D01*
X845703Y487369D01*
X845846Y487156D01*
X846059Y487013D01*
X846311Y486963D01*
X847080D01*
X847083Y486959D01*
Y478325D01*
X846282Y477524D01*
X846261D01*
X846176Y477507D01*
X843177D01*
Y472770D01*
X845829D01*
X846769Y471830D01*
Y469353D01*
X846280Y469326D01*
X845965Y469326D01*
X843906D01*
Y467540D01*
X843406Y467441D01*
X843211Y467910D01*
X842690Y468590D01*
X842010Y469111D01*
X841218Y469439D01*
X840569Y469525D01*
Y466269D01*
Y463013D01*
X841218Y463098D01*
X842010Y463426D01*
X842690Y463948D01*
X843211Y464628D01*
X843406Y465097D01*
X843906Y464997D01*
Y464091D01*
X841871Y462057D01*
X829501D01*
Y463507D01*
X828444D01*
Y466160D01*
X828590Y466258D01*
X829032Y466920D01*
X829187Y467700D01*
X829032Y468480D01*
X828590Y469142D01*
X828576Y469152D01*
Y482700D01*
X828467Y483246D01*
X828157Y483709D01*
X828157Y483709D01*
X787302Y524564D01*
Y658764D01*
X787803Y659031D01*
X788095Y658836D01*
X788875Y658681D01*
X789655Y658836D01*
X790317Y659278D01*
X790346Y659322D01*
X792087D01*
Y659198D01*
X797217D01*
Y662360D01*
X792087D01*
Y662177D01*
X790295D01*
X789655Y662604D01*
X788875Y662759D01*
X788095Y662604D01*
X787803Y662409D01*
X787302Y662676D01*
Y663724D01*
X787803Y663991D01*
X788095Y663796D01*
X788875Y663641D01*
X789655Y663796D01*
X790317Y664238D01*
X790333Y664263D01*
X792087D01*
Y664119D01*
X797217D01*
Y667281D01*
X792087D01*
Y667118D01*
X790320D01*
X790317Y667122D01*
X789655Y667564D01*
X788875Y667719D01*
X788095Y667564D01*
X787803Y667369D01*
X787302Y667636D01*
Y671501D01*
X791625Y675823D01*
X792087Y675632D01*
Y673961D01*
X797217D01*
Y674129D01*
X799001D01*
X799088Y674063D01*
X799361Y673629D01*
X799331Y673476D01*
Y667795D01*
X799400Y667444D01*
X799599Y667146D01*
X800748Y665998D01*
Y664119D01*
X801886D01*
Y662360D01*
X800748D01*
Y659198D01*
X805879D01*
Y659351D01*
X807832D01*
Y659029D01*
X811073D01*
Y659300D01*
X812836D01*
X812845Y659285D01*
X813507Y658844D01*
X814287Y658688D01*
X815067Y658844D01*
X815729Y659285D01*
X815739Y659300D01*
X818378D01*
Y657977D01*
X822918D01*
Y658804D01*
X824528D01*
Y658355D01*
X824721D01*
Y656570D01*
X824721Y656570D01*
X824829Y656024D01*
X825139Y655561D01*
X825653Y655047D01*
Y654734D01*
X825703Y654481D01*
X825846Y654268D01*
X826059Y654125D01*
X826311Y654075D01*
X826928D01*
X827006Y654059D01*
X827076Y653991D01*
X827202Y653775D01*
X827247Y653554D01*
X827080Y653342D01*
X826995Y653325D01*
X826311D01*
X826059Y653275D01*
X825846Y653132D01*
X825703Y652919D01*
X825688Y652846D01*
X824300D01*
X823564Y653582D01*
X823687Y654200D01*
X823532Y654980D01*
X823090Y655642D01*
X822428Y656084D01*
X821648Y656239D01*
X820868Y656084D01*
X820206Y655642D01*
X819764Y654980D01*
X819609Y654200D01*
X819764Y653420D01*
X820206Y652758D01*
X820868Y652316D01*
X821648Y652161D01*
X822266Y652284D01*
X823271Y651279D01*
X823569Y651081D01*
X823920Y651011D01*
X825688D01*
X825703Y650938D01*
X825721Y650912D01*
Y649045D01*
X825528D01*
Y645608D01*
X825528Y645292D01*
X825528Y644792D01*
Y643432D01*
X827148D01*
X828769D01*
Y644792D01*
X828769Y645108D01*
X828769Y645608D01*
Y649045D01*
X828576D01*
Y650912D01*
X828593Y650938D01*
X828643Y651190D01*
Y652126D01*
X830346Y653829D01*
X830847Y653622D01*
Y653037D01*
X839520D01*
Y657380D01*
X830847D01*
Y656030D01*
X830332D01*
X829981Y655960D01*
X829683Y655761D01*
X829143Y655222D01*
X828643Y655429D01*
Y656210D01*
X828593Y656462D01*
X828450Y656676D01*
X828237Y656818D01*
X827985Y656869D01*
X827868D01*
X827575Y657161D01*
Y658355D01*
X827769D01*
Y658804D01*
X830847D01*
Y658037D01*
X839520D01*
Y662380D01*
X830847D01*
Y661659D01*
X828122D01*
X827769Y662012D01*
X827769Y662608D01*
Y663969D01*
X824528D01*
Y662608D01*
X824528Y662292D01*
Y662012D01*
X824174Y661659D01*
X822918D01*
Y662517D01*
X818378D01*
Y662155D01*
X815739D01*
X815729Y662169D01*
X815067Y662611D01*
X814287Y662767D01*
X813507Y662611D01*
X812845Y662169D01*
X812836Y662155D01*
X811073D01*
Y662782D01*
X811073Y662782D01*
Y662966D01*
X811073D01*
X811073Y663282D01*
Y664236D01*
X811079Y664271D01*
Y668513D01*
X810971Y669060D01*
X810661Y669523D01*
X810661Y669523D01*
X808539Y671645D01*
X808076Y671954D01*
X807530Y672063D01*
X807530Y672063D01*
X805879D01*
Y672202D01*
X803513D01*
Y670621D01*
X803113D01*
Y672202D01*
X801166D01*
Y673096D01*
X802014Y673944D01*
X802632D01*
X802721Y673961D01*
X805879D01*
Y677124D01*
X800748D01*
Y676984D01*
X797217D01*
Y677124D01*
X793579D01*
X793387Y677586D01*
X795630Y679828D01*
X800203D01*
X800203Y679828D01*
X800749Y679936D01*
X801213Y680246D01*
X811126Y690159D01*
X811435Y690622D01*
X811544Y691168D01*
X811544Y691169D01*
Y712077D01*
X814790Y715324D01*
X824005D01*
Y717486D01*
X834203D01*
X834847Y717614D01*
X835393Y717979D01*
X838640Y721226D01*
X843385D01*
X843434Y720726D01*
X843362Y720712D01*
X843149Y720569D01*
X843006Y720356D01*
X842956Y720104D01*
Y719565D01*
X845947D01*
Y720104D01*
X845896Y720356D01*
X845753Y720569D01*
X845540Y720712D01*
X845288Y720762D01*
X844986D01*
X844937Y721262D01*
X845400Y721354D01*
X845946Y721719D01*
X846122Y721896D01*
X848775D01*
Y721603D01*
X851101D01*
X851103Y721600D01*
X864513Y708191D01*
X864513Y708191D01*
X864976Y707881D01*
X865522Y707773D01*
X865522Y707773D01*
X878197D01*
Y705749D01*
X885099D01*
Y712651D01*
X878197D01*
Y710628D01*
X866113D01*
X855052Y721689D01*
X855243Y722151D01*
X886526D01*
X886526Y722151D01*
X887072Y722259D01*
X887535Y722569D01*
X894514Y729547D01*
X922258D01*
X922284Y729529D01*
X922536Y729479D01*
X922710D01*
X923007Y728979D01*
X922923Y728826D01*
X922893Y728807D01*
X921054D01*
X920508Y728698D01*
X920045Y728389D01*
X919735Y727925D01*
X919626Y727379D01*
X919735Y726833D01*
X919759Y726798D01*
Y726266D01*
X919809Y726014D01*
X919952Y725801D01*
X920165Y725658D01*
X920417Y725607D01*
X922091D01*
X922342Y725658D01*
X922556Y725801D01*
X923102Y725818D01*
X923322Y725598D01*
Y725325D01*
X923322Y724825D01*
Y723464D01*
X924942D01*
X926563D01*
Y724825D01*
X926563Y725141D01*
X926563Y725641D01*
Y727181D01*
X927827Y728445D01*
X927827Y728445D01*
X928137Y728908D01*
X928245Y729455D01*
Y729892D01*
X928702Y730159D01*
X929800D01*
X930055Y729659D01*
X929950Y729514D01*
X929298D01*
X929046Y729464D01*
X928832Y729321D01*
X928689Y729108D01*
X928639Y728856D01*
Y727379D01*
X928689Y727127D01*
X928832Y726913D01*
X929046Y726771D01*
X929298Y726721D01*
X930971D01*
X931223Y726771D01*
X931437Y726913D01*
X931580Y727127D01*
X931630Y727379D01*
Y728315D01*
X933072Y729757D01*
X933117Y729741D01*
X933509Y729428D01*
X933424Y729003D01*
X933509Y728578D01*
X933656Y728359D01*
X933715Y728019D01*
X933656Y727679D01*
X933509Y727460D01*
X933424Y727035D01*
X933509Y726610D01*
X933750Y726250D01*
Y725851D01*
X933509Y725491D01*
X933424Y725066D01*
X933509Y724641D01*
X933750Y724281D01*
X934110Y724040D01*
X934535Y723956D01*
X934929D01*
X935141Y723998D01*
X935141Y723998D01*
X935534Y723605D01*
X935534Y723605D01*
X935491Y723393D01*
Y722999D01*
X935576Y722574D01*
X935817Y722214D01*
X936177Y721974D01*
X936602Y721889D01*
X937027Y721974D01*
X937246Y722120D01*
X937586Y722180D01*
X937926Y722120D01*
X938145Y721974D01*
X938570Y721889D01*
X938995Y721974D01*
X939128Y722063D01*
X939629Y721795D01*
Y720104D01*
X939559Y720090D01*
X939346Y719947D01*
X939203Y719734D01*
X939153Y719482D01*
Y718005D01*
X939203Y717753D01*
X939346Y717539D01*
X939559Y717397D01*
X939812Y717346D01*
X941485D01*
X941737Y717397D01*
X941951Y717539D01*
X942093Y717753D01*
X942143Y718005D01*
Y719482D01*
X942093Y719734D01*
X941951Y719947D01*
X941737Y720090D01*
X941668Y720104D01*
Y721649D01*
X941844Y721787D01*
X942168Y721956D01*
X942507Y721889D01*
X942932Y721974D01*
X943152Y722120D01*
X943491Y722180D01*
X943831Y722120D01*
X944051Y721974D01*
X944476Y721889D01*
X944901Y721974D01*
X945120Y722120D01*
X945460Y722180D01*
X945800Y722120D01*
X946019Y721974D01*
X946444Y721889D01*
X946869Y721974D01*
X947229Y722214D01*
X947470Y722574D01*
X947554Y722999D01*
Y723346D01*
X947620Y723457D01*
X947950Y723782D01*
X948311Y723771D01*
X952774Y719309D01*
X953071Y719110D01*
X953423Y719040D01*
X957444D01*
X957795Y718516D01*
X958456Y718074D01*
X959237Y717919D01*
X960017Y718074D01*
X960678Y718516D01*
X961029Y719040D01*
X963076D01*
Y718377D01*
X967025D01*
Y721539D01*
X963076D01*
Y720876D01*
X961029D01*
X960678Y721400D01*
X960017Y721842D01*
X959237Y721997D01*
X958456Y721842D01*
X957795Y721400D01*
X957444Y720876D01*
X953803D01*
X951896Y722782D01*
X952103Y723282D01*
X953856D01*
X954206Y722758D01*
X954868Y722316D01*
X955648Y722161D01*
X956428Y722316D01*
X957090Y722758D01*
X957532Y723420D01*
X957687Y724200D01*
X957532Y724980D01*
X957090Y725642D01*
X956428Y726084D01*
X955648Y726239D01*
X955029Y726116D01*
X954834Y726587D01*
X955090Y726758D01*
X955532Y727420D01*
X955687Y728200D01*
X955532Y728980D01*
X955090Y729642D01*
X954428Y730084D01*
X953648Y730239D01*
X952868Y730084D01*
X952206Y729642D01*
X951856Y729118D01*
X949973D01*
X949511Y729580D01*
X949375Y729671D01*
X949296Y729788D01*
X949390Y730327D01*
X949537Y730547D01*
X949621Y730972D01*
X949537Y731397D01*
X949413Y731582D01*
X949642Y732082D01*
X956982D01*
X956996Y732009D01*
X957139Y731795D01*
X957353Y731652D01*
X957605Y731602D01*
X959278D01*
X959530Y731652D01*
X959744Y731795D01*
X959887Y732009D01*
X959901Y732082D01*
X967446D01*
Y731025D01*
X970608D01*
Y734442D01*
X971108Y734649D01*
X974551Y731207D01*
Y725279D01*
X971028D01*
Y722117D01*
X972154D01*
X972259Y721587D01*
X972569Y721124D01*
X975721Y717972D01*
Y655277D01*
X956159Y635715D01*
X955697Y635906D01*
Y648600D01*
X939138D01*
X938947Y649062D01*
X940211Y650326D01*
X944408D01*
X944798Y650403D01*
X945129Y650625D01*
X949116Y654611D01*
X950716D01*
Y657475D01*
X950716Y657901D01*
X951118Y658207D01*
X952904Y656421D01*
X952948Y656392D01*
Y654611D01*
X955716D01*
Y657970D01*
X953950D01*
X950072Y661849D01*
X949774Y662048D01*
X949423Y662118D01*
X913940D01*
X913590Y662642D01*
X912928Y663084D01*
X912148Y663239D01*
X911368Y663084D01*
X910706Y662642D01*
X910264Y661980D01*
X910246Y661891D01*
X906450D01*
Y662380D01*
X897776D01*
Y658037D01*
X906450D01*
Y658526D01*
X911021D01*
X911665Y658654D01*
X912211Y659019D01*
X912404Y659212D01*
X912928Y659316D01*
X913590Y659758D01*
X913940Y660282D01*
X949043D01*
X950953Y658372D01*
X950648Y657970D01*
X950245Y657970D01*
X947948D01*
Y656327D01*
X946206Y654585D01*
X945716Y654803D01*
X945716Y655032D01*
Y657970D01*
X942948D01*
Y656189D01*
X941759Y654999D01*
X940716D01*
Y655810D01*
X940760Y656027D01*
Y656291D01*
X940716Y656508D01*
Y657970D01*
X937948D01*
Y656618D01*
X932493D01*
Y657320D01*
X930928D01*
X930617Y657382D01*
X930306Y657320D01*
X928740Y657320D01*
X928240Y657320D01*
X926880D01*
Y655700D01*
Y654080D01*
X928240D01*
X928556Y654080D01*
X928934Y653786D01*
Y652274D01*
X927363D01*
X927353Y652288D01*
X926692Y652730D01*
X925911Y652886D01*
X925131Y652730D01*
X924469Y652288D01*
X924028Y651627D01*
X923872Y650846D01*
X924028Y650066D01*
X924298Y649661D01*
X923910Y649342D01*
X916854Y656398D01*
X916308Y656763D01*
X915664Y656891D01*
X906450D01*
Y657380D01*
X897776D01*
Y653037D01*
X906450D01*
Y653526D01*
X914967D01*
X922687Y645807D01*
X922764Y645420D01*
X923206Y644758D01*
X923868Y644316D01*
X924648Y644161D01*
X925428Y644316D01*
X926090Y644758D01*
X926532Y645420D01*
X926687Y646200D01*
X926532Y646980D01*
X926090Y647642D01*
X925428Y648084D01*
X925103Y648149D01*
X924407Y648845D01*
X924726Y649233D01*
X925131Y648962D01*
X925911Y648807D01*
X926692Y648962D01*
X927353Y649404D01*
X927363Y649419D01*
X929028D01*
Y648792D01*
X929028D01*
Y648608D01*
X929028D01*
Y646932D01*
X930648D01*
Y646732D01*
X930848D01*
Y644709D01*
X930979Y644393D01*
X927814Y641228D01*
X906450D01*
Y642380D01*
X897776D01*
Y638037D01*
X906450D01*
Y639189D01*
X927983D01*
X928190Y638689D01*
X927519Y638018D01*
X927021Y638117D01*
X926240Y637962D01*
X925579Y637520D01*
X925137Y636858D01*
X924981Y636078D01*
X925137Y635297D01*
X925579Y634636D01*
X926240Y634194D01*
X927021Y634038D01*
X927801Y634194D01*
X928463Y634636D01*
X928905Y635297D01*
X929060Y636078D01*
X928961Y636576D01*
X930374Y637989D01*
X930595Y638320D01*
X930630Y638496D01*
X933788Y641654D01*
X933788Y641654D01*
X935946Y643812D01*
X936167Y644143D01*
X936244Y644533D01*
Y646359D01*
X937506Y647621D01*
X937968Y647429D01*
Y634414D01*
X954205D01*
X954396Y633952D01*
X953674Y633231D01*
X950168D01*
X949622Y633122D01*
X949159Y632813D01*
X949159Y632812D01*
X945707Y629361D01*
X945398Y628898D01*
X945299Y628403D01*
X943950D01*
X941496Y630858D01*
X941198Y631056D01*
X940847Y631126D01*
X912343D01*
X912041Y631578D01*
X911413Y631998D01*
X910671Y632146D01*
X909930Y631998D01*
X909301Y631578D01*
X908999Y631126D01*
X906450D01*
Y632380D01*
X897776D01*
Y628037D01*
X906450D01*
Y629291D01*
X908999D01*
X909301Y628839D01*
X909930Y628419D01*
X910671Y628271D01*
X911413Y628419D01*
X912041Y628839D01*
X912343Y629291D01*
X940467D01*
X940953Y628805D01*
X940648Y628403D01*
X940245Y628403D01*
X937948D01*
Y626438D01*
X937928Y626339D01*
Y625325D01*
X936060Y623457D01*
X912470D01*
X912223Y623957D01*
X912532Y624420D01*
X912687Y625200D01*
X912532Y625980D01*
X912090Y626642D01*
X911428Y627084D01*
X910648Y627239D01*
X909868Y627084D01*
X909206Y626642D01*
X908924Y626220D01*
X906450D01*
Y627380D01*
X897776D01*
Y623037D01*
X904244D01*
X904502Y622537D01*
X904390Y622380D01*
X897776D01*
Y618037D01*
X906450D01*
Y621282D01*
X906452Y621295D01*
X906575Y621417D01*
X936482D01*
X936872Y621495D01*
X937203Y621716D01*
X939669Y624182D01*
X939890Y624513D01*
X939968Y624903D01*
Y625044D01*
X940716D01*
Y627908D01*
X940716Y628335D01*
X941119Y628640D01*
X942904Y626854D01*
X942948Y626825D01*
Y625452D01*
X942500Y625363D01*
X942036Y625054D01*
X942036Y625054D01*
X923619Y606636D01*
X906450D01*
Y607380D01*
X897776D01*
Y603037D01*
X906450D01*
Y603781D01*
X924210D01*
X924210Y603781D01*
X924757Y603890D01*
X925220Y604199D01*
X941793Y620773D01*
X942336Y620609D01*
X942404Y620264D01*
X942846Y619602D01*
X943508Y619160D01*
X943953Y619072D01*
X944049Y618947D01*
X944250Y618526D01*
X944166Y618107D01*
X944166Y618107D01*
Y604258D01*
X943704Y604067D01*
X942922Y603466D01*
X942321Y602684D01*
X942117Y602190D01*
X939122D01*
X938769Y602544D01*
X938768Y603139D01*
Y604500D01*
X937148D01*
X935528D01*
Y603139D01*
X935528Y602824D01*
Y602544D01*
X935174Y602190D01*
X906450D01*
Y602380D01*
X897776D01*
Y599515D01*
X897314Y599324D01*
X896137Y600500D01*
Y601161D01*
X896068Y601512D01*
X896066Y601515D01*
Y607865D01*
X897276Y609075D01*
X897776Y608868D01*
Y608037D01*
X906450D01*
Y612380D01*
X897776D01*
Y611276D01*
X897261D01*
X896910Y611206D01*
X896612Y611007D01*
X895128Y609522D01*
X894666Y609714D01*
Y611334D01*
X897276Y613944D01*
X897776Y613737D01*
Y613037D01*
X906450D01*
Y617380D01*
X897776D01*
Y616126D01*
X897243D01*
X896891Y616056D01*
X896594Y615858D01*
X893099Y612363D01*
X892900Y612065D01*
X892830Y611714D01*
Y600653D01*
X892794Y600609D01*
X888976D01*
Y591935D01*
X890230D01*
Y590992D01*
X889706Y590642D01*
X889264Y589980D01*
X889109Y589200D01*
X889264Y588420D01*
X889706Y587758D01*
X890368Y587316D01*
X891148Y587161D01*
X891928Y587316D01*
X892590Y587758D01*
X893032Y588420D01*
X893187Y589200D01*
X893032Y589980D01*
X892590Y590642D01*
X892066Y590992D01*
Y591935D01*
X893320D01*
Y598089D01*
X893782Y598281D01*
X899871Y592191D01*
X900169Y591992D01*
X900520Y591922D01*
X908501D01*
X910330Y590093D01*
Y590025D01*
X910148Y589600D01*
X909830Y589600D01*
X909448D01*
Y587800D01*
Y586000D01*
X909848D01*
X910148Y586000D01*
X910648Y586000D01*
X911848D01*
X912148Y586000D01*
Y586000D01*
X912348D01*
Y586000D01*
X913048D01*
Y587800D01*
X913448D01*
Y586000D01*
X914148D01*
X914148Y586000D01*
X914248D01*
Y586000D01*
X914648Y586000D01*
X916048D01*
Y587711D01*
X916066Y587800D01*
Y589573D01*
X915996Y589924D01*
X915797Y590222D01*
X911130Y594889D01*
X910832Y595088D01*
X910481Y595158D01*
X901480D01*
X899063Y597575D01*
X899254Y598037D01*
X906450D01*
Y599336D01*
X935528D01*
Y598887D01*
X938768D01*
Y599336D01*
X942143D01*
X942321Y598905D01*
X942922Y598123D01*
X943704Y597522D01*
X944616Y597144D01*
X945594Y597016D01*
X946572Y597144D01*
X947483Y597522D01*
X948266Y598123D01*
X948866Y598905D01*
X949244Y599816D01*
X949373Y600794D01*
X949244Y601772D01*
X948866Y602684D01*
X948266Y603466D01*
X947483Y604067D01*
X947021Y604258D01*
Y617516D01*
X952726Y623220D01*
X952726Y623220D01*
X953035Y623683D01*
X953144Y624229D01*
X953144Y624230D01*
Y625044D01*
X954132D01*
Y626724D01*
X954332D01*
Y626924D01*
X955716D01*
Y628067D01*
X955806Y628084D01*
X956269Y628394D01*
X980557Y652682D01*
X980557Y652682D01*
X980867Y653145D01*
X980976Y653692D01*
Y719557D01*
X980976Y719557D01*
X980867Y720104D01*
X980557Y720567D01*
X980557Y720567D01*
X977405Y723719D01*
Y731798D01*
X977405Y731798D01*
X977297Y732344D01*
X976987Y732807D01*
X976987Y732807D01*
X971317Y738477D01*
X971525Y738977D01*
X973359D01*
X973448Y738960D01*
X973462D01*
X978748Y733674D01*
Y732967D01*
X978753Y732942D01*
Y732091D01*
X978803Y731839D01*
X978946Y731625D01*
X979159Y731482D01*
X979411Y731432D01*
X981085D01*
X981337Y731482D01*
X981550Y731625D01*
X981693Y731839D01*
X981743Y732091D01*
Y733567D01*
X981693Y733819D01*
X981550Y734033D01*
X981337Y734175D01*
X981085Y734226D01*
X980549D01*
X980513Y734405D01*
X980314Y734703D01*
X974491Y740526D01*
X974348Y740621D01*
Y742927D01*
X971186D01*
Y739316D01*
X970686Y739109D01*
X968408Y741387D01*
X967945Y741696D01*
X967399Y741805D01*
X967399Y741805D01*
X966868D01*
Y742927D01*
X963706D01*
Y738977D01*
X965330D01*
X965468Y738950D01*
X966807D01*
X970283Y735474D01*
X970076Y734974D01*
X967446D01*
Y733917D01*
X959901D01*
X959887Y733989D01*
X959744Y734203D01*
X959530Y734346D01*
X959278Y734396D01*
X957605D01*
X957353Y734346D01*
X957139Y734203D01*
X956996Y733989D01*
X956982Y733917D01*
X949759D01*
X949492Y734417D01*
X949537Y734484D01*
X949621Y734909D01*
X949537Y735334D01*
X949296Y735694D01*
X948936Y735934D01*
X948511Y736019D01*
X948118D01*
X947905Y735977D01*
X947905Y735977D01*
X947512Y736370D01*
X947512Y736370D01*
X947554Y736582D01*
Y736976D01*
X947470Y737400D01*
X947229Y737761D01*
X946869Y738001D01*
X946444Y738086D01*
X946019Y738001D01*
X945800Y737854D01*
X945460Y737795D01*
X945120Y737854D01*
X944901Y738001D01*
X944676Y738046D01*
Y736779D01*
X944276D01*
Y738046D01*
X944051Y738001D01*
X943691Y737761D01*
X943574D01*
X943122Y738190D01*
Y739502D01*
X943151Y739532D01*
X944234D01*
X944487Y739582D01*
X944700Y739724D01*
X944843Y739938D01*
X944893Y740190D01*
Y741667D01*
X944843Y741919D01*
X944700Y742132D01*
X944487Y742275D01*
X944234Y742325D01*
X942561D01*
X942309Y742275D01*
X942095Y742132D01*
X941953Y741919D01*
X941902Y741667D01*
Y740845D01*
X941523Y740622D01*
X941143Y740845D01*
Y741667D01*
X941093Y741919D01*
X940950Y742132D01*
X940737Y742275D01*
X940485Y742325D01*
X938811D01*
X938559Y742275D01*
X938346Y742132D01*
X938203Y741919D01*
X938153Y741667D01*
Y740190D01*
X938203Y739938D01*
X938346Y739724D01*
X938559Y739582D01*
X938811Y739532D01*
X939895D01*
X939924Y739502D01*
Y738108D01*
X939450Y737814D01*
X939215Y737854D01*
X938995Y738001D01*
X938570Y738086D01*
X938145Y738001D01*
X937876Y737821D01*
X937586Y737785D01*
X937296Y737821D01*
X937027Y738001D01*
X936602Y738086D01*
X936177Y738001D01*
X935817Y737761D01*
X935576Y737400D01*
X935491Y736976D01*
Y736966D01*
X934544Y736019D01*
X934535D01*
X934110Y735934D01*
X933948Y735826D01*
X931633D01*
Y736729D01*
X931044D01*
Y738080D01*
X931493D01*
Y741321D01*
X931044D01*
Y743044D01*
X931176Y743132D01*
X931618Y743794D01*
X931774Y744574D01*
X931618Y745354D01*
X931176Y746016D01*
X930515Y746458D01*
X929735Y746613D01*
X928954Y746458D01*
X928293Y746016D01*
X927851Y745354D01*
X927695Y744574D01*
X927851Y743794D01*
X928189Y743287D01*
Y741674D01*
X927836Y741321D01*
X927240Y741321D01*
X925880D01*
Y739700D01*
Y738080D01*
X927240D01*
X927556Y738080D01*
X927836D01*
X928189Y737726D01*
Y736746D01*
X927696Y736729D01*
X927380Y736729D01*
X926020D01*
Y735109D01*
Y733488D01*
X927380D01*
X927696Y733488D01*
X928196Y733488D01*
X931633D01*
Y733991D01*
X932407D01*
X932558Y733491D01*
X932432Y733406D01*
X930815Y731790D01*
X928215D01*
Y731811D01*
X928165Y732063D01*
X928022Y732277D01*
X927808Y732419D01*
X927556Y732470D01*
X926080D01*
X925828Y732419D01*
X925614Y732277D01*
X925471Y732063D01*
X925421Y731811D01*
Y730138D01*
X925430Y730091D01*
X925429Y730084D01*
X925070Y729726D01*
X924646Y730008D01*
X924672Y730138D01*
Y730821D01*
X924702Y730974D01*
X924672Y731128D01*
Y731811D01*
X924621Y732063D01*
X924479Y732277D01*
X924265Y732419D01*
X924013Y732470D01*
X923095D01*
X918366Y737199D01*
Y756201D01*
X925978Y763813D01*
X934612D01*
X934963Y763883D01*
X935261Y764082D01*
X935788Y764609D01*
X935987Y764907D01*
X936052Y765231D01*
X939594D01*
X939679Y765214D01*
X939896D01*
X939924Y765185D01*
Y760639D01*
X939924Y760639D01*
Y758069D01*
X936180D01*
Y753332D01*
X939107D01*
X939765Y752673D01*
Y745869D01*
X938811D01*
X938559Y745819D01*
X938346Y745676D01*
X938203Y745462D01*
X938153Y745210D01*
Y743734D01*
X938203Y743481D01*
X938346Y743268D01*
X938559Y743125D01*
X938811Y743075D01*
X940485D01*
X940737Y743125D01*
X940950Y743268D01*
X941093Y743481D01*
X941143Y743734D01*
Y744293D01*
X941402Y744529D01*
X941902Y744308D01*
Y743734D01*
X941953Y743481D01*
X942095Y743268D01*
X942309Y743125D01*
X942561Y743075D01*
X944234D01*
X944487Y743125D01*
X944700Y743268D01*
X944843Y743481D01*
X944893Y743734D01*
Y745210D01*
X944843Y745462D01*
X944700Y745676D01*
X944487Y745819D01*
X944234Y745869D01*
X943151D01*
X942963Y746057D01*
Y752355D01*
X943939Y753332D01*
X946866D01*
Y758069D01*
X943122D01*
Y761232D01*
X943122Y761232D01*
Y765185D01*
X943150Y765214D01*
X943367D01*
X943452Y765231D01*
X944461D01*
X944518Y764944D01*
X944739Y764613D01*
X945442Y763910D01*
X945773Y763689D01*
X946163Y763611D01*
X949646D01*
X950559Y762698D01*
Y761907D01*
X950609Y761655D01*
X950752Y761441D01*
X950966Y761298D01*
X951218Y761248D01*
X952694D01*
X952946Y761298D01*
X953160Y761441D01*
X953303Y761655D01*
X953353Y761907D01*
Y763580D01*
X953303Y763832D01*
X953160Y764046D01*
X952946Y764188D01*
X952694Y764239D01*
X951903D01*
X951373Y764769D01*
X951564Y765231D01*
X953134D01*
Y767009D01*
Y768787D01*
X948439D01*
Y769549D01*
X948361Y769939D01*
X948140Y770270D01*
X947464Y770946D01*
Y771924D01*
X953331D01*
Y773702D01*
Y775480D01*
X947392D01*
X947386Y775506D01*
X947165Y775837D01*
X946201Y776801D01*
X945871Y777022D01*
X945481Y777099D01*
D02*
G37*
G36*
X958731Y774924D02*
Y770398D01*
X961118D01*
Y772363D01*
X961030Y773033D01*
X960772Y773657D01*
X960361Y774193D01*
X959825Y774604D01*
X959200Y774862D01*
X958731Y774924D01*
D02*
G37*
G36*
X955702Y775480D02*
X953731D01*
Y773702D01*
Y771924D01*
X955443D01*
X955702Y771924D01*
X955943Y771523D01*
Y770398D01*
X958331D01*
Y774924D01*
X957861Y774862D01*
X957237Y774604D01*
X956701Y774193D01*
X956290Y773657D01*
X956203Y773446D01*
X955702Y773545D01*
Y775480D01*
D02*
G37*
G36*
X924315Y774924D02*
X923845Y774862D01*
X923221Y774604D01*
X922686Y774193D01*
X922274Y773657D01*
X922016Y773033D01*
X921928Y772363D01*
Y770398D01*
X924315D01*
Y774924D01*
D02*
G37*
G36*
X845964Y775000D02*
X839848D01*
Y768884D01*
X840884Y768986D01*
X842073Y769346D01*
X843168Y769932D01*
X844128Y770720D01*
X844916Y771680D01*
X845502Y772775D01*
X845862Y773964D01*
X845964Y775000D01*
D02*
G37*
G36*
X839448D02*
X833332D01*
X833434Y773964D01*
X833794Y772775D01*
X834380Y771680D01*
X835168Y770720D01*
X836128Y769932D01*
X837223Y769346D01*
X838412Y768986D01*
X839448Y768884D01*
Y775000D01*
D02*
G37*
G36*
X864648Y781536D02*
X863412Y781414D01*
X862223Y781054D01*
X861128Y780468D01*
X860168Y779680D01*
X859380Y778720D01*
X858794Y777625D01*
X858649Y777146D01*
X856669D01*
X855912Y777046D01*
X855206Y776754D01*
X854601Y776289D01*
X837080Y758768D01*
X836615Y758163D01*
X836323Y757457D01*
X836223Y756700D01*
Y754600D01*
X834248D01*
Y745800D01*
X842048D01*
Y751510D01*
X842073Y751700D01*
Y755488D01*
X857880Y771296D01*
X859695D01*
X860168Y770720D01*
X861128Y769932D01*
X862223Y769346D01*
X863412Y768986D01*
X864648Y768864D01*
X865884Y768986D01*
X867073Y769346D01*
X868168Y769932D01*
X869128Y770720D01*
X869916Y771680D01*
X870502Y772775D01*
X870862Y773964D01*
X870984Y775200D01*
X870862Y776436D01*
X870502Y777625D01*
X869916Y778720D01*
X869128Y779680D01*
X868168Y780468D01*
X867073Y781054D01*
X865884Y781414D01*
X864648Y781536D01*
D02*
G37*
G36*
X954325Y768787D02*
X953534D01*
Y767209D01*
X954325D01*
Y768787D01*
D02*
G37*
G36*
X929512D02*
X928721D01*
Y767209D01*
X929512D01*
Y768787D01*
D02*
G37*
G36*
X961118Y769998D02*
X958731D01*
Y765471D01*
X959200Y765533D01*
X959825Y765792D01*
X960361Y766203D01*
X960772Y766739D01*
X961030Y767363D01*
X961118Y768032D01*
Y769998D01*
D02*
G37*
G36*
X958331D02*
X955943D01*
Y768032D01*
X956032Y767363D01*
X956290Y766739D01*
X956701Y766203D01*
X957237Y765792D01*
X957861Y765533D01*
X958331Y765471D01*
Y769998D01*
D02*
G37*
G36*
X954325Y766809D02*
X953534D01*
Y765231D01*
X954325D01*
Y766809D01*
D02*
G37*
G36*
X956238Y764239D02*
X955699D01*
Y762943D01*
X956896D01*
Y763580D01*
X956846Y763832D01*
X956703Y764046D01*
X956490Y764188D01*
X956238Y764239D01*
D02*
G37*
G36*
X955299D02*
X954761D01*
X954509Y764188D01*
X954295Y764046D01*
X954153Y763832D01*
X954102Y763580D01*
Y762943D01*
X955299D01*
Y764239D01*
D02*
G37*
G36*
X956896Y762543D02*
X955699D01*
Y761248D01*
X956238D01*
X956490Y761298D01*
X956703Y761441D01*
X956846Y761655D01*
X956896Y761907D01*
Y762543D01*
D02*
G37*
G36*
X955299D02*
X954102D01*
Y761907D01*
X954153Y761655D01*
X954295Y761441D01*
X954509Y761298D01*
X954761Y761248D01*
X955299D01*
Y762543D01*
D02*
G37*
G36*
X796422Y769096D02*
X788348D01*
Y761022D01*
X796422D01*
Y769096D01*
D02*
G37*
G36*
X787948D02*
X779874D01*
Y761022D01*
X787948D01*
Y769096D01*
D02*
G37*
G36*
X959622Y758069D02*
X957847D01*
Y755900D01*
X959622D01*
Y758069D01*
D02*
G37*
G36*
X957447D02*
X955673D01*
Y755900D01*
X957447D01*
Y758069D01*
D02*
G37*
G36*
X927373D02*
X925599D01*
Y755900D01*
X927373D01*
Y758069D01*
D02*
G37*
G36*
X925199D02*
X923424D01*
Y755900D01*
X925199D01*
Y758069D01*
D02*
G37*
G36*
X959622Y755500D02*
X957847D01*
Y753332D01*
X959622D01*
Y755500D01*
D02*
G37*
G36*
X957447D02*
X955673D01*
Y753332D01*
X957447D01*
Y755500D01*
D02*
G37*
G36*
X927373Y755500D02*
X925599D01*
Y753332D01*
X927373D01*
Y755500D01*
D02*
G37*
G36*
X925199D02*
X923424D01*
Y753332D01*
X925199D01*
Y755500D01*
D02*
G37*
G36*
X796422Y760622D02*
X788348D01*
Y752548D01*
X796422D01*
Y760622D01*
D02*
G37*
G36*
X787948D02*
X779874D01*
Y752548D01*
X787948D01*
Y760622D01*
D02*
G37*
G36*
X884492Y755285D02*
X876803D01*
Y750384D01*
X871494D01*
X871402Y750366D01*
X867708D01*
Y750987D01*
X867607Y751496D01*
Y754143D01*
X864445D01*
Y751496D01*
X864344Y750987D01*
Y749550D01*
X864445Y749042D01*
Y747831D01*
X865366D01*
X865703Y747494D01*
X865703Y747494D01*
X866249Y747129D01*
X866893Y747001D01*
X866893Y747001D01*
X869812D01*
Y745279D01*
X869940Y744635D01*
X869999Y744547D01*
Y744541D01*
X870049Y744288D01*
X870191Y744075D01*
X870405Y743932D01*
X870597Y743894D01*
X870850Y743724D01*
X871199Y743655D01*
X871313Y743632D01*
X871264Y743132D01*
X870657D01*
X870405Y743082D01*
X870191Y742940D01*
X870049Y742726D01*
X869999Y742474D01*
Y741935D01*
X872989D01*
Y742474D01*
X872939Y742726D01*
X872796Y742940D01*
X872583Y743082D01*
X872330Y743132D01*
X871724D01*
X871675Y743632D01*
X871789Y743655D01*
X872138Y743724D01*
X872391Y743894D01*
X872583Y743932D01*
X872796Y744075D01*
X872939Y744288D01*
X872989Y744541D01*
Y744547D01*
X873048Y744635D01*
X873176Y745279D01*
Y747020D01*
X876803D01*
Y744052D01*
X884492D01*
Y755285D01*
D02*
G37*
G36*
X852548Y754600D02*
X844748D01*
Y745800D01*
X852548D01*
Y749305D01*
X856965D01*
Y747831D01*
X860127D01*
Y750479D01*
X860228Y750987D01*
X860127Y751496D01*
Y754143D01*
X856965D01*
Y752670D01*
X852548D01*
Y754600D01*
D02*
G37*
G36*
X863867Y743120D02*
X860705D01*
Y742434D01*
X853119D01*
Y742726D01*
X849169D01*
Y738776D01*
X853119D01*
Y739069D01*
X860705D01*
Y736808D01*
X863867D01*
Y738281D01*
X865212D01*
X870305Y733189D01*
X870851Y732824D01*
X871494Y732696D01*
X871495Y732696D01*
X876803D01*
Y727123D01*
X884492D01*
Y738356D01*
X876803D01*
Y736060D01*
X872191D01*
X867099Y741153D01*
X866553Y741518D01*
X865909Y741646D01*
X863867D01*
Y743120D01*
D02*
G37*
G36*
X872989Y741536D02*
X871694D01*
Y740339D01*
X872330D01*
X872583Y740389D01*
X872796Y740531D01*
X872939Y740745D01*
X872989Y740997D01*
Y741536D01*
D02*
G37*
G36*
X871294D02*
X869999D01*
Y740997D01*
X870049Y740745D01*
X870191Y740531D01*
X870405Y740389D01*
X870657Y740339D01*
X871294D01*
Y741536D01*
D02*
G37*
G36*
X925480Y741321D02*
X923803D01*
Y739900D01*
X925480D01*
Y741321D01*
D02*
G37*
G36*
Y739500D02*
X923803D01*
Y738080D01*
X925480D01*
Y739500D01*
D02*
G37*
G36*
X925620Y736729D02*
X923943D01*
Y735309D01*
X925620D01*
Y736729D01*
D02*
G37*
G36*
X838501Y740856D02*
X827268D01*
Y733166D01*
X838501D01*
Y735329D01*
X839720D01*
Y735036D01*
X843670D01*
Y738986D01*
X839720D01*
Y738693D01*
X838501D01*
Y740856D01*
D02*
G37*
G36*
X925620Y734909D02*
X923943D01*
Y733488D01*
X925620D01*
Y734909D01*
D02*
G37*
G36*
X796422Y745474D02*
X779874D01*
Y728926D01*
X796422D01*
Y734086D01*
X798534D01*
Y723013D01*
X795843D01*
Y721995D01*
X789648D01*
X788891Y721896D01*
X788186Y721603D01*
X787580Y721138D01*
X787115Y720533D01*
X786823Y719827D01*
X786723Y719070D01*
X786823Y718313D01*
X787115Y717608D01*
X787580Y717002D01*
X788186Y716537D01*
X788221Y716523D01*
Y706319D01*
X787722Y705821D01*
X786740Y705821D01*
X786240Y705821D01*
X784880D01*
Y704200D01*
Y702580D01*
X786240D01*
X786556Y702580D01*
X787056Y702580D01*
X790493D01*
Y702773D01*
X792295D01*
Y702115D01*
X800576D01*
Y706458D01*
X792295D01*
Y705627D01*
X791076D01*
Y716145D01*
X795843D01*
Y715324D01*
X807076D01*
Y723013D01*
X804384D01*
Y734086D01*
X810339D01*
Y733166D01*
X821572D01*
Y740856D01*
X810339D01*
Y739936D01*
X796422D01*
Y745474D01*
D02*
G37*
G36*
X959278Y730853D02*
X957605D01*
X957353Y730803D01*
X957139Y730660D01*
X956996Y730446D01*
X956946Y730194D01*
Y728718D01*
X956996Y728466D01*
X957139Y728252D01*
X957353Y728109D01*
X957605Y728059D01*
X958541D01*
X959811Y726789D01*
X960108Y726590D01*
X960459Y726521D01*
X963076D01*
Y725857D01*
X967025D01*
Y729019D01*
X963076D01*
Y728356D01*
X960839D01*
X959937Y729258D01*
Y730194D01*
X959887Y730446D01*
X959744Y730660D01*
X959530Y730803D01*
X959278Y730853D01*
D02*
G37*
G36*
X922091Y724858D02*
X921454D01*
Y723661D01*
X922749D01*
Y724199D01*
X922699Y724451D01*
X922556Y724665D01*
X922342Y724808D01*
X922091Y724858D01*
D02*
G37*
G36*
X921054D02*
X920417D01*
X920165Y724808D01*
X919952Y724665D01*
X919809Y724451D01*
X919759Y724199D01*
Y723661D01*
X921054D01*
Y724858D01*
D02*
G37*
G36*
X981085Y730682D02*
X979411D01*
X979159Y730632D01*
X978946Y730489D01*
X978803Y730276D01*
X978753Y730024D01*
Y728547D01*
X978803Y728295D01*
X978946Y728082D01*
X979159Y727939D01*
X979330Y727905D01*
Y726559D01*
X978706Y726142D01*
X978264Y725480D01*
X978109Y724700D01*
X978264Y723920D01*
X978706Y723258D01*
X979368Y722816D01*
X980148Y722661D01*
X980928Y722816D01*
X981590Y723258D01*
X982032Y723920D01*
X982187Y724700D01*
X982032Y725480D01*
X981590Y726142D01*
X981166Y726426D01*
Y727905D01*
X981337Y727939D01*
X981550Y728082D01*
X981693Y728295D01*
X981743Y728547D01*
Y730024D01*
X981693Y730276D01*
X981550Y730489D01*
X981337Y730632D01*
X981085Y730682D01*
D02*
G37*
G36*
X922749Y723261D02*
X921454D01*
Y722064D01*
X922091D01*
X922342Y722114D01*
X922556Y722257D01*
X922699Y722471D01*
X922749Y722723D01*
Y723261D01*
D02*
G37*
G36*
X921054D02*
X919759D01*
Y722723D01*
X919809Y722471D01*
X919952Y722257D01*
X920165Y722114D01*
X920417Y722064D01*
X921054D01*
Y723261D01*
D02*
G37*
G36*
X926563Y723064D02*
X925142D01*
Y721388D01*
X926563D01*
Y723064D01*
D02*
G37*
G36*
X924742D02*
X923322D01*
Y721388D01*
X924742D01*
Y723064D01*
D02*
G37*
G36*
X845947Y719165D02*
X844651D01*
Y717969D01*
X845288D01*
X845540Y718019D01*
X845753Y718161D01*
X845896Y718375D01*
X845947Y718627D01*
Y719165D01*
D02*
G37*
G36*
X844251D02*
X842956D01*
Y718627D01*
X843006Y718375D01*
X843149Y718161D01*
X843362Y718019D01*
X843614Y717969D01*
X844251D01*
Y719165D01*
D02*
G37*
G36*
X941485Y716597D02*
X940848D01*
Y715400D01*
X942143D01*
Y715938D01*
X942093Y716190D01*
X941951Y716404D01*
X941737Y716547D01*
X941485Y716597D01*
D02*
G37*
G36*
X940448D02*
X939812D01*
X939559Y716547D01*
X939346Y716404D01*
X939203Y716190D01*
X939153Y715938D01*
Y715400D01*
X940448D01*
Y716597D01*
D02*
G37*
G36*
X923492Y715079D02*
X923492Y715079D01*
X917099D01*
X917099Y715079D01*
X916553Y714970D01*
X916090Y714661D01*
X916090Y714661D01*
X913533Y712104D01*
X913389Y712215D01*
X912549Y712562D01*
X911648Y712681D01*
X910747Y712562D01*
X909908Y712215D01*
X909187Y711661D01*
X908634Y710941D01*
X908286Y710101D01*
X908167Y709200D01*
X908286Y708299D01*
X908634Y707460D01*
X909187Y706739D01*
X909268Y706676D01*
X909098Y706176D01*
X906691D01*
X904881Y707986D01*
X905010Y708299D01*
X905129Y709200D01*
X905010Y710101D01*
X904663Y710941D01*
X904109Y711661D01*
X903389Y712215D01*
X902549Y712562D01*
X901648Y712681D01*
X900747Y712562D01*
X899908Y712215D01*
X899187Y711661D01*
X898633Y710941D01*
X898286Y710101D01*
X898167Y709200D01*
X898286Y708299D01*
X898633Y707460D01*
X899187Y706739D01*
X899908Y706185D01*
X900747Y705838D01*
X901648Y705719D01*
X902549Y705838D01*
X902862Y705967D01*
X905090Y703740D01*
X905090Y703740D01*
X905553Y703430D01*
X906099Y703321D01*
X906099Y703321D01*
X923492D01*
X923492Y703321D01*
X924038Y703430D01*
X924501Y703740D01*
X926534Y705773D01*
X947822D01*
X948102Y705586D01*
X948648Y705477D01*
X949194Y705586D01*
X949372Y705705D01*
X949615D01*
X949867Y705755D01*
X950080Y705898D01*
X950223Y706111D01*
X950273Y706363D01*
Y706980D01*
X950304Y707133D01*
X950304Y707133D01*
Y707200D01*
X950273Y707353D01*
Y708037D01*
X950223Y708289D01*
X950080Y708502D01*
X949867Y708645D01*
X949615Y708695D01*
X948138D01*
X947886Y708645D01*
X947860Y708628D01*
X925943D01*
X925943Y708628D01*
X925548Y708549D01*
X925180Y708801D01*
X925092Y708916D01*
X925129Y709200D01*
X925092Y709484D01*
X925180Y709599D01*
X925548Y709851D01*
X925943Y709773D01*
X925943Y709773D01*
X947860D01*
X947886Y709755D01*
X948138Y709705D01*
X948719D01*
X948794Y709690D01*
X948861D01*
X948861Y709690D01*
X948935Y709705D01*
X949615D01*
X949867Y709755D01*
X950080Y709898D01*
X950223Y710111D01*
X950273Y710363D01*
Y710980D01*
X950304Y711133D01*
Y711200D01*
X950273Y711353D01*
Y712037D01*
X950223Y712289D01*
X950080Y712502D01*
X949867Y712645D01*
X949615Y712695D01*
X948138D01*
X947886Y712645D01*
X947860Y712628D01*
X926534D01*
X924501Y714661D01*
X924038Y714970D01*
X923492Y715079D01*
D02*
G37*
G36*
X930201Y726002D02*
X930201Y726002D01*
X930134D01*
X929981Y725971D01*
X929298D01*
X929046Y725921D01*
X928832Y725778D01*
X928689Y725564D01*
X928639Y725312D01*
Y723836D01*
X928689Y723584D01*
X928802Y723415D01*
Y718152D01*
X928788Y718142D01*
X928346Y717480D01*
X928191Y716700D01*
X928346Y715920D01*
X928788Y715258D01*
X929449Y714816D01*
X930230Y714661D01*
X931010Y714816D01*
X931672Y715258D01*
X932114Y715920D01*
X932269Y716700D01*
X932114Y717480D01*
X931672Y718142D01*
X931657Y718152D01*
Y724479D01*
X931657Y724479D01*
X931645Y724542D01*
Y724558D01*
X931630Y724633D01*
Y725312D01*
X931580Y725564D01*
X931437Y725778D01*
X931223Y725921D01*
X930971Y725971D01*
X930355D01*
X930201Y726002D01*
D02*
G37*
G36*
X942143Y715000D02*
X940848D01*
Y713803D01*
X941485D01*
X941737Y713853D01*
X941951Y713996D01*
X942093Y714210D01*
X942143Y714462D01*
Y715000D01*
D02*
G37*
G36*
X940448D02*
X939153D01*
Y714462D01*
X939203Y714210D01*
X939346Y713996D01*
X939559Y713853D01*
X939812Y713803D01*
X940448D01*
Y715000D01*
D02*
G37*
G36*
X853512Y712797D02*
X851344D01*
Y711022D01*
X853512D01*
Y712797D01*
D02*
G37*
G36*
X850944D02*
X848775D01*
Y711022D01*
X850944D01*
Y712797D01*
D02*
G37*
G36*
X952648Y717239D02*
X951868Y717084D01*
X951206Y716642D01*
X950764Y715980D01*
X950609Y715200D01*
X950764Y714420D01*
X950992Y714078D01*
Y711200D01*
X951023Y711047D01*
Y710363D01*
X951073Y710111D01*
X951216Y709898D01*
X951429Y709755D01*
X951682Y709705D01*
X953158D01*
X953410Y709755D01*
X953624Y709898D01*
X953767Y710111D01*
X953817Y710363D01*
Y711047D01*
X953847Y711200D01*
Y713596D01*
X954090Y713758D01*
X954532Y714420D01*
X954687Y715200D01*
X954532Y715980D01*
X954090Y716642D01*
X953428Y717084D01*
X952648Y717239D01*
D02*
G37*
G36*
X891848Y712655D02*
Y709400D01*
X895103D01*
X895010Y710101D01*
X894663Y710941D01*
X894110Y711661D01*
X893389Y712215D01*
X892549Y712562D01*
X891848Y712655D01*
D02*
G37*
G36*
X891448D02*
X890747Y712562D01*
X889908Y712215D01*
X889187Y711661D01*
X888634Y710941D01*
X888286Y710101D01*
X888193Y709400D01*
X891448D01*
Y712655D01*
D02*
G37*
G36*
X853512Y710622D02*
X851344D01*
Y708847D01*
X853512D01*
Y710622D01*
D02*
G37*
G36*
X850944D02*
X848775D01*
Y708847D01*
X850944D01*
Y710622D01*
D02*
G37*
G36*
X958648Y717239D02*
X957868Y717084D01*
X957206Y716642D01*
X956764Y715980D01*
X956609Y715200D01*
X956764Y714420D01*
X957029Y714023D01*
Y711600D01*
X954057Y708628D01*
X953437D01*
X953410Y708645D01*
X953158Y708695D01*
X951682D01*
X951429Y708645D01*
X951216Y708502D01*
X951073Y708289D01*
X951023Y708037D01*
Y707353D01*
X950992Y707200D01*
X951023Y707047D01*
Y706363D01*
X951073Y706111D01*
X951216Y705898D01*
X951429Y705755D01*
X951682Y705705D01*
X953158D01*
X953410Y705755D01*
X953437Y705773D01*
X954648D01*
X954648Y705773D01*
X955194Y705881D01*
X955657Y706191D01*
X959466Y709999D01*
X959466Y709999D01*
X959776Y710463D01*
X959884Y711009D01*
Y713621D01*
X960090Y713758D01*
X960532Y714420D01*
X960687Y715200D01*
X960532Y715980D01*
X960090Y716642D01*
X959428Y717084D01*
X958648Y717239D01*
D02*
G37*
G36*
X895103Y709000D02*
X891848D01*
Y705745D01*
X892549Y705838D01*
X893389Y706185D01*
X894110Y706739D01*
X894663Y707460D01*
X895010Y708299D01*
X895103Y709000D01*
D02*
G37*
G36*
X891448D02*
X888193D01*
X888286Y708299D01*
X888634Y707460D01*
X889187Y706739D01*
X889908Y706185D01*
X890747Y705838D01*
X891448Y705745D01*
Y709000D01*
D02*
G37*
G36*
X784480Y705821D02*
X782803D01*
Y704400D01*
X784480D01*
Y705821D01*
D02*
G37*
G36*
X773091Y707171D02*
X769348D01*
Y704313D01*
X773091D01*
Y707171D01*
D02*
G37*
G36*
X768948D02*
X765205D01*
Y704313D01*
X768948D01*
Y707171D01*
D02*
G37*
G36*
X784480Y704000D02*
X782803D01*
Y702580D01*
X784480D01*
Y704000D01*
D02*
G37*
G36*
X773091Y703913D02*
X769348D01*
Y701056D01*
X773091D01*
Y703913D01*
D02*
G37*
G36*
X768948D02*
X765205D01*
Y701056D01*
X768948D01*
Y703913D01*
D02*
G37*
G36*
X923490Y699248D02*
Y695695D01*
X927042D01*
X926940Y696473D01*
X926562Y697385D01*
X925962Y698167D01*
X925179Y698768D01*
X924268Y699145D01*
X923490Y699248D01*
D02*
G37*
G36*
X923090D02*
X922312Y699145D01*
X921400Y698768D01*
X920618Y698167D01*
X920017Y697385D01*
X919640Y696473D01*
X919537Y695695D01*
X923090D01*
Y699248D01*
D02*
G37*
G36*
X824001Y701931D02*
X820061D01*
Y695432D01*
X824001D01*
Y701931D01*
D02*
G37*
G36*
X819661D02*
X815720D01*
Y695432D01*
X819661D01*
Y701931D01*
D02*
G37*
G36*
X800576Y697403D02*
X796635D01*
Y695432D01*
X800576D01*
Y697403D01*
D02*
G37*
G36*
X796236D02*
X792295D01*
Y695432D01*
X796236D01*
Y697403D01*
D02*
G37*
G36*
X800576Y695031D02*
X796635D01*
Y693060D01*
X800576D01*
Y695031D01*
D02*
G37*
G36*
X796236D02*
X792295D01*
Y693060D01*
X796236D01*
Y695031D01*
D02*
G37*
G36*
X927042Y695295D02*
X923490D01*
Y691743D01*
X924268Y691845D01*
X925179Y692223D01*
X925962Y692823D01*
X926562Y693606D01*
X926940Y694517D01*
X927042Y695295D01*
D02*
G37*
G36*
X923090D02*
X919537D01*
X919640Y694517D01*
X920017Y693606D01*
X920618Y692823D01*
X921400Y692223D01*
X922312Y691845D01*
X923090Y691743D01*
Y695295D01*
D02*
G37*
G36*
X941006Y699274D02*
X940028Y699145D01*
X939117Y698768D01*
X938334Y698167D01*
X937734Y697385D01*
X937356Y696473D01*
X937228Y695495D01*
X937356Y694517D01*
X937734Y693606D01*
X938334Y692823D01*
X939117Y692223D01*
X940028Y691845D01*
X941006Y691717D01*
X941984Y691845D01*
X942896Y692223D01*
X943678Y692823D01*
X944279Y693606D01*
X944656Y694517D01*
X944785Y695495D01*
X944656Y696473D01*
X944279Y697385D01*
X943678Y698167D01*
X942896Y698768D01*
X941984Y699145D01*
X941006Y699274D01*
D02*
G37*
G36*
X790269Y691484D02*
X788848D01*
Y689808D01*
X790269D01*
Y691484D01*
D02*
G37*
G36*
X788448D02*
X787028D01*
Y689808D01*
X788448D01*
Y691484D01*
D02*
G37*
G36*
X824001Y695032D02*
X820061D01*
Y688532D01*
X824001D01*
Y695032D01*
D02*
G37*
G36*
X819661D02*
X815720D01*
Y688532D01*
X819661D01*
Y695032D01*
D02*
G37*
G36*
X773091Y677931D02*
X769348D01*
Y675073D01*
X773091D01*
Y677931D01*
D02*
G37*
G36*
X768948D02*
X765205D01*
Y675073D01*
X768948D01*
Y677931D01*
D02*
G37*
G36*
X773091Y674673D02*
X769348D01*
Y671816D01*
X773091D01*
Y674673D01*
D02*
G37*
G36*
X768948D02*
X765205D01*
Y671816D01*
X768948D01*
Y674673D01*
D02*
G37*
G36*
X917768Y672545D02*
X916348D01*
Y670869D01*
X917768D01*
Y672545D01*
D02*
G37*
G36*
X915948D02*
X914528D01*
Y670869D01*
X915948D01*
Y672545D01*
D02*
G37*
G36*
X907148Y698503D02*
X829648D01*
X829341Y698442D01*
X829080Y698268D01*
X828906Y698007D01*
X828845Y697700D01*
Y669894D01*
X828906Y669587D01*
X829080Y669326D01*
X829341Y669152D01*
X829648Y669091D01*
X907148D01*
X907455Y669152D01*
X907716Y669326D01*
X907890Y669587D01*
X907951Y669894D01*
Y697700D01*
X907890Y698007D01*
X907716Y698268D01*
X907455Y698442D01*
X907148Y698503D01*
D02*
G37*
G36*
X797217Y672202D02*
X792087D01*
Y669040D01*
X797217D01*
Y672202D01*
D02*
G37*
G36*
X923290Y673684D02*
X922312Y673555D01*
X921400Y673177D01*
X920618Y672577D01*
X920017Y671794D01*
X919640Y670883D01*
X919511Y669905D01*
X919640Y668927D01*
X920008Y668037D01*
X919907Y667896D01*
X919681Y667649D01*
X918122D01*
X917768Y668003D01*
X917769Y668608D01*
X917768Y669108D01*
Y670469D01*
X916148D01*
X914528D01*
Y669108D01*
X914528Y668792D01*
X914528Y668292D01*
Y667118D01*
X911940D01*
X911590Y667642D01*
X910928Y668084D01*
X910148Y668239D01*
X909368Y668084D01*
X908706Y667642D01*
X908264Y666980D01*
X908109Y666200D01*
X908264Y665420D01*
X908706Y664758D01*
X909368Y664316D01*
X910148Y664161D01*
X910928Y664316D01*
X911590Y664758D01*
X911940Y665282D01*
X914528D01*
Y664855D01*
X917768D01*
Y665814D01*
X920117D01*
X920468Y665884D01*
X920765Y666083D01*
X921352Y666669D01*
X921400Y666632D01*
X922312Y666255D01*
X923290Y666126D01*
X924268Y666255D01*
X925179Y666632D01*
X925962Y667233D01*
X926562Y668015D01*
X926940Y668927D01*
X927069Y669905D01*
X926940Y670883D01*
X926562Y671794D01*
X925962Y672577D01*
X925179Y673177D01*
X924268Y673555D01*
X923290Y673684D01*
D02*
G37*
G36*
X822918Y668423D02*
X820848D01*
Y666353D01*
X822918D01*
Y668423D01*
D02*
G37*
G36*
X820448D02*
X818378D01*
Y666353D01*
X820448D01*
Y668423D01*
D02*
G37*
G36*
X941006Y673684D02*
X940028Y673555D01*
X939117Y673177D01*
X938334Y672577D01*
X937734Y671794D01*
X937356Y670883D01*
X937228Y669905D01*
X937356Y668927D01*
X937734Y668015D01*
X938334Y667233D01*
X939117Y666632D01*
X940028Y666255D01*
X941006Y666126D01*
X941984Y666255D01*
X942896Y666632D01*
X943678Y667233D01*
X944279Y668015D01*
X944656Y668927D01*
X944785Y669905D01*
X944656Y670883D01*
X944279Y671794D01*
X943678Y672577D01*
X942896Y673177D01*
X941984Y673555D01*
X941006Y673684D01*
D02*
G37*
G36*
X906450Y667380D02*
X902313D01*
Y665409D01*
X906450D01*
Y667380D01*
D02*
G37*
G36*
X901913D02*
X897776D01*
Y665409D01*
X901913D01*
Y667380D01*
D02*
G37*
G36*
X839520D02*
X835384D01*
Y665409D01*
X839520D01*
Y667380D01*
D02*
G37*
G36*
X834984D02*
X830847D01*
Y665409D01*
X834984D01*
Y667380D01*
D02*
G37*
G36*
X827769Y666045D02*
X826348D01*
Y664368D01*
X827769D01*
Y666045D01*
D02*
G37*
G36*
X825948D02*
X824528D01*
Y664368D01*
X825948D01*
Y666045D01*
D02*
G37*
G36*
X822918Y665953D02*
X820848D01*
Y663883D01*
X822918D01*
Y665953D01*
D02*
G37*
G36*
X820448D02*
X818378D01*
Y663883D01*
X820448D01*
Y665953D01*
D02*
G37*
G36*
X906450Y665009D02*
X902313D01*
Y663037D01*
X906450D01*
Y665009D01*
D02*
G37*
G36*
X901913D02*
X897776D01*
Y663037D01*
X901913D01*
Y665009D01*
D02*
G37*
G36*
X839520D02*
X835384D01*
Y663037D01*
X839520D01*
Y665009D01*
D02*
G37*
G36*
X834984D02*
X830847D01*
Y663037D01*
X834984D01*
Y665009D01*
D02*
G37*
G36*
X926480Y657320D02*
X924803D01*
Y655900D01*
X926480D01*
Y657320D01*
D02*
G37*
G36*
Y655500D02*
X924803D01*
Y654080D01*
X926480D01*
Y655500D01*
D02*
G37*
G36*
X839520Y652380D02*
X830847D01*
Y648037D01*
X839520D01*
Y652380D01*
D02*
G37*
G36*
X906450D02*
X897776D01*
Y648037D01*
X906450D01*
Y648628D01*
X911796D01*
X911908Y648460D01*
X912570Y648018D01*
X913350Y647863D01*
X914130Y648018D01*
X914792Y648460D01*
X915234Y649122D01*
X915389Y649902D01*
X915234Y650682D01*
X914792Y651344D01*
X914130Y651786D01*
X913350Y651941D01*
X912570Y651786D01*
X912116Y651483D01*
X906450D01*
Y652380D01*
D02*
G37*
G36*
X930448Y646532D02*
X929028D01*
Y644855D01*
X930448D01*
Y646532D01*
D02*
G37*
G36*
X906450Y647380D02*
X897776D01*
Y643037D01*
X906450D01*
Y643781D01*
X915191D01*
X915206Y643758D01*
X915868Y643316D01*
X916648Y643161D01*
X917428Y643316D01*
X918090Y643758D01*
X918532Y644420D01*
X918687Y645200D01*
X918532Y645980D01*
X918090Y646642D01*
X917428Y647084D01*
X916648Y647239D01*
X915868Y647084D01*
X915206Y646642D01*
X915202Y646636D01*
X906450D01*
Y647380D01*
D02*
G37*
G36*
X839520D02*
X830847D01*
Y643037D01*
X839520D01*
Y647380D01*
D02*
G37*
G36*
X872394Y641652D02*
X870423D01*
Y639680D01*
X872394D01*
Y641652D01*
D02*
G37*
G36*
X870023D02*
X868051D01*
Y639680D01*
X870023D01*
Y641652D01*
D02*
G37*
G36*
X866883D02*
X864911D01*
Y639680D01*
X866883D01*
Y641652D01*
D02*
G37*
G36*
X864511D02*
X862539D01*
Y639680D01*
X864511D01*
Y641652D01*
D02*
G37*
G36*
X861371D02*
X859399D01*
Y639680D01*
X861371D01*
Y641652D01*
D02*
G37*
G36*
X858999D02*
X857028D01*
Y639680D01*
X858999D01*
Y641652D01*
D02*
G37*
G36*
X809657Y652231D02*
X808876Y652075D01*
X808215Y651633D01*
X807773Y650972D01*
X807617Y650191D01*
X807773Y649411D01*
X808215Y648749D01*
X808229Y648740D01*
Y644800D01*
X792608Y629179D01*
X792023D01*
X792023Y629179D01*
X791477Y629070D01*
X791014Y628761D01*
X788788Y626535D01*
X788478Y626072D01*
X788370Y625525D01*
X788370Y625525D01*
Y547751D01*
X788370Y547751D01*
X788478Y547205D01*
X788788Y546742D01*
X793415Y542114D01*
X793286Y541801D01*
X793167Y540900D01*
X793286Y539999D01*
X793634Y539160D01*
X794187Y538439D01*
X794908Y537886D01*
X795747Y537538D01*
X796648Y537419D01*
X797549Y537538D01*
X798389Y537886D01*
X799110Y538439D01*
X799663Y539160D01*
X800010Y539999D01*
X800129Y540900D01*
X800010Y541801D01*
X799663Y542640D01*
X799110Y543362D01*
X798389Y543915D01*
X797549Y544262D01*
X796648Y544381D01*
X795747Y544262D01*
X795434Y544133D01*
X795045Y544521D01*
X795253Y545021D01*
X798658D01*
X802435Y541244D01*
X802435Y541244D01*
X802898Y540935D01*
X803170Y540881D01*
X803286Y539999D01*
X803633Y539160D01*
X804187Y538439D01*
X804908Y537886D01*
X805747Y537538D01*
X806648Y537419D01*
X807549Y537538D01*
X808389Y537886D01*
X809109Y538439D01*
X809663Y539160D01*
X810010Y539999D01*
X810129Y540900D01*
X810010Y541801D01*
X809663Y542640D01*
X809109Y543362D01*
X808389Y543915D01*
X807549Y544262D01*
X806648Y544381D01*
X805747Y544262D01*
X804908Y543915D01*
X804517Y543615D01*
X804184Y543681D01*
X804184Y543681D01*
X804035D01*
X800258Y547458D01*
X799795Y547768D01*
X799249Y547876D01*
X799249Y547876D01*
X799198D01*
X799028Y548376D01*
X799110Y548439D01*
X799663Y549160D01*
X800010Y549999D01*
X800129Y550900D01*
X800010Y551801D01*
X799663Y552640D01*
X799110Y553362D01*
X798389Y553915D01*
X797549Y554262D01*
X796648Y554381D01*
X795747Y554262D01*
X794908Y553915D01*
X794187Y553362D01*
X794124Y553280D01*
X793624Y553450D01*
Y558350D01*
X794124Y558520D01*
X794187Y558439D01*
X794908Y557886D01*
X795747Y557538D01*
X796648Y557419D01*
X797549Y557538D01*
X798389Y557886D01*
X799110Y558439D01*
X799663Y559160D01*
X800010Y559999D01*
X800129Y560900D01*
X800010Y561801D01*
X799663Y562640D01*
X799110Y563362D01*
X798389Y563915D01*
X797549Y564262D01*
X796648Y564381D01*
X795747Y564262D01*
X794908Y563915D01*
X794187Y563362D01*
X794124Y563280D01*
X793624Y563450D01*
Y568350D01*
X794124Y568520D01*
X794187Y568439D01*
X794908Y567885D01*
X795747Y567538D01*
X796648Y567419D01*
X797549Y567538D01*
X798389Y567885D01*
X799110Y568439D01*
X799663Y569160D01*
X800004Y569982D01*
X801060D01*
X801411Y570052D01*
X801709Y570251D01*
X802709Y571251D01*
X803183Y571018D01*
X803167Y570900D01*
X803286Y569999D01*
X803633Y569160D01*
X804187Y568439D01*
X804908Y567885D01*
X805747Y567538D01*
X806648Y567419D01*
X807549Y567538D01*
X808389Y567885D01*
X809109Y568439D01*
X809663Y569160D01*
X810010Y569999D01*
X810129Y570900D01*
X810010Y571801D01*
X809670Y572624D01*
X811328Y574282D01*
X831699D01*
X831966Y573782D01*
X831764Y573480D01*
X831609Y572700D01*
X831764Y571920D01*
X832206Y571258D01*
X832221Y571248D01*
Y568674D01*
X831867Y568321D01*
X831240Y568321D01*
X829880D01*
Y566700D01*
Y565080D01*
X831240D01*
X831556Y565080D01*
X831918Y565080D01*
X832139Y564858D01*
Y564281D01*
X831918Y564059D01*
X831365Y564059D01*
X830005D01*
Y562439D01*
Y560818D01*
X831365D01*
X831681Y560818D01*
X832139Y560818D01*
X832492Y560465D01*
Y559936D01*
X832216Y559659D01*
X831992Y559582D01*
X831564D01*
X831445Y559582D01*
X829789D01*
Y555639D01*
Y551696D01*
X831445D01*
X831564Y551696D01*
X831945D01*
X832064Y551696D01*
X835894D01*
Y551696D01*
X836276D01*
Y551696D01*
X840106D01*
X840225Y551696D01*
X840606D01*
X840725Y551696D01*
X844437D01*
X844556Y551696D01*
X844937D01*
X845056Y551696D01*
X848768D01*
X848887Y551696D01*
X849268D01*
X849387Y551696D01*
X853098D01*
X853217Y551696D01*
X853598D01*
X853717Y551696D01*
X857548D01*
Y559582D01*
X857076D01*
Y561350D01*
X857093Y561377D01*
X857143Y561629D01*
Y563105D01*
X857093Y563358D01*
X856950Y563571D01*
X856737Y563714D01*
X856485Y563764D01*
X855801D01*
X855648Y563795D01*
X855495Y563764D01*
X854811D01*
X854559Y563714D01*
X854346Y563571D01*
X854203Y563358D01*
X854153Y563105D01*
Y561629D01*
X854203Y561377D01*
X854221Y561350D01*
Y559936D01*
X853867Y559582D01*
X853217Y559582D01*
X853098Y559582D01*
X852575D01*
Y561350D01*
X852593Y561377D01*
X852643Y561629D01*
Y563105D01*
X852593Y563358D01*
X852450Y563571D01*
X852237Y563714D01*
X851985Y563764D01*
X851301D01*
X851148Y563795D01*
X850995Y563764D01*
X850311D01*
X850059Y563714D01*
X849846Y563571D01*
X849703Y563358D01*
X849653Y563105D01*
Y561629D01*
X849703Y561377D01*
X849721Y561350D01*
Y559936D01*
X849367Y559582D01*
X848887Y559582D01*
X848575Y560003D01*
Y561350D01*
X848593Y561377D01*
X848643Y561629D01*
Y563105D01*
X848593Y563358D01*
X848450Y563571D01*
X848237Y563714D01*
X847985Y563764D01*
X847301D01*
X847148Y563795D01*
X846995Y563764D01*
X846311D01*
X846059Y563714D01*
X845846Y563571D01*
X845703Y563358D01*
X845653Y563105D01*
Y561629D01*
X845703Y561377D01*
X845721Y561350D01*
Y559582D01*
X845056D01*
X844937Y559582D01*
X844556D01*
X844075Y559916D01*
Y561350D01*
X844093Y561377D01*
X844143Y561629D01*
Y563105D01*
X844093Y563358D01*
X843950Y563571D01*
X843737Y563714D01*
X843485Y563764D01*
X842801D01*
X842648Y563795D01*
X842495Y563764D01*
X841811D01*
X841559Y563714D01*
X841346Y563571D01*
X841203Y563358D01*
X841153Y563105D01*
Y561629D01*
X841203Y561377D01*
X841221Y561350D01*
Y559936D01*
X840870Y559586D01*
X840721Y559582D01*
X840606Y559582D01*
X840225D01*
X840106Y559582D01*
X836276D01*
Y559582D01*
X835894D01*
Y559582D01*
X835347D01*
Y560818D01*
X835618D01*
Y564059D01*
X835126D01*
Y565080D01*
X835493D01*
Y568321D01*
X835075D01*
Y571248D01*
X835090Y571258D01*
X835532Y571920D01*
X835687Y572700D01*
X835532Y573480D01*
X835330Y573782D01*
X835598Y574282D01*
X840768D01*
X841732Y573318D01*
X841609Y572700D01*
X841764Y571920D01*
X841919Y571688D01*
X841800Y571510D01*
X841730Y571159D01*
Y567291D01*
X841559Y567257D01*
X841346Y567115D01*
X841203Y566901D01*
X841153Y566649D01*
Y565172D01*
X841203Y564920D01*
X841346Y564707D01*
X841559Y564564D01*
X841811Y564514D01*
X843485D01*
X843737Y564564D01*
X843950Y564707D01*
X844093Y564920D01*
X844143Y565172D01*
Y566649D01*
X844093Y566901D01*
X843950Y567115D01*
X843737Y567257D01*
X843566Y567291D01*
Y570593D01*
X843648Y570661D01*
X844428Y570816D01*
X845090Y571258D01*
X845532Y571920D01*
X845687Y572700D01*
X845532Y573480D01*
X845090Y574142D01*
X844428Y574584D01*
X843648Y574739D01*
X843030Y574616D01*
X841797Y575849D01*
X841499Y576048D01*
X841148Y576118D01*
X810948D01*
X810597Y576048D01*
X810299Y575849D01*
X808372Y573922D01*
X807587Y574247D01*
X807515Y574397D01*
X807418Y574784D01*
X830441Y597808D01*
X830847Y598037D01*
X837230D01*
Y595200D01*
X837300Y594849D01*
X837499Y594551D01*
X846231Y585820D01*
Y567291D01*
X846059Y567257D01*
X845846Y567115D01*
X845703Y566901D01*
X845653Y566649D01*
Y565172D01*
X845703Y564920D01*
X845846Y564707D01*
X846059Y564564D01*
X846311Y564514D01*
X847985D01*
X848237Y564564D01*
X848450Y564707D01*
X848593Y564920D01*
X848643Y565172D01*
Y566649D01*
X848593Y566901D01*
X848450Y567115D01*
X848237Y567257D01*
X848066Y567291D01*
Y585422D01*
X848528Y585613D01*
X850231Y583910D01*
Y580041D01*
X850173Y580002D01*
X850030Y579789D01*
X849979Y579537D01*
Y577863D01*
X850030Y577611D01*
X850173Y577398D01*
X850231Y577359D01*
Y567291D01*
X850059Y567257D01*
X849846Y567115D01*
X849703Y566901D01*
X849653Y566649D01*
Y565172D01*
X849703Y564920D01*
X849846Y564707D01*
X850059Y564564D01*
X850311Y564514D01*
X851985D01*
X852237Y564564D01*
X852450Y564707D01*
X852593Y564920D01*
X852643Y565172D01*
Y566649D01*
X852593Y566901D01*
X852450Y567115D01*
X852237Y567257D01*
X852066Y567291D01*
Y577205D01*
X852115D01*
X852367Y577255D01*
X852580Y577398D01*
X852723Y577611D01*
X852773Y577863D01*
Y579537D01*
X852723Y579789D01*
X852580Y580002D01*
X852367Y580145D01*
X852115Y580195D01*
X852066D01*
Y584290D01*
X851996Y584641D01*
X851797Y584939D01*
X850222Y586514D01*
X850468Y586975D01*
X850880Y586893D01*
X851661Y587048D01*
X852322Y587490D01*
X852764Y588152D01*
X852919Y588932D01*
X852764Y589713D01*
X852322Y590374D01*
X851798Y590725D01*
Y591935D01*
X853320D01*
Y600609D01*
X848976D01*
Y591935D01*
X849963D01*
Y590725D01*
X849438Y590374D01*
X848996Y589713D01*
X848841Y588932D01*
X848923Y588520D01*
X848462Y588274D01*
X845263Y591473D01*
X845455Y591935D01*
X845948D01*
Y596072D01*
X843976D01*
Y593413D01*
X843514Y593222D01*
X841566Y595170D01*
Y601909D01*
X841496Y602261D01*
X841297Y602558D01*
X839520Y604335D01*
Y607380D01*
X830847D01*
Y605502D01*
X830332D01*
X829981Y605432D01*
X829683Y605233D01*
X808372Y583922D01*
X807549Y584262D01*
X807412Y584280D01*
X807341Y584548D01*
X807348Y584793D01*
X807585Y584951D01*
X830441Y607808D01*
X830847Y608037D01*
X839520D01*
Y612380D01*
X830847D01*
Y610031D01*
X830449D01*
X830098Y609961D01*
X829800Y609762D01*
X810587Y590549D01*
X810114Y590783D01*
X810129Y590900D01*
X810010Y591801D01*
X809670Y592624D01*
X830346Y613301D01*
X830847Y613094D01*
Y613037D01*
X839520D01*
Y617380D01*
X830847D01*
Y615502D01*
X830332D01*
X829981Y615432D01*
X829683Y615233D01*
X808372Y593922D01*
X807549Y594262D01*
X806648Y594381D01*
X805747Y594262D01*
X804908Y593915D01*
X804187Y593362D01*
X803633Y592640D01*
X803286Y591801D01*
X803167Y590900D01*
X803286Y589999D01*
X803633Y589160D01*
X804187Y588439D01*
X804908Y587886D01*
X805747Y587538D01*
X806648Y587419D01*
X806766Y587435D01*
X806999Y586961D01*
X806556Y586518D01*
X804399D01*
X804048Y586448D01*
X803750Y586249D01*
X800179Y582677D01*
X799986Y582663D01*
X799600Y582723D01*
X799110Y583361D01*
X798389Y583915D01*
X797549Y584262D01*
X796648Y584381D01*
X795747Y584262D01*
X794908Y583915D01*
X794187Y583361D01*
X794124Y583280D01*
X793624Y583450D01*
Y588350D01*
X794124Y588520D01*
X794187Y588439D01*
X794908Y587886D01*
X795747Y587538D01*
X796648Y587419D01*
X797549Y587538D01*
X798389Y587886D01*
X799110Y588439D01*
X799663Y589160D01*
X800010Y589999D01*
X800129Y590900D01*
X800010Y591801D01*
X799670Y592624D01*
X803077Y596031D01*
X808285D01*
X808636Y596101D01*
X808934Y596300D01*
X830441Y617808D01*
X830847Y618037D01*
X839520D01*
Y622380D01*
X830847D01*
Y620031D01*
X830449D01*
X830098Y619961D01*
X829800Y619762D01*
X810587Y600549D01*
X810114Y600783D01*
X810129Y600900D01*
X810010Y601801D01*
X809670Y602624D01*
X830346Y623301D01*
X830847Y623094D01*
Y623037D01*
X839520D01*
Y627380D01*
X830847D01*
Y625502D01*
X830332D01*
X829981Y625432D01*
X829683Y625233D01*
X808372Y603922D01*
X807549Y604262D01*
X806648Y604381D01*
X805747Y604262D01*
X804908Y603915D01*
X804735Y603782D01*
X804405Y604159D01*
X806277Y606031D01*
X808285D01*
X808636Y606101D01*
X808934Y606300D01*
X830441Y627808D01*
X830847Y628037D01*
X839520D01*
Y632380D01*
X830847D01*
Y630031D01*
X830449D01*
X830098Y629961D01*
X829800Y629762D01*
X810587Y610549D01*
X810114Y610783D01*
X810129Y610900D01*
X810010Y611801D01*
X809670Y612624D01*
X830346Y633301D01*
X830847Y633094D01*
Y633037D01*
X839520D01*
Y637380D01*
X830847D01*
Y635502D01*
X830332D01*
X829981Y635432D01*
X829683Y635233D01*
X808372Y613922D01*
X807549Y614262D01*
X806648Y614381D01*
X805747Y614262D01*
X804908Y613915D01*
X804187Y613362D01*
X803633Y612640D01*
X803286Y611801D01*
X803167Y610900D01*
X803286Y609999D01*
X803633Y609160D01*
X804187Y608439D01*
X804863Y607920D01*
X804913Y607839D01*
X804969Y607319D01*
X800209Y602559D01*
X799667Y602631D01*
X799663Y602640D01*
X799110Y603362D01*
X798389Y603915D01*
X797549Y604262D01*
X796648Y604381D01*
X795747Y604262D01*
X794908Y603915D01*
X794187Y603362D01*
X794124Y603280D01*
X793624Y603450D01*
Y608350D01*
X794124Y608520D01*
X794187Y608439D01*
X794908Y607886D01*
X795747Y607538D01*
X796648Y607419D01*
X797549Y607538D01*
X798389Y607886D01*
X799110Y608439D01*
X799663Y609160D01*
X800010Y609999D01*
X800129Y610900D01*
X800010Y611801D01*
X799670Y612624D01*
X801248Y614202D01*
X801447Y614500D01*
X801517Y614851D01*
Y621871D01*
X818937Y639291D01*
X830847D01*
Y638037D01*
X839520D01*
Y642380D01*
X830847D01*
Y641126D01*
X829174D01*
X828769Y641355D01*
X828769Y641626D01*
Y643032D01*
X827148D01*
X825528D01*
X825528Y641355D01*
X825122Y641126D01*
X818557D01*
X818206Y641056D01*
X817908Y640858D01*
X800561Y623511D01*
X800099Y623702D01*
Y624351D01*
X795865D01*
X795674Y624813D01*
X813475Y642614D01*
X813475Y642614D01*
X813784Y643077D01*
X813890Y643610D01*
X814099Y643750D01*
X814541Y644411D01*
X814696Y645191D01*
X814541Y645972D01*
X814099Y646633D01*
X813437Y647075D01*
X812657Y647231D01*
X811876Y647075D01*
X811584Y646880D01*
X811084Y647147D01*
Y648740D01*
X811099Y648749D01*
X811541Y649411D01*
X811696Y650191D01*
X811541Y650972D01*
X811099Y651633D01*
X810437Y652075D01*
X809657Y652231D01*
D02*
G37*
G36*
X872394Y639280D02*
X870423D01*
Y637309D01*
X872394D01*
Y639280D01*
D02*
G37*
G36*
X870023D02*
X868051D01*
Y637309D01*
X870023D01*
Y639280D01*
D02*
G37*
G36*
X866883D02*
X864911D01*
Y637309D01*
X866883D01*
Y639280D01*
D02*
G37*
G36*
X864511D02*
X862539D01*
Y637309D01*
X864511D01*
Y639280D01*
D02*
G37*
G36*
X861371D02*
X859399D01*
Y637309D01*
X861371D01*
Y639280D01*
D02*
G37*
G36*
X858999D02*
X857028D01*
Y637309D01*
X858999D01*
Y639280D01*
D02*
G37*
G36*
X872394Y636140D02*
X870423D01*
Y634168D01*
X872394D01*
Y636140D01*
D02*
G37*
G36*
X870023D02*
X868051D01*
Y634168D01*
X870023D01*
Y636140D01*
D02*
G37*
G36*
X866883D02*
X864911D01*
Y634168D01*
X866883D01*
Y636140D01*
D02*
G37*
G36*
X864511D02*
X862539D01*
Y634168D01*
X864511D01*
Y636140D01*
D02*
G37*
G36*
X861371D02*
X859399D01*
Y634168D01*
X861371D01*
Y636140D01*
D02*
G37*
G36*
X858999D02*
X857028D01*
Y634168D01*
X858999D01*
Y636140D01*
D02*
G37*
G36*
X906450Y637380D02*
X897776D01*
Y633037D01*
X906450D01*
Y637380D01*
D02*
G37*
G36*
X872394Y633769D02*
X870423D01*
Y631797D01*
X872394D01*
Y633769D01*
D02*
G37*
G36*
X870023D02*
X868051D01*
Y631797D01*
X870023D01*
Y633769D01*
D02*
G37*
G36*
X866883D02*
X864911D01*
Y631797D01*
X866883D01*
Y633769D01*
D02*
G37*
G36*
X864511D02*
X862539D01*
Y631797D01*
X864511D01*
Y633769D01*
D02*
G37*
G36*
X861371D02*
X859399D01*
Y631797D01*
X861371D01*
Y633769D01*
D02*
G37*
G36*
X858999D02*
X857028D01*
Y631797D01*
X858999D01*
Y633769D01*
D02*
G37*
G36*
X872394Y630628D02*
X870423D01*
Y628657D01*
X872394D01*
Y630628D01*
D02*
G37*
G36*
X870023D02*
X868051D01*
Y628657D01*
X870023D01*
Y630628D01*
D02*
G37*
G36*
X866883D02*
X864911D01*
Y628657D01*
X866883D01*
Y630628D01*
D02*
G37*
G36*
X864511D02*
X862539D01*
Y628657D01*
X864511D01*
Y630628D01*
D02*
G37*
G36*
X861371D02*
X859399D01*
Y628657D01*
X861371D01*
Y630628D01*
D02*
G37*
G36*
X858999D02*
X857028D01*
Y628657D01*
X858999D01*
Y630628D01*
D02*
G37*
G36*
X872394Y628257D02*
X870423D01*
Y626285D01*
X872394D01*
Y628257D01*
D02*
G37*
G36*
X870023D02*
X868051D01*
Y626285D01*
X870023D01*
Y628257D01*
D02*
G37*
G36*
X866883D02*
X864911D01*
Y626285D01*
X866883D01*
Y628257D01*
D02*
G37*
G36*
X864511D02*
X862539D01*
Y626285D01*
X864511D01*
Y628257D01*
D02*
G37*
G36*
X861371D02*
X859399D01*
Y626285D01*
X861371D01*
Y628257D01*
D02*
G37*
G36*
X858999D02*
X857028D01*
Y626285D01*
X858999D01*
Y628257D01*
D02*
G37*
G36*
X955716Y626524D02*
X954532D01*
Y625044D01*
X955716D01*
Y626524D01*
D02*
G37*
G36*
X806648Y624381D02*
X805747Y624262D01*
X804908Y623915D01*
X804187Y623361D01*
X803633Y622641D01*
X803286Y621801D01*
X803167Y620900D01*
X803286Y619999D01*
X803633Y619160D01*
X804187Y618439D01*
X804908Y617885D01*
X805747Y617538D01*
X806648Y617419D01*
X807549Y617538D01*
X808389Y617885D01*
X809109Y618439D01*
X809663Y619160D01*
X810010Y619999D01*
X810129Y620900D01*
X810010Y621801D01*
X809663Y622641D01*
X809109Y623361D01*
X808389Y623915D01*
X807549Y624262D01*
X806648Y624381D01*
D02*
G37*
G36*
X938768Y606576D02*
X937348D01*
Y604900D01*
X938768D01*
Y606576D01*
D02*
G37*
G36*
X936948D02*
X935528D01*
Y604900D01*
X936948D01*
Y606576D01*
D02*
G37*
G36*
X971384Y604547D02*
Y600994D01*
X974937D01*
X974834Y601772D01*
X974457Y602684D01*
X973856Y603466D01*
X973074Y604067D01*
X972162Y604445D01*
X971384Y604547D01*
D02*
G37*
G36*
X970984D02*
X970206Y604445D01*
X969295Y604067D01*
X968512Y603466D01*
X967912Y602684D01*
X967534Y601772D01*
X967432Y600994D01*
X970984D01*
Y604547D01*
D02*
G37*
G36*
Y600594D02*
X967432D01*
X967534Y599816D01*
X967912Y598905D01*
X968512Y598123D01*
X969295Y597522D01*
X970206Y597144D01*
X970984Y597042D01*
Y600594D01*
D02*
G37*
G36*
X974937D02*
X971384D01*
Y597042D01*
X972162Y597144D01*
X973074Y597522D01*
X973856Y598123D01*
X974457Y598905D01*
X974834Y599816D01*
X974937Y600594D01*
D02*
G37*
G36*
X848320Y600609D02*
X846348D01*
Y596472D01*
X848320D01*
Y600609D01*
D02*
G37*
G36*
X845948D02*
X843976D01*
Y596472D01*
X845948D01*
Y600609D01*
D02*
G37*
G36*
X873320D02*
X868976D01*
Y592349D01*
X868792Y592165D01*
X868506Y592012D01*
X868320Y592095D01*
Y600609D01*
X863976D01*
Y591935D01*
X866992D01*
X867144Y591435D01*
X866706Y591142D01*
X866264Y590480D01*
X866109Y589700D01*
X866264Y588920D01*
X866706Y588258D01*
X867368Y587816D01*
X868148Y587661D01*
X868928Y587816D01*
X869590Y588258D01*
X869600Y588273D01*
X871360D01*
X871386Y588255D01*
X871638Y588205D01*
X873115D01*
X873367Y588255D01*
X873580Y588398D01*
X873723Y588611D01*
X873773Y588863D01*
Y589547D01*
X873804Y589700D01*
X873773Y589853D01*
Y590537D01*
X873723Y590789D01*
X873580Y591003D01*
X873367Y591145D01*
X873115Y591195D01*
X871638D01*
X871386Y591145D01*
X871360Y591127D01*
X869600D01*
X869590Y591142D01*
X869482Y591214D01*
X869195Y591576D01*
X869195Y591576D01*
X869304Y591935D01*
X869413Y591935D01*
X869413Y591935D01*
X869414Y591935D01*
X873320D01*
Y600609D01*
D02*
G37*
G36*
X863320D02*
X858976D01*
Y591935D01*
X863320D01*
Y600609D01*
D02*
G37*
G36*
X858320D02*
X853976D01*
Y591935D01*
X858320D01*
Y600609D01*
D02*
G37*
G36*
X848320Y596072D02*
X846348D01*
Y591935D01*
X848320D01*
Y596072D01*
D02*
G37*
G36*
X901829Y590169D02*
X900409D01*
Y588493D01*
X901829D01*
Y590169D01*
D02*
G37*
G36*
X900009D02*
X898588D01*
Y588493D01*
X900009D01*
Y590169D01*
D02*
G37*
G36*
X897768Y590045D02*
X896348D01*
Y588369D01*
X897768D01*
Y590045D01*
D02*
G37*
G36*
X895948D02*
X894528D01*
Y588369D01*
X895948D01*
Y590045D01*
D02*
G37*
G36*
X888320Y600609D02*
X883976D01*
Y591935D01*
X884721D01*
Y590652D01*
X884706Y590642D01*
X884264Y589980D01*
X884109Y589200D01*
X884264Y588420D01*
X884706Y587758D01*
X885368Y587316D01*
X886148Y587161D01*
X886928Y587316D01*
X887590Y587758D01*
X888032Y588420D01*
X888187Y589200D01*
X888032Y589980D01*
X887590Y590642D01*
X887576Y590652D01*
Y591935D01*
X888320D01*
Y600609D01*
D02*
G37*
G36*
X901829Y588093D02*
X898588D01*
Y586732D01*
X898588Y586417D01*
X898526Y586239D01*
X898222Y586179D01*
X897768Y586553D01*
Y587968D01*
X894528D01*
X894528Y586292D01*
X894096Y586128D01*
X893600D01*
X893590Y586142D01*
X892928Y586584D01*
X892148Y586739D01*
X891368Y586584D01*
X890706Y586142D01*
X890697Y586128D01*
X885708D01*
X885682Y586145D01*
X885430Y586195D01*
X883953D01*
X883701Y586145D01*
X883487Y586002D01*
X883345Y585789D01*
X883294Y585537D01*
Y584854D01*
X883264Y584700D01*
X883294Y584547D01*
Y583863D01*
X883345Y583611D01*
X883487Y583398D01*
X883701Y583255D01*
X883953Y583205D01*
X885430D01*
X885682Y583255D01*
X885708Y583273D01*
X890697D01*
X890706Y583258D01*
X891368Y582816D01*
X892148Y582661D01*
X892928Y582816D01*
X893590Y583258D01*
X893600Y583273D01*
X894528D01*
Y582355D01*
X897768D01*
Y583125D01*
X898588D01*
Y582480D01*
X898781D01*
Y581113D01*
X898763Y581086D01*
X898713Y580834D01*
Y579358D01*
X898763Y579106D01*
X898906Y578892D01*
X899120Y578749D01*
X899372Y578699D01*
X900055D01*
X900209Y578669D01*
X900362Y578699D01*
X901045D01*
X901297Y578749D01*
X901511Y578892D01*
X901654Y579106D01*
X901704Y579358D01*
Y580834D01*
X901654Y581086D01*
X901636Y581113D01*
Y582480D01*
X901829D01*
Y583282D01*
X903424D01*
X903848Y583100D01*
Y581600D01*
X903848Y581300D01*
X903848Y580800D01*
Y580400D01*
X905648D01*
X907448D01*
Y580800D01*
X907448Y581100D01*
X907448Y581600D01*
Y583100D01*
X907448D01*
Y583300D01*
X907448D01*
Y585100D01*
X905737D01*
X905648Y585118D01*
X904455D01*
X904455Y585118D01*
X902183D01*
X901829Y585471D01*
X901829Y586232D01*
X901829Y586732D01*
Y588093D01*
D02*
G37*
G36*
X907148Y589600D02*
X906448D01*
Y587889D01*
X906431Y587800D01*
X906448Y587711D01*
Y586000D01*
X907148D01*
Y587800D01*
Y589600D01*
D02*
G37*
G36*
X908248Y589600D02*
Y589600D01*
X907548D01*
Y587800D01*
Y586000D01*
X908248D01*
Y586000D01*
X908348D01*
Y586000D01*
X909048D01*
Y587800D01*
Y589600D01*
X908348D01*
Y589600D01*
X908248D01*
D02*
G37*
G36*
X922615Y585695D02*
X921138D01*
X920886Y585645D01*
X920673Y585502D01*
X920530Y585289D01*
X920496Y585118D01*
X916848D01*
X916759Y585100D01*
X915048D01*
Y583600D01*
X915048Y583300D01*
X915048Y582800D01*
Y582400D01*
X916848D01*
X918648D01*
X918648Y583100D01*
X919073Y583282D01*
X920496D01*
X920530Y583111D01*
X920673Y582898D01*
X920886Y582755D01*
X921138Y582705D01*
X922615D01*
X922867Y582755D01*
X923080Y582898D01*
X923223Y583111D01*
X923273Y583363D01*
Y585037D01*
X923223Y585289D01*
X923080Y585502D01*
X922867Y585645D01*
X922615Y585695D01*
D02*
G37*
G36*
X930209Y586364D02*
X929428Y586208D01*
X928767Y585766D01*
X928757Y585752D01*
X925752D01*
X925468Y585695D01*
X924681D01*
X924430Y585645D01*
X924216Y585502D01*
X924073Y585289D01*
X924023Y585037D01*
Y583363D01*
X924073Y583111D01*
X924216Y582898D01*
X924430Y582755D01*
X924681Y582705D01*
X926158D01*
X926410Y582755D01*
X926623Y582897D01*
X928757D01*
X928767Y582882D01*
X929428Y582441D01*
X930209Y582285D01*
X930989Y582441D01*
X931651Y582882D01*
X932093Y583544D01*
X932248Y584325D01*
X932093Y585105D01*
X931651Y585766D01*
X930989Y586208D01*
X930209Y586364D01*
D02*
G37*
G36*
X907448Y580000D02*
X905848D01*
Y579300D01*
X907448D01*
Y580000D01*
D02*
G37*
G36*
X905448D02*
X903848D01*
Y579300D01*
X905448D01*
Y580000D01*
D02*
G37*
G36*
X971184Y586857D02*
X970206Y586728D01*
X969295Y586350D01*
X968512Y585750D01*
X967912Y584967D01*
X967534Y584056D01*
X967406Y583078D01*
X967534Y582100D01*
X967912Y581188D01*
X968512Y580406D01*
X969295Y579805D01*
X970206Y579428D01*
X971184Y579299D01*
X972162Y579428D01*
X973074Y579805D01*
X973856Y580406D01*
X974457Y581188D01*
X974834Y582100D01*
X974963Y583078D01*
X974834Y584056D01*
X974457Y584967D01*
X973856Y585750D01*
X973074Y586350D01*
X972162Y586728D01*
X971184Y586857D01*
D02*
G37*
G36*
X945594D02*
X944616Y586728D01*
X943704Y586350D01*
X942922Y585750D01*
X942321Y584967D01*
X941944Y584056D01*
X941815Y583078D01*
X941944Y582100D01*
X942321Y581188D01*
X942922Y580406D01*
X943704Y579805D01*
X944616Y579428D01*
X945594Y579299D01*
X946572Y579428D01*
X947483Y579805D01*
X948266Y580406D01*
X948866Y581188D01*
X949244Y582100D01*
X949373Y583078D01*
X949244Y584056D01*
X948866Y584967D01*
X948266Y585750D01*
X947483Y586350D01*
X946572Y586728D01*
X945594Y586857D01*
D02*
G37*
G36*
X918648Y582000D02*
X916848D01*
X915048D01*
Y581300D01*
X915048Y580800D01*
Y579300D01*
X916759D01*
X916848Y579282D01*
X920092D01*
X920164Y578920D01*
X920606Y578258D01*
X921268Y577816D01*
X922048Y577661D01*
X922828Y577816D01*
X923490Y578258D01*
X923932Y578920D01*
X924087Y579700D01*
X923932Y580480D01*
X923490Y581142D01*
X922828Y581584D01*
X922048Y581739D01*
X921268Y581584D01*
X920606Y581142D01*
X920590Y581118D01*
X919073D01*
X918648Y581300D01*
X918648Y581618D01*
Y582000D01*
D02*
G37*
G36*
X915348Y578400D02*
Y576800D01*
X916048D01*
Y578400D01*
X915348D01*
D02*
G37*
G36*
X916048Y576400D02*
X915348D01*
Y574800D01*
X916048D01*
Y576400D01*
D02*
G37*
G36*
X888648Y582239D02*
X887868Y582084D01*
X887206Y581642D01*
X886764Y580980D01*
X886609Y580200D01*
X886764Y579420D01*
X887206Y578758D01*
X887731Y578408D01*
Y575992D01*
X887206Y575642D01*
X886764Y574980D01*
X886609Y574200D01*
X886764Y573420D01*
X887206Y572758D01*
X887868Y572316D01*
X888648Y572161D01*
X889428Y572316D01*
X890090Y572758D01*
X890532Y573420D01*
X890687Y574200D01*
X890532Y574980D01*
X890090Y575642D01*
X889566Y575992D01*
Y578408D01*
X890090Y578758D01*
X890532Y579420D01*
X890687Y580200D01*
X890532Y580980D01*
X890090Y581642D01*
X889429Y582084D01*
X888648Y582239D01*
D02*
G37*
G36*
X870815Y587240D02*
X870035Y587084D01*
X869373Y586642D01*
X868931Y585981D01*
X868776Y585200D01*
X868779Y585183D01*
X861548Y577952D01*
X861088Y578198D01*
X861187Y578700D01*
X861032Y579480D01*
X860590Y580142D01*
X859928Y580584D01*
X859148Y580739D01*
X858368Y580584D01*
X857706Y580142D01*
X857356Y579618D01*
X856301D01*
X856266Y579789D01*
X856124Y580002D01*
X855910Y580145D01*
X855658Y580195D01*
X854181D01*
X853930Y580145D01*
X853716Y580002D01*
X853573Y579789D01*
X853523Y579537D01*
Y577863D01*
X853573Y577611D01*
X853716Y577398D01*
X853930Y577255D01*
X854181Y577205D01*
X855658D01*
X855910Y577255D01*
X856124Y577398D01*
X856266Y577611D01*
X856301Y577782D01*
X857356D01*
X857706Y577258D01*
X858368Y576816D01*
X859148Y576661D01*
X859650Y576761D01*
X859896Y576300D01*
X858051Y574455D01*
X857741Y573991D01*
X857633Y573445D01*
X857633Y573445D01*
Y570774D01*
X857618Y570764D01*
X857176Y570103D01*
X857021Y569322D01*
X857024Y569306D01*
X855026Y567308D01*
X854811D01*
X854559Y567257D01*
X854346Y567115D01*
X854203Y566901D01*
X854153Y566649D01*
Y565172D01*
X854203Y564920D01*
X854346Y564707D01*
X854559Y564564D01*
X854811Y564514D01*
X855495D01*
X855648Y564483D01*
X855715D01*
X855715Y564483D01*
X855869Y564514D01*
X856485D01*
X856737Y564564D01*
X856950Y564707D01*
X857093Y564920D01*
X857143Y565172D01*
Y565387D01*
X859043Y567287D01*
X859060Y567283D01*
X859840Y567439D01*
X860502Y567881D01*
X860944Y568542D01*
X861099Y569322D01*
X860944Y570103D01*
X860502Y570764D01*
X860487Y570774D01*
Y572854D01*
X870798Y583165D01*
X870815Y583161D01*
X871390Y583276D01*
X871759Y582946D01*
Y573560D01*
X871686Y573545D01*
X871472Y573403D01*
X871330Y573189D01*
X871280Y572937D01*
Y571263D01*
X871330Y571011D01*
X871472Y570798D01*
X871686Y570655D01*
X871938Y570605D01*
X873415D01*
X873667Y570655D01*
X873880Y570798D01*
X874023Y571011D01*
X874073Y571263D01*
Y572937D01*
X874023Y573189D01*
X873880Y573403D01*
X873667Y573545D01*
X873594Y573560D01*
Y583339D01*
X873524Y583690D01*
X873325Y583988D01*
X872731Y584582D01*
X872854Y585200D01*
X872699Y585981D01*
X872257Y586642D01*
X871595Y587084D01*
X870815Y587240D01*
D02*
G37*
G36*
X883320Y600609D02*
X878976D01*
Y591935D01*
X879721D01*
Y584700D01*
Y576152D01*
X879706Y576142D01*
X879264Y575480D01*
X879109Y574700D01*
X879264Y573920D01*
X879706Y573258D01*
X880368Y572816D01*
X881148Y572661D01*
X881767Y572784D01*
X884999Y569551D01*
X885297Y569352D01*
X885648Y569282D01*
X911107D01*
X911458Y569352D01*
X911756Y569551D01*
X913897Y571692D01*
X914096Y571990D01*
X914166Y572341D01*
Y574334D01*
X914248Y574800D01*
X914666Y574800D01*
X914948D01*
Y576600D01*
Y578400D01*
X914248D01*
X913748Y578400D01*
X912348Y578400D01*
X911848Y578400D01*
X910348Y578400D01*
X909848Y578400D01*
X908348Y578400D01*
X907848Y578400D01*
X906448D01*
Y577518D01*
X901659D01*
X901654Y577543D01*
X901511Y577757D01*
X901297Y577900D01*
X901045Y577950D01*
X899372D01*
X899120Y577900D01*
X898906Y577757D01*
X898763Y577543D01*
X898713Y577291D01*
Y575815D01*
X898763Y575562D01*
X898906Y575349D01*
X899120Y575206D01*
X899372Y575156D01*
X901045D01*
X901297Y575206D01*
X901511Y575349D01*
X901654Y575562D01*
X901678Y575682D01*
X906448D01*
Y574800D01*
X908248Y574800D01*
X908748Y574800D01*
X910148Y574800D01*
X910648Y574800D01*
X912148Y574800D01*
X912331Y574376D01*
Y572721D01*
X910727Y571118D01*
X886028D01*
X883064Y574082D01*
X883187Y574700D01*
X883032Y575480D01*
X882590Y576142D01*
X882576Y576152D01*
Y584700D01*
Y591935D01*
X883320D01*
Y600609D01*
D02*
G37*
G36*
X829480Y568321D02*
X827803D01*
Y566900D01*
X829480D01*
Y568321D01*
D02*
G37*
G36*
X878320Y600609D02*
X873976D01*
Y591935D01*
X874721D01*
Y591006D01*
X874716Y591003D01*
X874573Y590789D01*
X874523Y590537D01*
Y589920D01*
X874492Y589767D01*
X874492Y589767D01*
Y589700D01*
X874508Y589619D01*
X874508Y589617D01*
Y589153D01*
X874508Y589153D01*
X874523Y589079D01*
Y588863D01*
X874573Y588611D01*
X874716Y588398D01*
X874721Y588394D01*
Y581652D01*
X874706Y581642D01*
X874264Y580980D01*
X874109Y580200D01*
X874264Y579420D01*
X874706Y578758D01*
X874721Y578748D01*
Y569352D01*
X874706Y569342D01*
X874264Y568680D01*
X874109Y567900D01*
X874264Y567120D01*
X874706Y566458D01*
X875368Y566016D01*
X876148Y565861D01*
X876928Y566016D01*
X877590Y566458D01*
X878032Y567120D01*
X878187Y567900D01*
X878032Y568680D01*
X877590Y569342D01*
X877575Y569352D01*
Y571057D01*
X877617Y571263D01*
Y572937D01*
X877575Y573143D01*
Y578748D01*
X877590Y578758D01*
X878032Y579420D01*
X878187Y580200D01*
X878032Y580980D01*
X877590Y581642D01*
X877575Y581652D01*
Y588941D01*
X877575Y588941D01*
X877471Y589468D01*
X877575Y589995D01*
Y591935D01*
X878320D01*
Y600609D01*
D02*
G37*
G36*
X829480Y566500D02*
X827803D01*
Y565080D01*
X829480D01*
Y566500D01*
D02*
G37*
G36*
X829605Y564059D02*
X827929D01*
Y562639D01*
X829605D01*
Y564059D01*
D02*
G37*
G36*
Y562239D02*
X827929D01*
Y560818D01*
X829605D01*
Y562239D01*
D02*
G37*
G36*
X882732Y559582D02*
X882351D01*
X882232Y559582D01*
X878520D01*
X878402Y559582D01*
X878020D01*
X877902Y559582D01*
X874190D01*
X874071Y559582D01*
X873690D01*
X873571Y559582D01*
X869859D01*
X869740Y559582D01*
X869359D01*
X869240Y559582D01*
X865409D01*
Y551696D01*
X869240D01*
X869359Y551696D01*
X869740D01*
X869859Y551696D01*
X873571D01*
X873690Y551696D01*
X874071D01*
X874190Y551696D01*
X877902D01*
X878020Y551696D01*
X878402D01*
X878520Y551696D01*
X882232D01*
X882351Y551696D01*
X882732D01*
X882851Y551696D01*
X884507D01*
Y555639D01*
Y559582D01*
X882851D01*
X882732Y559582D01*
D02*
G37*
G36*
X806648Y564381D02*
X805747Y564262D01*
X804908Y563915D01*
X804187Y563362D01*
X803633Y562640D01*
X803286Y561801D01*
X803167Y560900D01*
X803286Y559999D01*
X803633Y559160D01*
X804187Y558439D01*
X804908Y557886D01*
X805747Y557538D01*
X806648Y557419D01*
X807549Y557538D01*
X808389Y557886D01*
X809109Y558439D01*
X809663Y559160D01*
X810010Y559999D01*
X810129Y560900D01*
X810010Y561801D01*
X809663Y562640D01*
X809109Y563362D01*
X808389Y563915D01*
X807549Y564262D01*
X806648Y564381D01*
D02*
G37*
G36*
X829389Y559582D02*
X827614D01*
Y555839D01*
X829389D01*
Y559582D01*
D02*
G37*
G36*
X884907D02*
Y555839D01*
X886682D01*
Y559582D01*
X884907D01*
D02*
G37*
G36*
X886682Y555439D02*
X884907D01*
Y551696D01*
X886682D01*
Y555439D01*
D02*
G37*
G36*
X829389Y555439D02*
X827614D01*
Y551696D01*
X829389D01*
Y555439D01*
D02*
G37*
G36*
X806648Y554381D02*
X805747Y554262D01*
X804908Y553915D01*
X804187Y553362D01*
X803633Y552640D01*
X803286Y551801D01*
X803167Y550900D01*
X803286Y549999D01*
X803633Y549160D01*
X804187Y548439D01*
X804908Y547886D01*
X805747Y547538D01*
X806648Y547419D01*
X807549Y547538D01*
X808389Y547886D01*
X809109Y548439D01*
X809663Y549160D01*
X810010Y549999D01*
X810129Y550900D01*
X810010Y551801D01*
X809663Y552640D01*
X809109Y553362D01*
X808389Y553915D01*
X807549Y554262D01*
X806648Y554381D01*
D02*
G37*
G36*
X796848Y534355D02*
Y531100D01*
X800103D01*
X800010Y531801D01*
X799663Y532641D01*
X799110Y533361D01*
X798389Y533915D01*
X797549Y534262D01*
X796848Y534355D01*
D02*
G37*
G36*
X796448D02*
X795747Y534262D01*
X794908Y533915D01*
X794187Y533361D01*
X793634Y532641D01*
X793286Y531801D01*
X793193Y531100D01*
X796448D01*
Y534355D01*
D02*
G37*
G36*
X806848D02*
Y531100D01*
X810103D01*
X810010Y531801D01*
X809663Y532641D01*
X809109Y533361D01*
X808389Y533915D01*
X807549Y534262D01*
X806848Y534355D01*
D02*
G37*
G36*
X806448D02*
X805747Y534262D01*
X804908Y533915D01*
X804187Y533361D01*
X803633Y532641D01*
X803286Y531801D01*
X803193Y531100D01*
X806448D01*
Y534355D01*
D02*
G37*
G36*
X796448Y530700D02*
X793193D01*
X793286Y529999D01*
X793634Y529160D01*
X794187Y528439D01*
X794908Y527885D01*
X795747Y527538D01*
X796448Y527445D01*
Y530700D01*
D02*
G37*
G36*
X810103Y530700D02*
X806848D01*
Y527445D01*
X807549Y527538D01*
X808389Y527885D01*
X809109Y528439D01*
X809663Y529160D01*
X810010Y529999D01*
X810103Y530700D01*
D02*
G37*
G36*
X806448D02*
X803193D01*
X803286Y529999D01*
X803633Y529160D01*
X804187Y528439D01*
X804908Y527885D01*
X805747Y527538D01*
X806448Y527445D01*
Y530700D01*
D02*
G37*
G36*
X800103Y530700D02*
X796848D01*
Y527445D01*
X797549Y527538D01*
X798389Y527885D01*
X799110Y528439D01*
X799663Y529160D01*
X800010Y529999D01*
X800103Y530700D01*
D02*
G37*
G36*
X882732Y513582D02*
X882351D01*
X882232Y513582D01*
X878520D01*
X878402Y513582D01*
X878020D01*
X877902Y513582D01*
X876246D01*
Y509639D01*
Y505696D01*
X877902D01*
X878020Y505696D01*
X878402D01*
X878520Y505696D01*
X879248D01*
Y502472D01*
X879248Y502471D01*
Y495300D01*
X887048D01*
Y498571D01*
X892177D01*
Y497024D01*
X897111D01*
Y501761D01*
X892177D01*
Y500829D01*
X887048D01*
Y504100D01*
X881505D01*
Y505696D01*
X882232D01*
X882351Y505696D01*
X882732D01*
X882851Y505696D01*
X884507D01*
Y509639D01*
Y513582D01*
X882851D01*
X882732Y513582D01*
D02*
G37*
G36*
X853598D02*
X853217D01*
X853098Y513582D01*
X849387D01*
X849268Y513582D01*
X848887D01*
X848768Y513582D01*
X845056D01*
X844937Y513582D01*
X844556D01*
X844437Y513582D01*
X840725D01*
X840606Y513582D01*
X840225D01*
X840106Y513582D01*
X836395D01*
X836276Y513582D01*
X835894D01*
X835776Y513582D01*
X832064D01*
X831945Y513582D01*
X831564D01*
X831445Y513582D01*
X827614D01*
Y505696D01*
X831445D01*
X831564Y505696D01*
X831945D01*
X832064Y505696D01*
X832721D01*
Y503789D01*
X832703Y503762D01*
X832693Y503713D01*
X832597Y503648D01*
X832597Y503648D01*
X830515Y501566D01*
X829648D01*
X829495Y501536D01*
X828811D01*
X828559Y501486D01*
X828346Y501343D01*
X828203Y501129D01*
X828153Y500877D01*
Y499401D01*
X828203Y499149D01*
X828346Y498935D01*
X828559Y498792D01*
X828811Y498742D01*
X829495D01*
X829648Y498711D01*
X831106D01*
X831106Y498711D01*
X831652Y498820D01*
X832115Y499130D01*
X832191Y499205D01*
X832653Y499014D01*
Y498490D01*
X832703Y498238D01*
X832846Y498024D01*
X833059Y497882D01*
X833311Y497831D01*
X833948D01*
Y499228D01*
X834148D01*
Y499428D01*
X835643D01*
Y499967D01*
X835593Y500219D01*
X835450Y500432D01*
X835237Y500575D01*
X834985Y500625D01*
X834717D01*
X834431Y501125D01*
X834527Y501287D01*
X834694Y501320D01*
X834776Y501375D01*
X834985D01*
X835237Y501425D01*
X835450Y501568D01*
X835593Y501781D01*
X835643Y502034D01*
Y503510D01*
X835593Y503762D01*
X835575Y503789D01*
Y505377D01*
X835894Y505696D01*
X836276D01*
X836721Y505331D01*
Y502411D01*
X836829Y501864D01*
X836844Y501842D01*
X836856Y501781D01*
X836999Y501568D01*
X837050Y501534D01*
X837139Y501401D01*
X837552Y501125D01*
X837554Y501090D01*
X837465Y500625D01*
X837213Y500575D01*
X836999Y500432D01*
X836856Y500219D01*
X836806Y499967D01*
Y499297D01*
X836721Y498867D01*
Y495646D01*
X835213Y494138D01*
X835211Y494136D01*
X833673D01*
Y490973D01*
X837623D01*
Y492511D01*
X839157Y494045D01*
X839467Y494508D01*
X839575Y495054D01*
X839575Y495054D01*
Y498005D01*
X839604Y498024D01*
X839747Y498238D01*
X839797Y498490D01*
Y499967D01*
X839747Y500219D01*
X839604Y500432D01*
X839390Y500575D01*
X839138Y500625D01*
X839091D01*
X839026Y500712D01*
X839114Y501348D01*
X839138Y501375D01*
X839390Y501425D01*
X839604Y501568D01*
X839747Y501781D01*
X839797Y502034D01*
Y503510D01*
X839747Y503762D01*
X839604Y503976D01*
X839575Y503995D01*
Y505342D01*
X839929Y505696D01*
X840606Y505696D01*
X840725Y505696D01*
X844437D01*
X844556Y505696D01*
X844937D01*
X845056Y505696D01*
X846882D01*
Y493300D01*
X846311D01*
X846059Y493250D01*
X845846Y493107D01*
X845703Y492893D01*
X845653Y492641D01*
Y491165D01*
X845703Y490913D01*
X845846Y490699D01*
X846059Y490556D01*
X846311Y490506D01*
X847985D01*
X848237Y490556D01*
X848450Y490699D01*
X848593Y490913D01*
X848643Y491165D01*
Y492400D01*
X848648Y492421D01*
Y505457D01*
X848804Y505613D01*
X849351Y505610D01*
X849648Y505304D01*
Y492421D01*
X849653Y492400D01*
Y491165D01*
X849703Y490913D01*
X849846Y490699D01*
X850059Y490556D01*
X850311Y490506D01*
X851985D01*
X852237Y490556D01*
X852450Y490699D01*
X852593Y490913D01*
X852643Y491165D01*
Y492641D01*
X852593Y492893D01*
X852450Y493107D01*
X852237Y493250D01*
X851985Y493300D01*
X851414D01*
Y505696D01*
X853098D01*
X853217Y505696D01*
X853646D01*
X854146Y505523D01*
Y503645D01*
X854146Y503645D01*
X854255Y503098D01*
X854564Y502635D01*
X856636Y500563D01*
X856764Y499920D01*
X857206Y499258D01*
X857868Y498816D01*
X858648Y498661D01*
X859428Y498816D01*
X860090Y499258D01*
X860532Y499920D01*
X860687Y500700D01*
X860532Y501480D01*
X860090Y502142D01*
X859428Y502584D01*
X858648Y502739D01*
X858523Y502714D01*
X857001Y504236D01*
Y505696D01*
X857548D01*
Y513582D01*
X853717D01*
X853598Y513582D01*
D02*
G37*
G36*
X884907Y513582D02*
Y509839D01*
X886682D01*
Y513582D01*
X884907D01*
D02*
G37*
G36*
X886682Y509439D02*
X884907D01*
Y505696D01*
X886682D01*
Y509439D01*
D02*
G37*
G36*
X869359Y513582D02*
Y513582D01*
X865409D01*
Y505696D01*
X868150D01*
X868341Y505234D01*
X867753Y504646D01*
X867451Y504676D01*
X867237Y504818D01*
X866985Y504869D01*
X865312D01*
X865059Y504818D01*
X864846Y504676D01*
X864703Y504462D01*
X864653Y504210D01*
Y502734D01*
X864703Y502481D01*
X864846Y502268D01*
X865059Y502125D01*
X865312Y502075D01*
X866985D01*
X867237Y502125D01*
X867451Y502268D01*
X867593Y502481D01*
X867643Y502734D01*
Y502981D01*
X867688D01*
X867941Y503031D01*
X868157Y503175D01*
X868286Y503304D01*
X868748Y503113D01*
Y501127D01*
X867454D01*
X867451Y501132D01*
X867237Y501275D01*
X866985Y501325D01*
X866368D01*
X866215Y501356D01*
X866215Y501356D01*
X866148D01*
X865995Y501325D01*
X865312D01*
X865059Y501275D01*
X864846Y501132D01*
X864703Y500919D01*
X864653Y500667D01*
Y499190D01*
X864703Y498938D01*
X864721Y498912D01*
Y497045D01*
X864528D01*
Y493608D01*
X864528Y493292D01*
X864528Y492792D01*
Y491432D01*
X866148D01*
X867768D01*
Y492792D01*
X867769Y493108D01*
X867768Y493608D01*
Y497045D01*
X867575D01*
Y498273D01*
X868748D01*
Y495300D01*
X876548D01*
Y504100D01*
X869735D01*
X869544Y504562D01*
X870677Y505696D01*
X873571D01*
X873690Y505696D01*
X874071D01*
X874190Y505696D01*
X875846D01*
Y509639D01*
Y513582D01*
X874190D01*
X874071Y513582D01*
X873690D01*
X873571Y513582D01*
X869859D01*
X869740Y513582D01*
Y513582D01*
X869359D01*
D02*
G37*
G36*
X905379Y507667D02*
X900848D01*
Y505400D01*
X905379D01*
Y507667D01*
D02*
G37*
G36*
X900448D02*
X895917D01*
Y505400D01*
X900448D01*
Y507667D01*
D02*
G37*
G36*
X905379Y505000D02*
X900848D01*
Y502733D01*
X905379D01*
Y505000D01*
D02*
G37*
G36*
X900448D02*
X895917D01*
Y502733D01*
X900448D01*
Y505000D01*
D02*
G37*
G36*
X835643Y499028D02*
X834348D01*
Y497831D01*
X834985D01*
X835237Y497882D01*
X835450Y498024D01*
X835593Y498238D01*
X835643Y498490D01*
Y499028D01*
D02*
G37*
G36*
X905379Y496053D02*
X900848D01*
Y493786D01*
X905379D01*
Y496053D01*
D02*
G37*
G36*
X900448D02*
X895917D01*
Y493786D01*
X900448D01*
Y496053D01*
D02*
G37*
G36*
X905379Y493386D02*
X900848D01*
Y491119D01*
X905379D01*
Y493386D01*
D02*
G37*
G36*
X900448D02*
X895917D01*
Y491119D01*
X900448D01*
Y493386D01*
D02*
G37*
G36*
X829648Y498023D02*
X829495Y497993D01*
X828811D01*
X828559Y497942D01*
X828346Y497800D01*
X828203Y497586D01*
X828153Y497334D01*
Y495857D01*
X828203Y495605D01*
X828221Y495579D01*
Y493590D01*
X828206Y493581D01*
X827764Y492919D01*
X827609Y492139D01*
X827764Y491359D01*
X828206Y490697D01*
X828868Y490255D01*
X829648Y490100D01*
X830428Y490255D01*
X831090Y490697D01*
X831532Y491359D01*
X831687Y492139D01*
X831532Y492919D01*
X831090Y493581D01*
X831075Y493590D01*
Y495579D01*
X831093Y495605D01*
X831143Y495857D01*
Y497334D01*
X831093Y497586D01*
X830951Y497800D01*
X830737Y497942D01*
X830485Y497993D01*
X829801D01*
X829648Y498023D01*
D02*
G37*
G36*
X867768Y491032D02*
X866348D01*
Y489355D01*
X867768D01*
Y491032D01*
D02*
G37*
G36*
X865948D02*
X864528D01*
Y489355D01*
X865948D01*
Y491032D01*
D02*
G37*
G36*
X837623Y488427D02*
X835848D01*
Y487046D01*
X837623D01*
Y488427D01*
D02*
G37*
G36*
X835448D02*
X833673D01*
Y487046D01*
X835448D01*
Y488427D01*
D02*
G37*
G36*
X837623Y486646D02*
X835848D01*
Y485265D01*
X837623D01*
Y486646D01*
D02*
G37*
G36*
X835448D02*
X833673D01*
Y485265D01*
X835448D01*
Y486646D01*
D02*
G37*
G36*
X867442Y477507D02*
X865667D01*
Y475339D01*
X867442D01*
Y477507D01*
D02*
G37*
G36*
X865267D02*
X863492D01*
Y475339D01*
X865267D01*
Y477507D01*
D02*
G37*
G36*
X834371D02*
X832596D01*
Y475339D01*
X834371D01*
Y477507D01*
D02*
G37*
G36*
X832196D02*
X830421D01*
Y475339D01*
X832196D01*
Y477507D01*
D02*
G37*
G36*
X867442Y474939D02*
X865667D01*
Y472770D01*
X867442D01*
Y474939D01*
D02*
G37*
G36*
X865267D02*
X863492D01*
Y472770D01*
X865267D01*
Y474939D01*
D02*
G37*
G36*
X834371Y474939D02*
X832596D01*
Y472770D01*
X834371D01*
Y474939D01*
D02*
G37*
G36*
X832196D02*
X830421D01*
Y472770D01*
X832196D01*
Y474939D01*
D02*
G37*
G36*
X859854Y469525D02*
X859204Y469439D01*
X858412Y469111D01*
X857733Y468590D01*
X857211Y467910D01*
X857017Y467441D01*
X856517Y467540D01*
Y469326D01*
X855529D01*
Y466269D01*
Y463211D01*
X856517D01*
Y464997D01*
X857017Y465097D01*
X857211Y464628D01*
X857733Y463948D01*
X858412Y463426D01*
X859204Y463098D01*
X859854Y463013D01*
Y466269D01*
Y469525D01*
D02*
G37*
G36*
X860254D02*
Y466469D01*
X863310D01*
X863224Y467118D01*
X862896Y467910D01*
X862375Y468590D01*
X861695Y469111D01*
X860903Y469439D01*
X860254Y469525D01*
D02*
G37*
G36*
X840168D02*
X839519Y469439D01*
X838727Y469111D01*
X838048Y468590D01*
X837526Y467910D01*
X837198Y467118D01*
X837113Y466469D01*
X840168D01*
Y469525D01*
D02*
G37*
G36*
X863310Y466069D02*
X860254D01*
Y463013D01*
X860903Y463098D01*
X861695Y463426D01*
X862375Y463948D01*
X862896Y464628D01*
X863224Y465419D01*
X863310Y466069D01*
D02*
G37*
G36*
X840168D02*
X837113D01*
X837198Y465419D01*
X837526Y464628D01*
X838048Y463948D01*
X838727Y463426D01*
X839519Y463098D01*
X840168Y463013D01*
Y466069D01*
D02*
G37*
G36*
X816745Y463507D02*
X814970D01*
Y461339D01*
X816745D01*
Y463507D01*
D02*
G37*
G36*
X814570D02*
X812795D01*
Y461339D01*
X814570D01*
Y463507D01*
D02*
G37*
G36*
X816745Y460939D02*
X814970D01*
Y458770D01*
X816745D01*
Y460939D01*
D02*
G37*
G36*
X814570D02*
X812795D01*
Y458770D01*
X814570D01*
Y460939D01*
D02*
G37*
G36*
X849627Y459779D02*
X846474D01*
Y455839D01*
X849627D01*
Y459779D01*
D02*
G37*
G36*
X846074D02*
X842921D01*
Y455839D01*
X846074D01*
Y459779D01*
D02*
G37*
G36*
X861428Y455439D02*
X858866D01*
Y451499D01*
X861428D01*
Y455439D01*
D02*
G37*
G36*
X857501Y455439D02*
X854348D01*
Y451499D01*
X857501D01*
Y455439D01*
D02*
G37*
G36*
X853948D02*
X850795D01*
Y451499D01*
X853948D01*
Y455439D01*
D02*
G37*
G36*
X849627Y455439D02*
X846474D01*
Y451499D01*
X849627D01*
Y455439D01*
D02*
G37*
G36*
X846074D02*
X842921D01*
Y451499D01*
X846074D01*
Y455439D01*
D02*
G37*
G36*
X841556Y455439D02*
X838994D01*
Y451499D01*
X841556D01*
Y455439D01*
D02*
G37*
G36*
X836232Y455439D02*
X834117D01*
Y453769D01*
X834293Y452883D01*
X834795Y452132D01*
X835546Y451630D01*
X836032Y451534D01*
Y451499D01*
X836232Y451476D01*
Y455439D01*
D02*
G37*
G36*
X866305Y455439D02*
X864191D01*
Y451476D01*
X864391Y451499D01*
Y451534D01*
X864876Y451630D01*
X865627Y452132D01*
X866129Y452883D01*
X866305Y453769D01*
Y455439D01*
D02*
G37*
G36*
X974642Y455598D02*
X969843D01*
Y446800D01*
X974642D01*
Y455598D01*
D02*
G37*
%LPD*%
G36*
X959846Y796415D02*
X959979Y796404D01*
X960112Y796387D01*
X960244Y796362D01*
X960374Y796331D01*
X960503Y796293D01*
X960629Y796248D01*
X960753Y796197D01*
X960874Y796139D01*
X960991Y796075D01*
X961106Y796005D01*
X961216Y795929D01*
X961322Y795848D01*
X961424Y795761D01*
X961522Y795669D01*
X961614Y795572D01*
X961701Y795470D01*
X961782Y795363D01*
X961858Y795253D01*
X961928Y795139D01*
X961992Y795021D01*
X962050Y794900D01*
X962101Y794776D01*
X962146Y794650D01*
X962184Y794521D01*
X962215Y794391D01*
X962239Y794259D01*
X962257Y794127D01*
X962267Y793993D01*
X962271Y793859D01*
Y784804D01*
X962267Y784670D01*
X962257Y784537D01*
X962239Y784404D01*
X962215Y784272D01*
X962184Y784142D01*
X962146Y784013D01*
X962101Y783887D01*
X962050Y783763D01*
X961992Y783642D01*
X961928Y783525D01*
X961858Y783410D01*
X961782Y783300D01*
X961701Y783193D01*
X961614Y783092D01*
X961522Y782995D01*
X961424Y782902D01*
X961322Y782815D01*
X961216Y782734D01*
X961106Y782658D01*
X960991Y782588D01*
X960874Y782524D01*
X960753Y782466D01*
X960629Y782415D01*
X960503Y782370D01*
X960374Y782332D01*
X960244Y782301D01*
X960112Y782276D01*
X959979Y782259D01*
X959846Y782248D01*
X959712Y782245D01*
X959578Y782248D01*
X959444Y782259D01*
X959312Y782276D01*
X959180Y782301D01*
X959050Y782332D01*
X958921Y782370D01*
X958795Y782415D01*
X958671Y782466D01*
X958550Y782524D01*
X958432Y782588D01*
X958318Y782658D01*
X958208Y782734D01*
X958101Y782815D01*
X958000Y782902D01*
X957902Y782995D01*
X957810Y783092D01*
X957723Y783193D01*
X957642Y783300D01*
X957566Y783410D01*
X957496Y783525D01*
X957432Y783642D01*
X957374Y783763D01*
X957323Y783887D01*
X957278Y784013D01*
X957240Y784142D01*
X957209Y784272D01*
X957184Y784404D01*
X957167Y784537D01*
X957156Y784670D01*
X957153Y784804D01*
Y793859D01*
X957156Y793993D01*
X957167Y794127D01*
X957184Y794259D01*
X957209Y794391D01*
X957240Y794521D01*
X957278Y794650D01*
X957323Y794776D01*
X957374Y794900D01*
X957432Y795021D01*
X957496Y795139D01*
X957566Y795253D01*
X957642Y795363D01*
X957723Y795470D01*
X957810Y795572D01*
X957902Y795669D01*
X958000Y795761D01*
X958101Y795848D01*
X958208Y795929D01*
X958318Y796005D01*
X958432Y796075D01*
X958550Y796139D01*
X958671Y796197D01*
X958795Y796248D01*
X958921Y796293D01*
X959050Y796331D01*
X959180Y796362D01*
X959312Y796387D01*
X959444Y796404D01*
X959578Y796415D01*
X959712Y796418D01*
X959846Y796415D01*
D02*
G37*
G36*
X923468D02*
X923602Y796404D01*
X923734Y796387D01*
X923866Y796362D01*
X923996Y796331D01*
X924125Y796293D01*
X924251Y796248D01*
X924375Y796197D01*
X924496Y796139D01*
X924613Y796075D01*
X924728Y796005D01*
X924838Y795929D01*
X924944Y795848D01*
X925046Y795761D01*
X925144Y795669D01*
X925236Y795572D01*
X925323Y795470D01*
X925404Y795363D01*
X925480Y795253D01*
X925550Y795139D01*
X925614Y795021D01*
X925672Y794900D01*
X925723Y794776D01*
X925768Y794650D01*
X925806Y794521D01*
X925837Y794391D01*
X925861Y794259D01*
X925879Y794127D01*
X925889Y793993D01*
X925893Y793859D01*
Y784804D01*
X925889Y784670D01*
X925879Y784537D01*
X925861Y784404D01*
X925837Y784272D01*
X925806Y784142D01*
X925768Y784013D01*
X925723Y783887D01*
X925672Y783763D01*
X925614Y783642D01*
X925550Y783525D01*
X925480Y783410D01*
X925404Y783300D01*
X925323Y783193D01*
X925236Y783092D01*
X925144Y782995D01*
X925046Y782902D01*
X924944Y782815D01*
X924838Y782734D01*
X924728Y782658D01*
X924613Y782588D01*
X924496Y782524D01*
X924375Y782466D01*
X924251Y782415D01*
X924125Y782370D01*
X923996Y782332D01*
X923866Y782301D01*
X923734Y782276D01*
X923602Y782259D01*
X923468Y782248D01*
X923334Y782245D01*
X923200Y782248D01*
X923067Y782259D01*
X922934Y782276D01*
X922802Y782301D01*
X922672Y782332D01*
X922543Y782370D01*
X922417Y782415D01*
X922293Y782466D01*
X922172Y782524D01*
X922054Y782588D01*
X921940Y782658D01*
X921830Y782734D01*
X921723Y782815D01*
X921622Y782902D01*
X921525Y782995D01*
X921432Y783092D01*
X921345Y783193D01*
X921264Y783300D01*
X921188Y783410D01*
X921118Y783525D01*
X921054Y783642D01*
X920996Y783763D01*
X920945Y783887D01*
X920900Y784013D01*
X920862Y784142D01*
X920831Y784272D01*
X920806Y784404D01*
X920789Y784537D01*
X920778Y784670D01*
X920775Y784804D01*
Y793859D01*
X920778Y793993D01*
X920789Y794127D01*
X920806Y794259D01*
X920831Y794391D01*
X920862Y794521D01*
X920900Y794650D01*
X920945Y794776D01*
X920996Y794900D01*
X921054Y795021D01*
X921118Y795139D01*
X921188Y795253D01*
X921264Y795363D01*
X921345Y795470D01*
X921432Y795572D01*
X921525Y795669D01*
X921622Y795761D01*
X921723Y795848D01*
X921830Y795929D01*
X921940Y796005D01*
X922054Y796075D01*
X922172Y796139D01*
X922293Y796197D01*
X922417Y796248D01*
X922543Y796293D01*
X922672Y796331D01*
X922802Y796362D01*
X922934Y796387D01*
X923067Y796404D01*
X923200Y796415D01*
X923334Y796418D01*
X923468Y796415D01*
D02*
G37*
G36*
X803766Y602813D02*
X803633Y602640D01*
X803286Y601801D01*
X803167Y600900D01*
X803286Y599999D01*
X803633Y599160D01*
X804187Y598439D01*
X804281Y598366D01*
X804111Y597866D01*
X802697D01*
X802346Y597797D01*
X802048Y597598D01*
X798372Y593922D01*
X797549Y594262D01*
X796648Y594381D01*
X795747Y594262D01*
X794908Y593915D01*
X794187Y593362D01*
X794124Y593280D01*
X793624Y593450D01*
Y598350D01*
X794124Y598520D01*
X794187Y598439D01*
X794908Y597886D01*
X795747Y597538D01*
X796648Y597419D01*
X797549Y597538D01*
X798389Y597886D01*
X799110Y598439D01*
X799663Y599160D01*
X800010Y599999D01*
X800090Y600601D01*
X800466D01*
X800817Y600670D01*
X801115Y600869D01*
X803389Y603143D01*
X803766Y602813D01*
D02*
G37*
G36*
X830847Y603094D02*
Y603037D01*
X837959D01*
X838075Y602880D01*
X837824Y602380D01*
X830847D01*
Y600031D01*
X830449D01*
X830098Y599961D01*
X829800Y599762D01*
X810587Y580549D01*
X810114Y580783D01*
X810129Y580900D01*
X810010Y581801D01*
X809670Y582624D01*
X830346Y603301D01*
X830847Y603094D01*
D02*
G37*
G36*
X805554Y584182D02*
X804908Y583915D01*
X804187Y583361D01*
X803633Y582641D01*
X803286Y581801D01*
X803167Y580900D01*
X803286Y579999D01*
X803633Y579160D01*
X804187Y578439D01*
X804908Y577885D01*
X805747Y577538D01*
X806648Y577419D01*
X806766Y577435D01*
X806999Y576961D01*
X806038Y575999D01*
X805242D01*
X804891Y575929D01*
X804593Y575731D01*
X800680Y571818D01*
X800004D01*
X799663Y572641D01*
X799110Y573361D01*
X798389Y573915D01*
X797549Y574262D01*
X796648Y574381D01*
X795747Y574262D01*
X794908Y573915D01*
X794187Y573361D01*
X794124Y573280D01*
X793624Y573450D01*
Y578350D01*
X794124Y578520D01*
X794187Y578439D01*
X794908Y577885D01*
X795747Y577538D01*
X796648Y577419D01*
X797549Y577538D01*
X798389Y577885D01*
X799110Y578439D01*
X799663Y579160D01*
X800010Y579999D01*
X800099Y580675D01*
X800392D01*
X800743Y580745D01*
X801041Y580944D01*
X804779Y584682D01*
X805455D01*
X805554Y584182D01*
D02*
G37*
D14*
X834088Y599113D02*
X835184Y600209D01*
X834559Y604584D02*
X835184Y605209D01*
X806418Y575082D02*
X830449Y599113D01*
X806648Y580900D02*
X830332Y604584D01*
X835184Y605209D02*
X837349D01*
X830332Y604584D02*
X834559D01*
X830449Y599113D02*
X834088D01*
X835184Y600209D02*
X836876D01*
X851148Y565911D02*
Y584290D01*
X979665Y732967D02*
X980248Y732384D01*
X910671Y630209D02*
X940847D01*
X902113D02*
X910671D01*
X821648Y654200D02*
X823920Y651928D01*
X916148Y666732D02*
X920117D01*
X923290Y669905D01*
X910148Y666200D02*
X915617D01*
X916148Y666732D01*
X823920Y651928D02*
X827148D01*
X973842Y739877D02*
X979665Y734054D01*
X972767Y740558D02*
Y740952D01*
X973448Y739877D02*
X973842D01*
X972767Y740558D02*
X973448Y739877D01*
X979665Y732967D02*
Y734054D01*
X980148Y724700D02*
X980248Y724800D01*
Y729285D01*
X959237Y719958D02*
X965050D01*
X953423D02*
X959237D01*
X917448Y756581D02*
X925598Y764731D01*
X917448Y736819D02*
X922710Y731557D01*
X917448Y736819D02*
Y756581D01*
X935139Y765258D02*
Y765545D01*
X935139Y765545D01*
X934612Y764731D02*
X935139Y765258D01*
X935139Y765743D02*
X935618Y766221D01*
X925598Y764731D02*
X934612D01*
X935139Y765545D02*
Y765743D01*
X935618Y766221D02*
Y767009D01*
X929757Y735109D02*
X929957Y734909D01*
X929617Y735249D02*
X929757Y735109D01*
X929957Y734909D02*
X934732D01*
X936602Y736684D02*
Y736779D01*
X936333Y736510D02*
X936427D01*
X934732Y734909D02*
X934826D01*
X936427Y736510D02*
X936602Y736684D01*
X935118Y735294D02*
X936333Y736510D01*
X935118Y735200D02*
Y735294D01*
X934826Y734909D02*
X935118Y735200D01*
X936602Y736779D02*
X938570D01*
X930134Y728117D02*
X930233D01*
X930717Y728602D02*
Y728700D01*
X930233Y728117D02*
X930717Y728602D01*
X932989Y730972D02*
X934732D01*
X930717Y728700D02*
X932989Y730972D01*
X958540Y729456D02*
X959024Y728972D01*
Y728873D02*
Y728972D01*
X960459Y727438D02*
X965050D01*
X958442Y729456D02*
X958540D01*
X959024Y728873D02*
X960459Y727438D01*
X958442Y732999D02*
X969027D01*
X948373D02*
X958442D01*
X948314Y732940D02*
X948373Y732999D01*
X948409Y725066D02*
X948584Y724892D01*
X948314Y725066D02*
X948409D01*
X948584Y724797D02*
Y724892D01*
Y724797D02*
X953423Y719958D01*
X948314Y727035D02*
X948387Y726962D01*
X948886D02*
X951648Y724200D01*
X948387Y726962D02*
X948886D01*
X949593Y728200D02*
X953648D01*
X948314Y729003D02*
X948387Y728931D01*
X948862D02*
X949593Y728200D01*
X948387Y728931D02*
X948862D01*
X951648Y724200D02*
X955648D01*
X900069Y576413D02*
X900209Y576553D01*
X904455Y584200D02*
X905648D01*
X900333Y584200D02*
X904455D01*
X904455Y584200D01*
X905648Y582200D02*
Y584200D01*
X907348Y587800D02*
X909248D01*
X900209Y576553D02*
X900256Y576600D01*
X907348D01*
X900209Y584076D02*
X900333Y584200D01*
X916848Y580200D02*
X921007D01*
X827526Y461139D02*
X842251D01*
X844724Y463611D02*
X844806D01*
X845093Y463899D01*
Y465769D01*
X842251Y461139D02*
X844724Y463611D01*
X954328Y656295D02*
Y656590D01*
X944332Y626724D02*
Y627019D01*
X802632Y674861D02*
X803313Y675543D01*
X801634Y674861D02*
X802632D01*
X953848Y657070D02*
X954328Y656590D01*
X953553Y657070D02*
X953848D01*
X949423Y661200D02*
X953553Y657070D01*
X912148Y661200D02*
X949423D01*
X940847Y630209D02*
X943553Y627503D01*
X943848D01*
X944332Y627019D01*
X948848Y626239D02*
X949332Y626724D01*
X944288Y621044D02*
X944671Y621427D01*
X948848Y624309D02*
Y626239D01*
X945966Y621427D02*
X948848Y624309D01*
X944671Y621427D02*
X945966D01*
X897243Y615209D02*
X902113D01*
X893748Y600653D02*
Y611714D01*
X893820Y599540D02*
Y600582D01*
Y599540D02*
X900520Y592840D01*
X893748Y600653D02*
X893820Y600582D01*
X895148Y601233D02*
X895220Y601161D01*
Y600120D02*
X901100Y594240D01*
X893748Y611714D02*
X897243Y615209D01*
X895220Y600120D02*
Y601161D01*
X901963Y610358D02*
X902113Y610209D01*
X895148Y608245D02*
X897261Y610358D01*
X895148Y601233D02*
Y608245D01*
X897261Y610358D02*
X901963D01*
X843648Y572159D02*
Y572700D01*
X842648Y565911D02*
Y571159D01*
X843648Y572159D01*
X827526Y461139D02*
Y467322D01*
X827148Y467700D02*
X827526Y467322D01*
X837349Y605209D02*
X840648Y601909D01*
X836876Y600209D02*
X838148Y598937D01*
X908881Y592840D02*
X911248Y590473D01*
X900520Y592840D02*
X908881D01*
X911248Y587800D02*
Y590473D01*
X915148Y587800D02*
Y589573D01*
X910481Y594240D02*
X915148Y589573D01*
X901100Y594240D02*
X910481D01*
X801648Y666381D02*
X802315Y665714D01*
X803299D01*
X800248Y673476D02*
X801634Y674861D01*
X800248Y667795D02*
Y673476D01*
X801648Y666381D02*
Y666395D01*
X800248Y667795D02*
X801648Y666395D01*
X930617Y655700D02*
X939005D01*
X939332Y656027D01*
X830332Y655113D02*
X835087D01*
X827731Y652413D02*
Y652511D01*
X827246Y651928D02*
X827731Y652413D01*
X827148Y651928D02*
X827246D01*
X835087Y655113D02*
X835184Y655209D01*
X827731Y652511D02*
X830332Y655113D01*
X840648Y594790D02*
Y601909D01*
X847148Y565911D02*
Y586200D01*
X838148Y595200D02*
X847148Y586200D01*
X840648Y594790D02*
X851148Y584290D01*
X838148Y595200D02*
Y598937D01*
X850880Y596004D02*
X851148Y596272D01*
X850880Y588932D02*
Y596004D01*
X916848Y584200D02*
X921876D01*
X796648Y610900D02*
X800599Y614851D01*
X834559Y624584D02*
X835184Y625209D01*
X830332Y624584D02*
X834559D01*
X834088Y629113D02*
X835184Y630209D01*
X830449Y629113D02*
X834088D01*
X800466Y601518D02*
X805897Y606949D01*
X808285D01*
X797266Y601518D02*
X800466D01*
X834559Y634584D02*
X835184Y635209D01*
X808285Y606949D02*
X830449Y629113D01*
X796648Y600900D02*
X797266Y601518D01*
X830332Y634584D02*
X834559D01*
X806648Y610900D02*
X830332Y634584D01*
X806648Y600900D02*
X830332Y624584D01*
X796648Y590900D02*
X802697Y596949D01*
X808285D01*
X834088Y619113D02*
X835184Y620209D01*
X808285Y596949D02*
X830449Y619113D01*
X834088D01*
X806648Y590900D02*
X830332Y614584D01*
X834559D02*
X835184Y615209D01*
X830332Y614584D02*
X834559D01*
X834088Y609113D02*
X835184Y610209D01*
X830449Y609113D02*
X834088D01*
X796648Y580900D02*
X797341Y581593D01*
X800392D01*
X804399Y585600D01*
X806936D02*
X830449Y609113D01*
X804399Y585600D02*
X806936D01*
X796648Y570900D02*
X801060D01*
X805242Y575082D01*
X806418D01*
X841148Y575200D02*
X843648Y572700D01*
X806648Y570900D02*
X810948Y575200D01*
X841148D01*
X854920Y578700D02*
X859148D01*
X870815Y585200D02*
X872676Y583339D01*
Y572198D02*
Y583339D01*
X891148Y589200D02*
X891148Y589200D01*
X891148Y589200D02*
Y596272D01*
X881148Y574700D02*
X885648Y570200D01*
X913248Y572341D02*
Y576600D01*
X885648Y570200D02*
X911107D01*
X913248Y572341D01*
X888648Y580200D02*
X888648Y580200D01*
X888648Y574200D02*
Y580200D01*
X921007Y580200D02*
X921507Y579700D01*
X922048D01*
X800599Y622251D02*
X818557Y640209D01*
X835184D01*
X800599Y614851D02*
Y622251D01*
X971243Y448200D02*
X973242D01*
X972242D01*
Y454198D01*
X971243Y453198D01*
D17*
X871715Y507670D02*
Y509639D01*
X867688Y503643D02*
X871715Y507670D01*
X866148Y503472D02*
X866320Y503643D01*
X867688D01*
D20*
X944119Y626510D02*
X944332Y626724D01*
D25*
X871494Y741736D02*
D03*
Y745279D02*
D03*
X921254Y727004D02*
D03*
Y723461D02*
D03*
X827148Y651928D02*
D03*
Y655472D02*
D03*
X930134Y724574D02*
D03*
Y728117D02*
D03*
X940648Y718743D02*
D03*
Y715200D02*
D03*
X958442Y732999D02*
D03*
Y729456D02*
D03*
X980248Y729285D02*
D03*
Y732829D02*
D03*
X900209Y580096D02*
D03*
Y576553D02*
D03*
X851148Y491903D02*
D03*
Y488360D02*
D03*
X847148Y491903D02*
D03*
Y488360D02*
D03*
X842648Y562367D02*
D03*
Y565911D02*
D03*
X847148Y562367D02*
D03*
Y565911D02*
D03*
X838301Y502772D02*
D03*
Y499228D02*
D03*
X851148Y565911D02*
D03*
Y562367D02*
D03*
X855648D02*
D03*
Y565911D02*
D03*
X866148Y503472D02*
D03*
Y499928D02*
D03*
X834148Y499228D02*
D03*
Y502772D02*
D03*
X844451Y722909D02*
D03*
Y719365D02*
D03*
X943398Y744472D02*
D03*
Y740928D02*
D03*
X939648Y744472D02*
D03*
Y740928D02*
D03*
X829648Y496596D02*
D03*
Y500139D02*
D03*
D26*
X841695Y737011D02*
D03*
X851144Y740751D02*
D03*
Y733271D02*
D03*
D27*
X862286Y739964D02*
D03*
X858546Y750987D02*
D03*
X866026D02*
D03*
D28*
X769148Y704113D02*
D03*
Y693287D02*
D03*
Y674873D02*
D03*
Y685700D02*
D03*
D29*
X835648Y486846D02*
D03*
Y492554D02*
D03*
D30*
X910671Y630209D02*
D03*
X946400Y761700D02*
D03*
X957900Y749700D02*
D03*
X944400Y715200D02*
D03*
X947400Y743200D02*
D03*
X921900Y655700D02*
D03*
X896900Y592200D02*
D03*
X884400Y562700D02*
D03*
X810400Y460700D02*
D03*
X831400Y480700D02*
D03*
X865400D02*
D03*
X814400Y665700D02*
D03*
X821400Y678700D02*
D03*
X851400Y705700D02*
D03*
X773959Y761598D02*
D03*
X762148Y706480D02*
D03*
Y674984D02*
D03*
X776148Y685700D02*
D03*
X821648Y654200D02*
D03*
X812657Y645191D02*
D03*
X910148Y666200D02*
D03*
X887148Y490200D02*
D03*
X888648Y485700D02*
D03*
X893648D02*
D03*
X898148D02*
D03*
X902648D02*
D03*
X907148D02*
D03*
X912148D02*
D03*
Y490200D02*
D03*
Y494700D02*
D03*
Y499200D02*
D03*
Y503700D02*
D03*
Y508200D02*
D03*
Y513200D02*
D03*
X907148D02*
D03*
X902648D02*
D03*
X898148D02*
D03*
X893648D02*
D03*
X837148Y587700D02*
D03*
X791648Y636700D02*
D03*
X980148Y724700D02*
D03*
X959237Y719958D02*
D03*
X774648Y635200D02*
D03*
X834648Y710200D02*
D03*
X789648Y719070D02*
D03*
X929735Y744574D02*
D03*
X929735Y749806D02*
D03*
X953648Y728200D02*
D03*
X952648Y715200D02*
D03*
X958648D02*
D03*
X955648Y724200D02*
D03*
X930209Y584325D02*
D03*
X833648Y572700D02*
D03*
X829648Y492139D02*
D03*
X910648Y625200D02*
D03*
X927021Y636078D02*
D03*
X930230Y716700D02*
D03*
X944288Y621044D02*
D03*
X843648Y572700D02*
D03*
X827148Y467700D02*
D03*
X814287Y660728D02*
D03*
X788875Y660720D02*
D03*
X858648Y500700D02*
D03*
X850880Y588932D02*
D03*
X788875Y665680D02*
D03*
X789148Y694700D02*
D03*
X859148Y578700D02*
D03*
X876148Y580200D02*
D03*
Y567900D02*
D03*
X870815Y585200D02*
D03*
X868148Y589700D02*
D03*
X859060Y569322D02*
D03*
X886148Y589200D02*
D03*
X892148Y584700D02*
D03*
X891148Y589200D02*
D03*
X881148Y574700D02*
D03*
X888648Y580200D02*
D03*
X888648Y574200D02*
D03*
X922048Y579700D02*
D03*
X809657Y650191D02*
D03*
X916648Y645200D02*
D03*
X912148Y661200D02*
D03*
X925911Y650846D02*
D03*
X913350Y649902D02*
D03*
X924648Y646200D02*
D03*
D31*
X941523Y729987D02*
D03*
D32*
X948314Y734909D02*
D03*
Y732940D02*
D03*
Y730972D02*
D03*
Y729003D02*
D03*
Y727035D02*
D03*
Y725066D02*
D03*
X934732D02*
D03*
Y727035D02*
D03*
Y729003D02*
D03*
Y730972D02*
D03*
Y732940D02*
D03*
Y734909D02*
D03*
D33*
X946444Y723196D02*
D03*
X944476D02*
D03*
X942507D02*
D03*
X940539D02*
D03*
X938570D02*
D03*
X936602D02*
D03*
Y736779D02*
D03*
X938570D02*
D03*
X940539D02*
D03*
X942507D02*
D03*
X944476D02*
D03*
X946444D02*
D03*
D34*
X939332Y626724D02*
D03*
X944332D02*
D03*
X949332D02*
D03*
X954332D02*
D03*
X939332Y656291D02*
D03*
X944332D02*
D03*
X949332D02*
D03*
X954332D02*
D03*
D35*
X905648Y580200D02*
D03*
Y582200D02*
D03*
Y584200D02*
D03*
X916848D02*
D03*
Y582200D02*
D03*
Y580200D02*
D03*
D36*
X907348Y587800D02*
D03*
X909248D02*
D03*
X911248D02*
D03*
X913248D02*
D03*
X915148D02*
D03*
Y576600D02*
D03*
X913248D02*
D03*
X911248D02*
D03*
X909248D02*
D03*
X907348D02*
D03*
D37*
X969027Y732999D02*
D03*
X972767Y740952D02*
D03*
X965287D02*
D03*
D38*
X872676Y572100D02*
D03*
X876220D02*
D03*
X872376Y589700D02*
D03*
X875920D02*
D03*
X884691Y584700D02*
D03*
X881148D02*
D03*
X923275Y730974D02*
D03*
X926818D02*
D03*
X948876Y707200D02*
D03*
X952420D02*
D03*
X948876Y711200D02*
D03*
X952420D02*
D03*
X925420Y584200D02*
D03*
X921876D02*
D03*
X955499Y762743D02*
D03*
X951956D02*
D03*
X851376Y578700D02*
D03*
X854920D02*
D03*
D40*
X794652Y660779D02*
D03*
Y665700D02*
D03*
Y670621D02*
D03*
Y675543D02*
D03*
X803313Y660779D02*
D03*
Y665700D02*
D03*
Y670621D02*
D03*
Y675543D02*
D03*
D41*
X832396Y475139D02*
D03*
X845152D02*
D03*
X938155Y755700D02*
D03*
X925399D02*
D03*
X814770Y461139D02*
D03*
X827526D02*
D03*
X957647Y755700D02*
D03*
X944891D02*
D03*
X865467Y475139D02*
D03*
X852711D02*
D03*
D42*
X848648Y750200D02*
D03*
X838148D02*
D03*
X872648Y499700D02*
D03*
X883148D02*
D03*
D43*
X815955Y737011D02*
D03*
X832884D02*
D03*
X818388Y719169D02*
D03*
X801459D02*
D03*
D44*
X859199Y639480D02*
D03*
Y633968D02*
D03*
Y628457D02*
D03*
X870223Y639480D02*
D03*
Y633968D02*
D03*
Y628457D02*
D03*
X864711Y639480D02*
D03*
Y633968D02*
D03*
Y628457D02*
D03*
D03*
D45*
X835184Y665209D02*
D03*
Y660209D02*
D03*
Y655209D02*
D03*
Y650209D02*
D03*
Y645209D02*
D03*
Y640209D02*
D03*
Y635209D02*
D03*
Y630209D02*
D03*
Y625209D02*
D03*
Y620209D02*
D03*
Y615209D02*
D03*
Y610209D02*
D03*
Y605209D02*
D03*
Y600209D02*
D03*
X902113D02*
D03*
Y605209D02*
D03*
Y610209D02*
D03*
Y615209D02*
D03*
Y620209D02*
D03*
Y625209D02*
D03*
Y630209D02*
D03*
Y635209D02*
D03*
Y640209D02*
D03*
Y645209D02*
D03*
Y650209D02*
D03*
Y655209D02*
D03*
Y660209D02*
D03*
Y665209D02*
D03*
D46*
X846148Y596272D02*
D03*
X851148D02*
D03*
X856148D02*
D03*
X861148D02*
D03*
X866148D02*
D03*
X871148D02*
D03*
X876148D02*
D03*
X881148D02*
D03*
X886148D02*
D03*
X891148D02*
D03*
D47*
X788148Y760822D02*
D03*
Y737200D02*
D03*
D48*
X820648Y666153D02*
D03*
Y660247D02*
D03*
D49*
X916148Y670669D02*
D03*
Y666732D02*
D03*
X826148Y660231D02*
D03*
Y664169D02*
D03*
X827148Y647169D02*
D03*
Y643231D02*
D03*
X930648Y650669D02*
D03*
Y646732D02*
D03*
X809452Y660905D02*
D03*
Y664842D02*
D03*
X896148Y588168D02*
D03*
Y584232D02*
D03*
X900209Y588293D02*
D03*
Y584356D02*
D03*
X866148Y495169D02*
D03*
Y491231D02*
D03*
X788648Y685671D02*
D03*
Y689608D02*
D03*
X924942Y727201D02*
D03*
Y723264D02*
D03*
X937148Y604700D02*
D03*
Y600763D02*
D03*
D50*
X819861Y695231D02*
D03*
D51*
X796435Y686176D02*
D03*
Y695231D02*
D03*
Y704287D02*
D03*
D52*
X953334Y767009D02*
D03*
X951365D02*
D03*
X949397D02*
D03*
X947429D02*
D03*
X945460D02*
D03*
X943491D02*
D03*
X939555D02*
D03*
X937586D02*
D03*
X935618D02*
D03*
X933649D02*
D03*
X931680D02*
D03*
X929712D02*
D03*
X932665Y773702D02*
D03*
X934633D02*
D03*
X936602D02*
D03*
X938570D02*
D03*
X940539D02*
D03*
X942507D02*
D03*
X944476D02*
D03*
X946444D02*
D03*
X948413D02*
D03*
X950381D02*
D03*
D53*
X929515D02*
D03*
X953531D02*
D03*
D54*
X861628Y455639D02*
D03*
X838794D02*
D03*
D55*
X854148D02*
D03*
X846274D02*
D03*
D56*
X855329Y466269D02*
D03*
X852770D02*
D03*
X850211D02*
D03*
X847652D02*
D03*
X845093D02*
D03*
D57*
X929757Y735109D02*
D03*
X925820D02*
D03*
X929617Y739700D02*
D03*
X925680D02*
D03*
X930617Y655700D02*
D03*
X926680D02*
D03*
X833617Y566700D02*
D03*
X829680D02*
D03*
X833742Y562439D02*
D03*
X829805D02*
D03*
X788617Y704200D02*
D03*
X784680D02*
D03*
D58*
X880647Y749669D02*
D03*
Y732739D02*
D03*
D59*
X973003Y723698D02*
D03*
X965050Y727438D02*
D03*
Y719958D02*
D03*
D60*
X851144Y723578D02*
D03*
Y710822D02*
D03*
D80*
X900648Y505200D02*
D03*
Y493586D02*
D03*
D81*
X894644Y499393D02*
D03*
D111*
X946832Y641507D02*
D03*
D112*
X870148Y461139D02*
D03*
D113*
X846912Y509639D02*
D03*
X829589Y555639D02*
D03*
X833920D02*
D03*
X838250D02*
D03*
X842581D02*
D03*
X846912D02*
D03*
X851243D02*
D03*
X855573D02*
D03*
X867384D02*
D03*
X871715D02*
D03*
X876046D02*
D03*
X880376D02*
D03*
X884707D02*
D03*
Y509639D02*
D03*
X880376D02*
D03*
X876046D02*
D03*
X871715D02*
D03*
X867384D02*
D03*
X855573D02*
D03*
X851243D02*
D03*
X842581D02*
D03*
X838250D02*
D03*
X833920D02*
D03*
X829589D02*
D03*
D114*
X785875Y523973D02*
Y672092D01*
X827148Y467700D02*
Y482700D01*
X785875Y523973D02*
X827148Y482700D01*
X794666Y675557D02*
X803299D01*
X776148Y685700D02*
X776177Y685671D01*
X788648D01*
X836042Y492554D02*
X836223Y492735D01*
Y493129D02*
X838148Y495054D01*
X835648Y492554D02*
X836042D01*
X836223Y492735D02*
Y493129D01*
X896142Y584553D02*
X899732D01*
X900209Y584076D01*
X814287Y660728D02*
X820668D01*
X809652Y664271D02*
Y668513D01*
X833606Y502639D02*
X834148D01*
X838148Y502411D02*
Y509537D01*
X794594Y660749D02*
X794638Y660793D01*
X876148Y567900D02*
Y580200D01*
X794614Y665690D02*
X794638Y665714D01*
X921054Y727379D02*
X924742D01*
X812465Y645000D02*
X812657Y645191D01*
X812465Y643623D02*
Y645000D01*
X794193Y625351D02*
X812465Y643623D01*
X945594Y600794D02*
Y618107D01*
X945562Y600763D02*
X945594Y600794D01*
X937148Y600763D02*
X945562D01*
X902113Y600209D02*
X902667Y600763D01*
X937148D01*
X792023Y627751D02*
X793199D01*
X789797Y625525D02*
X792023Y627751D01*
X793017Y625351D02*
X794193D01*
X789797Y547751D02*
Y625525D01*
X792197Y624531D02*
X793017Y625351D01*
X809657Y644209D02*
Y650191D01*
X793199Y627751D02*
X809657Y644209D01*
X792197Y549056D02*
Y624531D01*
X975978Y723128D02*
Y731798D01*
X965287Y740558D02*
Y740952D01*
X965468Y740377D02*
X967399D01*
X965287Y740558D02*
X965468Y740377D01*
X967399D02*
X975978Y731798D01*
X973578Y722133D02*
X977148Y718563D01*
Y654686D02*
Y718563D01*
X973397Y723698D02*
X973578Y723517D01*
X973003Y723698D02*
X973397D01*
X975978Y723128D02*
X979548Y719557D01*
Y653692D02*
Y719557D01*
X973578Y722133D02*
Y723517D01*
X951716Y624229D02*
Y628352D01*
X945594Y618107D02*
X951716Y624229D01*
X834148Y502772D02*
Y509411D01*
Y502639D02*
Y502772D01*
X955260Y629403D02*
X979548Y653692D01*
X954266Y631803D02*
X977148Y654686D01*
X866148Y495169D02*
Y499928D01*
X826148Y656570D02*
X827065Y655653D01*
X827081Y655472D02*
X827148D01*
X826148Y656570D02*
Y660231D01*
X827065Y655487D02*
Y655653D01*
Y655487D02*
X827081Y655472D01*
X820668Y660728D02*
X821164Y660231D01*
X820648Y660747D02*
X820668Y660728D01*
X821164Y660231D02*
X826148D01*
X835161D01*
X924825Y727462D02*
X926818Y729455D01*
X924825Y727395D02*
Y727462D01*
X924742Y727379D02*
X924809D01*
X926818Y729455D02*
Y729892D01*
X924809Y727379D02*
X924825Y727395D01*
X930134Y724574D02*
X930201D01*
X930217Y724558D01*
X958457Y715009D02*
X958648Y715200D01*
X952420Y714701D02*
X952648Y714929D01*
X952420Y711200D02*
Y714701D01*
X952648Y714929D02*
Y715200D01*
X952420Y707200D02*
X954648D01*
X958457Y711009D01*
Y715009D01*
X948876Y711133D02*
Y711200D01*
X948794Y711117D02*
X948861D01*
X948876Y711133D01*
X851144Y723578D02*
X851538D01*
X906099Y704749D02*
X923492D01*
X901648Y709200D02*
X906099Y704749D01*
X923492D02*
X925943Y707200D01*
X948648Y706905D02*
X948876Y707133D01*
Y707200D01*
X925943D02*
X948876D01*
X923492Y713651D02*
X925943Y711200D01*
X948876D01*
X911648Y709200D02*
X912648D01*
X917099Y713651D02*
X923492D01*
X912648Y709200D02*
X917099Y713651D01*
X925752Y584325D02*
X930209D01*
X900209Y580096D02*
Y584076D01*
X833920Y555639D02*
X838250D01*
X838148Y495054D02*
Y498867D01*
Y509537D02*
X838250Y509639D01*
X833920D02*
X834148Y509411D01*
X829648Y500139D02*
X831106D01*
X833606Y502639D01*
X842648Y555706D02*
Y562367D01*
X842581Y555639D02*
X842648Y555706D01*
X847148Y555875D02*
Y562367D01*
X846912Y555639D02*
X847148Y555875D01*
X851148Y555733D02*
X851243Y555639D01*
X851148Y555733D02*
Y562367D01*
X855648Y555714D02*
Y562367D01*
X855573Y555639D02*
X855648Y555714D01*
X881148Y596272D02*
X881148Y596272D01*
X875920Y589700D02*
Y589767D01*
X876148Y589995D02*
Y596272D01*
X875920Y589767D02*
X876148Y589995D01*
X807530Y670636D02*
X809652Y668513D01*
X803328Y670636D02*
X807530D01*
X803328Y660779D02*
X803365Y660742D01*
X930217Y724491D02*
X930230Y724479D01*
X930217Y724491D02*
Y724558D01*
X930230Y716700D02*
Y724479D01*
X851538Y723578D02*
X852113Y723003D01*
Y722610D02*
Y723003D01*
Y722610D02*
X865522Y709200D01*
X881648D01*
X886526Y723578D02*
X893922Y730974D01*
X923275D01*
X851538Y723578D02*
X886526D01*
X946716Y624864D02*
Y628352D01*
X902113Y605209D02*
X924210D01*
X943046Y624044D01*
X945896D01*
X946716Y624864D01*
Y628352D02*
X950168Y631803D01*
X954266D01*
X952768Y629403D02*
X955260D01*
X951716Y628352D02*
X952768Y629403D01*
X788684Y686176D02*
X796435D01*
X803313Y660779D02*
Y665700D01*
X788904Y660749D02*
X794594D01*
X788875Y660720D02*
X788904Y660749D01*
X800203Y681255D02*
X810117Y691168D01*
Y712669D02*
X816617Y719169D01*
X810117Y691168D02*
Y712669D01*
X816617Y719169D02*
X818388D01*
X809326Y660779D02*
X809452Y660905D01*
X803313Y660779D02*
X803328D01*
X809326D01*
X929735Y739644D02*
X929757Y739622D01*
X833920Y555639D02*
Y562261D01*
X833742Y562439D02*
X833920Y562261D01*
X809452Y660905D02*
X809630Y660728D01*
X814287D01*
X939332Y656027D02*
Y656291D01*
X929617Y744456D02*
X929735Y744574D01*
X929617Y739700D02*
Y744456D01*
Y735249D02*
Y739700D01*
X827148Y647169D02*
Y651928D01*
X835161Y660231D02*
X835184Y660209D01*
X833617Y566700D02*
X833699Y566618D01*
Y562482D02*
X833742Y562439D01*
X833699Y562482D02*
Y566618D01*
X833648Y566732D02*
Y572700D01*
X833617Y566700D02*
X833648Y566732D01*
X895994Y584700D02*
X896142Y584553D01*
X795038Y681255D02*
X800203D01*
X855573Y503645D02*
Y509639D01*
Y503645D02*
X858518Y500700D01*
X858648D01*
X866443Y499700D02*
X872648D01*
X866148Y499928D02*
X866215D01*
X866443Y499700D01*
X829648Y492139D02*
Y496596D01*
X796349Y704200D02*
X796435Y704287D01*
X789093Y704676D02*
X789648Y705232D01*
X788617Y704200D02*
X788872D01*
X789648Y705232D02*
Y719070D01*
X789093Y704421D02*
Y704676D01*
X788872Y704200D02*
X796349D01*
X788872D02*
X789093Y704421D01*
X785875Y672092D02*
X795038Y681255D01*
X788875Y665680D02*
X788885Y665690D01*
X794614D01*
X875935Y589153D02*
X876148Y588941D01*
Y580200D02*
Y588941D01*
X875935Y589153D02*
Y589617D01*
X868148Y589700D02*
X872376D01*
X855731Y565926D02*
Y565993D01*
X855648Y565911D02*
X855715D01*
X855731Y565926D01*
Y565993D02*
X859060Y569322D01*
Y573445D01*
X870815Y585200D01*
X892148Y584700D02*
X895994D01*
X886148Y596272D02*
X886148Y596272D01*
Y589200D02*
Y596272D01*
X884691Y584700D02*
X892148D01*
X881148D02*
Y596272D01*
Y574700D02*
Y584700D01*
X805538Y540900D02*
X806648D01*
X804184Y542254D02*
X805538Y540900D01*
X803444Y542254D02*
X804184D01*
X799249Y546449D02*
X803444Y542254D01*
X794804Y546449D02*
X799249D01*
X792197Y549056D02*
X794804Y546449D01*
X789797Y547751D02*
X796648Y540900D01*
X916640Y645209D02*
X916648Y645200D01*
X902113Y645209D02*
X916640D01*
X925911Y650846D02*
X930470D01*
X930648Y650669D01*
X902266Y650055D02*
X913197D01*
X902113Y650209D02*
X902266Y650055D01*
X913197D02*
X913350Y649902D01*
D115*
X862286Y739964D02*
X865909D01*
X871494Y734378D02*
X879009D01*
X865909Y739964D02*
X871494Y734378D01*
X861499Y740751D02*
X862290Y739968D01*
X851144Y740751D02*
X861499D01*
X879009Y734378D02*
X880647Y732739D01*
X848648Y750200D02*
X849436Y750987D01*
X858546D01*
X866893Y748684D02*
X871494D01*
X866026Y749550D02*
X866893Y748684D01*
X866026Y749550D02*
Y750987D01*
X871494Y748684D02*
Y748702D01*
Y745279D02*
Y748684D01*
X879681Y748702D02*
X880647Y749669D01*
X871494Y748702D02*
X871494Y748702D01*
X879681D01*
X832884Y737011D02*
X841695D01*
X818388Y719169D02*
X834203D01*
X837943Y722909D01*
X851144Y723578D02*
Y733271D01*
X902113Y660209D02*
X902113Y660209D01*
X844756Y722909D02*
X845426Y723578D01*
X851144D01*
X930617Y650897D02*
X930648Y650865D01*
X930617Y650897D02*
Y655700D01*
X930648Y650669D02*
Y650865D01*
X837943Y722909D02*
X844451D01*
X844756D01*
X912013Y661200D02*
X912148D01*
X911021Y660209D02*
X912013Y661200D01*
X902113Y660209D02*
X911021D01*
X902113Y655209D02*
X915664D01*
X924648Y646225D01*
Y646200D02*
Y646225D01*
D116*
X769148Y685700D02*
Y693287D01*
Y685700D02*
X776148D01*
X838148Y750200D02*
Y750700D01*
X839148Y751700D02*
Y756700D01*
X856669Y774221D02*
X861789D01*
X838148Y750700D02*
X839148Y751700D01*
Y756700D02*
X856669Y774221D01*
X861789D02*
X863345Y775776D01*
X801459Y737011D02*
X815955D01*
X815955Y737011D01*
X801459Y719169D02*
Y737011D01*
X789648Y719070D02*
X801361D01*
X801459Y719169D01*
X788148Y737200D02*
X788337Y737011D01*
X801459D01*
D117*
X942507Y736779D02*
Y737096D01*
X942239Y737365D02*
X942507Y737096D01*
X942239Y737365D02*
Y739868D01*
X940807Y737365D02*
Y739868D01*
X942239D02*
X943299Y740928D01*
X940539Y736779D02*
Y737096D01*
X940807Y737365D01*
X939746Y740928D02*
X940807Y739868D01*
X943299Y740928D02*
X943398D01*
X939648D02*
X939746D01*
X850531Y508928D02*
X851243Y509639D01*
X850531Y492421D02*
Y508928D01*
Y492421D02*
X851050Y491903D01*
X851148D01*
X847765Y492421D02*
Y508786D01*
X846912Y509639D02*
X847765Y508786D01*
X847246Y491903D02*
X847765Y492421D01*
X847148Y491903D02*
X847246D01*
X849897Y466582D02*
Y472319D01*
X851215Y473636D01*
X851602D02*
X852711Y474745D01*
X851215Y473636D02*
X851602D01*
X852711Y475139D02*
Y475533D01*
X847652Y466269D02*
Y472195D01*
X846261Y473587D02*
X847652Y472195D01*
X846261Y473587D02*
Y474030D01*
X849897Y477959D02*
Y487207D01*
X851050Y488360D01*
X847966Y477959D02*
Y487295D01*
X847765Y487496D02*
Y487841D01*
Y487496D02*
X847966Y487295D01*
X847246Y488360D02*
X847765Y487841D01*
X851050Y488360D02*
X851148D01*
X851602Y476642D02*
X852711Y475533D01*
X851215Y476642D02*
X851602D01*
X852711Y474745D02*
Y475139D01*
X849897Y477959D02*
X851215Y476642D01*
X849897Y466582D02*
X850211Y466269D01*
X846648Y476642D02*
X847966Y477959D01*
X846261Y476642D02*
X846648D01*
X845152Y475533D02*
X846261Y476642D01*
X845152Y475139D02*
X846261Y474030D01*
X847148Y488360D02*
X847246D01*
X944891Y755700D02*
Y755868D01*
Y755306D02*
Y755700D01*
X938155D02*
Y755868D01*
Y755306D02*
Y755700D01*
X942080Y752721D02*
X943556Y754197D01*
X939489D02*
X940648Y753039D01*
X942080Y745691D02*
X943299Y744472D01*
X940648Y745373D02*
Y753039D01*
X942080Y745691D02*
Y752721D01*
X939746Y744472D02*
X940648Y745373D01*
X939263Y754197D02*
X939489D01*
X938155Y755306D02*
X939263Y754197D01*
X943556D02*
X943783D01*
X944891Y755306D01*
X942785Y756977D02*
X943783D01*
X943491Y766221D02*
Y767009D01*
X943367Y766097D02*
X943491Y766221D01*
X943783Y756977D02*
X944891Y755868D01*
X942239Y765551D02*
X942785Y766097D01*
X943367D01*
X942239Y761232D02*
Y765551D01*
Y761232D02*
X942239Y761232D01*
Y757522D02*
X942785Y756977D01*
X942239Y757522D02*
Y761232D01*
X940261Y766097D02*
X940807Y765551D01*
Y760639D02*
Y765551D01*
X939555Y766221D02*
X939679Y766097D01*
X940261D01*
X940807Y757522D02*
Y760639D01*
X940261Y756977D02*
X940807Y757522D01*
X940807Y760639D02*
X940807Y760639D01*
X939263Y756977D02*
X940261D01*
X939555Y766221D02*
Y767009D01*
X938155Y755868D02*
X939263Y756977D01*
X939648Y744472D02*
X939746D01*
X943299D02*
X943398D01*
D118*
X946163Y764631D02*
X950069D01*
X951473Y763226D02*
X951572D01*
X945460Y765334D02*
Y767009D01*
X951572Y763226D02*
X951956Y762842D01*
Y762743D02*
Y762842D01*
X945460Y765334D02*
X946163Y764631D01*
X950069D02*
X951473Y763226D01*
X945460Y767009D02*
Y768958D01*
X935618Y767009D02*
Y769213D01*
X936602Y770198D01*
Y773702D01*
X945481Y776080D02*
X946444Y775116D01*
X937438Y776080D02*
X945481D01*
X936602Y775243D02*
X937438Y776080D01*
X936602Y773702D02*
Y775243D01*
X947419Y767018D02*
X947429Y767009D01*
X947419Y767018D02*
Y769549D01*
X946444Y770524D02*
X947419Y769549D01*
X938570Y772287D02*
Y773702D01*
Y772287D02*
X940314Y770544D01*
X943874D02*
X945460Y768958D01*
X940314Y770544D02*
X943874D01*
X852770Y465769D02*
X852958Y465582D01*
Y461842D02*
Y465582D01*
X853660Y461139D02*
X870148D01*
X852958Y461842D02*
X853660Y461139D01*
X948674Y655611D02*
X948948D01*
X949332Y655995D02*
Y656291D01*
X948948Y655611D02*
X949332Y655995D01*
X902113Y625209D02*
X902121Y625200D01*
X910648D01*
X944408Y651345D02*
X948674Y655611D01*
X902113Y620209D02*
X904278D01*
X905450Y621380D01*
Y621734D01*
X906153Y622437D01*
X936482D01*
X938948Y624903D02*
Y626339D01*
X939328Y626719D01*
X936482Y622437D02*
X938948Y624903D01*
X944332Y655995D02*
Y656291D01*
X940539Y722951D02*
Y723196D01*
X940648Y718743D02*
Y722842D01*
X940539Y722951D02*
X940648Y722842D01*
X927021Y636078D02*
X929653Y638710D01*
X935225Y646782D02*
X939788Y651345D01*
X935225Y644533D02*
Y646782D01*
X929653Y638710D02*
Y638961D01*
X939788Y651345D02*
X944408D01*
X933067Y642375D02*
X933067D01*
X929653Y638961D02*
X933067Y642375D01*
X933067D02*
X935225Y644533D01*
X928236Y640209D02*
X933222Y645194D01*
X902113Y640209D02*
X928236D01*
X933222Y645194D02*
Y649140D01*
X943948Y655611D02*
X944332Y655995D01*
X943812Y655611D02*
X943948D01*
X933222Y649140D02*
X938062Y653980D01*
X942181D01*
X943812Y655611D01*
X946444Y770524D02*
Y773702D01*
Y775116D01*
D119*
X894337Y499700D02*
X894644Y499393D01*
X883148Y499700D02*
X894337D01*
X880376Y502472D02*
X883148Y499700D01*
X880376Y502472D02*
Y509639D01*
D120*
X933008Y732830D02*
X934621D01*
X934732Y732940D01*
X931153Y730974D02*
X933008Y732830D01*
X926818Y730974D02*
X931153D01*
D121*
X941006Y695495D02*
D03*
Y669905D02*
D03*
X923290Y695495D02*
D03*
Y669905D02*
D03*
X971184Y583078D02*
D03*
X945594D02*
D03*
X971184Y600794D02*
D03*
X945594D02*
D03*
D122*
X806648Y570900D02*
D03*
Y580900D02*
D03*
X796648D02*
D03*
Y570900D02*
D03*
Y590900D02*
D03*
X806648D02*
D03*
X796648Y600900D02*
D03*
X806648D02*
D03*
X796648Y610900D02*
D03*
X806648D02*
D03*
Y620900D02*
D03*
X796648Y530900D02*
D03*
X806648D02*
D03*
X796648Y540900D02*
D03*
X806648D02*
D03*
X796648Y550900D02*
D03*
X806648D02*
D03*
Y560900D02*
D03*
X796648D02*
D03*
X921648Y709200D02*
D03*
X911648D02*
D03*
X901648D02*
D03*
X891648D02*
D03*
D123*
X796648Y620900D02*
D03*
X881648Y709200D02*
D03*
D124*
X859243Y631213D02*
D03*
X870266D02*
D03*
Y636724D02*
D03*
X864754D02*
D03*
X859243D02*
D03*
X861955Y639524D02*
D03*
X867467D02*
D03*
Y634012D02*
D03*
X861955D02*
D03*
X867467Y628500D02*
D03*
X861955D02*
D03*
D125*
X958531Y770198D02*
D03*
X924515D02*
D03*
D126*
X959712Y791300D02*
D03*
X923334D02*
D03*
D127*
X863991Y455639D02*
D03*
X836432D02*
D03*
D128*
X860054Y466269D02*
D03*
X840368D02*
D03*
D129*
X839648Y775200D02*
D03*
X864648D02*
D03*
D130*
X981152Y548775D02*
D03*
Y618775D02*
D03*
X761089Y548774D02*
D03*
Y618774D02*
D03*
X788648Y462200D02*
D03*
X985648Y782267D02*
D03*
X986207Y462133D02*
D03*
X761089Y462267D02*
D03*
Y782267D02*
D03*
X904648Y782200D02*
D03*
X958648Y462200D02*
D03*
X788648Y782200D02*
D03*
D131*
X939358Y727822D02*
D03*
Y732153D02*
D03*
X943688Y727822D02*
D03*
Y732153D02*
D03*
X940927Y637570D02*
D03*
Y641507D02*
D03*
Y645444D02*
D03*
X944864Y637570D02*
D03*
Y641507D02*
D03*
Y645444D02*
D03*
X948801Y637570D02*
D03*
Y641507D02*
D03*
Y645444D02*
D03*
X952738Y637570D02*
D03*
Y641507D02*
D03*
Y645444D02*
D03*
M02*
