G04*
G04 #@! TF.GenerationSoftware,Altium Limited,Altium Designer,22.5.1 (42)*
G04*
G04 Layer_Color=2752767*
%FSLAX25Y25*%
%MOIN*%
G70*
G04*
G04 #@! TF.SameCoordinates,5F65DDE1-41B9-4BDB-98F2-9488EF11E66D*
G04*
G04*
G04 #@! TF.FilePolarity,Positive*
G04*
G01*
G75*
%ADD19C,0.00200*%
%ADD132C,0.00267*%
%ADD133C,0.00133*%
D19*
X940206Y694695D02*
X940606Y695495D01*
X940206Y696295D01*
X941006Y695895D01*
X941806Y696295D01*
X941406Y695495D01*
X941806Y694695D01*
X941006Y695095D01*
X940206Y694695D01*
X940606Y695095D02*
X940806Y695495D01*
X940606Y695895D01*
X941006Y695695D01*
X941406Y695895D01*
X941206Y695495D01*
X941406Y695095D01*
X941006Y695295D01*
X940606Y695095D01*
X940206Y669105D02*
X940606Y669905D01*
X940206Y670705D01*
X941006Y670305D01*
X941806Y670705D01*
X941406Y669905D01*
X941806Y669105D01*
X941006Y669505D01*
X940206Y669105D01*
X940606Y669505D02*
X940806Y669905D01*
X940606Y670305D01*
X941006Y670105D01*
X941406Y670305D01*
X941206Y669905D01*
X941406Y669505D01*
X941006Y669705D01*
X940606Y669505D01*
X922490Y694695D02*
X922890Y695495D01*
X922490Y696295D01*
X923290Y695895D01*
X924090Y696295D01*
X923690Y695495D01*
X924090Y694695D01*
X923290Y695095D01*
X922490Y694695D01*
X922890Y695095D02*
X923090Y695495D01*
X922890Y695895D01*
X923290Y695695D01*
X923690Y695895D01*
X923490Y695495D01*
X923690Y695095D01*
X923290Y695295D01*
X922890Y695095D01*
X922490Y669105D02*
X922890Y669905D01*
X922490Y670705D01*
X923290Y670305D01*
X924090Y670705D01*
X923690Y669905D01*
X924090Y669105D01*
X923290Y669505D01*
X922490Y669105D01*
X922890Y669505D02*
X923090Y669905D01*
X922890Y670305D01*
X923290Y670105D01*
X923690Y670305D01*
X923490Y669905D01*
X923690Y669505D01*
X923290Y669705D01*
X922890Y669505D01*
X970384Y582278D02*
X970784Y583078D01*
X970384Y583878D01*
X971184Y583478D01*
X971984Y583878D01*
X971584Y583078D01*
X971984Y582278D01*
X971184Y582678D01*
X970384Y582278D01*
X970784Y582678D02*
X970984Y583078D01*
X970784Y583478D01*
X971184Y583278D01*
X971584Y583478D01*
X971384Y583078D01*
X971584Y582678D01*
X971184Y582878D01*
X970784Y582678D01*
X944794Y582278D02*
X945194Y583078D01*
X944794Y583878D01*
X945594Y583478D01*
X946394Y583878D01*
X945994Y583078D01*
X946394Y582278D01*
X945594Y582678D01*
X944794Y582278D01*
X945194Y582678D02*
X945394Y583078D01*
X945194Y583478D01*
X945594Y583278D01*
X945994Y583478D01*
X945794Y583078D01*
X945994Y582678D01*
X945594Y582878D01*
X945194Y582678D01*
X970384Y599994D02*
X970784Y600794D01*
X970384Y601594D01*
X971184Y601194D01*
X971984Y601594D01*
X971584Y600794D01*
X971984Y599994D01*
X971184Y600394D01*
X970384Y599994D01*
X970784Y600394D02*
X970984Y600794D01*
X970784Y601194D01*
X971184Y600994D01*
X971584Y601194D01*
X971384Y600794D01*
X971584Y600394D01*
X971184Y600594D01*
X970784Y600394D01*
X944794Y599994D02*
X945194Y600794D01*
X944794Y601594D01*
X945594Y601194D01*
X946394Y601594D01*
X945994Y600794D01*
X946394Y599994D01*
X945594Y600394D01*
X944794Y599994D01*
X945194Y600394D02*
X945394Y600794D01*
X945194Y601194D01*
X945594Y600994D01*
X945994Y601194D01*
X945794Y600794D01*
X945994Y600394D01*
X945594Y600594D01*
X945194Y600394D01*
X805848Y570100D02*
Y571700D01*
X807448D01*
Y570100D01*
X805848D01*
Y580100D02*
Y581700D01*
X807448D01*
Y580100D01*
X805848D01*
X795848D02*
Y581700D01*
X797448D01*
Y580100D01*
X795848D01*
Y570100D02*
Y571700D01*
X797448D01*
Y570100D01*
X795848D01*
Y590100D02*
Y591700D01*
X797448D01*
Y590100D01*
X795848D01*
X805848D02*
Y591700D01*
X807448D01*
Y590100D01*
X805848D01*
X795848Y600100D02*
Y601700D01*
X797448D01*
Y600100D01*
X795848D01*
X805848D02*
Y601700D01*
X807448D01*
Y600100D01*
X805848D01*
X795848Y610100D02*
Y611700D01*
X797448D01*
Y610100D01*
X795848D01*
X805848D02*
Y611700D01*
X807448D01*
Y610100D01*
X805848D01*
X795848Y620100D02*
Y621700D01*
X797448D01*
Y620100D01*
X795848D01*
X805848D02*
Y621700D01*
X807448D01*
Y620100D01*
X805848D01*
X795848Y530100D02*
Y531700D01*
X797448D01*
Y530100D01*
X795848D01*
X805848D02*
Y531700D01*
X807448D01*
Y530100D01*
X805848D01*
X795848Y540100D02*
Y541700D01*
X797448D01*
Y540100D01*
X795848D01*
X805848D02*
Y541700D01*
X807448D01*
Y540100D01*
X805848D01*
X795848Y550100D02*
Y551700D01*
X797448D01*
Y550100D01*
X795848D01*
X805848D02*
Y551700D01*
X807448D01*
Y550100D01*
X805848D01*
Y560100D02*
Y561700D01*
X807448D01*
Y560100D01*
X805848D01*
X795848D02*
Y561700D01*
X797448D01*
Y560100D01*
X795848D01*
X920848Y708400D02*
Y710000D01*
X922448D01*
Y708400D01*
X920848D01*
X910848D02*
Y710000D01*
X912448D01*
Y708400D01*
X910848D01*
X900848D02*
Y710000D01*
X902448D01*
Y708400D01*
X900848D01*
X890848D02*
Y710000D01*
X892448D01*
Y708400D01*
X890848D01*
X880848D02*
Y710000D01*
X882448D01*
Y708400D01*
X880848D01*
X858442Y630413D02*
X858842Y631213D01*
X858442Y632013D01*
X859243Y631613D01*
X860042Y632013D01*
X859643Y631213D01*
X860042Y630413D01*
X859243Y630813D01*
X858442Y630413D01*
X869466D02*
X869866Y631213D01*
X869466Y632013D01*
X870266Y631613D01*
X871066Y632013D01*
X870666Y631213D01*
X871066Y630413D01*
X870266Y630813D01*
X869466Y630413D01*
Y635924D02*
X869866Y636724D01*
X869466Y637524D01*
X870266Y637124D01*
X871066Y637524D01*
X870666Y636724D01*
X871066Y635924D01*
X870266Y636324D01*
X869466Y635924D01*
X863954D02*
X864354Y636724D01*
X863954Y637524D01*
X864754Y637124D01*
X865554Y637524D01*
X865154Y636724D01*
X865554Y635924D01*
X864754Y636324D01*
X863954Y635924D01*
X858442D02*
X858842Y636724D01*
X858442Y637524D01*
X859243Y637124D01*
X860042Y637524D01*
X859643Y636724D01*
X860042Y635924D01*
X859243Y636324D01*
X858442Y635924D01*
X861155Y638724D02*
X861555Y639524D01*
X861155Y640324D01*
X861955Y639924D01*
X862755Y640324D01*
X862355Y639524D01*
X862755Y638724D01*
X861955Y639124D01*
X861155Y638724D01*
X866667D02*
X867067Y639524D01*
X866667Y640324D01*
X867467Y639924D01*
X868267Y640324D01*
X867867Y639524D01*
X868267Y638724D01*
X867467Y639124D01*
X866667Y638724D01*
Y633212D02*
X867067Y634012D01*
X866667Y634812D01*
X867467Y634412D01*
X868267Y634812D01*
X867867Y634012D01*
X868267Y633212D01*
X867467Y633612D01*
X866667Y633212D01*
X861155D02*
X861555Y634012D01*
X861155Y634812D01*
X861955Y634412D01*
X862755Y634812D01*
X862355Y634012D01*
X862755Y633212D01*
X861955Y633612D01*
X861155Y633212D01*
X866667Y627700D02*
X867067Y628500D01*
X866667Y629300D01*
X867467Y628900D01*
X868267Y629300D01*
X867867Y628500D01*
X868267Y627700D01*
X867467Y628100D01*
X866667Y627700D01*
X861155D02*
X861555Y628500D01*
X861155Y629300D01*
X861955Y628900D01*
X862755Y629300D01*
X862355Y628500D01*
X862755Y627700D01*
X861955Y628100D01*
X861155Y627700D01*
X957731Y769398D02*
X958131D01*
X958531Y769798D01*
X958931Y769398D01*
X959331D01*
Y769798D01*
X958931Y770198D01*
X959331Y770598D01*
Y770998D01*
X958931D01*
X958531Y770598D01*
X958131Y770998D01*
X957731D01*
Y770598D01*
X958131Y770198D01*
X957731Y769798D01*
Y769398D01*
X923715D02*
X924115D01*
X924515Y769798D01*
X924915Y769398D01*
X925315D01*
Y769798D01*
X924915Y770198D01*
X925315Y770598D01*
Y770998D01*
X924915D01*
X924515Y770598D01*
X924115Y770998D01*
X923715D01*
Y770598D01*
X924115Y770198D01*
X923715Y769798D01*
Y769398D01*
X959312Y790900D02*
Y790500D01*
X960112D01*
Y790900D01*
X960512D01*
Y791700D01*
X960112D01*
Y792100D01*
X959312D01*
Y791700D01*
X958912D01*
Y790900D01*
X959312D01*
X922934D02*
Y790500D01*
X923734D01*
Y790900D01*
X924134D01*
Y791700D01*
X923734D01*
Y792100D01*
X922934D01*
Y791700D01*
X922534D01*
Y790900D01*
X922934D01*
X863991Y454839D02*
X863191Y456439D01*
X864791D01*
X863991Y454839D01*
X836432D02*
X835631Y456439D01*
X837232D01*
X836432Y454839D01*
X839648Y774400D02*
X840048Y774800D01*
X840448D01*
X840048Y775200D01*
X840448Y775600D01*
X840048D01*
X839648Y776000D01*
X839248Y775600D01*
X838848D01*
X839248Y775200D01*
X838848Y774800D01*
X839248D01*
X839648Y774400D01*
X864648D02*
X865048Y774800D01*
X865448D01*
X865048Y775200D01*
X865448Y775600D01*
X865048D01*
X864648Y776000D01*
X864248Y775600D01*
X863848D01*
X864248Y775200D01*
X863848Y774800D01*
X864248D01*
X864648Y774400D01*
X981152Y547975D02*
X981552Y548375D01*
X981952D01*
X981552Y548775D01*
X981952Y549175D01*
X981552D01*
X981152Y549575D01*
X980752Y549175D01*
X980352D01*
X980752Y548775D01*
X980352Y548375D01*
X980752D01*
X981152Y547975D01*
Y548375D02*
X981352Y548575D01*
X981552D01*
X981352Y548775D01*
X981552Y548975D01*
X981352D01*
X981152Y549175D01*
X980952Y548975D01*
X980752D01*
X980952Y548775D01*
X980752Y548575D01*
X980952D01*
X981152Y548375D01*
Y617975D02*
X981552Y618375D01*
X981952D01*
X981552Y618775D01*
X981952Y619175D01*
X981552D01*
X981152Y619575D01*
X980752Y619175D01*
X980352D01*
X980752Y618775D01*
X980352Y618375D01*
X980752D01*
X981152Y617975D01*
Y618375D02*
X981352Y618575D01*
X981552D01*
X981352Y618775D01*
X981552Y618975D01*
X981352D01*
X981152Y619175D01*
X980952Y618975D01*
X980752D01*
X980952Y618775D01*
X980752Y618575D01*
X980952D01*
X981152Y618375D01*
X761089Y547974D02*
X761489Y548374D01*
X761889D01*
X761489Y548774D01*
X761889Y549174D01*
X761489D01*
X761089Y549574D01*
X760689Y549174D01*
X760289D01*
X760689Y548774D01*
X760289Y548374D01*
X760689D01*
X761089Y547974D01*
Y548374D02*
X761289Y548574D01*
X761489D01*
X761289Y548774D01*
X761489Y548974D01*
X761289D01*
X761089Y549174D01*
X760889Y548974D01*
X760689D01*
X760889Y548774D01*
X760689Y548574D01*
X760889D01*
X761089Y548374D01*
Y617974D02*
X761489Y618374D01*
X761889D01*
X761489Y618774D01*
X761889Y619174D01*
X761489D01*
X761089Y619574D01*
X760689Y619174D01*
X760289D01*
X760689Y618774D01*
X760289Y618374D01*
X760689D01*
X761089Y617974D01*
Y618374D02*
X761289Y618574D01*
X761489D01*
X761289Y618774D01*
X761489Y618974D01*
X761289D01*
X761089Y619174D01*
X760889Y618974D01*
X760689D01*
X760889Y618774D01*
X760689Y618574D01*
X760889D01*
X761089Y618374D01*
X788648Y461400D02*
X789048Y461800D01*
X789448D01*
X789048Y462200D01*
X789448Y462600D01*
X789048D01*
X788648Y463000D01*
X788248Y462600D01*
X787848D01*
X788248Y462200D01*
X787848Y461800D01*
X788248D01*
X788648Y461400D01*
Y461800D02*
X788848Y462000D01*
X789048D01*
X788848Y462200D01*
X789048Y462400D01*
X788848D01*
X788648Y462600D01*
X788448Y462400D01*
X788248D01*
X788448Y462200D01*
X788248Y462000D01*
X788448D01*
X788648Y461800D01*
X985648Y781467D02*
X986048Y781867D01*
X986448D01*
X986048Y782267D01*
X986448Y782667D01*
X986048D01*
X985648Y783067D01*
X985248Y782667D01*
X984848D01*
X985248Y782267D01*
X984848Y781867D01*
X985248D01*
X985648Y781467D01*
Y781867D02*
X985848Y782067D01*
X986048D01*
X985848Y782267D01*
X986048Y782467D01*
X985848D01*
X985648Y782667D01*
X985448Y782467D01*
X985248D01*
X985448Y782267D01*
X985248Y782067D01*
X985448D01*
X985648Y781867D01*
X986207Y461333D02*
X986607Y461733D01*
X987007D01*
X986607Y462133D01*
X987007Y462533D01*
X986607D01*
X986207Y462933D01*
X985807Y462533D01*
X985407D01*
X985807Y462133D01*
X985407Y461733D01*
X985807D01*
X986207Y461333D01*
Y461733D02*
X986407Y461933D01*
X986607D01*
X986407Y462133D01*
X986607Y462333D01*
X986407D01*
X986207Y462533D01*
X986007Y462333D01*
X985807D01*
X986007Y462133D01*
X985807Y461933D01*
X986007D01*
X986207Y461733D01*
X761089Y461467D02*
X761489Y461867D01*
X761889D01*
X761489Y462267D01*
X761889Y462667D01*
X761489D01*
X761089Y463067D01*
X760689Y462667D01*
X760289D01*
X760689Y462267D01*
X760289Y461867D01*
X760689D01*
X761089Y461467D01*
Y461867D02*
X761289Y462067D01*
X761489D01*
X761289Y462267D01*
X761489Y462467D01*
X761289D01*
X761089Y462667D01*
X760889Y462467D01*
X760689D01*
X760889Y462267D01*
X760689Y462067D01*
X760889D01*
X761089Y461867D01*
Y781467D02*
X761489Y781867D01*
X761889D01*
X761489Y782267D01*
X761889Y782667D01*
X761489D01*
X761089Y783067D01*
X760689Y782667D01*
X760289D01*
X760689Y782267D01*
X760289Y781867D01*
X760689D01*
X761089Y781467D01*
Y781867D02*
X761289Y782067D01*
X761489D01*
X761289Y782267D01*
X761489Y782467D01*
X761289D01*
X761089Y782667D01*
X760889Y782467D01*
X760689D01*
X760889Y782267D01*
X760689Y782067D01*
X760889D01*
X761089Y781867D01*
X904648Y781400D02*
X905048Y781800D01*
X905448D01*
X905048Y782200D01*
X905448Y782600D01*
X905048D01*
X904648Y783000D01*
X904248Y782600D01*
X903848D01*
X904248Y782200D01*
X903848Y781800D01*
X904248D01*
X904648Y781400D01*
Y781800D02*
X904848Y782000D01*
X905048D01*
X904848Y782200D01*
X905048Y782400D01*
X904848D01*
X904648Y782600D01*
X904448Y782400D01*
X904248D01*
X904448Y782200D01*
X904248Y782000D01*
X904448D01*
X904648Y781800D01*
X958648Y461400D02*
X959048Y461800D01*
X959448D01*
X959048Y462200D01*
X959448Y462600D01*
X959048D01*
X958648Y463000D01*
X958248Y462600D01*
X957848D01*
X958248Y462200D01*
X957848Y461800D01*
X958248D01*
X958648Y461400D01*
Y461800D02*
X958848Y462000D01*
X959048D01*
X958848Y462200D01*
X959048Y462400D01*
X958848D01*
X958648Y462600D01*
X958448Y462400D01*
X958248D01*
X958448Y462200D01*
X958248Y462000D01*
X958448D01*
X958648Y461800D01*
X775348Y684900D02*
Y686500D01*
X776948D01*
Y684900D01*
X775348D01*
X775748Y685300D02*
Y686100D01*
X776548D01*
Y685300D01*
X775748D01*
X820848Y653400D02*
Y655000D01*
X822448D01*
Y653400D01*
X820848D01*
X821248Y653800D02*
Y654600D01*
X822048D01*
Y653800D01*
X821248D01*
X811857Y644391D02*
Y645991D01*
X813457D01*
Y644391D01*
X811857D01*
X812257Y644791D02*
Y645591D01*
X813057D01*
Y644791D01*
X812257D01*
X938558Y727022D02*
X938958Y727822D01*
X938558Y728622D01*
X939358Y728222D01*
X940158Y728622D01*
X939758Y727822D01*
X940158Y727022D01*
X939358Y727422D01*
X938558Y727022D01*
Y731353D02*
X938958Y732153D01*
X938558Y732953D01*
X939358Y732553D01*
X940158Y732953D01*
X939758Y732153D01*
X940158Y731353D01*
X939358Y731753D01*
X938558Y731353D01*
X942888Y727022D02*
X943288Y727822D01*
X942888Y728622D01*
X943688Y728222D01*
X944488Y728622D01*
X944088Y727822D01*
X944488Y727022D01*
X943688Y727422D01*
X942888Y727022D01*
Y731353D02*
X943288Y732153D01*
X942888Y732953D01*
X943688Y732553D01*
X944488Y732953D01*
X944088Y732153D01*
X944488Y731353D01*
X943688Y731753D01*
X942888Y731353D01*
X940127Y636770D02*
X940527Y637570D01*
X940127Y638370D01*
X940927Y637970D01*
X941727Y638370D01*
X941327Y637570D01*
X941727Y636770D01*
X940927Y637170D01*
X940127Y636770D01*
Y640707D02*
X940527Y641507D01*
X940127Y642307D01*
X940927Y641907D01*
X941727Y642307D01*
X941327Y641507D01*
X941727Y640707D01*
X940927Y641107D01*
X940127Y640707D01*
Y644644D02*
X940527Y645444D01*
X940127Y646244D01*
X940927Y645844D01*
X941727Y646244D01*
X941327Y645444D01*
X941727Y644644D01*
X940927Y645044D01*
X940127Y644644D01*
X944064Y636770D02*
X944464Y637570D01*
X944064Y638370D01*
X944864Y637970D01*
X945664Y638370D01*
X945264Y637570D01*
X945664Y636770D01*
X944864Y637170D01*
X944064Y636770D01*
Y640707D02*
X944464Y641507D01*
X944064Y642307D01*
X944864Y641907D01*
X945664Y642307D01*
X945264Y641507D01*
X945664Y640707D01*
X944864Y641107D01*
X944064Y640707D01*
Y644644D02*
X944464Y645444D01*
X944064Y646244D01*
X944864Y645844D01*
X945664Y646244D01*
X945264Y645444D01*
X945664Y644644D01*
X944864Y645044D01*
X944064Y644644D01*
X948001Y636770D02*
X948401Y637570D01*
X948001Y638370D01*
X948801Y637970D01*
X949601Y638370D01*
X949201Y637570D01*
X949601Y636770D01*
X948801Y637170D01*
X948001Y636770D01*
Y640707D02*
X948401Y641507D01*
X948001Y642307D01*
X948801Y641907D01*
X949601Y642307D01*
X949201Y641507D01*
X949601Y640707D01*
X948801Y641107D01*
X948001Y640707D01*
Y644644D02*
X948401Y645444D01*
X948001Y646244D01*
X948801Y645844D01*
X949601Y646244D01*
X949201Y645444D01*
X949601Y644644D01*
X948801Y645044D01*
X948001Y644644D01*
X951938Y636770D02*
X952338Y637570D01*
X951938Y638370D01*
X952738Y637970D01*
X953538Y638370D01*
X953138Y637570D01*
X953538Y636770D01*
X952738Y637170D01*
X951938Y636770D01*
Y640707D02*
X952338Y641507D01*
X951938Y642307D01*
X952738Y641907D01*
X953538Y642307D01*
X953138Y641507D01*
X953538Y640707D01*
X952738Y641107D01*
X951938Y640707D01*
Y644644D02*
X952338Y645444D01*
X951938Y646244D01*
X952738Y645844D01*
X953538Y646244D01*
X953138Y645444D01*
X953538Y644644D01*
X952738Y645044D01*
X951938Y644644D01*
X909348Y665400D02*
Y667000D01*
X910948D01*
Y665400D01*
X909348D01*
X909748Y665800D02*
Y666600D01*
X910548D01*
Y665800D01*
X909748D01*
X886348Y490200D02*
X887148Y491000D01*
X887948Y490200D01*
X887148Y489400D01*
X886348Y490200D01*
X887848Y485700D02*
X888648Y486500D01*
X889448Y485700D01*
X888648Y484900D01*
X887848Y485700D01*
X892848D02*
X893648Y486500D01*
X894448Y485700D01*
X893648Y484900D01*
X892848Y485700D01*
X897348D02*
X898148Y486500D01*
X898948Y485700D01*
X898148Y484900D01*
X897348Y485700D01*
X901848D02*
X902648Y486500D01*
X903448Y485700D01*
X902648Y484900D01*
X901848Y485700D01*
X906348D02*
X907148Y486500D01*
X907948Y485700D01*
X907148Y484900D01*
X906348Y485700D01*
X911348D02*
X912148Y486500D01*
X912948Y485700D01*
X912148Y484900D01*
X911348Y485700D01*
Y490200D02*
X912148Y491000D01*
X912948Y490200D01*
X912148Y489400D01*
X911348Y490200D01*
Y494700D02*
X912148Y495500D01*
X912948Y494700D01*
X912148Y493900D01*
X911348Y494700D01*
Y499200D02*
X912148Y500000D01*
X912948Y499200D01*
X912148Y498400D01*
X911348Y499200D01*
Y503700D02*
X912148Y504500D01*
X912948Y503700D01*
X912148Y502900D01*
X911348Y503700D01*
Y508200D02*
X912148Y509000D01*
X912948Y508200D01*
X912148Y507400D01*
X911348Y508200D01*
Y513200D02*
X912148Y514000D01*
X912948Y513200D01*
X912148Y512400D01*
X911348Y513200D01*
X906348D02*
X907148Y514000D01*
X907948Y513200D01*
X907148Y512400D01*
X906348Y513200D01*
X901848D02*
X902648Y514000D01*
X903448Y513200D01*
X902648Y512400D01*
X901848Y513200D01*
X897348D02*
X898148Y514000D01*
X898948Y513200D01*
X898148Y512400D01*
X897348Y513200D01*
X892848D02*
X893648Y514000D01*
X894448Y513200D01*
X893648Y512400D01*
X892848Y513200D01*
X836348Y587700D02*
X837148Y588500D01*
X837948Y587700D01*
X837148Y586900D01*
X836348Y587700D01*
X790848Y636700D02*
X791648Y637500D01*
X792448Y636700D01*
X791648Y635900D01*
X790848Y636700D01*
X979348Y723900D02*
Y725500D01*
X980948D01*
Y723900D01*
X979348D01*
X979748Y724300D02*
Y725100D01*
X980548D01*
Y724300D01*
X979748D01*
X958436Y719158D02*
Y720758D01*
X960036D01*
Y719158D01*
X958436D01*
X958836Y719558D02*
Y720358D01*
X959636D01*
Y719558D01*
X958836D01*
X833848Y709400D02*
Y711000D01*
X835448D01*
Y709400D01*
X833848D01*
X834248Y709800D02*
Y710600D01*
X835048D01*
Y709800D01*
X834248D01*
X788848Y718270D02*
Y719870D01*
X790448D01*
Y718270D01*
X788848D01*
X789248Y718670D02*
Y719470D01*
X790048D01*
Y718670D01*
X789248D01*
X928934Y743774D02*
Y745374D01*
X930534D01*
Y743774D01*
X928934D01*
X929335Y744174D02*
Y744974D01*
X930134D01*
Y744174D01*
X929335D01*
X928934Y749006D02*
Y750606D01*
X930534D01*
Y749006D01*
X928934D01*
X929335Y749406D02*
Y750206D01*
X930134D01*
Y749406D01*
X929335D01*
X952848Y727400D02*
Y729000D01*
X954448D01*
Y727400D01*
X952848D01*
X953248Y727800D02*
Y728600D01*
X954048D01*
Y727800D01*
X953248D01*
X951848Y714400D02*
Y716000D01*
X953448D01*
Y714400D01*
X951848D01*
X952248Y714800D02*
Y715600D01*
X953048D01*
Y714800D01*
X952248D01*
X957848Y714400D02*
Y716000D01*
X959448D01*
Y714400D01*
X957848D01*
X958248Y714800D02*
Y715600D01*
X959048D01*
Y714800D01*
X958248D01*
X954848Y723400D02*
Y725000D01*
X956448D01*
Y723400D01*
X954848D01*
X955248Y723800D02*
Y724600D01*
X956048D01*
Y723800D01*
X955248D01*
X929409Y583525D02*
Y585124D01*
X931009D01*
Y583525D01*
X929409D01*
X929809Y583924D02*
Y584725D01*
X930609D01*
Y583924D01*
X929809D01*
X832848Y571900D02*
Y573500D01*
X834448D01*
Y571900D01*
X832848D01*
X833248Y572300D02*
Y573100D01*
X834048D01*
Y572300D01*
X833248D01*
X828848Y491339D02*
Y492939D01*
X830448D01*
Y491339D01*
X828848D01*
X829248Y491739D02*
Y492539D01*
X830048D01*
Y491739D01*
X829248D01*
X909848Y624400D02*
Y626000D01*
X911448D01*
Y624400D01*
X909848D01*
X910248Y624800D02*
Y625600D01*
X911048D01*
Y624800D01*
X910248D01*
X926221Y635278D02*
Y636878D01*
X927821D01*
Y635278D01*
X926221D01*
X926621Y635678D02*
Y636478D01*
X927421D01*
Y635678D01*
X926621D01*
X929430Y715900D02*
Y717500D01*
X931030D01*
Y715900D01*
X929430D01*
X929830Y716300D02*
Y717100D01*
X930630D01*
Y716300D01*
X929830D01*
X943488Y620244D02*
Y621844D01*
X945088D01*
Y620244D01*
X943488D01*
X943888Y620644D02*
Y621444D01*
X944688D01*
Y620644D01*
X943888D01*
X842848Y571900D02*
Y573500D01*
X844448D01*
Y571900D01*
X842848D01*
X843248Y572300D02*
Y573100D01*
X844048D01*
Y572300D01*
X843248D01*
X826348Y466900D02*
Y468500D01*
X827948D01*
Y466900D01*
X826348D01*
X826748Y467300D02*
Y468100D01*
X827548D01*
Y467300D01*
X826748D01*
X813487Y659928D02*
Y661527D01*
X815087D01*
Y659928D01*
X813487D01*
X813887Y660327D02*
Y661128D01*
X814687D01*
Y660327D01*
X813887D01*
X788075Y659920D02*
Y661520D01*
X789675D01*
Y659920D01*
X788075D01*
X788475Y660320D02*
Y661120D01*
X789275D01*
Y660320D01*
X788475D01*
X857848Y499900D02*
Y501500D01*
X859448D01*
Y499900D01*
X857848D01*
X858248Y500300D02*
Y501100D01*
X859048D01*
Y500300D01*
X858248D01*
X850080Y588132D02*
Y589732D01*
X851680D01*
Y588132D01*
X850080D01*
X850480Y588532D02*
Y589332D01*
X851280D01*
Y588532D01*
X850480D01*
X788648Y781400D02*
X789048Y781800D01*
X789448D01*
X789048Y782200D01*
X789448Y782600D01*
X789048D01*
X788648Y783000D01*
X788248Y782600D01*
X787848D01*
X788248Y782200D01*
X787848Y781800D01*
X788248D01*
X788648Y781400D01*
Y781800D02*
X788848Y782000D01*
X789048D01*
X788848Y782200D01*
X789048Y782400D01*
X788848D01*
X788648Y782600D01*
X788448Y782400D01*
X788248D01*
X788448Y782200D01*
X788248Y782000D01*
X788448D01*
X788648Y781800D01*
X788075Y664880D02*
Y666480D01*
X789675D01*
Y664880D01*
X788075D01*
X788475Y665280D02*
Y666080D01*
X789275D01*
Y665280D01*
X788475D01*
X788348Y693900D02*
Y695500D01*
X789948D01*
Y693900D01*
X788348D01*
X788748Y694300D02*
Y695100D01*
X789548D01*
Y694300D01*
X788748D01*
X858348Y577900D02*
Y579500D01*
X859948D01*
Y577900D01*
X858348D01*
X858748Y578300D02*
Y579100D01*
X859548D01*
Y578300D01*
X858748D01*
X875348Y579400D02*
Y581000D01*
X876948D01*
Y579400D01*
X875348D01*
X875748Y579800D02*
Y580600D01*
X876548D01*
Y579800D01*
X875748D01*
X875348Y567100D02*
Y568700D01*
X876948D01*
Y567100D01*
X875348D01*
X875748Y567500D02*
Y568300D01*
X876548D01*
Y567500D01*
X875748D01*
X870015Y584400D02*
Y586000D01*
X871615D01*
Y584400D01*
X870015D01*
X870415Y584800D02*
Y585600D01*
X871215D01*
Y584800D01*
X870415D01*
X867348Y588900D02*
Y590500D01*
X868948D01*
Y588900D01*
X867348D01*
X867748Y589300D02*
Y590100D01*
X868548D01*
Y589300D01*
X867748D01*
X858260Y568523D02*
Y570122D01*
X859860D01*
Y568523D01*
X858260D01*
X858660Y568923D02*
Y569723D01*
X859460D01*
Y568923D01*
X858660D01*
X885348Y588400D02*
Y590000D01*
X886948D01*
Y588400D01*
X885348D01*
X885748Y588800D02*
Y589600D01*
X886548D01*
Y588800D01*
X885748D01*
X891348Y583900D02*
Y585500D01*
X892948D01*
Y583900D01*
X891348D01*
X891748Y584300D02*
Y585100D01*
X892548D01*
Y584300D01*
X891748D01*
X890348Y588400D02*
Y590000D01*
X891948D01*
Y588400D01*
X890348D01*
X890748Y588800D02*
Y589600D01*
X891548D01*
Y588800D01*
X890748D01*
X880348Y573900D02*
Y575500D01*
X881948D01*
Y573900D01*
X880348D01*
X880748Y574300D02*
Y575100D01*
X881548D01*
Y574300D01*
X880748D01*
X887848Y579400D02*
Y581000D01*
X889448D01*
Y579400D01*
X887848D01*
X888248Y579800D02*
Y580600D01*
X889048D01*
Y579800D01*
X888248D01*
X887848Y573400D02*
Y575000D01*
X889448D01*
Y573400D01*
X887848D01*
X888248Y573800D02*
Y574600D01*
X889048D01*
Y573800D01*
X888248D01*
X921248Y578900D02*
Y580500D01*
X922848D01*
Y578900D01*
X921248D01*
X921648Y579300D02*
Y580100D01*
X922448D01*
Y579300D01*
X921648D01*
X808857Y649391D02*
Y650991D01*
X810457D01*
Y649391D01*
X808857D01*
X809257Y649791D02*
Y650591D01*
X810057D01*
Y649791D01*
X809257D01*
X915848Y644400D02*
Y646000D01*
X917448D01*
Y644400D01*
X915848D01*
X916248Y644800D02*
Y645600D01*
X917048D01*
Y644800D01*
X916248D01*
X911348Y660400D02*
Y662000D01*
X912948D01*
Y660400D01*
X911348D01*
X911748Y660800D02*
Y661600D01*
X912548D01*
Y660800D01*
X911748D01*
X925111Y650046D02*
Y651646D01*
X926711D01*
Y650046D01*
X925111D01*
X925511Y650446D02*
Y651246D01*
X926311D01*
Y650446D01*
X925511D01*
X912550Y649102D02*
Y650702D01*
X914150D01*
Y649102D01*
X912550D01*
X912950Y649502D02*
Y650302D01*
X913750D01*
Y649502D01*
X912950D01*
X923848Y645400D02*
Y647000D01*
X925448D01*
Y645400D01*
X923848D01*
X924248Y645800D02*
Y646600D01*
X925048D01*
Y645800D01*
X924248D01*
D132*
X860854Y466269D02*
G03*
X860854Y466269I-800J0D01*
G01*
X841168D02*
G03*
X841168Y466269I-800J0D01*
G01*
X947200Y761700D02*
G03*
X947200Y761700I-800J0D01*
G01*
X958700Y749700D02*
G03*
X958700Y749700I-800J0D01*
G01*
X945200Y715200D02*
G03*
X945200Y715200I-800J0D01*
G01*
X948200Y743200D02*
G03*
X948200Y743200I-800J0D01*
G01*
X922700Y655700D02*
G03*
X922700Y655700I-800J0D01*
G01*
X897700Y592200D02*
G03*
X897700Y592200I-800J0D01*
G01*
X885200Y562700D02*
G03*
X885200Y562700I-800J0D01*
G01*
X811200Y460700D02*
G03*
X811200Y460700I-800J0D01*
G01*
X832200Y480700D02*
G03*
X832200Y480700I-800J0D01*
G01*
X866200D02*
G03*
X866200Y480700I-800J0D01*
G01*
X815200Y665700D02*
G03*
X815200Y665700I-800J0D01*
G01*
X822200Y678700D02*
G03*
X822200Y678700I-800J0D01*
G01*
X852200Y705700D02*
G03*
X852200Y705700I-800J0D01*
G01*
X774759Y761598D02*
G03*
X774759Y761598I-800J0D01*
G01*
X762948Y706480D02*
G03*
X762948Y706480I-800J0D01*
G01*
Y674984D02*
G03*
X762948Y674984I-800J0D01*
G01*
X775448Y635200D02*
G03*
X775448Y635200I-800J0D01*
G01*
D133*
X946800Y761700D02*
G03*
X946800Y761700I-400J0D01*
G01*
X958300Y749700D02*
G03*
X958300Y749700I-400J0D01*
G01*
X944800Y715200D02*
G03*
X944800Y715200I-400J0D01*
G01*
X947800Y743200D02*
G03*
X947800Y743200I-400J0D01*
G01*
X922300Y655700D02*
G03*
X922300Y655700I-400J0D01*
G01*
X897300Y592200D02*
G03*
X897300Y592200I-400J0D01*
G01*
X884800Y562700D02*
G03*
X884800Y562700I-400J0D01*
G01*
X810800Y460700D02*
G03*
X810800Y460700I-400J0D01*
G01*
X831800Y480700D02*
G03*
X831800Y480700I-400J0D01*
G01*
X865800D02*
G03*
X865800Y480700I-400J0D01*
G01*
X814800Y665700D02*
G03*
X814800Y665700I-400J0D01*
G01*
X821800Y678700D02*
G03*
X821800Y678700I-400J0D01*
G01*
X851800Y705700D02*
G03*
X851800Y705700I-400J0D01*
G01*
X774359Y761598D02*
G03*
X774359Y761598I-400J0D01*
G01*
X762548Y706480D02*
G03*
X762548Y706480I-400J0D01*
G01*
Y674984D02*
G03*
X762548Y674984I-400J0D01*
G01*
X775048Y635200D02*
G03*
X775048Y635200I-400J0D01*
G01*
M02*
