G04*
G04 #@! TF.GenerationSoftware,Altium Limited,Altium Designer,22.5.1 (42)*
G04*
G04 Layer_Color=255*
%FSLAX25Y25*%
%MOIN*%
G70*
G04*
G04 #@! TF.SameCoordinates,5F65DDE1-41B9-4BDB-98F2-9488EF11E66D*
G04*
G04*
G04 #@! TF.FilePolarity,Positive*
G04*
G01*
G75*
%ADD121C,0.06693*%
%ADD122C,0.06102*%
%ADD123R,0.06102X0.06102*%
%ADD124C,0.01181*%
%ADD125O,0.04331X0.08661*%
%ADD126O,0.05118X0.10236*%
%ADD127O,0.03740X0.07480*%
%ADD128C,0.05709*%
%ADD129C,0.11811*%
D121*
X941006Y695495D02*
D03*
Y669905D02*
D03*
X923290Y695495D02*
D03*
Y669905D02*
D03*
X971184Y583078D02*
D03*
X945594D02*
D03*
X971184Y600794D02*
D03*
X945594D02*
D03*
D122*
X806648Y570900D02*
D03*
Y580900D02*
D03*
X796648D02*
D03*
Y570900D02*
D03*
Y590900D02*
D03*
X806648D02*
D03*
X796648Y600900D02*
D03*
X806648D02*
D03*
X796648Y610900D02*
D03*
X806648D02*
D03*
Y620900D02*
D03*
X796648Y530900D02*
D03*
X806648D02*
D03*
X796648Y540900D02*
D03*
X806648D02*
D03*
X796648Y550900D02*
D03*
X806648D02*
D03*
Y560900D02*
D03*
X796648D02*
D03*
X921648Y709200D02*
D03*
X911648D02*
D03*
X901648D02*
D03*
X891648D02*
D03*
D123*
X796648Y620900D02*
D03*
X881648Y709200D02*
D03*
D124*
X859243Y631213D02*
D03*
X870266D02*
D03*
Y636724D02*
D03*
X864754D02*
D03*
X859243D02*
D03*
X861955Y639524D02*
D03*
X867467D02*
D03*
Y634012D02*
D03*
X861955D02*
D03*
X867467Y628500D02*
D03*
X861955D02*
D03*
D125*
X958531Y770198D02*
D03*
X924515D02*
D03*
D126*
X959712Y791300D02*
D03*
X923334D02*
D03*
D127*
X863991Y455639D02*
D03*
X836432D02*
D03*
D128*
X860054Y466269D02*
D03*
X840368D02*
D03*
D129*
X839648Y775200D02*
D03*
X864648D02*
D03*
M02*
