G04*
G04 #@! TF.GenerationSoftware,Altium Limited,Altium Designer,22.5.1 (42)*
G04*
G04 Layer_Physical_Order=2*
G04 Layer_Color=36540*
%FSLAX25Y25*%
%MOIN*%
G70*
G04*
G04 #@! TF.SameCoordinates,5F65DDE1-41B9-4BDB-98F2-9488EF11E66D*
G04*
G04*
G04 #@! TF.FilePolarity,Positive*
G04*
G01*
G75*
%ADD14C,0.01000*%
%ADD30C,0.03000*%
%ADD121C,0.06693*%
%ADD122C,0.06102*%
%ADD124C,0.01181*%
%ADD125O,0.04331X0.08661*%
%ADD126O,0.05118X0.10236*%
%ADD127O,0.03740X0.07480*%
%ADD128C,0.05709*%
%ADD129C,0.11811*%
%ADD130C,0.19685*%
%ADD131C,0.01968*%
G36*
X998550Y443503D02*
X748187D01*
Y799397D01*
X998550D01*
Y443503D01*
D02*
G37*
%LPC*%
G36*
X923534Y796817D02*
Y791500D01*
X926319D01*
Y793859D01*
X926217Y794632D01*
X925919Y795351D01*
X925444Y795969D01*
X924826Y796444D01*
X924107Y796742D01*
X923534Y796817D01*
D02*
G37*
G36*
X923134D02*
X922561Y796742D01*
X921842Y796444D01*
X921224Y795969D01*
X920749Y795351D01*
X920451Y794632D01*
X920349Y793859D01*
Y791500D01*
X923134D01*
Y796817D01*
D02*
G37*
G36*
X959912Y796817D02*
Y791500D01*
X962696D01*
Y793859D01*
X962595Y794632D01*
X962297Y795351D01*
X961822Y795969D01*
X961204Y796444D01*
X960484Y796742D01*
X959912Y796817D01*
D02*
G37*
G36*
X959512Y796817D02*
X958939Y796742D01*
X958220Y796444D01*
X957602Y795969D01*
X957127Y795351D01*
X956829Y794632D01*
X956727Y793859D01*
Y791500D01*
X959512D01*
Y796817D01*
D02*
G37*
G36*
Y791100D02*
X956727D01*
Y788741D01*
X956829Y787968D01*
X957127Y787249D01*
X957602Y786631D01*
X958220Y786156D01*
X958939Y785858D01*
X959512Y785783D01*
Y791100D01*
D02*
G37*
G36*
X923134Y791100D02*
X920349D01*
Y788741D01*
X920451Y787968D01*
X920749Y787249D01*
X921224Y786631D01*
X921842Y786156D01*
X922561Y785858D01*
X923134Y785783D01*
Y791100D01*
D02*
G37*
G36*
X926319D02*
X923534D01*
Y785783D01*
X924107Y785858D01*
X924826Y786156D01*
X925444Y786631D01*
X925919Y787249D01*
X926217Y787968D01*
X926319Y788741D01*
Y791100D01*
D02*
G37*
G36*
X962696Y791100D02*
X959912D01*
Y785783D01*
X960484Y785858D01*
X961204Y786156D01*
X961822Y786631D01*
X962297Y787249D01*
X962595Y787968D01*
X962696Y788741D01*
Y791100D01*
D02*
G37*
G36*
X840269Y781506D02*
X839848D01*
Y775400D01*
X845954D01*
Y775821D01*
X845711Y777039D01*
X845236Y778187D01*
X844546Y779220D01*
X843668Y780098D01*
X842635Y780788D01*
X841487Y781263D01*
X840269Y781506D01*
D02*
G37*
G36*
X839448D02*
X839027D01*
X837809Y781263D01*
X836661Y780788D01*
X835629Y780098D01*
X834750Y779220D01*
X834060Y778187D01*
X833585Y777039D01*
X833343Y775821D01*
Y775400D01*
X839448D01*
Y781506D01*
D02*
G37*
G36*
X958731Y774924D02*
Y770398D01*
X961118D01*
Y772363D01*
X961030Y773033D01*
X960772Y773657D01*
X960361Y774193D01*
X959825Y774604D01*
X959200Y774862D01*
X958731Y774924D01*
D02*
G37*
G36*
X958331Y774924D02*
X957861Y774862D01*
X957237Y774604D01*
X956701Y774193D01*
X956290Y773657D01*
X956032Y773033D01*
X955943Y772363D01*
Y770398D01*
X958331D01*
Y774924D01*
D02*
G37*
G36*
X924715Y774924D02*
Y770398D01*
X927103D01*
Y772363D01*
X927014Y773033D01*
X926756Y773657D01*
X926345Y774193D01*
X925809Y774604D01*
X925185Y774862D01*
X924715Y774924D01*
D02*
G37*
G36*
X924315Y774924D02*
X923845Y774862D01*
X923221Y774604D01*
X922686Y774193D01*
X922274Y773657D01*
X922016Y773033D01*
X921928Y772363D01*
Y770398D01*
X924315D01*
Y774924D01*
D02*
G37*
G36*
X865269Y781506D02*
X864027D01*
X862809Y781263D01*
X861661Y780788D01*
X860629Y780098D01*
X859750Y779220D01*
X859060Y778187D01*
X858585Y777039D01*
X858343Y775821D01*
Y774579D01*
X858585Y773361D01*
X859060Y772213D01*
X859750Y771180D01*
X860629Y770302D01*
X861661Y769612D01*
X862809Y769137D01*
X864027Y768894D01*
X865269D01*
X866487Y769137D01*
X867635Y769612D01*
X868668Y770302D01*
X869546Y771180D01*
X870236Y772213D01*
X870711Y773361D01*
X870954Y774579D01*
Y775821D01*
X870711Y777039D01*
X870236Y778187D01*
X869546Y779220D01*
X868668Y780098D01*
X867635Y780788D01*
X866487Y781263D01*
X865269Y781506D01*
D02*
G37*
G36*
X845954Y775000D02*
X839848D01*
Y768894D01*
X840269D01*
X841487Y769137D01*
X842635Y769612D01*
X843668Y770302D01*
X844546Y771180D01*
X845236Y772213D01*
X845711Y773361D01*
X845954Y774579D01*
Y775000D01*
D02*
G37*
G36*
X839448D02*
X833343D01*
Y774579D01*
X833585Y773361D01*
X834060Y772213D01*
X834750Y771180D01*
X835629Y770302D01*
X836661Y769612D01*
X837809Y769137D01*
X839027Y768894D01*
X839448D01*
Y775000D01*
D02*
G37*
G36*
X961118Y769998D02*
X958731D01*
Y765471D01*
X959200Y765533D01*
X959825Y765792D01*
X960361Y766203D01*
X960772Y766739D01*
X961030Y767363D01*
X961118Y768032D01*
Y769998D01*
D02*
G37*
G36*
X927103Y769998D02*
X924715D01*
Y765471D01*
X925185Y765533D01*
X925809Y765792D01*
X926345Y766203D01*
X926756Y766739D01*
X927014Y767363D01*
X927103Y768032D01*
Y769998D01*
D02*
G37*
G36*
X924315D02*
X921928D01*
Y768032D01*
X922016Y767363D01*
X922274Y766739D01*
X922686Y766203D01*
X923221Y765792D01*
X923845Y765533D01*
X924315Y765471D01*
Y769998D01*
D02*
G37*
G36*
X958331Y769998D02*
X955943D01*
Y768032D01*
X956032Y767363D01*
X956290Y766739D01*
X956701Y766203D01*
X957237Y765792D01*
X957861Y765533D01*
X958331Y765471D01*
Y769998D01*
D02*
G37*
G36*
X930132Y746574D02*
X929337D01*
X928602Y746270D01*
X928039Y745707D01*
X927734Y744972D01*
Y744176D01*
X928039Y743441D01*
X928602Y742878D01*
X929337Y742574D01*
X930132D01*
X930867Y742878D01*
X931430Y743441D01*
X931734Y744176D01*
Y744972D01*
X931430Y745707D01*
X930867Y746270D01*
X930132Y746574D01*
D02*
G37*
G36*
X980546Y726700D02*
X979750D01*
X979015Y726396D01*
X978453Y725833D01*
X978148Y725098D01*
Y724302D01*
X978453Y723567D01*
X979015Y723004D01*
X979750Y722700D01*
X980546D01*
X981281Y723004D01*
X981844Y723567D01*
X982148Y724302D01*
Y725098D01*
X981844Y725833D01*
X981281Y726396D01*
X980546Y726700D01*
D02*
G37*
G36*
X954046Y730200D02*
X953250D01*
X952515Y729896D01*
X951953Y729333D01*
X951648Y728598D01*
Y727802D01*
X951953Y727067D01*
X952515Y726505D01*
X953250Y726200D01*
X954046D01*
X954160Y726247D01*
X954443Y725823D01*
X953953Y725333D01*
X953648Y724598D01*
Y723802D01*
X953953Y723067D01*
X954515Y722505D01*
X955250Y722200D01*
X956046D01*
X956781Y722505D01*
X957344Y723067D01*
X957648Y723802D01*
Y724598D01*
X957344Y725333D01*
X956781Y725896D01*
X956046Y726200D01*
X955250D01*
X955136Y726153D01*
X954853Y726577D01*
X955344Y727067D01*
X955648Y727802D01*
Y728598D01*
X955344Y729333D01*
X954781Y729896D01*
X954046Y730200D01*
D02*
G37*
G36*
X959634Y721958D02*
X958839D01*
X958104Y721653D01*
X957541Y721091D01*
X957236Y720356D01*
Y719560D01*
X957541Y718825D01*
X958104Y718262D01*
X958839Y717958D01*
X959634D01*
X960369Y718262D01*
X960932Y718825D01*
X961236Y719560D01*
Y720356D01*
X960932Y721091D01*
X960369Y721653D01*
X959634Y721958D01*
D02*
G37*
G36*
X790046Y721070D02*
X789251D01*
X788516Y720766D01*
X787953Y720203D01*
X787648Y719468D01*
Y718672D01*
X787953Y717937D01*
X788516Y717375D01*
X789251Y717070D01*
X790046D01*
X790781Y717375D01*
X791344Y717937D01*
X791648Y718672D01*
Y719468D01*
X791344Y720203D01*
X790781Y720766D01*
X790046Y721070D01*
D02*
G37*
G36*
X930628Y718700D02*
X929832D01*
X929097Y718396D01*
X928534Y717833D01*
X928230Y717098D01*
Y716302D01*
X928534Y715567D01*
X929097Y715004D01*
X929832Y714700D01*
X930628D01*
X931363Y715004D01*
X931925Y715567D01*
X932230Y716302D01*
Y717098D01*
X931925Y717833D01*
X931363Y718396D01*
X930628Y718700D01*
D02*
G37*
G36*
X959046Y717200D02*
X958250D01*
X957515Y716896D01*
X956953Y716333D01*
X956648Y715598D01*
Y714802D01*
X956953Y714067D01*
X957515Y713505D01*
X958250Y713200D01*
X959046D01*
X959781Y713505D01*
X960344Y714067D01*
X960648Y714802D01*
Y715598D01*
X960344Y716333D01*
X959781Y716896D01*
X959046Y717200D01*
D02*
G37*
G36*
X953046D02*
X952250D01*
X951515Y716896D01*
X950953Y716333D01*
X950648Y715598D01*
Y714802D01*
X950953Y714067D01*
X951515Y713505D01*
X952250Y713200D01*
X953046D01*
X953781Y713505D01*
X954344Y714067D01*
X954648Y714802D01*
Y715598D01*
X954344Y716333D01*
X953781Y716896D01*
X953046Y717200D01*
D02*
G37*
G36*
X892102Y712651D02*
X891848D01*
Y709400D01*
X895099D01*
Y709654D01*
X894864Y710532D01*
X894410Y711319D01*
X893767Y711962D01*
X892980Y712416D01*
X892102Y712651D01*
D02*
G37*
G36*
X891448D02*
X891194D01*
X890316Y712416D01*
X889529Y711962D01*
X888886Y711319D01*
X888432Y710532D01*
X888197Y709654D01*
Y709400D01*
X891448D01*
Y712651D01*
D02*
G37*
G36*
X922102D02*
X921194D01*
X920316Y712416D01*
X919529Y711962D01*
X918886Y711319D01*
X918432Y710532D01*
X918197Y709654D01*
Y708746D01*
X918432Y707868D01*
X918886Y707081D01*
X919529Y706438D01*
X920316Y705984D01*
X921194Y705749D01*
X922102D01*
X922980Y705984D01*
X923767Y706438D01*
X924410Y707081D01*
X924864Y707868D01*
X925099Y708746D01*
Y709654D01*
X924864Y710532D01*
X924410Y711319D01*
X923767Y711962D01*
X922980Y712416D01*
X922102Y712651D01*
D02*
G37*
G36*
X912102D02*
X911194D01*
X910316Y712416D01*
X909529Y711962D01*
X908886Y711319D01*
X908432Y710532D01*
X908197Y709654D01*
Y708746D01*
X908432Y707868D01*
X908886Y707081D01*
X909529Y706438D01*
X910316Y705984D01*
X911194Y705749D01*
X912102D01*
X912980Y705984D01*
X913767Y706438D01*
X914410Y707081D01*
X914864Y707868D01*
X915099Y708746D01*
Y709654D01*
X914864Y710532D01*
X914410Y711319D01*
X913767Y711962D01*
X912980Y712416D01*
X912102Y712651D01*
D02*
G37*
G36*
X902102D02*
X901194D01*
X900316Y712416D01*
X899529Y711962D01*
X898886Y711319D01*
X898432Y710532D01*
X898197Y709654D01*
Y708746D01*
X898432Y707868D01*
X898886Y707081D01*
X899529Y706438D01*
X900316Y705984D01*
X901194Y705749D01*
X902102D01*
X902980Y705984D01*
X903767Y706438D01*
X904410Y707081D01*
X904864Y707868D01*
X905099Y708746D01*
Y709654D01*
X904864Y710532D01*
X904410Y711319D01*
X903767Y711962D01*
X902980Y712416D01*
X902102Y712651D01*
D02*
G37*
G36*
X895099Y709000D02*
X891848D01*
Y705749D01*
X892102D01*
X892980Y705984D01*
X893767Y706438D01*
X894410Y707081D01*
X894864Y707868D01*
X895099Y708746D01*
Y709000D01*
D02*
G37*
G36*
X891448D02*
X888197D01*
Y708746D01*
X888432Y707868D01*
X888886Y707081D01*
X889529Y706438D01*
X890316Y705984D01*
X891194Y705749D01*
X891448D01*
Y709000D01*
D02*
G37*
G36*
X885099Y712651D02*
X878197D01*
Y705749D01*
X885099D01*
Y712651D01*
D02*
G37*
G36*
X923783Y699242D02*
X923490D01*
Y695695D01*
X927036D01*
Y695989D01*
X926781Y696941D01*
X926288Y697796D01*
X925590Y698493D01*
X924736Y698986D01*
X923783Y699242D01*
D02*
G37*
G36*
X923090D02*
X922797D01*
X921844Y698986D01*
X920989Y698493D01*
X920292Y697796D01*
X919799Y696941D01*
X919543Y695989D01*
Y695695D01*
X923090D01*
Y699242D01*
D02*
G37*
G36*
X941500D02*
X940513D01*
X939560Y698986D01*
X938706Y698493D01*
X938008Y697796D01*
X937515Y696941D01*
X937260Y695989D01*
Y695002D01*
X937515Y694049D01*
X938008Y693195D01*
X938706Y692497D01*
X939560Y692004D01*
X940513Y691749D01*
X941500D01*
X942452Y692004D01*
X943307Y692497D01*
X944004Y693195D01*
X944497Y694049D01*
X944753Y695002D01*
Y695989D01*
X944497Y696941D01*
X944004Y697796D01*
X943307Y698493D01*
X942452Y698986D01*
X941500Y699242D01*
D02*
G37*
G36*
X927036Y695295D02*
X923490D01*
Y691749D01*
X923783D01*
X924736Y692004D01*
X925590Y692497D01*
X926288Y693195D01*
X926781Y694049D01*
X927036Y695002D01*
Y695295D01*
D02*
G37*
G36*
X923090D02*
X919543D01*
Y695002D01*
X919799Y694049D01*
X920292Y693195D01*
X920989Y692497D01*
X921844Y692004D01*
X922797Y691749D01*
X923090D01*
Y695295D01*
D02*
G37*
G36*
X776546Y687700D02*
X775750D01*
X775015Y687396D01*
X774453Y686833D01*
X774148Y686098D01*
Y685302D01*
X774453Y684567D01*
X775015Y684004D01*
X775750Y683700D01*
X776546D01*
X777281Y684004D01*
X777844Y684567D01*
X778148Y685302D01*
Y686098D01*
X777844Y686833D01*
X777281Y687396D01*
X776546Y687700D01*
D02*
G37*
G36*
X907148Y698503D02*
X829648D01*
X829341Y698442D01*
X829080Y698268D01*
X828906Y698007D01*
X828845Y697700D01*
Y669894D01*
X828906Y669587D01*
X829080Y669326D01*
X829341Y669152D01*
X829648Y669091D01*
X907148D01*
X907455Y669152D01*
X907716Y669326D01*
X907890Y669587D01*
X907951Y669894D01*
Y697700D01*
X907890Y698007D01*
X907716Y698268D01*
X907455Y698442D01*
X907148Y698503D01*
D02*
G37*
G36*
X941500Y673651D02*
X940513D01*
X939560Y673396D01*
X938706Y672903D01*
X938008Y672205D01*
X937515Y671351D01*
X937260Y670398D01*
Y669412D01*
X937515Y668459D01*
X938008Y667604D01*
X938706Y666907D01*
X939560Y666414D01*
X940513Y666158D01*
X941500D01*
X942452Y666414D01*
X943307Y666907D01*
X944004Y667604D01*
X944497Y668459D01*
X944753Y669412D01*
Y670398D01*
X944497Y671351D01*
X944004Y672205D01*
X943307Y672903D01*
X942452Y673396D01*
X941500Y673651D01*
D02*
G37*
G36*
X923783D02*
X922797D01*
X921844Y673396D01*
X920989Y672903D01*
X920292Y672205D01*
X919799Y671351D01*
X919543Y670398D01*
Y669412D01*
X919799Y668459D01*
X920292Y667604D01*
X920989Y666907D01*
X921844Y666414D01*
X922797Y666158D01*
X923783D01*
X924736Y666414D01*
X925590Y666907D01*
X926288Y667604D01*
X926781Y668459D01*
X927036Y669412D01*
Y670398D01*
X926781Y671351D01*
X926288Y672205D01*
X925590Y672903D01*
X924736Y673396D01*
X923783Y673651D01*
D02*
G37*
G36*
X910546Y668200D02*
X909750D01*
X909015Y667896D01*
X908453Y667333D01*
X908148Y666598D01*
Y665802D01*
X908453Y665067D01*
X909015Y664504D01*
X909750Y664200D01*
X910546D01*
X911281Y664504D01*
X911844Y665067D01*
X912148Y665802D01*
Y666598D01*
X911844Y667333D01*
X911281Y667896D01*
X910546Y668200D01*
D02*
G37*
G36*
X789273Y667680D02*
X788477D01*
X787742Y667376D01*
X787180Y666813D01*
X786875Y666078D01*
Y665282D01*
X787180Y664547D01*
X787742Y663985D01*
X788477Y663680D01*
X789273D01*
X790008Y663985D01*
X790571Y664547D01*
X790875Y665282D01*
Y666078D01*
X790571Y666813D01*
X790008Y667376D01*
X789273Y667680D01*
D02*
G37*
G36*
X912546Y663200D02*
X911750D01*
X911015Y662896D01*
X910453Y662333D01*
X910148Y661598D01*
Y660802D01*
X910453Y660067D01*
X911015Y659505D01*
X911750Y659200D01*
X912546D01*
X913281Y659505D01*
X913844Y660067D01*
X914148Y660802D01*
Y661598D01*
X913844Y662333D01*
X913281Y662896D01*
X912546Y663200D01*
D02*
G37*
G36*
X814685Y662727D02*
X813889D01*
X813154Y662423D01*
X812592Y661860D01*
X812287Y661125D01*
Y660330D01*
X812592Y659594D01*
X813154Y659032D01*
X813889Y658728D01*
X814685D01*
X815420Y659032D01*
X815983Y659594D01*
X816287Y660330D01*
Y661125D01*
X815983Y661860D01*
X815420Y662423D01*
X814685Y662727D01*
D02*
G37*
G36*
X789273Y662720D02*
X788477D01*
X787742Y662416D01*
X787180Y661853D01*
X786875Y661118D01*
Y660322D01*
X787180Y659587D01*
X787742Y659024D01*
X788477Y658720D01*
X789273D01*
X790008Y659024D01*
X790571Y659587D01*
X790875Y660322D01*
Y661118D01*
X790571Y661853D01*
X790008Y662416D01*
X789273Y662720D01*
D02*
G37*
G36*
X822046Y656200D02*
X821250D01*
X820515Y655896D01*
X819953Y655333D01*
X819648Y654598D01*
Y653802D01*
X819953Y653067D01*
X820515Y652504D01*
X821250Y652200D01*
X822046D01*
X822781Y652504D01*
X823344Y653067D01*
X823648Y653802D01*
Y654598D01*
X823344Y655333D01*
X822781Y655896D01*
X822046Y656200D01*
D02*
G37*
G36*
X926309Y652846D02*
X925514D01*
X924778Y652542D01*
X924216Y651979D01*
X923911Y651244D01*
Y650449D01*
X924216Y649714D01*
X924778Y649151D01*
X925514Y648846D01*
X926309D01*
X927044Y649151D01*
X927607Y649714D01*
X927911Y650449D01*
Y651244D01*
X927607Y651979D01*
X927044Y652542D01*
X926309Y652846D01*
D02*
G37*
G36*
X810054Y652191D02*
X809259D01*
X808524Y651887D01*
X807961Y651324D01*
X807657Y650589D01*
Y649794D01*
X807961Y649058D01*
X808524Y648496D01*
X809259Y648191D01*
X810054D01*
X810790Y648496D01*
X811352Y649058D01*
X811657Y649794D01*
Y650589D01*
X811352Y651324D01*
X810790Y651887D01*
X810054Y652191D01*
D02*
G37*
G36*
X913748Y651902D02*
X912952D01*
X912217Y651597D01*
X911654Y651035D01*
X911350Y650300D01*
Y649504D01*
X911654Y648769D01*
X912217Y648206D01*
X912952Y647902D01*
X913748D01*
X914483Y648206D01*
X915046Y648769D01*
X915350Y649504D01*
Y650300D01*
X915046Y651035D01*
X914483Y651597D01*
X913748Y651902D01*
D02*
G37*
G36*
X925046Y648200D02*
X924250D01*
X923515Y647896D01*
X922953Y647333D01*
X922648Y646598D01*
Y645802D01*
X922953Y645067D01*
X923515Y644504D01*
X924250Y644200D01*
X925046D01*
X925781Y644504D01*
X926344Y645067D01*
X926648Y645802D01*
Y646598D01*
X926344Y647333D01*
X925781Y647896D01*
X925046Y648200D01*
D02*
G37*
G36*
X953033Y646928D02*
X952442D01*
X951897Y646702D01*
X951479Y646285D01*
X951253Y645739D01*
Y645149D01*
X951479Y644603D01*
X951897Y644186D01*
X952442Y643960D01*
X953033D01*
X953578Y644186D01*
X953996Y644603D01*
X954222Y645149D01*
Y645739D01*
X953996Y646285D01*
X953578Y646702D01*
X953033Y646928D01*
D02*
G37*
G36*
X949096D02*
X948505D01*
X947960Y646702D01*
X947542Y646285D01*
X947316Y645739D01*
Y645149D01*
X947542Y644603D01*
X947960Y644186D01*
X948505Y643960D01*
X949096D01*
X949641Y644186D01*
X950059Y644603D01*
X950285Y645149D01*
Y645739D01*
X950059Y646285D01*
X949641Y646702D01*
X949096Y646928D01*
D02*
G37*
G36*
X945159D02*
X944568D01*
X944023Y646702D01*
X943605Y646285D01*
X943379Y645739D01*
Y645149D01*
X943605Y644603D01*
X944023Y644186D01*
X944568Y643960D01*
X945159D01*
X945704Y644186D01*
X946122Y644603D01*
X946348Y645149D01*
Y645739D01*
X946122Y646285D01*
X945704Y646702D01*
X945159Y646928D01*
D02*
G37*
G36*
X941222D02*
X940631D01*
X940086Y646702D01*
X939668Y646285D01*
X939442Y645739D01*
Y645149D01*
X939668Y644603D01*
X940086Y644186D01*
X940631Y643960D01*
X941222D01*
X941767Y644186D01*
X942185Y644603D01*
X942411Y645149D01*
Y645739D01*
X942185Y646285D01*
X941767Y646702D01*
X941222Y646928D01*
D02*
G37*
G36*
X917046Y647200D02*
X916250D01*
X915515Y646896D01*
X914953Y646333D01*
X914648Y645598D01*
Y644802D01*
X914953Y644067D01*
X915515Y643504D01*
X916250Y643200D01*
X917046D01*
X917781Y643504D01*
X918344Y644067D01*
X918648Y644802D01*
Y645598D01*
X918344Y646333D01*
X917781Y646896D01*
X917046Y647200D01*
D02*
G37*
G36*
X813054Y647191D02*
X812259D01*
X811524Y646887D01*
X810961Y646324D01*
X810657Y645589D01*
Y644794D01*
X810961Y644059D01*
X811524Y643496D01*
X812259Y643191D01*
X813054D01*
X813790Y643496D01*
X814352Y644059D01*
X814657Y644794D01*
Y645589D01*
X814352Y646324D01*
X813790Y646887D01*
X813054Y647191D01*
D02*
G37*
G36*
X953033Y642991D02*
X952442D01*
X951897Y642765D01*
X951479Y642348D01*
X951253Y641802D01*
Y641212D01*
X951479Y640666D01*
X951897Y640249D01*
X952442Y640023D01*
X953033D01*
X953578Y640249D01*
X953996Y640666D01*
X954222Y641212D01*
Y641802D01*
X953996Y642348D01*
X953578Y642765D01*
X953033Y642991D01*
D02*
G37*
G36*
X949096D02*
X948505D01*
X947960Y642765D01*
X947542Y642348D01*
X947316Y641802D01*
Y641212D01*
X947542Y640666D01*
X947960Y640249D01*
X948505Y640023D01*
X949096D01*
X949641Y640249D01*
X950059Y640666D01*
X950285Y641212D01*
Y641802D01*
X950059Y642348D01*
X949641Y642765D01*
X949096Y642991D01*
D02*
G37*
G36*
X945159D02*
X944568D01*
X944023Y642765D01*
X943605Y642348D01*
X943379Y641802D01*
Y641212D01*
X943605Y640666D01*
X944023Y640249D01*
X944568Y640023D01*
X945159D01*
X945704Y640249D01*
X946122Y640666D01*
X946348Y641212D01*
Y641802D01*
X946122Y642348D01*
X945704Y642765D01*
X945159Y642991D01*
D02*
G37*
G36*
X941222D02*
X940631D01*
X940086Y642765D01*
X939668Y642348D01*
X939442Y641802D01*
Y641212D01*
X939668Y640666D01*
X940086Y640249D01*
X940631Y640023D01*
X941222D01*
X941767Y640249D01*
X942185Y640666D01*
X942411Y641212D01*
Y641802D01*
X942185Y642348D01*
X941767Y642765D01*
X941222Y642991D01*
D02*
G37*
G36*
X953033Y639054D02*
X952442D01*
X951897Y638828D01*
X951479Y638411D01*
X951253Y637865D01*
Y637275D01*
X951479Y636729D01*
X951897Y636312D01*
X952442Y636086D01*
X953033D01*
X953578Y636312D01*
X953996Y636729D01*
X954222Y637275D01*
Y637865D01*
X953996Y638411D01*
X953578Y638828D01*
X953033Y639054D01*
D02*
G37*
G36*
X949096D02*
X948505D01*
X947960Y638828D01*
X947542Y638411D01*
X947316Y637865D01*
Y637275D01*
X947542Y636729D01*
X947960Y636312D01*
X948505Y636086D01*
X949096D01*
X949641Y636312D01*
X950059Y636729D01*
X950285Y637275D01*
Y637865D01*
X950059Y638411D01*
X949641Y638828D01*
X949096Y639054D01*
D02*
G37*
G36*
X945159D02*
X944568D01*
X944023Y638828D01*
X943605Y638411D01*
X943379Y637865D01*
Y637275D01*
X943605Y636729D01*
X944023Y636312D01*
X944568Y636086D01*
X945159D01*
X945704Y636312D01*
X946122Y636729D01*
X946348Y637275D01*
Y637865D01*
X946122Y638411D01*
X945704Y638828D01*
X945159Y639054D01*
D02*
G37*
G36*
X941222D02*
X940631D01*
X940086Y638828D01*
X939668Y638411D01*
X939442Y637865D01*
Y637275D01*
X939668Y636729D01*
X940086Y636312D01*
X940631Y636086D01*
X941222D01*
X941767Y636312D01*
X942185Y636729D01*
X942411Y637275D01*
Y637865D01*
X942185Y638411D01*
X941767Y638828D01*
X941222Y639054D01*
D02*
G37*
G36*
X927418Y638078D02*
X926623D01*
X925888Y637773D01*
X925325Y637211D01*
X925021Y636476D01*
Y635680D01*
X925325Y634945D01*
X925888Y634382D01*
X926623Y634078D01*
X927418D01*
X928154Y634382D01*
X928716Y634945D01*
X929021Y635680D01*
Y636476D01*
X928716Y637211D01*
X928154Y637773D01*
X927418Y638078D01*
D02*
G37*
G36*
X911046Y627200D02*
X910250D01*
X909515Y626896D01*
X908953Y626333D01*
X908648Y625598D01*
Y624802D01*
X908953Y624067D01*
X909515Y623504D01*
X910250Y623200D01*
X911046D01*
X911781Y623504D01*
X912344Y624067D01*
X912648Y624802D01*
Y625598D01*
X912344Y626333D01*
X911781Y626896D01*
X911046Y627200D01*
D02*
G37*
G36*
X944686Y623044D02*
X943891D01*
X943155Y622740D01*
X942593Y622177D01*
X942288Y621442D01*
Y620646D01*
X942593Y619911D01*
X943155Y619349D01*
X943891Y619044D01*
X944686D01*
X945421Y619349D01*
X945984Y619911D01*
X946288Y620646D01*
Y621442D01*
X945984Y622177D01*
X945421Y622740D01*
X944686Y623044D01*
D02*
G37*
G36*
X807102Y624351D02*
X806194D01*
X805316Y624116D01*
X804529Y623662D01*
X803886Y623019D01*
X803432Y622232D01*
X803197Y621354D01*
Y620446D01*
X803432Y619568D01*
X803886Y618781D01*
X804529Y618138D01*
X805316Y617684D01*
X806194Y617449D01*
X807102D01*
X807980Y617684D01*
X808767Y618138D01*
X809410Y618781D01*
X809864Y619568D01*
X810099Y620446D01*
Y621354D01*
X809864Y622232D01*
X809410Y623019D01*
X808767Y623662D01*
X807980Y624116D01*
X807102Y624351D01*
D02*
G37*
G36*
X800099D02*
X793197D01*
Y617449D01*
X800099D01*
Y624351D01*
D02*
G37*
G36*
X807102Y614351D02*
X806194D01*
X805316Y614116D01*
X804529Y613662D01*
X803886Y613019D01*
X803432Y612232D01*
X803197Y611354D01*
Y610446D01*
X803432Y609568D01*
X803886Y608781D01*
X804529Y608138D01*
X805316Y607684D01*
X806194Y607449D01*
X807102D01*
X807980Y607684D01*
X808767Y608138D01*
X809410Y608781D01*
X809864Y609568D01*
X810099Y610446D01*
Y611354D01*
X809864Y612232D01*
X809410Y613019D01*
X808767Y613662D01*
X807980Y614116D01*
X807102Y614351D01*
D02*
G37*
G36*
X797102D02*
X796194D01*
X795316Y614116D01*
X794529Y613662D01*
X793886Y613019D01*
X793432Y612232D01*
X793197Y611354D01*
Y610446D01*
X793432Y609568D01*
X793886Y608781D01*
X794529Y608138D01*
X795316Y607684D01*
X796194Y607449D01*
X797102D01*
X797980Y607684D01*
X798767Y608138D01*
X799410Y608781D01*
X799864Y609568D01*
X800099Y610446D01*
Y611354D01*
X799864Y612232D01*
X799410Y613019D01*
X798767Y613662D01*
X797980Y614116D01*
X797102Y614351D01*
D02*
G37*
G36*
X971678Y604541D02*
X971384D01*
Y600994D01*
X974931D01*
Y601288D01*
X974675Y602241D01*
X974182Y603095D01*
X973485Y603792D01*
X972630Y604286D01*
X971678Y604541D01*
D02*
G37*
G36*
X970984D02*
X970691D01*
X969738Y604286D01*
X968884Y603792D01*
X968186Y603095D01*
X967693Y602241D01*
X967438Y601288D01*
Y600994D01*
X970984D01*
Y604541D01*
D02*
G37*
G36*
X807102Y604351D02*
X806194D01*
X805316Y604116D01*
X804529Y603662D01*
X803886Y603019D01*
X803432Y602232D01*
X803197Y601354D01*
Y600446D01*
X803432Y599568D01*
X803886Y598781D01*
X804529Y598138D01*
X805316Y597684D01*
X806194Y597449D01*
X807102D01*
X807980Y597684D01*
X808767Y598138D01*
X809410Y598781D01*
X809864Y599568D01*
X810099Y600446D01*
Y601354D01*
X809864Y602232D01*
X809410Y603019D01*
X808767Y603662D01*
X807980Y604116D01*
X807102Y604351D01*
D02*
G37*
G36*
X797102D02*
X796194D01*
X795316Y604116D01*
X794529Y603662D01*
X793886Y603019D01*
X793432Y602232D01*
X793197Y601354D01*
Y600446D01*
X793432Y599568D01*
X793886Y598781D01*
X794529Y598138D01*
X795316Y597684D01*
X796194Y597449D01*
X797102D01*
X797980Y597684D01*
X798767Y598138D01*
X799410Y598781D01*
X799864Y599568D01*
X800099Y600446D01*
Y601354D01*
X799864Y602232D01*
X799410Y603019D01*
X798767Y603662D01*
X797980Y604116D01*
X797102Y604351D01*
D02*
G37*
G36*
X974931Y600594D02*
X971384D01*
Y597048D01*
X971678D01*
X972630Y597303D01*
X973485Y597796D01*
X974182Y598494D01*
X974675Y599348D01*
X974931Y600301D01*
Y600594D01*
D02*
G37*
G36*
X970984D02*
X967438D01*
Y600301D01*
X967693Y599348D01*
X968186Y598494D01*
X968884Y597796D01*
X969738Y597303D01*
X970691Y597048D01*
X970984D01*
Y600594D01*
D02*
G37*
G36*
X946087Y604541D02*
X945101D01*
X944148Y604286D01*
X943293Y603792D01*
X942596Y603095D01*
X942103Y602241D01*
X941847Y601288D01*
Y600301D01*
X942103Y599348D01*
X942596Y598494D01*
X943293Y597796D01*
X944148Y597303D01*
X945101Y597048D01*
X946087D01*
X947040Y597303D01*
X947894Y597796D01*
X948592Y598494D01*
X949085Y599348D01*
X949340Y600301D01*
Y601288D01*
X949085Y602241D01*
X948592Y603095D01*
X947894Y603792D01*
X947040Y604286D01*
X946087Y604541D01*
D02*
G37*
G36*
X868546Y591700D02*
X867750D01*
X867015Y591396D01*
X866453Y590833D01*
X866148Y590098D01*
Y589302D01*
X866453Y588567D01*
X867015Y588004D01*
X867750Y587700D01*
X868546D01*
X869281Y588004D01*
X869844Y588567D01*
X870148Y589302D01*
Y590098D01*
X869844Y590833D01*
X869281Y591396D01*
X868546Y591700D01*
D02*
G37*
G36*
X807102Y594351D02*
X806194D01*
X805316Y594116D01*
X804529Y593662D01*
X803886Y593019D01*
X803432Y592232D01*
X803197Y591354D01*
Y590446D01*
X803432Y589568D01*
X803886Y588781D01*
X804529Y588138D01*
X805316Y587684D01*
X806194Y587449D01*
X807102D01*
X807980Y587684D01*
X808767Y588138D01*
X809410Y588781D01*
X809864Y589568D01*
X810099Y590446D01*
Y591354D01*
X809864Y592232D01*
X809410Y593019D01*
X808767Y593662D01*
X807980Y594116D01*
X807102Y594351D01*
D02*
G37*
G36*
X797102D02*
X796194D01*
X795316Y594116D01*
X794529Y593662D01*
X793886Y593019D01*
X793432Y592232D01*
X793197Y591354D01*
Y590446D01*
X793432Y589568D01*
X793886Y588781D01*
X794529Y588138D01*
X795316Y587684D01*
X796194Y587449D01*
X797102D01*
X797980Y587684D01*
X798767Y588138D01*
X799410Y588781D01*
X799864Y589568D01*
X800099Y590446D01*
Y591354D01*
X799864Y592232D01*
X799410Y593019D01*
X798767Y593662D01*
X797980Y594116D01*
X797102Y594351D01*
D02*
G37*
G36*
X891546Y591200D02*
X890750D01*
X890015Y590896D01*
X889453Y590333D01*
X889148Y589598D01*
Y588802D01*
X889453Y588067D01*
X890015Y587504D01*
X890750Y587200D01*
X891546D01*
X892281Y587504D01*
X892844Y588067D01*
X893148Y588802D01*
Y589598D01*
X892844Y590333D01*
X892281Y590896D01*
X891546Y591200D01*
D02*
G37*
G36*
X886546D02*
X885750D01*
X885015Y590896D01*
X884453Y590333D01*
X884148Y589598D01*
Y588802D01*
X884453Y588067D01*
X885015Y587504D01*
X885750Y587200D01*
X886546D01*
X887281Y587504D01*
X887844Y588067D01*
X888148Y588802D01*
Y589598D01*
X887844Y590333D01*
X887281Y590896D01*
X886546Y591200D01*
D02*
G37*
G36*
X851278Y590932D02*
X850482D01*
X849747Y590628D01*
X849185Y590065D01*
X848880Y589330D01*
Y588534D01*
X849185Y587799D01*
X849747Y587237D01*
X850482Y586932D01*
X851278D01*
X852013Y587237D01*
X852576Y587799D01*
X852880Y588534D01*
Y589330D01*
X852576Y590065D01*
X852013Y590628D01*
X851278Y590932D01*
D02*
G37*
G36*
X871213Y587200D02*
X870417D01*
X869682Y586896D01*
X869120Y586333D01*
X868815Y585598D01*
Y584803D01*
X869120Y584067D01*
X869682Y583505D01*
X870417Y583200D01*
X871213D01*
X871948Y583505D01*
X872511Y584067D01*
X872815Y584803D01*
Y585598D01*
X872511Y586333D01*
X871948Y586896D01*
X871213Y587200D01*
D02*
G37*
G36*
X892546Y586700D02*
X891750D01*
X891015Y586396D01*
X890453Y585833D01*
X890148Y585098D01*
Y584302D01*
X890453Y583567D01*
X891015Y583005D01*
X891750Y582700D01*
X892546D01*
X893281Y583005D01*
X893844Y583567D01*
X894148Y584302D01*
Y585098D01*
X893844Y585833D01*
X893281Y586396D01*
X892546Y586700D01*
D02*
G37*
G36*
X930606Y586325D02*
X929811D01*
X929076Y586020D01*
X928513Y585457D01*
X928209Y584722D01*
Y583927D01*
X928513Y583192D01*
X929076Y582629D01*
X929811Y582325D01*
X930606D01*
X931342Y582629D01*
X931904Y583192D01*
X932209Y583927D01*
Y584722D01*
X931904Y585457D01*
X931342Y586020D01*
X930606Y586325D01*
D02*
G37*
G36*
X971678Y586824D02*
X970691D01*
X969738Y586569D01*
X968884Y586076D01*
X968186Y585378D01*
X967693Y584524D01*
X967438Y583571D01*
Y582585D01*
X967693Y581632D01*
X968186Y580778D01*
X968884Y580080D01*
X969738Y579587D01*
X970691Y579331D01*
X971678D01*
X972630Y579587D01*
X973485Y580080D01*
X974182Y580778D01*
X974675Y581632D01*
X974931Y582585D01*
Y583571D01*
X974675Y584524D01*
X974182Y585378D01*
X973485Y586076D01*
X972630Y586569D01*
X971678Y586824D01*
D02*
G37*
G36*
X946087D02*
X945101D01*
X944148Y586569D01*
X943293Y586076D01*
X942596Y585378D01*
X942103Y584524D01*
X941847Y583571D01*
Y582585D01*
X942103Y581632D01*
X942596Y580778D01*
X943293Y580080D01*
X944148Y579587D01*
X945101Y579331D01*
X946087D01*
X947040Y579587D01*
X947894Y580080D01*
X948592Y580778D01*
X949085Y581632D01*
X949340Y582585D01*
Y583571D01*
X949085Y584524D01*
X948592Y585378D01*
X947894Y586076D01*
X947040Y586569D01*
X946087Y586824D01*
D02*
G37*
G36*
X876546Y582200D02*
X875750D01*
X875015Y581896D01*
X874453Y581333D01*
X874148Y580598D01*
Y579802D01*
X874453Y579067D01*
X875015Y578505D01*
X875750Y578200D01*
X876546D01*
X877281Y578505D01*
X877844Y579067D01*
X878148Y579802D01*
Y580598D01*
X877844Y581333D01*
X877281Y581896D01*
X876546Y582200D01*
D02*
G37*
G36*
X889046Y582200D02*
X888250D01*
X887515Y581895D01*
X886953Y581333D01*
X886648Y580598D01*
Y579802D01*
X886953Y579067D01*
X887515Y578505D01*
X888250Y578200D01*
X889046D01*
X889781Y578505D01*
X890344Y579067D01*
X890648Y579802D01*
Y580598D01*
X890344Y581333D01*
X889781Y581895D01*
X889046Y582200D01*
D02*
G37*
G36*
X922446Y581700D02*
X921650D01*
X920915Y581396D01*
X920353Y580833D01*
X920048Y580098D01*
Y579302D01*
X920353Y578567D01*
X920915Y578005D01*
X921650Y577700D01*
X922446D01*
X923181Y578005D01*
X923744Y578567D01*
X924048Y579302D01*
Y580098D01*
X923744Y580833D01*
X923181Y581396D01*
X922446Y581700D01*
D02*
G37*
G36*
X807102Y584351D02*
X806194D01*
X805316Y584116D01*
X804529Y583662D01*
X803886Y583019D01*
X803432Y582232D01*
X803197Y581354D01*
Y580446D01*
X803432Y579568D01*
X803886Y578781D01*
X804529Y578138D01*
X805316Y577684D01*
X806194Y577449D01*
X807102D01*
X807980Y577684D01*
X808767Y578138D01*
X809410Y578781D01*
X809864Y579568D01*
X810099Y580446D01*
Y581354D01*
X809864Y582232D01*
X809410Y583019D01*
X808767Y583662D01*
X807980Y584116D01*
X807102Y584351D01*
D02*
G37*
G36*
X797102D02*
X796194D01*
X795316Y584116D01*
X794529Y583662D01*
X793886Y583019D01*
X793432Y582232D01*
X793197Y581354D01*
Y580446D01*
X793432Y579568D01*
X793886Y578781D01*
X794529Y578138D01*
X795316Y577684D01*
X796194Y577449D01*
X797102D01*
X797980Y577684D01*
X798767Y578138D01*
X799410Y578781D01*
X799864Y579568D01*
X800099Y580446D01*
Y581354D01*
X799864Y582232D01*
X799410Y583019D01*
X798767Y583662D01*
X797980Y584116D01*
X797102Y584351D01*
D02*
G37*
G36*
X859546Y580700D02*
X858750D01*
X858015Y580396D01*
X857453Y579833D01*
X857148Y579098D01*
Y578302D01*
X857453Y577567D01*
X858015Y577004D01*
X858750Y576700D01*
X859546D01*
X860281Y577004D01*
X860844Y577567D01*
X861148Y578302D01*
Y579098D01*
X860844Y579833D01*
X860281Y580396D01*
X859546Y580700D01*
D02*
G37*
G36*
X881546Y576700D02*
X880750D01*
X880015Y576396D01*
X879453Y575833D01*
X879148Y575098D01*
Y574302D01*
X879453Y573567D01*
X880015Y573004D01*
X880750Y572700D01*
X881546D01*
X882281Y573004D01*
X882844Y573567D01*
X883148Y574302D01*
Y575098D01*
X882844Y575833D01*
X882281Y576396D01*
X881546Y576700D01*
D02*
G37*
G36*
X889046Y576200D02*
X888250D01*
X887515Y575896D01*
X886953Y575333D01*
X886648Y574598D01*
Y573802D01*
X886953Y573067D01*
X887515Y572505D01*
X888250Y572200D01*
X889046D01*
X889781Y572505D01*
X890344Y573067D01*
X890648Y573802D01*
Y574598D01*
X890344Y575333D01*
X889781Y575896D01*
X889046Y576200D01*
D02*
G37*
G36*
X844046Y574700D02*
X843250D01*
X842515Y574396D01*
X841953Y573833D01*
X841648Y573098D01*
Y572302D01*
X841953Y571567D01*
X842515Y571004D01*
X843250Y570700D01*
X844046D01*
X844781Y571004D01*
X845344Y571567D01*
X845648Y572302D01*
Y573098D01*
X845344Y573833D01*
X844781Y574396D01*
X844046Y574700D01*
D02*
G37*
G36*
X834046D02*
X833250D01*
X832515Y574396D01*
X831953Y573833D01*
X831648Y573098D01*
Y572302D01*
X831953Y571567D01*
X832515Y571004D01*
X833250Y570700D01*
X834046D01*
X834781Y571004D01*
X835344Y571567D01*
X835648Y572302D01*
Y573098D01*
X835344Y573833D01*
X834781Y574396D01*
X834046Y574700D01*
D02*
G37*
G36*
X807102Y574351D02*
X806194D01*
X805316Y574116D01*
X804529Y573662D01*
X803886Y573019D01*
X803432Y572232D01*
X803197Y571354D01*
Y570446D01*
X803432Y569568D01*
X803886Y568781D01*
X804529Y568138D01*
X805316Y567684D01*
X806194Y567449D01*
X807102D01*
X807980Y567684D01*
X808767Y568138D01*
X809410Y568781D01*
X809864Y569568D01*
X810099Y570446D01*
Y571354D01*
X809864Y572232D01*
X809410Y573019D01*
X808767Y573662D01*
X807980Y574116D01*
X807102Y574351D01*
D02*
G37*
G36*
X797102D02*
X796194D01*
X795316Y574116D01*
X794529Y573662D01*
X793886Y573019D01*
X793432Y572232D01*
X793197Y571354D01*
Y570446D01*
X793432Y569568D01*
X793886Y568781D01*
X794529Y568138D01*
X795316Y567684D01*
X796194Y567449D01*
X797102D01*
X797980Y567684D01*
X798767Y568138D01*
X799410Y568781D01*
X799864Y569568D01*
X800099Y570446D01*
Y571354D01*
X799864Y572232D01*
X799410Y573019D01*
X798767Y573662D01*
X797980Y574116D01*
X797102Y574351D01*
D02*
G37*
G36*
X859458Y571322D02*
X858662D01*
X857927Y571018D01*
X857364Y570456D01*
X857060Y569720D01*
Y568925D01*
X857364Y568190D01*
X857927Y567627D01*
X858662Y567322D01*
X859458D01*
X860193Y567627D01*
X860756Y568190D01*
X861060Y568925D01*
Y569720D01*
X860756Y570456D01*
X860193Y571018D01*
X859458Y571322D01*
D02*
G37*
G36*
X876546Y569900D02*
X875750D01*
X875015Y569596D01*
X874453Y569033D01*
X874148Y568298D01*
Y567502D01*
X874453Y566767D01*
X875015Y566205D01*
X875750Y565900D01*
X876546D01*
X877281Y566205D01*
X877844Y566767D01*
X878148Y567502D01*
Y568298D01*
X877844Y569033D01*
X877281Y569596D01*
X876546Y569900D01*
D02*
G37*
G36*
X807102Y564351D02*
X806194D01*
X805316Y564116D01*
X804529Y563662D01*
X803886Y563019D01*
X803432Y562232D01*
X803197Y561354D01*
Y560446D01*
X803432Y559568D01*
X803886Y558781D01*
X804529Y558138D01*
X805316Y557684D01*
X806194Y557449D01*
X807102D01*
X807980Y557684D01*
X808767Y558138D01*
X809410Y558781D01*
X809864Y559568D01*
X810099Y560446D01*
Y561354D01*
X809864Y562232D01*
X809410Y563019D01*
X808767Y563662D01*
X807980Y564116D01*
X807102Y564351D01*
D02*
G37*
G36*
X797102D02*
X796194D01*
X795316Y564116D01*
X794529Y563662D01*
X793886Y563019D01*
X793432Y562232D01*
X793197Y561354D01*
Y560446D01*
X793432Y559568D01*
X793886Y558781D01*
X794529Y558138D01*
X795316Y557684D01*
X796194Y557449D01*
X797102D01*
X797980Y557684D01*
X798767Y558138D01*
X799410Y558781D01*
X799864Y559568D01*
X800099Y560446D01*
Y561354D01*
X799864Y562232D01*
X799410Y563019D01*
X798767Y563662D01*
X797980Y564116D01*
X797102Y564351D01*
D02*
G37*
G36*
X807102Y554351D02*
X806194D01*
X805316Y554116D01*
X804529Y553662D01*
X803886Y553019D01*
X803432Y552232D01*
X803197Y551354D01*
Y550446D01*
X803432Y549568D01*
X803886Y548781D01*
X804529Y548138D01*
X805316Y547684D01*
X806194Y547449D01*
X807102D01*
X807980Y547684D01*
X808767Y548138D01*
X809410Y548781D01*
X809864Y549568D01*
X810099Y550446D01*
Y551354D01*
X809864Y552232D01*
X809410Y553019D01*
X808767Y553662D01*
X807980Y554116D01*
X807102Y554351D01*
D02*
G37*
G36*
X797102D02*
X796194D01*
X795316Y554116D01*
X794529Y553662D01*
X793886Y553019D01*
X793432Y552232D01*
X793197Y551354D01*
Y550446D01*
X793432Y549568D01*
X793886Y548781D01*
X794529Y548138D01*
X795316Y547684D01*
X796194Y547449D01*
X797102D01*
X797980Y547684D01*
X798767Y548138D01*
X799410Y548781D01*
X799864Y549568D01*
X800099Y550446D01*
Y551354D01*
X799864Y552232D01*
X799410Y553019D01*
X798767Y553662D01*
X797980Y554116D01*
X797102Y554351D01*
D02*
G37*
G36*
X807102Y544351D02*
X806194D01*
X805316Y544116D01*
X804529Y543662D01*
X803886Y543019D01*
X803432Y542232D01*
X803197Y541354D01*
Y540446D01*
X803432Y539568D01*
X803886Y538781D01*
X804529Y538138D01*
X805316Y537684D01*
X806194Y537449D01*
X807102D01*
X807980Y537684D01*
X808767Y538138D01*
X809410Y538781D01*
X809864Y539568D01*
X810099Y540446D01*
Y541354D01*
X809864Y542232D01*
X809410Y543019D01*
X808767Y543662D01*
X807980Y544116D01*
X807102Y544351D01*
D02*
G37*
G36*
X797102D02*
X796194D01*
X795316Y544116D01*
X794529Y543662D01*
X793886Y543019D01*
X793432Y542232D01*
X793197Y541354D01*
Y540446D01*
X793432Y539568D01*
X793886Y538781D01*
X794529Y538138D01*
X795316Y537684D01*
X796194Y537449D01*
X797102D01*
X797980Y537684D01*
X798767Y538138D01*
X799410Y538781D01*
X799864Y539568D01*
X800099Y540446D01*
Y541354D01*
X799864Y542232D01*
X799410Y543019D01*
X798767Y543662D01*
X797980Y544116D01*
X797102Y544351D01*
D02*
G37*
G36*
Y534351D02*
X796848D01*
Y531100D01*
X800099D01*
Y531354D01*
X799864Y532232D01*
X799410Y533019D01*
X798767Y533662D01*
X797980Y534116D01*
X797102Y534351D01*
D02*
G37*
G36*
X796448D02*
X796194D01*
X795316Y534116D01*
X794529Y533662D01*
X793886Y533019D01*
X793432Y532232D01*
X793197Y531354D01*
Y531100D01*
X796448D01*
Y534351D01*
D02*
G37*
G36*
X807102D02*
X806848D01*
Y531100D01*
X810099D01*
Y531354D01*
X809864Y532232D01*
X809410Y533019D01*
X808767Y533662D01*
X807980Y534116D01*
X807102Y534351D01*
D02*
G37*
G36*
X806448D02*
X806194D01*
X805316Y534116D01*
X804529Y533662D01*
X803886Y533019D01*
X803432Y532232D01*
X803197Y531354D01*
Y531100D01*
X806448D01*
Y534351D01*
D02*
G37*
G36*
X810099Y530700D02*
X806848D01*
Y527449D01*
X807102D01*
X807980Y527684D01*
X808767Y528138D01*
X809410Y528781D01*
X809864Y529568D01*
X810099Y530446D01*
Y530700D01*
D02*
G37*
G36*
X806448D02*
X803197D01*
Y530446D01*
X803432Y529568D01*
X803886Y528781D01*
X804529Y528138D01*
X805316Y527684D01*
X806194Y527449D01*
X806448D01*
Y530700D01*
D02*
G37*
G36*
X800099Y530700D02*
X796848D01*
Y527449D01*
X797102D01*
X797980Y527684D01*
X798767Y528138D01*
X799410Y528781D01*
X799864Y529568D01*
X800099Y530446D01*
Y530700D01*
D02*
G37*
G36*
X796448D02*
X793197D01*
Y530446D01*
X793432Y529568D01*
X793886Y528781D01*
X794529Y528138D01*
X795316Y527684D01*
X796194Y527449D01*
X796448D01*
Y530700D01*
D02*
G37*
G36*
X859046Y502700D02*
X858250D01*
X857515Y502396D01*
X856953Y501833D01*
X856648Y501098D01*
Y500302D01*
X856953Y499567D01*
X857515Y499005D01*
X858250Y498700D01*
X859046D01*
X859781Y499005D01*
X860344Y499567D01*
X860648Y500302D01*
Y501098D01*
X860344Y501833D01*
X859781Y502396D01*
X859046Y502700D01*
D02*
G37*
G36*
X830046Y494139D02*
X829250D01*
X828515Y493834D01*
X827953Y493272D01*
X827648Y492537D01*
Y491741D01*
X827953Y491006D01*
X828515Y490443D01*
X829250Y490139D01*
X830046D01*
X830781Y490443D01*
X831344Y491006D01*
X831648Y491741D01*
Y492537D01*
X831344Y493272D01*
X830781Y493834D01*
X830046Y494139D01*
D02*
G37*
G36*
X860482Y469523D02*
X860254D01*
Y466469D01*
X863308D01*
Y466697D01*
X863086Y467525D01*
X862658Y468267D01*
X862052Y468873D01*
X861310Y469301D01*
X860482Y469523D01*
D02*
G37*
G36*
X859854D02*
X859625D01*
X858797Y469301D01*
X858055Y468873D01*
X857450Y468267D01*
X857021Y467525D01*
X856799Y466697D01*
Y466469D01*
X859854D01*
Y469523D01*
D02*
G37*
G36*
X840797D02*
X840569D01*
Y466469D01*
X843623D01*
Y466697D01*
X843401Y467525D01*
X842973Y468267D01*
X842367Y468873D01*
X841625Y469301D01*
X840797Y469523D01*
D02*
G37*
G36*
X840168D02*
X839940D01*
X839112Y469301D01*
X838370Y468873D01*
X837764Y468267D01*
X837336Y467525D01*
X837114Y466697D01*
Y466469D01*
X840168D01*
Y469523D01*
D02*
G37*
G36*
X827546Y469700D02*
X826750D01*
X826015Y469396D01*
X825453Y468833D01*
X825148Y468098D01*
Y467302D01*
X825453Y466567D01*
X826015Y466005D01*
X826750Y465700D01*
X827546D01*
X828281Y466005D01*
X828844Y466567D01*
X829148Y467302D01*
Y468098D01*
X828844Y468833D01*
X828281Y469396D01*
X827546Y469700D01*
D02*
G37*
G36*
X863308Y466069D02*
X860254D01*
Y463015D01*
X860482D01*
X861310Y463236D01*
X862052Y463665D01*
X862658Y464271D01*
X863086Y465013D01*
X863308Y465840D01*
Y466069D01*
D02*
G37*
G36*
X859854D02*
X856799D01*
Y465840D01*
X857021Y465013D01*
X857450Y464271D01*
X858055Y463665D01*
X858797Y463236D01*
X859625Y463015D01*
X859854D01*
Y466069D01*
D02*
G37*
G36*
X843623D02*
X840569D01*
Y463015D01*
X840797D01*
X841625Y463236D01*
X842367Y463665D01*
X842973Y464271D01*
X843401Y465013D01*
X843623Y465840D01*
Y466069D01*
D02*
G37*
G36*
X840168D02*
X837114D01*
Y465840D01*
X837336Y465013D01*
X837764Y464271D01*
X838370Y463665D01*
X839112Y463236D01*
X839940Y463015D01*
X840168D01*
Y466069D01*
D02*
G37*
G36*
X864191Y459784D02*
Y455839D01*
X866305D01*
Y457509D01*
X866129Y458395D01*
X865627Y459146D01*
X864876Y459647D01*
X864191Y459784D01*
D02*
G37*
G36*
X863791Y459784D02*
X863105Y459647D01*
X862354Y459146D01*
X861852Y458395D01*
X861676Y457509D01*
Y455839D01*
X863791D01*
Y459784D01*
D02*
G37*
G36*
X836631Y459784D02*
Y455839D01*
X838746D01*
Y457509D01*
X838570Y458395D01*
X838068Y459146D01*
X837317Y459647D01*
X836631Y459784D01*
D02*
G37*
G36*
X836232D02*
X835546Y459647D01*
X834795Y459146D01*
X834293Y458395D01*
X834117Y457509D01*
Y455839D01*
X836232D01*
Y459784D01*
D02*
G37*
G36*
X863791Y455439D02*
X861676D01*
Y453769D01*
X861852Y452883D01*
X862354Y452132D01*
X863105Y451630D01*
X863791Y451494D01*
Y455439D01*
D02*
G37*
G36*
X838746Y455439D02*
X836631D01*
Y451494D01*
X837317Y451630D01*
X838068Y452132D01*
X838570Y452883D01*
X838746Y453769D01*
Y455439D01*
D02*
G37*
G36*
X836232D02*
X834117D01*
Y453769D01*
X834293Y452883D01*
X834795Y452132D01*
X835546Y451630D01*
X836232Y451494D01*
Y455439D01*
D02*
G37*
G36*
X866305Y455439D02*
X864191D01*
Y451494D01*
X864876Y451630D01*
X865627Y452132D01*
X866129Y452883D01*
X866305Y453769D01*
Y455439D01*
D02*
G37*
G36*
X976641Y455598D02*
X969843D01*
Y446800D01*
X976641D01*
Y455598D01*
D02*
G37*
%LPD*%
D14*
X975241Y448200D02*
X971243D01*
X975241Y452199D01*
Y453198D01*
X974242Y454198D01*
X972242D01*
X971243Y453198D01*
D30*
X946400Y761700D02*
D03*
X957900Y749700D02*
D03*
X944400Y715200D02*
D03*
X947400Y743200D02*
D03*
X921900Y655700D02*
D03*
X896900Y592200D02*
D03*
X884400Y562700D02*
D03*
X810400Y460700D02*
D03*
X831400Y480700D02*
D03*
X865400D02*
D03*
X814400Y665700D02*
D03*
X821400Y678700D02*
D03*
X851400Y705700D02*
D03*
X773959Y761598D02*
D03*
X762148Y706480D02*
D03*
Y674984D02*
D03*
X887148Y490200D02*
D03*
X888648Y485700D02*
D03*
X893648D02*
D03*
X898148D02*
D03*
X902648D02*
D03*
X907148D02*
D03*
X912148D02*
D03*
Y490200D02*
D03*
Y494700D02*
D03*
Y499200D02*
D03*
Y503700D02*
D03*
Y508200D02*
D03*
Y513200D02*
D03*
X907148D02*
D03*
X902648D02*
D03*
X898148D02*
D03*
X893648D02*
D03*
X837148Y587700D02*
D03*
X791648Y636700D02*
D03*
X774648Y635200D02*
D03*
X834648Y710200D02*
D03*
X929735Y749806D02*
D03*
X789148Y694700D02*
D03*
D121*
X923290Y695495D02*
D03*
X971184Y600794D02*
D03*
D122*
X796648Y530900D02*
D03*
X806648D02*
D03*
X891648Y709200D02*
D03*
D124*
X859243Y631213D02*
D03*
X870266D02*
D03*
Y636724D02*
D03*
X864754D02*
D03*
X859243D02*
D03*
X861955Y639524D02*
D03*
X867467D02*
D03*
Y634012D02*
D03*
X861955D02*
D03*
X867467Y628500D02*
D03*
X861955D02*
D03*
D125*
X958531Y770198D02*
D03*
X924515D02*
D03*
D126*
X959712Y791300D02*
D03*
X923334D02*
D03*
D127*
X863991Y455639D02*
D03*
X836432D02*
D03*
D128*
X860054Y466269D02*
D03*
X840368D02*
D03*
D129*
X839648Y775200D02*
D03*
D130*
X981152Y548775D02*
D03*
Y618775D02*
D03*
X761089Y548774D02*
D03*
Y618774D02*
D03*
X788648Y462200D02*
D03*
X985648Y782267D02*
D03*
X986207Y462133D02*
D03*
X761089Y462267D02*
D03*
Y782267D02*
D03*
X904648Y782200D02*
D03*
X958648Y462200D02*
D03*
X788648Y782200D02*
D03*
D131*
X939358Y727822D02*
D03*
Y732153D02*
D03*
X943688Y727822D02*
D03*
Y732153D02*
D03*
M02*
