G04*
G04 #@! TF.GenerationSoftware,Altium Limited,Altium Designer,22.5.1 (42)*
G04*
G04 Layer_Physical_Order=3*
G04 Layer_Color=16440176*
%FSLAX25Y25*%
%MOIN*%
G70*
G04*
G04 #@! TF.SameCoordinates,5F65DDE1-41B9-4BDB-98F2-9488EF11E66D*
G04*
G04*
G04 #@! TF.FilePolarity,Positive*
G04*
G01*
G75*
%ADD14C,0.01000*%
%ADD30C,0.03000*%
%ADD122C,0.06102*%
G36*
X998550Y443503D02*
X748187D01*
Y799397D01*
X998550D01*
Y443503D01*
D02*
G37*
%LPC*%
G36*
X959712Y796844D02*
X958939Y796742D01*
X958220Y796444D01*
X957602Y795969D01*
X957127Y795351D01*
X956829Y794632D01*
X956727Y793859D01*
Y788741D01*
X956829Y787968D01*
X957127Y787249D01*
X957602Y786631D01*
X958220Y786156D01*
X958939Y785858D01*
X959712Y785756D01*
X960484Y785858D01*
X961204Y786156D01*
X961822Y786631D01*
X962297Y787249D01*
X962595Y787968D01*
X962696Y788741D01*
Y793859D01*
X962595Y794632D01*
X962297Y795351D01*
X961822Y795969D01*
X961204Y796444D01*
X960484Y796742D01*
X959712Y796844D01*
D02*
G37*
G36*
X923334D02*
X922561Y796742D01*
X921842Y796444D01*
X921224Y795969D01*
X920749Y795351D01*
X920451Y794632D01*
X920349Y793859D01*
Y788741D01*
X920451Y787968D01*
X920749Y787249D01*
X921224Y786631D01*
X921842Y786156D01*
X922561Y785858D01*
X923334Y785756D01*
X924107Y785858D01*
X924826Y786156D01*
X925444Y786631D01*
X925919Y787249D01*
X926217Y787968D01*
X926319Y788741D01*
Y793859D01*
X926217Y794632D01*
X925919Y795351D01*
X925444Y795969D01*
X924826Y796444D01*
X924107Y796742D01*
X923334Y796844D01*
D02*
G37*
G36*
X986462Y792610D02*
X984834D01*
X983226Y792355D01*
X981678Y791852D01*
X980227Y791113D01*
X978910Y790156D01*
X977759Y789005D01*
X976802Y787688D01*
X976063Y786237D01*
X975560Y784689D01*
X975306Y783081D01*
Y781453D01*
X975560Y779845D01*
X976063Y778297D01*
X976802Y776846D01*
X977759Y775529D01*
X978910Y774378D01*
X980227Y773421D01*
X981678Y772682D01*
X983226Y772179D01*
X984834Y771924D01*
X986462D01*
X988070Y772179D01*
X989618Y772682D01*
X991069Y773421D01*
X992386Y774378D01*
X993537Y775529D01*
X994494Y776846D01*
X995233Y778297D01*
X995736Y779845D01*
X995991Y781453D01*
Y783081D01*
X995736Y784689D01*
X995233Y786237D01*
X994494Y787688D01*
X993537Y789005D01*
X992386Y790156D01*
X991069Y791113D01*
X989618Y791852D01*
X988070Y792355D01*
X986462Y792610D01*
D02*
G37*
G36*
X761903D02*
X760275D01*
X758667Y792355D01*
X757119Y791852D01*
X755668Y791113D01*
X754351Y790156D01*
X753200Y789005D01*
X752243Y787688D01*
X751504Y786237D01*
X751001Y784689D01*
X750746Y783081D01*
Y781453D01*
X751001Y779845D01*
X751504Y778297D01*
X752243Y776846D01*
X753200Y775529D01*
X754351Y774378D01*
X755668Y773421D01*
X757119Y772682D01*
X758667Y772179D01*
X760275Y771924D01*
X761903D01*
X763511Y772179D01*
X765059Y772682D01*
X766510Y773421D01*
X767827Y774378D01*
X768978Y775529D01*
X769935Y776846D01*
X770674Y778297D01*
X771177Y779845D01*
X771431Y781453D01*
Y783081D01*
X771177Y784689D01*
X770674Y786237D01*
X769935Y787688D01*
X768978Y789005D01*
X767827Y790156D01*
X766510Y791113D01*
X765059Y791852D01*
X763511Y792355D01*
X761903Y792610D01*
D02*
G37*
G36*
X905462Y792543D02*
X903834D01*
X902226Y792288D01*
X900678Y791785D01*
X899227Y791046D01*
X897910Y790089D01*
X896759Y788938D01*
X895802Y787621D01*
X895063Y786170D01*
X894560Y784622D01*
X894306Y783014D01*
Y781386D01*
X894560Y779778D01*
X895063Y778230D01*
X895802Y776779D01*
X896759Y775462D01*
X897910Y774311D01*
X899227Y773354D01*
X900678Y772615D01*
X902226Y772112D01*
X903834Y771858D01*
X905462D01*
X907070Y772112D01*
X908618Y772615D01*
X910069Y773354D01*
X911386Y774311D01*
X912537Y775462D01*
X913494Y776779D01*
X914233Y778230D01*
X914736Y779778D01*
X914991Y781386D01*
Y783014D01*
X914736Y784622D01*
X914233Y786170D01*
X913494Y787621D01*
X912537Y788938D01*
X911386Y790089D01*
X910069Y791046D01*
X908618Y791785D01*
X907070Y792288D01*
X905462Y792543D01*
D02*
G37*
G36*
X789462D02*
X787834D01*
X786226Y792288D01*
X784678Y791785D01*
X783227Y791046D01*
X781910Y790089D01*
X780759Y788938D01*
X779802Y787621D01*
X779063Y786170D01*
X778560Y784622D01*
X778306Y783014D01*
Y781386D01*
X778560Y779778D01*
X779063Y778230D01*
X779802Y776779D01*
X780759Y775462D01*
X781910Y774311D01*
X783227Y773354D01*
X784678Y772615D01*
X786226Y772112D01*
X787834Y771858D01*
X789462D01*
X791070Y772112D01*
X792618Y772615D01*
X794069Y773354D01*
X795386Y774311D01*
X796537Y775462D01*
X797494Y776779D01*
X798233Y778230D01*
X798736Y779778D01*
X798991Y781386D01*
Y783014D01*
X798736Y784622D01*
X798233Y786170D01*
X797494Y787621D01*
X796537Y788938D01*
X795386Y790089D01*
X794069Y791046D01*
X792618Y791785D01*
X791070Y792288D01*
X789462Y792543D01*
D02*
G37*
G36*
X865269Y781506D02*
X864027D01*
X862809Y781263D01*
X861661Y780788D01*
X860629Y780098D01*
X859750Y779220D01*
X859060Y778187D01*
X858585Y777039D01*
X858343Y775821D01*
Y774579D01*
X858585Y773361D01*
X859060Y772213D01*
X859750Y771180D01*
X860629Y770302D01*
X861661Y769612D01*
X862809Y769137D01*
X864027Y768894D01*
X865269D01*
X866487Y769137D01*
X867635Y769612D01*
X868668Y770302D01*
X869546Y771180D01*
X870236Y772213D01*
X870711Y773361D01*
X870954Y774579D01*
Y775821D01*
X870711Y777039D01*
X870236Y778187D01*
X869546Y779220D01*
X868668Y780098D01*
X867635Y780788D01*
X866487Y781263D01*
X865269Y781506D01*
D02*
G37*
G36*
X840269D02*
X839027D01*
X837809Y781263D01*
X836661Y780788D01*
X835629Y780098D01*
X834750Y779220D01*
X834060Y778187D01*
X833585Y777039D01*
X833343Y775821D01*
Y774579D01*
X833585Y773361D01*
X834060Y772213D01*
X834750Y771180D01*
X835629Y770302D01*
X836661Y769612D01*
X837809Y769137D01*
X839027Y768894D01*
X840269D01*
X841487Y769137D01*
X842635Y769612D01*
X843668Y770302D01*
X844546Y771180D01*
X845236Y772213D01*
X845711Y773361D01*
X845954Y774579D01*
Y775821D01*
X845711Y777039D01*
X845236Y778187D01*
X844546Y779220D01*
X843668Y780098D01*
X842635Y780788D01*
X841487Y781263D01*
X840269Y781506D01*
D02*
G37*
G36*
X958531Y774951D02*
X957861Y774862D01*
X957237Y774604D01*
X956701Y774193D01*
X956290Y773657D01*
X956032Y773033D01*
X955943Y772363D01*
Y768032D01*
X956032Y767363D01*
X956290Y766739D01*
X956701Y766203D01*
X957237Y765792D01*
X957861Y765533D01*
X958531Y765445D01*
X959200Y765533D01*
X959825Y765792D01*
X960361Y766203D01*
X960772Y766739D01*
X961030Y767363D01*
X961118Y768032D01*
Y772363D01*
X961030Y773033D01*
X960772Y773657D01*
X960361Y774193D01*
X959825Y774604D01*
X959200Y774862D01*
X958531Y774951D01*
D02*
G37*
G36*
X924515D02*
X923845Y774862D01*
X923221Y774604D01*
X922686Y774193D01*
X922274Y773657D01*
X922016Y773033D01*
X921928Y772363D01*
Y768032D01*
X922016Y767363D01*
X922274Y766739D01*
X922686Y766203D01*
X923221Y765792D01*
X923845Y765533D01*
X924515Y765445D01*
X925185Y765533D01*
X925809Y765792D01*
X926345Y766203D01*
X926756Y766739D01*
X927014Y767363D01*
X927103Y768032D01*
Y772363D01*
X927014Y773033D01*
X926756Y773657D01*
X926345Y774193D01*
X925809Y774604D01*
X925185Y774862D01*
X924515Y774951D01*
D02*
G37*
G36*
X946798Y763700D02*
X946002D01*
X945267Y763396D01*
X944705Y762833D01*
X944400Y762098D01*
Y761302D01*
X944705Y760567D01*
X945267Y760005D01*
X946002Y759700D01*
X946798D01*
X947533Y760005D01*
X948096Y760567D01*
X948400Y761302D01*
Y762098D01*
X948096Y762833D01*
X947533Y763396D01*
X946798Y763700D01*
D02*
G37*
G36*
X774357Y763598D02*
X773561D01*
X772826Y763293D01*
X772264Y762731D01*
X771959Y761996D01*
Y761200D01*
X772264Y760465D01*
X772826Y759902D01*
X773561Y759598D01*
X774357D01*
X775092Y759902D01*
X775655Y760465D01*
X775959Y761200D01*
Y761996D01*
X775655Y762731D01*
X775092Y763293D01*
X774357Y763598D01*
D02*
G37*
G36*
X930132Y751806D02*
X929337D01*
X928602Y751501D01*
X928039Y750939D01*
X927734Y750203D01*
Y749408D01*
X928039Y748673D01*
X928602Y748110D01*
X929337Y747806D01*
X930132D01*
X930867Y748110D01*
X931430Y748673D01*
X931734Y749408D01*
Y750203D01*
X931430Y750939D01*
X930867Y751501D01*
X930132Y751806D01*
D02*
G37*
G36*
X958298Y751700D02*
X957502D01*
X956767Y751396D01*
X956205Y750833D01*
X955900Y750098D01*
Y749302D01*
X956205Y748567D01*
X956767Y748004D01*
X957502Y747700D01*
X958298D01*
X959033Y748004D01*
X959596Y748567D01*
X959900Y749302D01*
Y750098D01*
X959596Y750833D01*
X959033Y751396D01*
X958298Y751700D01*
D02*
G37*
G36*
X947798Y745200D02*
X947002D01*
X946267Y744896D01*
X945704Y744333D01*
X945400Y743598D01*
Y742802D01*
X945704Y742067D01*
X946267Y741504D01*
X947002Y741200D01*
X947798D01*
X948533Y741504D01*
X949096Y742067D01*
X949400Y742802D01*
Y743598D01*
X949096Y744333D01*
X948533Y744896D01*
X947798Y745200D01*
D02*
G37*
G36*
X943984Y733637D02*
X943393D01*
X942848Y733411D01*
X942430Y732994D01*
X942204Y732448D01*
Y731858D01*
X942430Y731312D01*
X942848Y730895D01*
X943393Y730669D01*
X943984D01*
X944529Y730895D01*
X944947Y731312D01*
X945173Y731858D01*
Y732448D01*
X944947Y732994D01*
X944529Y733411D01*
X943984Y733637D01*
D02*
G37*
G36*
X939653D02*
X939062D01*
X938517Y733411D01*
X938099Y732994D01*
X937873Y732448D01*
Y731858D01*
X938099Y731312D01*
X938517Y730895D01*
X939062Y730669D01*
X939653D01*
X940198Y730895D01*
X940616Y731312D01*
X940842Y731858D01*
Y732448D01*
X940616Y732994D01*
X940198Y733411D01*
X939653Y733637D01*
D02*
G37*
G36*
X943984Y729306D02*
X943393D01*
X942848Y729080D01*
X942430Y728663D01*
X942204Y728117D01*
Y727527D01*
X942430Y726981D01*
X942848Y726564D01*
X943393Y726338D01*
X943984D01*
X944529Y726564D01*
X944947Y726981D01*
X945173Y727527D01*
Y728117D01*
X944947Y728663D01*
X944529Y729080D01*
X943984Y729306D01*
D02*
G37*
G36*
X939653D02*
X939062D01*
X938517Y729080D01*
X938099Y728663D01*
X937873Y728117D01*
Y727527D01*
X938099Y726981D01*
X938517Y726564D01*
X939062Y726338D01*
X939653D01*
X940198Y726564D01*
X940616Y726981D01*
X940842Y727527D01*
Y728117D01*
X940616Y728663D01*
X940198Y729080D01*
X939653Y729306D01*
D02*
G37*
G36*
X980546Y726700D02*
X979750D01*
X979015Y726396D01*
X978453Y725833D01*
X978148Y725098D01*
Y724302D01*
X978453Y723567D01*
X979015Y723004D01*
X979750Y722700D01*
X980546D01*
X981281Y723004D01*
X981844Y723567D01*
X982148Y724302D01*
Y725098D01*
X981844Y725833D01*
X981281Y726396D01*
X980546Y726700D01*
D02*
G37*
G36*
X954046Y730200D02*
X953250D01*
X952515Y729896D01*
X951953Y729333D01*
X951648Y728598D01*
Y727802D01*
X951953Y727067D01*
X952515Y726505D01*
X953250Y726200D01*
X954046D01*
X954160Y726247D01*
X954443Y725823D01*
X953953Y725333D01*
X953648Y724598D01*
Y723802D01*
X953953Y723067D01*
X954515Y722505D01*
X955250Y722200D01*
X956046D01*
X956781Y722505D01*
X957344Y723067D01*
X957648Y723802D01*
Y724598D01*
X957344Y725333D01*
X956781Y725896D01*
X956046Y726200D01*
X955250D01*
X955136Y726153D01*
X954853Y726577D01*
X955344Y727067D01*
X955648Y727802D01*
Y728598D01*
X955344Y729333D01*
X954781Y729896D01*
X954046Y730200D01*
D02*
G37*
G36*
X959634Y721958D02*
X958839D01*
X958104Y721653D01*
X957541Y721091D01*
X957236Y720356D01*
Y719560D01*
X957541Y718825D01*
X958104Y718262D01*
X958839Y717958D01*
X959634D01*
X960369Y718262D01*
X960932Y718825D01*
X961236Y719560D01*
Y720356D01*
X960932Y721091D01*
X960369Y721653D01*
X959634Y721958D01*
D02*
G37*
G36*
X790046Y721070D02*
X789251D01*
X788516Y720766D01*
X787953Y720203D01*
X787648Y719468D01*
Y718672D01*
X787953Y717937D01*
X788516Y717375D01*
X789251Y717070D01*
X790046D01*
X790781Y717375D01*
X791344Y717937D01*
X791648Y718672D01*
Y719468D01*
X791344Y720203D01*
X790781Y720766D01*
X790046Y721070D01*
D02*
G37*
G36*
X959046Y717200D02*
X958250D01*
X957515Y716896D01*
X956953Y716333D01*
X956648Y715598D01*
Y714802D01*
X956953Y714067D01*
X957515Y713505D01*
X958250Y713200D01*
X959046D01*
X959781Y713505D01*
X960344Y714067D01*
X960648Y714802D01*
Y715598D01*
X960344Y716333D01*
X959781Y716896D01*
X959046Y717200D01*
D02*
G37*
G36*
X953046D02*
X952250D01*
X951515Y716896D01*
X950953Y716333D01*
X950648Y715598D01*
Y714802D01*
X950953Y714067D01*
X951515Y713505D01*
X952250Y713200D01*
X953046D01*
X953781Y713505D01*
X954344Y714067D01*
X954648Y714802D01*
Y715598D01*
X954344Y716333D01*
X953781Y716896D01*
X953046Y717200D01*
D02*
G37*
G36*
X944798D02*
X944002D01*
X943267Y716896D01*
X942704Y716333D01*
X942400Y715598D01*
Y714802D01*
X942704Y714067D01*
X943267Y713505D01*
X944002Y713200D01*
X944798D01*
X945533Y713505D01*
X946096Y714067D01*
X946400Y714802D01*
Y715598D01*
X946096Y716333D01*
X945533Y716896D01*
X944798Y717200D01*
D02*
G37*
G36*
X835046Y712200D02*
X834250D01*
X833515Y711896D01*
X832953Y711333D01*
X832648Y710598D01*
Y709802D01*
X832953Y709067D01*
X833515Y708504D01*
X834250Y708200D01*
X835046D01*
X835781Y708504D01*
X836344Y709067D01*
X836648Y709802D01*
Y710598D01*
X836344Y711333D01*
X835781Y711896D01*
X835046Y712200D01*
D02*
G37*
G36*
X922102Y712651D02*
X921194D01*
X920316Y712416D01*
X919529Y711962D01*
X918886Y711319D01*
X918432Y710532D01*
X918197Y709654D01*
Y708746D01*
X918432Y707868D01*
X918886Y707081D01*
X919529Y706438D01*
X920316Y705984D01*
X921194Y705749D01*
X922102D01*
X922980Y705984D01*
X923767Y706438D01*
X924410Y707081D01*
X924864Y707868D01*
X925099Y708746D01*
Y709654D01*
X924864Y710532D01*
X924410Y711319D01*
X923767Y711962D01*
X922980Y712416D01*
X922102Y712651D01*
D02*
G37*
G36*
X912102D02*
X911194D01*
X910316Y712416D01*
X909529Y711962D01*
X908886Y711319D01*
X908432Y710532D01*
X908197Y709654D01*
Y708746D01*
X908432Y707868D01*
X908886Y707081D01*
X909529Y706438D01*
X910316Y705984D01*
X911194Y705749D01*
X912102D01*
X912980Y705984D01*
X913767Y706438D01*
X914410Y707081D01*
X914864Y707868D01*
X915099Y708746D01*
Y709654D01*
X914864Y710532D01*
X914410Y711319D01*
X913767Y711962D01*
X912980Y712416D01*
X912102Y712651D01*
D02*
G37*
G36*
X902102D02*
X901194D01*
X900316Y712416D01*
X899529Y711962D01*
X898886Y711319D01*
X898432Y710532D01*
X898197Y709654D01*
Y708746D01*
X898432Y707868D01*
X898886Y707081D01*
X899529Y706438D01*
X900316Y705984D01*
X901194Y705749D01*
X902102D01*
X902980Y705984D01*
X903767Y706438D01*
X904410Y707081D01*
X904864Y707868D01*
X905099Y708746D01*
Y709654D01*
X904864Y710532D01*
X904410Y711319D01*
X903767Y711962D01*
X902980Y712416D01*
X902102Y712651D01*
D02*
G37*
G36*
X892102D02*
X891194D01*
X890316Y712416D01*
X889529Y711962D01*
X888886Y711319D01*
X888432Y710532D01*
X888197Y709654D01*
Y708746D01*
X888432Y707868D01*
X888886Y707081D01*
X889529Y706438D01*
X890316Y705984D01*
X891194Y705749D01*
X892102D01*
X892980Y705984D01*
X893767Y706438D01*
X894410Y707081D01*
X894864Y707868D01*
X895099Y708746D01*
Y709654D01*
X894864Y710532D01*
X894410Y711319D01*
X893767Y711962D01*
X892980Y712416D01*
X892102Y712651D01*
D02*
G37*
G36*
X885099D02*
X878197D01*
Y705749D01*
X885099D01*
Y712651D01*
D02*
G37*
G36*
X762546Y708480D02*
X761750D01*
X761015Y708175D01*
X760453Y707613D01*
X760148Y706877D01*
Y706082D01*
X760453Y705347D01*
X761015Y704784D01*
X761750Y704480D01*
X762546D01*
X763281Y704784D01*
X763844Y705347D01*
X764148Y706082D01*
Y706877D01*
X763844Y707613D01*
X763281Y708175D01*
X762546Y708480D01*
D02*
G37*
G36*
X851798Y707700D02*
X851002D01*
X850267Y707396D01*
X849704Y706833D01*
X849400Y706098D01*
Y705302D01*
X849704Y704567D01*
X850267Y704004D01*
X851002Y703700D01*
X851798D01*
X852533Y704004D01*
X853096Y704567D01*
X853400Y705302D01*
Y706098D01*
X853096Y706833D01*
X852533Y707396D01*
X851798Y707700D01*
D02*
G37*
G36*
X789546Y696700D02*
X788750D01*
X788015Y696396D01*
X787453Y695833D01*
X787148Y695098D01*
Y694302D01*
X787453Y693567D01*
X788015Y693005D01*
X788750Y692700D01*
X789546D01*
X790281Y693005D01*
X790844Y693567D01*
X791148Y694302D01*
Y695098D01*
X790844Y695833D01*
X790281Y696396D01*
X789546Y696700D01*
D02*
G37*
G36*
X941500Y699242D02*
X940513D01*
X939560Y698986D01*
X938706Y698493D01*
X938008Y697796D01*
X937515Y696941D01*
X937260Y695989D01*
Y695002D01*
X937515Y694049D01*
X938008Y693195D01*
X938706Y692497D01*
X939560Y692004D01*
X940513Y691749D01*
X941500D01*
X942452Y692004D01*
X943307Y692497D01*
X944004Y693195D01*
X944497Y694049D01*
X944753Y695002D01*
Y695989D01*
X944497Y696941D01*
X944004Y697796D01*
X943307Y698493D01*
X942452Y698986D01*
X941500Y699242D01*
D02*
G37*
G36*
X923783D02*
X922797D01*
X921844Y698986D01*
X920989Y698493D01*
X920292Y697796D01*
X919799Y696941D01*
X919543Y695989D01*
Y695002D01*
X919799Y694049D01*
X920292Y693195D01*
X920989Y692497D01*
X921844Y692004D01*
X922797Y691749D01*
X923783D01*
X924736Y692004D01*
X925590Y692497D01*
X926288Y693195D01*
X926781Y694049D01*
X927036Y695002D01*
Y695989D01*
X926781Y696941D01*
X926288Y697796D01*
X925590Y698493D01*
X924736Y698986D01*
X923783Y699242D01*
D02*
G37*
G36*
X821798Y680700D02*
X821002D01*
X820267Y680396D01*
X819705Y679833D01*
X819400Y679098D01*
Y678302D01*
X819705Y677567D01*
X820267Y677004D01*
X821002Y676700D01*
X821798D01*
X822533Y677004D01*
X823096Y677567D01*
X823400Y678302D01*
Y679098D01*
X823096Y679833D01*
X822533Y680396D01*
X821798Y680700D01*
D02*
G37*
G36*
X762546Y676983D02*
X761750D01*
X761015Y676679D01*
X760453Y676116D01*
X760148Y675381D01*
Y674586D01*
X760453Y673851D01*
X761015Y673288D01*
X761750Y672984D01*
X762546D01*
X763281Y673288D01*
X763844Y673851D01*
X764148Y674586D01*
Y675381D01*
X763844Y676116D01*
X763281Y676679D01*
X762546Y676983D01*
D02*
G37*
G36*
X907148Y698503D02*
X829648D01*
X829341Y698442D01*
X829080Y698268D01*
X828906Y698007D01*
X828845Y697700D01*
Y669894D01*
X828906Y669587D01*
X829080Y669326D01*
X829341Y669152D01*
X829648Y669091D01*
X907148D01*
X907455Y669152D01*
X907716Y669326D01*
X907890Y669587D01*
X907951Y669894D01*
Y697700D01*
X907890Y698007D01*
X907716Y698268D01*
X907455Y698442D01*
X907148Y698503D01*
D02*
G37*
G36*
X941500Y673651D02*
X940513D01*
X939560Y673396D01*
X938706Y672903D01*
X938008Y672205D01*
X937515Y671351D01*
X937260Y670398D01*
Y669412D01*
X937515Y668459D01*
X938008Y667604D01*
X938706Y666907D01*
X939560Y666414D01*
X940513Y666158D01*
X941500D01*
X942452Y666414D01*
X943307Y666907D01*
X944004Y667604D01*
X944497Y668459D01*
X944753Y669412D01*
Y670398D01*
X944497Y671351D01*
X944004Y672205D01*
X943307Y672903D01*
X942452Y673396D01*
X941500Y673651D01*
D02*
G37*
G36*
X923783D02*
X922797D01*
X921844Y673396D01*
X920989Y672903D01*
X920292Y672205D01*
X919799Y671351D01*
X919543Y670398D01*
Y669412D01*
X919799Y668459D01*
X920292Y667604D01*
X920989Y666907D01*
X921844Y666414D01*
X922797Y666158D01*
X923783D01*
X924736Y666414D01*
X925590Y666907D01*
X926288Y667604D01*
X926781Y668459D01*
X927036Y669412D01*
Y670398D01*
X926781Y671351D01*
X926288Y672205D01*
X925590Y672903D01*
X924736Y673396D01*
X923783Y673651D01*
D02*
G37*
G36*
X910546Y668200D02*
X909750D01*
X909015Y667896D01*
X908453Y667333D01*
X908148Y666598D01*
Y665802D01*
X908453Y665067D01*
X909015Y664504D01*
X909750Y664200D01*
X910546D01*
X911281Y664504D01*
X911844Y665067D01*
X912148Y665802D01*
Y666598D01*
X911844Y667333D01*
X911281Y667896D01*
X910546Y668200D01*
D02*
G37*
G36*
X814798Y667700D02*
X814002D01*
X813267Y667396D01*
X812704Y666833D01*
X812400Y666098D01*
Y665302D01*
X812704Y664567D01*
X813267Y664005D01*
X814002Y663700D01*
X814798D01*
X815533Y664005D01*
X816096Y664567D01*
X816400Y665302D01*
Y666098D01*
X816096Y666833D01*
X815533Y667396D01*
X814798Y667700D01*
D02*
G37*
G36*
X789273Y667680D02*
X788477D01*
X787742Y667376D01*
X787180Y666813D01*
X786875Y666078D01*
Y665282D01*
X787180Y664547D01*
X787742Y663985D01*
X788477Y663680D01*
X789273D01*
X790008Y663985D01*
X790571Y664547D01*
X790875Y665282D01*
Y666078D01*
X790571Y666813D01*
X790008Y667376D01*
X789273Y667680D01*
D02*
G37*
G36*
X912546Y663200D02*
X911750D01*
X911015Y662896D01*
X910453Y662333D01*
X910148Y661598D01*
Y660802D01*
X910453Y660067D01*
X911015Y659505D01*
X911750Y659200D01*
X912546D01*
X913281Y659505D01*
X913844Y660067D01*
X914148Y660802D01*
Y661598D01*
X913844Y662333D01*
X913281Y662896D01*
X912546Y663200D01*
D02*
G37*
G36*
X789273Y662720D02*
X788477D01*
X787742Y662416D01*
X787180Y661853D01*
X786875Y661118D01*
Y660322D01*
X787180Y659587D01*
X787742Y659024D01*
X788477Y658720D01*
X789273D01*
X790008Y659024D01*
X790571Y659587D01*
X790875Y660322D01*
Y661118D01*
X790571Y661853D01*
X790008Y662416D01*
X789273Y662720D01*
D02*
G37*
G36*
X922298Y657700D02*
X921502D01*
X920767Y657396D01*
X920205Y656833D01*
X919900Y656098D01*
Y655302D01*
X920205Y654567D01*
X920767Y654004D01*
X921502Y653700D01*
X922298D01*
X923033Y654004D01*
X923596Y654567D01*
X923900Y655302D01*
Y656098D01*
X923596Y656833D01*
X923033Y657396D01*
X922298Y657700D01*
D02*
G37*
G36*
X822046Y656200D02*
X821250D01*
X820515Y655896D01*
X819953Y655333D01*
X819648Y654598D01*
Y653802D01*
X819953Y653067D01*
X820515Y652504D01*
X821250Y652200D01*
X822046D01*
X822781Y652504D01*
X823344Y653067D01*
X823648Y653802D01*
Y654598D01*
X823344Y655333D01*
X822781Y655896D01*
X822046Y656200D01*
D02*
G37*
G36*
X810054Y652191D02*
X809259D01*
X808524Y651887D01*
X807961Y651324D01*
X807657Y650589D01*
Y649794D01*
X807961Y649058D01*
X808524Y648496D01*
X809259Y648191D01*
X810054D01*
X810790Y648496D01*
X811352Y649058D01*
X811657Y649794D01*
Y650589D01*
X811352Y651324D01*
X810790Y651887D01*
X810054Y652191D01*
D02*
G37*
G36*
X913748Y651902D02*
X912952D01*
X912217Y651597D01*
X911654Y651035D01*
X911350Y650300D01*
Y649504D01*
X911654Y648769D01*
X912217Y648206D01*
X912952Y647902D01*
X913748D01*
X914483Y648206D01*
X915046Y648769D01*
X915350Y649504D01*
Y650300D01*
X915046Y651035D01*
X914483Y651597D01*
X913748Y651902D01*
D02*
G37*
G36*
X925046Y648200D02*
X924250D01*
X923515Y647896D01*
X922953Y647333D01*
X922648Y646598D01*
Y645802D01*
X922953Y645067D01*
X923515Y644504D01*
X924250Y644200D01*
X925046D01*
X925781Y644504D01*
X926344Y645067D01*
X926648Y645802D01*
Y646598D01*
X926344Y647333D01*
X925781Y647896D01*
X925046Y648200D01*
D02*
G37*
G36*
X953033Y646928D02*
X952442D01*
X951897Y646702D01*
X951479Y646285D01*
X951253Y645739D01*
Y645149D01*
X951479Y644603D01*
X951897Y644186D01*
X952442Y643960D01*
X953033D01*
X953578Y644186D01*
X953996Y644603D01*
X954222Y645149D01*
Y645739D01*
X953996Y646285D01*
X953578Y646702D01*
X953033Y646928D01*
D02*
G37*
G36*
X949096D02*
X948505D01*
X947960Y646702D01*
X947542Y646285D01*
X947316Y645739D01*
Y645149D01*
X947542Y644603D01*
X947960Y644186D01*
X948505Y643960D01*
X949096D01*
X949641Y644186D01*
X950059Y644603D01*
X950285Y645149D01*
Y645739D01*
X950059Y646285D01*
X949641Y646702D01*
X949096Y646928D01*
D02*
G37*
G36*
X945159D02*
X944568D01*
X944023Y646702D01*
X943605Y646285D01*
X943379Y645739D01*
Y645149D01*
X943605Y644603D01*
X944023Y644186D01*
X944568Y643960D01*
X945159D01*
X945704Y644186D01*
X946122Y644603D01*
X946348Y645149D01*
Y645739D01*
X946122Y646285D01*
X945704Y646702D01*
X945159Y646928D01*
D02*
G37*
G36*
X941222D02*
X940631D01*
X940086Y646702D01*
X939668Y646285D01*
X939442Y645739D01*
Y645149D01*
X939668Y644603D01*
X940086Y644186D01*
X940631Y643960D01*
X941222D01*
X941767Y644186D01*
X942185Y644603D01*
X942411Y645149D01*
Y645739D01*
X942185Y646285D01*
X941767Y646702D01*
X941222Y646928D01*
D02*
G37*
G36*
X917046Y647200D02*
X916250D01*
X915515Y646896D01*
X914953Y646333D01*
X914648Y645598D01*
Y644802D01*
X914953Y644067D01*
X915515Y643504D01*
X916250Y643200D01*
X917046D01*
X917781Y643504D01*
X918344Y644067D01*
X918648Y644802D01*
Y645598D01*
X918344Y646333D01*
X917781Y646896D01*
X917046Y647200D01*
D02*
G37*
G36*
X813054Y647191D02*
X812259D01*
X811524Y646887D01*
X810961Y646324D01*
X810657Y645589D01*
Y644794D01*
X810961Y644059D01*
X811524Y643496D01*
X812259Y643191D01*
X813054D01*
X813790Y643496D01*
X814352Y644059D01*
X814657Y644794D01*
Y645589D01*
X814352Y646324D01*
X813790Y646887D01*
X813054Y647191D01*
D02*
G37*
G36*
X953033Y642991D02*
X952442D01*
X951897Y642765D01*
X951479Y642348D01*
X951253Y641802D01*
Y641212D01*
X951479Y640666D01*
X951897Y640249D01*
X952442Y640023D01*
X953033D01*
X953578Y640249D01*
X953996Y640666D01*
X954222Y641212D01*
Y641802D01*
X953996Y642348D01*
X953578Y642765D01*
X953033Y642991D01*
D02*
G37*
G36*
X949096D02*
X948505D01*
X947960Y642765D01*
X947542Y642348D01*
X947316Y641802D01*
Y641212D01*
X947542Y640666D01*
X947960Y640249D01*
X948505Y640023D01*
X949096D01*
X949641Y640249D01*
X950059Y640666D01*
X950285Y641212D01*
Y641802D01*
X950059Y642348D01*
X949641Y642765D01*
X949096Y642991D01*
D02*
G37*
G36*
X945159D02*
X944568D01*
X944023Y642765D01*
X943605Y642348D01*
X943379Y641802D01*
Y641212D01*
X943605Y640666D01*
X944023Y640249D01*
X944568Y640023D01*
X945159D01*
X945704Y640249D01*
X946122Y640666D01*
X946348Y641212D01*
Y641802D01*
X946122Y642348D01*
X945704Y642765D01*
X945159Y642991D01*
D02*
G37*
G36*
X941222D02*
X940631D01*
X940086Y642765D01*
X939668Y642348D01*
X939442Y641802D01*
Y641212D01*
X939668Y640666D01*
X940086Y640249D01*
X940631Y640023D01*
X941222D01*
X941767Y640249D01*
X942185Y640666D01*
X942411Y641212D01*
Y641802D01*
X942185Y642348D01*
X941767Y642765D01*
X941222Y642991D01*
D02*
G37*
G36*
X867741Y640902D02*
X867193D01*
X866686Y640692D01*
X866299Y640304D01*
X866089Y639798D01*
Y639250D01*
X866299Y638743D01*
X866686Y638355D01*
X867193Y638146D01*
X867741D01*
X868248Y638355D01*
X868635Y638743D01*
X868845Y639250D01*
Y639798D01*
X868635Y640304D01*
X868248Y640692D01*
X867741Y640902D01*
D02*
G37*
G36*
X862229D02*
X861681D01*
X861175Y640692D01*
X860787Y640304D01*
X860577Y639798D01*
Y639250D01*
X860787Y638743D01*
X861175Y638355D01*
X861681Y638146D01*
X862229D01*
X862736Y638355D01*
X863123Y638743D01*
X863333Y639250D01*
Y639798D01*
X863123Y640304D01*
X862736Y640692D01*
X862229Y640902D01*
D02*
G37*
G36*
X953033Y639054D02*
X952442D01*
X951897Y638828D01*
X951479Y638411D01*
X951253Y637865D01*
Y637275D01*
X951479Y636729D01*
X951897Y636312D01*
X952442Y636086D01*
X953033D01*
X953578Y636312D01*
X953996Y636729D01*
X954222Y637275D01*
Y637865D01*
X953996Y638411D01*
X953578Y638828D01*
X953033Y639054D01*
D02*
G37*
G36*
X949096D02*
X948505D01*
X947960Y638828D01*
X947542Y638411D01*
X947316Y637865D01*
Y637275D01*
X947542Y636729D01*
X947960Y636312D01*
X948505Y636086D01*
X949096D01*
X949641Y636312D01*
X950059Y636729D01*
X950285Y637275D01*
Y637865D01*
X950059Y638411D01*
X949641Y638828D01*
X949096Y639054D01*
D02*
G37*
G36*
X945159D02*
X944568D01*
X944023Y638828D01*
X943605Y638411D01*
X943379Y637865D01*
Y637275D01*
X943605Y636729D01*
X944023Y636312D01*
X944568Y636086D01*
X945159D01*
X945704Y636312D01*
X946122Y636729D01*
X946348Y637275D01*
Y637865D01*
X946122Y638411D01*
X945704Y638828D01*
X945159Y639054D01*
D02*
G37*
G36*
X941222D02*
X940631D01*
X940086Y638828D01*
X939668Y638411D01*
X939442Y637865D01*
Y637275D01*
X939668Y636729D01*
X940086Y636312D01*
X940631Y636086D01*
X941222D01*
X941767Y636312D01*
X942185Y636729D01*
X942411Y637275D01*
Y637865D01*
X942185Y638411D01*
X941767Y638828D01*
X941222Y639054D01*
D02*
G37*
G36*
X870540Y638102D02*
X869992D01*
X869486Y637893D01*
X869098Y637505D01*
X868888Y636999D01*
Y636450D01*
X869098Y635944D01*
X869486Y635556D01*
X869992Y635347D01*
X870540D01*
X871047Y635556D01*
X871434Y635944D01*
X871644Y636450D01*
Y636999D01*
X871434Y637505D01*
X871047Y637893D01*
X870540Y638102D01*
D02*
G37*
G36*
X865028D02*
X864480D01*
X863974Y637893D01*
X863586Y637505D01*
X863376Y636999D01*
Y636450D01*
X863586Y635944D01*
X863974Y635556D01*
X864480Y635347D01*
X865028D01*
X865535Y635556D01*
X865923Y635944D01*
X866132Y636450D01*
Y636999D01*
X865923Y637505D01*
X865535Y637893D01*
X865028Y638102D01*
D02*
G37*
G36*
X859517D02*
X858968D01*
X858462Y637893D01*
X858074Y637505D01*
X857865Y636999D01*
Y636450D01*
X858074Y635944D01*
X858462Y635556D01*
X858968Y635347D01*
X859517D01*
X860023Y635556D01*
X860411Y635944D01*
X860620Y636450D01*
Y636999D01*
X860411Y637505D01*
X860023Y637893D01*
X859517Y638102D01*
D02*
G37*
G36*
X792046Y638700D02*
X791250D01*
X790515Y638396D01*
X789953Y637833D01*
X789648Y637098D01*
Y636302D01*
X789953Y635567D01*
X790515Y635005D01*
X791250Y634700D01*
X792046D01*
X792781Y635005D01*
X793344Y635567D01*
X793648Y636302D01*
Y637098D01*
X793344Y637833D01*
X792781Y638396D01*
X792046Y638700D01*
D02*
G37*
G36*
X927418Y638078D02*
X926623D01*
X925888Y637773D01*
X925325Y637211D01*
X925021Y636476D01*
Y635680D01*
X925325Y634945D01*
X925888Y634382D01*
X926623Y634078D01*
X927418D01*
X928154Y634382D01*
X928716Y634945D01*
X929021Y635680D01*
Y636476D01*
X928716Y637211D01*
X928154Y637773D01*
X927418Y638078D01*
D02*
G37*
G36*
X775046Y637200D02*
X774250D01*
X773515Y636896D01*
X772953Y636333D01*
X772648Y635598D01*
Y634802D01*
X772953Y634067D01*
X773515Y633504D01*
X774250Y633200D01*
X775046D01*
X775781Y633504D01*
X776344Y634067D01*
X776648Y634802D01*
Y635598D01*
X776344Y636333D01*
X775781Y636896D01*
X775046Y637200D01*
D02*
G37*
G36*
X867741Y635390D02*
X867193D01*
X866686Y635180D01*
X866299Y634792D01*
X866089Y634286D01*
Y633738D01*
X866299Y633231D01*
X866686Y632844D01*
X867193Y632634D01*
X867741D01*
X868248Y632844D01*
X868635Y633231D01*
X868845Y633738D01*
Y634286D01*
X868635Y634792D01*
X868248Y635180D01*
X867741Y635390D01*
D02*
G37*
G36*
X862229D02*
X861681D01*
X861175Y635180D01*
X860787Y634792D01*
X860577Y634286D01*
Y633738D01*
X860787Y633231D01*
X861175Y632844D01*
X861681Y632634D01*
X862229D01*
X862736Y632844D01*
X863123Y633231D01*
X863333Y633738D01*
Y634286D01*
X863123Y634792D01*
X862736Y635180D01*
X862229Y635390D01*
D02*
G37*
G36*
X870540Y632590D02*
X869992D01*
X869486Y632381D01*
X869098Y631993D01*
X868888Y631487D01*
Y630938D01*
X869098Y630432D01*
X869486Y630044D01*
X869992Y629835D01*
X870540D01*
X871047Y630044D01*
X871434Y630432D01*
X871644Y630938D01*
Y631487D01*
X871434Y631993D01*
X871047Y632381D01*
X870540Y632590D01*
D02*
G37*
G36*
X859517D02*
X858968D01*
X858462Y632381D01*
X858074Y631993D01*
X857865Y631487D01*
Y630938D01*
X858074Y630432D01*
X858462Y630044D01*
X858968Y629835D01*
X859517D01*
X860023Y630044D01*
X860411Y630432D01*
X860620Y630938D01*
Y631487D01*
X860411Y631993D01*
X860023Y632381D01*
X859517Y632590D01*
D02*
G37*
G36*
X867741Y629878D02*
X867193D01*
X866686Y629668D01*
X866299Y629281D01*
X866089Y628774D01*
Y628226D01*
X866299Y627719D01*
X866686Y627332D01*
X867193Y627122D01*
X867741D01*
X868248Y627332D01*
X868635Y627719D01*
X868845Y628226D01*
Y628774D01*
X868635Y629281D01*
X868248Y629668D01*
X867741Y629878D01*
D02*
G37*
G36*
X862229D02*
X861681D01*
X861175Y629668D01*
X860787Y629281D01*
X860577Y628774D01*
Y628226D01*
X860787Y627719D01*
X861175Y627332D01*
X861681Y627122D01*
X862229D01*
X862736Y627332D01*
X863123Y627719D01*
X863333Y628226D01*
Y628774D01*
X863123Y629281D01*
X862736Y629668D01*
X862229Y629878D01*
D02*
G37*
G36*
X911046Y627200D02*
X910250D01*
X909515Y626896D01*
X908953Y626333D01*
X908648Y625598D01*
Y624802D01*
X908953Y624067D01*
X909515Y623504D01*
X910250Y623200D01*
X911046D01*
X911781Y623504D01*
X912344Y624067D01*
X912648Y624802D01*
Y625598D01*
X912344Y626333D01*
X911781Y626896D01*
X911046Y627200D01*
D02*
G37*
G36*
X807102Y624351D02*
X806848D01*
Y621100D01*
X810099D01*
Y621354D01*
X809864Y622232D01*
X809410Y623019D01*
X808767Y623662D01*
X807980Y624116D01*
X807102Y624351D01*
D02*
G37*
G36*
X806448D02*
X806194D01*
X805316Y624116D01*
X804529Y623662D01*
X803886Y623019D01*
X803432Y622232D01*
X803197Y621354D01*
Y621100D01*
X806448D01*
Y624351D01*
D02*
G37*
G36*
X944686Y623044D02*
X943891D01*
X943155Y622740D01*
X942593Y622177D01*
X942288Y621442D01*
Y620646D01*
X942593Y619911D01*
X943155Y619349D01*
X943891Y619044D01*
X944686D01*
X945421Y619349D01*
X945984Y619911D01*
X946288Y620646D01*
Y621442D01*
X945984Y622177D01*
X945421Y622740D01*
X944686Y623044D01*
D02*
G37*
G36*
X810099Y620700D02*
X806848D01*
Y617449D01*
X807102D01*
X807980Y617684D01*
X808767Y618138D01*
X809410Y618781D01*
X809864Y619568D01*
X810099Y620446D01*
Y620700D01*
D02*
G37*
G36*
X806448D02*
X803197D01*
Y620446D01*
X803432Y619568D01*
X803886Y618781D01*
X804529Y618138D01*
X805316Y617684D01*
X806194Y617449D01*
X806448D01*
Y620700D01*
D02*
G37*
G36*
X800099Y624351D02*
X793197D01*
Y617449D01*
X800099D01*
Y624351D01*
D02*
G37*
G36*
X981966Y629117D02*
X980338D01*
X978730Y628863D01*
X977182Y628360D01*
X975731Y627621D01*
X974414Y626664D01*
X973263Y625513D01*
X972306Y624195D01*
X971567Y622745D01*
X971064Y621197D01*
X970809Y619589D01*
Y617961D01*
X971064Y616353D01*
X971567Y614805D01*
X972306Y613354D01*
X973263Y612037D01*
X974414Y610886D01*
X975731Y609929D01*
X977182Y609190D01*
X978730Y608687D01*
X980338Y608432D01*
X981966D01*
X983574Y608687D01*
X985122Y609190D01*
X986573Y609929D01*
X987890Y610886D01*
X989041Y612037D01*
X989998Y613354D01*
X990737Y614805D01*
X991240Y616353D01*
X991494Y617961D01*
Y619589D01*
X991240Y621197D01*
X990737Y622745D01*
X989998Y624195D01*
X989041Y625513D01*
X987890Y626664D01*
X986573Y627621D01*
X985122Y628360D01*
X983574Y628863D01*
X981966Y629117D01*
D02*
G37*
G36*
X761903Y629117D02*
X760275D01*
X758667Y628862D01*
X757119Y628359D01*
X755668Y627620D01*
X754351Y626663D01*
X753200Y625512D01*
X752243Y624195D01*
X751504Y622744D01*
X751001Y621196D01*
X750746Y619588D01*
Y617960D01*
X751001Y616352D01*
X751504Y614804D01*
X752243Y613353D01*
X753200Y612036D01*
X754351Y610885D01*
X755668Y609928D01*
X757119Y609189D01*
X758667Y608686D01*
X760275Y608431D01*
X761903D01*
X763511Y608686D01*
X765059Y609189D01*
X766510Y609928D01*
X767827Y610885D01*
X768978Y612036D01*
X769935Y613353D01*
X770674Y614804D01*
X771177Y616352D01*
X771431Y617960D01*
Y619588D01*
X771177Y621196D01*
X770674Y622744D01*
X769935Y624195D01*
X768978Y625512D01*
X767827Y626663D01*
X766510Y627620D01*
X765059Y628359D01*
X763511Y628862D01*
X761903Y629117D01*
D02*
G37*
G36*
X807102Y614351D02*
X806194D01*
X805316Y614116D01*
X804529Y613662D01*
X803886Y613019D01*
X803432Y612232D01*
X803197Y611354D01*
Y610446D01*
X803432Y609568D01*
X803886Y608781D01*
X804529Y608138D01*
X805316Y607684D01*
X806194Y607449D01*
X807102D01*
X807980Y607684D01*
X808767Y608138D01*
X809410Y608781D01*
X809864Y609568D01*
X810099Y610446D01*
Y611354D01*
X809864Y612232D01*
X809410Y613019D01*
X808767Y613662D01*
X807980Y614116D01*
X807102Y614351D01*
D02*
G37*
G36*
X797102D02*
X796194D01*
X795316Y614116D01*
X794529Y613662D01*
X793886Y613019D01*
X793432Y612232D01*
X793197Y611354D01*
Y610446D01*
X793432Y609568D01*
X793886Y608781D01*
X794529Y608138D01*
X795316Y607684D01*
X796194Y607449D01*
X797102D01*
X797980Y607684D01*
X798767Y608138D01*
X799410Y608781D01*
X799864Y609568D01*
X800099Y610446D01*
Y611354D01*
X799864Y612232D01*
X799410Y613019D01*
X798767Y613662D01*
X797980Y614116D01*
X797102Y614351D01*
D02*
G37*
G36*
X807102Y604351D02*
X806194D01*
X805316Y604116D01*
X804529Y603662D01*
X803886Y603019D01*
X803432Y602232D01*
X803197Y601354D01*
Y600446D01*
X803432Y599568D01*
X803886Y598781D01*
X804529Y598138D01*
X805316Y597684D01*
X806194Y597449D01*
X807102D01*
X807980Y597684D01*
X808767Y598138D01*
X809410Y598781D01*
X809864Y599568D01*
X810099Y600446D01*
Y601354D01*
X809864Y602232D01*
X809410Y603019D01*
X808767Y603662D01*
X807980Y604116D01*
X807102Y604351D01*
D02*
G37*
G36*
X797102D02*
X796194D01*
X795316Y604116D01*
X794529Y603662D01*
X793886Y603019D01*
X793432Y602232D01*
X793197Y601354D01*
Y600446D01*
X793432Y599568D01*
X793886Y598781D01*
X794529Y598138D01*
X795316Y597684D01*
X796194Y597449D01*
X797102D01*
X797980Y597684D01*
X798767Y598138D01*
X799410Y598781D01*
X799864Y599568D01*
X800099Y600446D01*
Y601354D01*
X799864Y602232D01*
X799410Y603019D01*
X798767Y603662D01*
X797980Y604116D01*
X797102Y604351D01*
D02*
G37*
G36*
X971678Y604541D02*
X970691D01*
X969738Y604286D01*
X968884Y603792D01*
X968186Y603095D01*
X967693Y602241D01*
X967438Y601288D01*
Y600301D01*
X967693Y599348D01*
X968186Y598494D01*
X968884Y597796D01*
X969738Y597303D01*
X970691Y597048D01*
X971678D01*
X972630Y597303D01*
X973485Y597796D01*
X974182Y598494D01*
X974675Y599348D01*
X974931Y600301D01*
Y601288D01*
X974675Y602241D01*
X974182Y603095D01*
X973485Y603792D01*
X972630Y604286D01*
X971678Y604541D01*
D02*
G37*
G36*
X946087D02*
X945101D01*
X944148Y604286D01*
X943293Y603792D01*
X942596Y603095D01*
X942103Y602241D01*
X941847Y601288D01*
Y600301D01*
X942103Y599348D01*
X942596Y598494D01*
X943293Y597796D01*
X944148Y597303D01*
X945101Y597048D01*
X946087D01*
X947040Y597303D01*
X947894Y597796D01*
X948592Y598494D01*
X949085Y599348D01*
X949340Y600301D01*
Y601288D01*
X949085Y602241D01*
X948592Y603095D01*
X947894Y603792D01*
X947040Y604286D01*
X946087Y604541D01*
D02*
G37*
G36*
X897298Y594200D02*
X896502D01*
X895767Y593896D01*
X895205Y593333D01*
X894900Y592598D01*
Y591802D01*
X895205Y591067D01*
X895767Y590505D01*
X896502Y590200D01*
X897298D01*
X898033Y590505D01*
X898596Y591067D01*
X898900Y591802D01*
Y592598D01*
X898596Y593333D01*
X898033Y593896D01*
X897298Y594200D01*
D02*
G37*
G36*
X807102Y594351D02*
X806194D01*
X805316Y594116D01*
X804529Y593662D01*
X803886Y593019D01*
X803432Y592232D01*
X803197Y591354D01*
Y590446D01*
X803432Y589568D01*
X803886Y588781D01*
X804529Y588138D01*
X805316Y587684D01*
X806194Y587449D01*
X807102D01*
X807980Y587684D01*
X808767Y588138D01*
X809410Y588781D01*
X809864Y589568D01*
X810099Y590446D01*
Y591354D01*
X809864Y592232D01*
X809410Y593019D01*
X808767Y593662D01*
X807980Y594116D01*
X807102Y594351D01*
D02*
G37*
G36*
X797102D02*
X796194D01*
X795316Y594116D01*
X794529Y593662D01*
X793886Y593019D01*
X793432Y592232D01*
X793197Y591354D01*
Y590446D01*
X793432Y589568D01*
X793886Y588781D01*
X794529Y588138D01*
X795316Y587684D01*
X796194Y587449D01*
X797102D01*
X797980Y587684D01*
X798767Y588138D01*
X799410Y588781D01*
X799864Y589568D01*
X800099Y590446D01*
Y591354D01*
X799864Y592232D01*
X799410Y593019D01*
X798767Y593662D01*
X797980Y594116D01*
X797102Y594351D01*
D02*
G37*
G36*
X891546Y591200D02*
X890750D01*
X890015Y590896D01*
X889453Y590333D01*
X889148Y589598D01*
Y588802D01*
X889453Y588067D01*
X890015Y587504D01*
X890750Y587200D01*
X891546D01*
X892281Y587504D01*
X892844Y588067D01*
X893148Y588802D01*
Y589598D01*
X892844Y590333D01*
X892281Y590896D01*
X891546Y591200D01*
D02*
G37*
G36*
X886546D02*
X885750D01*
X885015Y590896D01*
X884453Y590333D01*
X884148Y589598D01*
Y588802D01*
X884453Y588067D01*
X885015Y587504D01*
X885750Y587200D01*
X886546D01*
X887281Y587504D01*
X887844Y588067D01*
X888148Y588802D01*
Y589598D01*
X887844Y590333D01*
X887281Y590896D01*
X886546Y591200D01*
D02*
G37*
G36*
X851278Y590932D02*
X850482D01*
X849747Y590628D01*
X849185Y590065D01*
X848880Y589330D01*
Y588534D01*
X849185Y587799D01*
X849747Y587237D01*
X850482Y586932D01*
X851278D01*
X852013Y587237D01*
X852576Y587799D01*
X852880Y588534D01*
Y589330D01*
X852576Y590065D01*
X852013Y590628D01*
X851278Y590932D01*
D02*
G37*
G36*
X837546Y589700D02*
X836750D01*
X836015Y589396D01*
X835453Y588833D01*
X835148Y588098D01*
Y587302D01*
X835453Y586567D01*
X836015Y586004D01*
X836750Y585700D01*
X837546D01*
X838281Y586004D01*
X838844Y586567D01*
X839148Y587302D01*
Y588098D01*
X838844Y588833D01*
X838281Y589396D01*
X837546Y589700D01*
D02*
G37*
G36*
X871213Y587200D02*
X870417D01*
X869682Y586896D01*
X869120Y586333D01*
X868815Y585598D01*
Y584803D01*
X869120Y584067D01*
X869682Y583505D01*
X870417Y583200D01*
X871213D01*
X871948Y583505D01*
X872511Y584067D01*
X872815Y584803D01*
Y585598D01*
X872511Y586333D01*
X871948Y586896D01*
X871213Y587200D01*
D02*
G37*
G36*
X971678Y586824D02*
X970691D01*
X969738Y586569D01*
X968884Y586076D01*
X968186Y585378D01*
X967693Y584524D01*
X967438Y583571D01*
Y582585D01*
X967693Y581632D01*
X968186Y580778D01*
X968884Y580080D01*
X969738Y579587D01*
X970691Y579331D01*
X971678D01*
X972630Y579587D01*
X973485Y580080D01*
X974182Y580778D01*
X974675Y581632D01*
X974931Y582585D01*
Y583571D01*
X974675Y584524D01*
X974182Y585378D01*
X973485Y586076D01*
X972630Y586569D01*
X971678Y586824D01*
D02*
G37*
G36*
X946087D02*
X945101D01*
X944148Y586569D01*
X943293Y586076D01*
X942596Y585378D01*
X942103Y584524D01*
X941847Y583571D01*
Y582585D01*
X942103Y581632D01*
X942596Y580778D01*
X943293Y580080D01*
X944148Y579587D01*
X945101Y579331D01*
X946087D01*
X947040Y579587D01*
X947894Y580080D01*
X948592Y580778D01*
X949085Y581632D01*
X949340Y582585D01*
Y583571D01*
X949085Y584524D01*
X948592Y585378D01*
X947894Y586076D01*
X947040Y586569D01*
X946087Y586824D01*
D02*
G37*
G36*
X876546Y582200D02*
X875750D01*
X875015Y581896D01*
X874453Y581333D01*
X874148Y580598D01*
Y579802D01*
X874453Y579067D01*
X875015Y578505D01*
X875750Y578200D01*
X876546D01*
X877281Y578505D01*
X877844Y579067D01*
X878148Y579802D01*
Y580598D01*
X877844Y581333D01*
X877281Y581896D01*
X876546Y582200D01*
D02*
G37*
G36*
X889046Y582200D02*
X888250D01*
X887515Y581895D01*
X886953Y581333D01*
X886648Y580598D01*
Y579802D01*
X886953Y579067D01*
X887515Y578505D01*
X888250Y578200D01*
X889046D01*
X889781Y578505D01*
X890344Y579067D01*
X890648Y579802D01*
Y580598D01*
X890344Y581333D01*
X889781Y581895D01*
X889046Y582200D01*
D02*
G37*
G36*
X922446Y581700D02*
X921650D01*
X920915Y581396D01*
X920353Y580833D01*
X920048Y580098D01*
Y579302D01*
X920353Y578567D01*
X920915Y578005D01*
X921650Y577700D01*
X922446D01*
X923181Y578005D01*
X923744Y578567D01*
X924048Y579302D01*
Y580098D01*
X923744Y580833D01*
X923181Y581396D01*
X922446Y581700D01*
D02*
G37*
G36*
X807102Y584351D02*
X806194D01*
X805316Y584116D01*
X804529Y583662D01*
X803886Y583019D01*
X803432Y582232D01*
X803197Y581354D01*
Y580446D01*
X803432Y579568D01*
X803886Y578781D01*
X804529Y578138D01*
X805316Y577684D01*
X806194Y577449D01*
X807102D01*
X807980Y577684D01*
X808767Y578138D01*
X809410Y578781D01*
X809864Y579568D01*
X810099Y580446D01*
Y581354D01*
X809864Y582232D01*
X809410Y583019D01*
X808767Y583662D01*
X807980Y584116D01*
X807102Y584351D01*
D02*
G37*
G36*
X797102D02*
X796194D01*
X795316Y584116D01*
X794529Y583662D01*
X793886Y583019D01*
X793432Y582232D01*
X793197Y581354D01*
Y580446D01*
X793432Y579568D01*
X793886Y578781D01*
X794529Y578138D01*
X795316Y577684D01*
X796194Y577449D01*
X797102D01*
X797980Y577684D01*
X798767Y578138D01*
X799410Y578781D01*
X799864Y579568D01*
X800099Y580446D01*
Y581354D01*
X799864Y582232D01*
X799410Y583019D01*
X798767Y583662D01*
X797980Y584116D01*
X797102Y584351D01*
D02*
G37*
G36*
X859546Y580700D02*
X858750D01*
X858015Y580396D01*
X857453Y579833D01*
X857148Y579098D01*
Y578302D01*
X857453Y577567D01*
X858015Y577004D01*
X858750Y576700D01*
X859546D01*
X860281Y577004D01*
X860844Y577567D01*
X861148Y578302D01*
Y579098D01*
X860844Y579833D01*
X860281Y580396D01*
X859546Y580700D01*
D02*
G37*
G36*
X881546Y576700D02*
X880750D01*
X880015Y576396D01*
X879453Y575833D01*
X879148Y575098D01*
Y574302D01*
X879453Y573567D01*
X880015Y573004D01*
X880750Y572700D01*
X881546D01*
X882281Y573004D01*
X882844Y573567D01*
X883148Y574302D01*
Y575098D01*
X882844Y575833D01*
X882281Y576396D01*
X881546Y576700D01*
D02*
G37*
G36*
X889046Y576200D02*
X888250D01*
X887515Y575896D01*
X886953Y575333D01*
X886648Y574598D01*
Y573802D01*
X886953Y573067D01*
X887515Y572505D01*
X888250Y572200D01*
X889046D01*
X889781Y572505D01*
X890344Y573067D01*
X890648Y573802D01*
Y574598D01*
X890344Y575333D01*
X889781Y575896D01*
X889046Y576200D01*
D02*
G37*
G36*
X844046Y574700D02*
X843250D01*
X842515Y574396D01*
X841953Y573833D01*
X841648Y573098D01*
Y572302D01*
X841953Y571567D01*
X842515Y571004D01*
X843250Y570700D01*
X844046D01*
X844781Y571004D01*
X845344Y571567D01*
X845648Y572302D01*
Y573098D01*
X845344Y573833D01*
X844781Y574396D01*
X844046Y574700D01*
D02*
G37*
G36*
X807102Y574351D02*
X806194D01*
X805316Y574116D01*
X804529Y573662D01*
X803886Y573019D01*
X803432Y572232D01*
X803197Y571354D01*
Y570446D01*
X803432Y569568D01*
X803886Y568781D01*
X804529Y568138D01*
X805316Y567684D01*
X806194Y567449D01*
X807102D01*
X807980Y567684D01*
X808767Y568138D01*
X809410Y568781D01*
X809864Y569568D01*
X810099Y570446D01*
Y571354D01*
X809864Y572232D01*
X809410Y573019D01*
X808767Y573662D01*
X807980Y574116D01*
X807102Y574351D01*
D02*
G37*
G36*
X797102D02*
X796194D01*
X795316Y574116D01*
X794529Y573662D01*
X793886Y573019D01*
X793432Y572232D01*
X793197Y571354D01*
Y570446D01*
X793432Y569568D01*
X793886Y568781D01*
X794529Y568138D01*
X795316Y567684D01*
X796194Y567449D01*
X797102D01*
X797980Y567684D01*
X798767Y568138D01*
X799410Y568781D01*
X799864Y569568D01*
X800099Y570446D01*
Y571354D01*
X799864Y572232D01*
X799410Y573019D01*
X798767Y573662D01*
X797980Y574116D01*
X797102Y574351D01*
D02*
G37*
G36*
X859458Y571322D02*
X858662D01*
X857927Y571018D01*
X857364Y570456D01*
X857060Y569720D01*
Y568925D01*
X857364Y568190D01*
X857927Y567627D01*
X858662Y567322D01*
X859458D01*
X860193Y567627D01*
X860756Y568190D01*
X861060Y568925D01*
Y569720D01*
X860756Y570456D01*
X860193Y571018D01*
X859458Y571322D01*
D02*
G37*
G36*
X876546Y569900D02*
X875750D01*
X875015Y569596D01*
X874453Y569033D01*
X874148Y568298D01*
Y567502D01*
X874453Y566767D01*
X875015Y566205D01*
X875750Y565900D01*
X876546D01*
X877281Y566205D01*
X877844Y566767D01*
X878148Y567502D01*
Y568298D01*
X877844Y569033D01*
X877281Y569596D01*
X876546Y569900D01*
D02*
G37*
G36*
X884798Y564700D02*
X884002D01*
X883267Y564396D01*
X882705Y563833D01*
X882400Y563098D01*
Y562302D01*
X882705Y561567D01*
X883267Y561004D01*
X884002Y560700D01*
X884798D01*
X885533Y561004D01*
X886096Y561567D01*
X886400Y562302D01*
Y563098D01*
X886096Y563833D01*
X885533Y564396D01*
X884798Y564700D01*
D02*
G37*
G36*
X807102Y564351D02*
X806194D01*
X805316Y564116D01*
X804529Y563662D01*
X803886Y563019D01*
X803432Y562232D01*
X803197Y561354D01*
Y560446D01*
X803432Y559568D01*
X803886Y558781D01*
X804529Y558138D01*
X805316Y557684D01*
X806194Y557449D01*
X807102D01*
X807980Y557684D01*
X808767Y558138D01*
X809410Y558781D01*
X809864Y559568D01*
X810099Y560446D01*
Y561354D01*
X809864Y562232D01*
X809410Y563019D01*
X808767Y563662D01*
X807980Y564116D01*
X807102Y564351D01*
D02*
G37*
G36*
X797102D02*
X796194D01*
X795316Y564116D01*
X794529Y563662D01*
X793886Y563019D01*
X793432Y562232D01*
X793197Y561354D01*
Y560446D01*
X793432Y559568D01*
X793886Y558781D01*
X794529Y558138D01*
X795316Y557684D01*
X796194Y557449D01*
X797102D01*
X797980Y557684D01*
X798767Y558138D01*
X799410Y558781D01*
X799864Y559568D01*
X800099Y560446D01*
Y561354D01*
X799864Y562232D01*
X799410Y563019D01*
X798767Y563662D01*
X797980Y564116D01*
X797102Y564351D01*
D02*
G37*
G36*
X807102Y554351D02*
X806194D01*
X805316Y554116D01*
X804529Y553662D01*
X803886Y553019D01*
X803432Y552232D01*
X803197Y551354D01*
Y550446D01*
X803432Y549568D01*
X803886Y548781D01*
X804529Y548138D01*
X805316Y547684D01*
X806194Y547449D01*
X807102D01*
X807980Y547684D01*
X808767Y548138D01*
X809410Y548781D01*
X809864Y549568D01*
X810099Y550446D01*
Y551354D01*
X809864Y552232D01*
X809410Y553019D01*
X808767Y553662D01*
X807980Y554116D01*
X807102Y554351D01*
D02*
G37*
G36*
X797102D02*
X796194D01*
X795316Y554116D01*
X794529Y553662D01*
X793886Y553019D01*
X793432Y552232D01*
X793197Y551354D01*
Y550446D01*
X793432Y549568D01*
X793886Y548781D01*
X794529Y548138D01*
X795316Y547684D01*
X796194Y547449D01*
X797102D01*
X797980Y547684D01*
X798767Y548138D01*
X799410Y548781D01*
X799864Y549568D01*
X800099Y550446D01*
Y551354D01*
X799864Y552232D01*
X799410Y553019D01*
X798767Y553662D01*
X797980Y554116D01*
X797102Y554351D01*
D02*
G37*
G36*
X981966Y559117D02*
X980338D01*
X978730Y558863D01*
X977182Y558360D01*
X975731Y557621D01*
X974414Y556664D01*
X973263Y555513D01*
X972306Y554195D01*
X971567Y552745D01*
X971064Y551197D01*
X970809Y549589D01*
Y547961D01*
X971064Y546353D01*
X971567Y544805D01*
X972306Y543354D01*
X973263Y542037D01*
X974414Y540886D01*
X975731Y539929D01*
X977182Y539190D01*
X978730Y538687D01*
X980338Y538432D01*
X981966D01*
X983574Y538687D01*
X985122Y539190D01*
X986573Y539929D01*
X987890Y540886D01*
X989041Y542037D01*
X989998Y543354D01*
X990737Y544805D01*
X991240Y546353D01*
X991494Y547961D01*
Y549589D01*
X991240Y551197D01*
X990737Y552745D01*
X989998Y554195D01*
X989041Y555513D01*
X987890Y556664D01*
X986573Y557621D01*
X985122Y558360D01*
X983574Y558863D01*
X981966Y559117D01*
D02*
G37*
G36*
X761903Y559117D02*
X760275D01*
X758667Y558862D01*
X757119Y558359D01*
X755668Y557620D01*
X754351Y556663D01*
X753200Y555512D01*
X752243Y554195D01*
X751504Y552744D01*
X751001Y551196D01*
X750746Y549588D01*
Y547960D01*
X751001Y546352D01*
X751504Y544804D01*
X752243Y543353D01*
X753200Y542036D01*
X754351Y540885D01*
X755668Y539928D01*
X757119Y539189D01*
X758667Y538686D01*
X760275Y538432D01*
X761903D01*
X763511Y538686D01*
X765059Y539189D01*
X766510Y539928D01*
X767827Y540885D01*
X768978Y542036D01*
X769935Y543353D01*
X770674Y544804D01*
X771177Y546352D01*
X771431Y547960D01*
Y549588D01*
X771177Y551196D01*
X770674Y552744D01*
X769935Y554195D01*
X768978Y555512D01*
X767827Y556663D01*
X766510Y557620D01*
X765059Y558359D01*
X763511Y558862D01*
X761903Y559117D01*
D02*
G37*
G36*
X807102Y544351D02*
X806194D01*
X805316Y544116D01*
X804529Y543662D01*
X803886Y543019D01*
X803432Y542232D01*
X803197Y541354D01*
Y540446D01*
X803432Y539568D01*
X803886Y538781D01*
X804529Y538138D01*
X805316Y537684D01*
X806194Y537449D01*
X807102D01*
X807980Y537684D01*
X808767Y538138D01*
X809410Y538781D01*
X809864Y539568D01*
X810099Y540446D01*
Y541354D01*
X809864Y542232D01*
X809410Y543019D01*
X808767Y543662D01*
X807980Y544116D01*
X807102Y544351D01*
D02*
G37*
G36*
X797102D02*
X796194D01*
X795316Y544116D01*
X794529Y543662D01*
X793886Y543019D01*
X793432Y542232D01*
X793197Y541354D01*
Y540446D01*
X793432Y539568D01*
X793886Y538781D01*
X794529Y538138D01*
X795316Y537684D01*
X796194Y537449D01*
X797102D01*
X797980Y537684D01*
X798767Y538138D01*
X799410Y538781D01*
X799864Y539568D01*
X800099Y540446D01*
Y541354D01*
X799864Y542232D01*
X799410Y543019D01*
X798767Y543662D01*
X797980Y544116D01*
X797102Y544351D01*
D02*
G37*
G36*
X807102Y534351D02*
X806194D01*
X805316Y534116D01*
X804529Y533662D01*
X803886Y533019D01*
X803432Y532232D01*
X803197Y531354D01*
Y530446D01*
X803432Y529568D01*
X803886Y528781D01*
X804529Y528138D01*
X805316Y527684D01*
X806194Y527449D01*
X807102D01*
X807980Y527684D01*
X808767Y528138D01*
X809410Y528781D01*
X809864Y529568D01*
X810099Y530446D01*
Y531354D01*
X809864Y532232D01*
X809410Y533019D01*
X808767Y533662D01*
X807980Y534116D01*
X807102Y534351D01*
D02*
G37*
G36*
X797102D02*
X796194D01*
X795316Y534116D01*
X794529Y533662D01*
X793886Y533019D01*
X793432Y532232D01*
X793197Y531354D01*
Y530446D01*
X793432Y529568D01*
X793886Y528781D01*
X794529Y528138D01*
X795316Y527684D01*
X796194Y527449D01*
X797102D01*
X797980Y527684D01*
X798767Y528138D01*
X799410Y528781D01*
X799864Y529568D01*
X800099Y530446D01*
Y531354D01*
X799864Y532232D01*
X799410Y533019D01*
X798767Y533662D01*
X797980Y534116D01*
X797102Y534351D01*
D02*
G37*
G36*
X912546Y515200D02*
X911750D01*
X911015Y514896D01*
X910453Y514333D01*
X910148Y513598D01*
Y512802D01*
X910453Y512067D01*
X911015Y511505D01*
X911750Y511200D01*
X912546D01*
X913281Y511505D01*
X913844Y512067D01*
X914148Y512802D01*
Y513598D01*
X913844Y514333D01*
X913281Y514896D01*
X912546Y515200D01*
D02*
G37*
G36*
X907546D02*
X906750D01*
X906015Y514896D01*
X905453Y514333D01*
X905148Y513598D01*
Y512802D01*
X905453Y512067D01*
X906015Y511505D01*
X906750Y511200D01*
X907546D01*
X908281Y511505D01*
X908844Y512067D01*
X909148Y512802D01*
Y513598D01*
X908844Y514333D01*
X908281Y514896D01*
X907546Y515200D01*
D02*
G37*
G36*
X903046D02*
X902250D01*
X901515Y514896D01*
X900953Y514333D01*
X900648Y513598D01*
Y512802D01*
X900953Y512067D01*
X901515Y511505D01*
X902250Y511200D01*
X903046D01*
X903781Y511505D01*
X904344Y512067D01*
X904648Y512802D01*
Y513598D01*
X904344Y514333D01*
X903781Y514896D01*
X903046Y515200D01*
D02*
G37*
G36*
X898546D02*
X897750D01*
X897015Y514896D01*
X896453Y514333D01*
X896148Y513598D01*
Y512802D01*
X896453Y512067D01*
X897015Y511505D01*
X897750Y511200D01*
X898546D01*
X899281Y511505D01*
X899844Y512067D01*
X900148Y512802D01*
Y513598D01*
X899844Y514333D01*
X899281Y514896D01*
X898546Y515200D01*
D02*
G37*
G36*
X894046D02*
X893250D01*
X892515Y514896D01*
X891953Y514333D01*
X891648Y513598D01*
Y512802D01*
X891953Y512067D01*
X892515Y511505D01*
X893250Y511200D01*
X894046D01*
X894781Y511505D01*
X895344Y512067D01*
X895648Y512802D01*
Y513598D01*
X895344Y514333D01*
X894781Y514896D01*
X894046Y515200D01*
D02*
G37*
G36*
X912546Y510200D02*
X911750D01*
X911015Y509896D01*
X910453Y509333D01*
X910148Y508598D01*
Y507802D01*
X910453Y507067D01*
X911015Y506504D01*
X911750Y506200D01*
X912546D01*
X913281Y506504D01*
X913844Y507067D01*
X914148Y507802D01*
Y508598D01*
X913844Y509333D01*
X913281Y509896D01*
X912546Y510200D01*
D02*
G37*
G36*
Y505700D02*
X911750D01*
X911015Y505396D01*
X910453Y504833D01*
X910148Y504098D01*
Y503302D01*
X910453Y502567D01*
X911015Y502004D01*
X911750Y501700D01*
X912546D01*
X913281Y502004D01*
X913844Y502567D01*
X914148Y503302D01*
Y504098D01*
X913844Y504833D01*
X913281Y505396D01*
X912546Y505700D01*
D02*
G37*
G36*
Y501200D02*
X911750D01*
X911015Y500896D01*
X910453Y500333D01*
X910148Y499598D01*
Y498802D01*
X910453Y498067D01*
X911015Y497505D01*
X911750Y497200D01*
X912546D01*
X913281Y497505D01*
X913844Y498067D01*
X914148Y498802D01*
Y499598D01*
X913844Y500333D01*
X913281Y500896D01*
X912546Y501200D01*
D02*
G37*
G36*
Y496700D02*
X911750D01*
X911015Y496396D01*
X910453Y495833D01*
X910148Y495098D01*
Y494302D01*
X910453Y493567D01*
X911015Y493005D01*
X911750Y492700D01*
X912546D01*
X913281Y493005D01*
X913844Y493567D01*
X914148Y494302D01*
Y495098D01*
X913844Y495833D01*
X913281Y496396D01*
X912546Y496700D01*
D02*
G37*
G36*
Y492200D02*
X911750D01*
X911015Y491896D01*
X910453Y491333D01*
X910148Y490598D01*
Y489802D01*
X910453Y489067D01*
X911015Y488505D01*
X911750Y488200D01*
X912546D01*
X913281Y488505D01*
X913844Y489067D01*
X914148Y489802D01*
Y490598D01*
X913844Y491333D01*
X913281Y491896D01*
X912546Y492200D01*
D02*
G37*
G36*
X887546D02*
X886750D01*
X886015Y491896D01*
X885453Y491333D01*
X885148Y490598D01*
Y489802D01*
X885453Y489067D01*
X886015Y488505D01*
X886750Y488200D01*
X887546D01*
X888281Y488505D01*
X888844Y489067D01*
X889148Y489802D01*
Y490598D01*
X888844Y491333D01*
X888281Y491896D01*
X887546Y492200D01*
D02*
G37*
G36*
X912546Y487700D02*
X911750D01*
X911015Y487396D01*
X910453Y486833D01*
X910148Y486098D01*
Y485302D01*
X910453Y484567D01*
X911015Y484004D01*
X911750Y483700D01*
X912546D01*
X913281Y484004D01*
X913844Y484567D01*
X914148Y485302D01*
Y486098D01*
X913844Y486833D01*
X913281Y487396D01*
X912546Y487700D01*
D02*
G37*
G36*
X907546D02*
X906750D01*
X906015Y487396D01*
X905453Y486833D01*
X905148Y486098D01*
Y485302D01*
X905453Y484567D01*
X906015Y484004D01*
X906750Y483700D01*
X907546D01*
X908281Y484004D01*
X908844Y484567D01*
X909148Y485302D01*
Y486098D01*
X908844Y486833D01*
X908281Y487396D01*
X907546Y487700D01*
D02*
G37*
G36*
X903046D02*
X902250D01*
X901515Y487396D01*
X900953Y486833D01*
X900648Y486098D01*
Y485302D01*
X900953Y484567D01*
X901515Y484004D01*
X902250Y483700D01*
X903046D01*
X903781Y484004D01*
X904344Y484567D01*
X904648Y485302D01*
Y486098D01*
X904344Y486833D01*
X903781Y487396D01*
X903046Y487700D01*
D02*
G37*
G36*
X898546D02*
X897750D01*
X897015Y487396D01*
X896453Y486833D01*
X896148Y486098D01*
Y485302D01*
X896453Y484567D01*
X897015Y484004D01*
X897750Y483700D01*
X898546D01*
X899281Y484004D01*
X899844Y484567D01*
X900148Y485302D01*
Y486098D01*
X899844Y486833D01*
X899281Y487396D01*
X898546Y487700D01*
D02*
G37*
G36*
X894046D02*
X893250D01*
X892515Y487396D01*
X891953Y486833D01*
X891648Y486098D01*
Y485302D01*
X891953Y484567D01*
X892515Y484004D01*
X893250Y483700D01*
X894046D01*
X894781Y484004D01*
X895344Y484567D01*
X895648Y485302D01*
Y486098D01*
X895344Y486833D01*
X894781Y487396D01*
X894046Y487700D01*
D02*
G37*
G36*
X889046D02*
X888250D01*
X887515Y487396D01*
X886953Y486833D01*
X886648Y486098D01*
Y485302D01*
X886953Y484567D01*
X887515Y484004D01*
X888250Y483700D01*
X889046D01*
X889781Y484004D01*
X890344Y484567D01*
X890648Y485302D01*
Y486098D01*
X890344Y486833D01*
X889781Y487396D01*
X889046Y487700D01*
D02*
G37*
G36*
X865798Y482700D02*
X865002D01*
X864267Y482396D01*
X863704Y481833D01*
X863400Y481098D01*
Y480302D01*
X863704Y479567D01*
X864267Y479004D01*
X865002Y478700D01*
X865798D01*
X866533Y479004D01*
X867096Y479567D01*
X867400Y480302D01*
Y481098D01*
X867096Y481833D01*
X866533Y482396D01*
X865798Y482700D01*
D02*
G37*
G36*
X831798D02*
X831002D01*
X830267Y482396D01*
X829704Y481833D01*
X829400Y481098D01*
Y480302D01*
X829704Y479567D01*
X830267Y479004D01*
X831002Y478700D01*
X831798D01*
X832533Y479004D01*
X833096Y479567D01*
X833400Y480302D01*
Y481098D01*
X833096Y481833D01*
X832533Y482396D01*
X831798Y482700D01*
D02*
G37*
G36*
X827546Y469700D02*
X826750D01*
X826015Y469396D01*
X825453Y468833D01*
X825148Y468098D01*
Y467302D01*
X825453Y466567D01*
X826015Y466005D01*
X826750Y465700D01*
X827546D01*
X828281Y466005D01*
X828844Y466567D01*
X829148Y467302D01*
Y468098D01*
X828844Y468833D01*
X828281Y469396D01*
X827546Y469700D01*
D02*
G37*
G36*
X860482Y469523D02*
X859625D01*
X858797Y469301D01*
X858055Y468873D01*
X857450Y468267D01*
X857021Y467525D01*
X856799Y466697D01*
Y465840D01*
X857021Y465013D01*
X857450Y464271D01*
X858055Y463665D01*
X858797Y463236D01*
X859625Y463015D01*
X860482D01*
X861310Y463236D01*
X862052Y463665D01*
X862658Y464271D01*
X863086Y465013D01*
X863308Y465840D01*
Y466697D01*
X863086Y467525D01*
X862658Y468267D01*
X862052Y468873D01*
X861310Y469301D01*
X860482Y469523D01*
D02*
G37*
G36*
X840797D02*
X839940D01*
X839112Y469301D01*
X838370Y468873D01*
X837764Y468267D01*
X837336Y467525D01*
X837114Y466697D01*
Y465840D01*
X837336Y465013D01*
X837764Y464271D01*
X838370Y463665D01*
X839112Y463236D01*
X839940Y463015D01*
X840797D01*
X841625Y463236D01*
X842367Y463665D01*
X842973Y464271D01*
X843401Y465013D01*
X843623Y465840D01*
Y466697D01*
X843401Y467525D01*
X842973Y468267D01*
X842367Y468873D01*
X841625Y469301D01*
X840797Y469523D01*
D02*
G37*
G36*
X810798Y462700D02*
X810002D01*
X809267Y462396D01*
X808704Y461833D01*
X808400Y461098D01*
Y460302D01*
X808704Y459567D01*
X809267Y459004D01*
X810002Y458700D01*
X810798D01*
X811533Y459004D01*
X812096Y459567D01*
X812400Y460302D01*
Y461098D01*
X812096Y461833D01*
X811533Y462396D01*
X810798Y462700D01*
D02*
G37*
G36*
X761903Y472610D02*
X760275D01*
X758667Y472355D01*
X757119Y471852D01*
X755668Y471113D01*
X754351Y470156D01*
X753200Y469005D01*
X752243Y467688D01*
X751504Y466237D01*
X751001Y464689D01*
X750746Y463081D01*
Y461453D01*
X751001Y459845D01*
X751504Y458297D01*
X752243Y456846D01*
X753200Y455529D01*
X754351Y454378D01*
X755668Y453421D01*
X757119Y452682D01*
X758667Y452179D01*
X760275Y451925D01*
X761903D01*
X763511Y452179D01*
X765059Y452682D01*
X766510Y453421D01*
X767827Y454378D01*
X768978Y455529D01*
X769935Y456846D01*
X770674Y458297D01*
X771177Y459845D01*
X771431Y461453D01*
Y463081D01*
X771177Y464689D01*
X770674Y466237D01*
X769935Y467688D01*
X768978Y469005D01*
X767827Y470156D01*
X766510Y471113D01*
X765059Y471852D01*
X763511Y472355D01*
X761903Y472610D01*
D02*
G37*
G36*
X959462Y472543D02*
X957834D01*
X956226Y472288D01*
X954678Y471785D01*
X953227Y471046D01*
X951910Y470089D01*
X950759Y468938D01*
X949802Y467621D01*
X949063Y466170D01*
X948560Y464622D01*
X948306Y463014D01*
Y461386D01*
X948560Y459778D01*
X949063Y458230D01*
X949802Y456779D01*
X950759Y455462D01*
X951910Y454311D01*
X953227Y453354D01*
X954678Y452615D01*
X956226Y452112D01*
X957834Y451858D01*
X959462D01*
X961070Y452112D01*
X962618Y452615D01*
X964069Y453354D01*
X965386Y454311D01*
X966537Y455462D01*
X967494Y456779D01*
X968233Y458230D01*
X968736Y459778D01*
X968991Y461386D01*
Y463014D01*
X968736Y464622D01*
X968233Y466170D01*
X967494Y467621D01*
X966537Y468938D01*
X965386Y470089D01*
X964069Y471046D01*
X962618Y471785D01*
X961070Y472288D01*
X959462Y472543D01*
D02*
G37*
G36*
X789462D02*
X787834D01*
X786226Y472288D01*
X784678Y471785D01*
X783227Y471046D01*
X781910Y470089D01*
X780759Y468938D01*
X779802Y467621D01*
X779063Y466170D01*
X778560Y464622D01*
X778306Y463014D01*
Y461386D01*
X778560Y459778D01*
X779063Y458230D01*
X779802Y456779D01*
X780759Y455462D01*
X781910Y454311D01*
X783227Y453354D01*
X784678Y452615D01*
X786226Y452112D01*
X787834Y451858D01*
X789462D01*
X791070Y452112D01*
X792618Y452615D01*
X794069Y453354D01*
X795386Y454311D01*
X796537Y455462D01*
X797494Y456779D01*
X798233Y458230D01*
X798736Y459778D01*
X798991Y461386D01*
Y463014D01*
X798736Y464622D01*
X798233Y466170D01*
X797494Y467621D01*
X796537Y468938D01*
X795386Y470089D01*
X794069Y471046D01*
X792618Y471785D01*
X791070Y472288D01*
X789462Y472543D01*
D02*
G37*
G36*
X987021Y472476D02*
X985393D01*
X983785Y472221D01*
X982237Y471718D01*
X980787Y470979D01*
X979469Y470022D01*
X978318Y468871D01*
X977361Y467554D01*
X976622Y466103D01*
X976119Y464555D01*
X975865Y462947D01*
Y461319D01*
X976119Y459711D01*
X976622Y458163D01*
X977361Y456712D01*
X978318Y455395D01*
X979469Y454244D01*
X980787Y453287D01*
X982237Y452548D01*
X983785Y452045D01*
X985393Y451791D01*
X987021D01*
X988629Y452045D01*
X990177Y452548D01*
X991628Y453287D01*
X992945Y454244D01*
X994096Y455395D01*
X995053Y456712D01*
X995792Y458163D01*
X996295Y459711D01*
X996550Y461319D01*
Y462947D01*
X996295Y464555D01*
X995792Y466103D01*
X995053Y467554D01*
X994096Y468871D01*
X992945Y470022D01*
X991628Y470979D01*
X990177Y471718D01*
X988629Y472221D01*
X987021Y472476D01*
D02*
G37*
G36*
X863991Y459824D02*
X863105Y459647D01*
X862354Y459146D01*
X861852Y458395D01*
X861676Y457509D01*
Y453769D01*
X861852Y452883D01*
X862354Y452132D01*
X863105Y451630D01*
X863991Y451454D01*
X864876Y451630D01*
X865627Y452132D01*
X866129Y452883D01*
X866305Y453769D01*
Y457509D01*
X866129Y458395D01*
X865627Y459146D01*
X864876Y459647D01*
X863991Y459824D01*
D02*
G37*
G36*
X836432D02*
X835546Y459647D01*
X834795Y459146D01*
X834293Y458395D01*
X834117Y457509D01*
Y453769D01*
X834293Y452883D01*
X834795Y452132D01*
X835546Y451630D01*
X836432Y451454D01*
X837317Y451630D01*
X838068Y452132D01*
X838570Y452883D01*
X838746Y453769D01*
Y457509D01*
X838570Y458395D01*
X838068Y459146D01*
X837317Y459647D01*
X836432Y459824D01*
D02*
G37*
G36*
X976641Y455598D02*
X969843D01*
Y446800D01*
X976641D01*
Y455598D01*
D02*
G37*
%LPD*%
D14*
X971243Y453198D02*
X972242Y454198D01*
X974242D01*
X975241Y453198D01*
Y452199D01*
X974242Y451199D01*
X973242D01*
X974242D01*
X975241Y450199D01*
Y449200D01*
X974242Y448200D01*
X972242D01*
X971243Y449200D01*
D30*
X776148Y685700D02*
D03*
X929735Y744574D02*
D03*
X930209Y584325D02*
D03*
X833648Y572700D02*
D03*
X829648Y492139D02*
D03*
X930230Y716700D02*
D03*
X814287Y660728D02*
D03*
X858648Y500700D02*
D03*
X868148Y589700D02*
D03*
X892148Y584700D02*
D03*
X925911Y650846D02*
D03*
D122*
X806648Y620900D02*
D03*
M02*
