G04*
G04 #@! TF.GenerationSoftware,Altium Limited,Altium Designer,22.5.1 (42)*
G04*
G04 Layer_Color=32896*
%FSLAX25Y25*%
%MOIN*%
G70*
G04*
G04 #@! TF.SameCoordinates,F96336C5-8BC0-4A74-BE74-20B5A895D5FC*
G04*
G04*
G04 #@! TF.FilePolarity,Positive*
G04*
G01*
G75*
%ADD14C,0.01000*%
G36*
X936817Y510685D02*
X936868Y510668D01*
X936953Y510634D01*
X937012Y510540D01*
X937046Y510455D01*
X937029Y510268D01*
X936961Y510115D01*
X936978Y508210D01*
X937029Y508091D01*
X937046Y508023D01*
X937063Y507734D01*
X937114Y507649D01*
X937131Y507581D01*
X937148Y507394D01*
X937174Y507368D01*
X937199Y507360D01*
X937216Y507156D01*
X937250Y507122D01*
X937267Y507088D01*
X937284Y507037D01*
X937301Y506901D01*
X937369Y506833D01*
X937395Y506688D01*
X937438Y506646D01*
X937471Y506510D01*
X937539Y506441D01*
X937556Y506340D01*
X937607Y506306D01*
X937616Y506263D01*
X937607Y506220D01*
X937633Y506178D01*
X937667Y506161D01*
X937710Y506118D01*
X937727Y506033D01*
X937778Y505982D01*
X937829Y505897D01*
X937863Y505863D01*
X937948Y505710D01*
X938016Y505642D01*
X938033Y505608D01*
X938084Y505574D01*
X938101Y505540D01*
X938186Y505455D01*
X938203Y505421D01*
X938288Y505336D01*
X938305Y505302D01*
X938330Y505277D01*
X938364Y505260D01*
X938449Y505174D01*
X938483Y505158D01*
X938619Y505021D01*
X938653Y505005D01*
X938789Y504868D01*
X938824Y504851D01*
X938892Y504783D01*
X938960Y504766D01*
X939028Y504698D01*
X939062Y504681D01*
X939113Y504630D01*
X939223Y504588D01*
X939283Y504528D01*
X939317Y504511D01*
X939368Y504460D01*
X939470Y504443D01*
X939512Y504384D01*
X939614Y504333D01*
X939759Y504256D01*
X939793Y504222D01*
X939903Y504197D01*
X939946Y504154D01*
X940031Y504120D01*
X940116Y504103D01*
X940167Y504052D01*
X940252Y504035D01*
X940303Y503984D01*
X940371Y503967D01*
X940456Y503950D01*
X940507Y503899D01*
X940575Y503882D01*
X940694Y503865D01*
X940737Y503805D01*
X940890Y503789D01*
X940949Y503746D01*
X941034Y503712D01*
X941153Y503695D01*
X941187Y503661D01*
X941255Y503644D01*
X941332Y503635D01*
X941358Y503644D01*
X941443Y503593D01*
X941477Y503559D01*
X941749Y503576D01*
X941774Y503618D01*
X941740Y503703D01*
X941723Y503771D01*
X941706Y503891D01*
X941689Y504197D01*
X941638Y504316D01*
X941621Y504435D01*
X941604Y504928D01*
X941570Y505013D01*
X941553Y505183D01*
X941570Y505931D01*
X941587Y505982D01*
X941604Y506067D01*
X941621Y506118D01*
X941638Y506510D01*
X941706Y506663D01*
X941723Y506901D01*
X941757Y506935D01*
X941791Y507020D01*
X941808Y507156D01*
X941842Y507190D01*
X941876Y507275D01*
X941893Y507377D01*
X941919Y507402D01*
X941944Y507411D01*
X941961Y507479D01*
X941970Y507539D01*
X942004Y507555D01*
X942029Y507581D01*
X942046Y507700D01*
X942106Y507743D01*
X942165Y507836D01*
X942233Y507955D01*
X942284Y508006D01*
X942301Y508040D01*
X942361Y508083D01*
X942446Y508185D01*
X942472Y508210D01*
X942488Y508244D01*
X942582Y508338D01*
X942616Y508355D01*
X942701Y508440D01*
X942735Y508457D01*
X942761Y508482D01*
X942778Y508516D01*
X942837Y508559D01*
X942888Y508610D01*
X942982Y508635D01*
X943041Y508695D01*
X943075Y508712D01*
X943177Y508780D01*
X943245Y508797D01*
X943279Y508831D01*
X943364Y508865D01*
X943415Y508882D01*
X943466Y508933D01*
X943636Y508950D01*
X943738Y509018D01*
X943909Y509035D01*
X943960Y509086D01*
X944028Y509103D01*
X944215Y509120D01*
X944368Y509188D01*
X944606Y509205D01*
X944725Y509256D01*
X944793Y509273D01*
X944861Y509256D01*
X944912Y509205D01*
X945022Y509163D01*
X945057Y509078D01*
X945074Y509044D01*
X945107Y509027D01*
X945125Y508959D01*
X945107Y508840D01*
X945057Y508788D01*
X945039Y508720D01*
X944971Y508652D01*
X944954Y508567D01*
X944929Y508542D01*
X944895Y508525D01*
X944878Y508457D01*
X944852Y508397D01*
X944801Y508346D01*
X944776Y508253D01*
X944716Y508193D01*
X944699Y508091D01*
X944648Y508040D01*
X944631Y507938D01*
X944563Y507870D01*
X944546Y507717D01*
X944478Y507615D01*
X944470Y507521D01*
X944478Y507479D01*
X944453Y507419D01*
X944419Y507402D01*
X944393Y507326D01*
X944376Y507122D01*
X944325Y507037D01*
X944308Y506969D01*
X944291Y506612D01*
X944257Y506578D01*
X944223Y506374D01*
X944240Y505319D01*
X944308Y505166D01*
X944325Y504826D01*
X944376Y504775D01*
X944393Y504707D01*
X944410Y504520D01*
X944444Y504486D01*
X944478Y504401D01*
X944495Y504265D01*
X944546Y504214D01*
X944555Y504137D01*
X944546Y504095D01*
X944623Y504001D01*
X944657Y503865D01*
X944716Y503805D01*
X944742Y503678D01*
X944784Y503635D01*
X944835Y503499D01*
X944869Y503482D01*
X944903Y503397D01*
X944954Y503346D01*
X944980Y503253D01*
X945022Y503193D01*
X945057Y503159D01*
X945074Y503091D01*
X945125Y503040D01*
X945176Y502955D01*
X945210Y502921D01*
X945227Y502853D01*
X945295Y502785D01*
X945312Y502751D01*
X945448Y502615D01*
X945499Y502530D01*
X945516Y502496D01*
X945524Y502488D01*
X945550Y502462D01*
X945567Y502428D01*
X945618Y502377D01*
X945635Y502343D01*
X945694Y502300D01*
X945728Y502249D01*
X945762Y502232D01*
X945847Y502130D01*
X945873Y502105D01*
X945890Y502071D01*
X945958Y502003D01*
X945975Y501969D01*
X946128Y501816D01*
X946145Y501782D01*
X946494Y501433D01*
X946528Y501416D01*
X946604Y501339D01*
X946621Y501305D01*
X946681Y501263D01*
X946774Y501186D01*
X946851Y501110D01*
X946885Y501093D01*
X946919Y501042D01*
X946953Y501025D01*
X947038Y500940D01*
X947072Y500923D01*
X947123Y500906D01*
X947165Y500914D01*
X947182Y501169D01*
X947165Y501186D01*
X947182Y501237D01*
X947199Y501305D01*
X947233Y501391D01*
X947250Y501459D01*
X947267Y501782D01*
X947335Y501884D01*
X947352Y502156D01*
X947403Y502207D01*
X947421Y502275D01*
X947437Y502428D01*
X947488Y502479D01*
X947505Y502547D01*
X947523Y502666D01*
X947573Y502717D01*
X947599Y502845D01*
X947641Y502904D01*
X947659Y502955D01*
X947676Y503023D01*
X947744Y503091D01*
X947769Y503185D01*
X947795Y503210D01*
X947812Y503244D01*
X947914Y503414D01*
X947931Y503448D01*
X947999Y503516D01*
X948016Y503550D01*
X948067Y503601D01*
X948118Y503686D01*
X948169Y503737D01*
X948186Y503771D01*
X948347Y503933D01*
X948381Y503950D01*
X948424Y504010D01*
X948526Y504061D01*
X948543Y504095D01*
X948636Y504154D01*
X948687Y504205D01*
X948722Y504222D01*
X948824Y504290D01*
X948874Y504307D01*
X948926Y504358D01*
X949036Y504384D01*
X949096Y504443D01*
X949232Y504477D01*
X949283Y504528D01*
X949436Y504545D01*
X949538Y504613D01*
X949725Y504630D01*
X949759Y504664D01*
X949878Y504698D01*
X950116Y504715D01*
X950235Y504766D01*
X950354Y504783D01*
X951392Y504766D01*
X951545Y504698D01*
X951868Y504681D01*
X951936Y504613D01*
X952055Y504596D01*
X952097Y504537D01*
X952182Y504520D01*
X952216Y504486D01*
X952097Y504265D01*
X952038Y504205D01*
X952012Y504197D01*
X951995Y504163D01*
X951970Y504137D01*
X951885Y504086D01*
X951851Y504052D01*
X951664Y504035D01*
X951630Y503984D01*
X951562Y503967D01*
X951443Y503950D01*
X951392Y503899D01*
X951272Y503882D01*
X951204Y503814D01*
X951085Y503797D01*
X950983Y503729D01*
X950890Y503703D01*
X950830Y503644D01*
X950737Y503618D01*
X950694Y503576D01*
X950609Y503542D01*
X950567Y503482D01*
X950499Y503465D01*
X950320Y503338D01*
X950133Y503151D01*
X950099Y503134D01*
X950056Y503074D01*
X949869Y502887D01*
X949852Y502853D01*
X949827Y502828D01*
X949801Y502819D01*
X949733Y502700D01*
X949674Y502590D01*
X949640Y502572D01*
X949614Y502547D01*
X949597Y502445D01*
X949529Y502377D01*
X949512Y502258D01*
X949461Y502224D01*
X949444Y502054D01*
X949393Y502003D01*
X949376Y501935D01*
X949359Y501731D01*
X949308Y501646D01*
X949291Y501578D01*
X949308Y500438D01*
X949359Y500319D01*
X949376Y500200D01*
X949393Y499962D01*
X949444Y499877D01*
X949461Y499758D01*
X949478Y499605D01*
X949529Y499554D01*
X949538Y499443D01*
X949529Y499384D01*
X949580Y499299D01*
X949614Y499265D01*
X949631Y499078D01*
X949682Y499027D01*
X949699Y498959D01*
X949716Y498840D01*
X949767Y498788D01*
X949784Y498720D01*
X949801Y498635D01*
X949852Y498584D01*
X949869Y498465D01*
X949886Y498414D01*
X949938Y498363D01*
X949963Y498236D01*
X950023Y498176D01*
X950039Y498040D01*
X950065Y498015D01*
X950099Y497998D01*
X950116Y497862D01*
X950193Y497802D01*
X950210Y497683D01*
X950261Y497649D01*
X950295Y497513D01*
X950346Y497462D01*
X950363Y497377D01*
X950388Y497351D01*
X950507Y497368D01*
X950533Y497394D01*
X950550Y497428D01*
X950609Y497470D01*
X950686Y497547D01*
X950703Y497581D01*
X950771Y497632D01*
X950788Y497666D01*
X950839Y497700D01*
X950856Y497734D01*
X950898Y497777D01*
X950924Y497785D01*
X950941Y497819D01*
X951051Y497930D01*
X951085Y497947D01*
X951128Y498006D01*
X951179Y498040D01*
X951196Y498074D01*
X951256Y498117D01*
X951289Y498168D01*
X951324Y498185D01*
X951349Y498210D01*
X951366Y498244D01*
X951426Y498287D01*
X951545Y498406D01*
X951579Y498423D01*
X951613Y498457D01*
X951732Y498525D01*
X951783Y498576D01*
X951817Y498593D01*
X951842Y498618D01*
X951851Y498644D01*
X951919Y498661D01*
X951953Y498678D01*
X951987Y498712D01*
X952072Y498763D01*
X952123Y498814D01*
X952208Y498831D01*
X952276Y498899D01*
X952369Y498924D01*
X952403Y498942D01*
X952412Y498967D01*
X952548Y499001D01*
X952590Y499061D01*
X952727Y499078D01*
X952786Y499137D01*
X952905Y499154D01*
X952990Y499171D01*
X953041Y499222D01*
X953211Y499239D01*
X953313Y499256D01*
X953432Y499307D01*
X954385Y499290D01*
X954504Y499239D01*
X954691Y499222D01*
X954725Y499188D01*
X954759Y499171D01*
X954810Y499154D01*
X954946Y499137D01*
X955014Y499069D01*
X955150Y499052D01*
X955176Y499027D01*
X955193Y498993D01*
X955320Y498967D01*
X955354Y498916D01*
X955465Y498890D01*
X955524Y498831D01*
X955609Y498797D01*
X955660Y498746D01*
X955745Y498695D01*
X955796Y498644D01*
X955881Y498627D01*
X955949Y498559D01*
X955983Y498542D01*
X956017Y498491D01*
X956051Y498474D01*
X956170Y498389D01*
X956205Y498372D01*
X956238Y498338D01*
X956273Y498321D01*
X956341Y498253D01*
X956374Y498236D01*
X956400Y498210D01*
X956417Y498176D01*
X956468Y498142D01*
X956485Y498108D01*
X956511Y498083D01*
X956545Y498066D01*
X956570Y498040D01*
X956587Y498006D01*
X956647Y497964D01*
X956876Y497734D01*
X956893Y497700D01*
X956919Y497675D01*
X956953Y497657D01*
X956987Y497607D01*
X957021Y497589D01*
X957046Y497564D01*
X957063Y497530D01*
X957131Y497462D01*
X957114Y497156D01*
X957029Y497071D01*
X957021Y497045D01*
X956953Y497028D01*
X956681Y497045D01*
X956630Y497096D01*
X956562Y497113D01*
X956409Y497130D01*
X956374Y497164D01*
X956289Y497198D01*
X956136Y497215D01*
X956102Y497249D01*
X955983Y497283D01*
X955847Y497300D01*
X955796Y497351D01*
X955558Y497368D01*
X955405Y497436D01*
X954521Y497419D01*
X954504Y497385D01*
X954436Y497368D01*
X954249Y497351D01*
X954147Y497283D01*
X954011Y497266D01*
X953943Y497198D01*
X953841Y497181D01*
X953790Y497130D01*
X953722Y497113D01*
X953653Y497045D01*
X953560Y497020D01*
X953466Y496926D01*
X953432Y496909D01*
X953398Y496875D01*
X953305Y496833D01*
X953296Y496807D01*
X953211Y496756D01*
X953169Y496697D01*
X953109Y496637D01*
X953075Y496620D01*
X953050Y496595D01*
X953033Y496561D01*
X952990Y496518D01*
X952965Y496510D01*
X952948Y496476D01*
X952888Y496433D01*
X952854Y496382D01*
X952820Y496365D01*
X952778Y496306D01*
X952727Y496272D01*
X952710Y496238D01*
X952641Y496169D01*
X952590Y496084D01*
X952557Y496050D01*
X952531Y495991D01*
X952497Y495974D01*
X952472Y495948D01*
X952454Y495914D01*
X952403Y495863D01*
X952386Y495829D01*
X952318Y495727D01*
X952276Y495651D01*
X952250Y495642D01*
X952199Y495557D01*
X952165Y495523D01*
X952131Y495438D01*
X952097Y495404D01*
X952080Y495370D01*
X951961Y495149D01*
X951927Y495115D01*
X951910Y495047D01*
X951893Y495013D01*
X951868Y494987D01*
X951834Y494970D01*
X951808Y494843D01*
X951749Y494800D01*
X951723Y494707D01*
X951706Y494673D01*
X951672Y494656D01*
X951655Y494588D01*
X951647Y494511D01*
X951613Y494494D01*
X951570Y494452D01*
X951587Y494367D01*
X951502Y494282D01*
X951485Y494146D01*
X951417Y494078D01*
X951400Y493959D01*
X951332Y493890D01*
X951315Y493738D01*
X951247Y493669D01*
X951230Y493533D01*
X951179Y493482D01*
X951162Y493329D01*
X951094Y493261D01*
X951085Y493168D01*
X951094Y493125D01*
X951043Y493040D01*
X951009Y493006D01*
X950992Y492836D01*
X950941Y492785D01*
X950924Y492717D01*
X950915Y492487D01*
X950966Y492470D01*
X951034Y492487D01*
X951068Y492521D01*
X951239Y492538D01*
X951324Y492556D01*
X951340Y492590D01*
X951426Y492624D01*
X951511Y492640D01*
X951545Y492674D01*
X951613Y492692D01*
X951732Y492709D01*
X951834Y492777D01*
X952089Y492794D01*
X952123Y492828D01*
X952208Y492862D01*
X952446Y492879D01*
X952480Y492913D01*
X952599Y492947D01*
X952888Y492964D01*
X952922Y492998D01*
X952990Y493015D01*
X953211Y493032D01*
X953534Y493049D01*
X953619Y493083D01*
X953790Y493100D01*
X954521Y493083D01*
X954640Y493032D01*
X954980Y493015D01*
X955082Y492947D01*
X955286Y492930D01*
X955354Y492862D01*
X955473Y492845D01*
X955507Y492811D01*
X955592Y492777D01*
X955643Y492760D01*
X955694Y492709D01*
X955762Y492692D01*
X955813Y492674D01*
X955847Y492624D01*
X955881Y492606D01*
X955949Y492538D01*
X955983Y492521D01*
X956017Y492487D01*
X956051Y492470D01*
X956145Y492394D01*
X956196Y492343D01*
X956213Y492309D01*
X956264Y492258D01*
X956281Y492224D01*
X956443Y492011D01*
X956468Y491986D01*
X956485Y491901D01*
X956511Y491875D01*
X956545Y491858D01*
X956570Y491731D01*
X956630Y491688D01*
X956655Y491561D01*
X956706Y491510D01*
X956723Y491391D01*
X956740Y491305D01*
X956774Y491271D01*
X956808Y491152D01*
X956825Y490965D01*
X956859Y490931D01*
X956893Y490795D01*
X956885Y490668D01*
X956902Y490583D01*
X956961Y490472D01*
X956978Y490166D01*
X957029Y490115D01*
X957046Y490047D01*
X957029Y489962D01*
X956987Y489919D01*
X956953Y489902D01*
X956902Y489851D01*
X956664Y489868D01*
X956596Y489936D01*
X956562Y489953D01*
X956545Y489988D01*
X956511Y490004D01*
X956426Y490090D01*
X956392Y490106D01*
X956341Y490158D01*
X956306Y490174D01*
X956238Y490243D01*
X956205Y490260D01*
X956119Y490345D01*
X956085Y490362D01*
X956034Y490413D01*
X955966Y490430D01*
X955915Y490481D01*
X955830Y490532D01*
X955796Y490583D01*
X955694Y490600D01*
X955660Y490651D01*
X955524Y490702D01*
X955490Y490736D01*
X955422Y490753D01*
X955337Y490804D01*
X955286Y490821D01*
X955193Y490846D01*
X955150Y490906D01*
X954963Y490923D01*
X954861Y490991D01*
X954623Y491008D01*
X954589Y491042D01*
X954470Y491076D01*
X953398Y491059D01*
X953313Y491008D01*
X953245Y490991D01*
X953041Y490974D01*
X953007Y490940D01*
X952888Y490906D01*
X952769Y490889D01*
X952735Y490855D01*
X952667Y490838D01*
X952573Y490812D01*
X952514Y490753D01*
X952395Y490736D01*
X952293Y490668D01*
X952182Y490625D01*
X952140Y490583D01*
X952046Y490557D01*
X952004Y490515D01*
X951919Y490481D01*
X951893Y490455D01*
X951885Y490430D01*
X951817Y490413D01*
X951766Y490396D01*
X951749Y490362D01*
X951715Y490345D01*
X951596Y490260D01*
X951434Y490149D01*
X951408Y490124D01*
X951375Y490106D01*
X951256Y489988D01*
X951221Y489970D01*
X951188Y489936D01*
X951153Y489919D01*
X951119Y489885D01*
X951034Y489834D01*
X950949Y489749D01*
X950924Y489741D01*
X950907Y489707D01*
X950864Y489664D01*
X950830Y489647D01*
X950346Y489163D01*
X950337Y489137D01*
X950303Y489120D01*
X950261Y489078D01*
X950244Y489044D01*
X950184Y489001D01*
X950159Y488976D01*
X950142Y488941D01*
X950099Y488899D01*
X950065Y488882D01*
X950039Y488857D01*
X950023Y488823D01*
X949920Y488720D01*
X949903Y488686D01*
X949852Y488635D01*
X949835Y488601D01*
X949784Y488550D01*
X949733Y488465D01*
X949631Y488363D01*
X949614Y488329D01*
X949572Y488287D01*
X949546Y488278D01*
X949529Y488244D01*
X949444Y488125D01*
X949427Y488091D01*
X949376Y488040D01*
X949359Y488006D01*
X949291Y487938D01*
X949274Y487904D01*
X949206Y487836D01*
X949189Y487768D01*
X949138Y487717D01*
X949121Y487683D01*
X949036Y487598D01*
X949019Y487564D01*
X949002Y487513D01*
X949045Y487470D01*
X949172Y487462D01*
X949283Y487470D01*
X949334Y487453D01*
X949487Y487436D01*
X949572Y487402D01*
X949793Y487385D01*
X949844Y487402D01*
X950142Y487377D01*
X950227Y487343D01*
X950320Y487317D01*
X950422Y487300D01*
X950473Y487317D01*
X950694Y487300D01*
X950847Y487232D01*
X951102Y487215D01*
X951188Y487164D01*
X951256Y487147D01*
X951460Y487130D01*
X951528Y487062D01*
X951715Y487045D01*
X951749Y486994D01*
X951817Y486977D01*
X951885Y486994D01*
X951970Y486943D01*
X952004Y486909D01*
X952140Y486875D01*
X952174Y486824D01*
X952242Y486807D01*
X952301Y486799D01*
X952318Y486765D01*
X952344Y486739D01*
X952446Y486722D01*
X952497Y486671D01*
X952531Y486654D01*
X952599Y486586D01*
X952667Y486569D01*
X952718Y486518D01*
X952752Y486501D01*
X952837Y486416D01*
X952871Y486399D01*
X952905Y486365D01*
X952939Y486348D01*
X952973Y486314D01*
X953007Y486297D01*
X953135Y486169D01*
X953152Y486135D01*
X953203Y486084D01*
X953254Y485999D01*
X953288Y485982D01*
X953339Y485897D01*
X953373Y485812D01*
X953390Y485778D01*
X953458Y485710D01*
X953475Y485608D01*
X953526Y485557D01*
X953543Y485489D01*
X953560Y485353D01*
X953611Y485302D01*
X953619Y485089D01*
X953611Y484639D01*
X953628Y484605D01*
X953611Y484554D01*
X953594Y484129D01*
X953560Y484095D01*
X953543Y484027D01*
X953526Y483806D01*
X953475Y483754D01*
X953458Y483686D01*
X953441Y483533D01*
X953390Y483482D01*
X953356Y483346D01*
X953305Y483295D01*
X953288Y483176D01*
X953271Y483142D01*
X953237Y483108D01*
X953220Y483040D01*
X953152Y482921D01*
X953118Y482836D01*
X953067Y482751D01*
X953033Y482666D01*
X953016Y482615D01*
X952965Y482564D01*
X952948Y482479D01*
X952922Y482436D01*
X952897Y482428D01*
X952880Y482394D01*
X952803Y482300D01*
X952684Y482181D01*
X952650Y482164D01*
X952548Y482096D01*
X952463Y482079D01*
X952361Y482011D01*
X952157Y482028D01*
X952097Y482088D01*
X952046Y482173D01*
X951995Y482292D01*
X952012Y482394D01*
X952046Y482428D01*
X952080Y482564D01*
X952063Y482615D01*
X952080Y482666D01*
X952097Y482751D01*
X952148Y482870D01*
X952131Y483550D01*
X952080Y483669D01*
X952063Y483976D01*
X952012Y484027D01*
X951995Y484095D01*
X951978Y484214D01*
X951910Y484316D01*
X951885Y484409D01*
X951842Y484452D01*
X951808Y484537D01*
X951740Y484605D01*
X951723Y484639D01*
X951672Y484690D01*
X951655Y484724D01*
X951545Y484834D01*
X951511Y484851D01*
X951460Y484902D01*
X951426Y484919D01*
X951332Y484996D01*
X951324Y485021D01*
X951188Y485055D01*
X951153Y485107D01*
X951017Y485141D01*
X951000Y485175D01*
X950932Y485191D01*
X950796Y485209D01*
X950711Y485260D01*
X950643Y485277D01*
X950167Y485294D01*
X950116Y485311D01*
X949793Y485328D01*
X949742Y485311D01*
X949478Y485285D01*
X948926Y485260D01*
X948806Y485209D01*
X948738Y485191D01*
X948449Y485175D01*
X948415Y485141D01*
X948296Y485107D01*
X948075Y485089D01*
X948041Y485055D01*
X947973Y485039D01*
X947769Y485021D01*
X947718Y484970D01*
X947650Y484953D01*
X947480Y484936D01*
X947378Y484868D01*
X947174Y484851D01*
X947123Y484800D01*
X947055Y484783D01*
X946902Y484766D01*
X946851Y484715D01*
X946783Y484698D01*
X946664Y484681D01*
X946613Y484630D01*
X946443Y484613D01*
X946391Y484562D01*
X946323Y484545D01*
X946187Y484528D01*
X946136Y484477D01*
X946068Y484460D01*
X945949Y484443D01*
X945881Y484375D01*
X945694Y484358D01*
X945677Y484324D01*
X945643Y484307D01*
X945618Y484282D01*
X945635Y484214D01*
X945728Y484120D01*
X945762Y484103D01*
X945830Y484035D01*
X945864Y484018D01*
X946017Y483933D01*
X946068Y483882D01*
X946102Y483865D01*
X946128Y483840D01*
X946136Y483814D01*
X946222Y483780D01*
X946255Y483746D01*
X946290Y483729D01*
X946391Y483627D01*
X946426Y483610D01*
X946562Y483474D01*
X946596Y483457D01*
X946664Y483389D01*
X946698Y483372D01*
X946749Y483321D01*
X946783Y483304D01*
X946817Y483253D01*
X946851Y483236D01*
X947080Y483006D01*
X947097Y482972D01*
X947165Y482904D01*
X947182Y482870D01*
X947216Y482836D01*
X947233Y482802D01*
X947259Y482760D01*
X947293Y482743D01*
X947352Y482683D01*
X947361Y482657D01*
X947395Y482641D01*
X947446Y482555D01*
X947472Y482547D01*
X947488Y482479D01*
X947540Y482394D01*
X947591Y482343D01*
X947608Y482309D01*
X947659Y482224D01*
X947701Y482147D01*
X947727Y482139D01*
X947744Y482071D01*
X947761Y482020D01*
X947786Y481994D01*
X947812Y481986D01*
X947829Y481918D01*
X947812Y481901D01*
X947888Y481807D01*
X947905Y481722D01*
X947939Y481637D01*
X947982Y481595D01*
X947999Y481407D01*
X948050Y481356D01*
X948067Y481288D01*
X948084Y480999D01*
X948135Y480880D01*
X948118Y480370D01*
X948084Y480285D01*
X948067Y480217D01*
X948050Y479928D01*
X947999Y479877D01*
X947982Y479809D01*
X947965Y479673D01*
X947914Y479622D01*
X947897Y479503D01*
X947829Y479350D01*
X947803Y479256D01*
X947761Y479231D01*
X947744Y479163D01*
X947693Y479078D01*
X947659Y479044D01*
X947641Y478976D01*
X947591Y478925D01*
X947540Y478839D01*
X947505Y478805D01*
X947488Y478686D01*
X947429Y478644D01*
X947335Y478516D01*
X947318Y478465D01*
X947250Y478397D01*
X947233Y478363D01*
X947165Y478295D01*
X947148Y478261D01*
X947114Y478227D01*
X947097Y478193D01*
X947063Y478159D01*
X947046Y478125D01*
X946995Y478074D01*
X946978Y478040D01*
X946927Y477989D01*
X946910Y477955D01*
X946885Y477930D01*
X946859Y477921D01*
X946842Y477887D01*
X946222Y477266D01*
X946187Y477249D01*
X946136Y477198D01*
X945847Y477215D01*
X945805Y477326D01*
X945788Y477394D01*
X945805Y477530D01*
X945839Y477564D01*
X945873Y477683D01*
X945890Y477768D01*
X945924Y477802D01*
X945958Y477921D01*
X945975Y478091D01*
X946009Y478125D01*
X946026Y478193D01*
X946043Y478448D01*
X946111Y478550D01*
X946128Y478976D01*
X946162Y479061D01*
X946196Y479197D01*
X946179Y479724D01*
X946128Y479843D01*
X946111Y480115D01*
X946094Y480217D01*
X946060Y480251D01*
X946026Y480370D01*
X946009Y480489D01*
X945958Y480540D01*
X945941Y480693D01*
X945881Y480736D01*
X945864Y480838D01*
X945788Y480914D01*
X945771Y481016D01*
X945686Y481101D01*
X945669Y481135D01*
X945635Y481169D01*
X945618Y481238D01*
X945533Y481322D01*
X945524Y481348D01*
X945490Y481365D01*
X945448Y481407D01*
X945431Y481441D01*
X945337Y481535D01*
X945312Y481544D01*
X945295Y481578D01*
X945269Y481603D01*
X945235Y481620D01*
X945210Y481646D01*
X945193Y481680D01*
X945090Y481765D01*
X945031Y481790D01*
X944878Y481909D01*
X944759Y481977D01*
X944648Y482037D01*
X944631Y482071D01*
X944606Y482096D01*
X944504Y482113D01*
X944478Y482139D01*
X944470Y482164D01*
X944351Y482181D01*
X944317Y482198D01*
X944300Y482232D01*
X944232Y482249D01*
X944147Y482266D01*
X944096Y482317D01*
X944028Y482334D01*
X943943Y482351D01*
X943892Y482402D01*
X943824Y482419D01*
X943705Y482436D01*
X943636Y482505D01*
X943449Y482521D01*
X943398Y482573D01*
X943330Y482589D01*
X943262Y482573D01*
X943194Y482589D01*
X943109Y482607D01*
X943075Y482641D01*
X943007Y482657D01*
X942718Y482675D01*
X942565Y482743D01*
X942123Y482760D01*
X942004Y482811D01*
X941936Y482828D01*
X941332Y482836D01*
X941298Y482819D01*
X941281Y482768D01*
X941358Y482675D01*
X941374Y482521D01*
X941400Y482462D01*
X941434Y482428D01*
X941451Y482360D01*
X941468Y482241D01*
X941502Y482207D01*
X941519Y482173D01*
X941536Y482122D01*
X941553Y481969D01*
X941604Y481918D01*
X941621Y481850D01*
X941638Y481680D01*
X941672Y481646D01*
X941706Y481561D01*
X941723Y481356D01*
X941757Y481322D01*
X941774Y481254D01*
X941791Y480965D01*
X941859Y480812D01*
X941868Y479953D01*
X941851Y479341D01*
X941791Y479282D01*
X941774Y479112D01*
X941757Y479044D01*
X941723Y479010D01*
X941706Y478941D01*
X941689Y478857D01*
X941647Y478814D01*
X941621Y478805D01*
X941604Y478686D01*
X941579Y478661D01*
X941545Y478644D01*
X941528Y478559D01*
X941485Y478499D01*
X941451Y478465D01*
X941434Y478431D01*
X941366Y478363D01*
X941349Y478329D01*
X941171Y478100D01*
X941136Y478083D01*
X941043Y478006D01*
X941000Y477964D01*
X940966Y477947D01*
X940890Y477904D01*
X940873Y477870D01*
X940788Y477819D01*
X940779Y477794D01*
X940711Y477777D01*
X940635Y477734D01*
X940618Y477700D01*
X940516Y477683D01*
X940482Y477666D01*
X940465Y477632D01*
X940439Y477606D01*
X940320Y477590D01*
X940295Y477564D01*
X940286Y477538D01*
X940218Y477522D01*
X940048Y477504D01*
X939997Y477453D01*
X939929Y477436D01*
X939725Y477419D01*
X939691Y477385D01*
X939555Y477351D01*
X939198Y477334D01*
X939113Y477300D01*
X938892Y477283D01*
X938058Y477300D01*
X938007Y477351D01*
X937973Y477368D01*
X937948Y477394D01*
X937931Y477428D01*
X937905Y477453D01*
X937880Y477462D01*
X937863Y477513D01*
X937948Y477632D01*
X937965Y477717D01*
X937990Y477743D01*
X938024Y477760D01*
X938092Y477828D01*
X938177Y477845D01*
X938262Y477947D01*
X938373Y478057D01*
X938381Y478083D01*
X938415Y478100D01*
X938441Y478125D01*
X938458Y478159D01*
X938517Y478202D01*
X938560Y478261D01*
X938594Y478295D01*
X938611Y478329D01*
X938662Y478380D01*
X938713Y478465D01*
X938764Y478516D01*
X938781Y478550D01*
X938866Y478635D01*
X938875Y478661D01*
X938908Y478678D01*
X938934Y478703D01*
X938951Y478771D01*
X939002Y478823D01*
X939053Y478907D01*
X939087Y478941D01*
X939113Y479035D01*
X939172Y479095D01*
X939189Y479180D01*
X939257Y479248D01*
X939274Y479384D01*
X939300Y479409D01*
X939325Y479418D01*
X939342Y479486D01*
X939359Y479622D01*
X939393Y479656D01*
X939410Y479724D01*
X939444Y480064D01*
X939495Y480183D01*
X939478Y480608D01*
X939444Y480693D01*
X939427Y480761D01*
X939410Y481050D01*
X939376Y481084D01*
X939342Y481169D01*
X939325Y481322D01*
X939257Y481390D01*
X939240Y481510D01*
X939189Y481561D01*
X939172Y481663D01*
X939104Y481731D01*
X939087Y481833D01*
X939028Y481875D01*
X939011Y481977D01*
X938934Y482054D01*
X938917Y482088D01*
X938849Y482190D01*
X938798Y482275D01*
X938696Y482377D01*
X938679Y482411D01*
X938594Y482547D01*
X938577Y482581D01*
X938551Y482607D01*
X938526Y482615D01*
X938509Y482649D01*
X938483Y482675D01*
X938458Y482683D01*
X938441Y482717D01*
X938364Y482811D01*
X938296Y482913D01*
X938254Y482955D01*
X938245Y482981D01*
X938211Y482998D01*
X938169Y483057D01*
X937412Y483814D01*
X937378Y483831D01*
X937327Y483882D01*
X937293Y483899D01*
X937259Y483933D01*
X937225Y483950D01*
X937191Y483984D01*
X937157Y484001D01*
X937131Y484027D01*
X937123Y484052D01*
X937089Y484069D01*
X937038Y484120D01*
X937004Y484137D01*
X936961Y484197D01*
X936876Y484248D01*
X936859Y484282D01*
X936723Y484367D01*
X936664Y484409D01*
X936630Y484443D01*
X936596Y484460D01*
X936511Y484545D01*
X936460Y484562D01*
X936426Y484596D01*
X936392Y484613D01*
X936298Y484690D01*
X936273Y484715D01*
X936196Y484724D01*
X936145Y484690D01*
X936128Y484571D01*
X936094Y484537D01*
X936077Y484469D01*
X936060Y484197D01*
X936043Y484078D01*
X935992Y483959D01*
X935975Y483720D01*
X935941Y483686D01*
X935924Y483652D01*
X935907Y483601D01*
X935890Y483414D01*
X935839Y483363D01*
X935822Y483295D01*
X935805Y483176D01*
X935754Y483125D01*
X935737Y483057D01*
X935720Y482972D01*
X935686Y482938D01*
X935669Y482870D01*
X935626Y482760D01*
X935592Y482743D01*
X935567Y482649D01*
X935550Y482598D01*
X935524Y482573D01*
X935499Y482564D01*
X935473Y482470D01*
X935431Y482428D01*
X935397Y482343D01*
X935346Y482292D01*
X935312Y482207D01*
X935261Y482156D01*
X935244Y482122D01*
X935218Y482096D01*
X935184Y482079D01*
X935124Y481986D01*
X935073Y481935D01*
X935056Y481901D01*
X935023Y481867D01*
X935005Y481833D01*
X934921Y481748D01*
X934903Y481714D01*
X934844Y481671D01*
X934810Y481620D01*
X934691Y481552D01*
X934657Y481518D01*
X934623Y481501D01*
X934555Y481433D01*
X934521Y481416D01*
X934470Y481365D01*
X934402Y481348D01*
X934368Y481331D01*
X934334Y481280D01*
X934249Y481246D01*
X934215Y481212D01*
X934147Y481195D01*
X934113Y481178D01*
X934011Y481110D01*
X933891Y481093D01*
X933866Y481067D01*
X933858Y481042D01*
X933790Y481025D01*
X933687Y481008D01*
X933602Y480957D01*
X933381Y480940D01*
X933347Y480906D01*
X933262Y480872D01*
X932871Y480855D01*
X932786Y480821D01*
X932718Y480804D01*
X932344Y480787D01*
X931970Y480804D01*
X931885Y480838D01*
X931749Y480872D01*
X931256Y480889D01*
X931136Y480940D01*
X931000Y480957D01*
X930949Y480940D01*
X930881Y480957D01*
X930694Y480974D01*
X930660Y481008D01*
X930592Y481025D01*
X930507Y481042D01*
X930456Y481025D01*
X930252Y481042D01*
X930159Y481118D01*
X930065Y481212D01*
X930040Y481220D01*
X930023Y481340D01*
X930056Y481425D01*
X930099Y481467D01*
X930133Y481484D01*
X930218Y481518D01*
X930439Y481535D01*
X930490Y481586D01*
X930609Y481603D01*
X930694Y481620D01*
X930728Y481654D01*
X930796Y481671D01*
X930915Y481688D01*
X931017Y481756D01*
X931119Y481773D01*
X931221Y481841D01*
X931324Y481858D01*
X931349Y481884D01*
X931357Y481909D01*
X931494Y481943D01*
X931536Y482003D01*
X931638Y482020D01*
X931672Y482054D01*
X931681Y482079D01*
X931766Y482130D01*
X931800Y482164D01*
X931885Y482181D01*
X931910Y482207D01*
X931919Y482232D01*
X931953Y482249D01*
X931995Y482275D01*
X932012Y482309D01*
X932148Y482394D01*
X932208Y482436D01*
X932259Y482487D01*
X932293Y482505D01*
X932318Y482530D01*
X932335Y482564D01*
X932395Y482607D01*
X932429Y482657D01*
X932463Y482675D01*
X932489Y482700D01*
X932506Y482734D01*
X932557Y482768D01*
X932574Y482802D01*
X932599Y482828D01*
X932633Y482845D01*
X932684Y482930D01*
X932710Y482938D01*
X932778Y483057D01*
X932812Y483091D01*
X932829Y483125D01*
X932897Y483193D01*
X932914Y483227D01*
X932965Y483261D01*
X932982Y483346D01*
X933050Y483414D01*
X933075Y483525D01*
X933135Y483584D01*
X933220Y483772D01*
X933237Y483840D01*
X933288Y483890D01*
X933305Y483959D01*
X933322Y484044D01*
X933356Y484078D01*
X933373Y484146D01*
X933390Y484299D01*
X933458Y484401D01*
X933475Y484707D01*
X933526Y484826D01*
X933543Y484894D01*
X933526Y486101D01*
X933475Y486220D01*
X933458Y486544D01*
X933441Y486714D01*
X933390Y486833D01*
X933373Y487003D01*
X933356Y487156D01*
X933305Y487207D01*
X933296Y487368D01*
X933305Y487445D01*
X933228Y487538D01*
X933211Y487726D01*
X933169Y487785D01*
X933135Y487819D01*
X933118Y488006D01*
X933067Y488057D01*
X933050Y488125D01*
X933033Y488227D01*
X932982Y488278D01*
X932965Y488346D01*
X932982Y488414D01*
X932939Y488457D01*
X932820Y488440D01*
X932514Y488134D01*
X932480Y488117D01*
X932378Y488015D01*
X932344Y487998D01*
X932250Y487938D01*
X932242Y487913D01*
X932208Y487896D01*
X932148Y487853D01*
X932131Y487819D01*
X932072Y487777D01*
X932004Y487709D01*
X931970Y487691D01*
X931919Y487640D01*
X931851Y487624D01*
X931834Y487590D01*
X931800Y487572D01*
X931723Y487513D01*
X931715Y487488D01*
X931494Y487368D01*
X931443Y487317D01*
X931256Y487215D01*
X931205Y487164D01*
X931111Y487139D01*
X931051Y487079D01*
X930949Y487062D01*
X930881Y486994D01*
X930762Y486977D01*
X930694Y486909D01*
X930558Y486892D01*
X930524Y486841D01*
X930456Y486824D01*
X930354Y486807D01*
X930303Y486756D01*
X930074Y486731D01*
X929963Y486671D01*
X929844Y486654D01*
X929776Y486671D01*
X929555Y486654D01*
X929470Y486620D01*
X929351Y486603D01*
X929096Y486620D01*
X929011Y486654D01*
X928832Y486663D01*
X928722Y486654D01*
X928671Y486671D01*
X928602Y486688D01*
X928483Y486739D01*
X928313Y486756D01*
X928262Y486807D01*
X928194Y486824D01*
X928092Y486841D01*
X928041Y486892D01*
X927922Y486909D01*
X927863Y486935D01*
X927846Y486969D01*
X927769Y486994D01*
X927701Y487011D01*
X927650Y487062D01*
X927557Y487088D01*
X927497Y487147D01*
X927429Y487164D01*
X927378Y487215D01*
X927259Y487283D01*
X927225Y487317D01*
X927140Y487351D01*
X927106Y487385D01*
X927021Y487436D01*
X926970Y487488D01*
X926936Y487504D01*
X926885Y487556D01*
X926766Y487624D01*
X926732Y487657D01*
X926698Y487675D01*
X926392Y487981D01*
X926357Y487998D01*
X926272Y488100D01*
X926051Y488321D01*
X926017Y488338D01*
X925958Y488397D01*
X925873Y488584D01*
X925975Y488771D01*
X926102Y488865D01*
X926340Y488848D01*
X926392Y488797D01*
X926460Y488780D01*
X928262Y488797D01*
X928381Y488848D01*
X928551Y488865D01*
X928738Y488882D01*
X928790Y488933D01*
X928858Y488950D01*
X929002Y488941D01*
X929062Y488984D01*
X929096Y489018D01*
X929283Y489035D01*
X929351Y489103D01*
X929470Y489120D01*
X929504Y489154D01*
X929589Y489188D01*
X929657Y489205D01*
X929708Y489256D01*
X929963Y489392D01*
X929997Y489426D01*
X930082Y489460D01*
X930133Y489511D01*
X930167Y489528D01*
X930244Y489588D01*
X930261Y489622D01*
X930286Y489647D01*
X930320Y489664D01*
X930363Y489707D01*
X930380Y489741D01*
X930439Y489783D01*
X930507Y489851D01*
X930541Y489868D01*
X930584Y489928D01*
X930703Y490047D01*
X930720Y490081D01*
X930754Y490098D01*
X930771Y490132D01*
X930839Y490200D01*
X930856Y490268D01*
X930907Y490319D01*
X930958Y490404D01*
X931009Y490438D01*
X931026Y490540D01*
X931094Y490608D01*
X931111Y490710D01*
X931179Y490761D01*
X931196Y490880D01*
X931221Y490906D01*
X931247Y490914D01*
X931264Y490982D01*
X931247Y490999D01*
X931273Y491059D01*
X931332Y491084D01*
X931349Y491237D01*
X931383Y491271D01*
X931400Y491305D01*
X931417Y491357D01*
X931434Y491493D01*
X931502Y491595D01*
X931519Y491799D01*
X931570Y491884D01*
X931587Y491952D01*
X931604Y492207D01*
X931638Y492241D01*
X931672Y492360D01*
X931689Y492819D01*
X931740Y492938D01*
X931749Y493032D01*
X931740Y493431D01*
X931757Y493482D01*
X931749Y493627D01*
X931757Y493738D01*
X931732Y493763D01*
X931689Y493772D01*
X931655Y493738D01*
X931638Y493703D01*
X931511Y493661D01*
X931468Y493601D01*
X931324Y493525D01*
X931273Y493508D01*
X931205Y493440D01*
X931136Y493423D01*
X931085Y493372D01*
X930992Y493329D01*
X930975Y493295D01*
X930873Y493278D01*
X930796Y493202D01*
X930694Y493185D01*
X930643Y493134D01*
X930575Y493117D01*
X930524Y493100D01*
X930499Y493074D01*
X930490Y493049D01*
X930422Y493032D01*
X930303Y493015D01*
X930252Y492964D01*
X930184Y492947D01*
X930082Y492930D01*
X930031Y492879D01*
X929793Y492845D01*
X929759Y492811D01*
X929623Y492777D01*
X929504Y492794D01*
X929436Y492777D01*
X929334Y492760D01*
X929249Y492726D01*
X929079Y492709D01*
X928671Y492726D01*
X928551Y492777D01*
X928237Y492802D01*
X928177Y492845D01*
X928126Y492862D01*
X927990Y492879D01*
X927956Y492913D01*
X927922Y492930D01*
X927871Y492947D01*
X927786Y492964D01*
X927718Y493032D01*
X927616Y493049D01*
X927548Y493117D01*
X927454Y493142D01*
X927412Y493185D01*
X927378Y493202D01*
X927310Y493270D01*
X927191Y493338D01*
X927097Y493397D01*
X927080Y493431D01*
X927021Y493474D01*
X926689Y493806D01*
X926672Y493840D01*
X926604Y493907D01*
X926553Y493993D01*
X926519Y494027D01*
X926502Y494061D01*
X926383Y494214D01*
X926349Y494248D01*
X926264Y494401D01*
X926196Y494452D01*
X926179Y494520D01*
X926162Y494554D01*
X926111Y494605D01*
X926094Y494656D01*
X926043Y494707D01*
X926026Y494792D01*
X925941Y494877D01*
X925949Y494936D01*
X925915Y494987D01*
X925881Y495005D01*
X925830Y495141D01*
X925788Y495183D01*
X925771Y495268D01*
X925720Y495319D01*
X925703Y495387D01*
X925686Y495472D01*
X925660Y495498D01*
X925635Y495506D01*
X925609Y495617D01*
X925550Y495676D01*
X925533Y495795D01*
X925465Y495897D01*
X925448Y496016D01*
X925380Y496084D01*
X925363Y496220D01*
X925312Y496272D01*
X925295Y496340D01*
X925312Y496629D01*
X925371Y496688D01*
X925405Y496705D01*
X925473Y496773D01*
X925558Y496756D01*
X925609Y496705D01*
X925677Y496688D01*
X925720Y496629D01*
X925822Y496578D01*
X925847Y496552D01*
X925932Y496501D01*
X925966Y496467D01*
X926077Y496424D01*
X926136Y496365D01*
X926171Y496348D01*
X926221Y496297D01*
X926315Y496272D01*
X926375Y496212D01*
X926460Y496161D01*
X926494Y496127D01*
X926579Y496110D01*
X926604Y496084D01*
X926613Y496059D01*
X926723Y496033D01*
X926757Y495999D01*
X926766Y495974D01*
X926834Y495957D01*
X926885Y495940D01*
X926936Y495889D01*
X927046Y495863D01*
X927106Y495804D01*
X927208Y495787D01*
X927259Y495736D01*
X927327Y495719D01*
X927429Y495702D01*
X927480Y495651D01*
X927633Y495617D01*
X927684Y495566D01*
X927752Y495549D01*
X927803Y495566D01*
X927871Y495549D01*
X927905Y495532D01*
X928024Y495481D01*
X928211Y495464D01*
X928330Y495396D01*
X928738Y495379D01*
X928823Y495345D01*
X928960Y495311D01*
X929334Y495328D01*
X929419Y495362D01*
X929538Y495379D01*
X929606Y495396D01*
X929861Y495413D01*
X929946Y495464D01*
X930142Y495489D01*
X930167Y495515D01*
X930201Y495532D01*
X930252Y495549D01*
X930346Y495574D01*
X930405Y495634D01*
X930541Y495651D01*
X930575Y495685D01*
X930609Y495702D01*
X930694Y495736D01*
X930728Y495753D01*
X930762Y495787D01*
X930881Y495855D01*
X930966Y495889D01*
X931000Y495906D01*
X931051Y495957D01*
X931085Y495974D01*
X931119Y496008D01*
X931247Y496067D01*
X931264Y496101D01*
X931289Y496127D01*
X931324Y496144D01*
X931374Y496195D01*
X931409Y496212D01*
X931528Y496297D01*
X931562Y496314D01*
X931868Y496620D01*
X931902Y496637D01*
X931944Y496697D01*
X931995Y496731D01*
X932012Y496765D01*
X932250Y497003D01*
X932267Y497037D01*
X932318Y497088D01*
X932335Y497122D01*
X932454Y497275D01*
X932489Y497309D01*
X932506Y497343D01*
X932590Y497428D01*
X932607Y497462D01*
X932693Y497581D01*
X932769Y497675D01*
X932795Y497700D01*
X932863Y497819D01*
X932948Y497938D01*
X933067Y498125D01*
X933075Y498151D01*
X933109Y498168D01*
X933135Y498193D01*
X933152Y498278D01*
X933092Y498355D01*
X932854Y498372D01*
X932803Y498389D01*
X932735Y498406D01*
X932616Y498423D01*
X932072Y498440D01*
X931953Y498491D01*
X931783Y498508D01*
X931732Y498491D01*
X931596Y498525D01*
X931511Y498576D01*
X931273Y498593D01*
X931238Y498627D01*
X931205Y498644D01*
X931153Y498661D01*
X930966Y498678D01*
X930941Y498703D01*
X930932Y498729D01*
X930864Y498746D01*
X930728Y498763D01*
X930677Y498814D01*
X930541Y498848D01*
X930490Y498899D01*
X930354Y498916D01*
X930303Y498967D01*
X930235Y498984D01*
X930150Y499035D01*
X929997Y499120D01*
X929878Y499188D01*
X929861Y499222D01*
X929750Y499265D01*
X929708Y499307D01*
X929631Y499350D01*
X929614Y499384D01*
X929512Y499469D01*
X929419Y499562D01*
X929385Y499579D01*
X929342Y499639D01*
X929291Y499673D01*
X929274Y499707D01*
X929138Y499843D01*
X929121Y499877D01*
X929096Y499902D01*
X929070Y499911D01*
X929053Y499945D01*
X928985Y500047D01*
X928934Y500132D01*
X928900Y500166D01*
X928858Y500277D01*
X928832Y500302D01*
X928798Y500387D01*
X928781Y500421D01*
X928747Y500455D01*
X928730Y500523D01*
X928713Y500608D01*
X928645Y500676D01*
X928628Y500863D01*
X928577Y500897D01*
X928560Y501016D01*
X928543Y501237D01*
X928509Y501271D01*
X928492Y501391D01*
X928509Y502020D01*
X928543Y502105D01*
X928560Y502173D01*
X928577Y502564D01*
X928645Y502717D01*
X928662Y503023D01*
X928713Y503057D01*
X928730Y503176D01*
X928747Y503261D01*
X928798Y503312D01*
X928815Y503380D01*
X928866Y503465D01*
X928909Y503542D01*
X928943Y503559D01*
X928968Y503584D01*
X928985Y503618D01*
X929062Y503695D01*
X929104Y503703D01*
X929138Y503618D01*
X929155Y503584D01*
X929206Y503533D01*
X929249Y503440D01*
X929274Y503431D01*
X929291Y503363D01*
X929308Y503329D01*
X929376Y503261D01*
X929393Y503227D01*
X929444Y503176D01*
X929461Y503108D01*
X929529Y503040D01*
X929546Y503006D01*
X929631Y502921D01*
X929648Y502887D01*
X929810Y502674D01*
X930405Y502079D01*
X930439Y502062D01*
X930490Y502011D01*
X930575Y501960D01*
X930669Y501884D01*
X930711Y501841D01*
X930745Y501824D01*
X930796Y501773D01*
X930881Y501739D01*
X930932Y501688D01*
X930992Y501663D01*
X931009Y501629D01*
X931034Y501603D01*
X931145Y501561D01*
X931170Y501535D01*
X931256Y501484D01*
X931409Y501399D01*
X931443Y501365D01*
X931579Y501331D01*
X931630Y501280D01*
X931749Y501263D01*
X931817Y501195D01*
X931970Y501178D01*
X932021Y501127D01*
X932089Y501110D01*
X932242Y501093D01*
X932293Y501042D01*
X932361Y501025D01*
X932565Y501008D01*
X932667Y500940D01*
X933109Y500923D01*
X933194Y500889D01*
X933262Y500872D01*
X933483Y500855D01*
X934300Y500872D01*
X934385Y500906D01*
X934478Y500931D01*
X934921Y500948D01*
X935099Y501025D01*
X935337Y501042D01*
X935422Y501093D01*
X935490Y501110D01*
X935609Y501127D01*
X935660Y501178D01*
X935847Y501212D01*
X935898Y501263D01*
X936051Y501280D01*
X936119Y501348D01*
X936222Y501365D01*
X936273Y501416D01*
X936341Y501433D01*
X936426Y501450D01*
X936477Y501501D01*
X936545Y501518D01*
X936630Y501569D01*
X936715Y501603D01*
X936783Y501620D01*
X936817Y501671D01*
X936910Y501697D01*
X936970Y501739D01*
X937089Y501807D01*
X937174Y501841D01*
X937259Y501892D01*
X937412Y501977D01*
X937497Y502011D01*
X937531Y502028D01*
X937582Y502079D01*
X937684Y502096D01*
X937752Y502164D01*
X937846Y502190D01*
X937888Y502232D01*
X937973Y502283D01*
X937982Y502309D01*
X937939Y502351D01*
X937905Y502368D01*
X937871Y502402D01*
X937786Y502453D01*
X937769Y502488D01*
X937684Y502522D01*
X937650Y502556D01*
X937565Y502606D01*
X937497Y502674D01*
X937412Y502726D01*
X937293Y502794D01*
X937259Y502828D01*
X937225Y502845D01*
X937174Y502896D01*
X937055Y502964D01*
X937021Y502998D01*
X936987Y503015D01*
X936961Y503040D01*
X936953Y503066D01*
X936800Y503151D01*
X936706Y503227D01*
X936647Y503270D01*
X936596Y503321D01*
X936562Y503338D01*
X936443Y503423D01*
X936409Y503440D01*
X936205Y503644D01*
X936170Y503661D01*
X936145Y503686D01*
X936128Y503720D01*
X936102Y503746D01*
X936068Y503763D01*
X935907Y503925D01*
X935890Y503959D01*
X935856Y503976D01*
X935839Y504010D01*
X935796Y504052D01*
X935762Y504069D01*
X935737Y504095D01*
X935720Y504129D01*
X935694Y504154D01*
X935669Y504163D01*
X935652Y504197D01*
X935550Y504299D01*
X935533Y504333D01*
X935499Y504367D01*
X935482Y504401D01*
X935414Y504503D01*
X935397Y504537D01*
X935346Y504571D01*
X935329Y504605D01*
X935261Y504707D01*
X935210Y504792D01*
X935176Y504826D01*
X935159Y504860D01*
X935108Y504911D01*
X935082Y505005D01*
X935065Y505038D01*
X935031Y505056D01*
X935014Y505140D01*
X934972Y505200D01*
X934937Y505234D01*
X934912Y505345D01*
X934852Y505404D01*
X934835Y505540D01*
X934801Y505574D01*
X934767Y505659D01*
X934750Y505795D01*
X934699Y505846D01*
X934682Y505914D01*
X934665Y506135D01*
X934614Y506254D01*
X934597Y506374D01*
X934606Y506722D01*
X934597Y507343D01*
X934614Y507394D01*
X934631Y507428D01*
X934682Y507547D01*
X934699Y507768D01*
X934733Y507802D01*
X934767Y507887D01*
X934784Y508040D01*
X934835Y508091D01*
X934852Y508210D01*
X934869Y508278D01*
X934921Y508329D01*
X934937Y508465D01*
X935014Y508559D01*
X935040Y508686D01*
X935091Y508720D01*
X935108Y508840D01*
X935159Y508874D01*
X935176Y508942D01*
X935193Y508976D01*
X935244Y509027D01*
X935261Y509095D01*
X935278Y509129D01*
X935312Y509163D01*
X935371Y509273D01*
X935405Y509290D01*
X935431Y509367D01*
X935448Y509401D01*
X935499Y509452D01*
X935550Y509537D01*
X935618Y509656D01*
X935669Y509707D01*
X935686Y509741D01*
X935754Y509809D01*
X935805Y509894D01*
X935890Y510013D01*
X935924Y510047D01*
X935941Y510081D01*
X936077Y510217D01*
X936128Y510302D01*
X936205Y510396D01*
X936290Y510481D01*
X936374Y510532D01*
X936528Y510617D01*
X936647Y510668D01*
X936732Y510702D01*
X936817Y510685D01*
D02*
G37*
G36*
X942599Y544919D02*
X942684Y544885D01*
X942803Y544868D01*
X943075Y544851D01*
X943109Y544817D01*
X943194Y544783D01*
X943415Y544766D01*
X943466Y544715D01*
X943534Y544698D01*
X943670Y544681D01*
X943721Y544630D01*
X943841Y544613D01*
X943909Y544596D01*
X943943Y544562D01*
X944028Y544528D01*
X944130Y544511D01*
X944181Y544460D01*
X944334Y544443D01*
X944359Y544418D01*
X944368Y544392D01*
X944436Y544375D01*
X944521Y544358D01*
X944589Y544290D01*
X944708Y544273D01*
X944733Y544248D01*
X944742Y544222D01*
X944810Y544205D01*
X944895Y544188D01*
X944946Y544137D01*
X945082Y544103D01*
X945133Y544052D01*
X945252Y544035D01*
X945320Y543967D01*
X945414Y543941D01*
X945456Y543899D01*
X945524Y543882D01*
X945609Y543831D01*
X945643Y543797D01*
X945745Y543780D01*
X945796Y543729D01*
X945881Y543695D01*
X945915Y543661D01*
X946000Y543627D01*
X946068Y543559D01*
X946171Y543542D01*
X946213Y543482D01*
X946340Y543457D01*
X946383Y543397D01*
X946451Y543380D01*
X946511Y543338D01*
X946604Y543261D01*
X946630Y543236D01*
X946732Y543219D01*
X946774Y543176D01*
X946783Y543151D01*
X946876Y543125D01*
X946936Y543083D01*
X947012Y543023D01*
X947021Y542998D01*
X947089Y542981D01*
X947148Y542955D01*
X947157Y542930D01*
X947242Y542879D01*
X947293Y542828D01*
X947378Y542811D01*
X947446Y542743D01*
X947531Y542692D01*
X947693Y542581D01*
X947803Y542505D01*
X947871Y542487D01*
X947897Y542462D01*
X947914Y542428D01*
X947999Y542377D01*
X948007Y542351D01*
X948160Y542266D01*
X948245Y542181D01*
X948279Y542164D01*
X948347Y542096D01*
X948415Y542079D01*
X948483Y542011D01*
X948517Y541994D01*
X948585Y541926D01*
X948619Y541909D01*
X948687Y541841D01*
X948806Y541773D01*
X948841Y541739D01*
X948874Y541722D01*
X949028Y541569D01*
X949062Y541552D01*
X949096Y541518D01*
X949130Y541501D01*
X949181Y541450D01*
X949266Y541399D01*
X949300Y541365D01*
X949334Y541348D01*
X949419Y541263D01*
X949444Y541255D01*
X949461Y541220D01*
X949487Y541195D01*
X949521Y541178D01*
X949546Y541152D01*
X949563Y541118D01*
X949623Y541076D01*
X949657Y541025D01*
X949691Y541008D01*
X949733Y540948D01*
X949784Y540914D01*
X949801Y540880D01*
X949861Y540838D01*
X949895Y540787D01*
X949929Y540770D01*
X949971Y540710D01*
X950023Y540676D01*
X950039Y540642D01*
X950082Y540600D01*
X950107Y540591D01*
X950124Y540557D01*
X950346Y540336D01*
X950363Y540302D01*
X950499Y540166D01*
X950550Y540081D01*
X950584Y540047D01*
X950635Y539962D01*
X950669Y539945D01*
X950686Y539911D01*
X950771Y539826D01*
X950788Y539792D01*
X950822Y539758D01*
X950890Y539639D01*
X950924Y539605D01*
X950941Y539571D01*
X951000Y539528D01*
X951043Y539469D01*
X951077Y539435D01*
X951102Y539341D01*
X951179Y539265D01*
X951196Y539231D01*
X951230Y539197D01*
X951247Y539163D01*
X951332Y539044D01*
X951349Y539010D01*
X951400Y538959D01*
X951443Y538848D01*
X951485Y538805D01*
X951502Y538771D01*
X951570Y538703D01*
X951587Y538635D01*
X951604Y538601D01*
X951655Y538550D01*
X951774Y538329D01*
X951808Y538295D01*
X951834Y538202D01*
X951893Y538142D01*
X951936Y538032D01*
X951978Y537989D01*
X952012Y537904D01*
X952046Y537870D01*
X952089Y537760D01*
X952131Y537717D01*
X952174Y537606D01*
X952233Y537496D01*
X952250Y537445D01*
X952276Y537419D01*
X952301Y537411D01*
X952318Y537360D01*
X952301Y537326D01*
X952378Y537232D01*
X952395Y537164D01*
X952421Y537105D01*
X952472Y537054D01*
X952489Y536935D01*
X952540Y536884D01*
X952557Y536816D01*
X952573Y536731D01*
X952625Y536697D01*
X952641Y536629D01*
X952658Y536544D01*
X952710Y536493D01*
X952735Y536365D01*
X952795Y536271D01*
X952812Y536152D01*
X952880Y536084D01*
X952897Y535931D01*
X952948Y535880D01*
X952965Y535812D01*
X952982Y535710D01*
X953033Y535659D01*
X953050Y535591D01*
X953067Y535472D01*
X953118Y535421D01*
X953135Y535234D01*
X953203Y535166D01*
X953220Y534979D01*
X953288Y534877D01*
X953305Y534690D01*
X953339Y534656D01*
X953373Y534571D01*
X953390Y534401D01*
X953441Y534316D01*
X953458Y534248D01*
X953475Y534078D01*
X953526Y533993D01*
X953543Y533874D01*
X953560Y533738D01*
X953594Y533703D01*
X953611Y533635D01*
X953628Y533550D01*
X953611Y533499D01*
X953636Y533389D01*
X953662Y533363D01*
X953696Y533278D01*
X953713Y533006D01*
X953781Y532853D01*
X953798Y532564D01*
X953849Y532479D01*
X953866Y532411D01*
X953883Y532071D01*
X953909Y532045D01*
X953951Y532088D01*
X953977Y532232D01*
X954002Y532292D01*
X954036Y532377D01*
X954053Y532649D01*
X954087Y532683D01*
X954104Y532751D01*
X954113Y532794D01*
X954104Y532836D01*
X954121Y532887D01*
X954138Y533142D01*
X954172Y533176D01*
X954189Y533295D01*
X954206Y533754D01*
X954240Y533840D01*
X954257Y533908D01*
X954274Y534027D01*
X954257Y535625D01*
X954223Y535710D01*
X954206Y535829D01*
X954189Y536101D01*
X954172Y536322D01*
X954121Y536442D01*
X954104Y536765D01*
X954053Y536816D01*
X954036Y536884D01*
X954019Y537122D01*
X953985Y537156D01*
X953951Y537241D01*
X953934Y537445D01*
X953900Y537462D01*
X953883Y537530D01*
X953866Y537700D01*
X953849Y537734D01*
X953798Y537785D01*
X953781Y537904D01*
X953764Y538006D01*
X953713Y538057D01*
X953696Y538176D01*
X953679Y538244D01*
X953628Y538295D01*
X953611Y538448D01*
X953543Y538516D01*
X953526Y538652D01*
X953475Y538703D01*
X953458Y538771D01*
X953441Y538857D01*
X953390Y538907D01*
X953356Y539044D01*
X953322Y539078D01*
X953339Y539146D01*
X953398Y539154D01*
X953483Y539103D01*
X953517Y539069D01*
X953602Y539052D01*
X953653Y539001D01*
X953738Y538967D01*
X953790Y538916D01*
X953823Y538899D01*
X953977Y538746D01*
X954011Y538729D01*
X954070Y538635D01*
X954104Y538601D01*
X954121Y538567D01*
X954172Y538516D01*
X954232Y538406D01*
X954266Y538389D01*
X954325Y538295D01*
X954359Y538261D01*
X954376Y538210D01*
X954427Y538159D01*
X954478Y538074D01*
X954512Y538057D01*
X954538Y537964D01*
X954580Y537921D01*
X954631Y537836D01*
X954665Y537802D01*
X954682Y537734D01*
X954733Y537649D01*
X954767Y537615D01*
X954869Y537428D01*
X954903Y537411D01*
X954920Y537360D01*
X954903Y537326D01*
X954946Y537266D01*
X954980Y537249D01*
X955005Y537224D01*
X955023Y537122D01*
X955048Y537096D01*
X955074Y537088D01*
X955107Y536952D01*
X955167Y536909D01*
X955176Y536867D01*
X955159Y536833D01*
X955184Y536790D01*
X955218Y536773D01*
X955244Y536748D01*
X955261Y536646D01*
X955303Y536603D01*
X955329Y536595D01*
X955346Y536476D01*
X955414Y536408D01*
X955431Y536306D01*
X955456Y536280D01*
X955482Y536271D01*
X955516Y536135D01*
X955567Y536084D01*
X955601Y535931D01*
X955652Y535880D01*
X955669Y535761D01*
X955677Y535736D01*
X955711Y535719D01*
X955737Y535693D01*
X955754Y535574D01*
X955822Y535506D01*
X955839Y535370D01*
X955890Y535319D01*
X955907Y535251D01*
X955924Y535166D01*
X955975Y535115D01*
X956000Y534970D01*
X956060Y534911D01*
X956068Y534851D01*
X956060Y534775D01*
X956145Y534690D01*
X956162Y534520D01*
X956230Y534452D01*
X956247Y534282D01*
X956273Y534256D01*
X956298Y534248D01*
X956315Y534180D01*
X956332Y534044D01*
X956383Y533993D01*
X956417Y533788D01*
X956468Y533738D01*
X956485Y533618D01*
X956494Y533525D01*
X956528Y533508D01*
X956553Y533482D01*
X956570Y533261D01*
X956621Y533210D01*
X956638Y533142D01*
X956655Y532955D01*
X956706Y532904D01*
X956723Y532785D01*
X956740Y532615D01*
X956774Y532581D01*
X956808Y532445D01*
X956825Y532207D01*
X956876Y532156D01*
X956893Y531765D01*
X956961Y531612D01*
X956978Y531101D01*
X957012Y531016D01*
X957029Y530948D01*
X957046Y530727D01*
X957029Y528295D01*
X956978Y528176D01*
X956961Y528057D01*
X956944Y527530D01*
X956893Y527411D01*
X956876Y527292D01*
X956859Y527003D01*
X956825Y526969D01*
X956808Y526850D01*
X956791Y526578D01*
X956723Y526425D01*
X956706Y526152D01*
X956638Y526050D01*
X956621Y525812D01*
X956587Y525778D01*
X956553Y525659D01*
X956536Y525489D01*
X956502Y525455D01*
X956485Y525387D01*
X956468Y525200D01*
X956417Y525149D01*
X956383Y525047D01*
X956400Y524996D01*
X956315Y524809D01*
X956298Y524673D01*
X956247Y524622D01*
X956230Y524554D01*
X956213Y524401D01*
X956153Y524358D01*
X956136Y524188D01*
X956077Y524129D01*
X956060Y523976D01*
X956009Y523924D01*
X955992Y523856D01*
X955975Y523755D01*
X955949Y523729D01*
X955915Y523712D01*
X955898Y523576D01*
X955856Y523516D01*
X955822Y523431D01*
X955805Y523363D01*
X955754Y523312D01*
X955720Y523176D01*
X955669Y523125D01*
X955652Y523006D01*
X955584Y522938D01*
X955567Y522819D01*
X955516Y522768D01*
X955499Y522700D01*
X955431Y522581D01*
X955414Y522530D01*
X955295Y522309D01*
X955124Y522003D01*
X955091Y521969D01*
X955074Y521884D01*
X955005Y521816D01*
X954988Y521714D01*
X954920Y521646D01*
X954903Y521578D01*
X954852Y521527D01*
X954801Y521442D01*
X954767Y521408D01*
X954750Y521340D01*
X954665Y521220D01*
X954648Y521186D01*
X954614Y521152D01*
X954589Y521059D01*
X954529Y521016D01*
X954495Y520931D01*
X954461Y520897D01*
X954410Y520812D01*
X954359Y520761D01*
X954342Y520693D01*
X954291Y520642D01*
X954257Y520557D01*
X954198Y520515D01*
X954155Y520455D01*
X954104Y520404D01*
X954087Y520336D01*
X954019Y520268D01*
X954002Y520234D01*
X953934Y520166D01*
X953917Y520132D01*
X953883Y520098D01*
X953832Y520013D01*
X953798Y519979D01*
X953755Y519902D01*
X953722Y519885D01*
X953679Y519826D01*
X953611Y519758D01*
X953560Y519673D01*
X953475Y519554D01*
X953373Y519452D01*
X953364Y519426D01*
X953330Y519409D01*
X953288Y519367D01*
X953271Y519333D01*
X953135Y519197D01*
X953084Y519112D01*
X953050Y519078D01*
X953033Y519044D01*
X952914Y518925D01*
X952897Y518890D01*
X952557Y518550D01*
X952540Y518516D01*
X952514Y518491D01*
X952480Y518474D01*
X952021Y518015D01*
X951987Y517998D01*
X951919Y517930D01*
X951885Y517913D01*
X951834Y517862D01*
X951800Y517845D01*
X951732Y517777D01*
X951698Y517760D01*
X951655Y517734D01*
X951638Y517700D01*
X951613Y517674D01*
X951587Y517666D01*
X951570Y517632D01*
X951545Y517606D01*
X951511Y517590D01*
X951375Y517453D01*
X951289Y517419D01*
X951239Y517368D01*
X951204Y517351D01*
X951119Y517266D01*
X951085Y517249D01*
X951051Y517198D01*
X950966Y517147D01*
X950847Y517079D01*
X950813Y517028D01*
X950779Y517011D01*
X950686Y516935D01*
X950558Y516858D01*
X950524Y516841D01*
X950490Y516790D01*
X950405Y516739D01*
X950371Y516705D01*
X950252Y516637D01*
X950159Y516561D01*
X950023Y516476D01*
X949938Y516425D01*
X949920Y516391D01*
X949835Y516373D01*
X949776Y516331D01*
X949742Y516297D01*
X949708Y516280D01*
X949657Y516229D01*
X949563Y516203D01*
X949504Y516144D01*
X949436Y516127D01*
X949393Y516101D01*
X949376Y516067D01*
X949283Y516008D01*
X949198Y515974D01*
X949147Y515957D01*
X949096Y515906D01*
X949028Y515889D01*
X948968Y515863D01*
X948951Y515829D01*
X948926Y515804D01*
X948824Y515787D01*
X948798Y515761D01*
X948790Y515736D01*
X948722Y515719D01*
X948670Y515702D01*
X948619Y515651D01*
X948551Y515634D01*
X948058Y515396D01*
X948007Y515379D01*
X947982Y515353D01*
X947973Y515328D01*
X947905Y515311D01*
X947871Y515328D01*
X947812Y515285D01*
X947803Y515260D01*
X947684Y515226D01*
X947650Y515209D01*
X947616Y515174D01*
X947548Y515158D01*
X947454Y515132D01*
X947412Y515090D01*
X947344Y515072D01*
X947259Y515056D01*
X947208Y515004D01*
X947140Y514988D01*
X947038Y514970D01*
X946987Y514919D01*
X946868Y514902D01*
X946783Y514851D01*
X946732Y514834D01*
X946596Y514817D01*
X946528Y514749D01*
X946358Y514732D01*
X946290Y514664D01*
X946102Y514647D01*
X946051Y514596D01*
X945813Y514562D01*
X945762Y514511D01*
X945524Y514477D01*
X945490Y514443D01*
X945354Y514409D01*
X945201Y514392D01*
X945116Y514341D01*
X944861Y514324D01*
X944776Y514273D01*
X944708Y514256D01*
X944436Y514239D01*
X944317Y514188D01*
X944249Y514171D01*
X943960Y514154D01*
X943841Y514103D01*
X943619Y514086D01*
X943330Y514069D01*
X943245Y514035D01*
X943126Y514018D01*
X942897Y514010D01*
X942735Y514018D01*
X942684Y514001D01*
X942633Y514018D01*
X942327Y514001D01*
X942276Y513984D01*
X942038Y513950D01*
X941757Y513941D01*
X941681Y513950D01*
X941630Y513933D01*
X940839Y513976D01*
X940745Y514001D01*
X940422Y514018D01*
X939861Y514035D01*
X939742Y514086D01*
X939657Y514103D01*
X939606Y514086D01*
X939283Y514103D01*
X939130Y514171D01*
X938756Y514188D01*
X938704Y514239D01*
X938585Y514256D01*
X938347Y514273D01*
X938296Y514324D01*
X938177Y514341D01*
X937990Y514358D01*
X937956Y514392D01*
X937837Y514426D01*
X937786Y514409D01*
X937676Y514435D01*
X937565Y514494D01*
X937378Y514511D01*
X937276Y514579D01*
X937089Y514596D01*
X937004Y514647D01*
X936936Y514664D01*
X936817Y514681D01*
X936800Y514715D01*
X936715Y514749D01*
X936579Y514766D01*
X936528Y514817D01*
X936357Y514834D01*
X936290Y514902D01*
X936136Y514919D01*
X936085Y514970D01*
X936017Y514988D01*
X935915Y515004D01*
X935881Y515038D01*
X935796Y515072D01*
X935694Y515090D01*
X935669Y515115D01*
X935660Y515140D01*
X935524Y515174D01*
X935473Y515226D01*
X935320Y515260D01*
X935286Y515294D01*
X935201Y515328D01*
X935133Y515345D01*
X935099Y515379D01*
X934963Y515430D01*
X934912Y515481D01*
X934793Y515498D01*
X934767Y515523D01*
X934750Y515557D01*
X934648Y515574D01*
X934614Y515591D01*
X934597Y515625D01*
X934470Y515668D01*
X934419Y515719D01*
X934351Y515736D01*
X934300Y515753D01*
X934249Y515804D01*
X934181Y515821D01*
X934130Y515872D01*
X934045Y515906D01*
X933977Y515974D01*
X933891Y515991D01*
X933866Y516016D01*
X933858Y516042D01*
X933722Y516076D01*
X933687Y516127D01*
X933602Y516161D01*
X933551Y516212D01*
X933483Y516229D01*
X933415Y516297D01*
X933330Y516331D01*
X933296Y516365D01*
X933262Y516382D01*
X933194Y516450D01*
X933084Y516476D01*
X933024Y516535D01*
X932990Y516552D01*
X932965Y516578D01*
X932948Y516612D01*
X932846Y516663D01*
X932820Y516688D01*
X932735Y516739D01*
X932684Y516790D01*
X932633Y516807D01*
X932599Y516841D01*
X932480Y516909D01*
X932446Y516943D01*
X932412Y516960D01*
X932361Y517028D01*
X932242Y517096D01*
X932208Y517130D01*
X932182Y517139D01*
X932174Y517164D01*
X932140Y517181D01*
X932046Y517258D01*
X932021Y517283D01*
X931987Y517300D01*
X931936Y517351D01*
X931851Y517402D01*
X931757Y517479D01*
X931698Y517538D01*
X931672Y517547D01*
X931655Y517581D01*
X931630Y517606D01*
X931596Y517624D01*
X931528Y517692D01*
X931494Y517709D01*
X931443Y517760D01*
X931409Y517777D01*
X931341Y517845D01*
X931306Y517862D01*
X931238Y517930D01*
X931205Y517947D01*
X931051Y518100D01*
X931026Y518108D01*
X931009Y518142D01*
X930711Y518440D01*
X930686Y518448D01*
X930669Y518482D01*
X930575Y518576D01*
X930541Y518593D01*
X930499Y518652D01*
X930439Y518695D01*
X930354Y518797D01*
X930176Y518976D01*
X930159Y519010D01*
X929988Y519180D01*
X929972Y519214D01*
X929920Y519265D01*
X929903Y519299D01*
X929869Y519333D01*
X929852Y519367D01*
X929784Y519435D01*
X929767Y519469D01*
X929614Y519622D01*
X929597Y519656D01*
X929546Y519707D01*
X929495Y519792D01*
X929453Y519868D01*
X929419Y519885D01*
X929359Y519945D01*
X929351Y519970D01*
X929317Y519987D01*
X929291Y520013D01*
X929274Y520047D01*
X929240Y520081D01*
X929223Y520115D01*
X929172Y520200D01*
X929138Y520234D01*
X929121Y520268D01*
X929053Y520336D01*
X929002Y520421D01*
X928934Y520540D01*
X928883Y520591D01*
X928866Y520625D01*
X928815Y520676D01*
X928781Y520761D01*
X928730Y520812D01*
X928704Y520872D01*
X928671Y520889D01*
X928611Y521016D01*
X928560Y521067D01*
X928543Y521101D01*
X928492Y521152D01*
X928466Y521246D01*
X928407Y521306D01*
X928364Y521382D01*
X928339Y521390D01*
X928313Y521484D01*
X928296Y521518D01*
X928262Y521535D01*
X928237Y521561D01*
X928220Y521646D01*
X928152Y521714D01*
X928135Y521782D01*
X928101Y521816D01*
X928067Y521901D01*
X928024Y521943D01*
X927999Y521952D01*
X927982Y522071D01*
X927956Y522096D01*
X927922Y522113D01*
X927897Y522241D01*
X927837Y522283D01*
X927820Y522385D01*
X927786Y522419D01*
X927752Y522436D01*
X927727Y522564D01*
X927701Y522589D01*
X927667Y522607D01*
X927641Y522734D01*
X927590Y522768D01*
X927573Y522887D01*
X927548Y522913D01*
X927514Y522930D01*
X927489Y523057D01*
X927463Y523083D01*
X927429Y523100D01*
X927403Y523244D01*
X927352Y523295D01*
X927318Y523431D01*
X927267Y523482D01*
X927250Y523550D01*
X927233Y523635D01*
X927182Y523669D01*
X927165Y523822D01*
X927114Y523874D01*
X927097Y523942D01*
X927080Y524044D01*
X927029Y524095D01*
X927012Y524163D01*
X926995Y524265D01*
X926927Y524367D01*
X926910Y524520D01*
X926859Y524571D01*
X926842Y524690D01*
X926825Y524758D01*
X926774Y524843D01*
X926757Y525013D01*
X926689Y525115D01*
X926672Y525302D01*
X926621Y525353D01*
X926604Y525421D01*
X926587Y525608D01*
X926519Y525710D01*
X926502Y525948D01*
X926468Y525982D01*
X926434Y526118D01*
X926417Y526339D01*
X926366Y526391D01*
X926357Y526603D01*
X926366Y526629D01*
X926349Y526680D01*
X926332Y526765D01*
X926281Y526884D01*
X926264Y527207D01*
X926213Y527326D01*
X926196Y527445D01*
X926179Y527870D01*
X926145Y527955D01*
X926128Y528023D01*
X926111Y528295D01*
X926094Y529316D01*
X926077Y529367D01*
X926094Y529877D01*
X926111Y529928D01*
X926128Y530982D01*
X926179Y531101D01*
X926196Y531169D01*
X926213Y531663D01*
X926264Y531782D01*
X926281Y531850D01*
X926298Y532173D01*
X926349Y532224D01*
X926366Y532343D01*
X926357Y532453D01*
X926375Y532555D01*
X926434Y532700D01*
X926451Y532938D01*
X926519Y533040D01*
X926536Y533278D01*
X926604Y533380D01*
X926621Y533601D01*
X926672Y533652D01*
X926689Y533772D01*
X926706Y533874D01*
X926757Y533924D01*
X926774Y534044D01*
X926791Y534146D01*
X926842Y534197D01*
X926859Y534384D01*
X926885Y534409D01*
X926910Y534418D01*
X926927Y534486D01*
X926944Y534622D01*
X926970Y534647D01*
X926995Y534656D01*
X927012Y534724D01*
X927029Y534860D01*
X927080Y534911D01*
X927114Y535064D01*
X927165Y535115D01*
X927191Y535277D01*
X927250Y535336D01*
X927267Y535455D01*
X927335Y535523D01*
X927352Y535659D01*
X927403Y535710D01*
X927437Y535846D01*
X927505Y535914D01*
X927522Y536016D01*
X927590Y536084D01*
X927608Y536203D01*
X927658Y536255D01*
X927676Y536356D01*
X927744Y536424D01*
X927761Y536510D01*
X927812Y536561D01*
X927829Y536629D01*
X927846Y536680D01*
X927905Y536722D01*
X927931Y536850D01*
X927982Y536884D01*
X927999Y536952D01*
X928016Y537003D01*
X928067Y537054D01*
X928109Y537164D01*
X928152Y537207D01*
X928271Y537428D01*
X928322Y537479D01*
X928339Y537564D01*
X928390Y537615D01*
X928441Y537700D01*
X928475Y537734D01*
X928492Y537802D01*
X928543Y537853D01*
X928662Y538074D01*
X928722Y538117D01*
X928755Y538202D01*
X928798Y538244D01*
X928849Y538329D01*
X928900Y538380D01*
X928985Y538533D01*
X929036Y538584D01*
X929053Y538618D01*
X929138Y538703D01*
X929155Y538771D01*
X929206Y538823D01*
X929249Y538899D01*
X929283Y538916D01*
X929325Y538976D01*
X929393Y539044D01*
X929461Y539163D01*
X929538Y539256D01*
X929572Y539307D01*
X929606Y539324D01*
X929648Y539384D01*
X929699Y539418D01*
X929716Y539452D01*
X929767Y539503D01*
X929784Y539537D01*
X929861Y539630D01*
X929903Y539690D01*
X930005Y539792D01*
X930023Y539826D01*
X930065Y539868D01*
X930099Y539885D01*
X930142Y539945D01*
X930210Y540013D01*
X930218Y540038D01*
X930252Y540056D01*
X930278Y540081D01*
X930295Y540115D01*
X930354Y540158D01*
X930388Y540209D01*
X930422Y540226D01*
X930983Y540787D01*
X931017Y540804D01*
X931085Y540872D01*
X931119Y540889D01*
X931170Y540940D01*
X931256Y540991D01*
X931289Y541025D01*
X931324Y541042D01*
X931477Y541195D01*
X931511Y541212D01*
X931562Y541263D01*
X931647Y541297D01*
X931783Y541433D01*
X931825Y541407D01*
X931808Y541101D01*
X931740Y540999D01*
X931723Y540914D01*
X931672Y540863D01*
X931647Y540804D01*
X931613Y540787D01*
X931570Y540744D01*
X931553Y540710D01*
X931502Y540659D01*
X931434Y540540D01*
X931332Y540370D01*
X931315Y540336D01*
X931264Y540285D01*
X931196Y540166D01*
X931136Y540056D01*
X931102Y540038D01*
X931068Y539953D01*
X931026Y539911D01*
X930958Y539792D01*
X930924Y539758D01*
X930907Y539673D01*
X930839Y539605D01*
X930822Y539537D01*
X930771Y539486D01*
X930754Y539418D01*
X930686Y539350D01*
X930669Y539265D01*
X930601Y539197D01*
X930584Y539112D01*
X930516Y539044D01*
X930499Y538941D01*
X930448Y538907D01*
X930405Y538797D01*
X930363Y538755D01*
X930346Y538686D01*
X930278Y538618D01*
X930261Y538516D01*
X930193Y538448D01*
X930176Y538363D01*
X930124Y538312D01*
X930107Y538244D01*
X930091Y538193D01*
X930040Y538142D01*
X930023Y538023D01*
X929997Y537998D01*
X929963Y537981D01*
X929946Y537879D01*
X929903Y537819D01*
X929869Y537734D01*
X929852Y537666D01*
X929801Y537615D01*
X929784Y537547D01*
X929767Y537462D01*
X929708Y537419D01*
X929682Y537292D01*
X929631Y537241D01*
X929614Y537173D01*
X929597Y537088D01*
X929563Y537054D01*
X929529Y536918D01*
X929512Y536884D01*
X929461Y536833D01*
X929444Y536680D01*
X929436Y536671D01*
X929376Y536612D01*
X929359Y536442D01*
X929308Y536390D01*
X929291Y536322D01*
X929274Y536220D01*
X929223Y536186D01*
X929189Y535999D01*
X929155Y535965D01*
X929138Y535897D01*
X929113Y535736D01*
X929053Y535676D01*
X929036Y535472D01*
X928985Y535421D01*
X928968Y535353D01*
X928951Y535183D01*
X928883Y535115D01*
X928866Y534877D01*
X928815Y534826D01*
X928798Y534758D01*
X928781Y534537D01*
X928730Y534486D01*
X928713Y534214D01*
X928645Y534112D01*
X928628Y533772D01*
X928594Y533738D01*
X928560Y533652D01*
X928543Y533278D01*
X928492Y533159D01*
X928475Y533091D01*
X928458Y532632D01*
X928407Y532513D01*
X928390Y532394D01*
X928373Y531561D01*
X928356Y531510D01*
X928339Y531441D01*
X928313Y530974D01*
X928305Y530795D01*
X928322Y530744D01*
X928339Y530268D01*
X928356Y530217D01*
X928373Y530149D01*
X928390Y529622D01*
X928407Y529248D01*
X928458Y529129D01*
X928475Y529010D01*
X928492Y528686D01*
X928526Y528652D01*
X928560Y528567D01*
X928577Y528278D01*
X928611Y528244D01*
X928645Y528108D01*
X928662Y527938D01*
X928713Y527887D01*
X928722Y527760D01*
X928713Y527683D01*
X928738Y527640D01*
X928773Y527624D01*
X928798Y527598D01*
X928815Y527411D01*
X928883Y527309D01*
X928900Y527156D01*
X928951Y527105D01*
X928968Y527037D01*
X928985Y526918D01*
X929036Y526884D01*
X929070Y526748D01*
X929121Y526697D01*
X929147Y526535D01*
X929206Y526476D01*
X929223Y526357D01*
X929291Y526289D01*
X929308Y526186D01*
X929376Y526118D01*
X929393Y526033D01*
X929461Y525965D01*
X929478Y525863D01*
X929546Y525795D01*
X929563Y525710D01*
X929614Y525659D01*
X929631Y525608D01*
X929682Y525557D01*
X929699Y525489D01*
X929716Y525455D01*
X929784Y525387D01*
X929801Y525319D01*
X929886Y525200D01*
X929903Y525166D01*
X929937Y525132D01*
X929988Y525047D01*
X930048Y524953D01*
X930082Y524936D01*
X930107Y524911D01*
X930142Y524826D01*
X930193Y524775D01*
X930210Y524724D01*
X930278Y524656D01*
X930295Y524622D01*
X930363Y524554D01*
X930465Y524384D01*
X930516Y524350D01*
X930533Y524316D01*
X930618Y524231D01*
X930635Y524197D01*
X930737Y524095D01*
X930754Y524061D01*
X930839Y523976D01*
X930856Y523942D01*
X930907Y523890D01*
X930924Y523856D01*
X931009Y523771D01*
X931026Y523737D01*
X931051Y523712D01*
X931085Y523695D01*
X931170Y523593D01*
X931205Y523559D01*
X931238Y523542D01*
X931264Y523516D01*
X931281Y523482D01*
X931383Y523397D01*
X931460Y523321D01*
X931494Y523304D01*
X931519Y523278D01*
X931528Y523253D01*
X931562Y523236D01*
X931655Y523159D01*
X931715Y523117D01*
X931766Y523066D01*
X931800Y523049D01*
X931953Y522896D01*
X931987Y522879D01*
X932038Y522828D01*
X932089Y522811D01*
X932140Y522760D01*
X932225Y522709D01*
X932293Y522641D01*
X932327Y522623D01*
X932344Y522589D01*
X932429Y522555D01*
X932463Y522521D01*
X932497Y522505D01*
X932590Y522428D01*
X932676Y522394D01*
X932718Y522351D01*
X932956Y522215D01*
X933007Y522164D01*
X933092Y522147D01*
X933143Y522096D01*
X933254Y522054D01*
X933279Y522028D01*
X933364Y521994D01*
X933432Y521977D01*
X933500Y521909D01*
X933602Y521892D01*
X933619Y521858D01*
X933755Y521824D01*
X933790Y521773D01*
X933926Y521739D01*
X933960Y521705D01*
X934079Y521671D01*
X934147Y521654D01*
X934198Y521603D01*
X934266Y521586D01*
X934317Y521603D01*
X934402Y521552D01*
X934436Y521518D01*
X934606Y521501D01*
X934708Y521433D01*
X934895Y521416D01*
X934921Y521390D01*
X934929Y521365D01*
X934997Y521348D01*
X935218Y521331D01*
X935252Y521297D01*
X935388Y521263D01*
X935609Y521246D01*
X935728Y521195D01*
X936153Y521178D01*
X936255Y521110D01*
X937667Y521093D01*
X937718Y521110D01*
X938517Y521127D01*
X938636Y521178D01*
X939113Y521212D01*
X939147Y521246D01*
X939215Y521263D01*
X939368Y521280D01*
X939419Y521263D01*
X939512Y521288D01*
X939555Y521331D01*
X939674Y521348D01*
X939844Y521365D01*
X939878Y521399D01*
X939963Y521433D01*
X940150Y521450D01*
X940184Y521501D01*
X940252Y521518D01*
X940405Y521535D01*
X940456Y521586D01*
X940643Y521620D01*
X940694Y521671D01*
X940813Y521688D01*
X940847Y521705D01*
X940932Y521756D01*
X941034Y521773D01*
X941060Y521799D01*
X941077Y521833D01*
X941204Y521858D01*
X941255Y521909D01*
X941366Y521935D01*
X941426Y521994D01*
X941528Y522011D01*
X941579Y522062D01*
X941664Y522096D01*
X941698Y522113D01*
X941732Y522147D01*
X941800Y522164D01*
X941885Y522215D01*
X941919Y522249D01*
X942106Y522351D01*
X942140Y522402D01*
X942208Y522419D01*
X942259Y522436D01*
X942293Y522487D01*
X942378Y522539D01*
X942412Y522573D01*
X942565Y522657D01*
X942633Y522726D01*
X942667Y522743D01*
X942752Y522828D01*
X942786Y522845D01*
X942820Y522879D01*
X942905Y522930D01*
X942999Y523006D01*
X943024Y523049D01*
X943058Y523066D01*
X943177Y523185D01*
X943203Y523193D01*
X943220Y523227D01*
X943322Y523312D01*
X943364Y523372D01*
X943398Y523389D01*
X943492Y523482D01*
X943509Y523516D01*
X943917Y523924D01*
X943934Y523959D01*
X943968Y523976D01*
X943985Y524010D01*
X944147Y524222D01*
X944189Y524282D01*
X944257Y524350D01*
X944274Y524384D01*
X944308Y524418D01*
X944376Y524537D01*
X944410Y524571D01*
X944427Y524605D01*
X944461Y524622D01*
X944504Y524732D01*
X944563Y524792D01*
X944580Y524826D01*
X944631Y524877D01*
X944648Y524945D01*
X944665Y524996D01*
X944716Y525047D01*
X944733Y525081D01*
X944801Y525149D01*
X944818Y525234D01*
X944886Y525302D01*
X944912Y525396D01*
X944954Y525438D01*
X944989Y525574D01*
X945039Y525608D01*
X945057Y525676D01*
X945082Y525736D01*
X945107Y525744D01*
X945142Y525829D01*
X945158Y525897D01*
X945210Y525931D01*
X945244Y526067D01*
X945295Y526118D01*
X945312Y526237D01*
X945380Y526305D01*
X945397Y526459D01*
X945465Y526527D01*
X945482Y526680D01*
X945533Y526731D01*
X945558Y526909D01*
X945601Y526969D01*
X945618Y527020D01*
X945635Y527156D01*
X945703Y527258D01*
X945720Y527479D01*
X945771Y527530D01*
X945788Y527598D01*
X945805Y527819D01*
X945839Y527853D01*
X945873Y527938D01*
X945890Y528261D01*
X945924Y528295D01*
X945941Y528363D01*
X945958Y528482D01*
X945975Y528823D01*
X946026Y528941D01*
X946051Y529817D01*
X946068Y530124D01*
X946077Y530234D01*
X946060Y530285D01*
X946034Y530872D01*
X946017Y531365D01*
X945983Y531450D01*
X945958Y531544D01*
X945949Y531773D01*
X945958Y531799D01*
X945941Y531850D01*
X945924Y531935D01*
X945873Y532054D01*
X945856Y532343D01*
X945822Y532377D01*
X945788Y532462D01*
X945771Y532683D01*
X945720Y532768D01*
X945703Y532836D01*
X945686Y532972D01*
X945618Y533074D01*
X945601Y533261D01*
X945567Y533295D01*
X945550Y533363D01*
X945533Y533499D01*
X945465Y533567D01*
X945448Y533738D01*
X945397Y533788D01*
X945380Y533856D01*
X945354Y533950D01*
X945312Y533993D01*
X945295Y534061D01*
X945278Y534163D01*
X945227Y534197D01*
X945210Y534333D01*
X945142Y534401D01*
X945116Y534528D01*
X945074Y534571D01*
X945057Y534639D01*
X945022Y534724D01*
X944971Y534758D01*
X944954Y534877D01*
X944903Y534928D01*
X944886Y534996D01*
X944869Y535047D01*
X944818Y535098D01*
X944801Y535166D01*
X944784Y535217D01*
X944759Y535243D01*
X944733Y535251D01*
X944691Y535362D01*
X944665Y535387D01*
X944597Y535506D01*
X944563Y535591D01*
X944538Y535651D01*
X944504Y535668D01*
X944478Y535744D01*
X944461Y535778D01*
X944410Y535829D01*
X944291Y536050D01*
X944240Y536084D01*
X944215Y536178D01*
X944172Y536220D01*
X944155Y536255D01*
X944113Y536314D01*
X944087Y536322D01*
X944036Y536408D01*
X944002Y536442D01*
X943985Y536510D01*
X943943Y536552D01*
X943917Y536561D01*
X943900Y536595D01*
X943874Y536637D01*
X943849Y536646D01*
X943832Y536680D01*
X943747Y536765D01*
X943730Y536799D01*
X943653Y536892D01*
X943611Y536935D01*
X943594Y536969D01*
X943509Y537054D01*
X943492Y537088D01*
X943466Y537113D01*
X943432Y537130D01*
X943390Y537190D01*
X943313Y537266D01*
X943279Y537283D01*
X943160Y537402D01*
X943126Y537419D01*
X943092Y537453D01*
X943058Y537470D01*
X943007Y537522D01*
X942973Y537538D01*
X942905Y537606D01*
X942871Y537624D01*
X942735Y537760D01*
X942616Y537828D01*
X942523Y537904D01*
X942420Y537972D01*
X942395Y537998D01*
X942327Y538015D01*
X942259Y538083D01*
X942148Y538125D01*
X942106Y538168D01*
X942055Y538185D01*
X942029Y538210D01*
X942012Y538244D01*
X941910Y538261D01*
X941876Y538295D01*
X941859Y538329D01*
X941757Y538346D01*
X941706Y538380D01*
X941689Y538414D01*
X941562Y538440D01*
X941519Y538499D01*
X941391Y538525D01*
X941358Y538576D01*
X941222Y538610D01*
X941171Y538661D01*
X941034Y538678D01*
X940966Y538746D01*
X940830Y538763D01*
X940762Y538831D01*
X940609Y538848D01*
X940558Y538899D01*
X940490Y538916D01*
X940371Y538933D01*
X940320Y538984D01*
X940244Y538993D01*
X940167Y538984D01*
X940031Y539069D01*
X939827Y539086D01*
X939776Y539137D01*
X939708Y539154D01*
X939504Y539171D01*
X939419Y539222D01*
X939351Y539239D01*
X939079Y539256D01*
X938977Y539324D01*
X938815Y539316D01*
X938517Y539341D01*
X938398Y539392D01*
X936953Y539409D01*
X936783Y539392D01*
X936460Y539375D01*
X936341Y539324D01*
X936017Y539307D01*
X935983Y539273D01*
X935898Y539239D01*
X935677Y539222D01*
X935626Y539171D01*
X935558Y539154D01*
X935405Y539137D01*
X935354Y539086D01*
X935286Y539069D01*
X935167Y539052D01*
X935116Y539001D01*
X935048Y538984D01*
X934946Y538967D01*
X934921Y538941D01*
X934912Y538916D01*
X934861Y538899D01*
X934810Y538916D01*
X934776Y538899D01*
X934750Y538873D01*
X934742Y538848D01*
X934606Y538814D01*
X934555Y538763D01*
X934487Y538746D01*
X934436Y538729D01*
X934385Y538678D01*
X934291Y538652D01*
X934232Y538593D01*
X934130Y538576D01*
X934104Y538550D01*
X934087Y538516D01*
X934011Y538491D01*
X933977Y538474D01*
X933926Y538423D01*
X933849Y538380D01*
X933840Y538355D01*
X933772Y538338D01*
X933722Y538321D01*
X933636Y538236D01*
X933611Y538227D01*
X933594Y538193D01*
X933509Y538159D01*
X933339Y538023D01*
X933313Y537998D01*
X933279Y537981D01*
X933228Y537930D01*
X933160Y537913D01*
X933092Y537845D01*
X933058Y537828D01*
X932905Y537675D01*
X932871Y537657D01*
X932786Y537572D01*
X932752Y537556D01*
X932650Y537453D01*
X932616Y537436D01*
X932522Y537360D01*
X932361Y537198D01*
X932335Y537190D01*
X932318Y537156D01*
X932293Y537113D01*
X932259Y537096D01*
X932106Y536943D01*
X932072Y536926D01*
X932021Y536875D01*
X931944Y536867D01*
X931902Y536875D01*
X931783Y536807D01*
X931732Y536790D01*
X931681Y536807D01*
X931655Y536833D01*
X931672Y536986D01*
X931740Y537054D01*
X931757Y537156D01*
X931783Y537181D01*
X931808Y537190D01*
X931825Y537258D01*
X931842Y537309D01*
X931893Y537360D01*
X931936Y537470D01*
X931978Y537513D01*
X932021Y537606D01*
X932055Y537624D01*
X932072Y537691D01*
X932114Y537751D01*
X932148Y537785D01*
X932165Y537819D01*
X932233Y537887D01*
X932250Y537972D01*
X932403Y538125D01*
X932454Y538210D01*
X932514Y538321D01*
X932548Y538338D01*
X932574Y538363D01*
X932590Y538397D01*
X932727Y538533D01*
X932744Y538567D01*
X932803Y538610D01*
X932837Y538661D01*
X932871Y538678D01*
X932922Y538746D01*
X932956Y538763D01*
X933041Y538865D01*
X933092Y538916D01*
X933118Y538925D01*
X933135Y538959D01*
X933177Y539001D01*
X933203Y539010D01*
X933220Y539044D01*
X933245Y539069D01*
X933279Y539086D01*
X933322Y539146D01*
X933373Y539180D01*
X933390Y539214D01*
X933415Y539239D01*
X933449Y539256D01*
X933483Y539307D01*
X933517Y539324D01*
X933585Y539392D01*
X933671Y539443D01*
X933790Y539528D01*
X933823Y539562D01*
X933858Y539579D01*
X933883Y539605D01*
X933891Y539630D01*
X933977Y539681D01*
X934011Y539715D01*
X934096Y539732D01*
X934130Y539800D01*
X934206Y539843D01*
X934215Y539868D01*
X934283Y539885D01*
X934317Y539902D01*
X934368Y539953D01*
X934453Y540004D01*
X934487Y540038D01*
X934597Y540081D01*
X934640Y540124D01*
X934878Y540260D01*
X934963Y540294D01*
X934997Y540311D01*
X935048Y540362D01*
X935116Y540379D01*
X935167Y540396D01*
X935218Y540447D01*
X935320Y540464D01*
X935388Y540532D01*
X935490Y540549D01*
X935516Y540574D01*
X935533Y540608D01*
X935669Y540625D01*
X935711Y540668D01*
X935796Y540702D01*
X935898Y540719D01*
X935949Y540770D01*
X936017Y540787D01*
X936136Y540804D01*
X936187Y540855D01*
X936349Y540880D01*
X936460Y540940D01*
X936647Y540957D01*
X936698Y541008D01*
X936766Y541025D01*
X936953Y541042D01*
X936987Y541076D01*
X937106Y541110D01*
X937327Y541127D01*
X937361Y541161D01*
X937429Y541178D01*
X937599Y541195D01*
X937803Y541212D01*
X937888Y541246D01*
X938007Y541263D01*
X938305Y541271D01*
X938432Y541263D01*
X938483Y541280D01*
X938611Y541305D01*
X938679Y541323D01*
X938849Y541339D01*
X939810Y541348D01*
X939861Y541331D01*
X940065Y541314D01*
X940116Y541297D01*
X940184Y541280D01*
X940456Y541263D01*
X940898Y541246D01*
X941017Y541195D01*
X941409Y541178D01*
X941511Y541110D01*
X941800Y541093D01*
X941902Y541025D01*
X942157Y541008D01*
X942208Y540957D01*
X942446Y540923D01*
X942480Y540889D01*
X942548Y540872D01*
X942710Y540846D01*
X942769Y540787D01*
X942939Y540770D01*
X942990Y540719D01*
X943058Y540702D01*
X943143Y540685D01*
X943177Y540634D01*
X943245Y540617D01*
X943347Y540600D01*
X943398Y540549D01*
X943466Y540532D01*
X943551Y540515D01*
X943585Y540464D01*
X943721Y540430D01*
X943756Y540379D01*
X943857Y540362D01*
X943926Y540294D01*
X944028Y540277D01*
X944053Y540251D01*
X944062Y540226D01*
X944147Y540192D01*
X944198Y540140D01*
X944266Y540124D01*
X944308Y540098D01*
X944317Y540072D01*
X944402Y540038D01*
X944436Y540022D01*
X944470Y539988D01*
X944623Y539902D01*
X944708Y539851D01*
X944759Y539800D01*
X944946Y539698D01*
X945014Y539630D01*
X945048Y539613D01*
X945082Y539579D01*
X945201Y539511D01*
X945295Y539435D01*
X945303Y539409D01*
X945388Y539358D01*
X945422Y539324D01*
X945507Y539290D01*
X945575Y539222D01*
X945609Y539205D01*
X945635Y539180D01*
X945652Y539146D01*
X945703Y539112D01*
X945720Y539078D01*
X945779Y539018D01*
X945813Y539001D01*
X945890Y538941D01*
X945898Y538916D01*
X945932Y538899D01*
X945966Y538865D01*
X946000Y538848D01*
X946085Y538763D01*
X946119Y538746D01*
X946222Y538644D01*
X946255Y538627D01*
X946298Y538567D01*
X946519Y538346D01*
X946536Y538312D01*
X946604Y538244D01*
X946621Y538210D01*
X946672Y538159D01*
X946689Y538125D01*
X946774Y538040D01*
X946783Y538015D01*
X946817Y537998D01*
X946859Y537955D01*
X946876Y537921D01*
X946995Y537802D01*
X947046Y537717D01*
X947097Y537666D01*
X947123Y537606D01*
X947157Y537590D01*
X947199Y537530D01*
X947250Y537479D01*
X947267Y537445D01*
X947293Y537419D01*
X947318Y537411D01*
X947335Y537343D01*
X947361Y537283D01*
X947395Y537266D01*
X947463Y537164D01*
X947505Y537122D01*
X947591Y536969D01*
X947641Y536918D01*
X947659Y536884D01*
X947744Y536765D01*
X947761Y536714D01*
X947829Y536646D01*
X947846Y536561D01*
X947897Y536510D01*
X947914Y536476D01*
X947982Y536374D01*
X947999Y536306D01*
X948024Y536280D01*
X948058Y536263D01*
X948075Y536161D01*
X948152Y536084D01*
X948169Y536016D01*
X948220Y535965D01*
X948237Y535897D01*
X948305Y535795D01*
X948322Y535727D01*
X948390Y535625D01*
X948407Y535557D01*
X948509Y535370D01*
X948560Y535251D01*
X948577Y535183D01*
X948628Y535132D01*
X948662Y534996D01*
X948713Y534945D01*
X948730Y534843D01*
X948798Y534775D01*
X948815Y534622D01*
X948883Y534554D01*
X948900Y534418D01*
X948951Y534367D01*
X948968Y534299D01*
X948985Y534180D01*
X949036Y534129D01*
X949053Y534078D01*
X949036Y534027D01*
X949062Y533933D01*
X949104Y533890D01*
X949138Y533772D01*
X949155Y533635D01*
X949189Y533601D01*
X949206Y533533D01*
X949223Y533346D01*
X949274Y533227D01*
X949291Y533108D01*
X949308Y532921D01*
X949334Y532896D01*
X949376Y532938D01*
X949393Y533006D01*
X949376Y533840D01*
X949359Y534180D01*
X949325Y534265D01*
X949308Y534537D01*
X949291Y534605D01*
X949274Y534928D01*
X949240Y534962D01*
X949223Y535081D01*
X949206Y535370D01*
X949138Y535472D01*
X949121Y535778D01*
X949087Y535812D01*
X949053Y535897D01*
X949036Y536118D01*
X948985Y536169D01*
X948968Y536237D01*
X948951Y536408D01*
X948900Y536459D01*
X948883Y536527D01*
X948866Y536680D01*
X948832Y536714D01*
X948815Y536782D01*
X948790Y536892D01*
X948730Y537003D01*
X948713Y537139D01*
X948662Y537190D01*
X948645Y537258D01*
X948628Y537343D01*
X948577Y537394D01*
X948560Y537462D01*
X948543Y537547D01*
X948492Y537598D01*
X948475Y537751D01*
X948407Y537819D01*
X948381Y537913D01*
X948322Y538023D01*
X948305Y538074D01*
X948237Y538142D01*
X948220Y538244D01*
X948169Y538295D01*
X948152Y538397D01*
X948084Y538465D01*
X948067Y538567D01*
X948007Y538610D01*
X947990Y538712D01*
X947939Y538763D01*
X947914Y538771D01*
X947888Y538865D01*
X947846Y538907D01*
X947812Y538993D01*
X947761Y539044D01*
X947718Y539154D01*
X947676Y539197D01*
X947591Y539350D01*
X947505Y539435D01*
X947488Y539503D01*
X947403Y539622D01*
X947386Y539656D01*
X947352Y539690D01*
X947284Y539809D01*
X947233Y539860D01*
X947216Y539894D01*
X947182Y539928D01*
X947165Y539962D01*
X947114Y540047D01*
X947097Y540081D01*
X947072Y540124D01*
X947038Y540140D01*
X947012Y540166D01*
X946995Y540200D01*
X946927Y540268D01*
X946910Y540302D01*
X946859Y540353D01*
X946808Y540438D01*
X946732Y540532D01*
X946672Y540591D01*
X946655Y540625D01*
X946621Y540642D01*
X946604Y540676D01*
X946553Y540727D01*
X946536Y540761D01*
X946460Y540855D01*
X946400Y540948D01*
X946094Y541255D01*
X946085Y541280D01*
X946051Y541297D01*
X946009Y541357D01*
X945958Y541391D01*
X945941Y541425D01*
X945720Y541646D01*
X945711Y541671D01*
X945677Y541688D01*
X945635Y541731D01*
X945618Y541765D01*
X945558Y541824D01*
X945533Y541833D01*
X945516Y541867D01*
X945456Y541926D01*
X945422Y541943D01*
X945252Y542113D01*
X945227Y542122D01*
X945210Y542156D01*
X945184Y542181D01*
X945150Y542198D01*
X945107Y542258D01*
X945048Y542300D01*
X944844Y542505D01*
X944818Y542513D01*
X944801Y542547D01*
X944759Y542590D01*
X944725Y542606D01*
X944691Y542658D01*
X944606Y542709D01*
X944572Y542743D01*
X944487Y542794D01*
X944368Y542913D01*
X944334Y542930D01*
X944198Y543066D01*
X944164Y543083D01*
X944062Y543151D01*
X944028Y543168D01*
X943960Y543236D01*
X943926Y543253D01*
X943883Y543312D01*
X943789Y543372D01*
X943670Y543457D01*
X943636Y543491D01*
X943602Y543508D01*
X943551Y543559D01*
X943432Y543627D01*
X943347Y543678D01*
X943296Y543729D01*
X943262Y543746D01*
X943211Y543797D01*
X943126Y543831D01*
X943075Y543882D01*
X943041Y543899D01*
X942990Y543950D01*
X942880Y543993D01*
X942820Y544052D01*
X942786Y544069D01*
X942735Y544120D01*
X942667Y544137D01*
X942633Y544154D01*
X942582Y544205D01*
X942472Y544248D01*
X942429Y544290D01*
X942344Y544341D01*
X942259Y544375D01*
X942225Y544392D01*
X942157Y544460D01*
X942072Y544477D01*
X942021Y544528D01*
X941987Y544545D01*
X941944Y544588D01*
X941927Y544622D01*
X941876Y544673D01*
X941893Y544826D01*
X941919Y544851D01*
X942114Y544877D01*
X942191Y544919D01*
X942412Y544936D01*
X942599Y544919D01*
D02*
G37*
G36*
X937718Y534154D02*
X937769Y534103D01*
X937837Y534086D01*
X938092Y534069D01*
X938126Y534035D01*
X938245Y534001D01*
X938381Y533984D01*
X938432Y533933D01*
X938551Y533916D01*
X938594Y533890D01*
X938602Y533865D01*
X938671Y533848D01*
X938764Y533822D01*
X938789Y533797D01*
X938875Y533763D01*
X939096Y533644D01*
X939130Y533610D01*
X939198Y533593D01*
X939240Y533567D01*
X939257Y533533D01*
X939385Y533474D01*
X939419Y533440D01*
X939495Y533397D01*
X939512Y533363D01*
X939572Y533321D01*
X939623Y533270D01*
X939708Y533219D01*
X939801Y533142D01*
X939827Y533117D01*
X939861Y533100D01*
X940116Y532845D01*
X940141Y532836D01*
X940193Y532751D01*
X940244Y532700D01*
X940261Y532666D01*
X940295Y532632D01*
X940346Y532547D01*
X940397Y532496D01*
X940414Y532462D01*
X940448Y532428D01*
X940465Y532394D01*
X940575Y532232D01*
X940635Y532173D01*
X940652Y532054D01*
X940720Y532003D01*
X940737Y531901D01*
X940805Y531850D01*
X940822Y531731D01*
X940847Y531705D01*
X940873Y531697D01*
X940907Y531561D01*
X940958Y531510D01*
X940975Y531340D01*
X941043Y531238D01*
X941060Y531050D01*
X941128Y530948D01*
X941145Y530591D01*
X941196Y530472D01*
X941213Y529894D01*
X941196Y529571D01*
X941179Y529537D01*
X941128Y529418D01*
X941111Y529095D01*
X941060Y529044D01*
X941043Y528976D01*
X941026Y528771D01*
X940975Y528720D01*
X940958Y528652D01*
X940941Y528533D01*
X940907Y528499D01*
X940873Y528380D01*
X940856Y528329D01*
X940805Y528278D01*
X940788Y528159D01*
X940737Y528125D01*
X940720Y528057D01*
X940669Y527972D01*
X940584Y527819D01*
X940558Y527760D01*
X940550Y527751D01*
X940524Y527726D01*
X940490Y527709D01*
X940439Y527606D01*
X940371Y527504D01*
X940295Y527428D01*
X940278Y527394D01*
X940227Y527343D01*
X940210Y527309D01*
X940176Y527275D01*
X940158Y527241D01*
X940099Y527164D01*
X940065Y527147D01*
X940022Y527088D01*
X939878Y526943D01*
X939844Y526926D01*
X939759Y526841D01*
X939725Y526824D01*
X939631Y526748D01*
X939529Y526663D01*
X939487Y526620D01*
X939334Y526535D01*
X939240Y526459D01*
X939215Y526433D01*
X939104Y526407D01*
X939045Y526348D01*
X938951Y526323D01*
X938892Y526263D01*
X938772Y526246D01*
X938747Y526220D01*
X938730Y526186D01*
X938628Y526169D01*
X938568Y526144D01*
X938534Y526110D01*
X938466Y526093D01*
X938347Y526076D01*
X938296Y526025D01*
X938228Y526008D01*
X938058Y525991D01*
X937939Y525940D01*
X937820Y525923D01*
X937769Y525940D01*
X937591Y525897D01*
X937497Y525855D01*
X936562Y525872D01*
X936443Y525923D01*
X936136Y525940D01*
X936034Y526008D01*
X935813Y526025D01*
X935711Y526093D01*
X935575Y526110D01*
X935524Y526161D01*
X935456Y526178D01*
X935371Y526195D01*
X935303Y526263D01*
X935201Y526280D01*
X935150Y526331D01*
X935056Y526357D01*
X934997Y526416D01*
X934929Y526433D01*
X934878Y526484D01*
X934810Y526501D01*
X934776Y526518D01*
X934725Y526586D01*
X934555Y526688D01*
X934504Y526739D01*
X934470Y526756D01*
X934317Y526909D01*
X934283Y526926D01*
X934249Y526977D01*
X934215Y526994D01*
X934019Y527190D01*
X934002Y527224D01*
X933883Y527343D01*
X933866Y527377D01*
X933840Y527402D01*
X933807Y527419D01*
X933755Y527504D01*
X933730Y527513D01*
X933687Y527624D01*
X933653Y527640D01*
X933628Y527666D01*
X933611Y527700D01*
X933543Y527768D01*
X933526Y527870D01*
X933500Y527896D01*
X933475Y527904D01*
X933432Y528015D01*
X933407Y528040D01*
X933322Y528193D01*
X933288Y528278D01*
X933271Y528329D01*
X933220Y528448D01*
X933194Y528542D01*
X933152Y528584D01*
X933135Y528652D01*
X933118Y528789D01*
X933067Y528839D01*
X933050Y528907D01*
X933033Y529112D01*
X932999Y529146D01*
X932982Y529214D01*
X932965Y529384D01*
X932948Y529809D01*
X932931Y529860D01*
X932948Y530217D01*
X932965Y530268D01*
X932982Y530829D01*
X933050Y530931D01*
X933067Y531152D01*
X933135Y531254D01*
X933152Y531425D01*
X933220Y531493D01*
X933237Y531646D01*
X933271Y531663D01*
X933288Y531731D01*
X933330Y531841D01*
X933356Y531867D01*
X933398Y531977D01*
X933441Y532020D01*
X933475Y532105D01*
X933526Y532156D01*
X933543Y532224D01*
X933560Y532275D01*
X933611Y532309D01*
X933679Y532428D01*
X933764Y532547D01*
X933866Y532649D01*
X933883Y532683D01*
X933934Y532734D01*
X933951Y532768D01*
X933985Y532802D01*
X934002Y532836D01*
X934266Y533100D01*
X934300Y533117D01*
X934334Y533151D01*
X934368Y533168D01*
X934453Y533253D01*
X934487Y533270D01*
X934572Y533355D01*
X934606Y533372D01*
X934640Y533406D01*
X934725Y533440D01*
X934793Y533508D01*
X934827Y533525D01*
X934929Y533593D01*
X934997Y533610D01*
X935023Y533635D01*
X935040Y533669D01*
X935141Y533686D01*
X935201Y533746D01*
X935337Y533780D01*
X935371Y533831D01*
X935490Y533848D01*
X935516Y533874D01*
X935524Y533899D01*
X935592Y533916D01*
X935728Y533933D01*
X935779Y533984D01*
X935847Y534001D01*
X936000Y534018D01*
X936085Y534069D01*
X936153Y534086D01*
X936392Y534103D01*
X936511Y534154D01*
X936630Y534171D01*
X937718Y534154D01*
D02*
G37*
G36*
X941434Y575880D02*
X941477Y575872D01*
X941528Y575889D01*
X941698Y575872D01*
X941800Y575804D01*
X941953Y575787D01*
X942004Y575736D01*
X942097Y575710D01*
X942157Y575651D01*
X942225Y575634D01*
X942259Y575617D01*
X942284Y575591D01*
X942301Y575557D01*
X942480Y575430D01*
X942514Y575396D01*
X942548Y575379D01*
X942676Y575251D01*
X942693Y575217D01*
X942744Y575166D01*
X942778Y575081D01*
X942846Y575013D01*
X942965Y574792D01*
X943016Y574673D01*
X943033Y574588D01*
X943067Y574554D01*
X943084Y574486D01*
X943101Y574299D01*
X943152Y574214D01*
X943169Y574146D01*
X943152Y573737D01*
X943101Y573618D01*
X943084Y573550D01*
X943067Y573380D01*
X943016Y573329D01*
X942990Y573185D01*
X942948Y573125D01*
X942829Y572904D01*
X942778Y572853D01*
X942761Y572819D01*
X942676Y572734D01*
X942659Y572666D01*
X942633Y572641D01*
X942599Y572623D01*
X942497Y572521D01*
X942463Y572505D01*
X942378Y572419D01*
X942344Y572402D01*
X942310Y572368D01*
X942276Y572351D01*
X942225Y572300D01*
X942157Y572283D01*
X942089Y572215D01*
X942004Y572198D01*
X941953Y572147D01*
X941834Y572130D01*
X941783Y572113D01*
X941732Y572062D01*
X941613Y572045D01*
X941426Y572028D01*
X941374Y572011D01*
X941230Y571986D01*
X941136Y571977D01*
X941085Y571994D01*
X941000Y572028D01*
X940932Y572045D01*
X940660Y572062D01*
X940592Y572130D01*
X940465Y572139D01*
X940456Y572147D01*
X940422Y572164D01*
X940388Y572198D01*
X940320Y572215D01*
X940269Y572232D01*
X940201Y572300D01*
X940150Y572317D01*
X940116Y572351D01*
X939997Y572419D01*
X939648Y572768D01*
X939631Y572802D01*
X939597Y572836D01*
X939555Y572947D01*
X939521Y572964D01*
X939427Y573142D01*
X939410Y573210D01*
X939393Y573244D01*
X939359Y573278D01*
X939342Y573346D01*
X939325Y573482D01*
X939274Y573567D01*
X939257Y573635D01*
X939274Y574401D01*
X939308Y574435D01*
X939342Y574520D01*
X939359Y574656D01*
X939410Y574707D01*
X939427Y574826D01*
X939461Y574860D01*
X939478Y574894D01*
X939529Y574979D01*
X939563Y575013D01*
X939631Y575132D01*
X939708Y575226D01*
X939767Y575285D01*
X939776Y575311D01*
X939810Y575328D01*
X939844Y575379D01*
X939878Y575396D01*
X939963Y575481D01*
X939997Y575498D01*
X940048Y575549D01*
X940133Y575600D01*
X940167Y575634D01*
X940261Y575676D01*
X940269Y575702D01*
X940405Y575736D01*
X940456Y575787D01*
X940524Y575804D01*
X940643Y575821D01*
X940694Y575872D01*
X940813Y575889D01*
X941298Y575897D01*
X941434Y575880D01*
D02*
G37*
G36*
X949181Y575549D02*
X949223Y575506D01*
X949232Y575481D01*
X949300Y575464D01*
X949351Y575447D01*
X949402Y575396D01*
X949470Y575379D01*
X949521Y575328D01*
X949589Y575311D01*
X949614Y575285D01*
X949631Y575251D01*
X949657Y575226D01*
X949759Y575209D01*
X949793Y575157D01*
X949878Y575106D01*
X949912Y575072D01*
X950006Y575047D01*
X950048Y574988D01*
X950082Y574970D01*
X950184Y574902D01*
X950269Y574851D01*
X950303Y574817D01*
X950337Y574800D01*
X950405Y574732D01*
X950558Y574647D01*
X950626Y574579D01*
X950660Y574562D01*
X950686Y574537D01*
X950694Y574511D01*
X950728Y574494D01*
X950796Y574426D01*
X950881Y574375D01*
X950915Y574341D01*
X950949Y574324D01*
X951017Y574256D01*
X951051Y574239D01*
X951119Y574171D01*
X951153Y574154D01*
X951196Y574095D01*
X951247Y574061D01*
X951264Y574027D01*
X951289Y574001D01*
X951349Y573976D01*
X951366Y573942D01*
X951392Y573916D01*
X951426Y573899D01*
X951528Y573797D01*
X951562Y573780D01*
X951834Y573508D01*
X951868Y573491D01*
X951893Y573465D01*
X951910Y573431D01*
X952012Y573329D01*
X952021Y573304D01*
X952055Y573287D01*
X952097Y573227D01*
X952165Y573159D01*
X952182Y573125D01*
X952301Y573006D01*
X952318Y572972D01*
X952361Y572930D01*
X952386Y572921D01*
X952403Y572887D01*
X952625Y572666D01*
X952676Y572581D01*
X952837Y572368D01*
X952897Y572309D01*
X952914Y572275D01*
X952965Y572224D01*
X953016Y572139D01*
X953092Y572045D01*
X953118Y572020D01*
X953135Y571986D01*
X953203Y571918D01*
X953220Y571850D01*
X953288Y571782D01*
X953305Y571748D01*
X953356Y571697D01*
X953373Y571663D01*
X953458Y571544D01*
X953475Y571493D01*
X953543Y571424D01*
X953560Y571356D01*
X953611Y571306D01*
X953628Y571254D01*
X953713Y571135D01*
X953730Y571101D01*
X953764Y571067D01*
X953815Y570982D01*
X953849Y570948D01*
X953866Y570880D01*
X953883Y570846D01*
X953951Y570778D01*
X953968Y570710D01*
X954002Y570676D01*
X954070Y570557D01*
X954104Y570472D01*
X954121Y570438D01*
X954189Y570370D01*
X954206Y570268D01*
X954232Y570243D01*
X954257Y570234D01*
X954300Y570123D01*
X954359Y570013D01*
X954376Y569979D01*
X954495Y569758D01*
X954529Y569673D01*
X954597Y569520D01*
X954614Y569469D01*
X954682Y569401D01*
X954699Y569282D01*
X954750Y569248D01*
X954767Y569129D01*
X954835Y569061D01*
X954861Y568933D01*
X954903Y568890D01*
X954920Y568822D01*
X954937Y568720D01*
X955005Y568652D01*
X955023Y568516D01*
X955091Y568448D01*
X955107Y568295D01*
X955159Y568244D01*
X955176Y568176D01*
X955193Y568057D01*
X955244Y568006D01*
X955261Y567887D01*
X955278Y567819D01*
X955329Y567768D01*
X955346Y567598D01*
X955397Y567547D01*
X955414Y567479D01*
X955431Y567309D01*
X955482Y567258D01*
X955499Y567190D01*
X955516Y567020D01*
X955550Y566986D01*
X955584Y566867D01*
X955601Y566697D01*
X955652Y566578D01*
X955669Y566357D01*
X955737Y566255D01*
X955754Y565982D01*
X955822Y565829D01*
X955839Y565506D01*
X955873Y565472D01*
X955890Y565404D01*
X955907Y565285D01*
X955924Y564911D01*
X955958Y564877D01*
X955975Y564809D01*
X955992Y564180D01*
X956009Y563993D01*
X956026Y563941D01*
X956043Y563873D01*
X956060Y563550D01*
X956043Y562479D01*
X956026Y562428D01*
X955992Y562190D01*
X955975Y561561D01*
X955958Y561510D01*
X955924Y561424D01*
X955907Y561356D01*
X955890Y560948D01*
X955822Y560795D01*
X955805Y560472D01*
X955771Y560438D01*
X955737Y560353D01*
X955720Y560081D01*
X955686Y560047D01*
X955669Y559979D01*
X955652Y559758D01*
X955584Y559656D01*
X955567Y559401D01*
X955516Y559350D01*
X955499Y559282D01*
X955482Y559129D01*
X955431Y559078D01*
X955414Y559010D01*
X955397Y558840D01*
X955363Y558806D01*
X955329Y558720D01*
X955312Y558567D01*
X955261Y558482D01*
X955235Y558338D01*
X955176Y558278D01*
X955159Y558125D01*
X955133Y558083D01*
X955107Y558074D01*
X955091Y558006D01*
X955074Y557887D01*
X955005Y557819D01*
X954988Y557666D01*
X954937Y557615D01*
X954920Y557547D01*
X954903Y557462D01*
X954878Y557436D01*
X954852Y557428D01*
X954827Y557283D01*
X954784Y557258D01*
X954767Y557190D01*
X954750Y557088D01*
X954682Y557020D01*
X954665Y556918D01*
X954614Y556867D01*
X954580Y556731D01*
X954512Y556663D01*
X954495Y556561D01*
X954427Y556510D01*
X954410Y556390D01*
X954359Y556356D01*
X954342Y556288D01*
X954334Y556229D01*
X954300Y556212D01*
X954274Y556186D01*
X954257Y556084D01*
X954232Y556059D01*
X954206Y556050D01*
X954189Y555982D01*
X954172Y555931D01*
X954104Y555863D01*
X954087Y555795D01*
X954053Y555761D01*
X954011Y555651D01*
X953977Y555634D01*
X953951Y555608D01*
X953934Y555506D01*
X953909Y555481D01*
X953874Y555464D01*
X953815Y555336D01*
X953781Y555302D01*
X953764Y555268D01*
X953696Y555166D01*
X953679Y555098D01*
X953628Y555047D01*
X953611Y555013D01*
X953543Y554945D01*
X953526Y554860D01*
X953500Y554834D01*
X953475Y554826D01*
X953424Y554741D01*
X953390Y554707D01*
X953322Y554588D01*
X953245Y554494D01*
X953220Y554469D01*
X953186Y554384D01*
X953152Y554350D01*
X953101Y554265D01*
X953033Y554197D01*
X953016Y554163D01*
X952965Y554112D01*
X952948Y554061D01*
X952897Y554010D01*
X952854Y553933D01*
X952820Y553916D01*
X952778Y553857D01*
X952752Y553831D01*
X952727Y553823D01*
X952676Y553737D01*
X952641Y553703D01*
X952625Y553669D01*
X952590Y553635D01*
X952573Y553601D01*
X952497Y553508D01*
X952386Y553397D01*
X952369Y553363D01*
X952310Y553321D01*
X952267Y553261D01*
X952216Y553210D01*
X952199Y553176D01*
X952148Y553125D01*
X952131Y553091D01*
X952029Y552989D01*
X952012Y552955D01*
X951893Y552836D01*
X951876Y552802D01*
X951817Y552760D01*
X951774Y552700D01*
X951749Y552674D01*
X951715Y552658D01*
X951672Y552615D01*
X951655Y552581D01*
X951630Y552556D01*
X951596Y552538D01*
X951570Y552513D01*
X951553Y552479D01*
X951528Y552453D01*
X951494Y552436D01*
X951272Y552215D01*
X951247Y552207D01*
X951230Y552173D01*
X951171Y552130D01*
X951102Y552062D01*
X951068Y552045D01*
X951017Y551994D01*
X950932Y551943D01*
X950898Y551892D01*
X950864Y551875D01*
X950694Y551705D01*
X950669Y551697D01*
X950652Y551663D01*
X950626Y551637D01*
X950507Y551569D01*
X950414Y551493D01*
X950354Y551450D01*
X950252Y551348D01*
X950218Y551331D01*
X950124Y551255D01*
X950039Y551220D01*
X950023Y551186D01*
X949980Y551144D01*
X949946Y551127D01*
X949895Y551076D01*
X949827Y551059D01*
X949759Y550991D01*
X949674Y550940D01*
X949640Y550906D01*
X949606Y550889D01*
X949572Y550855D01*
X949538Y550838D01*
X949453Y550787D01*
X949436Y550753D01*
X949351Y550719D01*
X949317Y550685D01*
X949249Y550668D01*
X949164Y550583D01*
X948977Y550481D01*
X948926Y550430D01*
X948815Y550387D01*
X948773Y550345D01*
X948551Y550226D01*
X948534Y550191D01*
X948466Y550175D01*
X948415Y550157D01*
X948364Y550106D01*
X948254Y550081D01*
X948194Y550022D01*
X948126Y550004D01*
X948092Y549988D01*
X948067Y549962D01*
X948058Y549936D01*
X947990Y549919D01*
X947939Y549902D01*
X947905Y549868D01*
X947837Y549851D01*
X947752Y549800D01*
X947718Y549766D01*
X947616Y549749D01*
X947565Y549698D01*
X947497Y549681D01*
X947412Y549630D01*
X947344Y549596D01*
X947310Y549613D01*
X947216Y549537D01*
X947131Y549520D01*
X947072Y549494D01*
X947021Y549443D01*
X946885Y549426D01*
X946859Y549401D01*
X946851Y549375D01*
X946783Y549358D01*
X946698Y549341D01*
X946647Y549290D01*
X946494Y549273D01*
X946391Y549205D01*
X946255Y549171D01*
X946222Y549137D01*
X946153Y549120D01*
X946034Y549103D01*
X945983Y549052D01*
X945915Y549035D01*
X945779Y549018D01*
X945728Y548967D01*
X945660Y548950D01*
X945507Y548933D01*
X945456Y548882D01*
X945218Y548848D01*
X945167Y548797D01*
X945048Y548780D01*
X944912Y548763D01*
X944861Y548712D01*
X944733Y548703D01*
X944674Y548712D01*
X944623Y548695D01*
X944470Y548627D01*
X944215Y548610D01*
X944164Y548559D01*
X944045Y548542D01*
X943806Y548525D01*
X943688Y548474D01*
X943568Y548457D01*
X943262Y548440D01*
X943143Y548389D01*
X942718Y548372D01*
X942531Y548355D01*
X942446Y548321D01*
X942327Y548304D01*
X941885D01*
X941332Y548295D01*
X940932Y548304D01*
X940881Y548287D01*
X940813Y548304D01*
X939980Y548321D01*
X939895Y548355D01*
X939827Y548372D01*
X939266Y548389D01*
X939113Y548457D01*
X938721Y548474D01*
X938688Y548508D01*
X938568Y548542D01*
X938262Y548559D01*
X938211Y548610D01*
X938143Y548627D01*
X937905Y548644D01*
X937786Y548695D01*
X937718Y548712D01*
X937607Y548703D01*
X937548Y548729D01*
X937514Y548763D01*
X937446Y548780D01*
X937259Y548797D01*
X937208Y548848D01*
X937140Y548865D01*
X936953Y548882D01*
X936902Y548933D01*
X936834Y548950D01*
X936698Y548967D01*
X936647Y549018D01*
X936579Y549035D01*
X936443Y549052D01*
X936392Y549103D01*
X936324Y549120D01*
X936205Y549137D01*
X936153Y549188D01*
X936000Y549205D01*
X935949Y549256D01*
X935881Y549273D01*
X935779Y549290D01*
X935711Y549358D01*
X935575Y549375D01*
X935524Y549426D01*
X935456Y549443D01*
X935354Y549460D01*
X935312Y549520D01*
X935184Y549545D01*
X935150Y549596D01*
X935082Y549613D01*
X934997Y549630D01*
X934963Y549664D01*
X934895Y549681D01*
X934810Y549732D01*
X934725Y549766D01*
X934657Y549783D01*
X934606Y549834D01*
X934538Y549851D01*
X934504Y549868D01*
X934453Y549919D01*
X934317Y549953D01*
X934266Y550004D01*
X934215Y550022D01*
X934147Y550090D01*
X934045Y550106D01*
X934019Y550132D01*
X934002Y550166D01*
X933917Y550183D01*
X933883Y550200D01*
X933866Y550234D01*
X933840Y550260D01*
X933739Y550277D01*
X933671Y550345D01*
X933585Y550396D01*
X933534Y550413D01*
X933475Y550438D01*
X933458Y550472D01*
X933432Y550498D01*
X933347Y550515D01*
X933296Y550566D01*
X933211Y550617D01*
X933177Y550651D01*
X933084Y550676D01*
X933050Y550710D01*
X933041Y550736D01*
X932803Y550872D01*
X932769Y550923D01*
X932735Y550940D01*
X932616Y551008D01*
X932582Y551042D01*
X932497Y551093D01*
X932463Y551144D01*
X932344Y551212D01*
X932250Y551255D01*
X932233Y551289D01*
X932208Y551314D01*
X932174Y551331D01*
X932106Y551399D01*
X932072Y551416D01*
X932021Y551467D01*
X931936Y551518D01*
X931902Y551552D01*
X931868Y551569D01*
X931783Y551654D01*
X931757Y551663D01*
X931740Y551697D01*
X931715Y551722D01*
X931681Y551739D01*
X931613Y551807D01*
X931528Y551858D01*
X931434Y551935D01*
X931392Y551977D01*
X931357Y551994D01*
X931051Y552300D01*
X931026Y552309D01*
X931009Y552343D01*
X930966Y552385D01*
X930932Y552402D01*
X930898Y552453D01*
X930864Y552470D01*
X930754Y552581D01*
X930745Y552606D01*
X930711Y552624D01*
X930533Y552802D01*
X930516Y552836D01*
X930473Y552879D01*
X930448Y552887D01*
X930431Y552921D01*
X930320Y553032D01*
X930286Y553049D01*
X930252Y553100D01*
X930218Y553117D01*
X930176Y553176D01*
X930150Y553202D01*
X930116Y553219D01*
X930031Y553321D01*
X929988Y553380D01*
X929937Y553431D01*
X929920Y553465D01*
X929869Y553516D01*
X929818Y553601D01*
X929784Y553635D01*
X929767Y553669D01*
X929742Y553695D01*
X929716Y553703D01*
X929699Y553737D01*
X929657Y553780D01*
X929631Y553789D01*
X929580Y553873D01*
X929546Y553907D01*
X929495Y553993D01*
X929410Y554112D01*
X929359Y554163D01*
X929342Y554197D01*
X929291Y554248D01*
X929240Y554333D01*
X929181Y554426D01*
X929147Y554443D01*
X929104Y554503D01*
X929070Y554537D01*
X929002Y554656D01*
X928917Y554775D01*
X928773Y554987D01*
X928730Y555030D01*
X928704Y555124D01*
X928645Y555183D01*
X928594Y555268D01*
X928534Y555396D01*
X928500Y555413D01*
X928449Y555515D01*
X928407Y555557D01*
X928373Y555642D01*
X928322Y555693D01*
X928305Y555795D01*
X928279Y555821D01*
X928254Y555829D01*
X928203Y555965D01*
X928169Y555999D01*
X928033Y556254D01*
X927948Y556407D01*
X927914Y556493D01*
X927744Y556850D01*
X927658Y557037D01*
X927641Y557105D01*
X927590Y557139D01*
X927573Y557207D01*
X927557Y557292D01*
X927505Y557343D01*
X927489Y557462D01*
X927421Y557530D01*
X927403Y557666D01*
X927378Y557691D01*
X927352Y557700D01*
X927335Y557768D01*
X927318Y557887D01*
X927284Y557921D01*
X927250Y558057D01*
X927233Y558108D01*
X927199Y558142D01*
X927182Y558210D01*
X927165Y558329D01*
X927140Y558355D01*
X927114Y558363D01*
X927097Y558431D01*
X927080Y558584D01*
X927029Y558635D01*
X927012Y558703D01*
X926995Y558856D01*
X926961Y558890D01*
X926927Y559010D01*
X926910Y559163D01*
X926859Y559214D01*
X926842Y559333D01*
X926825Y559469D01*
X926791Y559503D01*
X926774Y559571D01*
X926740Y559809D01*
X926689Y559894D01*
X926672Y560166D01*
X926621Y560251D01*
X926604Y560319D01*
X926587Y560625D01*
X926553Y560659D01*
X926519Y560795D01*
X926502Y561169D01*
X926451Y561288D01*
X926434Y561867D01*
X926408Y561977D01*
X926383Y562071D01*
X926366Y562139D01*
X926383Y564435D01*
X926417Y564520D01*
X926434Y564588D01*
X926451Y565149D01*
X926519Y565302D01*
X926536Y565693D01*
X926587Y565812D01*
X926604Y565880D01*
X926621Y566169D01*
X926672Y566220D01*
X926689Y566289D01*
X926706Y566527D01*
X926757Y566578D01*
X926774Y566799D01*
X926791Y566884D01*
X926842Y566935D01*
X926859Y567156D01*
X926910Y567207D01*
X926927Y567275D01*
X926944Y567445D01*
X927012Y567513D01*
X927029Y567700D01*
X927080Y567751D01*
X927106Y567913D01*
X927165Y568023D01*
X927182Y568091D01*
X927199Y568193D01*
X927250Y568227D01*
X927267Y568397D01*
X927335Y568465D01*
X927352Y568601D01*
X927403Y568635D01*
X927421Y568703D01*
X927437Y568806D01*
X927489Y568856D01*
X927522Y568993D01*
X927590Y569061D01*
X927599Y569188D01*
X927633Y569205D01*
X927658Y569231D01*
X927676Y569350D01*
X927744Y569418D01*
X927761Y569520D01*
X927795Y569554D01*
X927829Y569639D01*
X927880Y569724D01*
X928118Y570183D01*
X928203Y570336D01*
X928237Y570370D01*
X928254Y570472D01*
X928313Y570515D01*
X928330Y570600D01*
X928373Y570659D01*
X928449Y570753D01*
X928475Y570778D01*
X928500Y570872D01*
X928560Y570931D01*
X928662Y571118D01*
X928713Y571169D01*
X928755Y571280D01*
X928798Y571322D01*
X928823Y571382D01*
X928858Y571399D01*
X928883Y571424D01*
X928926Y571535D01*
X928968Y571578D01*
X928985Y571612D01*
X929036Y571646D01*
X929079Y571756D01*
X929138Y571816D01*
X929155Y571850D01*
X929189Y571884D01*
X929206Y571918D01*
X929291Y572037D01*
X929308Y572071D01*
X929385Y572164D01*
X929478Y572258D01*
X929563Y572411D01*
X929614Y572462D01*
X929631Y572496D01*
X929716Y572581D01*
X929733Y572615D01*
X929784Y572649D01*
X929801Y572683D01*
X929886Y572802D01*
X929903Y572836D01*
X929955Y572887D01*
X929972Y572921D01*
X930193Y573142D01*
X930210Y573176D01*
X930235Y573202D01*
X930269Y573219D01*
X930312Y573278D01*
X930380Y573346D01*
X930388Y573372D01*
X930422Y573389D01*
X930465Y573448D01*
X930601Y573584D01*
X930618Y573618D01*
X930813Y573814D01*
X930839Y573822D01*
X930856Y573856D01*
X930915Y573916D01*
X930949Y573933D01*
X931034Y574018D01*
X931068Y574035D01*
X931136Y574103D01*
X931162Y574112D01*
X931179Y574146D01*
X931205Y574171D01*
X931238Y574188D01*
X931460Y574409D01*
X931494Y574426D01*
X931562Y574494D01*
X931647Y574545D01*
X931740Y574605D01*
X931757Y574639D01*
X931783Y574664D01*
X931817Y574681D01*
X931902Y574766D01*
X931936Y574783D01*
X932148Y574928D01*
X932208Y574988D01*
X932242Y575004D01*
X932276Y575038D01*
X932361Y575072D01*
X932429Y575140D01*
X932463Y575157D01*
X932531Y575226D01*
X932616Y575243D01*
X932684Y575311D01*
X932718Y575328D01*
X932752Y575362D01*
X932837Y575396D01*
X932871Y575413D01*
X932939Y575481D01*
X933016Y575489D01*
X933050Y575404D01*
X933033Y575200D01*
X932982Y575149D01*
X932914Y575030D01*
X932880Y574996D01*
X932863Y574962D01*
X932752Y574851D01*
X932718Y574834D01*
X932658Y574775D01*
X932642Y574741D01*
X932616Y574715D01*
X932590Y574707D01*
X932574Y574673D01*
X932386Y574486D01*
X932378Y574460D01*
X932344Y574443D01*
X932301Y574384D01*
X932233Y574316D01*
X932216Y574282D01*
X931961Y574027D01*
X931944Y573993D01*
X931910Y573959D01*
X931893Y573924D01*
X931774Y573771D01*
X931740Y573737D01*
X931723Y573703D01*
X931672Y573669D01*
X931655Y573635D01*
X931570Y573516D01*
X931545Y573457D01*
X931519Y573448D01*
X931502Y573414D01*
X931417Y573329D01*
X931400Y573295D01*
X931349Y573244D01*
X931332Y573176D01*
X931315Y573142D01*
X931247Y573074D01*
X931230Y573040D01*
X931179Y572989D01*
X931145Y572904D01*
X931111Y572870D01*
X931094Y572836D01*
X931051Y572777D01*
X931026Y572768D01*
X931009Y572700D01*
X930992Y572649D01*
X930924Y572581D01*
X930907Y572530D01*
X930856Y572479D01*
X930839Y572411D01*
X930796Y572368D01*
X930771Y572360D01*
X930754Y572241D01*
X930728Y572215D01*
X930694Y572198D01*
X930652Y572088D01*
X930601Y572037D01*
X930584Y571969D01*
X930550Y571935D01*
X930516Y571850D01*
X930499Y571816D01*
X930431Y571714D01*
X930414Y571646D01*
X930363Y571595D01*
X930337Y571501D01*
X930278Y571390D01*
X930261Y571322D01*
X930210Y571272D01*
X930176Y571135D01*
X930107Y571033D01*
X930091Y570931D01*
X930031Y570889D01*
X930014Y570736D01*
X929980Y570719D01*
X929955Y570693D01*
X929937Y570557D01*
X929869Y570489D01*
X929852Y570319D01*
X929784Y570251D01*
X929767Y570098D01*
X929716Y570047D01*
X929699Y569979D01*
X929682Y569860D01*
X929648Y569826D01*
X929614Y569707D01*
X929597Y569571D01*
X929546Y569520D01*
X929529Y569418D01*
X929546Y569384D01*
X929504Y569290D01*
X929478Y569282D01*
X929461Y569214D01*
X929444Y569010D01*
X929376Y568941D01*
X929359Y568669D01*
X929308Y568618D01*
X929291Y568499D01*
X929274Y568295D01*
X929240Y568261D01*
X929206Y568176D01*
X929189Y567836D01*
X929155Y567802D01*
X929138Y567734D01*
X929121Y567615D01*
X929130Y567556D01*
X929113Y567334D01*
X929053Y567190D01*
X929036Y566595D01*
X929019Y566544D01*
X928985Y566407D01*
X928968Y566289D01*
X928985Y564554D01*
X929019Y564469D01*
X929036Y564350D01*
X929053Y563925D01*
X929070Y563755D01*
X929104Y563720D01*
X929121Y563652D01*
X929138Y563278D01*
X929206Y563125D01*
X929223Y562836D01*
X929291Y562734D01*
X929308Y562479D01*
X929342Y562445D01*
X929376Y562360D01*
X929393Y562156D01*
X929444Y562105D01*
X929461Y562037D01*
X929478Y561850D01*
X929529Y561799D01*
X929546Y561714D01*
X929529Y561663D01*
X929580Y561578D01*
X929614Y561544D01*
X929631Y561356D01*
X929699Y561288D01*
X929716Y561118D01*
X929767Y561067D01*
X929784Y560999D01*
X929801Y560897D01*
X929869Y560829D01*
X929886Y560693D01*
X929937Y560642D01*
X929955Y560523D01*
X929972Y560489D01*
X930023Y560438D01*
X930040Y560302D01*
X930099Y560277D01*
X930116Y560141D01*
X930176Y560081D01*
X930201Y559970D01*
X930244Y559911D01*
X930278Y559826D01*
X930295Y559758D01*
X930363Y559690D01*
X930380Y559605D01*
X930567Y559248D01*
X930601Y559214D01*
X930618Y559129D01*
X930669Y559078D01*
X930703Y558993D01*
X930754Y558959D01*
X930771Y558840D01*
X930839Y558772D01*
X930941Y558584D01*
X930992Y558533D01*
X931009Y558465D01*
X931026Y558431D01*
X931094Y558363D01*
X931196Y558176D01*
X931230Y558142D01*
X931298Y558023D01*
X931383Y557904D01*
X931417Y557870D01*
X931434Y557802D01*
X931485Y557751D01*
X931502Y557717D01*
X931528Y557675D01*
X931562Y557657D01*
X931604Y557598D01*
X931638Y557564D01*
X931706Y557445D01*
X931740Y557411D01*
X931757Y557377D01*
X931825Y557309D01*
X931842Y557275D01*
X931944Y557173D01*
X931961Y557139D01*
X932029Y557020D01*
X932233Y556816D01*
X932250Y556782D01*
X932301Y556748D01*
X932318Y556714D01*
X932403Y556629D01*
X932421Y556595D01*
X932489Y556527D01*
X932506Y556493D01*
X932574Y556425D01*
X932582Y556399D01*
X932616Y556382D01*
X932642Y556356D01*
X932658Y556322D01*
X932956Y556025D01*
X932990Y556008D01*
X933109Y555889D01*
X933143Y555872D01*
X933245Y555770D01*
X933279Y555753D01*
X933415Y555617D01*
X933449Y555600D01*
X933653Y555396D01*
X933772Y555328D01*
X933866Y555251D01*
X933960Y555158D01*
X934045Y555106D01*
X934079Y555072D01*
X934130Y555056D01*
X934274Y554945D01*
X934283Y554919D01*
X934368Y554868D01*
X934402Y554834D01*
X934487Y554800D01*
X934538Y554749D01*
X934623Y554698D01*
X934742Y554630D01*
X934793Y554579D01*
X934861Y554562D01*
X934895Y554528D01*
X935005Y554469D01*
X935023Y554435D01*
X935133Y554392D01*
X935184Y554341D01*
X935252Y554324D01*
X935286Y554307D01*
X935388Y554239D01*
X935439Y554222D01*
X935473Y554188D01*
X935558Y554154D01*
X935609Y554103D01*
X935720Y554061D01*
X935745Y554035D01*
X935881Y553984D01*
X935915Y553950D01*
X935983Y553933D01*
X936068Y553899D01*
X936119Y553848D01*
X936238Y553831D01*
X936264Y553805D01*
X936273Y553780D01*
X936426Y553746D01*
X936494Y553678D01*
X936613Y553661D01*
X936681Y553593D01*
X936834Y553576D01*
X936885Y553525D01*
X937004Y553508D01*
X937055Y553457D01*
X937123Y553440D01*
X937242Y553423D01*
X937310Y553355D01*
X937514Y553338D01*
X937556Y553278D01*
X937710Y553261D01*
X937769Y553219D01*
X937854Y553185D01*
X938024Y553168D01*
X938075Y553117D01*
X938245Y553100D01*
X938313Y553083D01*
X938347Y553049D01*
X938415Y553032D01*
X938619Y553015D01*
X938653Y552981D01*
X938739Y552947D01*
X939011Y552930D01*
X939113Y552862D01*
X939470Y552845D01*
X939504Y552811D01*
X939623Y552777D01*
X940116Y552760D01*
X940150Y552726D01*
X940218Y552709D01*
X940439Y552692D01*
X942361Y552709D01*
X942446Y552743D01*
X942582Y552777D01*
X942990Y552794D01*
X943109Y552845D01*
X943177Y552862D01*
X943432Y552879D01*
X943585Y552947D01*
X943824Y552964D01*
X943857Y552998D01*
X943994Y553032D01*
X944147Y553049D01*
X944181Y553083D01*
X944300Y553117D01*
X944351Y553100D01*
X944436Y553151D01*
X944521Y553185D01*
X944674Y553202D01*
X944725Y553253D01*
X944793Y553270D01*
X944912Y553287D01*
X944963Y553338D01*
X945031Y553355D01*
X945150Y553372D01*
X945201Y553423D01*
X945269Y553440D01*
X945371Y553457D01*
X945405Y553508D01*
X945448Y553516D01*
X945507Y553508D01*
X945626Y553593D01*
X945745Y553610D01*
X945796Y553661D01*
X945932Y553695D01*
X946000Y553763D01*
X946102Y553780D01*
X946128Y553805D01*
X946136Y553831D01*
X946255Y553848D01*
X946281Y553873D01*
X946298Y553907D01*
X946426Y553933D01*
X946494Y554001D01*
X946596Y554018D01*
X946630Y554069D01*
X946766Y554103D01*
X946800Y554154D01*
X946868Y554171D01*
X946919Y554188D01*
X946987Y554256D01*
X947080Y554282D01*
X947123Y554324D01*
X947157Y554341D01*
X947191Y554375D01*
X947276Y554409D01*
X947335Y554435D01*
X947352Y554469D01*
X947378Y554494D01*
X947446Y554511D01*
X947548Y554579D01*
X947582Y554596D01*
X947616Y554647D01*
X947727Y554673D01*
X947803Y554749D01*
X947837Y554766D01*
X947871Y554800D01*
X947982Y554843D01*
X948024Y554902D01*
X948109Y554953D01*
X948143Y554987D01*
X948211Y555005D01*
X948279Y555072D01*
X948313Y555090D01*
X948381Y555158D01*
X948415Y555174D01*
X948517Y555243D01*
X948551Y555260D01*
X948670Y555379D01*
X948705Y555396D01*
X948738Y555430D01*
X948773Y555447D01*
X948806Y555481D01*
X948841Y555498D01*
X948892Y555549D01*
X948977Y555600D01*
X949181Y555804D01*
X949215Y555821D01*
X949351Y555957D01*
X949385Y555974D01*
X949453Y556042D01*
X949487Y556059D01*
X949810Y556382D01*
X949844Y556399D01*
X949869Y556425D01*
X949886Y556459D01*
X950023Y556595D01*
X950039Y556629D01*
X950142Y556731D01*
X950159Y556765D01*
X950278Y556884D01*
X950295Y556918D01*
X950448Y557071D01*
X950465Y557105D01*
X950516Y557139D01*
X950567Y557224D01*
X950601Y557258D01*
X950618Y557292D01*
X950694Y557385D01*
X950728Y557436D01*
X950754Y557445D01*
X950771Y557479D01*
X950839Y557547D01*
X950873Y557632D01*
X950907Y557666D01*
X950924Y557700D01*
X950966Y557760D01*
X951000Y557777D01*
X951060Y557870D01*
X951128Y557989D01*
X951179Y558040D01*
X951196Y558074D01*
X951230Y558108D01*
X951264Y558193D01*
X951281Y558227D01*
X951349Y558295D01*
X951366Y558329D01*
X951400Y558363D01*
X951417Y558431D01*
X951434Y558465D01*
X951460Y558491D01*
X951485Y558499D01*
X951536Y558635D01*
X951570Y558669D01*
X951613Y558746D01*
X951647Y558763D01*
X951664Y558865D01*
X951715Y558916D01*
X951740Y558924D01*
X951757Y559027D01*
X951825Y559095D01*
X951842Y559180D01*
X951893Y559231D01*
X951910Y559299D01*
X951961Y559384D01*
X951995Y559469D01*
X952012Y559520D01*
X952080Y559588D01*
X952097Y559707D01*
X952148Y559741D01*
X952165Y559809D01*
X952174Y559868D01*
X952208Y559885D01*
X952233Y559911D01*
X952250Y560030D01*
X952318Y560098D01*
X952335Y560251D01*
X952386Y560302D01*
X952421Y560438D01*
X952472Y560489D01*
X952489Y560642D01*
X952557Y560744D01*
X952573Y560812D01*
X952590Y560914D01*
X952641Y560965D01*
X952658Y561135D01*
X952727Y561203D01*
X952744Y561390D01*
X952769Y561416D01*
X952795Y561424D01*
X952812Y561493D01*
X952829Y561663D01*
X952863Y561697D01*
X952880Y561765D01*
X952914Y561952D01*
X952965Y562037D01*
X952982Y562207D01*
X952999Y562292D01*
X953050Y562411D01*
X953067Y562632D01*
X953135Y562734D01*
X953152Y563040D01*
X953203Y563125D01*
X953220Y563244D01*
X953237Y563533D01*
X953288Y563584D01*
X953305Y563805D01*
X953322Y564112D01*
X953373Y564231D01*
X953381Y564766D01*
X953373Y564792D01*
X953390Y564843D01*
X953432Y565158D01*
X953449Y565243D01*
X953458Y566339D01*
X953441Y566391D01*
X953398Y566603D01*
X953381Y566926D01*
X953373Y567207D01*
X953390Y567224D01*
X953373Y567275D01*
X953356Y567377D01*
X953305Y567496D01*
X953288Y567938D01*
X953254Y567972D01*
X953220Y568091D01*
X953203Y568363D01*
X953135Y568465D01*
X953118Y568738D01*
X953067Y568788D01*
X953050Y568856D01*
X953033Y569061D01*
X952982Y569112D01*
X952948Y569350D01*
X952897Y569401D01*
X952880Y569588D01*
X952812Y569690D01*
X952795Y569843D01*
X952744Y569894D01*
X952727Y569962D01*
X952710Y570081D01*
X952650Y570123D01*
X952633Y570277D01*
X952590Y570336D01*
X952573Y570387D01*
X952557Y570455D01*
X952540Y570489D01*
X952505Y570523D01*
X952489Y570591D01*
X952463Y570702D01*
X952403Y570761D01*
X952386Y570880D01*
X952318Y570948D01*
X952301Y571067D01*
X952250Y571101D01*
X952233Y571169D01*
X952216Y571220D01*
X952165Y571272D01*
X952148Y571374D01*
X952080Y571442D01*
X952063Y571544D01*
X951995Y571612D01*
X951978Y571714D01*
X951910Y571765D01*
X951885Y571875D01*
X951825Y571935D01*
X951808Y572020D01*
X951757Y572071D01*
X951706Y572156D01*
X951672Y572190D01*
X951655Y572275D01*
X951587Y572343D01*
X951570Y572411D01*
X951536Y572445D01*
X951519Y572479D01*
X951417Y572649D01*
X951400Y572683D01*
X951332Y572751D01*
X951315Y572785D01*
X951281Y572819D01*
X951239Y572930D01*
X951162Y573006D01*
X951145Y573040D01*
X951094Y573091D01*
X951077Y573159D01*
X951009Y573227D01*
X950992Y573261D01*
X950924Y573329D01*
X950907Y573363D01*
X950873Y573397D01*
X950805Y573516D01*
X950771Y573550D01*
X950754Y573584D01*
X950686Y573652D01*
X950669Y573686D01*
X950618Y573737D01*
X950567Y573822D01*
X950533Y573856D01*
X950507Y573916D01*
X950473Y573933D01*
X950431Y573976D01*
X950414Y574010D01*
X950380Y574027D01*
X950363Y574061D01*
X950295Y574129D01*
X950227Y574248D01*
X950176Y574299D01*
X950159Y574333D01*
X949869Y574622D01*
X949852Y574656D01*
X949699Y574809D01*
X949682Y574843D01*
X949640Y574902D01*
X949606Y574919D01*
X949563Y574962D01*
X949512Y575047D01*
X949461Y575098D01*
X949444Y575132D01*
X949334Y575243D01*
X949300Y575260D01*
X949257Y575319D01*
X949070Y575506D01*
X949079Y575566D01*
X949181Y575549D01*
D02*
G37*
G36*
X940652Y581272D02*
X940694Y581280D01*
X940745Y581263D01*
X940822Y581306D01*
X940830Y581331D01*
X940898Y581348D01*
X941681Y581331D01*
X941715Y581297D01*
X941783Y581280D01*
X941953Y581263D01*
X942021Y581195D01*
X942157Y581178D01*
X942199Y581118D01*
X942310Y581076D01*
X942344Y581042D01*
X942378Y581025D01*
X942472Y580948D01*
X942531Y580889D01*
X942565Y580872D01*
X942659Y580795D01*
X942735Y580702D01*
X942761Y580693D01*
X942778Y580659D01*
X942846Y580591D01*
X942863Y580557D01*
X942931Y580489D01*
X942948Y580421D01*
X942982Y580387D01*
X943084Y580166D01*
X943109Y580072D01*
X943169Y579962D01*
X943186Y579741D01*
X943237Y579622D01*
X943254Y579554D01*
X943245Y579256D01*
X943254Y579180D01*
X943169Y579061D01*
X943152Y578805D01*
X943101Y578755D01*
X943084Y578686D01*
X943067Y578601D01*
X943016Y578550D01*
X942999Y578482D01*
X942982Y578448D01*
X942931Y578397D01*
X942863Y578278D01*
X942778Y578159D01*
X942676Y578057D01*
X942659Y578023D01*
X942599Y577981D01*
X942497Y577879D01*
X942463Y577862D01*
X942344Y577794D01*
X942225Y577709D01*
X942114Y577666D01*
X942055Y577606D01*
X941885Y577590D01*
X941851Y577556D01*
X941817Y577538D01*
X941766Y577522D01*
X941477Y577504D01*
X941443Y577470D01*
X941366Y577462D01*
X941128Y577479D01*
X940992Y577513D01*
X940754Y577530D01*
X940694Y577556D01*
X940660Y577590D01*
X940592Y577606D01*
X940507Y577624D01*
X940456Y577674D01*
X940388Y577692D01*
X940337Y577709D01*
X940269Y577777D01*
X940184Y577794D01*
X940133Y577845D01*
X940099Y577862D01*
X939946Y578015D01*
X939912Y578032D01*
X939869Y578091D01*
X939733Y578227D01*
X939716Y578261D01*
X939682Y578295D01*
X939623Y578406D01*
X939597Y578414D01*
X939529Y578533D01*
X939512Y578584D01*
X939470Y578695D01*
X939427Y578737D01*
X939410Y578907D01*
X939342Y579010D01*
X939359Y579894D01*
X939410Y579945D01*
X939427Y580064D01*
X939444Y580132D01*
X939495Y580183D01*
X939512Y580285D01*
X939546Y580319D01*
X939614Y580438D01*
X939665Y580489D01*
X939699Y580574D01*
X939750Y580625D01*
X939793Y580702D01*
X939827Y580719D01*
X939869Y580778D01*
X940014Y580923D01*
X940099Y580957D01*
X940150Y581008D01*
X940235Y581059D01*
X940286Y581110D01*
X940388Y581127D01*
X940414Y581152D01*
X940422Y581178D01*
X940558Y581212D01*
X940609Y581263D01*
X940643D01*
X940652Y581272D01*
D02*
G37*
G36*
X939410Y584622D02*
X939359Y584673D01*
X939342Y584741D01*
X939325Y584996D01*
X939291Y585081D01*
X939274Y585200D01*
X939291Y585387D01*
X939325Y585472D01*
X939342Y585540D01*
X939359Y585778D01*
X939427Y585880D01*
X939444Y585999D01*
X939478Y586033D01*
X939495Y586101D01*
X939512Y586135D01*
X939580Y586203D01*
X939597Y586306D01*
X939623Y586331D01*
X939648Y586340D01*
X939665Y586374D01*
X939767Y586476D01*
X939784Y586510D01*
X939818Y586527D01*
X939835Y586561D01*
X939912Y586654D01*
X939997Y586705D01*
X940116Y586824D01*
X940150Y586841D01*
X940201Y586892D01*
X940303Y586909D01*
X940346Y586969D01*
X940448Y586986D01*
X940507Y587028D01*
X940541Y587062D01*
X940728Y587079D01*
X940796Y587147D01*
X941715Y587130D01*
X941749Y587096D01*
X941834Y587062D01*
X941970Y587045D01*
X942021Y586994D01*
X942174Y586960D01*
X942242Y586892D01*
X942395Y586807D01*
X942497Y586705D01*
X942531Y586688D01*
X942676Y586544D01*
X942693Y586510D01*
X942752Y586467D01*
X942786Y586416D01*
X942820Y586399D01*
X942905Y586263D01*
X942939Y586178D01*
X942999Y586118D01*
X943024Y586008D01*
X943067Y585948D01*
X943084Y585897D01*
X943101Y585761D01*
X943152Y585710D01*
X943169Y585438D01*
X943152Y584775D01*
X943118Y584741D01*
X943084Y584622D01*
X943067Y584503D01*
X943016Y584452D01*
X942999Y584350D01*
X942931Y584282D01*
X942914Y584214D01*
X942795Y584061D01*
X942718Y583967D01*
X942395Y583644D01*
X942361Y583627D01*
X942310Y583576D01*
X942242Y583559D01*
X942208Y583542D01*
X942140Y583474D01*
X942021Y583457D01*
X941970Y583406D01*
X941851Y583389D01*
X941783Y583372D01*
X941749Y583338D01*
X941681Y583321D01*
X940745Y583338D01*
X940694Y583389D01*
X940507Y583406D01*
X940482Y583431D01*
X940465Y583465D01*
X940439Y583491D01*
X940337Y583508D01*
X940269Y583576D01*
X940167Y583593D01*
X940116Y583644D01*
X940082Y583661D01*
X940057Y583686D01*
X940048Y583712D01*
X939963Y583763D01*
X939869Y583840D01*
X939767Y583942D01*
X939716Y584027D01*
X939682Y584061D01*
X939665Y584095D01*
X939597Y584163D01*
X939555Y584273D01*
X939521Y584290D01*
X939495Y584316D01*
X939478Y584435D01*
X939427Y584469D01*
X939410Y584605D01*
Y584622D01*
D02*
G37*
%LPC*%
G36*
X941136Y500226D02*
X941085Y500209D01*
X940592Y500191D01*
X940558Y500157D01*
X940439Y500140D01*
X940286Y500124D01*
X940235Y500140D01*
X940141Y500115D01*
X940048Y500072D01*
X939980Y500056D01*
X939759Y500038D01*
X939708Y499988D01*
X939589Y499970D01*
X939487Y499953D01*
X939436Y499902D01*
X939257Y499877D01*
X939147Y499817D01*
X939019Y499792D01*
X938960Y499749D01*
X938875Y499715D01*
X938772Y499698D01*
X938721Y499647D01*
X938602Y499630D01*
X938577Y499605D01*
X938568Y499579D01*
X938432Y499545D01*
X938381Y499494D01*
X938313Y499477D01*
X938279Y499460D01*
X938245Y499426D01*
X938177Y499409D01*
X938092Y499358D01*
X938058Y499324D01*
X937965Y499299D01*
X937905Y499256D01*
X937786Y499188D01*
X937693Y499112D01*
X937582Y499069D01*
X937548Y499052D01*
X937514Y499001D01*
X937480Y498984D01*
X937438Y498959D01*
X937429Y498933D01*
X937310Y498865D01*
X937191Y498780D01*
X937140Y498729D01*
X937106Y498712D01*
X937055Y498661D01*
X937021Y498644D01*
X936987Y498610D01*
X936902Y498559D01*
X936681Y498338D01*
X936647Y498321D01*
X936621Y498295D01*
X936613Y498270D01*
X936579Y498253D01*
X936230Y497904D01*
X936213Y497870D01*
X935958Y497615D01*
X935890Y497496D01*
X935856Y497462D01*
X935839Y497428D01*
X935754Y497343D01*
X935737Y497309D01*
X935686Y497258D01*
X935626Y497130D01*
X935601Y497122D01*
X935584Y497088D01*
X935558Y497045D01*
X935524Y497028D01*
X935499Y497003D01*
X935473Y496892D01*
X935414Y496833D01*
X935397Y496799D01*
X935363Y496765D01*
X935320Y496654D01*
X935261Y496595D01*
X935244Y496527D01*
X935227Y496493D01*
X935176Y496442D01*
X935150Y496331D01*
X935091Y496272D01*
X935065Y496178D01*
X935023Y496135D01*
X934988Y495999D01*
X934937Y495948D01*
X934921Y495880D01*
X934869Y495795D01*
X934852Y495744D01*
X934827Y495634D01*
X934784Y495574D01*
X934767Y495523D01*
X934750Y495404D01*
X934682Y495336D01*
X934665Y495149D01*
X934614Y495098D01*
X934580Y494860D01*
X934546Y494826D01*
X934512Y494707D01*
X934495Y494520D01*
X934444Y494401D01*
X934427Y494333D01*
X934410Y494010D01*
X934359Y493890D01*
X934342Y492666D01*
X934359Y492615D01*
X934376Y492105D01*
X934427Y491986D01*
X934436Y491756D01*
X934427Y491680D01*
X934444Y491629D01*
X934461Y491595D01*
X934512Y491476D01*
X934529Y491255D01*
X934597Y491152D01*
X934614Y490965D01*
X934682Y490863D01*
X934699Y490693D01*
X934750Y490642D01*
X934776Y490481D01*
X934835Y490421D01*
X934852Y490268D01*
X934921Y490200D01*
X934937Y490081D01*
X934988Y490030D01*
X935023Y489894D01*
X935073Y489843D01*
X935116Y489732D01*
X935141Y489707D01*
X935176Y489622D01*
X935193Y489588D01*
X935227Y489554D01*
X935269Y489443D01*
X935329Y489384D01*
X935354Y489290D01*
X935414Y489231D01*
X935431Y489163D01*
X935465Y489129D01*
X935524Y489018D01*
X935558Y489001D01*
X935609Y488899D01*
X935635Y488873D01*
X935686Y488789D01*
X935737Y488737D01*
X935788Y488652D01*
X935873Y488533D01*
X935907Y488499D01*
X935924Y488465D01*
X936077Y488312D01*
X936094Y488278D01*
X936145Y488227D01*
X936162Y488193D01*
X936247Y488108D01*
X936264Y488074D01*
X936366Y487972D01*
X936383Y487938D01*
X936613Y487709D01*
X936647Y487691D01*
X936715Y487624D01*
X936749Y487606D01*
X936800Y487556D01*
X936834Y487538D01*
X936902Y487470D01*
X936936Y487453D01*
X937072Y487317D01*
X937106Y487300D01*
X937174Y487232D01*
X937259Y487181D01*
X937378Y487096D01*
X937412Y487062D01*
X937446Y487045D01*
X937497Y486994D01*
X937607Y486952D01*
X937667Y486892D01*
X937701Y486875D01*
X937735Y486841D01*
X937846Y486799D01*
X937905Y486739D01*
X937973Y486722D01*
X938024Y486671D01*
X938092Y486654D01*
X938177Y486603D01*
X938330Y486518D01*
X938415Y486484D01*
X938449Y486467D01*
X938483Y486433D01*
X938594Y486408D01*
X938696Y486340D01*
X938824Y486314D01*
X938849Y486288D01*
X938857Y486263D01*
X938926Y486246D01*
X939028Y486229D01*
X939079Y486178D01*
X939266Y486144D01*
X939300Y486110D01*
X939368Y486093D01*
X939521Y486076D01*
X939572Y486025D01*
X939640Y486008D01*
X939827Y485991D01*
X939929Y485923D01*
X940235Y485906D01*
X940269Y485872D01*
X940388Y485838D01*
X940881Y485821D01*
X940932Y485804D01*
X941051Y485770D01*
X941273Y485753D01*
X941936Y485770D01*
X942021Y485804D01*
X942225Y485838D01*
X942650Y485855D01*
X942803Y485923D01*
X943075Y485940D01*
X943109Y485974D01*
X943228Y486008D01*
X943415Y486025D01*
X943449Y486076D01*
X943653Y486093D01*
X943756Y486161D01*
X943909Y486178D01*
X943977Y486246D01*
X944130Y486263D01*
X944198Y486331D01*
X944317Y486348D01*
X944368Y486399D01*
X944504Y486433D01*
X944572Y486501D01*
X944674Y486518D01*
X944725Y486569D01*
X944793Y486586D01*
X944895Y486654D01*
X944963Y486671D01*
X945014Y486722D01*
X945125Y486765D01*
X945167Y486807D01*
X945278Y486850D01*
X945337Y486909D01*
X945371Y486926D01*
X945422Y486977D01*
X945490Y486994D01*
X945524Y487028D01*
X945558Y487045D01*
X945652Y487122D01*
X945677Y487147D01*
X945796Y487215D01*
X945890Y487292D01*
X945932Y487334D01*
X945958Y487343D01*
X945975Y487377D01*
X946068Y487436D01*
X946119Y487488D01*
X946153Y487504D01*
X946247Y487581D01*
X946290Y487624D01*
X946323Y487640D01*
X946621Y487938D01*
X946630Y487947D01*
X946859Y488176D01*
X946876Y488210D01*
X946944Y488278D01*
X946961Y488312D01*
X946995Y488346D01*
X947012Y488380D01*
X947063Y488431D01*
X947080Y488465D01*
X947114Y488499D01*
X947131Y488533D01*
X947250Y488652D01*
X947318Y488771D01*
X947395Y488865D01*
X947421Y488891D01*
X947472Y488976D01*
X947540Y489095D01*
X947573Y489129D01*
X947624Y489214D01*
X947693Y489333D01*
X947744Y489384D01*
X947761Y489486D01*
X947786Y489511D01*
X947820Y489528D01*
X947837Y489630D01*
X947854Y489664D01*
X947888Y489681D01*
X947914Y489758D01*
X947931Y489792D01*
X947965Y489826D01*
X947999Y489945D01*
X948016Y489979D01*
X948050Y489996D01*
X948084Y490081D01*
X948101Y490149D01*
X948152Y490200D01*
X948177Y490362D01*
X948220Y490404D01*
X948237Y490472D01*
X948254Y490557D01*
X948305Y490608D01*
X948322Y490727D01*
X948339Y490795D01*
X948390Y490846D01*
X948407Y490965D01*
X948424Y491101D01*
X948475Y491152D01*
X948492Y491391D01*
X948560Y491493D01*
X948577Y491816D01*
X948645Y491969D01*
X948662Y492649D01*
X948679Y492700D01*
X948696Y492921D01*
X948679Y493312D01*
X948662Y493363D01*
X948645Y493738D01*
X948628Y494078D01*
X948577Y494197D01*
X948560Y494265D01*
X948543Y494537D01*
X948509Y494571D01*
X948475Y494707D01*
X948483Y494783D01*
X948466Y494851D01*
X948441Y494877D01*
X948424Y494911D01*
X948407Y494962D01*
X948390Y495149D01*
X948322Y495217D01*
X948305Y495387D01*
X948237Y495455D01*
X948220Y495625D01*
X948152Y495676D01*
X948135Y495812D01*
X948101Y495846D01*
X948067Y495965D01*
X948050Y496016D01*
X947999Y496067D01*
X947973Y496178D01*
X947914Y496238D01*
X947897Y496340D01*
X947829Y496408D01*
X947803Y496501D01*
X947761Y496544D01*
X947693Y496663D01*
X947659Y496748D01*
X947641Y496782D01*
X947591Y496833D01*
X947548Y496943D01*
X947488Y497003D01*
X947472Y497037D01*
X947421Y497088D01*
X947403Y497156D01*
X947335Y497224D01*
X947318Y497258D01*
X947267Y497309D01*
X947216Y497394D01*
X947182Y497428D01*
X947131Y497513D01*
X947055Y497607D01*
X946995Y497666D01*
X946987Y497691D01*
X946953Y497709D01*
X946927Y497734D01*
X946910Y497768D01*
X946876Y497802D01*
X946859Y497836D01*
X946740Y497955D01*
X946723Y497989D01*
X946408Y498304D01*
X946375Y498321D01*
X946239Y498457D01*
X946204Y498474D01*
X946171Y498508D01*
X946136Y498525D01*
X946119Y498559D01*
X946085Y498576D01*
X945983Y498678D01*
X945958Y498686D01*
X945941Y498720D01*
X945915Y498746D01*
X945830Y498797D01*
X945711Y498882D01*
X945618Y498959D01*
X945592Y498984D01*
X945524Y499001D01*
X945490Y499018D01*
X945439Y499069D01*
X945405Y499086D01*
X945337Y499154D01*
X945244Y499180D01*
X945201Y499222D01*
X945116Y499273D01*
X944997Y499341D01*
X944946Y499392D01*
X944844Y499409D01*
X944776Y499477D01*
X944674Y499494D01*
X944623Y499545D01*
X944555Y499562D01*
X944495Y499588D01*
X944478Y499622D01*
X944410Y499639D01*
X944325Y499656D01*
X944291Y499673D01*
X944283Y499698D01*
X944198Y499732D01*
X944096Y499749D01*
X944045Y499800D01*
X943909Y499817D01*
X943806Y499885D01*
X943653Y499902D01*
X943602Y499953D01*
X943534Y499970D01*
X943381Y499988D01*
X943228Y500056D01*
X943024Y500072D01*
X942939Y500124D01*
X942820Y500140D01*
X942769Y500124D01*
X942718Y500140D01*
X942531Y500157D01*
X942412Y500209D01*
X941136Y500226D01*
D02*
G37*
%LPD*%
G36*
X941374Y496773D02*
X941536Y496782D01*
X942089Y496756D01*
X942140Y496705D01*
X942412Y496688D01*
X942463Y496637D01*
X942531Y496620D01*
X942650Y496603D01*
X942701Y496552D01*
X942820Y496535D01*
X942905Y496484D01*
X942990Y496450D01*
X943058Y496433D01*
X943109Y496382D01*
X943194Y496348D01*
X943228Y496314D01*
X943313Y496263D01*
X943381Y496195D01*
X943466Y496178D01*
X943517Y496127D01*
X943551Y496110D01*
X943619Y496042D01*
X943653Y496025D01*
X943688Y495974D01*
X943721Y495957D01*
X943747Y495931D01*
X943764Y495897D01*
X943824Y495855D01*
X943857Y495804D01*
X943892Y495787D01*
X943917Y495761D01*
X943934Y495727D01*
X944028Y495634D01*
X944062Y495617D01*
X944096Y495549D01*
X944130Y495532D01*
X944215Y495396D01*
X944274Y495302D01*
X944308Y495268D01*
X944444Y495030D01*
X944478Y494945D01*
X944495Y494894D01*
X944546Y494843D01*
X944563Y494724D01*
X944580Y494656D01*
X944631Y494605D01*
X944648Y494486D01*
X944665Y494435D01*
X944716Y494384D01*
X944733Y494112D01*
X944767Y494078D01*
X944801Y493959D01*
X944784Y492768D01*
X944733Y492717D01*
X944716Y492598D01*
X944699Y492411D01*
X944648Y492377D01*
X944631Y492309D01*
X944648Y492241D01*
X944606Y492181D01*
X944580Y492173D01*
X944563Y492105D01*
X944546Y492020D01*
X944495Y491969D01*
X944461Y491833D01*
X944436Y491807D01*
X944410Y491799D01*
X944291Y491578D01*
X944240Y491527D01*
X944206Y491441D01*
X944172Y491407D01*
X944155Y491373D01*
X944002Y491220D01*
X943985Y491186D01*
X943943Y491144D01*
X943909Y491127D01*
X943866Y491067D01*
X943705Y490906D01*
X943670Y490889D01*
X943645Y490863D01*
X943636Y490838D01*
X943602Y490821D01*
X943534Y490753D01*
X943449Y490702D01*
X943330Y490634D01*
X943296Y490583D01*
X943228Y490566D01*
X943177Y490515D01*
X943092Y490481D01*
X943041Y490430D01*
X942905Y490396D01*
X942854Y490345D01*
X942735Y490328D01*
X942684Y490311D01*
X942633Y490260D01*
X942446Y490243D01*
X942395Y490192D01*
X942327Y490174D01*
X942106Y490158D01*
X942072Y490124D01*
X941842Y490098D01*
X941273Y490090D01*
X941222Y490106D01*
X941085Y490124D01*
X940966Y490174D01*
X940694Y490192D01*
X940643Y490243D01*
X940575Y490260D01*
X940439Y490277D01*
X940388Y490328D01*
X940244Y490353D01*
X940133Y490413D01*
X940065Y490430D01*
X939946Y490515D01*
X939759Y490617D01*
X939725Y490651D01*
X939657Y490668D01*
X939623Y490685D01*
X939572Y490736D01*
X939512Y490761D01*
X939495Y490795D01*
X939453Y490838D01*
X939419Y490855D01*
X939368Y490906D01*
X939334Y490923D01*
X939283Y490974D01*
X939249Y490991D01*
X939189Y491033D01*
X939172Y491067D01*
X939002Y491237D01*
X938985Y491271D01*
X938951Y491305D01*
X938934Y491339D01*
X938857Y491433D01*
X938798Y491493D01*
X938781Y491527D01*
X938696Y491646D01*
X938645Y491731D01*
X938611Y491748D01*
X938585Y491858D01*
X938526Y491918D01*
X938509Y492003D01*
X938441Y492105D01*
X938424Y492207D01*
X938373Y492258D01*
X938356Y492326D01*
X938339Y492445D01*
X938305Y492479D01*
X938271Y492615D01*
X938254Y492751D01*
X938220Y492785D01*
X938203Y492853D01*
Y493874D01*
Y493890D01*
X938220Y494044D01*
X938271Y494129D01*
X938288Y494367D01*
X938356Y494435D01*
X938373Y494605D01*
X938424Y494656D01*
X938458Y494792D01*
X938517Y494834D01*
X938534Y494970D01*
X938568Y494987D01*
X938594Y495013D01*
X938636Y495123D01*
X938679Y495166D01*
X938696Y495200D01*
X938764Y495302D01*
X938781Y495353D01*
X938832Y495404D01*
X938849Y495438D01*
X938892Y495481D01*
X938926Y495498D01*
X938985Y495591D01*
X939019Y495625D01*
X939070Y495710D01*
X939181Y495821D01*
X939215Y495838D01*
X939317Y495940D01*
X939351Y495957D01*
X939385Y495991D01*
X939419Y496008D01*
X939453Y496042D01*
X939487Y496059D01*
X939529Y496118D01*
X939589Y496161D01*
X939623Y496195D01*
X939733Y496238D01*
X939793Y496297D01*
X939878Y496348D01*
X939963Y496382D01*
X939997Y496399D01*
X940031Y496433D01*
X940099Y496450D01*
X940133Y496467D01*
X940201Y496535D01*
X940337Y496552D01*
X940371Y496586D01*
X940490Y496620D01*
X940609Y496637D01*
X940660Y496688D01*
X940830Y496705D01*
X940983Y496722D01*
X941102Y496773D01*
X941323Y496790D01*
X941374Y496773D01*
D02*
G37*
D14*
X895900Y767065D02*
Y761066D01*
Y767065D02*
X892187D01*
X895900Y764208D02*
X893615D01*
X891501Y767065D02*
Y761066D01*
X888073D01*
X883703Y767065D02*
X887416D01*
Y761066D01*
X883703D01*
X887416Y764208D02*
X885131D01*
X880703Y767065D02*
Y761066D01*
X882703Y767065D02*
X878704D01*
X873705Y765636D02*
X873991Y766208D01*
X874562Y766779D01*
X875133Y767065D01*
X876276D01*
X876847Y766779D01*
X877418Y766208D01*
X877704Y765636D01*
X877990Y764779D01*
Y763351D01*
X877704Y762494D01*
X877418Y761923D01*
X876847Y761351D01*
X876276Y761066D01*
X875133D01*
X874562Y761351D01*
X873991Y761923D01*
X873705Y762494D01*
X872019Y767065D02*
Y761066D01*
X868020Y767065D02*
Y761066D01*
X872019Y764208D02*
X868020D01*
X862650Y767065D02*
X866364D01*
Y761066D01*
X862650D01*
X866364Y764208D02*
X864078D01*
X861650Y767065D02*
Y761066D01*
Y767065D02*
X859079D01*
X858222Y766779D01*
X857937Y766493D01*
X857651Y765922D01*
Y765351D01*
X857937Y764779D01*
X858222Y764494D01*
X859079Y764208D01*
X861650D01*
X859651D02*
X857651Y761066D01*
X851595Y765065D02*
X849881Y761066D01*
X848167Y765065D02*
X849881Y761066D01*
X846910Y765636D02*
Y765922D01*
X846625Y766493D01*
X846339Y766779D01*
X845768Y767065D01*
X844625D01*
X844054Y766779D01*
X843768Y766493D01*
X843483Y765922D01*
Y765351D01*
X843768Y764779D01*
X844340Y763922D01*
X847196Y761066D01*
X843197D01*
X841569Y761637D02*
X841854Y761351D01*
X841569Y761066D01*
X841283Y761351D01*
X841569Y761637D01*
X838255Y767065D02*
X839112Y766779D01*
X839684Y765922D01*
X839969Y764494D01*
Y763637D01*
X839684Y762209D01*
X839112Y761351D01*
X838255Y761066D01*
X837684D01*
X836827Y761351D01*
X836256Y762209D01*
X835970Y763637D01*
Y764494D01*
X836256Y765922D01*
X836827Y766779D01*
X837684Y767065D01*
X838255D01*
X891901Y756323D02*
X892472Y756895D01*
X893329Y757181D01*
X894472D01*
X895329Y756895D01*
X895900Y756323D01*
Y755752D01*
X895614Y755181D01*
X895329Y754895D01*
X894757Y754610D01*
X893044Y754038D01*
X892472Y753753D01*
X892187Y753467D01*
X891901Y752896D01*
Y752039D01*
X892472Y751467D01*
X893329Y751182D01*
X894472D01*
X895329Y751467D01*
X895900Y752039D01*
X890558Y757181D02*
Y751182D01*
Y757181D02*
X887988D01*
X887131Y756895D01*
X886845Y756609D01*
X886559Y756038D01*
Y755467D01*
X886845Y754895D01*
X887131Y754610D01*
X887988Y754324D01*
X890558D01*
X888559D02*
X886559Y751182D01*
X880646D02*
X882931Y757181D01*
X885217Y751182D01*
X884360Y753181D02*
X881503D01*
X879247Y757181D02*
Y751182D01*
Y757181D02*
X877247D01*
X876390Y756895D01*
X875819Y756323D01*
X875533Y755752D01*
X875247Y754895D01*
Y753467D01*
X875533Y752610D01*
X875819Y752039D01*
X876390Y751467D01*
X877247Y751182D01*
X879247D01*
X869191Y757181D02*
Y751182D01*
Y757181D02*
X865478D01*
X869191Y754324D02*
X866906D01*
X864792Y757181D02*
Y751182D01*
X862964Y757181D02*
X862679Y756895D01*
X862393Y757181D01*
X862679Y757466D01*
X862964Y757181D01*
X862679Y755181D02*
Y751182D01*
X857908Y755181D02*
Y750610D01*
X858194Y749754D01*
X858479Y749468D01*
X859051Y749182D01*
X859908D01*
X860479Y749468D01*
X857908Y754324D02*
X858479Y754895D01*
X859051Y755181D01*
X859908D01*
X860479Y754895D01*
X861050Y754324D01*
X861336Y753467D01*
Y752896D01*
X861050Y752039D01*
X860479Y751467D01*
X859908Y751182D01*
X859051D01*
X858479Y751467D01*
X857908Y752039D01*
X856308Y757181D02*
Y751182D01*
Y754038D02*
X855452Y754895D01*
X854880Y755181D01*
X854023D01*
X853452Y754895D01*
X853166Y754038D01*
Y751182D01*
X850738Y757181D02*
Y752324D01*
X850453Y751467D01*
X849881Y751182D01*
X849310D01*
X851595Y755181D02*
X849596D01*
X839455Y755752D02*
X839741Y756323D01*
X840312Y756895D01*
X840883Y757181D01*
X842026D01*
X842597Y756895D01*
X843169Y756323D01*
X843454Y755752D01*
X843740Y754895D01*
Y753467D01*
X843454Y752610D01*
X843169Y752039D01*
X842597Y751467D01*
X842026Y751182D01*
X840883D01*
X840312Y751467D01*
X839741Y752039D01*
X839455Y752610D01*
X836341Y755181D02*
X836913Y754895D01*
X837484Y754324D01*
X837770Y753467D01*
Y752896D01*
X837484Y752039D01*
X836913Y751467D01*
X836341Y751182D01*
X835484D01*
X834913Y751467D01*
X834342Y752039D01*
X834056Y752896D01*
Y753467D01*
X834342Y754324D01*
X834913Y754895D01*
X835484Y755181D01*
X836341D01*
X832742D02*
Y751182D01*
Y754038D02*
X831885Y754895D01*
X831314Y755181D01*
X830457D01*
X829886Y754895D01*
X829600Y754038D01*
Y751182D01*
Y754038D02*
X828743Y754895D01*
X828172Y755181D01*
X827315D01*
X826743Y754895D01*
X826458Y754038D01*
Y751182D01*
X824572Y755181D02*
Y749182D01*
Y754324D02*
X824001Y754895D01*
X823430Y755181D01*
X822573D01*
X822002Y754895D01*
X821430Y754324D01*
X821145Y753467D01*
Y752896D01*
X821430Y752039D01*
X822002Y751467D01*
X822573Y751182D01*
X823430D01*
X824001Y751467D01*
X824572Y752039D01*
X819859Y755181D02*
Y752324D01*
X819574Y751467D01*
X819002Y751182D01*
X818145D01*
X817574Y751467D01*
X816717Y752324D01*
Y755181D02*
Y751182D01*
X814289Y757181D02*
Y752324D01*
X814003Y751467D01*
X813432Y751182D01*
X812861D01*
X815146Y755181D02*
X813146D01*
X812004Y753467D02*
X808576D01*
Y754038D01*
X808862Y754610D01*
X809147Y754895D01*
X809719Y755181D01*
X810575D01*
X811147Y754895D01*
X811718Y754324D01*
X812004Y753467D01*
Y752896D01*
X811718Y752039D01*
X811147Y751467D01*
X810575Y751182D01*
X809719D01*
X809147Y751467D01*
X808576Y752039D01*
X807290Y755181D02*
Y751182D01*
Y753467D02*
X807005Y754324D01*
X806433Y754895D01*
X805862Y755181D01*
X805005D01*
X895900Y735698D02*
Y729700D01*
Y735698D02*
X893900D01*
X893044Y735413D01*
X892472Y734841D01*
X892187Y734270D01*
X891901Y733413D01*
Y731985D01*
X892187Y731128D01*
X892472Y730557D01*
X893044Y729985D01*
X893900Y729700D01*
X895900D01*
X887131Y733699D02*
Y729700D01*
Y732842D02*
X887702Y733413D01*
X888273Y733699D01*
X889130D01*
X889701Y733413D01*
X890273Y732842D01*
X890558Y731985D01*
Y731414D01*
X890273Y730557D01*
X889701Y729985D01*
X889130Y729700D01*
X888273D01*
X887702Y729985D01*
X887131Y730557D01*
X885531Y733699D02*
Y729700D01*
Y732556D02*
X884674Y733413D01*
X884103Y733699D01*
X883246D01*
X882674Y733413D01*
X882389Y732556D01*
Y729700D01*
X879961Y735698D02*
Y730842D01*
X879675Y729985D01*
X879104Y729700D01*
X878532D01*
X880818Y733699D02*
X878818D01*
X877675Y731985D02*
X874248D01*
Y732556D01*
X874533Y733127D01*
X874819Y733413D01*
X875390Y733699D01*
X876247D01*
X876818Y733413D01*
X877390Y732842D01*
X877675Y731985D01*
Y731414D01*
X877390Y730557D01*
X876818Y729985D01*
X876247Y729700D01*
X875390D01*
X874819Y729985D01*
X874248Y730557D01*
X864250Y734841D02*
X864821Y735413D01*
X865678Y735698D01*
X866821D01*
X867677Y735413D01*
X868249Y734841D01*
Y734270D01*
X867963Y733699D01*
X867677Y733413D01*
X867106Y733127D01*
X865392Y732556D01*
X864821Y732270D01*
X864535Y731985D01*
X864250Y731414D01*
Y730557D01*
X864821Y729985D01*
X865678Y729700D01*
X866821D01*
X867677Y729985D01*
X868249Y730557D01*
X862336Y735698D02*
X862050Y735413D01*
X861765Y735698D01*
X862050Y735984D01*
X862336Y735698D01*
X862050Y733699D02*
Y729700D01*
X860708Y733699D02*
X858994Y729700D01*
X857280Y733699D02*
X858994Y729700D01*
X854880Y733699D02*
X855452Y733413D01*
X856023Y732842D01*
X856308Y731985D01*
Y731414D01*
X856023Y730557D01*
X855452Y729985D01*
X854880Y729700D01*
X854023D01*
X853452Y729985D01*
X852881Y730557D01*
X852595Y731414D01*
Y731985D01*
X852881Y732842D01*
X853452Y733413D01*
X854023Y733699D01*
X854880D01*
X846568Y732270D02*
X841426D01*
X832085Y735698D02*
Y731128D01*
X832371Y730271D01*
X832656Y729985D01*
X833228Y729700D01*
X833799D01*
X834370Y729985D01*
X834656Y730271D01*
X834942Y731128D01*
Y731699D01*
X830543Y733699D02*
Y730842D01*
X830257Y729985D01*
X829686Y729700D01*
X828829D01*
X828257Y729985D01*
X827400Y730842D01*
Y733699D02*
Y729700D01*
X825829Y735698D02*
Y729700D01*
X824287Y733699D02*
X822573Y729700D01*
X820859Y733699D02*
X822573Y729700D01*
X823144Y728557D01*
X823715Y727986D01*
X824287Y727700D01*
X824572D01*
X814860Y734270D02*
Y734556D01*
X814575Y735127D01*
X814289Y735413D01*
X813718Y735698D01*
X812575D01*
X812004Y735413D01*
X811718Y735127D01*
X811432Y734556D01*
Y733984D01*
X811718Y733413D01*
X812289Y732556D01*
X815146Y729700D01*
X811147D01*
X808090Y735698D02*
X808947Y735413D01*
X809519Y734556D01*
X809804Y733127D01*
Y732270D01*
X809519Y730842D01*
X808947Y729985D01*
X808090Y729700D01*
X807519D01*
X806662Y729985D01*
X806091Y730842D01*
X805805Y732270D01*
Y733127D01*
X806091Y734556D01*
X806662Y735413D01*
X807519Y735698D01*
X808090D01*
X804177Y734270D02*
Y734556D01*
X803891Y735127D01*
X803605Y735413D01*
X803034Y735698D01*
X801892D01*
X801320Y735413D01*
X801035Y735127D01*
X800749Y734556D01*
Y733984D01*
X801035Y733413D01*
X801606Y732556D01*
X804463Y729700D01*
X800463D01*
X798835Y734270D02*
Y734556D01*
X798550Y735127D01*
X798264Y735413D01*
X797692Y735698D01*
X796550D01*
X795979Y735413D01*
X795693Y735127D01*
X795407Y734556D01*
Y733984D01*
X795693Y733413D01*
X796264Y732556D01*
X799121Y729700D01*
X795122D01*
M02*
