M48
;Layer_Color=9474304
;FILE_FORMAT=2:5
INCH,TZ
;TYPE=PLATED
T1F00S00C0.00787
T2F00S00C0.01200
T4F00S00C0.03346
T5F00S00C0.04016
T6F00S00C0.04724
T7F00S00C0.07008
T8F00S00C0.15748
%
T01
X843495Y631213
X846207Y628500
X851719
X854518Y631213
Y636724
X851719Y634012
X849006Y636724
X846207Y634012
X843495Y636724
X846207Y639524
X851719
X925179Y637570
Y641507
X929116
X933053
Y637570
X929116
X936990
Y641507
Y645444
X933053
X929116
X925179
X923610Y727822
Y732153
X927940
Y727822
T02
X811400Y467700
X813900Y492139
X842900Y500700
X871400Y490200
X872900Y485700
X877900
X882400
X886900
X891400
X896400
Y490200
Y494700
Y499200
Y503700
Y508200
Y513200
X891400
X886900
X882400
X877900
X872900Y574200
X872900Y580200
X876400Y584700
X875400Y589200
X870400
X852400Y589700
X855067Y585200
X860400Y580200
X865400Y574700
X860400Y567900
X843312Y569322
X843400Y578700
X835132Y588932
X821400Y587700
X817900Y572700
X827900
X906300Y579700
X914461Y584325
X928540Y621044
X775900Y636700
X758900Y635200
X773127Y660720
Y665680
X773400Y694700
X761400Y685200
X773900Y719070
X818900Y710200
X805900Y654200
X798539Y660728
X793909Y650191
X796909Y645191
X900900Y645200
X897602Y649902
X896400Y661200
X894400Y666200
X910163Y650846
X908900Y646200
X911273Y636078
X894900Y625200
X914482Y716700
X936900Y715200
X913986Y744574
X913986Y749806
X937900Y728200
X939900Y724200
X943489Y719958
X942900Y715200
X964400Y724700
T04
X824621Y466269
X844306
T05
X790900Y530900
Y540900
Y550900
Y560900
Y570900
Y580900
Y590900
Y600900
Y610900
Y620900
X780900
Y610900
Y600900
Y590900
Y580900
Y570900
Y560900
Y550900
Y540900
Y530900
X865900Y709200
X875900
X885900
X895900
X905900
T06
X955436Y583078
Y600794
X929846
Y583078
X925258Y669905
X907542
Y695495
X925258
T07
X823900Y775200
X848900
T08
X772900Y462200
X942900
Y684200
X772900Y782200
M30
