M48
;Layer_Color=9474304
;FILE_FORMAT=2:5
INCH,TZ
;TYPE=PLATED
T1F00S00C0.00787
T2F00S00C0.01200
T4F00S00C0.03346
T5F00S00C0.04016
T6F00S00C0.04724
T7F00S00C0.07008
T8F00S00C0.15748
%
T01
X859243Y631213
X861955Y628500
Y634012
X859243Y636724
X864754
X867467Y634012
X870266Y636724
Y631213
X867467Y628500
Y639524
X861955
X940927Y637570
Y641507
Y645444
X944864
X948801
Y641507
X944864
Y637570
X948801
X952738
Y641507
Y645444
X943688Y727822
X939358
Y732153
X943688
T02
X810400Y460700
X827148Y467700
X944288Y621044
X930209Y584325
X922048Y579700
X888648Y580200
X888648Y574200
X881148Y574700
X876148Y580200
X870815Y585200
X868148Y589700
X850880Y588932
X837148Y587700
X833648Y572700
X843648
X859060Y569322
X859148Y578700
X876148Y567900
X884400Y562700
X886148Y589200
X891148
X892148Y584700
X896900Y592200
X898148Y513200
X902648
X907148
X912148
Y508200
Y503700
Y499200
Y494700
Y490200
Y485700
X907148
X902648
X898148
X893648
X888648
X887148Y490200
X893648Y513200
X858648Y500700
X865400Y480700
X831400
X829648Y492139
X774648Y635200
X776148Y685700
X762148Y674984
Y706480
X773959Y761598
X789648Y719070
X789148Y694700
X788875Y665680
Y660720
X814287Y660728
X814400Y665700
X821648Y654200
X809657Y650191
X812657Y645191
X791648Y636700
X821400Y678700
X834648Y710200
X851400Y705700
X930230Y716700
X929735Y744574
X929735Y749806
X921900Y655700
X925911Y650846
X924648Y646200
X916648Y645200
X913350Y649902
X912148Y661200
X910148Y666200
X910648Y625200
X927021Y636078
X944400Y715200
X952648
X958648
X959237Y719958
X955648Y724200
X953648Y728200
X947400Y743200
X957900Y749700
X946400Y761700
X980148Y724700
T04
X840368Y466269
X860054
T05
X796648Y530900
X806648
Y540900
X796648
Y550900
X806648
Y560900
Y570900
Y580900
X796648
Y570900
Y560900
Y590900
X806648
Y600900
X796648
Y610900
X806648
Y620900
X796648
X881648Y709200
X891648
X901648
X911648
X921648
T06
X945594Y583078
Y600794
X971184
Y583078
X923290Y669905
Y695495
X941006
Y669905
T07
X839648Y775200
X864648
T08
X761089Y462267
X788648Y462200
X958648
X986207Y462133
X981152Y548775
Y618775
X761089Y618774
Y548774
X985648Y782267
X904648Y782200
X788648
X761089Y782267
M30
