G04*
G04 #@! TF.GenerationSoftware,Altium Limited,Altium Designer,22.5.1 (42)*
G04*
G04 Layer_Color=255*
%FSLAX25Y25*%
%MOIN*%
G70*
G04*
G04 #@! TF.SameCoordinates,59F3AC89-7B28-4FAD-B6AF-993134B08C1D*
G04*
G04*
G04 #@! TF.FilePolarity,Positive*
G04*
G01*
G75*
%ADD120C,0.06693*%
%ADD121C,0.06102*%
%ADD122R,0.06102X0.06102*%
%ADD123C,0.01181*%
%ADD124O,0.05118X0.10236*%
%ADD125O,0.04331X0.08661*%
%ADD126C,0.05709*%
%ADD127O,0.03740X0.07480*%
%ADD128C,0.11811*%
D120*
X929846Y600794D02*
D03*
X955436D02*
D03*
X929846Y583078D02*
D03*
X955436D02*
D03*
X907542Y669905D02*
D03*
Y695495D02*
D03*
X925258Y669905D02*
D03*
Y695495D02*
D03*
D121*
X780900Y560900D02*
D03*
X790900D02*
D03*
Y550900D02*
D03*
X780900D02*
D03*
X790900Y540900D02*
D03*
X780900D02*
D03*
X790900Y530900D02*
D03*
X780900D02*
D03*
X790900Y620900D02*
D03*
Y610900D02*
D03*
X780900D02*
D03*
X790900Y600900D02*
D03*
X780900D02*
D03*
X790900Y590900D02*
D03*
X780900D02*
D03*
Y570900D02*
D03*
Y580900D02*
D03*
X790900D02*
D03*
Y570900D02*
D03*
X875900Y709200D02*
D03*
X885900D02*
D03*
X895900D02*
D03*
X905900D02*
D03*
D122*
X780900Y620900D02*
D03*
X865900Y709200D02*
D03*
D123*
X846207Y628500D02*
D03*
X851719D02*
D03*
X846207Y634012D02*
D03*
X851719D02*
D03*
Y639524D02*
D03*
X846207D02*
D03*
X843495Y636724D02*
D03*
X849006D02*
D03*
X854518D02*
D03*
Y631213D02*
D03*
X843495D02*
D03*
D124*
X907586Y791300D02*
D03*
X943964D02*
D03*
D125*
X908767Y770198D02*
D03*
X942783D02*
D03*
D126*
X824621Y466269D02*
D03*
X844306D02*
D03*
D127*
X820683Y455639D02*
D03*
X848243D02*
D03*
D128*
X848900Y775200D02*
D03*
X823900D02*
D03*
M02*
