G04*
G04 #@! TF.GenerationSoftware,Altium Limited,Altium Designer,22.5.1 (42)*
G04*
G04 Layer_Color=16711935*
%FSLAX25Y25*%
%MOIN*%
G70*
G04*
G04 #@! TF.SameCoordinates,75008074-F7BD-429D-95DE-B313E7B70AFA*
G04*
G04*
G04 #@! TF.FilePolarity,Negative*
G04*
G01*
G75*
%ADD98O,0.04331X0.08071*%
%ADD99C,0.06299*%
%ADD100C,0.01772*%
%ADD101C,0.12402*%
%ADD102O,0.05709X0.10827*%
%ADD103O,0.04921X0.09252*%
%ADD104R,0.06693X0.06693*%
%ADD105C,0.06693*%
%ADD106C,0.06591*%
%ADD107C,0.02559*%
%ADD108C,0.05591*%
%ADD109C,0.03591*%
%ADD110C,0.24213*%
G36*
X907431Y781855D02*
X907277Y781867D01*
X907124Y781888D01*
X906972Y781916D01*
X906822Y781952D01*
X906674Y781996D01*
X906528Y782047D01*
X906385Y782106D01*
X906245Y782173D01*
X906110Y782247D01*
X905978Y782328D01*
X905850Y782415D01*
X905728Y782509D01*
X905610Y782610D01*
X905498Y782716D01*
X905392Y782828D01*
X905291Y782946D01*
X905197Y783068D01*
X905110Y783196D01*
X905029Y783328D01*
X904955Y783463D01*
X904889Y783603D01*
X904829Y783746D01*
X904778Y783891D01*
X904734Y784040D01*
X904698Y784190D01*
X904670Y784342D01*
X904649Y784495D01*
X904637Y784649D01*
X904633Y784804D01*
Y793859D01*
X904637Y794014D01*
X904649Y794168D01*
X904670Y794321D01*
X904698Y794473D01*
X904734Y794623D01*
X904778Y794772D01*
X904829Y794917D01*
X904889Y795060D01*
X904955Y795200D01*
X905029Y795335D01*
X905110Y795467D01*
X905197Y795595D01*
X905291Y795717D01*
X905392Y795835D01*
X905498Y795947D01*
X905610Y796053D01*
X905728Y796154D01*
X905850Y796248D01*
X905978Y796336D01*
X906110Y796416D01*
X906245Y796490D01*
X906385Y796557D01*
X906528Y796616D01*
X906674Y796667D01*
X906822Y796711D01*
X906972Y796747D01*
X907124Y796775D01*
X907277Y796796D01*
X907431Y796808D01*
X907586Y796812D01*
X907740Y796808D01*
X907895Y796796D01*
X908048Y796775D01*
X908200Y796747D01*
X908350Y796711D01*
X908498Y796667D01*
X908644Y796616D01*
X908787Y796557D01*
X908926Y796490D01*
X909062Y796416D01*
X909194Y796336D01*
X909322Y796248D01*
X909444Y796154D01*
X909562Y796053D01*
X909674Y795947D01*
X909780Y795835D01*
X909881Y795717D01*
X909975Y795595D01*
X910062Y795467D01*
X910143Y795335D01*
X910217Y795200D01*
X910283Y795060D01*
X910343Y794917D01*
X910394Y794772D01*
X910438Y794623D01*
X910474Y794473D01*
X910502Y794321D01*
X910522Y794168D01*
X910535Y794014D01*
X910539Y793859D01*
Y784804D01*
X910535Y784649D01*
X910522Y784495D01*
X910502Y784342D01*
X910474Y784190D01*
X910438Y784040D01*
X910394Y783891D01*
X910343Y783746D01*
X910283Y783603D01*
X910217Y783463D01*
X910143Y783328D01*
X910062Y783196D01*
X909975Y783068D01*
X909881Y782946D01*
X909780Y782828D01*
X909674Y782716D01*
X909562Y782610D01*
X909444Y782509D01*
X909322Y782415D01*
X909194Y782328D01*
X909062Y782247D01*
X908926Y782173D01*
X908787Y782106D01*
X908644Y782047D01*
X908498Y781996D01*
X908350Y781952D01*
X908200Y781916D01*
X908048Y781888D01*
X907895Y781867D01*
X907740Y781855D01*
X907586Y781851D01*
X907431Y781855D01*
D02*
G37*
G36*
X943809D02*
X943655Y781867D01*
X943502Y781888D01*
X943350Y781916D01*
X943200Y781952D01*
X943052Y781996D01*
X942906Y782047D01*
X942763Y782106D01*
X942623Y782173D01*
X942488Y782247D01*
X942356Y782328D01*
X942228Y782415D01*
X942106Y782509D01*
X941988Y782610D01*
X941876Y782716D01*
X941770Y782828D01*
X941669Y782946D01*
X941575Y783068D01*
X941488Y783196D01*
X941407Y783328D01*
X941333Y783463D01*
X941266Y783603D01*
X941207Y783746D01*
X941156Y783891D01*
X941112Y784040D01*
X941076Y784190D01*
X941047Y784342D01*
X941027Y784495D01*
X941015Y784649D01*
X941011Y784804D01*
Y793859D01*
X941015Y794014D01*
X941027Y794168D01*
X941047Y794321D01*
X941076Y794473D01*
X941112Y794623D01*
X941156Y794772D01*
X941207Y794917D01*
X941266Y795060D01*
X941333Y795200D01*
X941407Y795335D01*
X941488Y795467D01*
X941575Y795595D01*
X941669Y795717D01*
X941770Y795835D01*
X941876Y795947D01*
X941988Y796053D01*
X942106Y796154D01*
X942228Y796248D01*
X942356Y796336D01*
X942488Y796416D01*
X942623Y796490D01*
X942763Y796557D01*
X942906Y796616D01*
X943052Y796667D01*
X943200Y796711D01*
X943350Y796747D01*
X943502Y796775D01*
X943655Y796796D01*
X943809Y796808D01*
X943964Y796812D01*
X944118Y796808D01*
X944273Y796796D01*
X944426Y796775D01*
X944578Y796747D01*
X944728Y796711D01*
X944876Y796667D01*
X945022Y796616D01*
X945165Y796557D01*
X945304Y796490D01*
X945440Y796416D01*
X945572Y796336D01*
X945700Y796248D01*
X945822Y796154D01*
X945940Y796053D01*
X946052Y795947D01*
X946158Y795835D01*
X946259Y795717D01*
X946353Y795595D01*
X946440Y795467D01*
X946521Y795335D01*
X946595Y795200D01*
X946661Y795060D01*
X946721Y794917D01*
X946772Y794772D01*
X946816Y794623D01*
X946852Y794473D01*
X946880Y794321D01*
X946900Y794168D01*
X946913Y794014D01*
X946917Y793859D01*
Y784804D01*
X946913Y784649D01*
X946900Y784495D01*
X946880Y784342D01*
X946852Y784190D01*
X946816Y784040D01*
X946772Y783891D01*
X946721Y783746D01*
X946661Y783603D01*
X946595Y783463D01*
X946521Y783328D01*
X946440Y783196D01*
X946353Y783068D01*
X946259Y782946D01*
X946158Y782828D01*
X946052Y782716D01*
X945940Y782610D01*
X945822Y782509D01*
X945700Y782415D01*
X945572Y782328D01*
X945440Y782247D01*
X945304Y782173D01*
X945165Y782106D01*
X945022Y782047D01*
X944876Y781996D01*
X944728Y781952D01*
X944578Y781916D01*
X944426Y781888D01*
X944273Y781867D01*
X944118Y781855D01*
X943964Y781851D01*
X943809Y781855D01*
D02*
G37*
D98*
X848243Y455639D02*
D03*
X820683D02*
D03*
D99*
X844306Y466269D02*
D03*
X824621D02*
D03*
D100*
X846207Y639524D02*
D03*
X843495Y631213D02*
D03*
X854518D02*
D03*
Y636724D02*
D03*
X849006D02*
D03*
X843495D02*
D03*
X851719Y639524D02*
D03*
Y634012D02*
D03*
X846207D02*
D03*
X851719Y628500D02*
D03*
X846207D02*
D03*
D101*
X848900Y775200D02*
D03*
X823900D02*
D03*
D102*
X907586Y791300D02*
D03*
X943964D02*
D03*
D103*
X908767Y770198D02*
D03*
X942783D02*
D03*
D104*
X865900Y709200D02*
D03*
X780900Y620900D02*
D03*
D105*
X875900Y709200D02*
D03*
X885900D02*
D03*
X895900D02*
D03*
X905900D02*
D03*
X790900Y570900D02*
D03*
Y580900D02*
D03*
X780900D02*
D03*
Y570900D02*
D03*
Y590900D02*
D03*
X790900D02*
D03*
X780900Y600900D02*
D03*
X790900D02*
D03*
X780900Y610900D02*
D03*
X790900D02*
D03*
Y620900D02*
D03*
X780900Y530900D02*
D03*
X790900D02*
D03*
X780900Y540900D02*
D03*
X790900D02*
D03*
X780900Y550900D02*
D03*
X790900D02*
D03*
Y560900D02*
D03*
X780900D02*
D03*
D106*
X758900Y635200D02*
D03*
X818900Y710200D02*
D03*
X761400Y685200D02*
D03*
D107*
X923610Y727822D02*
D03*
Y732153D02*
D03*
X927940Y727822D02*
D03*
Y732153D02*
D03*
X936990Y645444D02*
D03*
Y641507D02*
D03*
Y637570D02*
D03*
X933053Y645444D02*
D03*
Y641507D02*
D03*
Y637570D02*
D03*
X929116Y645444D02*
D03*
Y641507D02*
D03*
Y637570D02*
D03*
X925179Y645444D02*
D03*
Y641507D02*
D03*
Y637570D02*
D03*
D108*
X773900Y719070D02*
D03*
D109*
X913986Y744574D02*
D03*
X913986Y749806D02*
D03*
X937900Y728200D02*
D03*
X936900Y715200D02*
D03*
X942900D02*
D03*
X939900Y724200D02*
D03*
X914461Y584325D02*
D03*
X829400Y481139D02*
D03*
X835400Y494139D02*
D03*
X817900Y572700D02*
D03*
X813900Y492139D02*
D03*
X894900Y625200D02*
D03*
X911273Y636078D02*
D03*
X914482Y716700D02*
D03*
X928540Y621044D02*
D03*
X827900Y572700D02*
D03*
X811400Y467700D02*
D03*
X798539Y660728D02*
D03*
X773127Y660720D02*
D03*
X842900Y500700D02*
D03*
X835132Y588932D02*
D03*
X773127Y665680D02*
D03*
X773400Y694700D02*
D03*
X843400Y578700D02*
D03*
X860400Y580200D02*
D03*
Y567900D02*
D03*
X855067Y585200D02*
D03*
X852400Y589700D02*
D03*
X843312Y569322D02*
D03*
X870400Y589200D02*
D03*
X876400Y584700D02*
D03*
X875400Y589200D02*
D03*
X865400Y574700D02*
D03*
X872900Y580200D02*
D03*
X872900Y574200D02*
D03*
X906300Y579700D02*
D03*
X793909Y650191D02*
D03*
Y645191D02*
D03*
X900900Y645200D02*
D03*
X896400Y661200D02*
D03*
X910163Y650846D02*
D03*
X897602Y649902D02*
D03*
X908900Y646200D02*
D03*
D110*
X773900Y782200D02*
D03*
Y460200D02*
D03*
X923900Y684200D02*
D03*
X941900Y460200D02*
D03*
M02*
