G04*
G04 #@! TF.GenerationSoftware,Altium Limited,Altium Designer,22.5.1 (42)*
G04*
G04 Layer_Color=2752767*
%FSLAX25Y25*%
%MOIN*%
G70*
G04*
G04 #@! TF.SameCoordinates,75008074-F7BD-429D-95DE-B313E7B70AFA*
G04*
G04*
G04 #@! TF.FilePolarity,Positive*
G04*
G01*
G75*
%ADD15C,0.00500*%
%ADD152C,0.00667*%
%ADD153C,0.00400*%
D15*
X848243Y453639D02*
X846243Y457639D01*
X850243D01*
X848243Y453639D01*
X820683D02*
X818684Y457639D01*
X822684D01*
X820683Y453639D01*
X844207Y637524D02*
X845207Y639524D01*
X844207Y641524D01*
X846207Y640524D01*
X848207Y641524D01*
X847207Y639524D01*
X848207Y637524D01*
X846207Y638524D01*
X844207Y637524D01*
X841494Y629213D02*
X842494Y631213D01*
X841494Y633213D01*
X843495Y632213D01*
X845494Y633213D01*
X844495Y631213D01*
X845494Y629213D01*
X843495Y630213D01*
X841494Y629213D01*
X852518D02*
X853518Y631213D01*
X852518Y633213D01*
X854518Y632213D01*
X856518Y633213D01*
X855518Y631213D01*
X856518Y629213D01*
X854518Y630213D01*
X852518Y629213D01*
Y634724D02*
X853518Y636724D01*
X852518Y638724D01*
X854518Y637724D01*
X856518Y638724D01*
X855518Y636724D01*
X856518Y634724D01*
X854518Y635724D01*
X852518Y634724D01*
X847006D02*
X848006Y636724D01*
X847006Y638724D01*
X849006Y637724D01*
X851006Y638724D01*
X850006Y636724D01*
X851006Y634724D01*
X849006Y635724D01*
X847006Y634724D01*
X841494D02*
X842494Y636724D01*
X841494Y638724D01*
X843495Y637724D01*
X845494Y638724D01*
X844495Y636724D01*
X845494Y634724D01*
X843495Y635724D01*
X841494Y634724D01*
X849719Y637524D02*
X850719Y639524D01*
X849719Y641524D01*
X851719Y640524D01*
X853719Y641524D01*
X852719Y639524D01*
X853719Y637524D01*
X851719Y638524D01*
X849719Y637524D01*
Y632012D02*
X850719Y634012D01*
X849719Y636012D01*
X851719Y635012D01*
X853719Y636012D01*
X852719Y634012D01*
X853719Y632012D01*
X851719Y633012D01*
X849719Y632012D01*
X844207D02*
X845207Y634012D01*
X844207Y636012D01*
X846207Y635012D01*
X848207Y636012D01*
X847207Y634012D01*
X848207Y632012D01*
X846207Y633012D01*
X844207Y632012D01*
X849719Y626500D02*
X850719Y628500D01*
X849719Y630500D01*
X851719Y629500D01*
X853719Y630500D01*
X852719Y628500D01*
X853719Y626500D01*
X851719Y627500D01*
X849719Y626500D01*
X844207D02*
X845207Y628500D01*
X844207Y630500D01*
X846207Y629500D01*
X848207Y630500D01*
X847207Y628500D01*
X848207Y626500D01*
X846207Y627500D01*
X844207Y626500D01*
X848900Y773200D02*
X849900Y774200D01*
X850900D01*
X849900Y775200D01*
X850900Y776200D01*
X849900D01*
X848900Y777200D01*
X847900Y776200D01*
X846900D01*
X847900Y775200D01*
X846900Y774200D01*
X847900D01*
X848900Y773200D01*
X823900D02*
X824900Y774200D01*
X825900D01*
X824900Y775200D01*
X825900Y776200D01*
X824900D01*
X823900Y777200D01*
X822900Y776200D01*
X821900D01*
X822900Y775200D01*
X821900Y774200D01*
X822900D01*
X823900Y773200D01*
X906586Y790300D02*
Y789300D01*
X908586D01*
Y790300D01*
X909586D01*
Y792300D01*
X908586D01*
Y793300D01*
X906586D01*
Y792300D01*
X905586D01*
Y790300D01*
X906586D01*
X942964D02*
Y789300D01*
X944964D01*
Y790300D01*
X945964D01*
Y792300D01*
X944964D01*
Y793300D01*
X942964D01*
Y792300D01*
X941964D01*
Y790300D01*
X942964D01*
X906767Y768198D02*
X907767D01*
X908767Y769198D01*
X909767Y768198D01*
X910767D01*
Y769198D01*
X909767Y770198D01*
X910767Y771198D01*
Y772198D01*
X909767D01*
X908767Y771198D01*
X907767Y772198D01*
X906767D01*
Y771198D01*
X907767Y770198D01*
X906767Y769198D01*
Y768198D01*
X940783D02*
X941783D01*
X942783Y769198D01*
X943783Y768198D01*
X944783D01*
Y769198D01*
X943783Y770198D01*
X944783Y771198D01*
Y772198D01*
X943783D01*
X942783Y771198D01*
X941783Y772198D01*
X940783D01*
Y771198D01*
X941783Y770198D01*
X940783Y769198D01*
Y768198D01*
X863900Y707200D02*
Y711200D01*
X867900D01*
Y707200D01*
X863900D01*
X873900D02*
Y711200D01*
X877900D01*
Y707200D01*
X873900D01*
X883900D02*
Y711200D01*
X887900D01*
Y707200D01*
X883900D01*
X893900D02*
Y711200D01*
X897900D01*
Y707200D01*
X893900D01*
X903900D02*
Y711200D01*
X907900D01*
Y707200D01*
X903900D01*
X788900Y568900D02*
Y572900D01*
X792900D01*
Y568900D01*
X788900D01*
Y578900D02*
Y582900D01*
X792900D01*
Y578900D01*
X788900D01*
X778900D02*
Y582900D01*
X782900D01*
Y578900D01*
X778900D01*
Y568900D02*
Y572900D01*
X782900D01*
Y568900D01*
X778900D01*
Y588900D02*
Y592900D01*
X782900D01*
Y588900D01*
X778900D01*
X788900D02*
Y592900D01*
X792900D01*
Y588900D01*
X788900D01*
X778900Y598900D02*
Y602900D01*
X782900D01*
Y598900D01*
X778900D01*
X788900D02*
Y602900D01*
X792900D01*
Y598900D01*
X788900D01*
X778900Y608900D02*
Y612900D01*
X782900D01*
Y608900D01*
X778900D01*
X788900D02*
Y612900D01*
X792900D01*
Y608900D01*
X788900D01*
X778900Y618900D02*
Y622900D01*
X782900D01*
Y618900D01*
X778900D01*
X788900D02*
Y622900D01*
X792900D01*
Y618900D01*
X788900D01*
X778900Y528900D02*
Y532900D01*
X782900D01*
Y528900D01*
X778900D01*
X788900D02*
Y532900D01*
X792900D01*
Y528900D01*
X788900D01*
X778900Y538900D02*
Y542900D01*
X782900D01*
Y538900D01*
X778900D01*
X788900D02*
Y542900D01*
X792900D01*
Y538900D01*
X788900D01*
X778900Y548900D02*
Y552900D01*
X782900D01*
Y548900D01*
X778900D01*
X788900D02*
Y552900D01*
X792900D01*
Y548900D01*
X788900D01*
Y558900D02*
Y562900D01*
X792900D01*
Y558900D01*
X788900D01*
X778900D02*
Y562900D01*
X782900D01*
Y558900D01*
X778900D01*
X758900Y633200D02*
X756900Y637200D01*
X760900D01*
X758900Y633200D01*
Y634000D02*
X757700Y636400D01*
X760100D01*
X758900Y634000D01*
X921610Y725822D02*
X922610Y727822D01*
X921610Y729822D01*
X923610Y728822D01*
X925610Y729822D01*
X924610Y727822D01*
X925610Y725822D01*
X923610Y726822D01*
X921610Y725822D01*
Y730153D02*
X922610Y732153D01*
X921610Y734153D01*
X923610Y733153D01*
X925610Y734153D01*
X924610Y732153D01*
X925610Y730153D01*
X923610Y731153D01*
X921610Y730153D01*
X925940Y725822D02*
X926940Y727822D01*
X925940Y729822D01*
X927940Y728822D01*
X929940Y729822D01*
X928940Y727822D01*
X929940Y725822D01*
X927940Y726822D01*
X925940Y725822D01*
Y730153D02*
X926940Y732153D01*
X925940Y734153D01*
X927940Y733153D01*
X929940Y734153D01*
X928940Y732153D01*
X929940Y730153D01*
X927940Y731153D01*
X925940Y730153D01*
X934990Y643444D02*
X935990Y645444D01*
X934990Y647444D01*
X936990Y646444D01*
X938990Y647444D01*
X937990Y645444D01*
X938990Y643444D01*
X936990Y644444D01*
X934990Y643444D01*
Y639507D02*
X935990Y641507D01*
X934990Y643507D01*
X936990Y642507D01*
X938990Y643507D01*
X937990Y641507D01*
X938990Y639507D01*
X936990Y640507D01*
X934990Y639507D01*
Y635570D02*
X935990Y637570D01*
X934990Y639570D01*
X936990Y638570D01*
X938990Y639570D01*
X937990Y637570D01*
X938990Y635570D01*
X936990Y636570D01*
X934990Y635570D01*
X931053Y643444D02*
X932053Y645444D01*
X931053Y647444D01*
X933053Y646444D01*
X935053Y647444D01*
X934053Y645444D01*
X935053Y643444D01*
X933053Y644444D01*
X931053Y643444D01*
Y639507D02*
X932053Y641507D01*
X931053Y643507D01*
X933053Y642507D01*
X935053Y643507D01*
X934053Y641507D01*
X935053Y639507D01*
X933053Y640507D01*
X931053Y639507D01*
Y635570D02*
X932053Y637570D01*
X931053Y639570D01*
X933053Y638570D01*
X935053Y639570D01*
X934053Y637570D01*
X935053Y635570D01*
X933053Y636570D01*
X931053Y635570D01*
X927116Y643444D02*
X928116Y645444D01*
X927116Y647444D01*
X929116Y646444D01*
X931116Y647444D01*
X930116Y645444D01*
X931116Y643444D01*
X929116Y644444D01*
X927116Y643444D01*
Y639507D02*
X928116Y641507D01*
X927116Y643507D01*
X929116Y642507D01*
X931116Y643507D01*
X930116Y641507D01*
X931116Y639507D01*
X929116Y640507D01*
X927116Y639507D01*
Y635570D02*
X928116Y637570D01*
X927116Y639570D01*
X929116Y638570D01*
X931116Y639570D01*
X930116Y637570D01*
X931116Y635570D01*
X929116Y636570D01*
X927116Y635570D01*
X923179Y643444D02*
X924179Y645444D01*
X923179Y647444D01*
X925179Y646444D01*
X927179Y647444D01*
X926179Y645444D01*
X927179Y643444D01*
X925179Y644444D01*
X923179Y643444D01*
Y639507D02*
X924179Y641507D01*
X923179Y643507D01*
X925179Y642507D01*
X927179Y643507D01*
X926179Y641507D01*
X927179Y639507D01*
X925179Y640507D01*
X923179Y639507D01*
Y635570D02*
X924179Y637570D01*
X923179Y639570D01*
X925179Y638570D01*
X927179Y639570D01*
X926179Y637570D01*
X927179Y635570D01*
X925179Y636570D01*
X923179Y635570D01*
X911987Y742574D02*
Y746574D01*
X915987D01*
Y742574D01*
X911987D01*
X912786Y743374D02*
Y745774D01*
X915187D01*
Y743374D01*
X912786D01*
X911987Y747806D02*
Y751806D01*
X915987D01*
Y747806D01*
X911987D01*
X912786Y748606D02*
Y751006D01*
X915187D01*
Y748606D01*
X912786D01*
X935900Y726200D02*
Y730200D01*
X939900D01*
Y726200D01*
X935900D01*
X936700Y727000D02*
Y729400D01*
X939100D01*
Y727000D01*
X936700D01*
X934900Y713200D02*
Y717200D01*
X938900D01*
Y713200D01*
X934900D01*
X935700Y714000D02*
Y716400D01*
X938100D01*
Y714000D01*
X935700D01*
X940900Y713200D02*
Y717200D01*
X944900D01*
Y713200D01*
X940900D01*
X941700Y714000D02*
Y716400D01*
X944100D01*
Y714000D01*
X941700D01*
X937900Y722200D02*
Y726200D01*
X941900D01*
Y722200D01*
X937900D01*
X938700Y723000D02*
Y725400D01*
X941100D01*
Y723000D01*
X938700D01*
X912461Y582325D02*
Y586325D01*
X916461D01*
Y582325D01*
X912461D01*
X913261Y583124D02*
Y585525D01*
X915661D01*
Y583124D01*
X913261D01*
X827400Y479139D02*
Y483139D01*
X831400D01*
Y479139D01*
X827400D01*
X828200Y479939D02*
Y482339D01*
X830600D01*
Y479939D01*
X828200D01*
X833400Y492139D02*
Y496139D01*
X837400D01*
Y492139D01*
X833400D01*
X834200Y492939D02*
Y495339D01*
X836600D01*
Y492939D01*
X834200D01*
X815900Y570700D02*
Y574700D01*
X819900D01*
Y570700D01*
X815900D01*
X816700Y571500D02*
Y573900D01*
X819100D01*
Y571500D01*
X816700D01*
X811900Y490139D02*
Y494139D01*
X815900D01*
Y490139D01*
X811900D01*
X812700Y490939D02*
Y493339D01*
X815100D01*
Y490939D01*
X812700D01*
X892900Y623200D02*
Y627200D01*
X896900D01*
Y623200D01*
X892900D01*
X893700Y624000D02*
Y626400D01*
X896100D01*
Y624000D01*
X893700D01*
X909273Y634078D02*
Y638078D01*
X913273D01*
Y634078D01*
X909273D01*
X910073Y634878D02*
Y637278D01*
X912473D01*
Y634878D01*
X910073D01*
X912482Y714700D02*
Y718700D01*
X916482D01*
Y714700D01*
X912482D01*
X913282Y715500D02*
Y717900D01*
X915682D01*
Y715500D01*
X913282D01*
X926540Y619044D02*
Y623044D01*
X930540D01*
Y619044D01*
X926540D01*
X927340Y619844D02*
Y622244D01*
X929740D01*
Y619844D01*
X927340D01*
X825900Y570700D02*
Y574700D01*
X829900D01*
Y570700D01*
X825900D01*
X826700Y571500D02*
Y573900D01*
X829100D01*
Y571500D01*
X826700D01*
X809400Y465700D02*
Y469700D01*
X813400D01*
Y465700D01*
X809400D01*
X810200Y466500D02*
Y468900D01*
X812600D01*
Y466500D01*
X810200D01*
X796539Y658728D02*
Y662727D01*
X800539D01*
Y658728D01*
X796539D01*
X797339Y659527D02*
Y661928D01*
X799739D01*
Y659527D01*
X797339D01*
X771127Y658720D02*
Y662720D01*
X775127D01*
Y658720D01*
X771127D01*
X771927Y659520D02*
Y661920D01*
X774327D01*
Y659520D01*
X771927D01*
X840900Y498700D02*
Y502700D01*
X844900D01*
Y498700D01*
X840900D01*
X841700Y499500D02*
Y501900D01*
X844100D01*
Y499500D01*
X841700D01*
X833132Y586932D02*
Y590932D01*
X837132D01*
Y586932D01*
X833132D01*
X833932Y587732D02*
Y590132D01*
X836332D01*
Y587732D01*
X833932D01*
X771900Y782200D02*
X773900Y784200D01*
X775900Y782200D01*
X773900Y780200D01*
X771900Y782200D01*
Y460200D02*
X773900Y462200D01*
X775900Y460200D01*
X773900Y458200D01*
X771900Y460200D01*
X921900Y684200D02*
X923900Y686200D01*
X925900Y684200D01*
X923900Y682200D01*
X921900Y684200D01*
X939900Y460200D02*
X941900Y462200D01*
X943900Y460200D01*
X941900Y458200D01*
X939900Y460200D01*
X771127Y663680D02*
Y667680D01*
X775127D01*
Y663680D01*
X771127D01*
X771927Y664480D02*
Y666880D01*
X774327D01*
Y664480D01*
X771927D01*
X771400Y692700D02*
Y696700D01*
X775400D01*
Y692700D01*
X771400D01*
X772200Y693500D02*
Y695900D01*
X774600D01*
Y693500D01*
X772200D01*
X841400Y576700D02*
Y580700D01*
X845400D01*
Y576700D01*
X841400D01*
X842200Y577500D02*
Y579900D01*
X844600D01*
Y577500D01*
X842200D01*
X858400Y578200D02*
Y582200D01*
X862400D01*
Y578200D01*
X858400D01*
X859200Y579000D02*
Y581400D01*
X861600D01*
Y579000D01*
X859200D01*
X858400Y565900D02*
Y569900D01*
X862400D01*
Y565900D01*
X858400D01*
X859200Y566700D02*
Y569100D01*
X861600D01*
Y566700D01*
X859200D01*
X853067Y583200D02*
Y587200D01*
X857067D01*
Y583200D01*
X853067D01*
X853867Y584000D02*
Y586400D01*
X856267D01*
Y584000D01*
X853867D01*
X850400Y587700D02*
Y591700D01*
X854400D01*
Y587700D01*
X850400D01*
X851200Y588500D02*
Y590900D01*
X853600D01*
Y588500D01*
X851200D01*
X841312Y567322D02*
Y571322D01*
X845312D01*
Y567322D01*
X841312D01*
X842112Y568122D02*
Y570522D01*
X844512D01*
Y568122D01*
X842112D01*
X868400Y587200D02*
Y591200D01*
X872400D01*
Y587200D01*
X868400D01*
X869200Y588000D02*
Y590400D01*
X871600D01*
Y588000D01*
X869200D01*
X874400Y582700D02*
Y586700D01*
X878400D01*
Y582700D01*
X874400D01*
X875200Y583500D02*
Y585900D01*
X877600D01*
Y583500D01*
X875200D01*
X873400Y587200D02*
Y591200D01*
X877400D01*
Y587200D01*
X873400D01*
X874200Y588000D02*
Y590400D01*
X876600D01*
Y588000D01*
X874200D01*
X863400Y572700D02*
Y576700D01*
X867400D01*
Y572700D01*
X863400D01*
X864200Y573500D02*
Y575900D01*
X866600D01*
Y573500D01*
X864200D01*
X870900Y578200D02*
Y582200D01*
X874900D01*
Y578200D01*
X870900D01*
X871700Y579000D02*
Y581400D01*
X874100D01*
Y579000D01*
X871700D01*
X870900Y572200D02*
Y576200D01*
X874900D01*
Y572200D01*
X870900D01*
X871700Y573000D02*
Y575400D01*
X874100D01*
Y573000D01*
X871700D01*
X904300Y577700D02*
Y581700D01*
X908300D01*
Y577700D01*
X904300D01*
X905100Y578500D02*
Y580900D01*
X907500D01*
Y578500D01*
X905100D01*
X791909Y648191D02*
Y652191D01*
X795909D01*
Y648191D01*
X791909D01*
X792709Y648991D02*
Y651391D01*
X795109D01*
Y648991D01*
X792709D01*
X791909Y643191D02*
Y647191D01*
X795909D01*
Y643191D01*
X791909D01*
X792709Y643991D02*
Y646391D01*
X795109D01*
Y643991D01*
X792709D01*
X898900Y643200D02*
Y647200D01*
X902900D01*
Y643200D01*
X898900D01*
X899700Y644000D02*
Y646400D01*
X902100D01*
Y644000D01*
X899700D01*
X894400Y659200D02*
Y663200D01*
X898400D01*
Y659200D01*
X894400D01*
X895200Y660000D02*
Y662400D01*
X897600D01*
Y660000D01*
X895200D01*
X908163Y648846D02*
Y652846D01*
X912163D01*
Y648846D01*
X908163D01*
X908963Y649646D02*
Y652046D01*
X911363D01*
Y649646D01*
X908963D01*
X895602Y647902D02*
Y651902D01*
X899602D01*
Y647902D01*
X895602D01*
X896402Y648702D02*
Y651102D01*
X898802D01*
Y648702D01*
X896402D01*
X906900Y644200D02*
Y648200D01*
X910900D01*
Y644200D01*
X906900D01*
X907700Y645000D02*
Y647400D01*
X910100D01*
Y645000D01*
X907700D01*
D152*
X846306Y466269D02*
G03*
X846306Y466269I-2000J0D01*
G01*
X826620D02*
G03*
X826620Y466269I-2000J0D01*
G01*
X820900Y710200D02*
G03*
X820900Y710200I-2000J0D01*
G01*
X775900Y719070D02*
G03*
X775900Y719070I-2000J0D01*
G01*
X763400Y685200D02*
G03*
X763400Y685200I-2000J0D01*
G01*
D153*
X820100Y710200D02*
G03*
X820100Y710200I-1200J0D01*
G01*
X775100Y719070D02*
G03*
X775100Y719070I-1200J0D01*
G01*
X762600Y685200D02*
G03*
X762600Y685200I-1200J0D01*
G01*
M02*
