G04*
G04 #@! TF.GenerationSoftware,Altium Limited,Altium Designer,22.5.1 (42)*
G04*
G04 Layer_Physical_Order=3*
G04 Layer_Color=128*
%FSLAX25Y25*%
%MOIN*%
G70*
G04*
G04 #@! TF.SameCoordinates,75008074-F7BD-429D-95DE-B313E7B70AFA*
G04*
G04*
G04 #@! TF.FilePolarity,Negative*
G04*
G01*
G75*
%ADD134C,0.04000*%
%ADD138C,0.07808*%
%ADD142C,0.04816*%
G04:AMPARAMS|DCode=143|XSize=71.779mil|YSize=71.779mil|CornerRadius=0mil|HoleSize=0mil|Usage=FLASHONLY|Rotation=0.000|XOffset=0mil|YOffset=0mil|HoleType=Round|Shape=Relief|Width=4mil|Gap=4mil|Entries=4|*
%AMTHD143*
7,0,0,0.07178,0.06378,0.00400,45*
%
%ADD143THD143*%
%ADD144C,0.01587*%
%ADD145C,0.02800*%
%ADD146C,0.02000*%
%ADD147O,0.03162X0.05918*%
%ADD148C,0.04147*%
%ADD149O,0.03162X0.09068*%
%ADD150O,0.03162X0.07099*%
%ADD151C,0.20485*%
G36*
X891400Y669894D02*
X813900D01*
Y697700D01*
X891400D01*
Y669894D01*
D02*
G37*
G36*
X894400Y488200D02*
X874266D01*
Y510700D01*
X894400D01*
Y488200D01*
D02*
G37*
D134*
X891400Y669894D02*
Y697700D01*
X813900Y669894D02*
X891400D01*
X813900D02*
Y697700D01*
X891400D01*
X968900Y442700D02*
Y800200D01*
X746400D02*
X968900D01*
X746400Y442700D02*
Y800200D01*
Y442700D02*
X968900D01*
D138*
X848900Y775200D02*
D03*
X823900D02*
D03*
D142*
X865900Y709200D02*
D03*
X875900D02*
D03*
X885900D02*
D03*
X895900D02*
D03*
X905900D02*
D03*
X790900Y570900D02*
D03*
Y580900D02*
D03*
X780900D02*
D03*
Y570900D02*
D03*
Y590900D02*
D03*
X790900D02*
D03*
X780900Y600900D02*
D03*
X790900D02*
D03*
X780900Y610900D02*
D03*
X790900D02*
D03*
X780900Y620900D02*
D03*
Y530900D02*
D03*
X790900D02*
D03*
X780900Y540900D02*
D03*
X790900D02*
D03*
X780900Y550900D02*
D03*
X790900D02*
D03*
Y560900D02*
D03*
X780900D02*
D03*
D143*
X790900Y620900D02*
D03*
D144*
X846207Y639524D02*
D03*
X843495Y631213D02*
D03*
X854518D02*
D03*
Y636724D02*
D03*
X849006D02*
D03*
X843495D02*
D03*
X851719Y639524D02*
D03*
Y634012D02*
D03*
X846207D02*
D03*
X851719Y628500D02*
D03*
X846207D02*
D03*
X923610Y727822D02*
D03*
Y732153D02*
D03*
X927940Y727822D02*
D03*
Y732153D02*
D03*
X936990Y645444D02*
D03*
Y641507D02*
D03*
Y637570D02*
D03*
X933053Y645444D02*
D03*
Y641507D02*
D03*
Y637570D02*
D03*
X929116Y645444D02*
D03*
Y641507D02*
D03*
Y637570D02*
D03*
X925179Y645444D02*
D03*
Y641507D02*
D03*
Y637570D02*
D03*
D145*
X758900Y635200D02*
D03*
X818900Y710200D02*
D03*
X773900Y719070D02*
D03*
D146*
X913986Y749806D02*
D03*
X937900Y728200D02*
D03*
X936900Y715200D02*
D03*
X942900D02*
D03*
X939900Y724200D02*
D03*
X829400Y481139D02*
D03*
X835400Y494139D02*
D03*
X894900Y625200D02*
D03*
X911273Y636078D02*
D03*
X928540Y621044D02*
D03*
X827900Y572700D02*
D03*
X811400Y467700D02*
D03*
X773127Y660720D02*
D03*
X835132Y588932D02*
D03*
X773127Y665680D02*
D03*
X773400Y694700D02*
D03*
X843400Y578700D02*
D03*
X860400Y580200D02*
D03*
Y567900D02*
D03*
X855067Y585200D02*
D03*
X843312Y569322D02*
D03*
X870400Y589200D02*
D03*
X875400D02*
D03*
X865400Y574700D02*
D03*
X872900Y580200D02*
D03*
X872900Y574200D02*
D03*
X906300Y579700D02*
D03*
X793909Y650191D02*
D03*
Y645191D02*
D03*
X900900Y645200D02*
D03*
X896400Y661200D02*
D03*
X897602Y649902D02*
D03*
X908900Y646200D02*
D03*
D147*
X848243Y455639D02*
D03*
X820683D02*
D03*
D148*
X844306Y466269D02*
D03*
X824621D02*
D03*
D149*
X907586Y791300D02*
D03*
X943964D02*
D03*
D150*
X908767Y770198D02*
D03*
X942783D02*
D03*
D151*
X773900Y782200D02*
D03*
Y460200D02*
D03*
X923900Y684200D02*
D03*
X941900Y460200D02*
D03*
M02*
