G04*
G04 #@! TF.GenerationSoftware,Altium Limited,Altium Designer,22.5.1 (42)*
G04*
G04 Layer_Color=65535*
%FSLAX25Y25*%
%MOIN*%
G70*
G04*
G04 #@! TF.SameCoordinates,59F3AC89-7B28-4FAD-B6AF-993134B08C1D*
G04*
G04*
G04 #@! TF.FilePolarity,Positive*
G04*
G01*
G75*
%ADD10C,0.01000*%
%ADD11C,0.00394*%
%ADD12C,0.00984*%
%ADD13C,0.00787*%
%ADD14C,0.01496*%
%ADD15C,0.00600*%
%ADD16C,0.00500*%
%ADD17C,0.00591*%
%ADD18C,0.00630*%
%ADD19C,0.00200*%
%ADD20C,0.01575*%
G36*
X906834Y547088D02*
X906857Y547042D01*
X906984Y547008D01*
X907076Y546984D01*
X907203Y546950D01*
X907353Y546892D01*
X907468Y546846D01*
X907514Y546800D01*
X907664Y546743D01*
X907698Y546708D01*
X907744Y546685D01*
X907859Y546616D01*
X907928Y546547D01*
X907975Y546524D01*
X908067Y546432D01*
X908113Y546409D01*
X908182Y546340D01*
X908228Y546316D01*
X908389Y546201D01*
X908458Y546178D01*
X908620Y546109D01*
X908873Y545994D01*
X909034Y545971D01*
X909242Y545879D01*
X909426Y545856D01*
X909472Y545810D01*
X909887Y545741D01*
X909956Y545717D01*
X910140Y545671D01*
X910382Y545637D01*
X910474Y545614D01*
X910601Y545579D01*
X910762Y545556D01*
X911280Y545476D01*
X911419Y545453D01*
X911718Y545430D01*
X911994Y545383D01*
X912087Y545360D01*
X912317Y545337D01*
X912570Y545314D01*
X912709Y545291D01*
X912939Y545245D01*
X913169Y545222D01*
X913423Y545199D01*
X913883Y545130D01*
X914505Y545084D01*
X914644Y545061D01*
X914759Y545038D01*
X915012Y545015D01*
X915611Y544969D01*
X916084Y544911D01*
X916245Y544888D01*
X916683Y544865D01*
X916752Y544842D01*
X916971Y544807D01*
X917201Y544784D01*
X917593Y544761D01*
X917846Y544738D01*
X917984Y544715D01*
X918295Y544681D01*
X918871Y544635D01*
X918940Y544612D01*
X919182Y544577D01*
X919505Y544554D01*
X919689Y544531D01*
X919827Y544508D01*
X919942Y544485D01*
X920253Y544451D01*
X920610Y544416D01*
X920749Y544393D01*
X920864Y544370D01*
X921071Y544347D01*
X921371Y544324D01*
X921578Y544301D01*
X921693Y544278D01*
X921785Y544255D01*
X922096Y544220D01*
X922350Y544197D01*
X922419Y544174D01*
X922511Y544151D01*
X922672Y544128D01*
X922902Y544105D01*
X923121Y544070D01*
X923213Y544047D01*
X923329Y544024D01*
X923559Y544001D01*
X923743Y543978D01*
X924089Y543909D01*
X924296Y543886D01*
X924573Y543840D01*
X924665Y543817D01*
X924803Y543794D01*
X925010Y543771D01*
X925126Y543748D01*
X925229Y543713D01*
X925321Y543690D01*
X925483Y543667D01*
X925667Y543644D01*
X925736Y543621D01*
X925897Y543575D01*
X926128Y543552D01*
X926358Y543483D01*
X926761Y543425D01*
X926957Y543368D01*
X927118Y543345D01*
X927314Y543310D01*
X927406Y543287D01*
X927533Y543253D01*
X927694Y543229D01*
X927890Y543195D01*
X928017Y543160D01*
X928109Y543137D01*
X928374Y543080D01*
X928489Y543034D01*
X928627Y543011D01*
X928742Y542988D01*
X928834Y542965D01*
X928984Y542907D01*
X929191Y542884D01*
X929261Y542861D01*
X929376Y542815D01*
X929468Y542792D01*
X929652Y542769D01*
X929813Y542700D01*
X929975Y542677D01*
X930067Y542654D01*
X930182Y542607D01*
X930366Y542561D01*
X930505Y542538D01*
X930666Y542469D01*
X930827Y542446D01*
X930988Y542377D01*
X931081Y542354D01*
X931288Y542308D01*
X931449Y542239D01*
X931622Y542204D01*
X931749Y542147D01*
X931841Y542124D01*
X931968Y542089D01*
X932094Y542032D01*
X932336Y541974D01*
X932463Y541916D01*
X932670Y541870D01*
X932831Y541801D01*
X932981Y541767D01*
X933108Y541709D01*
X933292Y541663D01*
X933338Y541640D01*
X933499Y541571D01*
X933626Y541536D01*
X933753Y541479D01*
X933845Y541456D01*
X934075Y541363D01*
X934167Y541340D01*
X934375Y541248D01*
X934525Y541214D01*
X934628Y541156D01*
X934847Y541076D01*
X934882Y541041D01*
X935031Y541006D01*
X935273Y540903D01*
X935527Y540788D01*
X935619Y540765D01*
X935665Y540719D01*
X935757Y540695D01*
X935907Y540638D01*
X935941Y540603D01*
X936091Y540569D01*
X936287Y540465D01*
X936379Y540442D01*
X936494Y540373D01*
X936644Y540315D01*
X936748Y540258D01*
X936897Y540200D01*
X936932Y540166D01*
X937116Y540097D01*
X937508Y539912D01*
X937623Y539843D01*
X937738Y539797D01*
X938084Y539613D01*
X938706Y539290D01*
X938913Y539175D01*
X939028Y539129D01*
X939074Y539106D01*
X939120Y539060D01*
X939270Y539002D01*
X939443Y538899D01*
X939512Y538875D01*
X939581Y538806D01*
X939673Y538783D01*
X939742Y538714D01*
X939858Y538668D01*
X939996Y538576D01*
X940111Y538507D01*
X940434Y538323D01*
X940549Y538253D01*
X940595Y538231D01*
X940664Y538161D01*
X940814Y538104D01*
X940871Y538046D01*
X941033Y537954D01*
X941159Y537850D01*
X941194Y537816D01*
X941240Y537793D01*
X941309Y537724D01*
X941355Y537701D01*
X941447Y537608D01*
X941493Y537585D01*
X941551Y537505D01*
X941620Y537436D01*
X941643Y537390D01*
X941712Y537321D01*
X941735Y537275D01*
X941804Y537205D01*
X941896Y537044D01*
X942058Y536698D01*
X942127Y536537D01*
X942150Y536445D01*
X942173Y536284D01*
X942242Y536030D01*
X942219Y535362D01*
X942196Y535293D01*
X942173Y535201D01*
X942150Y534971D01*
X942058Y534763D01*
X941942Y534510D01*
X941919Y534418D01*
X941827Y534326D01*
X941804Y534280D01*
X941758Y534234D01*
X941735Y534188D01*
X941666Y534072D01*
X941643Y534003D01*
X941666Y533957D01*
X941850Y533773D01*
X941862Y533738D01*
X941908Y533715D01*
X943751Y531872D01*
X943797Y531895D01*
X943866Y531964D01*
X943912Y531987D01*
X943958Y532057D01*
X944004Y532080D01*
X944039Y532114D01*
X944062Y532160D01*
X944142Y532218D01*
X944269Y532345D01*
X944281Y532379D01*
X944327Y532402D01*
X944592Y532667D01*
X944603Y532702D01*
X944649Y532725D01*
X945144Y533220D01*
X945156Y533254D01*
X945202Y533278D01*
X945490Y533566D01*
X945502Y533600D01*
X945548Y533623D01*
X945813Y533888D01*
X945836Y533934D01*
X945928Y534003D01*
X945951Y534049D01*
X946020Y534095D01*
X946043Y534141D01*
X946078Y534176D01*
X946124Y534199D01*
X946181Y534280D01*
X946250Y534326D01*
X946262Y534360D01*
X946308Y534383D01*
X946366Y534441D01*
X946377Y534476D01*
X946423Y534499D01*
X946918Y534994D01*
X946930Y535028D01*
X946976Y535051D01*
X947264Y535339D01*
X947275Y535374D01*
X947322Y535397D01*
X947932Y536007D01*
X947943Y536042D01*
X947990Y536065D01*
X948024Y536100D01*
X948036Y536134D01*
X948082Y536157D01*
X948116Y536192D01*
X948139Y536238D01*
X948174Y536272D01*
X948220Y536295D01*
X948277Y536376D01*
X948358Y536434D01*
X948381Y536480D01*
X948427Y536503D01*
X948462Y536537D01*
X948485Y536583D01*
X948623Y536698D01*
X948692Y536768D01*
X948704Y536802D01*
X948750Y536825D01*
X949913Y537989D01*
X949925Y538023D01*
X949971Y538046D01*
X950236Y538311D01*
X950259Y538357D01*
X950339Y538415D01*
X950362Y538461D01*
X950408Y538484D01*
X950443Y538518D01*
X950466Y538564D01*
X950501Y538599D01*
X950547Y538622D01*
X950581Y538657D01*
X950593Y538691D01*
X950639Y538714D01*
X950789Y538864D01*
X950800Y538899D01*
X950846Y538922D01*
X952332Y540408D01*
X952355Y540454D01*
X952378Y540523D01*
X952367Y540534D01*
X952251Y540488D01*
X952159Y540465D01*
X952033Y540430D01*
X951906Y540373D01*
X951814Y540350D01*
X951687Y540315D01*
X951652Y540281D01*
X951503Y540246D01*
X951388Y540223D01*
X951192Y540143D01*
X951065Y540108D01*
X950938Y540050D01*
X950846Y540027D01*
X950720Y539993D01*
X950535Y539947D01*
X950432Y539935D01*
X950362Y539958D01*
X950236Y539993D01*
X950144Y540016D01*
X950063Y540050D01*
X949856Y540212D01*
X949752Y540315D01*
X949729Y540361D01*
X949683Y540408D01*
X949648Y540534D01*
X949614Y540638D01*
X949591Y540799D01*
X949614Y541030D01*
X949660Y541145D01*
X949717Y541294D01*
X949798Y541375D01*
X949821Y541421D01*
X949948Y541548D01*
X950097Y541605D01*
X950155Y541663D01*
X950339Y541709D01*
X950501Y541778D01*
X950650Y541813D01*
X950846Y541893D01*
X951031Y541939D01*
X951077Y541986D01*
X951318Y542043D01*
X951445Y542101D01*
X951537Y542124D01*
X951664Y542158D01*
X951791Y542216D01*
X951940Y542250D01*
X952056Y542297D01*
X952159Y542331D01*
X952251Y542354D01*
X952401Y542412D01*
X952505Y542446D01*
X952689Y542492D01*
X952735Y542538D01*
X952885Y542573D01*
X952977Y542596D01*
X953058Y542630D01*
X953173Y542677D01*
X953311Y542700D01*
X953518Y542792D01*
X953657Y542815D01*
X953818Y542884D01*
X953910Y542907D01*
X954060Y542965D01*
X954163Y542999D01*
X954348Y543045D01*
X954394Y543091D01*
X954636Y543149D01*
X954762Y543207D01*
X954855Y543229D01*
X954981Y543264D01*
X955108Y543322D01*
X955315Y543368D01*
X955477Y543437D01*
X955638Y543460D01*
X956075Y543437D01*
X956122Y543391D01*
X956329Y543276D01*
X956456Y543149D01*
X956479Y543103D01*
X956525Y543057D01*
X956582Y542907D01*
X956640Y542780D01*
X956617Y542319D01*
X956548Y542158D01*
X956513Y542009D01*
X956456Y541882D01*
X956410Y541698D01*
X956341Y541536D01*
X956317Y541444D01*
X956283Y541317D01*
X956248Y541283D01*
X956202Y541099D01*
X956168Y540972D01*
X956133Y540937D01*
X956110Y540845D01*
X956075Y540695D01*
X956018Y540569D01*
X955995Y540477D01*
X955880Y540177D01*
X955857Y540039D01*
X955788Y539878D01*
X955764Y539785D01*
X955649Y539486D01*
X955626Y539348D01*
X955557Y539186D01*
X955511Y539002D01*
X955465Y538956D01*
X955408Y538714D01*
X955350Y538588D01*
X955327Y538495D01*
X955292Y538369D01*
X955235Y538242D01*
X955189Y538035D01*
X955097Y537827D01*
X955073Y537689D01*
X955004Y537528D01*
X954981Y537436D01*
X954912Y537275D01*
X954889Y537182D01*
X954855Y537056D01*
X954774Y536906D01*
X954705Y536791D01*
X954624Y536687D01*
X954578Y536664D01*
X954555Y536618D01*
X954509Y536595D01*
X954371Y536503D01*
X954094Y536434D01*
X953956Y536411D01*
X953887Y536434D01*
X953795Y536457D01*
X953668Y536491D01*
X953495Y536595D01*
X953449Y536618D01*
X953323Y536745D01*
X953300Y536791D01*
X953230Y536860D01*
X953207Y536952D01*
X953161Y537067D01*
X953115Y537228D01*
X953150Y537539D01*
X953196Y537655D01*
X953219Y537747D01*
X953242Y537862D01*
X953323Y538058D01*
X953357Y538207D01*
X953415Y538334D01*
X953438Y538426D01*
X953472Y538553D01*
X953530Y538680D01*
X953553Y538772D01*
X953588Y538899D01*
X953668Y539094D01*
X953645Y539186D01*
X953611Y539198D01*
X953484Y539071D01*
X953472Y539037D01*
X953426Y539014D01*
X952217Y537804D01*
X952194Y537758D01*
X952113Y537701D01*
X951295Y536883D01*
X951284Y536848D01*
X951238Y536825D01*
X948646Y534234D01*
X948635Y534199D01*
X948589Y534176D01*
X947794Y533381D01*
X947771Y533335D01*
X947633Y533220D01*
X946872Y532460D01*
X946861Y532425D01*
X946815Y532402D01*
X945214Y530801D01*
X945202Y530767D01*
X945156Y530744D01*
X945052Y530640D01*
X945075Y530525D01*
X945156Y530467D01*
X946273Y529350D01*
X946285Y529315D01*
X946331Y529292D01*
X946389Y529235D01*
X946400Y529200D01*
X946446Y529177D01*
X947183Y528440D01*
X947275Y528463D01*
X947322Y528509D01*
X947437Y528578D01*
X947483Y528624D01*
X947598Y528693D01*
X947759Y528762D01*
X947805Y528785D01*
X948013Y528877D01*
X948174Y528947D01*
X948335Y528970D01*
X948519Y529016D01*
X948784Y529050D01*
X949118Y529062D01*
X949187Y529039D01*
X949326Y529016D01*
X949395Y528993D01*
X949487Y528970D01*
X949706Y528935D01*
X949821Y528889D01*
X949971Y528831D01*
X950017Y528808D01*
X950063Y528762D01*
X950190Y528728D01*
X950362Y528624D01*
X950408Y528601D01*
X950478Y528532D01*
X950524Y528509D01*
X950616Y528417D01*
X950662Y528394D01*
X950754Y528302D01*
X950800Y528279D01*
X950881Y528198D01*
X950904Y528152D01*
X951007Y528025D01*
X951042Y527991D01*
X951054Y527956D01*
X951100Y527933D01*
X951180Y527806D01*
X951226Y527760D01*
X951249Y527668D01*
X951318Y527599D01*
X951503Y527277D01*
X951733Y526862D01*
X951779Y526816D01*
X951825Y526701D01*
X951871Y526654D01*
X952056Y526332D01*
X952102Y526286D01*
X952159Y526136D01*
X952194Y526102D01*
X952240Y525986D01*
X952263Y525940D01*
X952309Y525894D01*
X952367Y525744D01*
X952447Y525595D01*
X952516Y525480D01*
X952562Y525364D01*
X952585Y525318D01*
X952678Y525180D01*
X952701Y525088D01*
X952770Y525019D01*
X952793Y524927D01*
X952885Y524789D01*
X952931Y524673D01*
X952977Y524627D01*
X953012Y524501D01*
X953092Y524351D01*
X953150Y524201D01*
X953184Y524166D01*
X953230Y524051D01*
X953253Y523959D01*
X953300Y523913D01*
X953369Y523729D01*
X953415Y523683D01*
X953438Y523591D01*
X953553Y523337D01*
X953783Y522853D01*
X953806Y522761D01*
X953852Y522715D01*
X953876Y522623D01*
X953933Y522473D01*
X953968Y522439D01*
X953991Y522347D01*
X954048Y522197D01*
X954083Y522162D01*
X954117Y522013D01*
X954198Y521863D01*
X954221Y521771D01*
X954267Y521656D01*
X954313Y521609D01*
X954348Y521460D01*
X954428Y521264D01*
X954451Y521172D01*
X954544Y520964D01*
X954578Y520838D01*
X954659Y520642D01*
X954693Y520515D01*
X954751Y520389D01*
X954797Y520204D01*
X954866Y520089D01*
X954901Y519939D01*
X954935Y519859D01*
X954981Y519743D01*
X955016Y519594D01*
X955073Y519467D01*
X955097Y519375D01*
X955131Y519225D01*
X955166Y519191D01*
X955212Y519029D01*
X955246Y518880D01*
X955304Y518776D01*
X955327Y518684D01*
X955350Y518545D01*
X955419Y518384D01*
X955442Y518292D01*
X955465Y518177D01*
X955534Y518016D01*
X955569Y517843D01*
X955615Y517728D01*
X955649Y517601D01*
X955684Y517428D01*
X955742Y517302D01*
X955764Y517140D01*
X955788Y517048D01*
X955857Y516887D01*
X955880Y516726D01*
X955903Y516633D01*
X955972Y516472D01*
X956006Y516253D01*
X956075Y516069D01*
X956122Y515793D01*
X956168Y515677D01*
X956191Y515585D01*
X956214Y515447D01*
X956237Y515332D01*
X956294Y515136D01*
X956317Y515044D01*
X956352Y514848D01*
X956410Y514698D01*
X956444Y514410D01*
X956490Y514226D01*
X956525Y514099D01*
X956548Y513869D01*
X956582Y513719D01*
X956617Y513593D01*
X956640Y513500D01*
X956663Y513270D01*
X956686Y513201D01*
X956721Y513074D01*
X956744Y512982D01*
X956767Y512798D01*
X956790Y512683D01*
X956813Y512591D01*
X956847Y512464D01*
X956870Y512302D01*
X956905Y512107D01*
X956939Y511980D01*
X956962Y511888D01*
X956985Y511727D01*
X957043Y511462D01*
X957066Y511370D01*
X957089Y511185D01*
X957112Y510932D01*
X957135Y510840D01*
X957181Y510609D01*
X957204Y510379D01*
X957227Y510195D01*
X957296Y509849D01*
X957320Y509642D01*
X957343Y509411D01*
X957389Y509227D01*
X957412Y509089D01*
X957435Y508858D01*
X957481Y508605D01*
X957504Y508490D01*
X957527Y508306D01*
X957550Y507983D01*
X957573Y507845D01*
X957619Y507545D01*
X957642Y507315D01*
X957665Y506992D01*
X957734Y506578D01*
X957757Y506301D01*
X957780Y506048D01*
X957826Y505772D01*
X957861Y505461D01*
X957895Y505057D01*
X957918Y504919D01*
X957953Y504608D01*
X957976Y504447D01*
X957999Y503986D01*
X958022Y503917D01*
X958045Y503687D01*
X958068Y503618D01*
X958126Y502846D01*
X958172Y502546D01*
X958218Y501947D01*
X958241Y501740D01*
X958264Y501625D01*
X958287Y501441D01*
X958310Y501118D01*
X958333Y500842D01*
X958379Y500565D01*
X958414Y500254D01*
X958448Y499851D01*
X958471Y499736D01*
X958494Y499644D01*
X958564Y499022D01*
X958587Y498884D01*
X958610Y498768D01*
X958644Y498457D01*
X958667Y498135D01*
X958690Y498066D01*
X958713Y497974D01*
X958736Y497743D01*
X958759Y497582D01*
X958794Y497386D01*
X958852Y497190D01*
X958886Y496925D01*
X958909Y496833D01*
X958944Y496707D01*
X958967Y496614D01*
X958990Y496361D01*
X959082Y496154D01*
X959105Y495992D01*
X959174Y495831D01*
X959197Y495739D01*
X959220Y495601D01*
X959312Y495394D01*
X959474Y495094D01*
X959692Y494806D01*
X959750Y494748D01*
X959773Y494702D01*
X959842Y494633D01*
X959934Y494472D01*
X959980Y494357D01*
X960003Y494311D01*
X960049Y494265D01*
X960130Y494046D01*
X960188Y493896D01*
X960211Y493735D01*
X960257Y493620D01*
X960280Y493528D01*
X960303Y492952D01*
X960280Y492859D01*
X960257Y492606D01*
X960211Y492491D01*
X960188Y492399D01*
X960153Y492272D01*
X960096Y492122D01*
X960049Y492007D01*
X960003Y491961D01*
X959957Y491846D01*
X959934Y491800D01*
X959888Y491754D01*
X959796Y491592D01*
X959750Y491546D01*
X959727Y491500D01*
X959635Y491408D01*
X959612Y491362D01*
X959393Y491143D01*
X959347Y491120D01*
X959255Y491028D01*
X959208Y491005D01*
X959116Y490913D01*
X959047Y490890D01*
X958932Y490821D01*
X958771Y490729D01*
X958702Y490705D01*
X958402Y490590D01*
X958241Y490567D01*
X958126Y490521D01*
X957965Y490498D01*
X957527Y490475D01*
X957458Y490498D01*
X957181Y490521D01*
X957112Y490544D01*
X956951Y490590D01*
X956801Y490625D01*
X956674Y490682D01*
X956582Y490705D01*
X956536Y490729D01*
X956398Y490821D01*
X956306Y490844D01*
X956237Y490913D01*
X956122Y490959D01*
X956075Y491028D01*
X956030Y491051D01*
X955937Y491143D01*
X955891Y491166D01*
X955649Y491408D01*
X955626Y491454D01*
X955465Y491615D01*
X955442Y491662D01*
X955327Y491777D01*
X955304Y491823D01*
X955235Y491892D01*
X955212Y491938D01*
X955097Y492099D01*
X955027Y492214D01*
X954843Y492537D01*
X954774Y492652D01*
X954751Y492698D01*
X954659Y492836D01*
X954636Y492952D01*
X954567Y493067D01*
X954509Y493217D01*
X954451Y493343D01*
X954394Y493493D01*
X954359Y493528D01*
X954313Y493689D01*
X954244Y493850D01*
X954221Y493942D01*
X954187Y494069D01*
X954152Y494103D01*
X954117Y494230D01*
X954094Y494345D01*
X954048Y494460D01*
X954014Y494564D01*
X953956Y494714D01*
X953841Y494829D01*
X953806Y494841D01*
X953783Y494887D01*
X953403Y495267D01*
X953369Y495278D01*
X953346Y495324D01*
X953288Y495382D01*
X953242Y495405D01*
X953184Y495486D01*
X952413Y496257D01*
X952367Y496280D01*
X952309Y496361D01*
X952240Y496407D01*
X952217Y496453D01*
X951629Y497041D01*
X951595Y497052D01*
X951572Y497098D01*
X951537Y497133D01*
X951491Y497156D01*
X951434Y497236D01*
X950869Y497801D01*
X950835Y497812D01*
X950812Y497858D01*
X949856Y498814D01*
X949821Y498826D01*
X949798Y498872D01*
X949763Y498907D01*
X949717Y498930D01*
X949660Y499010D01*
X949418Y499252D01*
X949383Y499264D01*
X949360Y499310D01*
X948980Y499690D01*
X948946Y499701D01*
X948923Y499747D01*
X948865Y499805D01*
X948819Y499828D01*
X948761Y499909D01*
X947990Y500680D01*
X947943Y500703D01*
X947886Y500784D01*
X947817Y500830D01*
X947794Y500876D01*
X947206Y501464D01*
X947172Y501475D01*
X947149Y501521D01*
X947114Y501556D01*
X947068Y501579D01*
X947011Y501659D01*
X946446Y502224D01*
X946412Y502235D01*
X946389Y502282D01*
X945432Y503237D01*
X945398Y503249D01*
X945375Y503295D01*
X945340Y503330D01*
X945294Y503353D01*
X945237Y503433D01*
X944995Y503675D01*
X944960Y503687D01*
X944937Y503733D01*
X944557Y504113D01*
X944523Y504124D01*
X944499Y504171D01*
X944442Y504228D01*
X944396Y504251D01*
X944281Y504389D01*
X943567Y505103D01*
X943520Y505126D01*
X943463Y505207D01*
X943394Y505253D01*
X943371Y505299D01*
X942783Y505887D01*
X942749Y505898D01*
X942726Y505944D01*
X942691Y505979D01*
X942645Y506002D01*
X942587Y506083D01*
X942023Y506647D01*
X941988Y506659D01*
X941965Y506705D01*
X941009Y507661D01*
X940975Y507672D01*
X940952Y507718D01*
X940917Y507753D01*
X940871Y507776D01*
X940814Y507856D01*
X940572Y508098D01*
X940537Y508110D01*
X940514Y508156D01*
X940134Y508536D01*
X940100Y508547D01*
X940076Y508594D01*
X940019Y508651D01*
X939973Y508674D01*
X939915Y508755D01*
X939143Y509527D01*
X939097Y509550D01*
X939040Y509630D01*
X938971Y509676D01*
X938948Y509722D01*
X938360Y510310D01*
X938326Y510321D01*
X938303Y510367D01*
X938268Y510402D01*
X938222Y510425D01*
X938107Y510563D01*
X937600Y511070D01*
X937565Y511082D01*
X937542Y511128D01*
X936586Y512084D01*
X936552Y512095D01*
X936529Y512141D01*
X936494Y512176D01*
X936448Y512199D01*
X936390Y512280D01*
X936149Y512521D01*
X936114Y512533D01*
X936091Y512579D01*
X935711Y512959D01*
X935676Y512971D01*
X935653Y513017D01*
X935596Y513074D01*
X935550Y513097D01*
X935492Y513178D01*
X934720Y513950D01*
X934674Y513973D01*
X934617Y514053D01*
X934548Y514099D01*
X934525Y514146D01*
X933937Y514733D01*
X933902Y514744D01*
X933879Y514790D01*
X933845Y514825D01*
X933799Y514848D01*
X933741Y514929D01*
X933177Y515493D01*
X933142Y515505D01*
X933119Y515551D01*
X932163Y516507D01*
X932129Y516518D01*
X932106Y516564D01*
X932071Y516599D01*
X932025Y516622D01*
X931968Y516703D01*
X931610Y517060D01*
X931518Y517083D01*
X931472Y517060D01*
X922269Y507856D01*
X922223Y507741D01*
X922200Y503548D01*
X922154Y503433D01*
X922131Y503341D01*
X922062Y503272D01*
X922039Y503226D01*
X921946Y503134D01*
X921935Y503099D01*
X921889Y503076D01*
X921716Y502904D01*
X921693Y502857D01*
X921013Y502178D01*
X920967Y502155D01*
X920852Y502017D01*
X920668Y501832D01*
X920633Y501821D01*
X920610Y501775D01*
X920576Y501740D01*
X920530Y501717D01*
X920461Y501625D01*
X920415Y501602D01*
X920299Y501464D01*
X920138Y501302D01*
X920092Y501279D01*
X920034Y501199D01*
X919816Y500980D01*
X919769Y500957D01*
X919597Y500784D01*
X919585Y500749D01*
X919539Y500727D01*
X919481Y500646D01*
X919240Y500404D01*
X919193Y500381D01*
X919136Y500300D01*
X918917Y500081D01*
X918871Y500058D01*
X918802Y499966D01*
X918756Y499943D01*
X918687Y499851D01*
X918641Y499828D01*
X918525Y499690D01*
X918364Y499529D01*
X918318Y499506D01*
X918260Y499425D01*
X918019Y499183D01*
X917984Y499171D01*
X917961Y499125D01*
X917903Y499068D01*
X917869Y499056D01*
X917846Y499010D01*
X917811Y498976D01*
X917765Y498953D01*
X917650Y498814D01*
X917604Y498768D01*
X917558Y498745D01*
X917523Y498711D01*
X917512Y498676D01*
X917466Y498653D01*
X917293Y498480D01*
X917270Y498434D01*
X917143Y498308D01*
X917097Y498285D01*
X917040Y498204D01*
X916994Y498181D01*
X916971Y498135D01*
X916936Y498100D01*
X916890Y498077D01*
X916855Y498043D01*
X916832Y497997D01*
X916590Y497755D01*
X916544Y497732D01*
X916487Y497651D01*
X916441Y497628D01*
X916418Y497582D01*
X916268Y497432D01*
X916222Y497409D01*
X916164Y497329D01*
X916095Y497283D01*
X916072Y497236D01*
X916037Y497202D01*
X915991Y497179D01*
X915934Y497098D01*
X915738Y496902D01*
X915692Y496879D01*
X915623Y496810D01*
X915404Y496730D01*
X915312Y496707D01*
X915001Y496695D01*
X914840Y496764D01*
X914690Y496822D01*
X914609Y496902D01*
X914563Y496925D01*
X914436Y497052D01*
X914298Y497352D01*
X914275Y497858D01*
X914287Y501026D01*
X914241Y501095D01*
X910532Y501118D01*
X910232Y501279D01*
X910186Y501326D01*
X910140Y501348D01*
X910082Y501406D01*
X910071Y501441D01*
X910025Y501464D01*
X909967Y501590D01*
X909944Y501636D01*
X909875Y501798D01*
X909898Y502282D01*
X910036Y502512D01*
X910082Y502558D01*
X910106Y502604D01*
X916337Y508836D01*
X916383Y508858D01*
X916452Y508928D01*
X916602Y508985D01*
X916729Y509043D01*
X917028Y509066D01*
X921013Y509089D01*
X921048Y509123D01*
X921060Y509158D01*
X921106Y509181D01*
X921393Y509469D01*
X921405Y509504D01*
X921451Y509527D01*
X921486Y509561D01*
X921509Y509607D01*
X921578Y509653D01*
X921601Y509699D01*
X921635Y509734D01*
X921681Y509757D01*
X921751Y509849D01*
X921797Y509872D01*
X921843Y509941D01*
X921889Y509964D01*
X921923Y509999D01*
X921946Y510045D01*
X921981Y510079D01*
X922027Y510103D01*
X922154Y510229D01*
X922165Y510264D01*
X922211Y510287D01*
X922476Y510552D01*
X922488Y510586D01*
X922534Y510609D01*
X923029Y511105D01*
X923041Y511139D01*
X923087Y511162D01*
X923375Y511450D01*
X923386Y511485D01*
X923432Y511508D01*
X923697Y511773D01*
X923720Y511819D01*
X923801Y511876D01*
X923847Y511945D01*
X923893Y511969D01*
X923962Y512061D01*
X924008Y512084D01*
X924077Y512176D01*
X924123Y512199D01*
X924170Y512268D01*
X924216Y512291D01*
X924250Y512326D01*
X924273Y512372D01*
X924354Y512429D01*
X924596Y512671D01*
X924607Y512706D01*
X924653Y512729D01*
X924803Y512878D01*
X924815Y512913D01*
X924861Y512936D01*
X925126Y513201D01*
X925149Y513247D01*
X925229Y513305D01*
X925817Y513892D01*
X925828Y513927D01*
X925874Y513950D01*
X925909Y513984D01*
X925932Y514030D01*
X926001Y514076D01*
X926024Y514122D01*
X926058Y514157D01*
X926105Y514180D01*
X926174Y514272D01*
X926220Y514295D01*
X926266Y514364D01*
X926312Y514387D01*
X926346Y514422D01*
X926369Y514468D01*
X926404Y514502D01*
X926450Y514526D01*
X926577Y514652D01*
X926588Y514687D01*
X926634Y514710D01*
X926899Y514975D01*
X926911Y515009D01*
X926957Y515032D01*
X927452Y515528D01*
X927464Y515562D01*
X927510Y515585D01*
X927798Y515873D01*
X927809Y515908D01*
X927855Y515931D01*
X928120Y516196D01*
X928143Y516242D01*
X928224Y516299D01*
X928270Y516368D01*
X928316Y516392D01*
X928374Y516472D01*
X928443Y516518D01*
X928466Y516564D01*
X928500Y516599D01*
X928547Y516622D01*
X928593Y516691D01*
X928639Y516714D01*
X928673Y516749D01*
Y516772D01*
X928685Y516783D01*
X928811Y516887D01*
X929019Y517094D01*
X929030Y517129D01*
X929076Y517152D01*
X929226Y517302D01*
X929238Y517336D01*
X929284Y517359D01*
X929549Y517624D01*
X929572Y517670D01*
X929652Y517728D01*
X930124Y518200D01*
X930136Y518234D01*
X930182Y518258D01*
X930217Y518292D01*
X930240Y518384D01*
X930217Y518453D01*
X930182Y518488D01*
X930136Y518511D01*
X930078Y518592D01*
X930032Y518615D01*
X930009Y518661D01*
X929514Y519156D01*
X929480Y519168D01*
X929456Y519214D01*
X929422Y519248D01*
X929376Y519271D01*
X929318Y519352D01*
X928754Y519916D01*
X928719Y519928D01*
X928696Y519974D01*
X927740Y520930D01*
X927706Y520941D01*
X927683Y520987D01*
X927648Y521022D01*
X927602Y521045D01*
X927544Y521126D01*
X927302Y521368D01*
X927268Y521379D01*
X927245Y521425D01*
X926865Y521805D01*
X926830Y521817D01*
X926807Y521863D01*
X926750Y521920D01*
X926703Y521943D01*
X926588Y522082D01*
X925874Y522796D01*
X925828Y522819D01*
X925770Y522899D01*
X925701Y522945D01*
X925678Y522992D01*
X925091Y523579D01*
X925056Y523591D01*
X925033Y523637D01*
X924999Y523671D01*
X924953Y523694D01*
X924895Y523775D01*
X924331Y524339D01*
X924296Y524351D01*
X924273Y524397D01*
X923317Y525353D01*
X923283Y525364D01*
X923260Y525411D01*
X923225Y525445D01*
X923179Y525468D01*
X923121Y525549D01*
X922879Y525791D01*
X922845Y525802D01*
X922822Y525848D01*
X922442Y526228D01*
X922407Y526240D01*
X922384Y526286D01*
X922326Y526343D01*
X922281Y526367D01*
X922223Y526447D01*
X921451Y527219D01*
X921405Y527242D01*
X921336Y527334D01*
X921290Y527357D01*
X921175Y527495D01*
X920668Y528002D01*
X920633Y528014D01*
X920610Y528060D01*
X920576Y528094D01*
X920530Y528117D01*
X920472Y528198D01*
X919908Y528762D01*
X919873Y528774D01*
X919850Y528820D01*
X918894Y529776D01*
X918859Y529787D01*
X918836Y529834D01*
X918802Y529868D01*
X918756Y529891D01*
X918698Y529972D01*
X918456Y530214D01*
X918422Y530225D01*
X918399Y530271D01*
X918019Y530651D01*
X917984Y530663D01*
X917961Y530709D01*
X917903Y530767D01*
X917857Y530790D01*
X917800Y530870D01*
X917028Y531642D01*
X916982Y531665D01*
X916924Y531746D01*
X916855Y531792D01*
X916832Y531838D01*
X916245Y532425D01*
X916210Y532437D01*
X916187Y532483D01*
X916153Y532517D01*
X916107Y532540D01*
X916049Y532621D01*
X915485Y533185D01*
X915450Y533197D01*
X915427Y533243D01*
X914471Y534199D01*
X914436Y534211D01*
X914413Y534257D01*
X914379Y534291D01*
X914333Y534314D01*
X914275Y534395D01*
X914033Y534637D01*
X913999Y534648D01*
X913976Y534694D01*
X913596Y535074D01*
X913561Y535086D01*
X913538Y535132D01*
X913480Y535190D01*
X913434Y535213D01*
X913377Y535293D01*
X912605Y536065D01*
X912559Y536088D01*
X912501Y536169D01*
X912432Y536215D01*
X912409Y536261D01*
X911822Y536848D01*
X911787Y536860D01*
X911764Y536906D01*
X911730Y536940D01*
X911683Y536964D01*
X911626Y537044D01*
X911061Y537608D01*
X911027Y537620D01*
X911004Y537666D01*
X910048Y538622D01*
X910013Y538634D01*
X909990Y538680D01*
X909956Y538714D01*
X909910Y538737D01*
X909852Y538818D01*
X909610Y539060D01*
X909576Y539071D01*
X909553Y539117D01*
X909173Y539498D01*
X909138Y539509D01*
X909115Y539555D01*
X909057Y539613D01*
X909011Y539636D01*
X908954Y539716D01*
X908182Y540488D01*
X908136Y540511D01*
X908078Y540592D01*
X908032Y540615D01*
X908009Y540661D01*
X907952Y540719D01*
X907905Y540741D01*
X907859Y540788D01*
X907687Y540822D01*
X907560Y540880D01*
X907468Y540903D01*
X907341Y540937D01*
X907214Y540995D01*
X906973Y541052D01*
X906938Y541087D01*
X906846Y541110D01*
X906696Y541168D01*
X906662Y541202D01*
X906443Y541283D01*
X906408Y541317D01*
X906189Y541398D01*
X906155Y541433D01*
X905970Y541502D01*
X905924Y541548D01*
X905775Y541605D01*
X905717Y541663D01*
X905233Y541939D01*
X905187Y541986D01*
X905141Y542009D01*
X905014Y542112D01*
X904980Y542147D01*
X904934Y542170D01*
X904865Y542239D01*
X904819Y542262D01*
X904784Y542297D01*
X904772Y542331D01*
X904726Y542354D01*
X904634Y542446D01*
X904588Y542469D01*
X904323Y542734D01*
X904300Y542780D01*
X904231Y542849D01*
X904208Y542896D01*
X904139Y542942D01*
X904093Y543057D01*
X904047Y543103D01*
X903989Y543253D01*
X903932Y543333D01*
X903909Y543402D01*
X903793Y543702D01*
X903770Y543863D01*
X903724Y543978D01*
X903701Y544278D01*
X903678Y544370D01*
X903713Y544842D01*
X903736Y544980D01*
X903770Y545084D01*
X903793Y545176D01*
X903816Y545314D01*
X903909Y545522D01*
X903978Y545637D01*
X904024Y545752D01*
X904047Y545798D01*
X904093Y545844D01*
X904139Y545959D01*
X904254Y546074D01*
X904277Y546121D01*
X904369Y546213D01*
X904381Y546247D01*
X904427Y546270D01*
X904611Y546455D01*
X904657Y546478D01*
X904680Y546524D01*
X904726Y546547D01*
X904853Y546651D01*
X905095Y546777D01*
X905141Y546800D01*
X905187Y546846D01*
X905348Y546892D01*
X905394Y546915D01*
X905556Y546984D01*
X905740Y547008D01*
X905878Y547100D01*
X906834Y547088D01*
D02*
G37*
%LPC*%
G36*
X906316Y545326D02*
X906085Y545303D01*
X905832Y545165D01*
X905786Y545119D01*
X905740Y545095D01*
X905659Y545015D01*
X905636Y544969D01*
X905590Y544923D01*
X905498Y544692D01*
X905475Y544600D01*
X905452Y544439D01*
X905475Y544278D01*
X905510Y544151D01*
X905544Y544116D01*
X905590Y544001D01*
X905659Y543932D01*
X905729Y543817D01*
X905763Y543782D01*
X905809Y543759D01*
X905878Y543690D01*
X905924Y543667D01*
X905982Y543633D01*
X905993Y543598D01*
X906040Y543575D01*
X906120Y543517D01*
X906132Y543483D01*
X906178Y543460D01*
X906304Y543356D01*
X906443Y543264D01*
X906581Y543195D01*
X906615Y543160D01*
X906731Y543114D01*
X906846Y543045D01*
X906961Y542999D01*
X907076Y542930D01*
X907099Y542907D01*
X907122D01*
X907237Y542861D01*
X907399Y542792D01*
X907525Y542757D01*
X907652Y542700D01*
X907744Y542677D01*
X907871Y542642D01*
X907998Y542585D01*
X908182Y542538D01*
X908343Y542469D01*
X908539Y542435D01*
X908631Y542412D01*
X908827Y542354D01*
X908988Y542331D01*
X909138Y542274D01*
X909230Y542250D01*
X909507Y542204D01*
X909633Y542170D01*
X909725Y542147D01*
X909956Y542124D01*
X910221Y542066D01*
X910313Y542043D01*
X910451Y542020D01*
X910658Y541997D01*
X910797Y541974D01*
X910889Y541951D01*
X911027Y541928D01*
X911280Y541905D01*
X911511Y541882D01*
X911649Y541859D01*
X911764Y541836D01*
X911902Y541813D01*
X912156Y541790D01*
X912363Y541767D01*
X912547Y541744D01*
X912663Y541721D01*
X912893Y541698D01*
X913192Y541675D01*
X913400Y541651D01*
X913538Y541628D01*
X913722Y541605D01*
X914033Y541571D01*
X914448Y541548D01*
X914517Y541525D01*
X914759Y541490D01*
X914989Y541467D01*
X915358Y541444D01*
X915565Y541421D01*
X915680Y541398D01*
X915865Y541375D01*
X916141Y541352D01*
X916441Y541329D01*
X916717Y541283D01*
X916924Y541260D01*
X917247Y541237D01*
X917477Y541214D01*
X917616Y541191D01*
X917731Y541168D01*
X918042Y541133D01*
X918468Y541099D01*
X918744Y541052D01*
X918952Y541030D01*
X919505Y540983D01*
X919781Y540937D01*
X920057Y540914D01*
X920553Y540880D01*
X920622Y540857D01*
X920818Y540822D01*
X921002Y540799D01*
X921255Y540776D01*
X921371Y540753D01*
X921463Y540730D01*
X921601Y540707D01*
X921831Y540684D01*
X922015Y540661D01*
X922361Y540592D01*
X922614Y540569D01*
X922799Y540546D01*
X923029Y540500D01*
X923167Y540477D01*
X923444Y540454D01*
X923559Y540430D01*
X923686Y540396D01*
X923847Y540373D01*
X923939Y540350D01*
X924170Y540327D01*
X924285Y540281D01*
X924446Y540258D01*
X924538Y540235D01*
X924768Y540212D01*
X924884Y540166D01*
X925045Y540143D01*
X925379Y540085D01*
X925563Y540039D01*
X925770Y540016D01*
X925909Y539993D01*
X926001Y539970D01*
X926128Y539935D01*
X926289Y539912D01*
X926531Y539855D01*
X926657Y539820D01*
X926819Y539797D01*
X926945Y539762D01*
X927061Y539716D01*
X927199Y539693D01*
X927418Y539659D01*
X927533Y539613D01*
X927625Y539590D01*
X927821Y539555D01*
X928017Y539498D01*
X928109Y539474D01*
X928328Y539440D01*
X928443Y539394D01*
X928535Y539371D01*
X928788Y539325D01*
X928938Y539267D01*
X929134Y539233D01*
X929226Y539210D01*
X929353Y539152D01*
X929595Y539094D01*
X929629Y539060D01*
X929952Y538991D01*
X930113Y538922D01*
X930286Y538887D01*
X930412Y538830D01*
X930505Y538806D01*
X930654Y538772D01*
X930781Y538714D01*
X930942Y538691D01*
X931092Y538634D01*
X931196Y538599D01*
X931403Y538553D01*
X931564Y538484D01*
X931737Y538449D01*
X931864Y538392D01*
X931956Y538369D01*
X932083Y538334D01*
X932186Y538277D01*
X932278Y538253D01*
X932578Y538138D01*
X932693Y538115D01*
X932739Y538069D01*
X932924Y538023D01*
X933131Y537931D01*
X933269Y537908D01*
X933476Y537816D01*
X933592Y537770D01*
X933753Y537701D01*
X933845Y537678D01*
X933891Y537632D01*
X934052Y537585D01*
X934260Y537493D01*
X934409Y537436D01*
X934444Y537401D01*
X934536Y537378D01*
X934686Y537321D01*
X934720Y537286D01*
X934847Y537251D01*
X934928Y537217D01*
X935135Y537125D01*
X935181Y537102D01*
X935227Y537056D01*
X935354Y537021D01*
X935435Y536964D01*
X935504Y536940D01*
X935619Y536894D01*
X935734Y536825D01*
X935861Y536791D01*
X935918Y536733D01*
X936010Y536710D01*
X936586Y536411D01*
X936701Y536365D01*
X936748Y536341D01*
X936794Y536295D01*
X936943Y536238D01*
X937116Y536134D01*
X937185Y536111D01*
X937231Y536065D01*
X937416Y535996D01*
X937462Y535950D01*
X937577Y535904D01*
X937646Y535835D01*
X937692Y535812D01*
X937750Y535777D01*
X937773Y535731D01*
X937842Y535685D01*
X937911Y535570D01*
X937980Y535408D01*
X938003Y535316D01*
X938026Y535247D01*
X938049Y535155D01*
X938015Y534959D01*
X937992Y534867D01*
X937922Y534429D01*
X937899Y534245D01*
X937888Y533842D01*
X937934Y533727D01*
X937969Y533347D01*
X937992Y533254D01*
X938038Y533139D01*
X938107Y532886D01*
X938245Y532610D01*
X938280Y532575D01*
X938337Y532425D01*
X938395Y532368D01*
X938464Y532252D01*
X938625Y532045D01*
X938729Y531918D01*
X938763Y531884D01*
X938775Y531849D01*
X938821Y531826D01*
X938879Y531746D01*
X939789Y530836D01*
X939823Y530824D01*
X939846Y530778D01*
X939904Y530721D01*
X939938Y530709D01*
X939961Y530663D01*
X940687Y529937D01*
X940722Y529926D01*
X940744Y529880D01*
X941125Y529499D01*
X941159Y529488D01*
X941182Y529442D01*
X941217Y529407D01*
X941355Y529430D01*
X941389Y529465D01*
X941401Y529499D01*
X941447Y529523D01*
X941505Y529580D01*
X941516Y529615D01*
X941562Y529638D01*
X941597Y529672D01*
X941620Y529718D01*
X941700Y529776D01*
X941735Y529810D01*
X941747Y529845D01*
X941793Y529868D01*
X941942Y530018D01*
X941954Y530052D01*
X942000Y530076D01*
X942495Y530571D01*
X942472Y530640D01*
X940076Y533036D01*
X940053Y533082D01*
X939984Y533151D01*
X939961Y533197D01*
X939846Y533358D01*
X939777Y533473D01*
X939731Y533589D01*
X939696Y533807D01*
X939650Y533992D01*
X939639Y534003D01*
X939662Y534072D01*
X939696Y534222D01*
X939719Y534337D01*
X939754Y534533D01*
X939823Y534602D01*
X939892Y534717D01*
X939984Y534856D01*
X940007Y534902D01*
X940192Y535086D01*
X940215Y535132D01*
X940284Y535201D01*
X940353Y535316D01*
X940422Y535478D01*
X940445Y535570D01*
X940468Y535731D01*
X940445Y535915D01*
X940399Y536030D01*
X940376Y536146D01*
X940272Y536272D01*
X940065Y536480D01*
X940019Y536503D01*
X939973Y536549D01*
X939927Y536572D01*
X939443Y536848D01*
X939213Y536986D01*
X939051Y537079D01*
X939005Y537125D01*
X938890Y537171D01*
X938752Y537263D01*
X938706Y537286D01*
X938591Y537355D01*
X938245Y537539D01*
X937807Y537770D01*
X937692Y537816D01*
X937646Y537839D01*
X937600Y537885D01*
X937162Y538115D01*
X937047Y538161D01*
X937001Y538184D01*
X936794Y538277D01*
X936748Y538300D01*
X936586Y538369D01*
X936540Y538392D01*
X936425Y538461D01*
X936275Y538518D01*
X936241Y538553D01*
X936057Y538622D01*
X935665Y538806D01*
X935411Y538922D01*
X935342Y538945D01*
X935227Y539014D01*
X935077Y539048D01*
X935043Y539083D01*
X934997Y539106D01*
X934928Y539129D01*
X934836Y539152D01*
X934789Y539175D01*
X934628Y539244D01*
X934478Y539302D01*
X934444Y539336D01*
X934352Y539359D01*
X934237Y539405D01*
X934075Y539474D01*
X933983Y539498D01*
X933937Y539544D01*
X933845Y539567D01*
X933626Y539647D01*
X933522Y539682D01*
X933430Y539705D01*
X933223Y539797D01*
X933073Y539832D01*
X932970Y539889D01*
X932877Y539912D01*
X932751Y539947D01*
X932716Y539981D01*
X932440Y540050D01*
X932394Y540097D01*
X932117Y540166D01*
X931956Y540235D01*
X931783Y540269D01*
X931656Y540327D01*
X931564Y540350D01*
X931438Y540384D01*
X931311Y540442D01*
X931219Y540465D01*
X931104Y540488D01*
X930942Y540557D01*
X930700Y540615D01*
X930666Y540649D01*
X930309Y540730D01*
X930205Y540765D01*
X930113Y540788D01*
X929963Y540822D01*
X929848Y540868D01*
X929721Y540903D01*
X929560Y540926D01*
X929399Y540995D01*
X929238Y541018D01*
X928938Y541110D01*
X928777Y541133D01*
X928558Y541214D01*
X928443Y541237D01*
X928224Y541271D01*
X928109Y541317D01*
X928017Y541340D01*
X927821Y541375D01*
X927625Y541433D01*
X927533Y541456D01*
X927314Y541490D01*
X927038Y541559D01*
X926830Y541582D01*
X926715Y541605D01*
X926611Y541640D01*
X926519Y541663D01*
X926231Y541698D01*
X926139Y541721D01*
X926012Y541755D01*
X925920Y541778D01*
X925655Y541813D01*
X925563Y541836D01*
X925436Y541870D01*
X925344Y541893D01*
X925056Y541928D01*
X924861Y541986D01*
X924699Y542009D01*
X924504Y542043D01*
X924377Y542078D01*
X924100Y542124D01*
X923824Y542147D01*
X923755Y542170D01*
X923605Y542204D01*
X923294Y542239D01*
X923110Y542262D01*
X923041Y542285D01*
X922764Y542331D01*
X922534Y542354D01*
X922338Y542389D01*
X922246Y542412D01*
X922108Y542435D01*
X921831Y542458D01*
X921578Y542504D01*
X921486Y542527D01*
X921175Y542561D01*
X920829Y542585D01*
X920760Y542607D01*
X920541Y542642D01*
X920357Y542665D01*
X920057Y542688D01*
X919873Y542711D01*
X919574Y542757D01*
X919366Y542780D01*
X919090Y542803D01*
X918906Y542826D01*
X918790Y542849D01*
X918652Y542872D01*
X918353Y542896D01*
X918030Y542918D01*
X917731Y542965D01*
X917593Y542988D01*
X916971Y543034D01*
X916671Y543080D01*
X916487Y543103D01*
X916118Y543126D01*
X915865Y543149D01*
X915588Y543195D01*
X914759Y543264D01*
X914621Y543287D01*
X914310Y543322D01*
X914079Y543345D01*
X913734Y543368D01*
X913665Y543391D01*
X913423Y543425D01*
X913169Y543448D01*
X912870Y543471D01*
X912686Y543494D01*
X912570Y543517D01*
X912432Y543540D01*
X912018Y543587D01*
X911902Y543610D01*
X911810Y543633D01*
X911672Y543656D01*
X911419Y543679D01*
X911165Y543725D01*
X911050Y543748D01*
X910866Y543771D01*
X910612Y543794D01*
X910474Y543817D01*
X910244Y543863D01*
X910059Y543886D01*
X909806Y543932D01*
X909679Y543967D01*
X909587Y543990D01*
X909368Y544024D01*
X909276Y544047D01*
X909173Y544082D01*
X909080Y544105D01*
X908862Y544139D01*
X908758Y544197D01*
X908666Y544220D01*
X908516Y544255D01*
X908412Y544312D01*
X908170Y544370D01*
X908067Y544427D01*
X907917Y544485D01*
X907813Y544543D01*
X907664Y544600D01*
X907629Y544635D01*
X907445Y544704D01*
X907376Y544773D01*
X907329Y544796D01*
X907168Y544911D01*
X907122Y544934D01*
X907053Y545003D01*
X907007Y545026D01*
X906938Y545095D01*
X906811Y545153D01*
X906800Y545188D01*
X906546Y545303D01*
X906316Y545326D01*
D02*
G37*
G36*
X911177Y540143D02*
X911096Y540108D01*
X911119Y540039D01*
X911177Y539981D01*
X911211Y539970D01*
X911234Y539924D01*
X911315Y539866D01*
X911338Y539820D01*
X911384Y539797D01*
X911419Y539762D01*
X911442Y539716D01*
X911476Y539682D01*
X911522Y539659D01*
X911568Y539590D01*
X911614Y539567D01*
X911649Y539532D01*
X911672Y539486D01*
X911753Y539428D01*
X911799Y539359D01*
X911845Y539336D01*
X911879Y539302D01*
X911902Y539256D01*
X911971Y539210D01*
X911994Y539163D01*
X912029Y539129D01*
X912075Y539106D01*
X912121Y539037D01*
X912167Y539014D01*
X912202Y538979D01*
X912225Y538933D01*
X912306Y538875D01*
X912352Y538806D01*
X912398Y538783D01*
X912455Y538703D01*
X912524Y538657D01*
X912547Y538611D01*
X912582Y538576D01*
X912628Y538553D01*
X912674Y538484D01*
X912720Y538461D01*
X912755Y538426D01*
X912778Y538380D01*
X912858Y538323D01*
X912904Y538253D01*
X912951Y538231D01*
X913192Y537989D01*
X913216Y537943D01*
X913296Y537885D01*
X913342Y537816D01*
X913388Y537793D01*
X913423Y537758D01*
X913446Y537712D01*
X913526Y537655D01*
X913573Y537585D01*
X913619Y537562D01*
X913676Y537482D01*
X913745Y537436D01*
X913768Y537390D01*
X913849Y537332D01*
X913895Y537263D01*
X913941Y537240D01*
X913976Y537205D01*
X913999Y537159D01*
X914079Y537102D01*
X914125Y537033D01*
X914172Y537010D01*
X914229Y536929D01*
X914298Y536883D01*
X914321Y536837D01*
X914402Y536779D01*
X914448Y536710D01*
X914494Y536687D01*
X914528Y536653D01*
X914552Y536606D01*
X914621Y536560D01*
X914644Y536514D01*
X914678Y536480D01*
X914724Y536457D01*
X914770Y536388D01*
X914816Y536365D01*
X914851Y536330D01*
X914874Y536284D01*
X914955Y536226D01*
X915001Y536157D01*
X915047Y536134D01*
X915081Y536100D01*
X915104Y536054D01*
X915185Y535996D01*
X915404Y535777D01*
X915427Y535731D01*
X915508Y535673D01*
X915554Y535604D01*
X915600Y535581D01*
X915634Y535547D01*
X915657Y535501D01*
X915738Y535443D01*
X915784Y535374D01*
X915830Y535351D01*
X915865Y535316D01*
X915888Y535270D01*
X915957Y535224D01*
X915980Y535178D01*
X916061Y535120D01*
X916107Y535051D01*
X916153Y535028D01*
X916187Y534994D01*
X916210Y534948D01*
X916279Y534902D01*
X916302Y534856D01*
X916337Y534821D01*
X916383Y534798D01*
X916429Y534729D01*
X916475Y534706D01*
X916510Y534671D01*
X916533Y534625D01*
X916613Y534568D01*
X916660Y534499D01*
X916706Y534476D01*
X916740Y534441D01*
X916763Y534395D01*
X916832Y534349D01*
X916855Y534303D01*
X916890Y534268D01*
X916936Y534245D01*
X916994Y534164D01*
X917063Y534118D01*
X917086Y534072D01*
X917166Y534015D01*
X917212Y533946D01*
X917258Y533923D01*
X917293Y533888D01*
X917316Y533842D01*
X917397Y533784D01*
X917616Y533566D01*
X917638Y533520D01*
X917719Y533462D01*
X917765Y533393D01*
X917811Y533370D01*
X917846Y533335D01*
X917869Y533289D01*
X917949Y533231D01*
X917996Y533162D01*
X918042Y533139D01*
X918099Y533059D01*
X918168Y533013D01*
X918191Y532967D01*
X918272Y532909D01*
X918318Y532840D01*
X918364Y532817D01*
X918399Y532782D01*
X918422Y532736D01*
X918502Y532679D01*
X918548Y532610D01*
X918595Y532586D01*
X918652Y532506D01*
X918721Y532460D01*
X918744Y532414D01*
X918825Y532356D01*
X918871Y532287D01*
X918917Y532264D01*
X918952Y532229D01*
X918975Y532183D01*
X919044Y532137D01*
X919067Y532091D01*
X919101Y532057D01*
X919147Y532034D01*
X919193Y531964D01*
X919240Y531941D01*
X919274Y531907D01*
X919297Y531861D01*
X919378Y531803D01*
X919424Y531734D01*
X919470Y531711D01*
X919505Y531676D01*
X919528Y531630D01*
X919608Y531573D01*
X919827Y531354D01*
X919850Y531308D01*
X919931Y531250D01*
X919977Y531181D01*
X920023Y531158D01*
X920057Y531124D01*
X920080Y531078D01*
X920161Y531020D01*
X920207Y530951D01*
X920253Y530928D01*
X920288Y530893D01*
X920311Y530847D01*
X920380Y530801D01*
X920403Y530755D01*
X920484Y530697D01*
X920530Y530628D01*
X920576Y530605D01*
X920610Y530571D01*
X920633Y530525D01*
X920702Y530479D01*
X920726Y530433D01*
X920760Y530398D01*
X920806Y530375D01*
X920852Y530306D01*
X920898Y530283D01*
X920933Y530248D01*
X920956Y530202D01*
X921048Y530133D01*
X921071Y530087D01*
X921163Y530018D01*
Y529995D01*
X921198Y529960D01*
X921244Y529937D01*
X921301Y529857D01*
X921371Y529810D01*
X921393Y529765D01*
X921428Y529730D01*
X921474Y529707D01*
X921520Y529638D01*
X921566Y529615D01*
X921601Y529580D01*
X921624Y529534D01*
X921716Y529465D01*
X921739Y529419D01*
X921877Y529304D01*
X922039Y529143D01*
X922062Y529096D01*
X922142Y529039D01*
X922188Y528970D01*
X922234Y528947D01*
X922269Y528912D01*
X922292Y528866D01*
X922373Y528808D01*
X922419Y528739D01*
X922465Y528716D01*
X922522Y528636D01*
X922591Y528590D01*
X922614Y528544D01*
X922695Y528486D01*
X922741Y528417D01*
X922787Y528394D01*
X922822Y528359D01*
X922845Y528313D01*
X922925Y528256D01*
X922972Y528186D01*
X923018Y528163D01*
X923075Y528083D01*
X923144Y528037D01*
X923167Y527991D01*
X923248Y527933D01*
X923294Y527864D01*
X923340Y527841D01*
X923375Y527806D01*
X923398Y527760D01*
X923467Y527714D01*
X923490Y527668D01*
X923524Y527634D01*
X923571Y527610D01*
X923617Y527541D01*
X923663Y527518D01*
X923697Y527484D01*
X923720Y527438D01*
X923801Y527380D01*
X923847Y527311D01*
X923893Y527288D01*
X923928Y527253D01*
X923951Y527207D01*
X924031Y527150D01*
X924250Y526931D01*
X924273Y526885D01*
X924354Y526827D01*
X924400Y526758D01*
X924446Y526735D01*
X924481Y526701D01*
X924504Y526654D01*
X924584Y526597D01*
X924630Y526528D01*
X924676Y526505D01*
X924711Y526470D01*
X924734Y526424D01*
X924803Y526378D01*
X924826Y526332D01*
X924907Y526274D01*
X924953Y526205D01*
X924999Y526182D01*
X925033Y526148D01*
X925056Y526102D01*
X925126Y526055D01*
X925149Y526010D01*
X925183Y525975D01*
X925229Y525952D01*
X925275Y525883D01*
X925321Y525860D01*
X925356Y525825D01*
X925379Y525779D01*
X925459Y525722D01*
X925506Y525652D01*
X925552Y525629D01*
X925586Y525595D01*
X925609Y525549D01*
X925678Y525503D01*
X925701Y525457D01*
X925736Y525422D01*
X925782Y525399D01*
X925840Y525318D01*
X925909Y525272D01*
X925932Y525226D01*
X926012Y525169D01*
X926058Y525100D01*
X926105Y525076D01*
X926139Y525042D01*
X926162Y524996D01*
X926243Y524938D01*
X926462Y524719D01*
X926485Y524673D01*
X926565Y524616D01*
X926611Y524547D01*
X926657Y524524D01*
X926692Y524489D01*
X926715Y524443D01*
X926796Y524385D01*
X926842Y524316D01*
X926888Y524293D01*
X926945Y524213D01*
X927015Y524166D01*
X927038Y524120D01*
X927118Y524063D01*
X927164Y523994D01*
X927210Y523971D01*
X927245Y523936D01*
X927268Y523890D01*
X927349Y523833D01*
X927395Y523763D01*
X927441Y523740D01*
X927498Y523660D01*
X927567Y523614D01*
X927590Y523567D01*
X927683Y523498D01*
X927706Y523452D01*
X927798Y523383D01*
X927821Y523337D01*
X927890Y523291D01*
X927913Y523245D01*
X927948Y523210D01*
X927994Y523187D01*
X928040Y523118D01*
X928086Y523095D01*
X928120Y523061D01*
X928143Y523015D01*
X928224Y522957D01*
X928270Y522888D01*
X928316Y522865D01*
X928351Y522830D01*
X928374Y522784D01*
X928454Y522727D01*
X928673Y522508D01*
X928696Y522462D01*
X928777Y522404D01*
X928823Y522335D01*
X928869Y522312D01*
X928903Y522277D01*
X928927Y522231D01*
X929007Y522174D01*
X929053Y522105D01*
X929099Y522082D01*
X929134Y522047D01*
X929157Y522001D01*
X929226Y521955D01*
X929249Y521909D01*
X929330Y521851D01*
X929376Y521782D01*
X929422Y521759D01*
X929456Y521725D01*
X929480Y521678D01*
X929549Y521632D01*
X929572Y521586D01*
X929606Y521552D01*
X929652Y521529D01*
X929698Y521460D01*
X929744Y521437D01*
X929779Y521402D01*
X929802Y521356D01*
X929883Y521298D01*
X929929Y521229D01*
X929975Y521206D01*
X930009Y521172D01*
X930032Y521126D01*
X930101Y521080D01*
X930124Y521033D01*
X930159Y520999D01*
X930205Y520976D01*
X930263Y520895D01*
X930332Y520849D01*
X930355Y520803D01*
X930447Y520734D01*
X930470Y520688D01*
X930562Y520619D01*
X930585Y520573D01*
X930723Y520458D01*
X930885Y520296D01*
X930908Y520250D01*
X930988Y520193D01*
X931034Y520123D01*
X931081Y520100D01*
X931115Y520066D01*
X931138Y520020D01*
X931219Y519962D01*
X931265Y519893D01*
X931311Y519870D01*
X931357Y519801D01*
X931403Y519778D01*
X931438Y519743D01*
X931461Y519697D01*
X931564Y519663D01*
X931691Y519767D01*
X932221Y520296D01*
X932232Y520331D01*
X932278Y520354D01*
X932543Y520619D01*
X932566Y520665D01*
X932647Y520722D01*
X932670Y520769D01*
X932716Y520792D01*
X932751Y520826D01*
X932774Y520872D01*
X932808Y520907D01*
X932854Y520930D01*
X932889Y520964D01*
X932900Y520999D01*
X932946Y521022D01*
X933096Y521172D01*
X933108Y521206D01*
X933154Y521229D01*
X933995Y522070D01*
X934006Y522105D01*
X934052Y522128D01*
X934663Y522738D01*
X934674Y522773D01*
X934720Y522796D01*
X934755Y522830D01*
X934766Y522865D01*
X934813Y522888D01*
X934847Y522923D01*
X934870Y522969D01*
X934905Y523003D01*
X934951Y523026D01*
X935020Y523118D01*
X935066Y523141D01*
X935100Y523176D01*
X935112Y523210D01*
X935158Y523234D01*
X935193Y523268D01*
X935216Y523314D01*
X935296Y523372D01*
X935423Y523498D01*
X935435Y523533D01*
X935481Y523556D01*
X936298Y524374D01*
X936310Y524408D01*
X936356Y524431D01*
X936644Y524719D01*
X936656Y524754D01*
X936701Y524777D01*
X936967Y525042D01*
X936989Y525088D01*
X937070Y525146D01*
X937093Y525192D01*
X937139Y525215D01*
X937174Y525249D01*
X937197Y525295D01*
X937231Y525330D01*
X937277Y525353D01*
X937335Y525433D01*
X937404Y525480D01*
X937427Y525526D01*
X937519Y525595D01*
X937531Y525629D01*
X937577Y525652D01*
X937865Y525940D01*
X937876Y525975D01*
X937922Y525998D01*
X938072Y526148D01*
X938084Y526182D01*
X938130Y526205D01*
X938395Y526470D01*
X938418Y526516D01*
X938498Y526574D01*
X939086Y527161D01*
X939097Y527196D01*
X939143Y527219D01*
X939178Y527253D01*
X939201Y527299D01*
X939270Y527346D01*
X939293Y527392D01*
X939328Y527426D01*
X939374Y527449D01*
X939431Y527530D01*
X939501Y527576D01*
X939524Y527622D01*
X939604Y527680D01*
X939650Y527749D01*
X939696Y527772D01*
X939731Y527806D01*
X939742Y527841D01*
X939789Y527864D01*
X939846Y527921D01*
X939869Y527968D01*
X939950Y528025D01*
X939984Y528129D01*
X939927Y528209D01*
X939881Y528232D01*
X939846Y528267D01*
X939823Y528313D01*
X939742Y528371D01*
X938648Y529465D01*
X938625Y529511D01*
X938591Y529546D01*
X938544Y529569D01*
X938510Y529603D01*
X938487Y529649D01*
X938441Y529672D01*
X938418Y529718D01*
X938383Y529753D01*
X938337Y529776D01*
X938303Y529810D01*
X938280Y529857D01*
X938210Y529903D01*
X938187Y529949D01*
X938107Y530006D01*
X938072Y530041D01*
X938049Y530087D01*
X937980Y530133D01*
X937957Y530179D01*
X937888Y530225D01*
X937865Y530271D01*
X937807Y530329D01*
X937773Y530340D01*
X937750Y530386D01*
X937427Y530709D01*
X937404Y530755D01*
X937312Y530847D01*
X937289Y530893D01*
X937197Y530985D01*
X937174Y531032D01*
X937082Y531124D01*
X937059Y531170D01*
X936967Y531262D01*
X936897Y531377D01*
X936667Y531815D01*
X936552Y532022D01*
X936506Y532137D01*
X936483Y532229D01*
X936414Y532391D01*
X936379Y532563D01*
X936345Y532598D01*
X936298Y532782D01*
X936264Y532909D01*
X936206Y533059D01*
X936172Y533554D01*
X936149Y533738D01*
X936126Y533830D01*
X936114Y534164D01*
X936137Y534234D01*
X936160Y534602D01*
X936080Y534706D01*
X935987Y534729D01*
X935849Y534821D01*
X935757Y534844D01*
X935619Y534936D01*
X935504Y534959D01*
X935435Y535028D01*
X935342Y535051D01*
X935204Y535144D01*
X935077Y535178D01*
X935020Y535236D01*
X934836Y535305D01*
X934628Y535397D01*
X934582Y535420D01*
X934421Y535489D01*
X933914Y535719D01*
X933845Y535743D01*
X933730Y535812D01*
X933580Y535846D01*
X933522Y535904D01*
X933396Y535938D01*
X933304Y535961D01*
X933269Y535996D01*
X933154Y536042D01*
X933016Y536065D01*
X932970Y536111D01*
X932854Y536157D01*
X932728Y536192D01*
X932693Y536226D01*
X932532Y536272D01*
X932325Y536365D01*
X932198Y536399D01*
X932002Y536480D01*
X931875Y536514D01*
X931749Y536572D01*
X931656Y536595D01*
X931530Y536629D01*
X931495Y536664D01*
X931219Y536733D01*
X931173Y536779D01*
X931081Y536802D01*
X930931Y536837D01*
X930850Y536871D01*
X930735Y536917D01*
X930551Y536940D01*
X930389Y537010D01*
X930297Y537033D01*
X930159Y537056D01*
X929998Y537125D01*
X929906Y537148D01*
X929767Y537171D01*
X929606Y537240D01*
X929364Y537297D01*
X929238Y537355D01*
X929053Y537378D01*
X928892Y537447D01*
X928800Y537470D01*
X928650Y537505D01*
X928524Y537562D01*
X928431Y537585D01*
X928259Y537620D01*
X928132Y537678D01*
X927971Y537701D01*
X927729Y537758D01*
X927602Y537793D01*
X927441Y537816D01*
X927187Y537885D01*
X927095Y537908D01*
X926934Y537931D01*
X926807Y537966D01*
X926611Y538023D01*
X926369Y538058D01*
X926174Y538115D01*
X926081Y538138D01*
X925863Y538173D01*
X925747Y538219D01*
X925471Y538265D01*
X925379Y538288D01*
X925252Y538323D01*
X924976Y538369D01*
X924768Y538392D01*
X924699Y538415D01*
X924515Y538461D01*
X924181Y538495D01*
X924089Y538518D01*
X923962Y538553D01*
X923559Y538611D01*
X923444Y538634D01*
X923317Y538668D01*
X923156Y538691D01*
X922925Y538714D01*
X922856Y538737D01*
X922764Y538760D01*
X922603Y538783D01*
X922511Y538806D01*
X922165Y538830D01*
X922096Y538853D01*
X921912Y538899D01*
X921543Y538922D01*
X921451Y538945D01*
X921175Y538991D01*
X921082Y539014D01*
X920726Y539048D01*
X920472Y539094D01*
X920357Y539117D01*
X920057Y539141D01*
X919781Y539163D01*
X919481Y539210D01*
X919297Y539233D01*
X918929Y539256D01*
X918721Y539279D01*
X918583Y539302D01*
X918272Y539336D01*
X918180Y539359D01*
X917696Y539382D01*
X917627Y539405D01*
X917535Y539428D01*
X917235Y539452D01*
X917143Y539474D01*
X916683Y539498D01*
X916613Y539521D01*
X916291Y539567D01*
X915819Y539601D01*
X915634Y539624D01*
X915519Y539647D01*
X915266Y539670D01*
X914943Y539693D01*
X914690Y539716D01*
X914505Y539739D01*
X914367Y539762D01*
X914160Y539785D01*
X913561Y539832D01*
X913423Y539855D01*
X913239Y539878D01*
X913100Y539901D01*
X912778Y539924D01*
X912363Y539993D01*
X912133Y540016D01*
X911856Y540039D01*
X911580Y540085D01*
X911269Y540120D01*
X911177Y540143D01*
D02*
G37*
G36*
X920345Y507292D02*
X917282Y507269D01*
X913020Y503007D01*
X912974Y502984D01*
X912939Y502949D01*
X912962Y502880D01*
X914770Y502869D01*
X914851Y502926D01*
X914874Y502973D01*
X914966Y503042D01*
X914978Y503076D01*
X915024Y503099D01*
X915058Y503134D01*
X915081Y503180D01*
X915162Y503237D01*
X915208Y503307D01*
X915254Y503330D01*
X915404Y503479D01*
X915415Y503514D01*
X915462Y503537D01*
X917178Y505253D01*
X917201Y505299D01*
X917282Y505357D01*
X917327Y505426D01*
X917374Y505449D01*
X917408Y505484D01*
X917420Y505518D01*
X917466Y505541D01*
X917500Y505576D01*
X917523Y505622D01*
X917604Y505679D01*
X917627Y505725D01*
X917673Y505749D01*
X918111Y506186D01*
X918226Y506255D01*
X918479Y506370D01*
X918571Y506394D01*
X918940Y506370D01*
X919147Y506255D01*
X919355Y506094D01*
X919435Y505967D01*
X919505Y505806D01*
X919574Y505530D01*
X919551Y505392D01*
X919528Y505322D01*
X919481Y505138D01*
X919366Y504977D01*
X919343Y504931D01*
X917685Y503272D01*
X917673Y503237D01*
X917627Y503215D01*
X917305Y502892D01*
X917293Y502880D01*
X916832Y502420D01*
X916809Y502374D01*
X916671Y502258D01*
X916279Y501867D01*
X916256Y501821D01*
X916222Y501786D01*
X916176Y501763D01*
X916095Y501683D01*
X916049Y501567D01*
X916072Y499793D01*
X916130Y499782D01*
X916256Y499909D01*
X916279Y499955D01*
X916337Y500012D01*
X916372Y500024D01*
X916395Y500070D01*
X916452Y500128D01*
X916498Y500151D01*
X916544Y500220D01*
X916590Y500243D01*
X916648Y500323D01*
X916740Y500392D01*
X916752Y500427D01*
X916798Y500450D01*
X916832Y500485D01*
X916855Y500531D01*
X916936Y500588D01*
X916994Y500669D01*
X917040Y500692D01*
X917063Y500738D01*
X917650Y501326D01*
X917696Y501348D01*
X917765Y501441D01*
X917811Y501464D01*
X917846Y501498D01*
X917869Y501544D01*
X917938Y501590D01*
X917961Y501636D01*
X918042Y501694D01*
X918088Y501763D01*
X918134Y501786D01*
X918168Y501821D01*
X918191Y501867D01*
X918226Y501901D01*
X918260Y501913D01*
X918284Y501959D01*
X918318Y501994D01*
X918364Y502017D01*
X918433Y502109D01*
X918479Y502132D01*
X918548Y502224D01*
X918583Y502235D01*
X918606Y502282D01*
X918641Y502316D01*
X918687Y502339D01*
X918721Y502374D01*
X918744Y502420D01*
X918836Y502489D01*
X918859Y502535D01*
X918929Y502581D01*
X918952Y502627D01*
X918986Y502662D01*
X919032Y502685D01*
X919090Y502765D01*
X919136Y502788D01*
X919159Y502834D01*
X919217Y502892D01*
X919251Y502904D01*
X919274Y502949D01*
X919539Y503215D01*
X919585Y503237D01*
X919643Y503318D01*
X919862Y503537D01*
X919908Y503560D01*
X919965Y503641D01*
X920034Y503687D01*
X920057Y503733D01*
X920092Y503767D01*
X920138Y503790D01*
X920196Y503871D01*
X920242Y503894D01*
X920265Y503940D01*
X920299Y503975D01*
X920345Y503998D01*
X920380Y504032D01*
X920403Y504078D01*
X920449Y504124D01*
X920472Y504217D01*
X920449Y506935D01*
X920461Y507223D01*
X920438Y507269D01*
X920345Y507292D01*
D02*
G37*
G36*
X941309Y526804D02*
X941194Y526781D01*
X939800Y525387D01*
X939789Y525353D01*
X939742Y525330D01*
X938948Y524535D01*
X938925Y524489D01*
X938844Y524431D01*
X938026Y523614D01*
X938015Y523579D01*
X937969Y523556D01*
X935377Y520964D01*
X935365Y520930D01*
X935319Y520907D01*
X934525Y520112D01*
X934501Y520066D01*
X934421Y520008D01*
X933603Y519191D01*
X933592Y519156D01*
X933545Y519133D01*
X932843Y518430D01*
X932831Y518373D01*
X932889Y518292D01*
X933096Y518085D01*
X933119Y518039D01*
X933154Y518004D01*
X933200Y517981D01*
X933246Y517912D01*
X933292Y517889D01*
X933327Y517854D01*
X933350Y517808D01*
X933442Y517739D01*
X933465Y517693D01*
X933557Y517624D01*
X933580Y517578D01*
X933649Y517532D01*
X933672Y517486D01*
X933753Y517428D01*
X933799Y517359D01*
X933845Y517336D01*
X933879Y517302D01*
X933902Y517255D01*
X933972Y517209D01*
X933995Y517163D01*
X934029Y517129D01*
X934075Y517106D01*
X934121Y517037D01*
X934167Y517014D01*
X934202Y516979D01*
X934225Y516933D01*
X934306Y516875D01*
X934352Y516806D01*
X934398Y516783D01*
X934432Y516749D01*
X934455Y516703D01*
X934525Y516656D01*
X934548Y516610D01*
X934582Y516576D01*
X934628Y516553D01*
X934686Y516472D01*
X934755Y516426D01*
X934778Y516380D01*
X934859Y516323D01*
X934905Y516253D01*
X934951Y516230D01*
X934985Y516196D01*
X935008Y516150D01*
X935089Y516092D01*
X935112Y516046D01*
X935158Y516023D01*
X935308Y515873D01*
X935331Y515827D01*
X935411Y515770D01*
X935458Y515700D01*
X935504Y515677D01*
X935538Y515643D01*
X935561Y515597D01*
X935642Y515539D01*
X935688Y515470D01*
X935734Y515447D01*
X935792Y515366D01*
X935861Y515320D01*
X935884Y515274D01*
X935976Y515205D01*
X935999Y515159D01*
X936091Y515090D01*
X936114Y515044D01*
X936206Y514975D01*
X936229Y514929D01*
X936298Y514883D01*
X936321Y514837D01*
X936356Y514802D01*
X936402Y514779D01*
X936448Y514710D01*
X936494Y514687D01*
X936529Y514652D01*
X936552Y514606D01*
X936632Y514549D01*
X936679Y514479D01*
X936725Y514457D01*
X936782Y514376D01*
X936851Y514330D01*
X936874Y514284D01*
X936909Y514249D01*
X936955Y514226D01*
X937001Y514157D01*
X937047Y514134D01*
X937082Y514099D01*
X937105Y514053D01*
X937185Y513996D01*
X937231Y513927D01*
X937277Y513904D01*
X937519Y513662D01*
X937542Y513616D01*
X937634Y513547D01*
X937658Y513500D01*
X937727Y513454D01*
X937750Y513408D01*
X937784Y513374D01*
X937830Y513351D01*
X937865Y513316D01*
X937888Y513270D01*
X937980Y513201D01*
X938003Y513155D01*
X938072Y513109D01*
X938095Y513063D01*
X938176Y513005D01*
X938222Y512936D01*
X938268Y512913D01*
X938303Y512878D01*
X938326Y512832D01*
X938395Y512786D01*
X938418Y512740D01*
X938452Y512706D01*
X938498Y512683D01*
X938556Y512602D01*
X938625Y512556D01*
X938648Y512510D01*
X938740Y512441D01*
X938763Y512395D01*
X938855Y512326D01*
X938879Y512280D01*
X938948Y512233D01*
X938971Y512187D01*
X939005Y512153D01*
X939051Y512130D01*
X939109Y512049D01*
X939178Y512003D01*
X939201Y511957D01*
X939236Y511922D01*
X939282Y511899D01*
X939328Y511830D01*
X939374Y511807D01*
X939408Y511773D01*
X939431Y511727D01*
X939512Y511669D01*
X939535Y511623D01*
X939581Y511600D01*
X939731Y511450D01*
X939754Y511404D01*
X939834Y511346D01*
X939881Y511277D01*
X939927Y511254D01*
X939961Y511220D01*
X939984Y511174D01*
X940053Y511128D01*
X940076Y511082D01*
X940111Y511047D01*
X940157Y511024D01*
X940226Y510932D01*
X940272Y510909D01*
X940318Y510840D01*
X940364Y510817D01*
X940399Y510782D01*
X940422Y510736D01*
X940514Y510667D01*
X940537Y510621D01*
X940629Y510552D01*
X940652Y510506D01*
X940722Y510460D01*
X940744Y510414D01*
X940779Y510379D01*
X940825Y510356D01*
X940871Y510287D01*
X940917Y510264D01*
X940952Y510229D01*
X940975Y510183D01*
X941055Y510125D01*
X941102Y510056D01*
X941148Y510033D01*
X941205Y509953D01*
X941274Y509907D01*
X941297Y509861D01*
X941332Y509826D01*
X941378Y509803D01*
X941424Y509734D01*
X941470Y509711D01*
X941505Y509676D01*
X941528Y509630D01*
X941620Y509561D01*
X941643Y509515D01*
X941781Y509400D01*
X941850Y509331D01*
X941862Y509296D01*
X941908Y509273D01*
X941942Y509239D01*
X941965Y509193D01*
X942000Y509158D01*
X942046Y509135D01*
X942092Y509066D01*
X942138Y509043D01*
X942207Y508951D01*
X942253Y508928D01*
X942323Y508836D01*
X942369Y508812D01*
X942403Y508778D01*
X942426Y508732D01*
X942495Y508686D01*
X942518Y508640D01*
X942599Y508582D01*
X942645Y508513D01*
X942691Y508490D01*
X942726Y508455D01*
X942749Y508409D01*
X942818Y508363D01*
X942841Y508317D01*
X942875Y508283D01*
X942922Y508260D01*
X942991Y508167D01*
X943037Y508144D01*
X943083Y508075D01*
X943129Y508052D01*
X943163Y508018D01*
X943186Y507972D01*
X943279Y507902D01*
X943302Y507856D01*
X943371Y507810D01*
X943394Y507764D01*
X943428Y507730D01*
X943474Y507707D01*
X943532Y507626D01*
X943601Y507580D01*
X943624Y507534D01*
X943659Y507499D01*
X943705Y507476D01*
X943751Y507407D01*
X943797Y507384D01*
X943855Y507303D01*
X943935Y507246D01*
X943958Y507200D01*
X944004Y507177D01*
X944154Y507027D01*
X944177Y506981D01*
X944269Y506912D01*
X944292Y506866D01*
X944384Y506797D01*
X944407Y506751D01*
X944477Y506705D01*
X944499Y506659D01*
X944534Y506624D01*
X944580Y506601D01*
X944638Y506520D01*
X944707Y506474D01*
X944730Y506428D01*
X944764Y506394D01*
X944799Y506382D01*
X944822Y506336D01*
X944857Y506301D01*
X944903Y506278D01*
X944937Y506244D01*
X944960Y506198D01*
X945041Y506140D01*
X945087Y506071D01*
X945133Y506048D01*
X945202Y505956D01*
X945248Y505933D01*
X945294Y505864D01*
X945340Y505841D01*
X945375Y505806D01*
X945398Y505760D01*
X945432Y505725D01*
X945479Y505702D01*
X945525Y505633D01*
X945571Y505610D01*
X945640Y505518D01*
X945686Y505495D01*
X945755Y505403D01*
X945801Y505380D01*
X945870Y505288D01*
X945916Y505265D01*
X945962Y505196D01*
X946008Y505173D01*
X946043Y505138D01*
X946066Y505092D01*
X946204Y504977D01*
X946366Y504815D01*
X946389Y504770D01*
X946423Y504735D01*
X946469Y504712D01*
X946515Y504643D01*
X946561Y504620D01*
X946619Y504539D01*
X946688Y504493D01*
X946711Y504447D01*
X946746Y504412D01*
X946792Y504389D01*
X946849Y504309D01*
X946918Y504263D01*
X946941Y504217D01*
X947034Y504147D01*
X947057Y504101D01*
X947137Y504044D01*
X947183Y503975D01*
X947229Y503952D01*
X947287Y503871D01*
X947356Y503825D01*
X947379Y503779D01*
X947414Y503744D01*
X947460Y503721D01*
X947506Y503652D01*
X947552Y503629D01*
X947586Y503595D01*
X947610Y503548D01*
X947690Y503491D01*
X947736Y503422D01*
X947782Y503399D01*
X947851Y503307D01*
X947897Y503284D01*
X947967Y503191D01*
X948013Y503168D01*
X948082Y503076D01*
X948128Y503053D01*
X948197Y502961D01*
X948232Y502949D01*
X948254Y502904D01*
X948289Y502869D01*
X948335Y502846D01*
X948370Y502811D01*
X948393Y502765D01*
X948473Y502708D01*
X948577Y502604D01*
X948600Y502558D01*
X948635Y502523D01*
X948681Y502500D01*
X948727Y502431D01*
X948773Y502408D01*
X948830Y502328D01*
X948900Y502282D01*
X948923Y502235D01*
X948957Y502201D01*
X949003Y502178D01*
X949061Y502097D01*
X949130Y502051D01*
X949153Y502005D01*
X949187Y501970D01*
X949222Y501959D01*
X949245Y501913D01*
X949280Y501878D01*
X949326Y501855D01*
X949360Y501821D01*
X949383Y501775D01*
X949452Y501729D01*
X949475Y501683D01*
X949510Y501648D01*
X949556Y501625D01*
X949614Y501544D01*
X949683Y501498D01*
X949706Y501452D01*
X949740Y501418D01*
X949786Y501395D01*
X949844Y501314D01*
X949890Y501291D01*
X949913Y501245D01*
X949948Y501210D01*
X949994Y501187D01*
X950051Y501107D01*
X950097Y501084D01*
X950121Y501038D01*
X950178Y500980D01*
X950224Y500957D01*
X950282Y500876D01*
X950351Y500830D01*
X950374Y500784D01*
X950443Y500738D01*
X950466Y500692D01*
X950501Y500657D01*
X950547Y500634D01*
X950696Y500485D01*
X950708Y500450D01*
X950754Y500427D01*
X950789Y500392D01*
X950812Y500346D01*
X950846Y500312D01*
X950892Y500289D01*
X950938Y500220D01*
X950984Y500197D01*
X951054Y500105D01*
X951100Y500081D01*
X951169Y499989D01*
X951215Y499966D01*
X951284Y499874D01*
X951330Y499851D01*
X951399Y499759D01*
X951445Y499736D01*
X951491Y499667D01*
X951537Y499644D01*
X951595Y499563D01*
X951664Y499517D01*
X951687Y499471D01*
X951722Y499436D01*
X951768Y499413D01*
X951825Y499333D01*
X951871Y499310D01*
X951894Y499264D01*
X951952Y499206D01*
X951998Y499183D01*
X952056Y499102D01*
X952125Y499056D01*
X952148Y499010D01*
X952217Y498964D01*
X952240Y498918D01*
X952275Y498884D01*
X952320Y498861D01*
X952378Y498780D01*
X952447Y498734D01*
X952470Y498688D01*
X952505Y498653D01*
X952551Y498630D01*
X952608Y498550D01*
X952655Y498526D01*
X952678Y498480D01*
X952712Y498446D01*
X952758Y498423D01*
X952793Y498388D01*
X952816Y498342D01*
X952896Y498285D01*
X953000Y498181D01*
X953023Y498135D01*
X953058Y498100D01*
X953104Y498077D01*
X953161Y497997D01*
X953265Y497893D01*
X953334Y497916D01*
X953346Y498043D01*
X953323Y498112D01*
X953300Y498434D01*
X953277Y498503D01*
X953253Y498665D01*
X953230Y498757D01*
X953207Y499218D01*
X953184Y499287D01*
X953150Y499506D01*
X953127Y499644D01*
X953104Y499943D01*
X953081Y500220D01*
X953023Y500692D01*
X953000Y500853D01*
X952977Y501314D01*
X952954Y501383D01*
X952931Y501613D01*
X952908Y501706D01*
X952873Y502201D01*
X952850Y502408D01*
X952804Y502685D01*
X952758Y503307D01*
X952735Y503491D01*
X952712Y503606D01*
X952689Y503790D01*
X952666Y504113D01*
X952643Y504366D01*
X952597Y504643D01*
X952574Y504850D01*
X952551Y505150D01*
X952528Y505357D01*
X952505Y505495D01*
X952470Y505806D01*
X952447Y505898D01*
X952424Y506405D01*
X952401Y506474D01*
X952367Y506693D01*
X952344Y506923D01*
X952320Y507177D01*
X952297Y507361D01*
X952251Y507591D01*
X952228Y507799D01*
X952205Y508029D01*
X952159Y508260D01*
X952136Y508398D01*
X952113Y508628D01*
X952090Y508836D01*
X952021Y509181D01*
X951998Y509457D01*
X951975Y509596D01*
X951940Y509722D01*
X951917Y509815D01*
X951894Y510045D01*
X951871Y510137D01*
X951837Y510310D01*
X951814Y510402D01*
X951791Y510540D01*
X951768Y510747D01*
X951745Y510863D01*
X951710Y510989D01*
X951687Y511151D01*
X951664Y511243D01*
X951641Y511473D01*
X951618Y511542D01*
X951595Y511634D01*
X951537Y512038D01*
X951514Y512153D01*
X951480Y512280D01*
X951457Y512372D01*
X951422Y512591D01*
X951365Y512786D01*
X951342Y512878D01*
X951307Y513097D01*
X951249Y513247D01*
X951192Y513581D01*
X951134Y513777D01*
X951111Y513938D01*
X951077Y514065D01*
X951019Y514215D01*
X950984Y514479D01*
X950961Y514572D01*
X950927Y514675D01*
X950904Y514768D01*
X950869Y514963D01*
X950823Y515078D01*
X950789Y515205D01*
X950754Y515378D01*
X950696Y515505D01*
X950673Y515666D01*
X950616Y515816D01*
X950581Y515919D01*
X950558Y516011D01*
X950535Y516127D01*
X950466Y516288D01*
X950443Y516449D01*
X950374Y516610D01*
X950351Y516703D01*
X950316Y516852D01*
X950270Y516967D01*
X950236Y517094D01*
X950213Y517232D01*
X950144Y517394D01*
X950086Y517635D01*
X950028Y517762D01*
X950005Y517854D01*
X949971Y517981D01*
X949936Y518016D01*
X949867Y518292D01*
X949821Y518338D01*
X949763Y518580D01*
X949706Y518707D01*
X949683Y518799D01*
X949648Y518926D01*
X949614Y518960D01*
X949568Y519121D01*
X949522Y519237D01*
X949452Y519398D01*
X949429Y519490D01*
X949360Y519651D01*
X949303Y519801D01*
X949268Y519836D01*
X949234Y519985D01*
X949130Y520227D01*
X949107Y520319D01*
X948900Y520757D01*
X948784Y521010D01*
X948761Y521103D01*
X948692Y521172D01*
X948669Y521310D01*
X948577Y521448D01*
X948554Y521586D01*
X948485Y521656D01*
X948450Y521782D01*
X948347Y521955D01*
X948324Y522047D01*
X948277Y522093D01*
X948208Y522277D01*
X948162Y522324D01*
X948093Y522508D01*
X948047Y522554D01*
X947990Y522704D01*
X947897Y522865D01*
X947886Y522876D01*
X947863Y522923D01*
X947759Y522957D01*
X947402Y522923D01*
X947114Y522911D01*
X947045Y522934D01*
X946815Y522957D01*
X946723Y522980D01*
X946262Y523003D01*
X946101Y523072D01*
X946008Y523095D01*
X945859Y523130D01*
X945743Y523176D01*
X945640Y523210D01*
X945467Y523245D01*
X945432Y523280D01*
X945214Y523360D01*
X945179Y523395D01*
X945064Y523441D01*
X945018Y523464D01*
X944972Y523510D01*
X944857Y523556D01*
X944741Y523625D01*
X944534Y523740D01*
X944373Y523855D01*
X944327Y523902D01*
X944281Y523925D01*
X944258Y523971D01*
X944211Y523994D01*
X944154Y524028D01*
X944131Y524074D01*
X944016Y524144D01*
X944004Y524178D01*
X943958Y524201D01*
X943831Y524305D01*
X943797Y524339D01*
X943751Y524362D01*
X943071Y525042D01*
X943048Y525088D01*
X943014Y525122D01*
X942968Y525146D01*
X942910Y525226D01*
X942806Y525330D01*
X942760Y525353D01*
X942726Y525387D01*
X942703Y525433D01*
X942668Y525468D01*
X942634Y525480D01*
X942610Y525526D01*
X942576Y525560D01*
X942530Y525583D01*
X942495Y525618D01*
X942472Y525664D01*
X942369Y525768D01*
X942323Y525791D01*
X942265Y525871D01*
X942184Y525929D01*
X942127Y526010D01*
X942081Y526032D01*
X942058Y526079D01*
X942000Y526136D01*
X941965Y526148D01*
X941942Y526194D01*
X941862Y526251D01*
X941309Y526804D01*
D02*
G37*
G36*
X943797Y529315D02*
X943705Y529292D01*
X943647Y529235D01*
X943624Y529188D01*
X943590Y529154D01*
X943544Y529131D01*
X943279Y528866D01*
X943267Y528831D01*
X943221Y528808D01*
X942818Y528405D01*
X942795Y528359D01*
X942714Y528279D01*
X942680Y528267D01*
X942668Y528232D01*
X942622Y528209D01*
X942564Y528152D01*
X942587Y528060D01*
X942668Y527956D01*
X942703Y527945D01*
X942726Y527899D01*
X942898Y527726D01*
X942933Y527714D01*
X942956Y527668D01*
X943106Y527518D01*
X943140Y527507D01*
X943163Y527461D01*
X943221Y527403D01*
X943256Y527392D01*
X943279Y527346D01*
X944211Y526413D01*
X944246Y526401D01*
X944269Y526355D01*
X944327Y526297D01*
X944361Y526286D01*
X944384Y526240D01*
X944880Y525744D01*
X944914Y525733D01*
X944937Y525687D01*
X944995Y525629D01*
X945041Y525606D01*
X945064Y525560D01*
X945110Y525537D01*
X945202Y525445D01*
X945248Y525422D01*
X945340Y525330D01*
X945386Y525307D01*
X945455Y525238D01*
X945617Y525146D01*
X945824Y525030D01*
X946170Y524869D01*
X946331Y524846D01*
X946492Y524777D01*
X946653Y524754D01*
X946988Y524719D01*
X947126Y524696D01*
X947368Y524685D01*
X947437Y524708D01*
X947667Y524731D01*
X947759Y524754D01*
X948001Y524789D01*
X948185Y524835D01*
X948496Y524846D01*
X948704Y524754D01*
X948819Y524685D01*
X948865Y524639D01*
X948911Y524616D01*
X949015Y524512D01*
X949038Y524466D01*
X949107Y524397D01*
X949164Y524247D01*
X949199Y524213D01*
X949245Y524097D01*
X949314Y523982D01*
X949360Y523867D01*
X949383Y523821D01*
X949429Y523775D01*
X949487Y523625D01*
X949522Y523591D01*
X949545Y523545D01*
X949591Y523429D01*
X949614Y523383D01*
X949660Y523337D01*
X949717Y523187D01*
X949798Y523038D01*
X949913Y522784D01*
X949936Y522738D01*
X949982Y522692D01*
X950005Y522600D01*
X950144Y522300D01*
X950167Y522254D01*
X950259Y522047D01*
X950282Y522001D01*
X950328Y521955D01*
X950362Y521828D01*
X950443Y521678D01*
X950501Y521529D01*
X950558Y521402D01*
X950581Y521310D01*
X950604Y521264D01*
X950696Y521057D01*
X950720Y520987D01*
X950789Y520826D01*
X950812Y520734D01*
X950881Y520619D01*
X950950Y520435D01*
X951019Y520273D01*
X951042Y520181D01*
X951088Y520135D01*
X951134Y519951D01*
X951226Y519743D01*
X951261Y519594D01*
X951318Y519490D01*
X951342Y519398D01*
X951457Y519098D01*
X951491Y518972D01*
X951549Y518868D01*
X951595Y518661D01*
X951664Y518499D01*
X951722Y518258D01*
X951756Y518223D01*
X951779Y518062D01*
X951860Y517843D01*
X951894Y517716D01*
X951917Y517578D01*
X951987Y517417D01*
X952009Y517324D01*
X952044Y517198D01*
X952102Y517071D01*
X952125Y516910D01*
X952194Y516749D01*
X952217Y516656D01*
X952251Y516507D01*
X952309Y516380D01*
X952332Y516288D01*
X952355Y516150D01*
X952447Y515942D01*
X952482Y515746D01*
X952528Y515631D01*
X952551Y515516D01*
X952574Y515378D01*
X952597Y515263D01*
X952655Y515113D01*
X952701Y514814D01*
X952747Y514698D01*
X952770Y514606D01*
X952804Y514387D01*
X952862Y514238D01*
X952885Y514076D01*
X952908Y513984D01*
X952931Y513846D01*
X952977Y513731D01*
X953000Y513639D01*
X953023Y513454D01*
X953069Y513339D01*
X953092Y513247D01*
X953115Y513086D01*
X953161Y512901D01*
X953184Y512832D01*
X953207Y512740D01*
X953242Y512452D01*
X953311Y512176D01*
X953334Y511992D01*
X953380Y511715D01*
X953426Y511531D01*
X953449Y511323D01*
X953472Y511185D01*
X953495Y511093D01*
X953530Y510966D01*
X953553Y510805D01*
X953576Y510598D01*
X953599Y510529D01*
X953645Y510344D01*
X953668Y510114D01*
X953691Y509953D01*
X953714Y509861D01*
X953760Y509584D01*
X953783Y509354D01*
X953806Y509193D01*
X953852Y509008D01*
X953876Y508778D01*
X953899Y508617D01*
X953922Y508409D01*
X953945Y508340D01*
X953968Y508179D01*
X953991Y508087D01*
X954025Y507730D01*
X954048Y507591D01*
X954094Y507361D01*
X954117Y506947D01*
X954140Y506739D01*
X954187Y506463D01*
X954210Y506232D01*
X954256Y505702D01*
X954302Y505426D01*
X954325Y505150D01*
X954348Y504896D01*
X954371Y504689D01*
X954394Y504597D01*
X954417Y504412D01*
X954440Y504113D01*
X954463Y503860D01*
X954486Y503675D01*
X954509Y503537D01*
X954544Y503226D01*
X954578Y502754D01*
X954624Y502477D01*
X954647Y502270D01*
X954693Y501694D01*
X954739Y501418D01*
X954762Y501164D01*
X954786Y500842D01*
X954809Y500657D01*
X954832Y500542D01*
X954855Y500404D01*
X954878Y500151D01*
X954924Y499621D01*
X954947Y499482D01*
X954981Y499171D01*
X955016Y498768D01*
X955039Y498676D01*
X955062Y498538D01*
X955085Y498354D01*
X955108Y498100D01*
X955131Y497916D01*
X955177Y497686D01*
X955200Y497547D01*
X955223Y497340D01*
X955246Y497202D01*
X955292Y497018D01*
X955315Y496879D01*
X955338Y496672D01*
X955361Y496557D01*
X955384Y496465D01*
X955419Y496338D01*
X955453Y496050D01*
X955500Y495935D01*
X955523Y495843D01*
X955546Y495705D01*
X955569Y495589D01*
X955626Y495394D01*
X955649Y495301D01*
X955672Y495117D01*
X955742Y494956D01*
X955764Y494864D01*
X955880Y494564D01*
X955903Y494449D01*
X955972Y494288D01*
X955995Y494196D01*
X956041Y494080D01*
X956271Y493643D01*
X956341Y493481D01*
X956363Y493435D01*
X956433Y493320D01*
X956525Y493159D01*
X956628Y493032D01*
X956709Y492906D01*
X956778Y492836D01*
X956801Y492790D01*
X956847Y492767D01*
X956916Y492652D01*
X956985Y492583D01*
X957008Y492537D01*
X957066Y492479D01*
X957181Y492410D01*
X957227Y492364D01*
X957320Y492341D01*
X957481Y492272D01*
X957734Y492249D01*
X957803Y492272D01*
X957930Y492307D01*
X958103Y492387D01*
X958172Y492456D01*
X958287Y492525D01*
X958379Y492664D01*
X958414Y492698D01*
X958506Y492929D01*
X958529Y493228D01*
X958506Y493297D01*
X958483Y493412D01*
X958368Y493620D01*
X958322Y493666D01*
X958253Y493781D01*
X958206Y493827D01*
X958137Y493942D01*
X958091Y493988D01*
X958068Y494034D01*
X957976Y494126D01*
X957907Y494242D01*
X957746Y494587D01*
X957723Y494656D01*
X957654Y494771D01*
X957631Y494864D01*
X957607Y494910D01*
X957538Y495071D01*
X957504Y495244D01*
X957446Y495370D01*
X957389Y495612D01*
X957331Y495762D01*
X957308Y495923D01*
X957273Y496096D01*
X957227Y496211D01*
X957204Y496326D01*
X957158Y496580D01*
X957124Y496684D01*
X957101Y496845D01*
X957078Y497075D01*
X957020Y497340D01*
X956997Y497478D01*
X956974Y497709D01*
X956951Y497916D01*
X956905Y498100D01*
X956882Y498239D01*
X956859Y498538D01*
X956836Y498676D01*
X956790Y498907D01*
X956755Y499218D01*
X956697Y499644D01*
X956663Y499955D01*
X956640Y500254D01*
X956605Y500565D01*
X956582Y500680D01*
X956559Y500819D01*
X956513Y501418D01*
X956467Y501717D01*
X956444Y501901D01*
X956421Y502224D01*
X956398Y502477D01*
X956352Y502777D01*
X956329Y503030D01*
X956306Y503422D01*
X956283Y503606D01*
X956248Y503917D01*
X956225Y504009D01*
X956202Y504447D01*
X956145Y504850D01*
X956110Y505161D01*
X956087Y505322D01*
X956064Y505691D01*
X956041Y505760D01*
X955995Y506083D01*
X955972Y506451D01*
X955949Y506543D01*
X955914Y506762D01*
X955880Y507073D01*
X955845Y507499D01*
X955822Y507615D01*
X955799Y507753D01*
X955776Y507937D01*
X955753Y508214D01*
X955707Y508467D01*
X955684Y508582D01*
X955649Y508893D01*
X955615Y509112D01*
X955592Y509227D01*
X955557Y509354D01*
X955523Y509711D01*
X955500Y509849D01*
X955453Y510033D01*
X955431Y510264D01*
X955408Y510471D01*
X955384Y510563D01*
X955350Y510690D01*
X955327Y510989D01*
X955304Y511082D01*
X955281Y511266D01*
X955258Y511335D01*
X955235Y511427D01*
X955189Y511750D01*
X955166Y511819D01*
X955097Y512095D01*
X955073Y512326D01*
X955027Y512441D01*
X955004Y512602D01*
X954981Y512694D01*
X954958Y512901D01*
X954912Y513017D01*
X954866Y513339D01*
X954832Y513489D01*
X954797Y513616D01*
X954751Y513938D01*
X954716Y514065D01*
X954670Y514249D01*
X954647Y514433D01*
X954624Y514526D01*
X954567Y514675D01*
X954521Y514975D01*
X954475Y515090D01*
X954451Y515182D01*
X954428Y515343D01*
X954405Y515436D01*
X954359Y515551D01*
X954336Y515643D01*
X954302Y515862D01*
X954256Y515977D01*
X954221Y516104D01*
X954187Y516253D01*
X954140Y516368D01*
X954106Y516495D01*
X954071Y516668D01*
X954025Y516783D01*
X954002Y516875D01*
X953979Y517014D01*
X953933Y517129D01*
X953899Y517255D01*
X953876Y517348D01*
X953852Y517463D01*
X953783Y517624D01*
X953737Y517831D01*
X953668Y517993D01*
X953622Y518200D01*
X953553Y518361D01*
X953541Y518465D01*
X953530Y518476D01*
X953507Y518569D01*
X953438Y518730D01*
X953415Y518868D01*
X953346Y519029D01*
X953323Y519121D01*
X953230Y519352D01*
X953196Y519501D01*
X953161Y519536D01*
X953115Y519697D01*
X953058Y519847D01*
X953023Y519882D01*
X952977Y520089D01*
X952885Y520296D01*
X952850Y520423D01*
X952793Y520550D01*
X952758Y520699D01*
X952678Y520849D01*
X952643Y520976D01*
X952562Y521126D01*
X952528Y521252D01*
X952470Y521356D01*
X952447Y521448D01*
X952332Y521702D01*
X952309Y521794D01*
X952217Y522001D01*
X952194Y522093D01*
X952148Y522139D01*
X952125Y522231D01*
X952079Y522347D01*
X952033Y522393D01*
X952009Y522485D01*
X951779Y522969D01*
X951549Y523475D01*
X951157Y524236D01*
X950950Y524627D01*
X950881Y524789D01*
X950858Y524835D01*
X950812Y524881D01*
X950754Y525030D01*
X950696Y525088D01*
X950639Y525238D01*
X950604Y525272D01*
X950420Y525618D01*
X950328Y525756D01*
X950305Y525825D01*
X950259Y525871D01*
X950144Y526079D01*
X950074Y526194D01*
X949959Y526401D01*
X949913Y526447D01*
X949890Y526539D01*
X949798Y526631D01*
X949775Y526724D01*
X949729Y526770D01*
X949706Y526816D01*
X949602Y526942D01*
X949395Y527150D01*
X949234Y527196D01*
X949026Y527288D01*
X948807Y527253D01*
X948669Y527230D01*
X948554Y527184D01*
X948312Y527011D01*
X948208Y526931D01*
X948197Y526896D01*
X948151Y526873D01*
X948036Y526758D01*
X947921Y526689D01*
X947667Y526528D01*
X947414Y526505D01*
X947299Y526459D01*
X947045Y526482D01*
X946930Y526528D01*
X946723Y526551D01*
X946584Y526643D01*
X946538Y526666D01*
X946469Y526735D01*
X946308Y526827D01*
X946262Y526873D01*
X946216Y526896D01*
X943797Y529315D01*
D02*
G37*
%LPD*%
D10*
X921342Y564632D02*
G03*
X921342Y564632I-1510J0D01*
G01*
X792771Y657279D02*
G03*
X792771Y657279I-206J0D01*
G01*
X873400Y759200D02*
Y797200D01*
X799400D02*
X873400D01*
X799400Y758200D02*
Y797200D01*
Y758200D02*
X873400D01*
Y759200D01*
D11*
X918682Y623397D02*
G03*
X918682Y623397I-197J0D01*
G01*
X764097Y727511D02*
G03*
X764097Y727511I-197J0D01*
G01*
D12*
X886992Y572200D02*
G03*
X886992Y572200I-492J0D01*
G01*
X773991Y620900D02*
G03*
X773991Y620900I-492J0D01*
G01*
X874762Y499295D02*
G03*
X874762Y499295I-492J0D01*
G01*
X866392Y701917D02*
G03*
X866392Y701917I-492J0D01*
G01*
X854904Y749806D02*
G03*
X854904Y749806I-492J0D01*
G01*
X933747Y740617D02*
G03*
X933747Y740617I-492J0D01*
G01*
X781180Y708224D02*
G03*
X781180Y708224I-492J0D01*
G01*
X835494Y729924D02*
G03*
X835494Y729924I-492J0D01*
G01*
D13*
X961173Y744476D02*
G03*
X961173Y744476I-394J0D01*
G01*
X813924Y665169D02*
G03*
X813924Y665169I-394J0D01*
G01*
X816357Y471017D02*
G03*
X816357Y471017I-394J0D01*
G01*
X876164Y757531D02*
G03*
X876164Y757531I-394J0D01*
G01*
X946173Y731198D02*
G03*
X946173Y731198I-394J0D01*
G01*
X930436Y587999D02*
Y595873D01*
X934767Y579732D02*
X950515D01*
X934767Y604141D02*
X950515D01*
X954846Y587999D02*
Y595873D01*
X912463Y670495D02*
X920337D01*
X928605Y674826D02*
Y690574D01*
X904195Y674826D02*
Y690574D01*
X912463Y694905D02*
X920337D01*
X943683Y655405D02*
Y658043D01*
Y624972D02*
Y627609D01*
X918486Y655405D02*
Y658043D01*
Y624972D02*
Y627609D01*
X941143Y658043D02*
X943683D01*
X918486D02*
X921025D01*
X941143Y624972D02*
X943683D01*
X918486D02*
X921025D01*
X887500Y574200D02*
X903500D01*
X887500D02*
Y590200D01*
X903500D01*
Y575700D02*
Y590200D01*
Y574200D02*
Y575700D01*
X776057Y524916D02*
X795743D01*
X776057D02*
Y626884D01*
X795743D01*
Y524916D02*
Y626884D01*
X749845Y643239D02*
X752306D01*
X749845Y673161D02*
X752306D01*
X765494Y643239D02*
X767955D01*
X765494Y673161D02*
X767955D01*
X749845Y643239D02*
Y673161D01*
X767955Y643239D02*
Y673161D01*
X876731Y506283D02*
X878404D01*
X876731Y492602D02*
Y494570D01*
Y504314D02*
Y506283D01*
Y492602D02*
X878404D01*
X890313Y497129D02*
Y501657D01*
X826126Y753450D02*
X829174D01*
X826126Y746950D02*
X829174D01*
X860900Y713925D02*
X910900D01*
Y704476D02*
Y713925D01*
X860900Y704476D02*
X910900D01*
X860900D02*
Y713925D01*
X840436Y742523D02*
X842994D01*
X840436D02*
Y745527D01*
X850081Y742523D02*
X852640D01*
Y745527D01*
X800060Y731647D02*
X817284D01*
X800060Y742375D02*
X817284D01*
X917704Y737173D02*
Y738058D01*
X918590D01*
X917704Y721917D02*
Y722802D01*
Y721917D02*
X918590D01*
X932960D02*
X933846D01*
Y722802D01*
Y737173D02*
Y738058D01*
X932960D02*
X933846D01*
X764920Y743106D02*
Y754917D01*
X779880Y743106D02*
Y754917D01*
X762400Y727511D02*
X782400D01*
X785510Y682239D02*
Y708224D01*
X799290Y682239D02*
Y708224D01*
X785510D02*
X799290D01*
X785510Y682239D02*
X799290D01*
X826931Y739767D02*
Y743113D01*
X832837D01*
X826931Y730909D02*
Y734255D01*
Y730909D02*
X832837D01*
X785563Y724533D02*
X802788D01*
X785563Y713804D02*
X802788D01*
X859535Y732592D02*
Y749816D01*
X870264Y732592D02*
Y749816D01*
X860626Y496450D02*
X863674D01*
X860626Y502950D02*
X863674D01*
D14*
X814067Y503702D02*
G03*
X814067Y503702I-226J0D01*
G01*
D15*
X919832Y564632D02*
X924832Y559632D01*
Y562132D01*
X922309Y559547D02*
X924809D01*
X924918Y567109D02*
Y569609D01*
X922332Y569632D02*
X924832D01*
X919832Y564632D02*
X924832Y569632D01*
X915666Y567799D02*
X913000Y563800D01*
Y567799D02*
X915666D01*
X913000Y563800D02*
X915666D01*
X926057Y560856D02*
X928723Y556857D01*
Y560856D02*
X926057Y556857D01*
Y574856D02*
X927580Y572952D01*
Y570857D01*
X929104Y574856D02*
X927580Y572952D01*
X793000Y680299D02*
Y676966D01*
X793667Y676300D01*
X794999D01*
X795666Y676966D01*
Y680299D01*
X798998Y676300D02*
Y680299D01*
X796999Y678299D01*
X799665D01*
X935430Y743641D02*
Y740309D01*
X936096Y739643D01*
X937429D01*
X938096Y740309D01*
Y743641D01*
X942095Y739643D02*
X939429D01*
X942095Y742308D01*
Y742975D01*
X941428Y743641D01*
X940095D01*
X939429Y742975D01*
X918734Y704033D02*
X918068Y704699D01*
X916735D01*
X916068Y704033D01*
Y703367D01*
X916735Y702700D01*
X918068D01*
X918734Y702034D01*
Y701367D01*
X918068Y700701D01*
X916735D01*
X916068Y701367D01*
X920067Y704699D02*
Y700701D01*
X921400Y702034D01*
X922733Y700701D01*
Y704699D01*
X926732Y700701D02*
X924066D01*
X926732Y703367D01*
Y704033D01*
X926065Y704699D01*
X924732D01*
X924066Y704033D01*
X929266Y610632D02*
X928599Y611299D01*
X927267D01*
X926600Y610632D01*
Y609966D01*
X927267Y609299D01*
X928599D01*
X929266Y608633D01*
Y607966D01*
X928599Y607300D01*
X927267D01*
X926600Y607966D01*
X930599Y611299D02*
Y607300D01*
X931932Y608633D01*
X933265Y607300D01*
Y611299D01*
X934597Y607300D02*
X935930D01*
X935264D01*
Y611299D01*
X934597Y610632D01*
X961734Y747367D02*
Y750033D01*
X961067Y750699D01*
X959734D01*
X959068Y750033D01*
Y747367D01*
X959734Y746701D01*
X961067D01*
X960401Y748034D02*
X961734Y746701D01*
X961067D02*
X961734Y747367D01*
X965732Y746701D02*
X963066D01*
X965732Y749367D01*
Y750033D01*
X965066Y750699D01*
X963733D01*
X963066Y750033D01*
X915067Y602700D02*
X914401Y602034D01*
Y600701D01*
X915067Y600034D01*
X917733D01*
X918399Y600701D01*
Y602034D01*
X917733Y602700D01*
X918399Y604033D02*
Y605366D01*
Y604699D01*
X914401D01*
X915067Y604033D01*
X772621Y632348D02*
X771288D01*
X771955D01*
Y629016D01*
X771288Y628349D01*
X770622D01*
X769956Y629016D01*
X773954Y628349D02*
X775287D01*
X774621D01*
Y632348D01*
X773954Y631682D01*
X846305Y574201D02*
Y578199D01*
X848304D01*
X848970Y577533D01*
Y576200D01*
X848304Y575534D01*
X846305D01*
X847637D02*
X848970Y574201D01*
X852969D02*
X850303D01*
X852969Y576866D01*
Y577533D01*
X852303Y578199D01*
X850970D01*
X850303Y577533D01*
X854302D02*
X854968Y578199D01*
X856301D01*
X856968Y577533D01*
Y576866D01*
X856301Y576200D01*
X856968Y575534D01*
Y574867D01*
X856301Y574201D01*
X854968D01*
X854302Y574867D01*
Y575534D01*
X854968Y576200D01*
X854302Y576866D01*
Y577533D01*
X854968Y576200D02*
X856301D01*
X822568Y577201D02*
Y581199D01*
X824568D01*
X825234Y580533D01*
Y579200D01*
X824568Y578534D01*
X822568D01*
X823901D02*
X825234Y577201D01*
X829233D02*
X826567D01*
X829233Y579867D01*
Y580533D01*
X828566Y581199D01*
X827234D01*
X826567Y580533D01*
X830566Y581199D02*
X833232D01*
Y580533D01*
X830566Y577867D01*
Y577201D01*
X811399Y493368D02*
X807401D01*
Y495368D01*
X808067Y496034D01*
X809400D01*
X810067Y495368D01*
Y493368D01*
Y494701D02*
X811399Y496034D01*
Y500033D02*
Y497367D01*
X808734Y500033D01*
X808067D01*
X807401Y499367D01*
Y498034D01*
X808067Y497367D01*
Y501366D02*
X807401Y502032D01*
Y503365D01*
X808067Y504032D01*
X810733D01*
X811399Y503365D01*
Y502032D01*
X810733Y501366D01*
X808067D01*
X902234Y514199D02*
X900901D01*
X901567D01*
Y510867D01*
X900901Y510201D01*
X900234D01*
X899568Y510867D01*
X903566Y513533D02*
X904233Y514199D01*
X905566D01*
X906232Y513533D01*
Y512866D01*
X905566Y512200D01*
X904899D01*
X905566D01*
X906232Y511534D01*
Y510867D01*
X905566Y510201D01*
X904233D01*
X903566Y510867D01*
X814631Y751786D02*
X811965D01*
Y749787D01*
X813298D01*
X811965D01*
Y747787D01*
X818630D02*
X815964D01*
X818630Y750453D01*
Y751120D01*
X817964Y751786D01*
X816631D01*
X815964Y751120D01*
X785073Y768836D02*
X784406Y769503D01*
X783074D01*
X782407Y768836D01*
Y766170D01*
X783074Y765504D01*
X784406D01*
X785073Y766170D01*
X789072Y765504D02*
X786406D01*
X789072Y768170D01*
Y768836D01*
X788405Y769503D01*
X787072D01*
X786406Y768836D01*
X790404D02*
X791071Y769503D01*
X792404D01*
X793070Y768836D01*
Y766170D01*
X792404Y765504D01*
X791071D01*
X790404Y766170D01*
Y768836D01*
X813234Y704699D02*
Y701367D01*
X813901Y700701D01*
X815234D01*
X815900Y701367D01*
Y704699D01*
X817233Y700701D02*
X818566D01*
X817899D01*
Y704699D01*
X817233Y704033D01*
X859134Y715301D02*
Y719299D01*
X861134D01*
X861800Y718633D01*
Y717300D01*
X861134Y716634D01*
X859134D01*
X863133Y715301D02*
X864466D01*
X863799D01*
Y719299D01*
X863133Y718633D01*
X806568Y476699D02*
Y472701D01*
X808567D01*
X809234Y473367D01*
Y476033D01*
X808567Y476699D01*
X806568D01*
X813232D02*
X810567D01*
Y474700D01*
X811899Y475366D01*
X812566D01*
X813232Y474700D01*
Y473367D01*
X812566Y472701D01*
X811233D01*
X810567Y473367D01*
X853568Y477199D02*
Y473201D01*
X855567D01*
X856234Y473867D01*
Y476533D01*
X855567Y477199D01*
X853568D01*
X860232D02*
X858899Y476533D01*
X857567Y475200D01*
Y473867D01*
X858233Y473201D01*
X859566D01*
X860232Y473867D01*
Y474534D01*
X859566Y475200D01*
X857567D01*
X905234Y719533D02*
X904567Y720199D01*
X903234D01*
X902568Y719533D01*
Y716867D01*
X903234Y716201D01*
X904567D01*
X905234Y716867D01*
X906567Y719533D02*
X907233Y720199D01*
X908566D01*
X909232Y719533D01*
Y718866D01*
X908566Y718200D01*
X909232Y717534D01*
Y716867D01*
X908566Y716201D01*
X907233D01*
X906567Y716867D01*
Y717534D01*
X907233Y718200D01*
X906567Y718866D01*
Y719533D01*
X907233Y718200D02*
X908566D01*
X942568Y760201D02*
Y764199D01*
X944567D01*
X945234Y763533D01*
Y762200D01*
X944567Y761534D01*
X942568D01*
X943901D02*
X945234Y760201D01*
X948566D02*
Y764199D01*
X946566Y762200D01*
X949232D01*
X944968Y757699D02*
Y753701D01*
X946967D01*
X947634Y754367D01*
Y757033D01*
X946967Y757699D01*
X944968D01*
X951632Y753701D02*
X948967D01*
X951632Y756366D01*
Y757033D01*
X950966Y757699D01*
X949633D01*
X948967Y757033D01*
X796068Y469138D02*
Y465140D01*
X798067D01*
X798734Y465806D01*
Y468472D01*
X798067Y469138D01*
X796068D01*
X802066Y465140D02*
Y469138D01*
X800066Y467139D01*
X802732D01*
X839699Y725952D02*
Y721953D01*
X841698D01*
X842365Y722620D01*
Y725286D01*
X841698Y725952D01*
X839699D01*
X843697Y721953D02*
X845030D01*
X844364D01*
Y725952D01*
X843697Y725286D01*
X900168Y757699D02*
Y753701D01*
X902167D01*
X902834Y754367D01*
Y757033D01*
X902167Y757699D01*
X900168D01*
X904167Y757033D02*
X904833Y757699D01*
X906166D01*
X906832Y757033D01*
Y756366D01*
X906166Y755700D01*
X905499D01*
X906166D01*
X906832Y755034D01*
Y754367D01*
X906166Y753701D01*
X904833D01*
X904167Y754367D01*
X770568Y711579D02*
Y708247D01*
X771235Y707580D01*
X772568D01*
X773234Y708247D01*
Y711579D01*
X774567D02*
X777233D01*
Y710913D01*
X774567Y708247D01*
Y707580D01*
X803401Y506368D02*
X806733D01*
X807399Y507034D01*
Y508367D01*
X806733Y509034D01*
X803401D01*
Y513032D02*
X804067Y511699D01*
X805400Y510366D01*
X806733D01*
X807399Y511033D01*
Y512366D01*
X806733Y513032D01*
X806067D01*
X805400Y512366D01*
Y510366D01*
X888837Y572199D02*
Y568867D01*
X889503Y568201D01*
X890836D01*
X891503Y568867D01*
Y572199D01*
X895502D02*
X892836D01*
Y570200D01*
X894169Y570866D01*
X894835D01*
X895502Y570200D01*
Y568867D01*
X894835Y568201D01*
X893502D01*
X892836Y568867D01*
X912901Y622868D02*
X916233D01*
X916899Y623534D01*
Y624867D01*
X916233Y625534D01*
X912901D01*
X913567Y626866D02*
X912901Y627533D01*
Y628866D01*
X913567Y629532D01*
X914234D01*
X914900Y628866D01*
Y628199D01*
Y628866D01*
X915567Y629532D01*
X916233D01*
X916899Y628866D01*
Y627533D01*
X916233Y626866D01*
X852235Y468199D02*
X854901D01*
X853568D01*
Y464201D01*
X856234D02*
Y468199D01*
X858233D01*
X858899Y467533D01*
Y466200D01*
X858233Y465534D01*
X856234D01*
X860232Y464201D02*
X861565D01*
X860899D01*
Y468199D01*
X860232Y467533D01*
X852668Y739370D02*
X856667D01*
Y737371D01*
X856001Y736704D01*
X854668D01*
X854001Y737371D01*
Y739370D01*
Y738037D02*
X852668Y736704D01*
X856001Y735371D02*
X856667Y734705D01*
Y733372D01*
X856001Y732706D01*
X855334D01*
X854668Y733372D01*
Y734039D01*
Y733372D01*
X854001Y732706D01*
X853335D01*
X852668Y733372D01*
Y734705D01*
X853335Y735371D01*
X856001Y731373D02*
X856667Y730706D01*
Y729374D01*
X856001Y728707D01*
X853335D01*
X852668Y729374D01*
Y730706D01*
X853335Y731373D01*
X856001D01*
X827078Y715748D02*
X831077D01*
Y713749D01*
X830410Y713082D01*
X829077D01*
X828411Y713749D01*
Y715748D01*
Y714415D02*
X827078Y713082D01*
Y709084D02*
Y711750D01*
X829744Y709084D01*
X830410D01*
X831077Y709750D01*
Y711083D01*
X830410Y711750D01*
X827744Y707751D02*
X827078Y707084D01*
Y705751D01*
X827744Y705085D01*
X830410D01*
X831077Y705751D01*
Y707084D01*
X830410Y707751D01*
X829744D01*
X829077Y707084D01*
Y705085D01*
X842568Y561701D02*
Y565699D01*
X844568D01*
X845234Y565033D01*
Y563700D01*
X844568Y563034D01*
X842568D01*
X843901D02*
X845234Y561701D01*
X849233D02*
X846567D01*
X849233Y564366D01*
Y565033D01*
X848567Y565699D01*
X847234D01*
X846567Y565033D01*
X852565Y561701D02*
Y565699D01*
X850566Y563700D01*
X853232D01*
X824899Y561202D02*
X820901D01*
Y563201D01*
X821567Y563868D01*
X822900D01*
X823567Y563201D01*
Y561202D01*
Y562535D02*
X824899Y563868D01*
Y565200D02*
Y566533D01*
Y565867D01*
X820901D01*
X821567Y565200D01*
X824233Y568533D02*
X824899Y569199D01*
Y570532D01*
X824233Y571198D01*
X821567D01*
X820901Y570532D01*
Y569199D01*
X821567Y568533D01*
X822234D01*
X822900Y569199D01*
Y571198D01*
X828899Y483433D02*
X824901D01*
Y485432D01*
X825567Y486099D01*
X826900D01*
X827567Y485432D01*
Y483433D01*
Y484766D02*
X828899Y486099D01*
Y487432D02*
Y488764D01*
Y488098D01*
X824901D01*
X825567Y487432D01*
Y490764D02*
X824901Y491430D01*
Y492763D01*
X825567Y493430D01*
X826234D01*
X826900Y492763D01*
X827567Y493430D01*
X828233D01*
X828899Y492763D01*
Y491430D01*
X828233Y490764D01*
X827567D01*
X826900Y491430D01*
X826234Y490764D01*
X825567D01*
X826900Y491430D02*
Y492763D01*
X841899Y483702D02*
X837901D01*
Y485701D01*
X838567Y486368D01*
X839900D01*
X840567Y485701D01*
Y483702D01*
Y485035D02*
X841899Y486368D01*
Y487700D02*
Y489033D01*
Y488367D01*
X837901D01*
X838567Y487700D01*
X837901Y491033D02*
Y493698D01*
X838567D01*
X841233Y491033D01*
X841899D01*
X904902Y587201D02*
Y591199D01*
X906901D01*
X907568Y590533D01*
Y589200D01*
X906901Y588534D01*
X904902D01*
X906235D02*
X907568Y587201D01*
X908900D02*
X910233D01*
X909567D01*
Y591199D01*
X908900Y590533D01*
X914898Y591199D02*
X912233D01*
Y589200D01*
X913566Y589866D01*
X914232D01*
X914898Y589200D01*
Y587867D01*
X914232Y587201D01*
X912899D01*
X912233Y587867D01*
X882401Y569698D02*
X886399D01*
Y567699D01*
X885733Y567033D01*
X884400D01*
X883734Y567699D01*
Y569698D01*
Y568365D02*
X882401Y567033D01*
Y565700D02*
Y564367D01*
Y565033D01*
X886399D01*
X885733Y565700D01*
X886399Y559702D02*
X885733Y561035D01*
X884400Y562367D01*
X883067D01*
X882401Y561701D01*
Y560368D01*
X883067Y559702D01*
X883734D01*
X884400Y560368D01*
Y562367D01*
X966399Y710702D02*
X962401D01*
Y712701D01*
X963067Y713368D01*
X964400D01*
X965067Y712701D01*
Y710702D01*
Y712035D02*
X966399Y713368D01*
Y714700D02*
Y716033D01*
Y715367D01*
X962401D01*
X963067Y714700D01*
X966399Y720032D02*
X962401D01*
X964400Y718033D01*
Y720698D01*
X939402Y707201D02*
Y711199D01*
X941401D01*
X942068Y710533D01*
Y709200D01*
X941401Y708534D01*
X939402D01*
X940735D02*
X942068Y707201D01*
X943400D02*
X944733D01*
X944067D01*
Y711199D01*
X943400Y710533D01*
X949398Y707201D02*
X946733D01*
X949398Y709867D01*
Y710533D01*
X948732Y711199D01*
X947399D01*
X946733Y710533D01*
X920805Y709201D02*
Y713199D01*
X922804D01*
X923470Y712533D01*
Y711200D01*
X922804Y710534D01*
X920805D01*
X922137D02*
X923470Y709201D01*
X924803D02*
X926136D01*
X925470D01*
Y713199D01*
X924803Y712533D01*
X928135Y709201D02*
X929468D01*
X928802D01*
Y713199D01*
X928135Y712533D01*
X938902Y700701D02*
Y704699D01*
X940901D01*
X941568Y704033D01*
Y702700D01*
X940901Y702034D01*
X938902D01*
X940235D02*
X941568Y700701D01*
X942900D02*
X944233D01*
X943567D01*
Y704699D01*
X942900Y704033D01*
X946233D02*
X946899Y704699D01*
X948232D01*
X948898Y704033D01*
Y701367D01*
X948232Y700701D01*
X946899D01*
X946233Y701367D01*
Y704033D01*
X895568Y723201D02*
Y727199D01*
X897567D01*
X898234Y726533D01*
Y725200D01*
X897567Y724534D01*
X895568D01*
X896901D02*
X898234Y723201D01*
X899566Y723867D02*
X900233Y723201D01*
X901566D01*
X902232Y723867D01*
Y726533D01*
X901566Y727199D01*
X900233D01*
X899566Y726533D01*
Y725867D01*
X900233Y725200D01*
X902232D01*
X898042Y728975D02*
Y732974D01*
X900041D01*
X900708Y732307D01*
Y730975D01*
X900041Y730308D01*
X898042D01*
X899375D02*
X900708Y728975D01*
X902041Y732307D02*
X902707Y732974D01*
X904040D01*
X904706Y732307D01*
Y731641D01*
X904040Y730975D01*
X904706Y730308D01*
Y729642D01*
X904040Y728975D01*
X902707D01*
X902041Y729642D01*
Y730308D01*
X902707Y730975D01*
X902041Y731641D01*
Y732307D01*
X902707Y730975D02*
X904040D01*
X801505Y647701D02*
Y651699D01*
X803504D01*
X804171Y651033D01*
Y649700D01*
X803504Y649034D01*
X801505D01*
X802838D02*
X804171Y647701D01*
X805504Y651033D02*
X806170Y651699D01*
X807503D01*
X808170Y651033D01*
Y650366D01*
X807503Y649700D01*
X806837D01*
X807503D01*
X808170Y649034D01*
Y648367D01*
X807503Y647701D01*
X806170D01*
X805504Y648367D01*
X863568Y578201D02*
Y582199D01*
X865567D01*
X866234Y581533D01*
Y580200D01*
X865567Y579534D01*
X863568D01*
X864901D02*
X866234Y578201D01*
X870232D02*
X867566D01*
X870232Y580866D01*
Y581533D01*
X869566Y582199D01*
X868233D01*
X867566Y581533D01*
X844734Y587101D02*
Y591099D01*
X846734D01*
X847400Y590433D01*
Y589100D01*
X846734Y588434D01*
X844734D01*
X846067D02*
X847400Y587101D01*
X848733D02*
X850066D01*
X849399D01*
Y591099D01*
X848733Y590433D01*
X842190Y732706D02*
Y735371D01*
X841524Y736038D01*
X840191D01*
X839524Y735371D01*
Y732706D01*
X840191Y732039D01*
X841524D01*
X840857Y733372D02*
X842190Y732039D01*
X841524D02*
X842190Y732706D01*
X845523Y732039D02*
Y736038D01*
X843523Y734039D01*
X846189D01*
X856234Y753367D02*
Y756033D01*
X855567Y756699D01*
X854234D01*
X853568Y756033D01*
Y753367D01*
X854234Y752701D01*
X855567D01*
X854901Y754034D02*
X856234Y752701D01*
X855567D02*
X856234Y753367D01*
X857567Y756033D02*
X858233Y756699D01*
X859566D01*
X860232Y756033D01*
Y755367D01*
X859566Y754700D01*
X858899D01*
X859566D01*
X860232Y754034D01*
Y753367D01*
X859566Y752701D01*
X858233D01*
X857567Y753367D01*
X953400Y712867D02*
Y715533D01*
X952734Y716199D01*
X951401D01*
X950734Y715533D01*
Y712867D01*
X951401Y712201D01*
X952734D01*
X952067Y713534D02*
X953400Y712201D01*
X952734D02*
X953400Y712867D01*
X954733Y712201D02*
X956066D01*
X955399D01*
Y716199D01*
X954733Y715533D01*
X793623Y795320D02*
X792290D01*
X792956D01*
Y791988D01*
X792290Y791321D01*
X791623D01*
X790957Y791988D01*
X797621Y795320D02*
X794955D01*
Y793321D01*
X796288Y793987D01*
X796955D01*
X797621Y793321D01*
Y791988D01*
X796955Y791321D01*
X795622D01*
X794955Y791988D01*
X812734Y456199D02*
X811401D01*
X812067D01*
Y452867D01*
X811401Y452201D01*
X810734D01*
X810068Y452867D01*
X816066Y452201D02*
Y456199D01*
X814067Y454200D01*
X816732D01*
X900734Y798199D02*
X899401D01*
X900067D01*
Y794867D01*
X899401Y794201D01*
X898734D01*
X898068Y794867D01*
X904732Y794201D02*
X902067D01*
X904732Y796867D01*
Y797533D01*
X904066Y798199D01*
X902733D01*
X902067Y797533D01*
X861900Y494199D02*
X859234D01*
Y492200D01*
X860567D01*
X859234D01*
Y490201D01*
X863233D02*
X864566D01*
X863899D01*
Y494199D01*
X863233Y493533D01*
X815901Y481535D02*
X819899D01*
Y483534D01*
X819233Y484201D01*
X816567D01*
X815901Y483534D01*
Y481535D01*
X816567Y488199D02*
X815901Y487533D01*
Y486200D01*
X816567Y485534D01*
X817234D01*
X817900Y486200D01*
Y487533D01*
X818567Y488199D01*
X819233D01*
X819899Y487533D01*
Y486200D01*
X819233Y485534D01*
X819899Y489532D02*
Y490865D01*
Y490199D01*
X815901D01*
X816567Y489532D01*
X792280Y749818D02*
Y745819D01*
X794280D01*
X794946Y746485D01*
Y749151D01*
X794280Y749818D01*
X792280D01*
X796279Y746485D02*
X796946Y745819D01*
X798279D01*
X798945Y746485D01*
Y749151D01*
X798279Y749818D01*
X796946D01*
X796279Y749151D01*
Y748485D01*
X796946Y747818D01*
X798945D01*
X872989Y728164D02*
Y724165D01*
X874988D01*
X875655Y724832D01*
Y727497D01*
X874988Y728164D01*
X872989D01*
X876988Y727497D02*
X877654Y728164D01*
X878987D01*
X879654Y727497D01*
Y726831D01*
X878987Y726165D01*
X879654Y725498D01*
Y724832D01*
X878987Y724165D01*
X877654D01*
X876988Y724832D01*
Y725498D01*
X877654Y726165D01*
X876988Y726831D01*
Y727497D01*
X877654Y726165D02*
X878987D01*
X762753Y726195D02*
Y722197D01*
X764752D01*
X765419Y722863D01*
Y725529D01*
X764752Y726195D01*
X762753D01*
X766752D02*
X769417D01*
Y725529D01*
X766752Y722863D01*
Y722197D01*
X757847Y705844D02*
X757181Y706510D01*
X755848D01*
X755181Y705844D01*
Y703178D01*
X755848Y702512D01*
X757181D01*
X757847Y703178D01*
X759180Y702512D02*
X760513D01*
X759846D01*
Y706510D01*
X759180Y705844D01*
X762512Y703178D02*
X763179Y702512D01*
X764511D01*
X765178Y703178D01*
Y705844D01*
X764511Y706510D01*
X763179D01*
X762512Y705844D01*
Y705177D01*
X763179Y704511D01*
X765178D01*
X761784Y694033D02*
X761118Y694699D01*
X759785D01*
X759118Y694033D01*
Y691367D01*
X759785Y690701D01*
X761118D01*
X761784Y691367D01*
X763117Y690701D02*
X764450D01*
X763783D01*
Y694699D01*
X763117Y694033D01*
X766449D02*
X767116Y694699D01*
X768448D01*
X769115Y694033D01*
Y693366D01*
X768448Y692700D01*
X769115Y692034D01*
Y691367D01*
X768448Y690701D01*
X767116D01*
X766449Y691367D01*
Y692034D01*
X767116Y692700D01*
X766449Y693366D01*
Y694033D01*
X767116Y692700D02*
X768448D01*
X750067Y682867D02*
X749401Y682201D01*
Y680868D01*
X750067Y680202D01*
X752733D01*
X753399Y680868D01*
Y682201D01*
X752733Y682867D01*
X753399Y684200D02*
Y685533D01*
Y684867D01*
X749401D01*
X750067Y684200D01*
X749401Y687533D02*
Y690198D01*
X750067D01*
X752733Y687533D01*
X753399D01*
X844567Y490368D02*
X843901Y489701D01*
Y488368D01*
X844567Y487702D01*
X847233D01*
X847899Y488368D01*
Y489701D01*
X847233Y490368D01*
X847899Y491700D02*
Y493033D01*
Y492367D01*
X843901D01*
X844567Y491700D01*
X843901Y497698D02*
X844567Y496365D01*
X845900Y495033D01*
X847233D01*
X847899Y495699D01*
Y497032D01*
X847233Y497698D01*
X846566D01*
X845900Y497032D01*
Y495033D01*
X803654Y562233D02*
X802988Y562899D01*
X801655D01*
X800989Y562233D01*
Y559567D01*
X801655Y558901D01*
X802988D01*
X803654Y559567D01*
X804987Y558901D02*
X806320D01*
X805654D01*
Y562899D01*
X804987Y562233D01*
X810985Y562899D02*
X808319D01*
Y560900D01*
X809653Y561566D01*
X810319D01*
X810985Y560900D01*
Y559567D01*
X810319Y558901D01*
X808986D01*
X808319Y559567D01*
X803568Y569533D02*
X802901Y570199D01*
X801568D01*
X800902Y569533D01*
Y566867D01*
X801568Y566201D01*
X802901D01*
X803568Y566867D01*
X804900Y566201D02*
X806233D01*
X805567D01*
Y570199D01*
X804900Y569533D01*
X810232Y566201D02*
Y570199D01*
X808233Y568200D01*
X810898D01*
X880733Y578533D02*
X881399Y579199D01*
Y580532D01*
X880733Y581198D01*
X878067D01*
X877401Y580532D01*
Y579199D01*
X878067Y578533D01*
X877401Y577200D02*
Y575867D01*
Y576533D01*
X881399D01*
X880733Y577200D01*
X877401Y571202D02*
Y573868D01*
X880066Y571202D01*
X880733D01*
X881399Y571868D01*
Y573201D01*
X880733Y573868D01*
X795234Y671033D02*
X794567Y671699D01*
X793235D01*
X792568Y671033D01*
Y668367D01*
X793235Y667701D01*
X794567D01*
X795234Y668367D01*
X796567Y667701D02*
X797900D01*
X797233D01*
Y671699D01*
X796567Y671033D01*
X799899Y667701D02*
X801232D01*
X800566D01*
Y671699D01*
X799899Y671033D01*
X910567Y661533D02*
X909901Y662199D01*
X908568D01*
X907902Y661533D01*
Y658867D01*
X908568Y658201D01*
X909901D01*
X910567Y658867D01*
X911900Y658201D02*
X913233D01*
X912567D01*
Y662199D01*
X911900Y661533D01*
X915233D02*
X915899Y662199D01*
X917232D01*
X917898Y661533D01*
Y658867D01*
X917232Y658201D01*
X915899D01*
X915233Y658867D01*
Y661533D01*
X913584Y643304D02*
X912918Y643971D01*
X911585D01*
X910919Y643304D01*
Y640638D01*
X911585Y639972D01*
X912918D01*
X913584Y640638D01*
X914917D02*
X915584Y639972D01*
X916917D01*
X917583Y640638D01*
Y643304D01*
X916917Y643971D01*
X915584D01*
X914917Y643304D01*
Y642638D01*
X915584Y641971D01*
X917583D01*
X902734Y744033D02*
X902067Y744699D01*
X900734D01*
X900068Y744033D01*
Y741367D01*
X900734Y740701D01*
X902067D01*
X902734Y741367D01*
X904066Y744699D02*
X906732D01*
Y744033D01*
X904066Y741367D01*
Y740701D01*
X902734Y738533D02*
X902067Y739199D01*
X900734D01*
X900068Y738533D01*
Y735867D01*
X900734Y735201D01*
X902067D01*
X902734Y735867D01*
X906732Y739199D02*
X905399Y738533D01*
X904066Y737200D01*
Y735867D01*
X904733Y735201D01*
X906066D01*
X906732Y735867D01*
Y736534D01*
X906066Y737200D01*
X904066D01*
X804234Y644533D02*
X803567Y645199D01*
X802234D01*
X801568Y644533D01*
Y641867D01*
X802234Y641201D01*
X803567D01*
X804234Y641867D01*
X808232Y645199D02*
X805567D01*
Y643200D01*
X806899Y643866D01*
X807566D01*
X808232Y643200D01*
Y641867D01*
X807566Y641201D01*
X806233D01*
X805567Y641867D01*
X805734Y673533D02*
X805067Y674199D01*
X803734D01*
X803068Y673533D01*
Y670867D01*
X803734Y670201D01*
X805067D01*
X805734Y670867D01*
X807067Y673533D02*
X807733Y674199D01*
X809066D01*
X809732Y673533D01*
Y672866D01*
X809066Y672200D01*
X808399D01*
X809066D01*
X809732Y671534D01*
Y670867D01*
X809066Y670201D01*
X807733D01*
X807067Y670867D01*
D16*
X947570Y734417D02*
X950838D01*
X955720D02*
X958988D01*
Y738117D01*
X947570Y734417D02*
Y738117D01*
X888333Y669106D02*
Y694697D01*
X817467D02*
X888333D01*
X817467Y669106D02*
Y694697D01*
X888333Y594303D02*
Y596862D01*
X878687Y594303D02*
X888333D01*
X817467D02*
X827113D01*
X817467D02*
Y596862D01*
X907291Y775946D02*
Y780040D01*
X944259Y775946D02*
Y780040D01*
X819699Y459576D02*
Y466859D01*
X849227Y459576D02*
Y466859D01*
Y447174D02*
Y451308D01*
X819699Y447174D02*
X849227D01*
X819699D02*
Y451308D01*
X955838Y717989D02*
Y721257D01*
Y726139D02*
Y729407D01*
X952137D02*
X955838D01*
X952137Y717989D02*
X955838D01*
X902775Y772698D02*
Y774698D01*
X901775D01*
X901442Y774365D01*
Y774031D01*
X901775Y773698D01*
X902775D01*
X901775D01*
X901442Y773365D01*
Y773032D01*
X901775Y772698D01*
X902775D01*
X900776Y774698D02*
X900109D01*
X900442D01*
Y772698D01*
X900776Y773032D01*
X902775Y767698D02*
Y766365D01*
X902108Y765698D01*
X901442Y766365D01*
Y767698D01*
Y766698D01*
X902775D01*
X900776Y767698D02*
X900109D01*
X900442D01*
Y765698D01*
X900776Y766032D01*
X897777Y767698D02*
X899109D01*
X897777Y766365D01*
Y766032D01*
X898110Y765698D01*
X898776D01*
X899109Y766032D01*
X954275Y772698D02*
Y774698D01*
X953275D01*
X952942Y774365D01*
Y774031D01*
X953275Y773698D01*
X954275D01*
X953275D01*
X952942Y773365D01*
Y773032D01*
X953275Y772698D01*
X954275D01*
X952276Y774698D02*
X951609D01*
X951942D01*
Y772698D01*
X952276Y773032D01*
X949277Y774698D02*
X950609D01*
X949277Y773365D01*
Y773032D01*
X949610Y772698D01*
X950276D01*
X950609Y773032D01*
X952275Y767698D02*
Y766365D01*
X951608Y765698D01*
X950942Y766365D01*
Y767698D01*
Y766698D01*
X952275D01*
X950276Y767698D02*
X949609D01*
X949942D01*
Y765698D01*
X950276Y766032D01*
X796900Y775700D02*
X791652D01*
X880900Y776076D02*
X875652D01*
X878276Y773452D02*
Y778700D01*
D17*
X858700Y571313D02*
Y572887D01*
X858400Y588913D02*
Y590487D01*
X867172Y583913D02*
Y585487D01*
X810613Y653700D02*
X812187D01*
X913599Y726346D02*
X915174D01*
X909298Y730187D02*
Y731762D01*
X904718Y725233D02*
X906293D01*
X934900Y706413D02*
Y707987D01*
X924113Y716972D02*
X925687D01*
X934900Y710413D02*
Y711987D01*
X941906Y731228D02*
X943481D01*
X963713Y731057D02*
X965287D01*
X883673Y578325D02*
X885248D01*
X907900Y583413D02*
Y584987D01*
X834613Y490131D02*
X836187D01*
X830613D02*
X832187D01*
X826113Y564139D02*
X827687D01*
X830613D02*
X832187D01*
X821766Y501000D02*
X823341D01*
X834613Y564139D02*
X836187D01*
X839113D02*
X840687D01*
X849613Y501700D02*
X851187D01*
X817613Y501000D02*
X819187D01*
X827916Y721137D02*
X829490D01*
X854959Y743507D02*
X856533D01*
X937980Y761956D02*
Y763531D01*
X926862Y742700D02*
X928437D01*
X923113D02*
X924687D01*
X813113Y498367D02*
X814687D01*
X837400Y577913D02*
Y579487D01*
D18*
X842579Y556664D02*
X848854D01*
X842404Y508639D02*
X848954D01*
X809904D02*
Y556689D01*
X872879Y508664D02*
Y556689D01*
D19*
X774904Y657779D02*
X791565D01*
X774904D02*
Y678543D01*
X791565Y657779D02*
Y678543D01*
X774904D02*
X791565D01*
D20*
X749845Y678278D02*
X767955D01*
X832947Y471989D02*
Y478289D01*
X793022Y731647D02*
Y742375D01*
X821416Y487673D02*
X823384D01*
X778526Y713804D02*
Y724533D01*
X859535Y725554D02*
X870264D01*
X925950Y752550D02*
Y758850D01*
X832246Y727121D02*
X838546D01*
X815321Y457989D02*
Y464289D01*
X925600Y752550D02*
Y758850D01*
X833420Y471989D02*
Y478289D01*
M02*
