G04*
G04 #@! TF.GenerationSoftware,Altium Limited,Altium Designer,22.5.1 (42)*
G04*
G04 Layer_Color=255*
%FSLAX25Y25*%
%MOIN*%
G70*
G04*
G04 #@! TF.SameCoordinates,416B5E53-2D2E-4D85-A380-7A8587A56ACA*
G04*
G04*
G04 #@! TF.FilePolarity,Positive*
G04*
G01*
G75*
%ADD25R,0.01968X0.02559*%
%ADD26R,0.02800X0.01000*%
%ADD27R,0.01000X0.02800*%
%ADD28R,0.02362X0.03150*%
G04:AMPARAMS|DCode=29|XSize=21.65mil|YSize=19.68mil|CornerRadius=2.46mil|HoleSize=0mil|Usage=FLASHONLY|Rotation=90.000|XOffset=0mil|YOffset=0mil|HoleType=Round|Shape=RoundedRectangle|*
%AMROUNDEDRECTD29*
21,1,0.02165,0.01476,0,0,90.0*
21,1,0.01673,0.01968,0,0,90.0*
1,1,0.00492,0.00738,0.00837*
1,1,0.00492,0.00738,-0.00837*
1,1,0.00492,-0.00738,-0.00837*
1,1,0.00492,-0.00738,0.00837*
%
%ADD29ROUNDEDRECTD29*%
%ADD31R,0.04331X0.02362*%
%ADD32R,0.10039X0.11614*%
%ADD33R,0.03150X0.03937*%
%ADD34R,0.07000X0.08000*%
%ADD35R,0.03937X0.05512*%
%ADD36R,0.10433X0.06890*%
%ADD37R,0.02362X0.01575*%
%ADD38R,0.03543X0.03543*%
%ADD39R,0.07874X0.03543*%
%ADD40R,0.03543X0.07874*%
%ADD41O,0.01378X0.01772*%
%ADD42O,0.01772X0.01378*%
%ADD43R,0.09646X0.09646*%
%ADD44R,0.15748X0.15748*%
%ADD45R,0.03740X0.03740*%
%ADD46R,0.02441X0.02953*%
%ADD47R,0.07480X0.12598*%
%ADD48R,0.07480X0.03543*%
%ADD49R,0.03150X0.03150*%
%ADD50R,0.01181X0.02756*%
%ADD51R,0.03543X0.02756*%
%ADD52R,0.04724X0.07480*%
%ADD53R,0.05906X0.07480*%
%ADD54R,0.01575X0.05315*%
%ADD55R,0.02953X0.02441*%
%ADD56R,0.06890X0.10433*%
%ADD57R,0.03150X0.02362*%
G04:AMPARAMS|DCode=58|XSize=21.65mil|YSize=19.68mil|CornerRadius=2.46mil|HoleSize=0mil|Usage=FLASHONLY|Rotation=0.000|XOffset=0mil|YOffset=0mil|HoleType=Round|Shape=RoundedRectangle|*
%AMROUNDEDRECTD58*
21,1,0.02165,0.01476,0,0,0.0*
21,1,0.01673,0.01968,0,0,0.0*
1,1,0.00492,0.00837,-0.00738*
1,1,0.00492,-0.00837,-0.00738*
1,1,0.00492,-0.00837,0.00738*
1,1,0.00492,0.00837,0.00738*
%
%ADD58ROUNDEDRECTD58*%
%ADD59R,0.03937X0.03150*%
%ADD71R,0.08661X0.04134*%
%ADD72R,0.04134X0.03937*%
%ADD110R,0.16929X0.13386*%
%ADD111C,0.02362*%
%ADD112R,0.03150X0.07087*%
%ADD120C,0.06102*%
%ADD121R,0.06102X0.06102*%
%ADD122C,0.01181*%
%ADD123C,0.06693*%
%ADD124O,0.04331X0.08661*%
%ADD125O,0.05118X0.10236*%
%ADD126O,0.03740X0.07480*%
%ADD127C,0.05709*%
%ADD128C,0.11811*%
D25*
X923584Y626724D02*
D03*
X928584D02*
D03*
X933584D02*
D03*
X938584D02*
D03*
X923584Y656291D02*
D03*
X928584D02*
D03*
X933584D02*
D03*
X938584D02*
D03*
D26*
X889900Y580200D02*
D03*
Y582200D02*
D03*
Y584200D02*
D03*
X901100D02*
D03*
Y582200D02*
D03*
Y580200D02*
D03*
D27*
X891600Y587800D02*
D03*
X893500D02*
D03*
X895500D02*
D03*
X897500D02*
D03*
X899400D02*
D03*
Y576600D02*
D03*
X897500D02*
D03*
X895500D02*
D03*
X893500D02*
D03*
X891600D02*
D03*
D28*
X953279Y732999D02*
D03*
X957019Y740952D02*
D03*
X949539D02*
D03*
D29*
X856928Y572100D02*
D03*
X860472D02*
D03*
X856628Y589700D02*
D03*
X860172D02*
D03*
X868943Y584700D02*
D03*
X865400D02*
D03*
X907527Y730974D02*
D03*
X911070D02*
D03*
X933128Y707200D02*
D03*
X936672D02*
D03*
X933128Y711200D02*
D03*
X936672D02*
D03*
X909672Y584200D02*
D03*
X906128D02*
D03*
X939751Y762743D02*
D03*
X936208D02*
D03*
X835628Y578700D02*
D03*
X839172D02*
D03*
D31*
X778904Y660779D02*
D03*
Y665700D02*
D03*
Y670621D02*
D03*
Y675543D02*
D03*
X787565Y660779D02*
D03*
Y665700D02*
D03*
Y670621D02*
D03*
Y675543D02*
D03*
D32*
X758900Y670503D02*
D03*
Y645897D02*
D03*
D33*
X816648Y475139D02*
D03*
X829404D02*
D03*
X922406Y755700D02*
D03*
X909651D02*
D03*
X799022Y461139D02*
D03*
X811778D02*
D03*
X941899Y755700D02*
D03*
X929143D02*
D03*
X849719Y475139D02*
D03*
X836963D02*
D03*
D34*
X832900Y750200D02*
D03*
X822400D02*
D03*
X856900Y499700D02*
D03*
X867400D02*
D03*
D35*
X842798Y749806D02*
D03*
X850278D02*
D03*
X846538Y741145D02*
D03*
D36*
X800207Y737011D02*
D03*
X817136D02*
D03*
X802640Y719169D02*
D03*
X785711D02*
D03*
D37*
X822400Y490428D02*
D03*
Y493972D02*
D03*
D38*
X843451Y639480D02*
D03*
Y633968D02*
D03*
Y628457D02*
D03*
X854475Y639480D02*
D03*
Y633968D02*
D03*
Y628457D02*
D03*
X848963Y639480D02*
D03*
Y633968D02*
D03*
Y628457D02*
D03*
D03*
D39*
X819435Y665209D02*
D03*
Y660209D02*
D03*
Y655209D02*
D03*
Y650209D02*
D03*
Y645209D02*
D03*
Y640209D02*
D03*
Y635209D02*
D03*
Y630209D02*
D03*
Y625209D02*
D03*
Y620209D02*
D03*
Y615209D02*
D03*
Y610209D02*
D03*
Y605209D02*
D03*
Y600209D02*
D03*
X886365D02*
D03*
Y605209D02*
D03*
Y610209D02*
D03*
Y615209D02*
D03*
Y620209D02*
D03*
Y625209D02*
D03*
Y630209D02*
D03*
Y635209D02*
D03*
Y640209D02*
D03*
Y645209D02*
D03*
Y650209D02*
D03*
Y655209D02*
D03*
Y660209D02*
D03*
Y665209D02*
D03*
D40*
X830400Y596272D02*
D03*
X835400D02*
D03*
X840400D02*
D03*
X845400D02*
D03*
X850400D02*
D03*
X855400D02*
D03*
X860400D02*
D03*
X865400D02*
D03*
X870400D02*
D03*
X875400D02*
D03*
D41*
X930696Y736779D02*
D03*
X928728D02*
D03*
X926759D02*
D03*
X924791D02*
D03*
X922822D02*
D03*
X920854D02*
D03*
Y723196D02*
D03*
X922822D02*
D03*
X924791D02*
D03*
X926759D02*
D03*
X928728D02*
D03*
X930696D02*
D03*
D42*
X918984Y734909D02*
D03*
Y732940D02*
D03*
Y730972D02*
D03*
Y729003D02*
D03*
Y727035D02*
D03*
Y725066D02*
D03*
X932566D02*
D03*
Y727035D02*
D03*
Y729003D02*
D03*
Y730972D02*
D03*
Y732940D02*
D03*
Y734909D02*
D03*
D43*
X925775Y729987D02*
D03*
D44*
X772400Y760822D02*
D03*
Y737200D02*
D03*
D45*
X804900Y666653D02*
D03*
Y660747D02*
D03*
D46*
X900400Y670669D02*
D03*
Y666732D02*
D03*
X810400Y660231D02*
D03*
Y664169D02*
D03*
X811400Y647169D02*
D03*
Y643231D02*
D03*
X914900Y650669D02*
D03*
Y646732D02*
D03*
X793704Y660905D02*
D03*
Y664842D02*
D03*
X880400Y588168D02*
D03*
Y584232D02*
D03*
X884461Y588293D02*
D03*
Y584356D02*
D03*
X850400Y495169D02*
D03*
Y491231D02*
D03*
X772900Y685671D02*
D03*
Y689608D02*
D03*
X909194Y727201D02*
D03*
Y723264D02*
D03*
X921400Y604700D02*
D03*
Y600763D02*
D03*
D47*
X804113Y695231D02*
D03*
D48*
X780687Y686176D02*
D03*
Y695231D02*
D03*
Y704287D02*
D03*
D49*
X835396Y733271D02*
D03*
Y740751D02*
D03*
X825947Y737011D02*
D03*
D50*
X937586Y767009D02*
D03*
X935618D02*
D03*
X933649D02*
D03*
X931680D02*
D03*
X929712D02*
D03*
X927743D02*
D03*
X923806D02*
D03*
X921838D02*
D03*
X919869D02*
D03*
X917901D02*
D03*
X915932D02*
D03*
X913964D02*
D03*
X916917Y773702D02*
D03*
X918885D02*
D03*
X920854D02*
D03*
X922822D02*
D03*
X924791D02*
D03*
X926759D02*
D03*
X928728D02*
D03*
X930696D02*
D03*
X932665D02*
D03*
X934633D02*
D03*
D51*
X913767D02*
D03*
X937783D02*
D03*
D52*
X845880Y455639D02*
D03*
X823046D02*
D03*
D53*
X838400D02*
D03*
X830526D02*
D03*
D54*
X839581Y466269D02*
D03*
X837022D02*
D03*
X834463D02*
D03*
X831904D02*
D03*
X829345D02*
D03*
D55*
X914009Y735109D02*
D03*
X910072D02*
D03*
X913869Y739700D02*
D03*
X909932D02*
D03*
X914869Y655700D02*
D03*
X910932D02*
D03*
X817869Y566700D02*
D03*
X813931D02*
D03*
X817994Y562439D02*
D03*
X814057D02*
D03*
X772869Y704200D02*
D03*
X768931D02*
D03*
D56*
X864899Y749669D02*
D03*
Y732739D02*
D03*
D57*
X957255Y723698D02*
D03*
X949302Y727438D02*
D03*
Y719958D02*
D03*
D58*
X811400Y651928D02*
D03*
Y655472D02*
D03*
X914386Y724574D02*
D03*
Y728117D02*
D03*
X905506Y723461D02*
D03*
Y727004D02*
D03*
X924900Y718743D02*
D03*
Y715200D02*
D03*
X942694Y732999D02*
D03*
Y729456D02*
D03*
X964500Y729285D02*
D03*
Y732829D02*
D03*
X884461Y580096D02*
D03*
Y576553D02*
D03*
X835400Y491903D02*
D03*
Y488360D02*
D03*
X831400Y491903D02*
D03*
Y488360D02*
D03*
X826900Y562367D02*
D03*
Y565911D02*
D03*
X831400Y562367D02*
D03*
Y565911D02*
D03*
X822554Y502772D02*
D03*
Y499228D02*
D03*
X835400Y565911D02*
D03*
Y562367D02*
D03*
X839900D02*
D03*
Y565911D02*
D03*
X850400Y503472D02*
D03*
Y499928D02*
D03*
X818400Y499228D02*
D03*
Y502772D02*
D03*
X828703Y722909D02*
D03*
Y719365D02*
D03*
X855746Y745279D02*
D03*
Y741736D02*
D03*
X927650Y744472D02*
D03*
Y740928D02*
D03*
X923900Y744472D02*
D03*
Y740928D02*
D03*
X813900Y496596D02*
D03*
Y500139D02*
D03*
D59*
X835396Y723578D02*
D03*
Y710822D02*
D03*
D71*
X884900Y505200D02*
D03*
Y493586D02*
D03*
D72*
X878896Y499393D02*
D03*
D110*
X931084Y641507D02*
D03*
D111*
X854400Y461139D02*
D03*
D112*
X831164Y509639D02*
D03*
X813841Y555639D02*
D03*
X818172D02*
D03*
X822502D02*
D03*
X826833D02*
D03*
X831164D02*
D03*
X835495D02*
D03*
X839825D02*
D03*
X851636D02*
D03*
X855967D02*
D03*
X860298D02*
D03*
X864628D02*
D03*
X868959D02*
D03*
Y509639D02*
D03*
X864628D02*
D03*
X860298D02*
D03*
X855967D02*
D03*
X851636D02*
D03*
X839825D02*
D03*
X835495D02*
D03*
X826833D02*
D03*
X822502D02*
D03*
X818172D02*
D03*
X813841D02*
D03*
D120*
X790900Y570900D02*
D03*
Y580900D02*
D03*
X780900D02*
D03*
Y570900D02*
D03*
Y590900D02*
D03*
X790900D02*
D03*
X780900Y600900D02*
D03*
X790900D02*
D03*
X780900Y610900D02*
D03*
X790900D02*
D03*
Y620900D02*
D03*
X780900Y530900D02*
D03*
X790900D02*
D03*
X780900Y540900D02*
D03*
X790900D02*
D03*
X780900Y550900D02*
D03*
X790900D02*
D03*
Y560900D02*
D03*
X780900D02*
D03*
X905900Y709200D02*
D03*
X895900D02*
D03*
X885900D02*
D03*
X875900D02*
D03*
D121*
X780900Y620900D02*
D03*
X865900Y709200D02*
D03*
D122*
X843495Y631213D02*
D03*
X854518D02*
D03*
Y636724D02*
D03*
X849006D02*
D03*
X843495D02*
D03*
X846207Y639524D02*
D03*
X851719D02*
D03*
Y634012D02*
D03*
X846207D02*
D03*
X851719Y628500D02*
D03*
X846207D02*
D03*
D123*
X925258Y695495D02*
D03*
Y669905D02*
D03*
X907542Y695495D02*
D03*
Y669905D02*
D03*
X955436Y583078D02*
D03*
X929846D02*
D03*
X955436Y600794D02*
D03*
X929846D02*
D03*
D124*
X942783Y770198D02*
D03*
X908767D02*
D03*
D125*
X943964Y791300D02*
D03*
X907586D02*
D03*
D126*
X848243Y455639D02*
D03*
X820683D02*
D03*
D127*
X844306Y466269D02*
D03*
X824621D02*
D03*
D128*
X823900Y775200D02*
D03*
X848900D02*
D03*
M02*
