G04*
G04 #@! TF.GenerationSoftware,Altium Limited,Altium Designer,22.5.1 (42)*
G04*
G04 Layer_Color=255*
%FSLAX25Y25*%
%MOIN*%
G70*
G04*
G04 #@! TF.SameCoordinates,416B5E53-2D2E-4D85-A380-7A8587A56ACA*
G04*
G04*
G04 #@! TF.FilePolarity,Positive*
G04*
G01*
G75*
%ADD120C,0.06102*%
%ADD121R,0.06102X0.06102*%
%ADD122C,0.01181*%
%ADD123C,0.06693*%
%ADD124O,0.04331X0.08661*%
%ADD125O,0.05118X0.10236*%
%ADD126O,0.03740X0.07480*%
%ADD127C,0.05709*%
%ADD128C,0.11811*%
D120*
X790900Y570900D02*
D03*
Y580900D02*
D03*
X780900D02*
D03*
Y570900D02*
D03*
Y590900D02*
D03*
X790900D02*
D03*
X780900Y600900D02*
D03*
X790900D02*
D03*
X780900Y610900D02*
D03*
X790900D02*
D03*
Y620900D02*
D03*
X780900Y530900D02*
D03*
X790900D02*
D03*
X780900Y540900D02*
D03*
X790900D02*
D03*
X780900Y550900D02*
D03*
X790900D02*
D03*
Y560900D02*
D03*
X780900D02*
D03*
X905900Y709200D02*
D03*
X895900D02*
D03*
X885900D02*
D03*
X875900D02*
D03*
D121*
X780900Y620900D02*
D03*
X865900Y709200D02*
D03*
D122*
X843495Y631213D02*
D03*
X854518D02*
D03*
Y636724D02*
D03*
X849006D02*
D03*
X843495D02*
D03*
X846207Y639524D02*
D03*
X851719D02*
D03*
Y634012D02*
D03*
X846207D02*
D03*
X851719Y628500D02*
D03*
X846207D02*
D03*
D123*
X925258Y695495D02*
D03*
Y669905D02*
D03*
X907542Y695495D02*
D03*
Y669905D02*
D03*
X955436Y583078D02*
D03*
X929846D02*
D03*
X955436Y600794D02*
D03*
X929846D02*
D03*
D124*
X942783Y770198D02*
D03*
X908767D02*
D03*
D125*
X943964Y791300D02*
D03*
X907586D02*
D03*
D126*
X848243Y455639D02*
D03*
X820683D02*
D03*
D127*
X844306Y466269D02*
D03*
X824621D02*
D03*
D128*
X823900Y775200D02*
D03*
X848900D02*
D03*
M02*
