G04*
G04 #@! TF.GenerationSoftware,Altium Limited,Altium Designer,22.5.1 (42)*
G04*
G04 Layer_Color=65535*
%FSLAX25Y25*%
%MOIN*%
G70*
G04*
G04 #@! TF.SameCoordinates,75008074-F7BD-429D-95DE-B313E7B70AFA*
G04*
G04*
G04 #@! TF.FilePolarity,Positive*
G04*
G01*
G75*
%ADD10C,0.00787*%
%ADD11C,0.00984*%
%ADD12C,0.00394*%
%ADD13C,0.01000*%
%ADD14C,0.01496*%
%ADD15C,0.00500*%
%ADD16C,0.00591*%
%ADD17C,0.01575*%
%ADD18C,0.00200*%
%ADD19C,0.00630*%
%ADD20C,0.00600*%
D10*
X816357Y471017D02*
G03*
X816357Y471017I-394J0D01*
G01*
X813924Y665169D02*
G03*
X813924Y665169I-394J0D01*
G01*
X876164Y757531D02*
G03*
X876164Y757531I-394J0D01*
G01*
X961173Y744476D02*
G03*
X961173Y744476I-394J0D01*
G01*
X946173Y731198D02*
G03*
X946173Y731198I-394J0D01*
G01*
X749845Y643239D02*
X752306D01*
X749845Y673161D02*
X752306D01*
X765494Y643239D02*
X767955D01*
X765494Y673161D02*
X767955D01*
X749845Y643239D02*
Y673161D01*
X767955Y643239D02*
Y673161D01*
X785563Y724533D02*
X802788D01*
X785563Y713804D02*
X802788D01*
X859535Y732592D02*
Y749816D01*
X870264Y732592D02*
Y749816D01*
X800060Y731647D02*
X817284D01*
X800060Y742375D02*
X817284D01*
X860626Y496450D02*
X863674D01*
X860626Y502950D02*
X863674D01*
X840436Y742523D02*
X842994D01*
X840436D02*
Y745527D01*
X850081Y742523D02*
X852640D01*
Y745527D01*
X826931Y739767D02*
Y743113D01*
X832837D01*
X826931Y730909D02*
Y734255D01*
Y730909D02*
X832837D01*
X917704Y737173D02*
Y738058D01*
X918590D01*
X917704Y721917D02*
Y722802D01*
Y721917D02*
X918590D01*
X932960D02*
X933846D01*
Y722802D01*
Y737173D02*
Y738058D01*
X932960D02*
X933846D01*
X943683Y655405D02*
Y658043D01*
Y624972D02*
Y627609D01*
X918486Y655405D02*
Y658043D01*
Y624972D02*
Y627609D01*
X941143Y658043D02*
X943683D01*
X918486D02*
X921025D01*
X941143Y624972D02*
X943683D01*
X918486D02*
X921025D01*
X887500Y574200D02*
X903500D01*
X887500D02*
Y590200D01*
X903500D01*
Y575700D02*
Y590200D01*
Y574200D02*
Y575700D01*
X785510Y682239D02*
Y708224D01*
X799290Y682239D02*
Y708224D01*
X785510D02*
X799290D01*
X785510Y682239D02*
X799290D01*
X860900Y713925D02*
X910900D01*
Y704476D02*
Y713925D01*
X860900Y704476D02*
X910900D01*
X860900D02*
Y713925D01*
X764920Y743106D02*
Y754917D01*
X779880Y743106D02*
Y754917D01*
X762400Y727511D02*
X782400D01*
X826126Y753450D02*
X829174D01*
X826126Y746950D02*
X829174D01*
X876731Y506283D02*
X878404D01*
X876731Y492602D02*
Y494570D01*
Y504314D02*
Y506283D01*
Y492602D02*
X878404D01*
X890313Y497129D02*
Y501657D01*
X795743Y524916D02*
Y626884D01*
X776057D02*
X795743D01*
X776057Y524916D02*
Y626884D01*
Y524916D02*
X795743D01*
D11*
X854904Y749806D02*
G03*
X854904Y749806I-492J0D01*
G01*
X835494Y729924D02*
G03*
X835494Y729924I-492J0D01*
G01*
X933747Y740617D02*
G03*
X933747Y740617I-492J0D01*
G01*
X886992Y572200D02*
G03*
X886992Y572200I-492J0D01*
G01*
X781180Y708224D02*
G03*
X781180Y708224I-492J0D01*
G01*
X866392Y701917D02*
G03*
X866392Y701917I-492J0D01*
G01*
X874762Y499295D02*
G03*
X874762Y499295I-492J0D01*
G01*
X773991Y620900D02*
G03*
X773991Y620900I-492J0D01*
G01*
D12*
X918682Y623397D02*
G03*
X918682Y623397I-197J0D01*
G01*
X764097Y727511D02*
G03*
X764097Y727511I-197J0D01*
G01*
D13*
X792771Y657279D02*
G03*
X792771Y657279I-206J0D01*
G01*
X873400Y759200D02*
Y797200D01*
X799400D02*
X873400D01*
X799400Y758200D02*
Y797200D01*
Y758200D02*
X873400D01*
Y759200D01*
D14*
X814067Y503702D02*
G03*
X814067Y503702I-226J0D01*
G01*
D15*
X819699Y447174D02*
Y451308D01*
Y447174D02*
X849227D01*
Y451308D01*
Y459576D02*
Y466859D01*
X819699Y459576D02*
Y466859D01*
X817467Y594303D02*
Y596862D01*
Y594303D02*
X827113D01*
X878687D02*
X888333D01*
Y596862D01*
X817467Y669106D02*
Y694697D01*
X888333D01*
Y669106D02*
Y694697D01*
X947570Y734417D02*
X950838D01*
X955720D02*
X958988D01*
Y738117D01*
X947570Y734417D02*
Y738117D01*
X955838Y717989D02*
Y721257D01*
Y726139D02*
Y729407D01*
X952137D02*
X955838D01*
X952137Y717989D02*
X955838D01*
X907291Y775946D02*
Y780040D01*
X944259Y775946D02*
Y780040D01*
X796900Y775700D02*
X791652D01*
X880900Y776076D02*
X875652D01*
X878276Y773452D02*
Y778700D01*
X902775Y772698D02*
Y774698D01*
X901775D01*
X901442Y774365D01*
Y774031D01*
X901775Y773698D01*
X902775D01*
X901775D01*
X901442Y773365D01*
Y773032D01*
X901775Y772698D01*
X902775D01*
X900776Y774698D02*
X900109D01*
X900442D01*
Y772698D01*
X900776Y773032D01*
X902775Y767698D02*
Y766365D01*
X902108Y765698D01*
X901442Y766365D01*
Y767698D01*
Y766698D01*
X902775D01*
X900776Y767698D02*
X900109D01*
X900442D01*
Y765698D01*
X900776Y766032D01*
X897777Y767698D02*
X899109D01*
X897777Y766365D01*
Y766032D01*
X898110Y765698D01*
X898776D01*
X899109Y766032D01*
X954275Y772698D02*
Y774698D01*
X953275D01*
X952942Y774365D01*
Y774031D01*
X953275Y773698D01*
X954275D01*
X953275D01*
X952942Y773365D01*
Y773032D01*
X953275Y772698D01*
X954275D01*
X952276Y774698D02*
X951609D01*
X951942D01*
Y772698D01*
X952276Y773032D01*
X949277Y774698D02*
X950609D01*
X949277Y773365D01*
Y773032D01*
X949610Y772698D01*
X950276D01*
X950609Y773032D01*
X952275Y767698D02*
Y766365D01*
X951608Y765698D01*
X950942Y766365D01*
Y767698D01*
Y766698D01*
X952275D01*
X950276Y767698D02*
X949609D01*
X949942D01*
Y765698D01*
X950276Y766032D01*
D16*
X962410Y730489D02*
X963985D01*
X858400Y588913D02*
Y590487D01*
X867172Y583913D02*
Y585487D01*
X810613Y653700D02*
X812187D01*
X913599Y726346D02*
X915174D01*
X909298Y730187D02*
Y731762D01*
X904718Y725233D02*
X906293D01*
X934900Y706413D02*
Y707987D01*
X924113Y716972D02*
X925687D01*
X934900Y710413D02*
Y711987D01*
X941906Y731228D02*
X943481D01*
X883673Y578325D02*
X885248D01*
X907900Y583413D02*
Y584987D01*
X834613Y500139D02*
X836187D01*
X830613D02*
X832187D01*
X826113Y564139D02*
X827687D01*
X830613D02*
X832187D01*
X821613Y500639D02*
X823187D01*
X834613Y564139D02*
X836187D01*
X839113D02*
X840687D01*
X849613Y501700D02*
X851187D01*
X817613Y500867D02*
X819187D01*
X827916Y721137D02*
X829490D01*
X854959Y743507D02*
X856533D01*
X937980Y761956D02*
Y763531D01*
X926862Y742700D02*
X928437D01*
X923113D02*
X924687D01*
X813113Y498367D02*
X814687D01*
X837400Y577913D02*
Y579487D01*
X858700Y571313D02*
Y572887D01*
D17*
X749845Y678278D02*
X767955D01*
X778526Y713804D02*
Y724533D01*
X859535Y725554D02*
X870264D01*
X793022Y731647D02*
Y742375D01*
X821416Y487673D02*
X823384D01*
X918435Y764621D02*
X924734D01*
X832246Y727121D02*
X838546D01*
X815321Y457989D02*
Y464289D01*
X926750Y764621D02*
X933050D01*
X833420Y471989D02*
Y478289D01*
X832947Y471989D02*
Y478289D01*
D18*
X774904Y678543D02*
X791565D01*
Y657779D02*
Y678543D01*
X774904Y657779D02*
Y678543D01*
Y657779D02*
X791565D01*
D19*
X842579Y556664D02*
X848854D01*
X842404Y508639D02*
X848954D01*
X809904D02*
Y556689D01*
X872879Y508664D02*
Y556689D01*
D20*
X812734Y456199D02*
X811401D01*
X812067D01*
Y452867D01*
X811401Y452201D01*
X810734D01*
X810068Y452867D01*
X814067Y455533D02*
X814733Y456199D01*
X816066D01*
X816732Y455533D01*
Y454867D01*
X816066Y454200D01*
X815399D01*
X816066D01*
X816732Y453534D01*
Y452867D01*
X816066Y452201D01*
X814733D01*
X814067Y452867D01*
X814634Y703099D02*
Y699767D01*
X815301Y699101D01*
X816634D01*
X817300Y699767D01*
Y703099D01*
X818633Y699101D02*
X819966D01*
X819299D01*
Y703099D01*
X818633Y702433D01*
X935430Y743641D02*
Y740309D01*
X936096Y739643D01*
X937429D01*
X938096Y740309D01*
Y743641D01*
X942095Y739643D02*
X939429D01*
X942095Y742308D01*
Y742975D01*
X941428Y743641D01*
X940095D01*
X939429Y742975D01*
X784100Y656699D02*
Y653367D01*
X784766Y652700D01*
X786099D01*
X786766Y653367D01*
Y656699D01*
X790098Y652700D02*
Y656699D01*
X788099Y654699D01*
X790765D01*
X775766Y633999D02*
X774433D01*
X775099D01*
Y630666D01*
X774433Y630000D01*
X773766D01*
X773100Y630666D01*
X777099Y630000D02*
X778432D01*
X777765D01*
Y633999D01*
X777099Y633332D01*
X843158Y572087D02*
Y576086D01*
X845157D01*
X845824Y575420D01*
Y574087D01*
X845157Y573420D01*
X843158D01*
X844491D02*
X845824Y572087D01*
X847157Y575420D02*
X847823Y576086D01*
X849156D01*
X849823Y575420D01*
Y574753D01*
X849156Y574087D01*
X848490D01*
X849156D01*
X849823Y573420D01*
Y572754D01*
X849156Y572087D01*
X847823D01*
X847157Y572754D01*
X851155Y575420D02*
X851822Y576086D01*
X853155D01*
X853821Y575420D01*
Y572754D01*
X853155Y572087D01*
X851822D01*
X851155Y572754D01*
Y575420D01*
X822568Y577201D02*
Y581199D01*
X824568D01*
X825234Y580533D01*
Y579200D01*
X824568Y578534D01*
X822568D01*
X823901D02*
X825234Y577201D01*
X829233D02*
X826567D01*
X829233Y579867D01*
Y580533D01*
X828566Y581199D01*
X827234D01*
X826567Y580533D01*
X830566Y577867D02*
X831232Y577201D01*
X832565D01*
X833232Y577867D01*
Y580533D01*
X832565Y581199D01*
X831232D01*
X830566Y580533D01*
Y579867D01*
X831232Y579200D01*
X833232D01*
X811399Y493702D02*
X807401D01*
Y495701D01*
X808067Y496368D01*
X809400D01*
X810067Y495701D01*
Y493702D01*
Y495035D02*
X811399Y496368D01*
Y497700D02*
Y499033D01*
Y498367D01*
X807401D01*
X808067Y497700D01*
X807401Y501033D02*
Y503698D01*
X808067D01*
X810733Y501033D01*
X811399D01*
X872734Y491199D02*
X871401D01*
X872067D01*
Y487867D01*
X871401Y487201D01*
X870734D01*
X870068Y487867D01*
X876066Y487201D02*
Y491199D01*
X874067Y489200D01*
X876732D01*
X815298Y751786D02*
X812632D01*
Y749787D01*
X813965D01*
X812632D01*
Y747787D01*
X816631D02*
X817964D01*
X817297D01*
Y751786D01*
X816631Y751120D01*
X785406Y768836D02*
X784740Y769503D01*
X783407D01*
X782740Y768836D01*
Y766170D01*
X783407Y765504D01*
X784740D01*
X785406Y766170D01*
X786739Y765504D02*
X788072D01*
X787405D01*
Y769503D01*
X786739Y768836D01*
X790071Y769503D02*
X792737D01*
Y768836D01*
X790071Y766170D01*
Y765504D01*
X859134Y715301D02*
Y719299D01*
X861134D01*
X861800Y718633D01*
Y717300D01*
X861134Y716634D01*
X859134D01*
X863133Y715301D02*
X864466D01*
X863799D01*
Y719299D01*
X863133Y718633D01*
X806568Y476699D02*
Y472701D01*
X808567D01*
X809234Y473367D01*
Y476033D01*
X808567Y476699D01*
X806568D01*
X810567Y476033D02*
X811233Y476699D01*
X812566D01*
X813232Y476033D01*
Y475366D01*
X812566Y474700D01*
X813232Y474034D01*
Y473367D01*
X812566Y472701D01*
X811233D01*
X810567Y473367D01*
Y474034D01*
X811233Y474700D01*
X810567Y475366D01*
Y476033D01*
X811233Y474700D02*
X812566D01*
X853568Y477199D02*
Y473201D01*
X855567D01*
X856234Y473867D01*
Y476533D01*
X855567Y477199D01*
X853568D01*
X857567Y473867D02*
X858233Y473201D01*
X859566D01*
X860232Y473867D01*
Y476533D01*
X859566Y477199D01*
X858233D01*
X857567Y476533D01*
Y475867D01*
X858233Y475200D01*
X860232D01*
X903568Y719533D02*
X902901Y720199D01*
X901568D01*
X900902Y719533D01*
Y716867D01*
X901568Y716201D01*
X902901D01*
X903568Y716867D01*
X904900Y716201D02*
X906233D01*
X905567D01*
Y720199D01*
X904900Y719533D01*
X908233D02*
X908899Y720199D01*
X910232D01*
X910898Y719533D01*
Y718866D01*
X910232Y718200D01*
X910898Y717534D01*
Y716867D01*
X910232Y716201D01*
X908899D01*
X908233Y716867D01*
Y717534D01*
X908899Y718200D01*
X908233Y718866D01*
Y719533D01*
X908899Y718200D02*
X910232D01*
X942068Y760201D02*
Y764199D01*
X944068D01*
X944734Y763533D01*
Y762200D01*
X944068Y761534D01*
X942068D01*
X943401D02*
X944734Y760201D01*
X948733D02*
X946067D01*
X948733Y762866D01*
Y763533D01*
X948067Y764199D01*
X946734D01*
X946067Y763533D01*
X952732Y764199D02*
X951399Y763533D01*
X950066Y762200D01*
Y760867D01*
X950732Y760201D01*
X952065D01*
X952732Y760867D01*
Y761534D01*
X952065Y762200D01*
X950066D01*
X934568Y757199D02*
Y753201D01*
X936567D01*
X937234Y753867D01*
Y756533D01*
X936567Y757199D01*
X934568D01*
X941232D02*
X939899Y756533D01*
X938566Y755200D01*
Y753867D01*
X939233Y753201D01*
X940566D01*
X941232Y753867D01*
Y754534D01*
X940566Y755200D01*
X938566D01*
X796068Y469138D02*
Y465140D01*
X798067D01*
X798734Y465806D01*
Y468472D01*
X798067Y469138D01*
X796068D01*
X802732Y465140D02*
X800066D01*
X802732Y467805D01*
Y468472D01*
X802066Y469138D01*
X800733D01*
X800066Y468472D01*
X839699Y725952D02*
Y721953D01*
X841698D01*
X842365Y722620D01*
Y725286D01*
X841698Y725952D01*
X839699D01*
X843697Y721953D02*
X845030D01*
X844364D01*
Y725952D01*
X843697Y725286D01*
X910068Y756699D02*
Y752701D01*
X912067D01*
X912734Y753367D01*
Y756033D01*
X912067Y756699D01*
X910068D01*
X914067D02*
X916732D01*
Y756033D01*
X914067Y753367D01*
Y752701D01*
X770568Y711579D02*
Y708247D01*
X771235Y707580D01*
X772568D01*
X773234Y708247D01*
Y711579D01*
X774567D02*
X777233D01*
Y710913D01*
X774567Y708247D01*
Y707580D01*
X803401Y506368D02*
X806733D01*
X807399Y507034D01*
Y508367D01*
X806733Y509034D01*
X803401D01*
Y513032D02*
X804067Y511699D01*
X805400Y510366D01*
X806733D01*
X807399Y511033D01*
Y512366D01*
X806733Y513032D01*
X806067D01*
X805400Y512366D01*
Y510366D01*
X888837Y572199D02*
Y568867D01*
X889503Y568201D01*
X890836D01*
X891503Y568867D01*
Y572199D01*
X895502D02*
X892836D01*
Y570200D01*
X894169Y570866D01*
X894835D01*
X895502Y570200D01*
Y568867D01*
X894835Y568201D01*
X893502D01*
X892836Y568867D01*
X912901Y622868D02*
X916233D01*
X916899Y623534D01*
Y624867D01*
X916233Y625534D01*
X912901D01*
X913567Y626866D02*
X912901Y627533D01*
Y628866D01*
X913567Y629532D01*
X914234D01*
X914900Y628866D01*
Y628199D01*
Y628866D01*
X915567Y629532D01*
X916233D01*
X916899Y628866D01*
Y627533D01*
X916233Y626866D01*
X851568Y468199D02*
X854234D01*
X852901D01*
Y464201D01*
X855567D02*
Y468199D01*
X857567D01*
X858233Y467533D01*
Y466200D01*
X857567Y465534D01*
X855567D01*
X861565Y464201D02*
Y468199D01*
X859566Y466200D01*
X862232D01*
X852668Y739370D02*
X856667D01*
Y737371D01*
X856001Y736704D01*
X854668D01*
X854001Y737371D01*
Y739370D01*
Y738037D02*
X852668Y736704D01*
Y732706D02*
Y735371D01*
X855334Y732706D01*
X856001D01*
X856667Y733372D01*
Y734705D01*
X856001Y735371D01*
X856667Y728707D02*
Y731373D01*
X854668D01*
X855334Y730040D01*
Y729374D01*
X854668Y728707D01*
X853335D01*
X852668Y729374D01*
Y730706D01*
X853335Y731373D01*
X827078Y715748D02*
X831077D01*
Y713749D01*
X830410Y713082D01*
X829077D01*
X828411Y713749D01*
Y715748D01*
Y714415D02*
X827078Y713082D01*
Y709084D02*
Y711750D01*
X829744Y709084D01*
X830410D01*
X831077Y709750D01*
Y711083D01*
X830410Y711750D01*
X827078Y705751D02*
X831077D01*
X829077Y707751D01*
Y705085D01*
X846899Y558035D02*
X842901D01*
Y560034D01*
X843567Y560701D01*
X844900D01*
X845566Y560034D01*
Y558035D01*
Y559368D02*
X846899Y560701D01*
Y564699D02*
Y562034D01*
X844234Y564699D01*
X843567D01*
X842901Y564033D01*
Y562700D01*
X843567Y562034D01*
X846899Y566032D02*
Y567365D01*
Y566699D01*
X842901D01*
X843567Y566032D01*
X824399Y560702D02*
X820401D01*
Y562701D01*
X821067Y563368D01*
X822400D01*
X823067Y562701D01*
Y560702D01*
Y562035D02*
X824399Y563368D01*
Y564700D02*
Y566033D01*
Y565367D01*
X820401D01*
X821067Y564700D01*
X820401Y570698D02*
X821067Y569366D01*
X822400Y568033D01*
X823733D01*
X824399Y568699D01*
Y570032D01*
X823733Y570698D01*
X823067D01*
X822400Y570032D01*
Y568033D01*
X828899Y495202D02*
X824901D01*
Y497201D01*
X825567Y497867D01*
X826900D01*
X827567Y497201D01*
Y495202D01*
Y496535D02*
X828899Y497867D01*
Y499200D02*
Y500533D01*
Y499867D01*
X824901D01*
X825567Y499200D01*
X824901Y505198D02*
Y502533D01*
X826900D01*
X826234Y503865D01*
Y504532D01*
X826900Y505198D01*
X828233D01*
X828899Y504532D01*
Y503199D01*
X828233Y502533D01*
X837399Y481202D02*
X833401D01*
Y483201D01*
X834067Y483868D01*
X835400D01*
X836067Y483201D01*
Y481202D01*
Y482535D02*
X837399Y483868D01*
Y485200D02*
Y486533D01*
Y485867D01*
X833401D01*
X834067Y485200D01*
X837399Y490532D02*
X833401D01*
X835400Y488533D01*
Y491198D01*
X904902Y587201D02*
Y591199D01*
X906901D01*
X907568Y590533D01*
Y589200D01*
X906901Y588534D01*
X904902D01*
X906235D02*
X907568Y587201D01*
X908900D02*
X910233D01*
X909567D01*
Y591199D01*
X908900Y590533D01*
X912233D02*
X912899Y591199D01*
X914232D01*
X914898Y590533D01*
Y589866D01*
X914232Y589200D01*
X913566D01*
X914232D01*
X914898Y588534D01*
Y587867D01*
X914232Y587201D01*
X912899D01*
X912233Y587867D01*
X880401Y574198D02*
X884399D01*
Y572199D01*
X883733Y571533D01*
X882400D01*
X881734Y572199D01*
Y574198D01*
Y572865D02*
X880401Y571533D01*
Y570200D02*
Y568867D01*
Y569533D01*
X884399D01*
X883733Y570200D01*
X880401Y564202D02*
Y566867D01*
X883066Y564202D01*
X883733D01*
X884399Y564868D01*
Y566201D01*
X883733Y566867D01*
X961155Y726786D02*
X965154D01*
Y724787D01*
X964487Y724120D01*
X963154D01*
X962488Y724787D01*
Y726786D01*
Y725453D02*
X961155Y724120D01*
Y722787D02*
Y721454D01*
Y722121D01*
X965154D01*
X964487Y722787D01*
X961155Y719455D02*
Y718122D01*
Y718789D01*
X965154D01*
X964487Y719455D01*
X939377Y709009D02*
Y713008D01*
X941376D01*
X942042Y712342D01*
Y711009D01*
X941376Y710342D01*
X939377D01*
X940709D02*
X942042Y709009D01*
X943375Y709676D02*
X944042Y709009D01*
X945374D01*
X946041Y709676D01*
Y712342D01*
X945374Y713008D01*
X944042D01*
X943375Y712342D01*
Y711675D01*
X944042Y711009D01*
X946041D01*
X927568Y715201D02*
Y719199D01*
X929567D01*
X930234Y718533D01*
Y717200D01*
X929567Y716534D01*
X927568D01*
X928901D02*
X930234Y715201D01*
X931567Y718533D02*
X932233Y719199D01*
X933566D01*
X934232Y718533D01*
Y717867D01*
X933566Y717200D01*
X934232Y716534D01*
Y715867D01*
X933566Y715201D01*
X932233D01*
X931567Y715867D01*
Y716534D01*
X932233Y717200D01*
X931567Y717867D01*
Y718533D01*
X932233Y717200D02*
X933566D01*
X939068Y703201D02*
Y707199D01*
X941067D01*
X941734Y706533D01*
Y705200D01*
X941067Y704534D01*
X939068D01*
X940401D02*
X941734Y703201D01*
X943067Y707199D02*
X945732D01*
Y706533D01*
X943067Y703867D01*
Y703201D01*
X895568Y723201D02*
Y727199D01*
X897567D01*
X898234Y726533D01*
Y725200D01*
X897567Y724534D01*
X895568D01*
X896901D02*
X898234Y723201D01*
X902232Y727199D02*
X900899Y726533D01*
X899566Y725200D01*
Y723867D01*
X900233Y723201D01*
X901566D01*
X902232Y723867D01*
Y724534D01*
X901566Y725200D01*
X899566D01*
X898042Y728975D02*
Y732974D01*
X900041D01*
X900708Y732307D01*
Y730975D01*
X900041Y730308D01*
X898042D01*
X899375D02*
X900708Y728975D01*
X904706Y732974D02*
X902041D01*
Y730975D01*
X903374Y731641D01*
X904040D01*
X904706Y730975D01*
Y729642D01*
X904040Y728975D01*
X902707D01*
X902041Y729642D01*
X801568Y651701D02*
Y655699D01*
X803567D01*
X804234Y655033D01*
Y653700D01*
X803567Y653034D01*
X801568D01*
X802901D02*
X804234Y651701D01*
X805567Y655033D02*
X806233Y655699D01*
X807566D01*
X808232Y655033D01*
Y654366D01*
X807566Y653700D01*
X806899D01*
X807566D01*
X808232Y653034D01*
Y652367D01*
X807566Y651701D01*
X806233D01*
X805567Y652367D01*
X863568Y578201D02*
Y582199D01*
X865567D01*
X866234Y581533D01*
Y580200D01*
X865567Y579534D01*
X863568D01*
X864901D02*
X866234Y578201D01*
X870232D02*
X867566D01*
X870232Y580866D01*
Y581533D01*
X869566Y582199D01*
X868233D01*
X867566Y581533D01*
X857734Y583623D02*
Y587621D01*
X859734D01*
X860400Y586955D01*
Y585622D01*
X859734Y584956D01*
X857734D01*
X859067D02*
X860400Y583623D01*
X861733D02*
X863066D01*
X862399D01*
Y587621D01*
X861733Y586955D01*
X842190Y732706D02*
Y735371D01*
X841524Y736038D01*
X840191D01*
X839524Y735371D01*
Y732706D01*
X840191Y732039D01*
X841524D01*
X840857Y733372D02*
X842190Y732039D01*
X841524D02*
X842190Y732706D01*
X845523Y732039D02*
Y736038D01*
X843523Y734039D01*
X846189D01*
X856234Y753367D02*
Y756033D01*
X855567Y756699D01*
X854234D01*
X853568Y756033D01*
Y753367D01*
X854234Y752701D01*
X855567D01*
X854901Y754034D02*
X856234Y752701D01*
X855567D02*
X856234Y753367D01*
X857567Y756033D02*
X858233Y756699D01*
X859566D01*
X860232Y756033D01*
Y755367D01*
X859566Y754700D01*
X858899D01*
X859566D01*
X860232Y754034D01*
Y753367D01*
X859566Y752701D01*
X858233D01*
X857567Y753367D01*
X961734Y747367D02*
Y750033D01*
X961067Y750699D01*
X959734D01*
X959068Y750033D01*
Y747367D01*
X959734Y746701D01*
X961067D01*
X960401Y748034D02*
X961734Y746701D01*
X961067D02*
X961734Y747367D01*
X965732Y746701D02*
X963066D01*
X965732Y749367D01*
Y750033D01*
X965066Y750699D01*
X963733D01*
X963066Y750033D01*
X953400Y712867D02*
Y715533D01*
X952734Y716199D01*
X951401D01*
X950734Y715533D01*
Y712867D01*
X951401Y712201D01*
X952734D01*
X952067Y713534D02*
X953400Y712201D01*
X952734D02*
X953400Y712867D01*
X954733Y712201D02*
X956066D01*
X955399D01*
Y716199D01*
X954733Y715533D01*
X793623Y795320D02*
X792290D01*
X792956D01*
Y791988D01*
X792290Y791321D01*
X791623D01*
X790957Y791988D01*
X797621Y795320D02*
X794955D01*
Y793321D01*
X796288Y793987D01*
X796955D01*
X797621Y793321D01*
Y791988D01*
X796955Y791321D01*
X795622D01*
X794955Y791988D01*
X900734Y798199D02*
X899401D01*
X900067D01*
Y794867D01*
X899401Y794201D01*
X898734D01*
X898068Y794867D01*
X904732Y794201D02*
X902067D01*
X904732Y796867D01*
Y797533D01*
X904066Y798199D01*
X902733D01*
X902067Y797533D01*
X861234Y494199D02*
X858568D01*
Y492200D01*
X859901D01*
X858568D01*
Y490201D01*
X865232D02*
X862566D01*
X865232Y492867D01*
Y493533D01*
X864566Y494199D01*
X863233D01*
X862566Y493533D01*
X815901Y481535D02*
X819899D01*
Y483534D01*
X819233Y484201D01*
X816567D01*
X815901Y483534D01*
Y481535D01*
X816567Y488199D02*
X815901Y487533D01*
Y486200D01*
X816567Y485534D01*
X817234D01*
X817900Y486200D01*
Y487533D01*
X818567Y488199D01*
X819233D01*
X819899Y487533D01*
Y486200D01*
X819233Y485534D01*
X819899Y489532D02*
Y490865D01*
Y490199D01*
X815901D01*
X816567Y489532D01*
X792280Y749818D02*
Y745819D01*
X794280D01*
X794946Y746485D01*
Y749151D01*
X794280Y749818D01*
X792280D01*
X798945D02*
X796279D01*
Y747818D01*
X797612Y748485D01*
X798279D01*
X798945Y747818D01*
Y746485D01*
X798279Y745819D01*
X796946D01*
X796279Y746485D01*
X872989Y728164D02*
Y724165D01*
X874988D01*
X875655Y724832D01*
Y727497D01*
X874988Y728164D01*
X872989D01*
X878987Y724165D02*
Y728164D01*
X876988Y726165D01*
X879654D01*
X762753Y726195D02*
Y722197D01*
X764752D01*
X765419Y722863D01*
Y725529D01*
X764752Y726195D01*
X762753D01*
X766752Y725529D02*
X767418Y726195D01*
X768751D01*
X769417Y725529D01*
Y724863D01*
X768751Y724196D01*
X768084D01*
X768751D01*
X769417Y723530D01*
Y722863D01*
X768751Y722197D01*
X767418D01*
X766752Y722863D01*
X757847Y705844D02*
X757181Y706510D01*
X755848D01*
X755181Y705844D01*
Y703178D01*
X755848Y702512D01*
X757181D01*
X757847Y703178D01*
X759180Y702512D02*
X760513D01*
X759846D01*
Y706510D01*
X759180Y705844D01*
X765178Y706510D02*
X763845Y705844D01*
X762512Y704511D01*
Y703178D01*
X763179Y702512D01*
X764511D01*
X765178Y703178D01*
Y703845D01*
X764511Y704511D01*
X762512D01*
X761784Y694033D02*
X761118Y694699D01*
X759785D01*
X759118Y694033D01*
Y691367D01*
X759785Y690701D01*
X761118D01*
X761784Y691367D01*
X763117Y690701D02*
X764450D01*
X763783D01*
Y694699D01*
X763117Y694033D01*
X769115Y694699D02*
X766449D01*
Y692700D01*
X767782Y693366D01*
X768448D01*
X769115Y692700D01*
Y691367D01*
X768448Y690701D01*
X767116D01*
X766449Y691367D01*
X750567Y683833D02*
X749901Y684499D01*
X748568D01*
X747902Y683833D01*
Y681167D01*
X748568Y680501D01*
X749901D01*
X750567Y681167D01*
X751900Y680501D02*
X753233D01*
X752567D01*
Y684499D01*
X751900Y683833D01*
X757232Y680501D02*
Y684499D01*
X755233Y682500D01*
X757898D01*
X844567Y490368D02*
X843901Y489701D01*
Y488368D01*
X844567Y487702D01*
X847233D01*
X847899Y488368D01*
Y489701D01*
X847233Y490368D01*
X847899Y491700D02*
Y493033D01*
Y492367D01*
X843901D01*
X844567Y491700D01*
Y495033D02*
X843901Y495699D01*
Y497032D01*
X844567Y497698D01*
X845234D01*
X845900Y497032D01*
Y496365D01*
Y497032D01*
X846566Y497698D01*
X847233D01*
X847899Y497032D01*
Y495699D01*
X847233Y495033D01*
X804068Y563533D02*
X803401Y564199D01*
X802068D01*
X801402Y563533D01*
Y560867D01*
X802068Y560201D01*
X803401D01*
X804068Y560867D01*
X805400Y560201D02*
X806733D01*
X806067D01*
Y564199D01*
X805400Y563533D01*
X811398Y560201D02*
X808733D01*
X811398Y562866D01*
Y563533D01*
X810732Y564199D01*
X809399D01*
X808733Y563533D01*
X805234Y569033D02*
X804568Y569699D01*
X803235D01*
X802568Y569033D01*
Y566367D01*
X803235Y565701D01*
X804568D01*
X805234Y566367D01*
X806567Y565701D02*
X807900D01*
X807233D01*
Y569699D01*
X806567Y569033D01*
X809899Y565701D02*
X811232D01*
X810565D01*
Y569699D01*
X809899Y569033D01*
X878234Y580033D02*
X877567Y580699D01*
X876234D01*
X875568Y580033D01*
Y577367D01*
X876234Y576701D01*
X877567D01*
X878234Y577367D01*
X879566D02*
X880233Y576701D01*
X881566D01*
X882232Y577367D01*
Y580033D01*
X881566Y580699D01*
X880233D01*
X879566Y580033D01*
Y579366D01*
X880233Y578700D01*
X882232D01*
X794946Y670411D02*
X794280Y671077D01*
X792947D01*
X792280Y670411D01*
Y667745D01*
X792947Y667079D01*
X794280D01*
X794946Y667745D01*
X796279Y670411D02*
X796946Y671077D01*
X798279D01*
X798945Y670411D01*
Y669744D01*
X798279Y669078D01*
X798945Y668411D01*
Y667745D01*
X798279Y667079D01*
X796946D01*
X796279Y667745D01*
Y668411D01*
X796946Y669078D01*
X796279Y669744D01*
Y670411D01*
X796946Y669078D02*
X798279D01*
X904234Y657533D02*
X903567Y658199D01*
X902234D01*
X901568Y657533D01*
Y654867D01*
X902234Y654201D01*
X903567D01*
X904234Y654867D01*
X905567Y658199D02*
X908232D01*
Y657533D01*
X905567Y654867D01*
Y654201D01*
X913584Y643304D02*
X912918Y643971D01*
X911585D01*
X910919Y643304D01*
Y640638D01*
X911585Y639972D01*
X912918D01*
X913584Y640638D01*
X917583Y643971D02*
X916250Y643304D01*
X914917Y641971D01*
Y640638D01*
X915584Y639972D01*
X916917D01*
X917583Y640638D01*
Y641305D01*
X916917Y641971D01*
X914917D01*
X902734Y744033D02*
X902067Y744699D01*
X900734D01*
X900068Y744033D01*
Y741367D01*
X900734Y740701D01*
X902067D01*
X902734Y741367D01*
X906732Y744699D02*
X904066D01*
Y742700D01*
X905399Y743366D01*
X906066D01*
X906732Y742700D01*
Y741367D01*
X906066Y740701D01*
X904733D01*
X904066Y741367D01*
X902734Y738533D02*
X902067Y739199D01*
X900734D01*
X900068Y738533D01*
Y735867D01*
X900734Y735201D01*
X902067D01*
X902734Y735867D01*
X906066Y735201D02*
Y739199D01*
X904066Y737200D01*
X906732D01*
X803734Y647533D02*
X803067Y648199D01*
X801734D01*
X801068Y647533D01*
Y644867D01*
X801734Y644201D01*
X803067D01*
X803734Y644867D01*
X805066Y647533D02*
X805733Y648199D01*
X807066D01*
X807732Y647533D01*
Y646867D01*
X807066Y646200D01*
X806399D01*
X807066D01*
X807732Y645534D01*
Y644867D01*
X807066Y644201D01*
X805733D01*
X805066Y644867D01*
X804500Y673433D02*
X803834Y674099D01*
X802501D01*
X801834Y673433D01*
Y670767D01*
X802501Y670101D01*
X803834D01*
X804500Y670767D01*
X805833Y670101D02*
X807166D01*
X806499D01*
Y674099D01*
X805833Y673433D01*
M02*
