G04*
G04 #@! TF.GenerationSoftware,Altium Limited,Altium Designer,22.5.1 (42)*
G04*
G04 Layer_Color=8388736*
%FSLAX25Y25*%
%MOIN*%
G70*
G04*
G04 #@! TF.SameCoordinates,75008074-F7BD-429D-95DE-B313E7B70AFA*
G04*
G04*
G04 #@! TF.FilePolarity,Negative*
G04*
G01*
G75*
%ADD43R,0.07000X0.08000*%
%ADD60R,0.05315X0.08071*%
%ADD61R,0.06496X0.08071*%
%ADD62R,0.02165X0.05906*%
%ADD63R,0.04134X0.04134*%
%ADD64R,0.08465X0.04134*%
%ADD65R,0.04134X0.08465*%
G04:AMPARAMS|DCode=66|XSize=27.56mil|YSize=25.59mil|CornerRadius=5.41mil|HoleSize=0mil|Usage=FLASHONLY|Rotation=180.000|XOffset=0mil|YOffset=0mil|HoleType=Round|Shape=RoundedRectangle|*
%AMROUNDEDRECTD66*
21,1,0.02756,0.01476,0,0,180.0*
21,1,0.01673,0.02559,0,0,180.0*
1,1,0.01083,-0.00837,0.00738*
1,1,0.01083,0.00837,0.00738*
1,1,0.01083,0.00837,-0.00738*
1,1,0.01083,-0.00837,-0.00738*
%
%ADD66ROUNDEDRECTD66*%
%ADD67R,0.02953X0.03740*%
%ADD68R,0.03740X0.02953*%
%ADD69R,0.04134X0.03347*%
%ADD70R,0.01772X0.03347*%
%ADD71R,0.04331X0.04331*%
%ADD72R,0.03032X0.03543*%
%ADD73R,0.03543X0.03032*%
%ADD74R,0.10630X0.12205*%
%ADD75R,0.11024X0.07480*%
%ADD76R,0.07480X0.11024*%
%ADD77R,0.02953X0.02165*%
%ADD78R,0.04528X0.06102*%
%ADD79R,0.03740X0.03740*%
G04:AMPARAMS|DCode=80|XSize=27.56mil|YSize=25.59mil|CornerRadius=5.41mil|HoleSize=0mil|Usage=FLASHONLY|Rotation=90.000|XOffset=0mil|YOffset=0mil|HoleType=Round|Shape=RoundedRectangle|*
%AMROUNDEDRECTD80*
21,1,0.02756,0.01476,0,0,90.0*
21,1,0.01673,0.02559,0,0,90.0*
1,1,0.01083,0.00738,0.00837*
1,1,0.01083,0.00738,-0.00837*
1,1,0.01083,-0.00738,-0.00837*
1,1,0.01083,-0.00738,0.00837*
%
%ADD80ROUNDEDRECTD80*%
%ADD81C,0.02953*%
%ADD82R,0.10236X0.10236*%
%ADD83O,0.02362X0.01968*%
%ADD84O,0.01968X0.02362*%
%ADD85R,0.17520X0.13976*%
%ADD86R,0.02559X0.03150*%
%ADD87R,0.04921X0.02953*%
%ADD88R,0.01591X0.03391*%
%ADD89R,0.03391X0.01591*%
%ADD90R,0.03740X0.07677*%
%ADD91R,0.08071X0.04134*%
%ADD92R,0.08071X0.13189*%
%ADD93R,0.04528X0.03740*%
%ADD94R,0.03740X0.04528*%
%ADD95R,0.16339X0.16339*%
%ADD96R,0.04134X0.03937*%
%ADD97R,0.08661X0.04134*%
%ADD98O,0.04331X0.08071*%
%ADD99C,0.06299*%
%ADD100C,0.01772*%
%ADD101C,0.12402*%
%ADD102O,0.05709X0.10827*%
%ADD103O,0.04921X0.09252*%
%ADD104R,0.06693X0.06693*%
%ADD105C,0.06693*%
%ADD106C,0.06591*%
%ADD107C,0.02559*%
%ADD108C,0.05591*%
%ADD109C,0.03591*%
%ADD110C,0.24213*%
G36*
X907431Y781855D02*
X907277Y781867D01*
X907124Y781888D01*
X906972Y781916D01*
X906822Y781952D01*
X906674Y781996D01*
X906528Y782047D01*
X906385Y782106D01*
X906245Y782173D01*
X906110Y782247D01*
X905978Y782328D01*
X905850Y782415D01*
X905728Y782509D01*
X905610Y782610D01*
X905498Y782716D01*
X905392Y782828D01*
X905291Y782946D01*
X905197Y783068D01*
X905110Y783196D01*
X905029Y783328D01*
X904955Y783463D01*
X904889Y783603D01*
X904829Y783746D01*
X904778Y783891D01*
X904734Y784040D01*
X904698Y784190D01*
X904670Y784342D01*
X904649Y784495D01*
X904637Y784649D01*
X904633Y784804D01*
Y793859D01*
X904637Y794014D01*
X904649Y794168D01*
X904670Y794321D01*
X904698Y794473D01*
X904734Y794623D01*
X904778Y794772D01*
X904829Y794917D01*
X904889Y795060D01*
X904955Y795200D01*
X905029Y795335D01*
X905110Y795467D01*
X905197Y795595D01*
X905291Y795717D01*
X905392Y795835D01*
X905498Y795947D01*
X905610Y796053D01*
X905728Y796154D01*
X905850Y796248D01*
X905978Y796336D01*
X906110Y796416D01*
X906245Y796490D01*
X906385Y796557D01*
X906528Y796616D01*
X906674Y796667D01*
X906822Y796711D01*
X906972Y796747D01*
X907124Y796775D01*
X907277Y796796D01*
X907431Y796808D01*
X907586Y796812D01*
X907740Y796808D01*
X907895Y796796D01*
X908048Y796775D01*
X908200Y796747D01*
X908350Y796711D01*
X908498Y796667D01*
X908644Y796616D01*
X908787Y796557D01*
X908926Y796490D01*
X909062Y796416D01*
X909194Y796336D01*
X909322Y796248D01*
X909444Y796154D01*
X909562Y796053D01*
X909674Y795947D01*
X909780Y795835D01*
X909881Y795717D01*
X909975Y795595D01*
X910062Y795467D01*
X910143Y795335D01*
X910217Y795200D01*
X910283Y795060D01*
X910343Y794917D01*
X910394Y794772D01*
X910438Y794623D01*
X910474Y794473D01*
X910502Y794321D01*
X910522Y794168D01*
X910535Y794014D01*
X910539Y793859D01*
Y784804D01*
X910535Y784649D01*
X910522Y784495D01*
X910502Y784342D01*
X910474Y784190D01*
X910438Y784040D01*
X910394Y783891D01*
X910343Y783746D01*
X910283Y783603D01*
X910217Y783463D01*
X910143Y783328D01*
X910062Y783196D01*
X909975Y783068D01*
X909881Y782946D01*
X909780Y782828D01*
X909674Y782716D01*
X909562Y782610D01*
X909444Y782509D01*
X909322Y782415D01*
X909194Y782328D01*
X909062Y782247D01*
X908926Y782173D01*
X908787Y782106D01*
X908644Y782047D01*
X908498Y781996D01*
X908350Y781952D01*
X908200Y781916D01*
X908048Y781888D01*
X907895Y781867D01*
X907740Y781855D01*
X907586Y781851D01*
X907431Y781855D01*
D02*
G37*
G36*
X943809D02*
X943655Y781867D01*
X943502Y781888D01*
X943350Y781916D01*
X943200Y781952D01*
X943052Y781996D01*
X942906Y782047D01*
X942763Y782106D01*
X942623Y782173D01*
X942488Y782247D01*
X942356Y782328D01*
X942228Y782415D01*
X942106Y782509D01*
X941988Y782610D01*
X941876Y782716D01*
X941770Y782828D01*
X941669Y782946D01*
X941575Y783068D01*
X941488Y783196D01*
X941407Y783328D01*
X941333Y783463D01*
X941266Y783603D01*
X941207Y783746D01*
X941156Y783891D01*
X941112Y784040D01*
X941076Y784190D01*
X941047Y784342D01*
X941027Y784495D01*
X941015Y784649D01*
X941011Y784804D01*
Y793859D01*
X941015Y794014D01*
X941027Y794168D01*
X941047Y794321D01*
X941076Y794473D01*
X941112Y794623D01*
X941156Y794772D01*
X941207Y794917D01*
X941266Y795060D01*
X941333Y795200D01*
X941407Y795335D01*
X941488Y795467D01*
X941575Y795595D01*
X941669Y795717D01*
X941770Y795835D01*
X941876Y795947D01*
X941988Y796053D01*
X942106Y796154D01*
X942228Y796248D01*
X942356Y796336D01*
X942488Y796416D01*
X942623Y796490D01*
X942763Y796557D01*
X942906Y796616D01*
X943052Y796667D01*
X943200Y796711D01*
X943350Y796747D01*
X943502Y796775D01*
X943655Y796796D01*
X943809Y796808D01*
X943964Y796812D01*
X944118Y796808D01*
X944273Y796796D01*
X944426Y796775D01*
X944578Y796747D01*
X944728Y796711D01*
X944876Y796667D01*
X945022Y796616D01*
X945165Y796557D01*
X945304Y796490D01*
X945440Y796416D01*
X945572Y796336D01*
X945700Y796248D01*
X945822Y796154D01*
X945940Y796053D01*
X946052Y795947D01*
X946158Y795835D01*
X946259Y795717D01*
X946353Y795595D01*
X946440Y795467D01*
X946521Y795335D01*
X946595Y795200D01*
X946661Y795060D01*
X946721Y794917D01*
X946772Y794772D01*
X946816Y794623D01*
X946852Y794473D01*
X946880Y794321D01*
X946900Y794168D01*
X946913Y794014D01*
X946917Y793859D01*
Y784804D01*
X946913Y784649D01*
X946900Y784495D01*
X946880Y784342D01*
X946852Y784190D01*
X946816Y784040D01*
X946772Y783891D01*
X946721Y783746D01*
X946661Y783603D01*
X946595Y783463D01*
X946521Y783328D01*
X946440Y783196D01*
X946353Y783068D01*
X946259Y782946D01*
X946158Y782828D01*
X946052Y782716D01*
X945940Y782610D01*
X945822Y782509D01*
X945700Y782415D01*
X945572Y782328D01*
X945440Y782247D01*
X945304Y782173D01*
X945165Y782106D01*
X945022Y782047D01*
X944876Y781996D01*
X944728Y781952D01*
X944578Y781916D01*
X944426Y781888D01*
X944273Y781867D01*
X944118Y781855D01*
X943964Y781851D01*
X943809Y781855D01*
D02*
G37*
D43*
X867400Y499700D02*
D03*
X856900D02*
D03*
X822400Y750200D02*
D03*
X832900D02*
D03*
D60*
X845880Y455639D02*
D03*
X823046D02*
D03*
D61*
X838400D02*
D03*
X830526D02*
D03*
D62*
X839581Y466269D02*
D03*
X837022D02*
D03*
X834463D02*
D03*
X831904D02*
D03*
X829345D02*
D03*
D63*
X843451Y639480D02*
D03*
Y633968D02*
D03*
Y628457D02*
D03*
X854475Y639480D02*
D03*
Y633968D02*
D03*
Y628457D02*
D03*
X848963Y639480D02*
D03*
Y633968D02*
D03*
Y628457D02*
D03*
D03*
D64*
X819435Y665209D02*
D03*
Y660209D02*
D03*
Y655209D02*
D03*
Y650209D02*
D03*
Y645209D02*
D03*
Y640209D02*
D03*
Y635209D02*
D03*
Y630209D02*
D03*
Y625209D02*
D03*
Y620209D02*
D03*
Y615209D02*
D03*
Y610209D02*
D03*
Y605209D02*
D03*
Y600209D02*
D03*
X886365D02*
D03*
Y605209D02*
D03*
Y610209D02*
D03*
Y615209D02*
D03*
Y620209D02*
D03*
Y625209D02*
D03*
Y630209D02*
D03*
Y635209D02*
D03*
Y640209D02*
D03*
Y645209D02*
D03*
Y650209D02*
D03*
Y655209D02*
D03*
Y660209D02*
D03*
Y665209D02*
D03*
D65*
X830400Y596272D02*
D03*
X835400D02*
D03*
X840400D02*
D03*
X845400D02*
D03*
X850400D02*
D03*
X855400D02*
D03*
X860400D02*
D03*
X865400D02*
D03*
X870400D02*
D03*
X875400D02*
D03*
D66*
X963198Y732261D02*
D03*
Y728718D02*
D03*
X811400Y655472D02*
D03*
Y651928D02*
D03*
X914386Y728117D02*
D03*
Y724574D02*
D03*
X905506Y727004D02*
D03*
Y723461D02*
D03*
X924900Y715200D02*
D03*
Y718743D02*
D03*
X942694Y729456D02*
D03*
Y732999D02*
D03*
X884461Y576553D02*
D03*
Y580096D02*
D03*
X835400Y498367D02*
D03*
Y501911D02*
D03*
X831400Y498367D02*
D03*
Y501911D02*
D03*
X826900Y565911D02*
D03*
Y562367D02*
D03*
X831400Y565911D02*
D03*
Y562367D02*
D03*
X822400Y498867D02*
D03*
Y502411D02*
D03*
X835400Y562367D02*
D03*
Y565911D02*
D03*
X839900D02*
D03*
Y562367D02*
D03*
X850400Y503472D02*
D03*
Y499928D02*
D03*
X818400Y502639D02*
D03*
Y499096D02*
D03*
X828703Y719365D02*
D03*
Y722909D02*
D03*
X855746Y741736D02*
D03*
Y745279D02*
D03*
X927650Y740928D02*
D03*
Y744472D02*
D03*
X923900Y740928D02*
D03*
Y744472D02*
D03*
X813900Y500139D02*
D03*
Y496596D02*
D03*
D67*
X949539Y740952D02*
D03*
X957019D02*
D03*
X953279Y732999D02*
D03*
D68*
X949302Y719958D02*
D03*
Y727438D02*
D03*
X957255Y723698D02*
D03*
D69*
X937783Y773702D02*
D03*
X913767D02*
D03*
D70*
X934633D02*
D03*
X932665D02*
D03*
X930696D02*
D03*
X928728D02*
D03*
X926759D02*
D03*
X924791D02*
D03*
X922822D02*
D03*
X920854D02*
D03*
X918885D02*
D03*
X916917D02*
D03*
X913964Y767009D02*
D03*
X915932D02*
D03*
X917901D02*
D03*
X919869D02*
D03*
X921838D02*
D03*
X923806D02*
D03*
X927743D02*
D03*
X929712D02*
D03*
X931680D02*
D03*
X933649D02*
D03*
X935618D02*
D03*
X937586D02*
D03*
D71*
X804900Y660747D02*
D03*
Y666653D02*
D03*
D72*
X810400Y664169D02*
D03*
Y660231D02*
D03*
X811400Y643231D02*
D03*
Y647169D02*
D03*
X914900Y646732D02*
D03*
Y650669D02*
D03*
X793704Y664842D02*
D03*
Y660905D02*
D03*
X880400Y588168D02*
D03*
Y584232D02*
D03*
X884461Y584356D02*
D03*
Y588293D02*
D03*
X850400Y491231D02*
D03*
Y495169D02*
D03*
X772900Y689608D02*
D03*
Y685671D02*
D03*
X909194Y723264D02*
D03*
Y727201D02*
D03*
D73*
X910072Y735109D02*
D03*
X914009D02*
D03*
X909932Y739700D02*
D03*
X913869D02*
D03*
X910932Y655700D02*
D03*
X914869D02*
D03*
X813931Y566700D02*
D03*
X817869D02*
D03*
X814057Y562439D02*
D03*
X817994D02*
D03*
X768931Y704200D02*
D03*
X772869D02*
D03*
D74*
X758900Y645897D02*
D03*
Y670503D02*
D03*
D75*
X785711Y719169D02*
D03*
X802640D02*
D03*
X817136Y737011D02*
D03*
X800207D02*
D03*
D76*
X864899Y732739D02*
D03*
Y749669D02*
D03*
D77*
X822400Y493972D02*
D03*
Y490428D02*
D03*
D78*
X846538Y741145D02*
D03*
X850278Y749806D02*
D03*
X842798D02*
D03*
D79*
X825947Y737011D02*
D03*
X835396Y740751D02*
D03*
Y733271D02*
D03*
D80*
X860172Y589700D02*
D03*
X856628D02*
D03*
X865400Y584700D02*
D03*
X868943D02*
D03*
X911070Y730974D02*
D03*
X907527D02*
D03*
X936672Y707200D02*
D03*
X933128D02*
D03*
X936672Y711200D02*
D03*
X933128D02*
D03*
X906128Y584200D02*
D03*
X909672D02*
D03*
X936208Y762743D02*
D03*
X939751D02*
D03*
X839172Y578700D02*
D03*
X835628D02*
D03*
X860472Y572100D02*
D03*
X856928D02*
D03*
D81*
X854400Y461139D02*
D03*
D82*
X925775Y729987D02*
D03*
D83*
X932566Y734909D02*
D03*
Y732940D02*
D03*
Y730972D02*
D03*
Y729003D02*
D03*
Y727035D02*
D03*
Y725066D02*
D03*
X918984D02*
D03*
Y727035D02*
D03*
Y729003D02*
D03*
Y730972D02*
D03*
Y732940D02*
D03*
Y734909D02*
D03*
D84*
X930696Y723196D02*
D03*
X928728D02*
D03*
X926759D02*
D03*
X924791D02*
D03*
X922822D02*
D03*
X920854D02*
D03*
Y736779D02*
D03*
X922822D02*
D03*
X924791D02*
D03*
X926759D02*
D03*
X928728D02*
D03*
X930696D02*
D03*
D85*
X931084Y641507D02*
D03*
D86*
X938584Y656291D02*
D03*
X933584D02*
D03*
X928584D02*
D03*
X923584D02*
D03*
X938584Y626724D02*
D03*
X933584D02*
D03*
X928584D02*
D03*
X923584D02*
D03*
D87*
X778904Y660779D02*
D03*
Y665700D02*
D03*
Y670621D02*
D03*
Y675543D02*
D03*
X787565Y660779D02*
D03*
Y665700D02*
D03*
Y670621D02*
D03*
Y675543D02*
D03*
D88*
X891600Y576600D02*
D03*
X893500D02*
D03*
X895500D02*
D03*
X897500D02*
D03*
X899400D02*
D03*
Y587800D02*
D03*
X897500D02*
D03*
X895500D02*
D03*
X893500D02*
D03*
X891600D02*
D03*
D89*
X901100Y580200D02*
D03*
Y582200D02*
D03*
Y584200D02*
D03*
X889900D02*
D03*
Y582200D02*
D03*
Y580200D02*
D03*
D90*
X813841Y509639D02*
D03*
X818172D02*
D03*
X822502D02*
D03*
X826833D02*
D03*
X835495D02*
D03*
X839825D02*
D03*
X851636D02*
D03*
X855967D02*
D03*
X860298D02*
D03*
X864628D02*
D03*
X868959D02*
D03*
Y555639D02*
D03*
X864628D02*
D03*
X860298D02*
D03*
X855967D02*
D03*
X851636D02*
D03*
X839825D02*
D03*
X835495D02*
D03*
X831164D02*
D03*
X826833D02*
D03*
X822502D02*
D03*
X818172D02*
D03*
X813841D02*
D03*
X831164Y509639D02*
D03*
D91*
X780687Y704287D02*
D03*
Y695231D02*
D03*
Y686176D02*
D03*
D92*
X804113Y695231D02*
D03*
D93*
X921584Y761078D02*
D03*
Y748322D02*
D03*
X835396Y710822D02*
D03*
Y723578D02*
D03*
X929900Y761078D02*
D03*
Y748322D02*
D03*
D94*
X811778Y461139D02*
D03*
X799022D02*
D03*
X836963Y475139D02*
D03*
X849719D02*
D03*
X829404D02*
D03*
X816648D02*
D03*
D95*
X772400Y737200D02*
D03*
Y760822D02*
D03*
D96*
X878896Y499393D02*
D03*
D97*
X884900Y493586D02*
D03*
Y505200D02*
D03*
D98*
X848243Y455639D02*
D03*
X820683D02*
D03*
D99*
X844306Y466269D02*
D03*
X824621D02*
D03*
D100*
X846207Y639524D02*
D03*
X843495Y631213D02*
D03*
X854518D02*
D03*
Y636724D02*
D03*
X849006D02*
D03*
X843495D02*
D03*
X851719Y639524D02*
D03*
Y634012D02*
D03*
X846207D02*
D03*
X851719Y628500D02*
D03*
X846207D02*
D03*
D101*
X848900Y775200D02*
D03*
X823900D02*
D03*
D102*
X907586Y791300D02*
D03*
X943964D02*
D03*
D103*
X908767Y770198D02*
D03*
X942783D02*
D03*
D104*
X865900Y709200D02*
D03*
X780900Y620900D02*
D03*
D105*
X875900Y709200D02*
D03*
X885900D02*
D03*
X895900D02*
D03*
X905900D02*
D03*
X790900Y570900D02*
D03*
Y580900D02*
D03*
X780900D02*
D03*
Y570900D02*
D03*
Y590900D02*
D03*
X790900D02*
D03*
X780900Y600900D02*
D03*
X790900D02*
D03*
X780900Y610900D02*
D03*
X790900D02*
D03*
Y620900D02*
D03*
X780900Y530900D02*
D03*
X790900D02*
D03*
X780900Y540900D02*
D03*
X790900D02*
D03*
X780900Y550900D02*
D03*
X790900D02*
D03*
Y560900D02*
D03*
X780900D02*
D03*
D106*
X758900Y635200D02*
D03*
X818900Y710200D02*
D03*
X761400Y685200D02*
D03*
D107*
X923610Y727822D02*
D03*
Y732153D02*
D03*
X927940Y727822D02*
D03*
Y732153D02*
D03*
X936990Y645444D02*
D03*
Y641507D02*
D03*
Y637570D02*
D03*
X933053Y645444D02*
D03*
Y641507D02*
D03*
Y637570D02*
D03*
X929116Y645444D02*
D03*
Y641507D02*
D03*
Y637570D02*
D03*
X925179Y645444D02*
D03*
Y641507D02*
D03*
Y637570D02*
D03*
D108*
X773900Y719070D02*
D03*
D109*
X913986Y744574D02*
D03*
X913986Y749806D02*
D03*
X937900Y728200D02*
D03*
X936900Y715200D02*
D03*
X942900D02*
D03*
X939900Y724200D02*
D03*
X914461Y584325D02*
D03*
X829400Y481139D02*
D03*
X835400Y494139D02*
D03*
X817900Y572700D02*
D03*
X813900Y492139D02*
D03*
X894900Y625200D02*
D03*
X911273Y636078D02*
D03*
X914482Y716700D02*
D03*
X928540Y621044D02*
D03*
X827900Y572700D02*
D03*
X811400Y467700D02*
D03*
X798539Y660728D02*
D03*
X773127Y660720D02*
D03*
X842900Y500700D02*
D03*
X835132Y588932D02*
D03*
X773127Y665680D02*
D03*
X773400Y694700D02*
D03*
X843400Y578700D02*
D03*
X860400Y580200D02*
D03*
Y567900D02*
D03*
X855067Y585200D02*
D03*
X852400Y589700D02*
D03*
X843312Y569322D02*
D03*
X870400Y589200D02*
D03*
X876400Y584700D02*
D03*
X875400Y589200D02*
D03*
X865400Y574700D02*
D03*
X872900Y580200D02*
D03*
X872900Y574200D02*
D03*
X906300Y579700D02*
D03*
X793909Y650191D02*
D03*
Y645191D02*
D03*
X900900Y645200D02*
D03*
X896400Y661200D02*
D03*
X910163Y650846D02*
D03*
X897602Y649902D02*
D03*
X908900Y646200D02*
D03*
D110*
X773900Y782200D02*
D03*
Y460200D02*
D03*
X923900Y684200D02*
D03*
X941900Y460200D02*
D03*
M02*
