G04*
G04 #@! TF.GenerationSoftware,Altium Limited,Altium Designer,22.5.1 (42)*
G04*
G04 Layer_Color=255*
%FSLAX25Y25*%
%MOIN*%
G70*
G04*
G04 #@! TF.SameCoordinates,59F3AC89-7B28-4FAD-B6AF-993134B08C1D*
G04*
G04*
G04 #@! TF.FilePolarity,Positive*
G04*
G01*
G75*
%ADD25R,0.01968X0.02559*%
%ADD26R,0.01000X0.02800*%
%ADD27R,0.02800X0.01000*%
%ADD28R,0.02362X0.03150*%
G04:AMPARAMS|DCode=29|XSize=21.65mil|YSize=19.68mil|CornerRadius=2.46mil|HoleSize=0mil|Usage=FLASHONLY|Rotation=90.000|XOffset=0mil|YOffset=0mil|HoleType=Round|Shape=RoundedRectangle|*
%AMROUNDEDRECTD29*
21,1,0.02165,0.01476,0,0,90.0*
21,1,0.01673,0.01968,0,0,90.0*
1,1,0.00492,0.00738,0.00837*
1,1,0.00492,0.00738,-0.00837*
1,1,0.00492,-0.00738,-0.00837*
1,1,0.00492,-0.00738,0.00837*
%
%ADD29ROUNDEDRECTD29*%
%ADD31R,0.04331X0.02362*%
%ADD32R,0.10039X0.11614*%
%ADD33R,0.03150X0.03937*%
%ADD34R,0.07000X0.08000*%
%ADD35R,0.03937X0.05512*%
%ADD36R,0.10433X0.06890*%
%ADD37R,0.02362X0.01575*%
%ADD38R,0.07874X0.03543*%
%ADD39R,0.03543X0.07874*%
%ADD40R,0.03543X0.03543*%
%ADD41R,0.09646X0.09646*%
%ADD42O,0.01772X0.01378*%
%ADD43O,0.01378X0.01772*%
%ADD44R,0.15748X0.15748*%
%ADD45R,0.03740X0.03740*%
%ADD46R,0.02441X0.02953*%
%ADD47R,0.07480X0.03543*%
%ADD48R,0.07480X0.12598*%
%ADD49R,0.03150X0.03150*%
%ADD50R,0.03543X0.02756*%
%ADD51R,0.01181X0.02756*%
%ADD52R,0.01575X0.05315*%
%ADD53R,0.05906X0.07480*%
%ADD54R,0.04724X0.07480*%
%ADD55R,0.02953X0.02441*%
%ADD56R,0.06890X0.10433*%
%ADD57R,0.03150X0.02362*%
G04:AMPARAMS|DCode=58|XSize=21.65mil|YSize=19.68mil|CornerRadius=2.46mil|HoleSize=0mil|Usage=FLASHONLY|Rotation=0.000|XOffset=0mil|YOffset=0mil|HoleType=Round|Shape=RoundedRectangle|*
%AMROUNDEDRECTD58*
21,1,0.02165,0.01476,0,0,0.0*
21,1,0.01673,0.01968,0,0,0.0*
1,1,0.00492,0.00837,-0.00738*
1,1,0.00492,-0.00837,-0.00738*
1,1,0.00492,-0.00837,0.00738*
1,1,0.00492,0.00837,0.00738*
%
%ADD58ROUNDEDRECTD58*%
%ADD59R,0.03937X0.03150*%
%ADD71R,0.04134X0.03937*%
%ADD72R,0.08661X0.04134*%
%ADD110R,0.16929X0.13386*%
%ADD111C,0.02362*%
%ADD112R,0.03150X0.07087*%
%ADD120C,0.06693*%
%ADD121C,0.06102*%
%ADD122R,0.06102X0.06102*%
%ADD123C,0.01181*%
%ADD124O,0.05118X0.10236*%
%ADD125O,0.04331X0.08661*%
%ADD126C,0.05709*%
%ADD127O,0.03740X0.07480*%
%ADD128C,0.11811*%
D25*
X938584Y656291D02*
D03*
X933584D02*
D03*
X928584D02*
D03*
X923584D02*
D03*
X938584Y626724D02*
D03*
X933584D02*
D03*
X928584D02*
D03*
X923584D02*
D03*
D26*
X891600Y576600D02*
D03*
X893500D02*
D03*
X895500D02*
D03*
X897500D02*
D03*
X899400D02*
D03*
Y587800D02*
D03*
X897500D02*
D03*
X895500D02*
D03*
X893500D02*
D03*
X891600D02*
D03*
D27*
X901100Y580200D02*
D03*
Y582200D02*
D03*
Y584200D02*
D03*
X889900D02*
D03*
Y582200D02*
D03*
Y580200D02*
D03*
D28*
X949539Y740952D02*
D03*
X957019D02*
D03*
X953279Y732999D02*
D03*
D29*
X860472Y572100D02*
D03*
X856928D02*
D03*
X860172Y589700D02*
D03*
X856628D02*
D03*
X865400Y584700D02*
D03*
X868943D02*
D03*
X911070Y730974D02*
D03*
X907527D02*
D03*
X936672Y707200D02*
D03*
X933128D02*
D03*
X936672Y711200D02*
D03*
X933128D02*
D03*
X906128Y584200D02*
D03*
X909672D02*
D03*
X936208Y762743D02*
D03*
X939751D02*
D03*
X839172Y578700D02*
D03*
X835628D02*
D03*
D31*
X787565Y675543D02*
D03*
Y670621D02*
D03*
Y665700D02*
D03*
Y660779D02*
D03*
X778904Y675543D02*
D03*
Y670621D02*
D03*
Y665700D02*
D03*
Y660779D02*
D03*
D32*
X758900Y645897D02*
D03*
Y670503D02*
D03*
D33*
X829404Y475139D02*
D03*
X816648D02*
D03*
X909651Y755700D02*
D03*
X922406D02*
D03*
X811778Y461139D02*
D03*
X799022D02*
D03*
X929143Y755700D02*
D03*
X941899D02*
D03*
X836963Y475139D02*
D03*
X849719D02*
D03*
D34*
X822400Y750200D02*
D03*
X832900D02*
D03*
X867400Y499700D02*
D03*
X856900D02*
D03*
D35*
X846538Y741145D02*
D03*
X850278Y749806D02*
D03*
X842798D02*
D03*
D36*
X817136Y737011D02*
D03*
X800207D02*
D03*
X785711Y719169D02*
D03*
X802640D02*
D03*
D37*
X822400Y493972D02*
D03*
Y490428D02*
D03*
D38*
X886365Y665209D02*
D03*
Y660209D02*
D03*
Y655209D02*
D03*
Y650209D02*
D03*
Y645209D02*
D03*
Y640209D02*
D03*
Y635209D02*
D03*
Y630209D02*
D03*
Y625209D02*
D03*
Y620209D02*
D03*
Y615209D02*
D03*
Y610209D02*
D03*
Y605209D02*
D03*
Y600209D02*
D03*
X819435D02*
D03*
Y605209D02*
D03*
Y610209D02*
D03*
Y615209D02*
D03*
Y620209D02*
D03*
Y625209D02*
D03*
Y630209D02*
D03*
Y635209D02*
D03*
Y640209D02*
D03*
Y645209D02*
D03*
Y650209D02*
D03*
Y655209D02*
D03*
Y660209D02*
D03*
Y665209D02*
D03*
D39*
X875400Y596272D02*
D03*
X870400D02*
D03*
X865400D02*
D03*
X860400D02*
D03*
X855400D02*
D03*
X850400D02*
D03*
X845400D02*
D03*
X840400D02*
D03*
X835400D02*
D03*
X830400D02*
D03*
D40*
X848963Y628457D02*
D03*
D03*
Y633968D02*
D03*
Y639480D02*
D03*
X854475Y628457D02*
D03*
Y633968D02*
D03*
Y639480D02*
D03*
X843451Y628457D02*
D03*
Y633968D02*
D03*
Y639480D02*
D03*
D41*
X925775Y729987D02*
D03*
D42*
X932566Y734909D02*
D03*
Y732940D02*
D03*
Y730972D02*
D03*
Y729003D02*
D03*
Y727035D02*
D03*
Y725066D02*
D03*
X918984D02*
D03*
Y727035D02*
D03*
Y729003D02*
D03*
Y730972D02*
D03*
Y732940D02*
D03*
Y734909D02*
D03*
D43*
X930696Y723196D02*
D03*
X928728D02*
D03*
X926759D02*
D03*
X924791D02*
D03*
X922822D02*
D03*
X920854D02*
D03*
Y736779D02*
D03*
X922822D02*
D03*
X924791D02*
D03*
X926759D02*
D03*
X928728D02*
D03*
X930696D02*
D03*
D44*
X772400Y737200D02*
D03*
Y760822D02*
D03*
D45*
X804900Y660747D02*
D03*
Y666653D02*
D03*
D46*
X900400Y666732D02*
D03*
Y670669D02*
D03*
X810400Y664169D02*
D03*
Y660231D02*
D03*
X811400Y643231D02*
D03*
Y647169D02*
D03*
X914900Y646732D02*
D03*
Y650669D02*
D03*
X793704Y664842D02*
D03*
Y660905D02*
D03*
X880400Y584232D02*
D03*
Y588168D02*
D03*
X884461Y584356D02*
D03*
Y588293D02*
D03*
X850400Y491231D02*
D03*
Y495169D02*
D03*
X772900Y689608D02*
D03*
Y685671D02*
D03*
X909194Y723264D02*
D03*
Y727201D02*
D03*
X921400Y600763D02*
D03*
Y604700D02*
D03*
D47*
X780687Y704287D02*
D03*
Y695231D02*
D03*
Y686176D02*
D03*
D48*
X804113Y695231D02*
D03*
D49*
X825947Y737011D02*
D03*
X835396Y740751D02*
D03*
Y733271D02*
D03*
D50*
X937783Y773702D02*
D03*
X913767D02*
D03*
D51*
X934633D02*
D03*
X932665D02*
D03*
X930696D02*
D03*
X928728D02*
D03*
X926759D02*
D03*
X924791D02*
D03*
X922822D02*
D03*
X920854D02*
D03*
X918885D02*
D03*
X916917D02*
D03*
X913964Y767009D02*
D03*
X915932D02*
D03*
X917901D02*
D03*
X919869D02*
D03*
X921838D02*
D03*
X923806D02*
D03*
X927743D02*
D03*
X929712D02*
D03*
X931680D02*
D03*
X933649D02*
D03*
X935618D02*
D03*
X937586D02*
D03*
D52*
X829345Y466269D02*
D03*
X831904D02*
D03*
X834463D02*
D03*
X837022D02*
D03*
X839581D02*
D03*
D53*
X830526Y455639D02*
D03*
X838400D02*
D03*
D54*
X823046D02*
D03*
X845880D02*
D03*
D55*
X910072Y735109D02*
D03*
X914009D02*
D03*
X909932Y739700D02*
D03*
X913869D02*
D03*
X910932Y655700D02*
D03*
X914869D02*
D03*
X813931Y566700D02*
D03*
X817869D02*
D03*
X814057Y562439D02*
D03*
X817994D02*
D03*
X768931Y704200D02*
D03*
X772869D02*
D03*
D56*
X864899Y732739D02*
D03*
Y749669D02*
D03*
D57*
X949302Y719958D02*
D03*
Y727438D02*
D03*
X957255Y723698D02*
D03*
D58*
X811400Y655472D02*
D03*
Y651928D02*
D03*
X914386Y728117D02*
D03*
Y724574D02*
D03*
X905506Y727004D02*
D03*
Y723461D02*
D03*
X924900Y715200D02*
D03*
Y718743D02*
D03*
X942694Y729456D02*
D03*
Y732999D02*
D03*
X964500Y732829D02*
D03*
Y729285D02*
D03*
X884461Y576553D02*
D03*
Y580096D02*
D03*
X835400Y488360D02*
D03*
Y491903D02*
D03*
X831400Y488360D02*
D03*
Y491903D02*
D03*
X826900Y565911D02*
D03*
Y562367D02*
D03*
X831400Y565911D02*
D03*
Y562367D02*
D03*
X822554Y499228D02*
D03*
Y502772D02*
D03*
X835400Y562367D02*
D03*
Y565911D02*
D03*
X839900D02*
D03*
Y562367D02*
D03*
X850400Y499928D02*
D03*
Y503472D02*
D03*
X818400Y502772D02*
D03*
Y499228D02*
D03*
X828703Y719365D02*
D03*
Y722909D02*
D03*
X855746Y741736D02*
D03*
Y745279D02*
D03*
X927650Y740928D02*
D03*
Y744472D02*
D03*
X923900Y740928D02*
D03*
Y744472D02*
D03*
X813900Y500139D02*
D03*
Y496596D02*
D03*
D59*
X835396Y710822D02*
D03*
Y723578D02*
D03*
D71*
X878896Y499393D02*
D03*
D72*
X884900Y493586D02*
D03*
Y505200D02*
D03*
D110*
X931084Y641507D02*
D03*
D111*
X854400Y461139D02*
D03*
D112*
X813841Y509639D02*
D03*
X818172D02*
D03*
X822502D02*
D03*
X826833D02*
D03*
X835495D02*
D03*
X839825D02*
D03*
X851636D02*
D03*
X855967D02*
D03*
X860298D02*
D03*
X864628D02*
D03*
X868959D02*
D03*
Y555639D02*
D03*
X864628D02*
D03*
X860298D02*
D03*
X855967D02*
D03*
X851636D02*
D03*
X839825D02*
D03*
X835495D02*
D03*
X831164D02*
D03*
X826833D02*
D03*
X822502D02*
D03*
X818172D02*
D03*
X813841D02*
D03*
X831164Y509639D02*
D03*
D120*
X929846Y600794D02*
D03*
X955436D02*
D03*
X929846Y583078D02*
D03*
X955436D02*
D03*
X907542Y669905D02*
D03*
Y695495D02*
D03*
X925258Y669905D02*
D03*
Y695495D02*
D03*
D121*
X780900Y560900D02*
D03*
X790900D02*
D03*
Y550900D02*
D03*
X780900D02*
D03*
X790900Y540900D02*
D03*
X780900D02*
D03*
X790900Y530900D02*
D03*
X780900D02*
D03*
X790900Y620900D02*
D03*
Y610900D02*
D03*
X780900D02*
D03*
X790900Y600900D02*
D03*
X780900D02*
D03*
X790900Y590900D02*
D03*
X780900D02*
D03*
Y570900D02*
D03*
Y580900D02*
D03*
X790900D02*
D03*
Y570900D02*
D03*
X875900Y709200D02*
D03*
X885900D02*
D03*
X895900D02*
D03*
X905900D02*
D03*
D122*
X780900Y620900D02*
D03*
X865900Y709200D02*
D03*
D123*
X846207Y628500D02*
D03*
X851719D02*
D03*
X846207Y634012D02*
D03*
X851719D02*
D03*
Y639524D02*
D03*
X846207D02*
D03*
X843495Y636724D02*
D03*
X849006D02*
D03*
X854518D02*
D03*
Y631213D02*
D03*
X843495D02*
D03*
D124*
X907586Y791300D02*
D03*
X943964D02*
D03*
D125*
X908767Y770198D02*
D03*
X942783D02*
D03*
D126*
X824621Y466269D02*
D03*
X844306D02*
D03*
D127*
X820683Y455639D02*
D03*
X848243D02*
D03*
D128*
X848900Y775200D02*
D03*
X823900D02*
D03*
M02*
