G04*
G04 #@! TF.GenerationSoftware,Altium Limited,Altium Designer,22.5.1 (42)*
G04*
G04 Layer_Physical_Order=2*
G04 Layer_Color=32768*
%FSLAX25Y25*%
%MOIN*%
G70*
G04*
G04 #@! TF.SameCoordinates,75008074-F7BD-429D-95DE-B313E7B70AFA*
G04*
G04*
G04 #@! TF.FilePolarity,Negative*
G04*
G01*
G75*
%ADD134C,0.04000*%
%AMTHOVALD135*
21,1,0.02756,0.05524,0,0,90.0*
1,1,0.05524,0.00000,-0.01378*
1,1,0.05524,0.00000,0.01378*
21,0,0.02756,0.04724,0,0,90.0*
1,0,0.04724,0.00000,-0.01378*
1,0,0.04724,0.00000,0.01378*
4,0,4,0.00141,-0.01237,0.02095,-0.03190,0.01812,-0.03473,-0.00141,-0.01519,0.00141,-0.01237,0.0*
4,0,4,0.00141,0.01519,-0.01812,0.03473,-0.02095,0.03190,-0.00141,0.01237,0.00141,0.01519,0.0*
4,0,4,0.00141,-0.01519,-0.01812,-0.03473,-0.02095,-0.03190,-0.00141,-0.01237,0.00141,-0.01519,0.0*
4,0,4,0.00141,0.01237,0.02095,0.03190,0.01812,0.03473,-0.00141,0.01519,0.00141,0.01237,0.0*
%
%ADD135THOVALD135*%

G04:AMPARAMS|DCode=136|XSize=65.087mil|YSize=65.087mil|CornerRadius=0mil|HoleSize=0mil|Usage=FLASHONLY|Rotation=0.000|XOffset=0mil|YOffset=0mil|HoleType=Round|Shape=Relief|Width=4mil|Gap=4mil|Entries=4|*
%AMTHD136*
7,0,0,0.06509,0.05709,0.00400,45*
%
%ADD136THD136*%
G04:AMPARAMS|DCode=137|XSize=39.496mil|YSize=39.496mil|CornerRadius=0mil|HoleSize=0mil|Usage=FLASHONLY|Rotation=0.000|XOffset=0mil|YOffset=0mil|HoleType=Round|Shape=Relief|Width=4mil|Gap=4mil|Entries=4|*
%AMTHD137*
7,0,0,0.03950,0.03150,0.00400,45*
%
%ADD137THD137*%
%ADD138C,0.07808*%
G04:AMPARAMS|DCode=139|XSize=101.701mil|YSize=101.701mil|CornerRadius=0mil|HoleSize=0mil|Usage=FLASHONLY|Rotation=0.000|XOffset=0mil|YOffset=0mil|HoleType=Round|Shape=Relief|Width=4mil|Gap=4mil|Entries=4|*
%AMTHD139*
7,0,0,0.10170,0.09370,0.00400,45*
%
%ADD139THD139*%
%AMTHOVALD140*
21,1,0.05906,0.05524,0,0,270.0*
1,1,0.05524,0.00000,0.02953*
1,1,0.05524,0.00000,-0.02953*
21,0,0.05906,0.04724,0,0,270.0*
1,0,0.04724,0.00000,0.02953*
1,0,0.04724,0.00000,-0.02953*
4,0,4,-0.00141,0.02811,-0.02095,0.04765,-0.01812,0.05047,0.00141,0.03094,-0.00141,0.02811,0.0*
4,0,4,-0.00141,-0.03094,0.01812,-0.05047,0.02095,-0.04765,0.00141,-0.02811,-0.00141,-0.03094,0.0*
4,0,4,-0.00141,0.03094,0.01812,0.05047,0.02095,0.04765,0.00141,0.02811,-0.00141,0.03094,0.0*
4,0,4,-0.00141,-0.02811,-0.02095,-0.04765,-0.01812,-0.05047,0.00141,-0.03094,-0.00141,-0.02811,0.0*
%
%ADD140THOVALD140*%

%AMTHOVALD141*
21,1,0.03937,0.05524,0,0,270.0*
1,1,0.05524,0.00000,0.01968*
1,1,0.05524,0.00000,-0.01968*
21,0,0.03937,0.04724,0,0,270.0*
1,0,0.04724,0.00000,0.01968*
1,0,0.04724,0.00000,-0.01968*
4,0,4,-0.00141,0.01827,-0.02095,0.03780,-0.01812,0.04063,0.00141,0.02110,-0.00141,0.01827,0.0*
4,0,4,-0.00141,-0.02110,0.01812,-0.04063,0.02095,-0.03780,0.00141,-0.01827,-0.00141,-0.02110,0.0*
4,0,4,-0.00141,0.02110,0.01812,0.04063,0.02095,0.03780,0.00141,0.01827,-0.00141,0.02110,0.0*
4,0,4,-0.00141,-0.01827,-0.02095,-0.03780,-0.01812,-0.04063,0.00141,-0.02110,-0.00141,-0.01827,0.0*
%
%ADD141THOVALD141*%

%ADD142C,0.04816*%
G04:AMPARAMS|DCode=143|XSize=71.779mil|YSize=71.779mil|CornerRadius=0mil|HoleSize=0mil|Usage=FLASHONLY|Rotation=0.000|XOffset=0mil|YOffset=0mil|HoleType=Round|Shape=Relief|Width=4mil|Gap=4mil|Entries=4|*
%AMTHD143*
7,0,0,0.07178,0.06378,0.00400,45*
%
%ADD143THD143*%
%ADD144C,0.01587*%
%ADD145C,0.02800*%
%ADD146C,0.02000*%
G36*
X891400Y669894D02*
X813900D01*
Y697700D01*
X891400D01*
Y669894D01*
D02*
G37*
D134*
Y697700D01*
X813900Y669894D02*
X891400D01*
X813900D02*
Y697700D01*
X891400D01*
X968900Y442700D02*
Y800200D01*
X746400D02*
X968900D01*
X746400Y442700D02*
Y800200D01*
Y442700D02*
X968900D01*
D135*
X848243Y455639D02*
D03*
X820683D02*
D03*
D136*
X844306Y466269D02*
D03*
X824621D02*
D03*
D137*
X846207Y639524D02*
D03*
X843495Y631213D02*
D03*
X854518D02*
D03*
Y636724D02*
D03*
X849006D02*
D03*
X843495D02*
D03*
X851719Y639524D02*
D03*
Y634012D02*
D03*
X846207D02*
D03*
X851719Y628500D02*
D03*
X846207D02*
D03*
D138*
X848900Y775200D02*
D03*
D139*
X823900D02*
D03*
D140*
X907586Y791300D02*
D03*
X943964D02*
D03*
D141*
X908767Y770198D02*
D03*
X942783D02*
D03*
D142*
X865900Y709200D02*
D03*
X885900D02*
D03*
X895900D02*
D03*
X905900D02*
D03*
X790900Y570900D02*
D03*
Y580900D02*
D03*
X780900D02*
D03*
Y570900D02*
D03*
Y590900D02*
D03*
X790900D02*
D03*
X780900Y600900D02*
D03*
X790900D02*
D03*
X780900Y610900D02*
D03*
X790900D02*
D03*
X780900Y620900D02*
D03*
X790900D02*
D03*
X780900Y540900D02*
D03*
X790900D02*
D03*
X780900Y550900D02*
D03*
X790900D02*
D03*
Y560900D02*
D03*
X780900D02*
D03*
D143*
X875900Y709200D02*
D03*
X780900Y530900D02*
D03*
X790900D02*
D03*
D144*
X936990Y645444D02*
D03*
Y641507D02*
D03*
Y637570D02*
D03*
X933053Y645444D02*
D03*
Y641507D02*
D03*
Y637570D02*
D03*
X929116Y645444D02*
D03*
Y641507D02*
D03*
Y637570D02*
D03*
X925179Y645444D02*
D03*
Y641507D02*
D03*
Y637570D02*
D03*
D145*
X773900Y719070D02*
D03*
X761400Y685200D02*
D03*
D146*
X913986Y744574D02*
D03*
X937900Y728200D02*
D03*
X936900Y715200D02*
D03*
X942900D02*
D03*
X939900Y724200D02*
D03*
X914461Y584325D02*
D03*
X829400Y481139D02*
D03*
X835400Y494139D02*
D03*
X817900Y572700D02*
D03*
X813900Y492139D02*
D03*
X894900Y625200D02*
D03*
X911273Y636078D02*
D03*
X914482Y716700D02*
D03*
X928540Y621044D02*
D03*
X827900Y572700D02*
D03*
X811400Y467700D02*
D03*
X798539Y660728D02*
D03*
X773127Y660720D02*
D03*
X842900Y500700D02*
D03*
X835132Y588932D02*
D03*
X773127Y665680D02*
D03*
X843400Y578700D02*
D03*
X860400Y580200D02*
D03*
Y567900D02*
D03*
X855067Y585200D02*
D03*
X852400Y589700D02*
D03*
X843312Y569322D02*
D03*
X870400Y589200D02*
D03*
X876400Y584700D02*
D03*
X875400Y589200D02*
D03*
X865400Y574700D02*
D03*
X872900Y580200D02*
D03*
X872900Y574200D02*
D03*
X906300Y579700D02*
D03*
X793909Y650191D02*
D03*
Y645191D02*
D03*
X900900Y645200D02*
D03*
X896400Y661200D02*
D03*
X910163Y650846D02*
D03*
X897602Y649902D02*
D03*
X908900Y646200D02*
D03*
M02*
