G04*
G04 #@! TF.GenerationSoftware,Altium Limited,Altium Designer,22.5.1 (42)*
G04*
G04 Layer_Color=32896*
%FSLAX25Y25*%
%MOIN*%
G70*
G04*
G04 #@! TF.SameCoordinates,59F3AC89-7B28-4FAD-B6AF-993134B08C1D*
G04*
G04*
G04 #@! TF.FilePolarity,Positive*
G04*
G01*
G75*
%ADD10C,0.01000*%
D10*
X895900Y767065D02*
Y761066D01*
Y767065D02*
X892187D01*
X895900Y764208D02*
X893615D01*
X891501Y767065D02*
Y761066D01*
X888073D01*
X883703Y767065D02*
X887416D01*
Y761066D01*
X883703D01*
X887416Y764208D02*
X885131D01*
X880703Y767065D02*
Y761066D01*
X882703Y767065D02*
X878704D01*
X873705Y765636D02*
X873991Y766208D01*
X874562Y766779D01*
X875133Y767065D01*
X876276D01*
X876847Y766779D01*
X877418Y766208D01*
X877704Y765636D01*
X877990Y764779D01*
Y763351D01*
X877704Y762494D01*
X877418Y761923D01*
X876847Y761351D01*
X876276Y761066D01*
X875133D01*
X874562Y761351D01*
X873991Y761923D01*
X873705Y762494D01*
X872019Y767065D02*
Y761066D01*
X868020Y767065D02*
Y761066D01*
X872019Y764208D02*
X868020D01*
X862650Y767065D02*
X866364D01*
Y761066D01*
X862650D01*
X866364Y764208D02*
X864078D01*
X861650Y767065D02*
Y761066D01*
Y767065D02*
X859079D01*
X858222Y766779D01*
X857937Y766493D01*
X857651Y765922D01*
Y765351D01*
X857937Y764779D01*
X858222Y764494D01*
X859079Y764208D01*
X861650D01*
X859651D02*
X857651Y761066D01*
X851595Y765065D02*
X849881Y761066D01*
X848167Y765065D02*
X849881Y761066D01*
X846910Y765636D02*
Y765922D01*
X846625Y766493D01*
X846339Y766779D01*
X845768Y767065D01*
X844625D01*
X844054Y766779D01*
X843768Y766493D01*
X843483Y765922D01*
Y765351D01*
X843768Y764779D01*
X844340Y763922D01*
X847196Y761066D01*
X843197D01*
X841569Y761637D02*
X841854Y761351D01*
X841569Y761066D01*
X841283Y761351D01*
X841569Y761637D01*
X838255Y767065D02*
X839112Y766779D01*
X839684Y765922D01*
X839969Y764494D01*
Y763637D01*
X839684Y762209D01*
X839112Y761351D01*
X838255Y761066D01*
X837684D01*
X836827Y761351D01*
X836256Y762209D01*
X835970Y763637D01*
Y764494D01*
X836256Y765922D01*
X836827Y766779D01*
X837684Y767065D01*
X838255D01*
X891901Y756323D02*
X892472Y756895D01*
X893329Y757181D01*
X894472D01*
X895329Y756895D01*
X895900Y756323D01*
Y755752D01*
X895614Y755181D01*
X895329Y754895D01*
X894757Y754610D01*
X893044Y754038D01*
X892472Y753753D01*
X892187Y753467D01*
X891901Y752896D01*
Y752039D01*
X892472Y751467D01*
X893329Y751182D01*
X894472D01*
X895329Y751467D01*
X895900Y752039D01*
X890558Y757181D02*
Y751182D01*
Y757181D02*
X887988D01*
X887131Y756895D01*
X886845Y756609D01*
X886559Y756038D01*
Y755467D01*
X886845Y754895D01*
X887131Y754610D01*
X887988Y754324D01*
X890558D01*
X888559D02*
X886559Y751182D01*
X880646D02*
X882931Y757181D01*
X885217Y751182D01*
X884360Y753181D02*
X881503D01*
X879247Y757181D02*
Y751182D01*
Y757181D02*
X877247D01*
X876390Y756895D01*
X875819Y756323D01*
X875533Y755752D01*
X875247Y754895D01*
Y753467D01*
X875533Y752610D01*
X875819Y752039D01*
X876390Y751467D01*
X877247Y751182D01*
X879247D01*
X869191Y757181D02*
Y751182D01*
Y757181D02*
X865478D01*
X869191Y754324D02*
X866906D01*
X864792Y757181D02*
Y751182D01*
X862964Y757181D02*
X862679Y756895D01*
X862393Y757181D01*
X862679Y757466D01*
X862964Y757181D01*
X862679Y755181D02*
Y751182D01*
X857908Y755181D02*
Y750610D01*
X858194Y749754D01*
X858479Y749468D01*
X859051Y749182D01*
X859908D01*
X860479Y749468D01*
X857908Y754324D02*
X858479Y754895D01*
X859051Y755181D01*
X859908D01*
X860479Y754895D01*
X861050Y754324D01*
X861336Y753467D01*
Y752896D01*
X861050Y752039D01*
X860479Y751467D01*
X859908Y751182D01*
X859051D01*
X858479Y751467D01*
X857908Y752039D01*
X856308Y757181D02*
Y751182D01*
Y754038D02*
X855452Y754895D01*
X854880Y755181D01*
X854023D01*
X853452Y754895D01*
X853166Y754038D01*
Y751182D01*
X850738Y757181D02*
Y752324D01*
X850453Y751467D01*
X849881Y751182D01*
X849310D01*
X851595Y755181D02*
X849596D01*
X839455Y755752D02*
X839741Y756323D01*
X840312Y756895D01*
X840883Y757181D01*
X842026D01*
X842597Y756895D01*
X843169Y756323D01*
X843454Y755752D01*
X843740Y754895D01*
Y753467D01*
X843454Y752610D01*
X843169Y752039D01*
X842597Y751467D01*
X842026Y751182D01*
X840883D01*
X840312Y751467D01*
X839741Y752039D01*
X839455Y752610D01*
X836341Y755181D02*
X836913Y754895D01*
X837484Y754324D01*
X837770Y753467D01*
Y752896D01*
X837484Y752039D01*
X836913Y751467D01*
X836341Y751182D01*
X835484D01*
X834913Y751467D01*
X834342Y752039D01*
X834056Y752896D01*
Y753467D01*
X834342Y754324D01*
X834913Y754895D01*
X835484Y755181D01*
X836341D01*
X832742D02*
Y751182D01*
Y754038D02*
X831885Y754895D01*
X831314Y755181D01*
X830457D01*
X829886Y754895D01*
X829600Y754038D01*
Y751182D01*
Y754038D02*
X828743Y754895D01*
X828172Y755181D01*
X827315D01*
X826743Y754895D01*
X826458Y754038D01*
Y751182D01*
X824572Y755181D02*
Y749182D01*
Y754324D02*
X824001Y754895D01*
X823430Y755181D01*
X822573D01*
X822002Y754895D01*
X821430Y754324D01*
X821145Y753467D01*
Y752896D01*
X821430Y752039D01*
X822002Y751467D01*
X822573Y751182D01*
X823430D01*
X824001Y751467D01*
X824572Y752039D01*
X819859Y755181D02*
Y752324D01*
X819574Y751467D01*
X819002Y751182D01*
X818145D01*
X817574Y751467D01*
X816717Y752324D01*
Y755181D02*
Y751182D01*
X814289Y757181D02*
Y752324D01*
X814003Y751467D01*
X813432Y751182D01*
X812861D01*
X815146Y755181D02*
X813146D01*
X812004Y753467D02*
X808576D01*
Y754038D01*
X808862Y754610D01*
X809147Y754895D01*
X809719Y755181D01*
X810575D01*
X811147Y754895D01*
X811718Y754324D01*
X812004Y753467D01*
Y752896D01*
X811718Y752039D01*
X811147Y751467D01*
X810575Y751182D01*
X809719D01*
X809147Y751467D01*
X808576Y752039D01*
X807290Y755181D02*
Y751182D01*
Y753467D02*
X807005Y754324D01*
X806433Y754895D01*
X805862Y755181D01*
X805005D01*
X895900Y735698D02*
Y729700D01*
Y735698D02*
X893900D01*
X893044Y735413D01*
X892472Y734841D01*
X892187Y734270D01*
X891901Y733413D01*
Y731985D01*
X892187Y731128D01*
X892472Y730557D01*
X893044Y729985D01*
X893900Y729700D01*
X895900D01*
X887131Y733699D02*
Y729700D01*
Y732842D02*
X887702Y733413D01*
X888273Y733699D01*
X889130D01*
X889701Y733413D01*
X890273Y732842D01*
X890558Y731985D01*
Y731414D01*
X890273Y730557D01*
X889701Y729985D01*
X889130Y729700D01*
X888273D01*
X887702Y729985D01*
X887131Y730557D01*
X885531Y733699D02*
Y729700D01*
Y732556D02*
X884674Y733413D01*
X884103Y733699D01*
X883246D01*
X882674Y733413D01*
X882389Y732556D01*
Y729700D01*
X879961Y735698D02*
Y730842D01*
X879675Y729985D01*
X879104Y729700D01*
X878532D01*
X880818Y733699D02*
X878818D01*
X877675Y731985D02*
X874248D01*
Y732556D01*
X874533Y733127D01*
X874819Y733413D01*
X875390Y733699D01*
X876247D01*
X876818Y733413D01*
X877390Y732842D01*
X877675Y731985D01*
Y731414D01*
X877390Y730557D01*
X876818Y729985D01*
X876247Y729700D01*
X875390D01*
X874819Y729985D01*
X874248Y730557D01*
X864250Y734841D02*
X864821Y735413D01*
X865678Y735698D01*
X866821D01*
X867677Y735413D01*
X868249Y734841D01*
Y734270D01*
X867963Y733699D01*
X867677Y733413D01*
X867106Y733127D01*
X865392Y732556D01*
X864821Y732270D01*
X864535Y731985D01*
X864250Y731414D01*
Y730557D01*
X864821Y729985D01*
X865678Y729700D01*
X866821D01*
X867677Y729985D01*
X868249Y730557D01*
X862336Y735698D02*
X862050Y735413D01*
X861765Y735698D01*
X862050Y735984D01*
X862336Y735698D01*
X862050Y733699D02*
Y729700D01*
X860708Y733699D02*
X858994Y729700D01*
X857280Y733699D02*
X858994Y729700D01*
X854880Y733699D02*
X855452Y733413D01*
X856023Y732842D01*
X856308Y731985D01*
Y731414D01*
X856023Y730557D01*
X855452Y729985D01*
X854880Y729700D01*
X854023D01*
X853452Y729985D01*
X852881Y730557D01*
X852595Y731414D01*
Y731985D01*
X852881Y732842D01*
X853452Y733413D01*
X854023Y733699D01*
X854880D01*
X846568Y732270D02*
X841426D01*
X832085Y735698D02*
Y731128D01*
X832371Y730271D01*
X832656Y729985D01*
X833228Y729700D01*
X833799D01*
X834370Y729985D01*
X834656Y730271D01*
X834942Y731128D01*
Y731699D01*
X830543Y733699D02*
Y730842D01*
X830257Y729985D01*
X829686Y729700D01*
X828829D01*
X828257Y729985D01*
X827400Y730842D01*
Y733699D02*
Y729700D01*
X825829Y735698D02*
Y729700D01*
X824287Y733699D02*
X822573Y729700D01*
X820859Y733699D02*
X822573Y729700D01*
X823144Y728557D01*
X823715Y727986D01*
X824287Y727700D01*
X824572D01*
X814860Y734270D02*
Y734556D01*
X814575Y735127D01*
X814289Y735413D01*
X813718Y735698D01*
X812575D01*
X812004Y735413D01*
X811718Y735127D01*
X811432Y734556D01*
Y733984D01*
X811718Y733413D01*
X812289Y732556D01*
X815146Y729700D01*
X811147D01*
X808090Y735698D02*
X808947Y735413D01*
X809519Y734556D01*
X809804Y733127D01*
Y732270D01*
X809519Y730842D01*
X808947Y729985D01*
X808090Y729700D01*
X807519D01*
X806662Y729985D01*
X806091Y730842D01*
X805805Y732270D01*
Y733127D01*
X806091Y734556D01*
X806662Y735413D01*
X807519Y735698D01*
X808090D01*
X804177Y734270D02*
Y734556D01*
X803891Y735127D01*
X803605Y735413D01*
X803034Y735698D01*
X801892D01*
X801320Y735413D01*
X801035Y735127D01*
X800749Y734556D01*
Y733984D01*
X801035Y733413D01*
X801606Y732556D01*
X804463Y729700D01*
X800463D01*
X798835Y734270D02*
Y734556D01*
X798550Y735127D01*
X798264Y735413D01*
X797692Y735698D01*
X796550D01*
X795979Y735413D01*
X795693Y735127D01*
X795407Y734556D01*
Y733984D01*
X795693Y733413D01*
X796264Y732556D01*
X799121Y729700D01*
X795122D01*
M02*
